<?xml version="1.0" standalone="no"?>
<!DOCTYPE svg PUBLIC "-//W3C//DTD SVG 1.1//EN" "http://www.w3.org/Graphics/SVG/1.1/DTD/svg11.dtd" >
<svg xmlns="http://www.w3.org/2000/svg" xmlns:xlink="http://www.w3.org/1999/xlink" version="1.1">
<metadata>
Created by FontForge 20201107 at Mon Nov 20 03:07:39 2023
 By 
Copyright 2016 The Inter Project Authors
</metadata>
<defs>
<font id="InterDisplay-BoldItalic" horiz-adv-x="0" >
  <font-face 
    font-family="Inter Display"
    font-weight="700"
    font-style="italic"
    font-stretch="normal"
    units-per-em="2048"
    panose-1="2 0 8 3 0 0 0 2 0 4"
    ascent="1638"
    descent="-410"
    x-height="1056"
    cap-height="1490"
    bbox="-1648 -687 5302 2300"
    underline-thickness="205"
    underline-position="-244"
    slope="-9.39999"
    unicode-range="U+0020-1F852"
  />
<missing-glyph horiz-adv-x="1344" 
d="M860 -416h-688l376 2272h688zM478 320l-42 -256h320l42 256h-320zM542 704l-43 -256h320l43 256h-192l-22 -128h64l11 64h64l-21 -128h-192l32 192h-64zM393 -192l-10 -64h320l10 64h-215l236 127l11 65h-320l-11 -64h216zM658 1408l-37 -224h320l11 64h-128l26 160h-192
zM679 1536l-10 -64h320l10 64h-144l16 96h144l11 64h-320l-11 -64h112l-16 -96h-112zM584 960l-11 -64h192l27 160h128l10 64h-320l-10 -64h128l-16 -96h-128zM563 832l-11 -64h320l37 224h-64l-26 -160h-256zM702 128h-192l21 128h192zM760 1248h-64l15 96h64z" />
    <glyph glyph-name=".notdef" horiz-adv-x="1344" 
d="M860 -416h-688l376 2272h688zM478 320l-42 -256h320l42 256h-320zM542 704l-43 -256h320l43 256h-192l-22 -128h64l11 64h64l-21 -128h-192l32 192h-64zM393 -192l-10 -64h320l10 64h-215l236 127l11 65h-320l-11 -64h216zM658 1408l-37 -224h320l11 64h-128l26 160h-192
zM679 1536l-10 -64h320l10 64h-144l16 96h144l11 64h-320l-11 -64h112l-16 -96h-112zM584 960l-11 -64h192l27 160h128l10 64h-320l-10 -64h128l-16 -96h-128zM563 832l-11 -64h320l37 224h-64l-26 -160h-256zM702 128h-192l21 128h192zM760 1248h-64l15 96h64z" />
    <glyph glyph-name=".null" horiz-adv-x="648" 
 />
    <glyph glyph-name="nonmarkingreturn" horiz-adv-x="682" 
 />
    <glyph glyph-name="space" unicode=" " horiz-adv-x="439" 
 />
    <glyph glyph-name="exclam" unicode="!" horiz-adv-x="505" 
d="M106 439l148 1051h315l-201 -1051h-262zM176 -18q-77 0 -122 55.5t-33 133.5q11 64 63 107.5t117 43.5q76 0 121.5 -56t32.5 -133q-11 -64 -62.5 -107.5t-116.5 -43.5z" />
    <glyph glyph-name="quotedbl" unicode="&#x22;" horiz-adv-x="967" 
d="M238 928l65 562h268l-121 -562h-212zM650 928l65 562h268l-121 -562h-212z" />
    <glyph glyph-name="numbersign" unicode="#" horiz-adv-x="1280" 
d="M580 0l123 374h-299l-124 -374h-223l123 374h-207l75 224h205l97 293h-205l75 225h204l123 374h224l-123 -374h300l123 374h224l-123 -374h205l-74 -225h-206l-96 -293h206l-75 -224h-205l-124 -374h-223zM477 598h300l97 293h-300z" />
    <glyph glyph-name="dollar" unicode="$" horiz-adv-x="1337" 
d="M455 -220l34 202q-237 25 -348.5 158t-75.5 349h295q-14 -101 30.5 -166t140.5 -85l67 405l-33 8q-430 96 -374 429q20 122 94.5 214.5t191.5 149t265 67.5l33 199h189l-34 -204q204 -28 307 -151.5t76 -321.5h-287q15 171 -138 216l-64 -382l30 -7q231 -51 327 -157.5
t67 -281.5q-32 -193 -182.5 -309t-387.5 -133l-33 -199h-190zM720 238q92 17 152.5 66.5t71.5 120.5q11 61 -26.5 103t-137.5 71zM643 911l56 340q-81 -19 -136 -67t-66 -113q-10 -57 23.5 -94.5t122.5 -65.5z" />
    <glyph glyph-name="percent" unicode="%" horiz-adv-x="1921" 
d="M1356 -24q-152 0 -232 101.5t-53 265.5l5 30q19 110 76.5 192.5t143.5 129t187 46.5q152 0 232 -101.5t53 -266.5l-5 -30q-18 -109 -76 -192t-143.5 -129t-187.5 -46zM510 749q-153 0 -232.5 101.5t-52.5 265.5l5 30q18 110 76 192.5t143.5 129t187.5 46.5
q152 0 232 -102t52 -266l-5 -30q-18 -109 -75.5 -192t-143.5 -129t-187 -46zM251 0l1271 1490h218l-1271 -1490h-218zM540 932q61 0 105 46.5t59 137.5l5 30q15 92 -13.5 139t-89.5 47q-60 0 -104 -47t-60 -139l-5 -30q-15 -91 14 -137.5t89 -46.5zM1387 159
q61 0 104.5 46.5t58.5 137.5l5 30q16 92 -13 139t-89 47q-61 0 -105 -47t-59 -139l-5 -30q-15 -91 13.5 -137.5t89.5 -46.5z" />
    <glyph glyph-name="ampersand" unicode="&#x26;" horiz-adv-x="1361" 
d="M480 -22q-156 0 -262 57.5t-153 156.5t-27 224q13 74 50.5 134.5t107.5 119.5t178 128l5 3q-53 87 -80 169.5t-11 180.5q17 103 78.5 183.5t156 127t211.5 46.5q120 0 202.5 -48.5t118.5 -132t19 -186.5q-16 -94 -75.5 -176.5t-167.5 -151.5l-113 -73l199 -278
q44 57 74 122.5t43 134.5h248q-22 -138 -73.5 -259t-136.5 -214l176 -246h-306l-70 98q-88 -61 -192 -90.5t-200 -29.5zM735 292l-224 315l-22 -14q-82 -53 -121.5 -101t-45.5 -105q-7 -72 43 -121.5t136 -49.5q58 0 117.5 20t116.5 56zM590 926l109 65q129 77 138 163
q4 49 -30.5 82.5t-95.5 33.5q-69 0 -122.5 -43.5t-60.5 -119.5q-3 -37 10.5 -78t51.5 -103z" />
    <glyph glyph-name="quotesingle" unicode="'" horiz-adv-x="556" 
d="M238 928l65 562h268l-121 -562h-212z" />
    <glyph glyph-name="parenleft" unicode="(" horiz-adv-x="679" 
d="M131 592q28 175 88 356.5t139 342.5t167 275h283q-88 -141 -164.5 -305.5t-132.5 -335.5t-83 -333q-36 -216 -15.5 -425.5t87.5 -460.5h-283q-82 194 -104 420t18 466z" />
    <glyph glyph-name="parenright" unicode=")" horiz-adv-x="679" 
d="M-93 -294q150 251 240 460.5t125 425.5q27 162 27.5 333t-21.5 335.5t-63 305.5h283q50 -114 76 -275t25.5 -342.5t-29.5 -356.5q-40 -240 -137 -466t-243 -420h-283z" />
    <glyph glyph-name="asterisk" unicode="*" horiz-adv-x="1097" 
d="M474 652l65 285l-265 -159l-68 166l278 126l-236 126l123 168l213 -159l28 285h190l-65 -285l265 159l68 -168l-277 -126l235 -126l-122 -166l-213 159l-30 -285h-189z" />
    <glyph glyph-name="plus" unicode="+" horiz-adv-x="1342" 
d="M472 83l64 386h-386l41 251h386l64 386h251l-64 -386h386l-42 -251h-386l-63 -386h-251z" />
    <glyph glyph-name="comma" unicode="," horiz-adv-x="501" 
d="M-91 -311l165 554h284l-244 -554h-205z" />
    <glyph glyph-name="hyphen" unicode="-" horiz-adv-x="912" 
d="M824 705l-40 -236h-676l39 236h677z" />
    <glyph glyph-name="period" unicode="." horiz-adv-x="501" 
d="M176 -18q-77 0 -122 55.5t-33 133.5q11 64 63 107.5t117 43.5q76 0 121.5 -56t32.5 -133q-11 -64 -62.5 -107.5t-116.5 -43.5z" />
    <glyph glyph-name="slash" unicode="/" horiz-adv-x="745" 
d="M911 1560l-775 -1784h-256l775 1784h256z" />
    <glyph glyph-name="zero" unicode="0" horiz-adv-x="1332" 
d="M575 -24q-188 0 -307.5 93.5t-163.5 266t-5 408.5q39 237 140.5 410t252 266.5t338.5 93.5q187 0 306.5 -93.5t163.5 -266.5t5 -410t-140.5 -409t-252 -265.5t-337.5 -93.5zM616 222q145 0 252 139.5t147 382.5q40 244 -20.5 384t-205.5 140q-146 0 -253 -140t-147 -384
q-40 -243 20.5 -382.5t206.5 -139.5z" />
    <glyph glyph-name="one" unicode="1" horiz-adv-x="799" 
d="M846 1490l-247 -1490h-296l200 1207h-1l-387 -222l45 270l408 235h278z" />
    <glyph glyph-name="two" unicode="2" horiz-adv-x="1224" 
d="M-10 0l37 226l624 467q111 85 191.5 160.5t97.5 177.5q18 111 -33 174t-165 63q-115 0 -202.5 -77t-109.5 -213h-283q26 161 109.5 281.5t211.5 187.5t288 67q159 0 273 -57t167 -162t29 -248q-26 -154 -125 -270.5t-275 -250.5l-361 -277l-1 -2h635l-40 -247h-1068z" />
    <glyph glyph-name="three" unicode="3" horiz-adv-x="1270" 
d="M551 -24q-186 0 -301.5 70t-162 187t-22.5 259h294q-21 -130 36.5 -203t184.5 -73q118 0 204.5 59.5t102.5 153.5q16 98 -54.5 158t-202.5 60h-133l37 225h133q121 0 201.5 55t95.5 147q15 91 -40 148t-161 57q-110 0 -189.5 -64t-97.5 -172h-290q23 136 105 242.5
t211 167.5t293 61q152 0 262.5 -53t164 -145.5t34.5 -209.5q-22 -129 -115.5 -216.5t-223.5 -113.5v-3q152 -20 222 -122.5t48 -237.5q-21 -126 -108.5 -224.5t-224 -155.5t-303.5 -57z" />
    <glyph glyph-name="four" unicode="4" horiz-adv-x="1346" 
d="M24 321l40 238l810 931h377l-154 -930h194l-39 -239h-195l-53 -321h-290l54 321h-744zM806 560l106 636h-1l-551 -634v-2h446z" />
    <glyph glyph-name="five" unicode="5" horiz-adv-x="1226" 
d="M536 -22q-159 0 -275.5 60t-174.5 168t-42 252h291q-12 -105 47.5 -173t170.5 -68q116 0 205 77.5t109 199.5q20 123 -33.5 202t-165.5 79q-99 0 -179 -41.5t-117 -115.5h-281l191 872h954l-42 -249h-682l-86 -352h2q67 59 141 88.5t166 29.5q141 0 246 -62.5t154 -176
t24 -266.5t-109.5 -271.5t-215.5 -185.5t-298 -67z" />
    <glyph glyph-name="six" unicode="6" horiz-adv-x="1264" 
d="M578 -24q-185 0 -307 88.5t-169 254.5t-8 397q40 245 133 424t237.5 276.5t340.5 97.5q148 0 256.5 -56t165 -153t49.5 -220h-287q-2 87 -49.5 139t-144.5 52q-160 0 -264 -128t-138 -337h2q69 85 158.5 130t204.5 45q149 0 255.5 -64t155.5 -176.5t25 -257.5
q-25 -152 -109.5 -267.5t-214.5 -180t-292 -64.5zM588 218q76 0 143 35.5t112.5 96.5t58.5 138q19 114 -39.5 190.5t-166.5 76.5q-119 0 -207 -75t-108 -193q-19 -114 41 -191.5t166 -77.5z" />
    <glyph glyph-name="seven" unicode="7" horiz-adv-x="1127" 
d="M52 0l828 1232v2h-719l43 256h1037l-42 -253l-828 -1237h-319z" />
    <glyph glyph-name="eight" unicode="8" horiz-adv-x="1258" 
d="M549 -24q-169 0 -290.5 53.5t-180 149t-36.5 221.5q15 95 68 173.5t132.5 131.5t175.5 68v2q-115 25 -172.5 117.5t-37.5 217.5q20 118 97.5 209.5t199.5 143t274 51.5q154 0 264.5 -51t163.5 -142t33 -211q-21 -125 -110 -218t-212 -119l-1 -2q135 -25 207 -127.5
t49 -243.5q-21 -126 -105 -221.5t-217.5 -149t-301.5 -53.5zM570 200q115 0 198.5 61.5t99.5 159.5q17 100 -43 165t-173 65q-114 0 -198.5 -64.5t-101.5 -165.5q-16 -99 43.5 -160t174.5 -61zM682 879q100 0 172 55.5t87 148.5q16 91 -34 146.5t-150 55.5
q-101 0 -172.5 -56t-87.5 -146q-15 -92 35 -148t150 -56z" />
    <glyph glyph-name="nine" unicode="9" horiz-adv-x="1264" 
d="M550 -24q-148 0 -262.5 56t-177 153t-54.5 220h287q2 -87 53.5 -139t149.5 -52q160 0 260 128t135 337h-2q-139 -172 -370 -172q-144 0 -248.5 64.5t-153.5 176.5t-25 256q25 152 109.5 267t214.5 179t291 64q186 0 308 -86.5t169.5 -249.5t8.5 -395
q-40 -245 -128.5 -426.5t-228.5 -281t-336 -99.5zM648 739q74 0 139 35t110 95t57 136q19 114 -43 190.5t-172 76.5q-74 0 -139 -35t-109.5 -96t-56.5 -137q-20 -114 41.5 -189.5t172.5 -75.5z" />
    <glyph glyph-name="colon" unicode=":" horiz-adv-x="502" 
d="M177 -18q-77 0 -122 55.5t-33 133.5q11 64 63 107.5t117 43.5q76 0 121.5 -56t32.5 -133q-11 -64 -62.5 -107.5t-116.5 -43.5zM292 681q-77 0 -122 55.5t-33 133.5q11 64 63 107.5t117 43.5q76 0 121.5 -56t32.5 -133q-11 -64 -62.5 -107.5t-116.5 -43.5z" />
    <glyph glyph-name="semicolon" unicode=";" horiz-adv-x="505" 
d="M-91 -311l165 554h284l-244 -554h-205zM295 681q-77 0 -122 55.5t-33 133.5q11 64 63 107.5t117 43.5q76 0 121.5 -56t32.5 -133q-11 -64 -62.5 -107.5t-116.5 -43.5z" />
    <glyph glyph-name="less" unicode="&#x3c;" horiz-adv-x="1342" 
d="M138 473l40 243l1091 454l-47 -285l-741 -284l-2 -14l646 -284l-47 -283z" />
    <glyph glyph-name="equal" unicode="=" horiz-adv-x="1342" 
d="M124 232l42 249h993l-41 -249h-994zM204 709l41 248h993l-41 -248h-993z" />
    <glyph glyph-name="greater" unicode="&#x3e;" horiz-adv-x="1342" 
d="M1186 473l-1091 -453l47 283l741 284l2 14l-647 284l48 285l940 -454z" />
    <glyph glyph-name="question" unicode="?" horiz-adv-x="1161" 
d="M408 467l9 55q17 99 52 159.5t92.5 103t143.5 87.5q83 47 125.5 101t52.5 113q14 84 -36 134.5t-147 50.5q-107 0 -179.5 -64t-89.5 -174h-284q24 141 98.5 249t193.5 169t274 61q146 0 257 -51t167 -141.5t36 -207.5q-37 -228 -260 -361q-104 -62 -162.5 -112
t-72.5 -137l-6 -35h-264zM463 -18q-71 0 -112.5 49.5t-29.5 120.5q12 70 70 120t128 50q71 0 112 -50t30 -120q-12 -71 -69.5 -120.5t-128.5 -49.5z" />
    <glyph glyph-name="at" unicode="@" horiz-adv-x="2063" 
d="M903 -432q-299 0 -503.5 119.5t-294.5 335t-42 503.5q36 217 133.5 393.5t246 304t339.5 196t413 68.5q287 0 485 -113.5t285.5 -318.5t41.5 -480q-44 -269 -181.5 -417.5t-345.5 -148.5q-132 0 -191.5 54t-60.5 114h-2q-35 -64 -117 -112.5t-203 -48.5q-139 0 -230 67
t-128 182.5t-13 261.5q27 159 108 271t194.5 171.5t234.5 59.5q100 0 166 -36.5t86 -85.5h1l17 99h212l-112 -672q-9 -58 7 -82.5t56 -24.5q87 0 156 91.5t95 252.5q36 214 -21.5 366.5t-197 234t-352.5 81.5q-226 0 -408.5 -89t-302.5 -252t-157 -386t22 -385.5t205 -251
t372 -88.5q134 0 249.5 24.5t186.5 50.5l63 -212q-72 -28 -203 -62.5t-309 -34.5zM959 246q114 0 191.5 73.5t100.5 208.5q23 136 -19.5 209.5t-155.5 73.5q-116 0 -198.5 -73.5t-104.5 -209.5q-23 -136 23 -209t163 -73z" />
    <glyph glyph-name="A" unicode="A" horiz-adv-x="1461" 
d="M-78 0l770 1490h396l276 -1490h-330l-51 325h-556l-162 -325h-343zM550 571h394l-24 154q-16 114 -32 232t-32 257q-63 -139 -118.5 -257t-110.5 -232z" />
    <glyph glyph-name="B" unicode="B" horiz-adv-x="1320" 
d="M24 0l246 1490h589q241 0 356.5 -111.5t86.5 -290.5q-20 -122 -108 -200.5t-215 -109.5v-1q133 -16 212.5 -113t51.5 -263q-29 -180 -177.5 -290.5t-403.5 -110.5h-638zM365 242h285q118 0 194 52.5t92 147.5q15 91 -40 144t-171 53h-294zM469 871h271q101 0 169 52.5
t83 140.5q14 85 -35 134.5t-150 49.5h-275z" />
    <glyph glyph-name="C" unicode="C" horiz-adv-x="1495" 
d="M696 -24q-183 0 -319.5 74.5t-212.5 213t-76 329.5q0 183 58.5 348.5t168 294.5t262.5 203.5t342 74.5q176 0 308 -67t204 -190t69 -292h-310q-5 132 -79 204.5t-201 72.5q-126 0 -222 -56.5t-161.5 -150.5t-98.5 -208.5t-33 -230.5q0 -163 81 -255.5t238 -92.5
q138 0 245 72t157 203h311q-52 -166 -159 -289t-254 -190.5t-318 -67.5z" />
    <glyph glyph-name="D" unicode="D" horiz-adv-x="1436" 
d="M604 0h-580l247 1490h515q225 0 377.5 -91t218 -258t27.5 -395q-38 -229 -141 -396.5t-269 -258.5t-395 -91zM375 259h202q226 0 355 126t168 361q38 235 -40.5 360t-300.5 125h-223z" />
    <glyph glyph-name="E" unicode="E" horiz-adv-x="1240" 
d="M24 0l247 1490h1069l-44 -264h-762l-56 -345h704l-43 -257h-704l-60 -360h761l-43 -264h-1069z" />
    <glyph glyph-name="F" unicode="F" horiz-adv-x="1192" 
d="M24 0l247 1490h1036l-45 -264h-728l-60 -366h679l-43 -256h-678l-100 -604h-308z" />
    <glyph glyph-name="G" unicode="G" horiz-adv-x="1507" 
d="M696 -24q-187 0 -323.5 76.5t-210.5 215.5t-74 327q0 183 59.5 348.5t169.5 294t261.5 202.5t336.5 74q170 0 305 -64.5t210.5 -182t68.5 -276.5h-313q-2 114 -73 182.5t-202 68.5q-126 0 -222.5 -56.5t-162 -151t-98.5 -208t-33 -228.5q0 -165 83.5 -257.5t239.5 -92.5
q105 0 193 40t147 110t79 160h-326l39 234h627l-33 -200q-31 -185 -136 -323.5t-263.5 -215.5t-348.5 -77z" />
    <glyph glyph-name="H" unicode="H" horiz-adv-x="1472" 
d="M24 0l247 1490h308l-100 -598h633l100 598h307l-247 -1490h-307l104 628h-633l-104 -628h-308z" />
    <glyph glyph-name="I" unicode="I" horiz-adv-x="531" 
d="M579 1490l-247 -1490h-308l247 1490h308z" />
    <glyph glyph-name="J" unicode="J" horiz-adv-x="1152" 
d="M472 -22q-201 0 -318 96.5t-117 277.5q0 23 4.5 60.5t21.5 139.5h290q-15 -92 -18 -118t-3 -39q0 -77 41.5 -117.5t118.5 -40.5q90 0 152 54.5t79 157.5l173 1041h308l-174 -1045q-37 -225 -182 -346t-376 -121z" />
    <glyph glyph-name="K" unicode="K" horiz-adv-x="1404" 
d="M24 0l247 1490h308l-68 -412l-46 -270q63 63 126 125.5t127 126.5l439 430h380l-665 -644l433 -846h-336l-322 651l-247 -241l-68 -410h-308z" />
    <glyph glyph-name="L" unicode="L" horiz-adv-x="1140" 
d="M24 0l247 1490h308l-204 -1226h677l-43 -264h-985z" />
    <glyph glyph-name="M" unicode="M" horiz-adv-x="1831" 
d="M24 0l247 1490h447l131 -696q10 -66 24 -170.5t26 -200.5q42 97 91 203t80 173l359 691h450l-247 -1490h-301l117 711q13 76 36 194.5t45 239.5q-59 -129 -114.5 -249t-90.5 -190l-370 -706h-249l-138 711q-12 68 -28.5 184.5t-33.5 241.5q-17 -120 -33 -238t-29 -193
l-117 -706h-302z" />
    <glyph glyph-name="N" unicode="N" horiz-adv-x="1486" 
d="M24 0l247 1490h319l355 -762q19 -43 51 -121t63 -158q12 87 24.5 171.5t20.5 132.5l123 737h307l-247 -1490h-318l-322 690q-24 52 -64 145.5t-85 209.5q-15 -119 -29.5 -212t-22.5 -142l-114 -691h-308z" />
    <glyph glyph-name="O" unicode="O" horiz-adv-x="1532" 
d="M690 -24q-179 0 -314.5 74.5t-211.5 213.5t-76 330q0 181 59 346.5t168 294.5t260.5 204t338.5 75q179 0 314.5 -74.5t211 -213t75.5 -331.5q0 -183 -59.5 -348.5t-169 -294t-261 -202.5t-335.5 -74zM704 248q121 0 215 56.5t158.5 150.5t98 208.5t33.5 229.5
q0 170 -84 259.5t-225 89.5q-120 0 -214 -56.5t-159 -150.5t-98.5 -208.5t-33.5 -230.5q0 -169 83.5 -258.5t225.5 -89.5z" />
    <glyph glyph-name="P" unicode="P" horiz-adv-x="1292" 
d="M24 0l247 1490h584q167 0 280.5 -60.5t163 -171t24.5 -260.5t-110.5 -259t-219 -168t-300.5 -59h-277l-84 -512h-308zM459 770h261q122 0 203 62.5t99 168.5q18 107 -43 169t-183 62h-260z" />
    <glyph glyph-name="Q" unicode="Q" horiz-adv-x="1532" 
d="M690 -24q-179 0 -314.5 74.5t-211.5 213.5t-76 330q0 181 59 346.5t168 294.5t260.5 204t338.5 75q179 0 314.5 -74.5t211 -213t75.5 -331.5q0 -236 -97.5 -441t-269.5 -330l159 -248h-258l-91 146q-127 -46 -268 -46zM659 512h239l94 -153q106 93 161.5 239t55.5 295
q0 170 -84 259.5t-225 89.5q-120 0 -214 -56.5t-159 -150.5t-98.5 -208.5t-33.5 -230.5q0 -169 83.5 -258.5t225.5 -89.5q54 0 105 12z" />
    <glyph glyph-name="R" unicode="R" horiz-adv-x="1332" 
d="M24 0l247 1490h593q167 0 280.5 -59.5t163 -169.5t24.5 -260q-25 -148 -113.5 -256.5t-223.5 -165.5l203 -579h-316l-178 521h-16h-270l-86 -521h-308zM459 768h270q121 0 202.5 65t99.5 172q17 107 -43.5 168t-182.5 61h-269z" />
    <glyph glyph-name="S" unicode="S" horiz-adv-x="1337" 
d="M599 -24q-292 0 -433 136.5t-101 376.5h295q-17 -123 52 -191.5t211 -68.5q130 0 218.5 53.5t102.5 142.5q12 70 -39.5 115t-188.5 76l-151 35q-430 96 -374 429q22 131 106.5 228.5t217 151.5t297.5 54q260 0 396 -128t105 -353h-287q9 108 -52.5 168t-181.5 60
q-115 0 -198 -53.5t-97 -136.5q-11 -67 38 -108.5t181 -71.5l138 -31q231 -51 327 -157.5t67 -281.5q-34 -209 -206.5 -327t-442.5 -118z" />
    <glyph glyph-name="T" unicode="T" horiz-adv-x="1302" 
d="M160 1226l45 264h1211l-44 -264h-452l-202 -1226h-308l203 1226h-453z" />
    <glyph glyph-name="U" unicode="U" horiz-adv-x="1442" 
d="M645 -24q-189 0 -319 71t-188 195.5t-31 286.5l160 961h301l-158 -956q-22 -131 45 -211.5t203 -80.5q99 0 179.5 41.5t133 112t67.5 158.5l155 936h301l-163 -981q-27 -161 -120 -281t-238.5 -186t-327.5 -66z" />
    <glyph glyph-name="V" unicode="V" horiz-adv-x="1445" 
d="M444 0l-276 1490h324l121 -725q16 -107 32 -227.5t33 -257.5q62 137 116.5 257.5t104.5 227.5l354 725h342l-759 -1490h-392z" />
    <glyph glyph-name="W" unicode="W" horiz-adv-x="2041" 
d="M321 0l-153 1490h324l53 -740q6 -98 9.5 -196t5.5 -197q37 99 74.5 197t77.5 196l307 740h314l61 -740q7 -97 12.5 -194.5t8.5 -194.5q35 97 71.5 194.5t74.5 194.5l298 740h332l-648 -1490h-343l-77 813q-5 55 -8.5 116.5t-6.5 132.5q-27 -71 -50.5 -132.5t-46.5 -116.5
l-345 -813h-345z" />
    <glyph glyph-name="X" unicode="X" horiz-adv-x="1428" 
d="M-75 0l661 762l-367 728h342l119 -253q27 -58 53.5 -115.5t53.5 -115.5q45 58 91 116t94 115l213 253h348l-603 -719l399 -771h-347l-157 315q-27 53 -52.5 105.5t-50.5 105.5q-42 -53 -85.5 -105.5t-88.5 -105.5l-267 -315h-356z" />
    <glyph glyph-name="Y" unicode="Y" horiz-adv-x="1413" 
d="M473 0l92 557l-397 933h338l179 -447q18 -45 35 -90t33 -90q30 45 61 90t64 90l320 447h365l-698 -933l-92 -557h-300z" />
    <glyph glyph-name="Z" unicode="Z" horiz-adv-x="1310" 
d="M5 0l30 181l921 1059h-749l42 250h1129l-30 -182l-922 -1058h749l-41 -250h-1129z" />
    <glyph glyph-name="bracketleft" unicode="[" horiz-adv-x="679" 
d="M-5 -294l308 1860h479l-38 -231h-185l-231 -1398h184l-38 -231h-479z" />
    <glyph glyph-name="backslash" unicode="\" horiz-adv-x="745" 
d="M360 -224l-185 1784h256l185 -1784h-256z" />
    <glyph glyph-name="bracketright" unicode="]" horiz-adv-x="679" 
d="M-67 -294l38 231h185l231 1398h-185l39 231h478l-308 -1860h-478z" />
    <glyph glyph-name="asciicircum" unicode="^" horiz-adv-x="948" 
d="M93 814l413 641h243l201 -641h-229l-121 438h-12l-266 -438h-229z" />
    <glyph glyph-name="underscore" unicode="_" horiz-adv-x="974" 
d="M886 0l-37 -228h-973l37 228h973z" />
    <glyph glyph-name="grave" unicode="`" horiz-adv-x="604" 
d="M429 1186l-202 313h288l122 -313h-208z" />
    <glyph glyph-name="a" unicode="a" horiz-adv-x="1220" 
d="M423 -22q-138 0 -229.5 69t-127.5 193t-9 289q27 162 105 286t192 193.5t249 69.5q102 0 176 -41.5t109 -123.5h4l24 143h287l-175 -1056h-287l26 158h-3q-61 -89 -149 -134.5t-192 -45.5zM539 218q111 0 193.5 84.5t105.5 226.5q24 141 -30.5 226t-165.5 85
q-108 0 -185.5 -81.5t-102.5 -229.5q-24 -148 26.5 -229.5t158.5 -81.5z" />
    <glyph glyph-name="b" unicode="b" horiz-adv-x="1224" 
d="M638 -22q-112 0 -189.5 49t-111.5 147h-1l-28 -174h-291l246 1490h295l-93 -572h1q50 82 137 121t183 39q180 0 284 -122.5t104 -324.5q0 -119 -36 -235t-104.5 -210.5t-168 -151t-227.5 -56.5zM565 218q102 0 172 63t106.5 159t36.5 193q0 101 -47.5 154t-132.5 53
q-101 0 -174 -62t-112 -155t-39 -189q0 -101 50.5 -158.5t139.5 -57.5z" />
    <glyph glyph-name="c" unicode="c" horiz-adv-x="1136" 
d="M512 -24q-142 0 -246 56t-160 157.5t-56 237.5q0 127 43 244.5t123.5 209.5t193.5 145.5t254 53.5q135 0 239 -52.5t159.5 -147t43.5 -219.5h-285q1 75 -35 128t-126 53q-101 0 -171.5 -63t-107 -159.5t-36.5 -196.5q0 -99 45.5 -154t133.5 -55q93 0 159 52t93 131h287
q-27 -124 -105 -219t-193 -148.5t-253 -53.5z" />
    <glyph glyph-name="d" unicode="d" horiz-adv-x="1223" 
d="M439 -22q-183 0 -286.5 118t-103.5 316q0 124 37 243t106.5 214.5t169 152t225.5 56.5q222 0 298 -181h1l97 593h294l-246 -1490h-290l25 155h-1q-60 -95 -144 -136t-182 -41zM523 218q100 0 173 61t113 154t40 190q0 102 -51 159.5t-141 57.5q-101 0 -171 -63
t-106 -158.5t-36 -194.5q0 -100 47 -153t132 -53z" />
    <glyph glyph-name="e" unicode="e" horiz-adv-x="1145" 
d="M518 -24q-230 0 -359 125t-104 381q15 183 99.5 317.5t220.5 207.5t306 73q118 0 212 -36t148.5 -108.5t54.5 -180.5q0 -134 -88.5 -205t-258 -98.5t-410.5 -31.5q-2 -97 38 -160t164 -63q97 0 158 39.5t86 102.5h276q-57 -163 -195 -263t-348 -100zM360 612
q187 4 287 21t137 46.5t37 71.5q0 49 -43.5 77.5t-126.5 28.5q-137 0 -202 -71.5t-89 -173.5z" />
    <glyph glyph-name="f" unicode="f" horiz-adv-x="752" 
d="M799 1056l-38 -231h-217l-154 -925q-26 -160 -118 -239t-274 -79h-157l39 238h87q66 0 95.5 26.5t40.5 91.5l147 887h-183l38 231h183l23 137q49 297 392 297h168l-39 -231h-101q-63 0 -93 -26.5t-41 -89.5l-14 -87h216z" />
    <glyph glyph-name="g" unicode="g" horiz-adv-x="1222" 
d="M458 -432q-229 0 -340.5 94t-108.5 248h278q12 -125 175 -125q115 0 189.5 64t92.5 178l23 152h-1q-63 -93 -142.5 -136.5t-181.5 -43.5q-184 0 -287.5 119t-103.5 311q0 122 37.5 238t108 208.5t169 147.5t220.5 55q109 0 186.5 -46.5t114.5 -134.5h1l26 159h291
l-169 -1025q-28 -167 -108 -269t-200.5 -148t-269.5 -46zM525 235q100 0 172.5 59.5t112 150.5t39.5 187q0 99 -50.5 155.5t-140.5 56.5q-100 0 -170 -61t-106.5 -154t-36.5 -190q0 -100 47.5 -152t132.5 -52z" />
    <glyph glyph-name="h" unicode="h" horiz-adv-x="1199" 
d="M409 587l-97 -587h-295l247 1490h295l-98 -590q65 85 148.5 131.5t193.5 46.5q169 0 258 -108.5t56 -308.5l-110 -661h-294l101 607q17 106 -24.5 161.5t-134.5 55.5q-91 0 -158.5 -57t-87.5 -180z" />
    <glyph glyph-name="i" unicode="i" horiz-adv-x="504" 
d="M17 0l175 1056h295l-175 -1056h-295zM362 1198q-68 0 -108 46t-29 112q11 67 66 113t124 46t109 -46t29 -113q-11 -66 -66.5 -112t-124.5 -46z" />
    <glyph glyph-name="j" unicode="j" horiz-adv-x="505" 
d="M193 1056h294l-190 -1145q-25 -155 -129 -242t-279 -87h-118l39 233h66q59 0 90 30t43 99zM362 1198q-68 0 -108 46t-29 112q11 67 66 113t124 46t109 -46t29 -113q-11 -66 -66.5 -112t-124.5 -46z" />
    <glyph glyph-name="k" unicode="k" horiz-adv-x="1127" 
d="M17 0l247 1490h295l-139 -838h3l437 404h346l-489 -458l336 -598h-345l-240 429l-101 -94l-55 -335h-295z" />
    <glyph glyph-name="l" unicode="l" horiz-adv-x="504" 
d="M559 1490l-247 -1490h-295l247 1490h295z" />
    <glyph glyph-name="m" unicode="m" horiz-adv-x="1810" 
d="M17 0l174 1056h284l-27 -173q64 102 152.5 148.5t182.5 46.5q108 0 184.5 -55.5t97.5 -148.5q56 99 152.5 151.5t208.5 52.5q105 0 181.5 -46.5t110.5 -133.5t14 -208l-114 -690h-294l108 655q16 96 -24 138t-109 42q-92 0 -156.5 -60t-79.5 -148l-103 -627h-284l110 664
q13 82 -23.5 126.5t-108.5 44.5q-84 0 -154 -60t-87 -161l-101 -614h-295z" />
    <glyph glyph-name="n" unicode="n" horiz-adv-x="1199" 
d="M407 577l-95 -577h-295l174 1056h290l-25 -153q66 86 151 130.5t192 44.5q174 0 261.5 -113.5t54.5 -312.5l-108 -652h-294l102 617q17 106 -24.5 156.5t-128.5 50.5q-97 0 -166 -62t-89 -185z" />
    <glyph glyph-name="o" unicode="o" horiz-adv-x="1188" 
d="M519 -24q-217 0 -342.5 123.5t-125.5 329.5q0 134 44.5 251.5t127.5 207.5t196.5 141t250.5 51q217 0 342.5 -124t125.5 -331q0 -129 -43.5 -246t-124.5 -208t-195.5 -143t-255.5 -52zM536 215q101 0 169.5 63t103.5 158t35 192q0 102 -53 157.5t-138 55.5
q-99 0 -168 -62.5t-104.5 -158t-35.5 -194.5q0 -102 52.5 -156.5t138.5 -54.5z" />
    <glyph glyph-name="p" unicode="p" horiz-adv-x="1223" 
d="M-53 -418l244 1474h291l-23 -142h1q61 89 145 126.5t181 37.5q180 0 284 -120.5t104 -317.5q0 -122 -36.5 -240t-106 -213.5t-169.5 -152t-228 -56.5q-110 0 -186.5 50t-107.5 140h-1l-97 -586h-295zM565 218q102 0 172 63t106.5 159t36.5 193q0 101 -47.5 154t-132.5 53
q-101 0 -174 -62t-112 -155t-39 -189q0 -101 50.5 -158.5t139.5 -57.5z" />
    <glyph glyph-name="q" unicode="q" horiz-adv-x="1223" 
d="M961 -418h-294l94 567h-1q-60 -90 -141.5 -130.5t-179.5 -40.5q-183 0 -286.5 118t-103.5 316q0 124 37 243t106.5 214.5t169 152t225.5 56.5q221 0 302 -180h1l25 158h290zM523 218q100 0 173 61t113 154t40 190q0 102 -51 159.5t-141 57.5q-101 0 -171 -63t-106 -158.5
t-36 -194.5q0 -100 47 -153t132 -53z" />
    <glyph glyph-name="r" unicode="r" horiz-adv-x="764" 
d="M17 0l175 1056h284l-30 -180h3q45 95 114.5 141t174.5 46q26 0 47.5 -1t38.5 -1l-41 -251q-16 1 -52.5 3t-73.5 2q-91 0 -161 -62t-89 -181l-95 -572h-295z" />
    <glyph glyph-name="s" unicode="s" horiz-adv-x="1065" 
d="M464 -26q-130 0 -229.5 39t-156.5 113.5t-57 180.5v12t1 13h289q-8 -147 162 -147q83 0 143.5 36.5t60.5 96.5q0 62 -110 85l-179 35q-277 56 -277 270q0 111 65 194.5t176 129.5t251 46q190 0 304 -81.5t114 -222.5q0 -25 -4 -53h-273q8 69 -33 108.5t-115 39.5
q-82 0 -135.5 -39.5t-53.5 -94.5q0 -63 102 -85l194 -39q276 -56 276 -253q0 -114 -68.5 -200.5t-185.5 -135t-261 -48.5z" />
    <glyph glyph-name="t" unicode="t" horiz-adv-x="756" 
d="M798 1056l-38 -231h-216l-82 -499q-9 -54 9.5 -74.5t77.5 -20.5h113l-38 -231h-171q-175 0 -246 68t-47 212l90 545h-183l38 231h183l48 288h294l-48 -288h216z" />
    <glyph glyph-name="u" unicode="u" horiz-adv-x="1199" 
d="M384 -22q-169 0 -252 108.5t-50 308.5l110 661h294l-101 -607q-17 -106 25 -161.5t134 -55.5q91 0 158.5 57t88.5 180l97 587h294l-175 -1056h-290l28 166q-69 -90 -158 -139t-203 -49z" />
    <glyph glyph-name="v" unicode="v" horiz-adv-x="1134" 
d="M315 0l-216 1056h296l88 -522q9 -61 17.5 -123t16.5 -123q28 61 57 123t59 123l258 522h319l-567 -1056h-328z" />
    <glyph glyph-name="w" unicode="w" horiz-adv-x="1676" 
d="M249 0l-150 1056h305l35 -369q8 -94 14 -193t11 -197q41 98 81.5 197t80.5 193l163 369h265l39 -369q9 -93 17 -192t15 -197q38 98 75.5 196.5t76.5 192.5l158 369h316l-500 -1056h-305l-53 420q-8 66 -14.5 136t-12.5 141q-30 -71 -60 -141t-61 -136l-193 -420h-303z
" />
    <glyph glyph-name="x" unicode="x" horiz-adv-x="1100" 
d="M-75 0l467 538l-266 518h312l68 -148q19 -46 36.5 -89t34.5 -85q31 42 63 85.5t68 88.5l119 148h332l-441 -511l283 -545h-311l-79 162q-21 48 -39.5 92t-36.5 88l-68 -88t-72 -92l-135 -162h-335z" />
    <glyph glyph-name="y" unicode="y" horiz-adv-x="1134" 
d="M-27 -418l39 233h134q52 0 81.5 26t61.5 86l42 77l-232 1052h297l90 -522q9 -56 17 -113l16 -114q53 115 109 227l264 522h318l-667 -1219q-139 -255 -375 -255h-195z" />
    <glyph glyph-name="z" unicode="z" horiz-adv-x="1071" 
d="M9 0l33 198l618 621l1 3h-516l39 234h871l-35 -209l-606 -611l-1 -3h513l-38 -233h-879z" />
    <glyph glyph-name="braceleft" unicode="{" horiz-adv-x="900" 
d="M695 -294q-110 0 -198 15t-146 57t-80 122.5t0 211.5l29 176q18 108 -18 159t-147 55h-22v0l16 100l12 68l16 100v0h24q111 4 163.5 55t70.5 158l29 177q29 174 105.5 261t191.5 116t262 29l-38 -227q-121 0 -170.5 -46t-68.5 -161l-38 -230q-13 -79 -69 -152.5
t-196 -113.5q84 -27 125 -69.5t50.5 -94t0.5 -103.5l-38 -229q-19 -115 15.5 -161t156.5 -46z" />
    <glyph glyph-name="bar" unicode="|" horiz-adv-x="710" 
d="M732 1970l-405 -2450h-279l406 2450h278z" />
    <glyph glyph-name="braceright" unicode="}" horiz-adv-x="900" 
d="M-67 -294l37 227q122 0 171.5 46t68.5 161l38 229q13 78 69 152t196 115q-85 27 -125.5 69.5t-50 93.5t-1.5 103l38 230q19 115 -15 161t-156 46l38 227q110 0 197.5 -15t146 -57t80 -122.5t0.5 -211.5l-30 -177q-18 -112 22 -162.5t163 -50.5h3l-17 -100v0l-28 -168
q-124 0 -181.5 -50.5t-75.5 -163.5l-30 -176q-29 -175 -105 -262t-191.5 -115.5t-261.5 -28.5z" />
    <glyph glyph-name="asciitilde" unicode="~" horiz-adv-x="1342" 
d="M114 406q27 204 131.5 311t249.5 107q69 0 126.5 -28.5t125.5 -99.5q37 -37 63 -56.5t64 -19.5q53 0 93.5 41t52.5 128h230q-27 -204 -133.5 -311t-246.5 -106q-73 -1 -131 29.5t-124 97.5q-39 41 -63.5 59t-61.5 18q-52 0 -92.5 -39.5t-53.5 -130.5h-230z" />
    <glyph glyph-name="uni00A0" unicode="&#xa0;" horiz-adv-x="439" 
 />
    <glyph glyph-name="exclamdown" unicode="&#xa1;" horiz-adv-x="511" 
d="M-61 -418l198 1037h266l-144 -1037h-320zM289 735q-72 0 -114 50.5t-30 121.5q12 72 71 122.5t130 50.5q72 0 114 -50.5t30 -122.5q-12 -71 -71 -121.5t-130 -50.5z" />
    <glyph glyph-name="cent" unicode="&#xa2;" horiz-adv-x="1136" 
d="M440 0l33 197q-181 22 -284 141.5t-103 304.5q0 122 39.5 235.5t114 204t179.5 147t236 65.5l32 195h124l-33 -198q114 -15 200 -70.5t130 -143.5t34 -200h-286q2 65 -25 114t-93 62l-101 -613q63 19 108.5 65t66.5 107h286q-25 -116 -96 -207.5t-175.5 -146.5
t-230.5 -65l-32 -194h-124zM512 435l101 610q-75 -25 -127 -88.5t-78.5 -147.5t-26.5 -169q0 -176 131 -205z" />
    <glyph glyph-name="sterling" unicode="&#xa3;" horiz-adv-x="1258" 
d="M-23 0l41 251v0q80 0 128 37.5t57 119.5l23 208h-147l38 231h135l17 158q17 160 98 273t205.5 173.5t269.5 60.5q143 0 247.5 -62t153 -174t23.5 -263h-283q20 125 -24.5 186.5t-138.5 61.5q-99 0 -167.5 -61t-83.5 -180l-22 -173h340l-38 -231h-331l-20 -165
q-10 -76 -47 -124t-91 -76h450q57 0 66 55l9 57h278l-10 -56q-53 -307 -372 -307h-804z" />
    <glyph glyph-name="currency" unicode="&#xa4;" horiz-adv-x="1511" 
d="M664 -20q-105 0 -194.5 34t-157.5 94l-155 -132l-113 142l159 135q-37 75 -49.5 165t4.5 190q17 105 62.5 198t111.5 170l-122 146l160 142l124 -147q84 55 180.5 86t197.5 31t187.5 -31.5t153.5 -88.5l173 150l117 -142l-176 -150q40 -76 54.5 -168.5t-2.5 -195.5
q-17 -99 -59 -188t-103 -164l120 -138l-164 -142l-112 135q-88 -62 -189.5 -96.5t-207.5 -34.5zM695 167q118 0 224 58.5t180 159t95 223.5q20 125 -20.5 225t-127.5 158t-205 58q-119 0 -226 -58t-180.5 -158t-94.5 -225q-20 -123 20.5 -223.5t127.5 -159t207 -58.5z" />
    <glyph glyph-name="yen" unicode="&#xa5;" horiz-adv-x="1120" 
d="M476 1490l146 -588l341 588h311l-456 -724h225l-29 -175h-298l-19 -113h298l-29 -175h-298l-50 -303h-298l50 303h-318l29 175h318l19 113h-318l29 175h251l-214 724h310z" />
    <glyph glyph-name="brokenbar" unicode="&#xa6;" horiz-adv-x="643" 
d="M170 414h265l-115 -694h-265zM613 1490l-114 -691h-265l114 691h265z" />
    <glyph glyph-name="section" unicode="&#xa7;" horiz-adv-x="1159" 
d="M1087 1122h-262q9 60 -23.5 100t-110.5 40q-62 0 -110 -28.5t-57 -80.5q-9 -54 33 -93t83 -58l257 -132q26 -14 63 -38.5t69 -64t46 -96.5t-5 -135q-15 -60 -53.5 -103t-84.5 -69.5t-82 -36.5l-4 -2q104 -108 78 -268q-19 -114 -88.5 -194t-173 -122t-222.5 -42
q-132 0 -224.5 49t-134.5 138t-21 210h262q-12 -73 32 -111.5t130 -35.5q59 1 112.5 26.5t63.5 81.5q6 40 -12 68.5t-46 48.5t-54 34l-257 130q-28 13 -65 38t-69 65t-45.5 97.5t5.5 135.5q21 91 89.5 142.5t130.5 67.5v3q-45 53 -67.5 118t-8.5 148q17 103 83 183.5
t166.5 127t222.5 46.5q125 0 210.5 -50.5t123.5 -138t20 -199.5zM823 522q22 80 -97 137l-229 115q-36 19 -79 -8t-55 -78q-12 -41 14.5 -76t82.5 -62l227 -113q32 -17 77 8.5t59 76.5z" />
    <glyph glyph-name="dieresis" unicode="&#xa8;" horiz-adv-x="1199" 
d="M932 1192q-70 0 -109 44t-27 111q11 67 64 111.5t123 44.5q69 0 108.5 -44.5t27.5 -111.5q-11 -67 -64.5 -111t-122.5 -44zM486 1192q-70 0 -108.5 44t-26.5 111q11 67 64 111.5t122 44.5q70 0 109.5 -44.5t27.5 -111.5q-11 -67 -64.5 -111t-123.5 -44z" />
    <glyph glyph-name="copyright" unicode="&#xa9;" horiz-adv-x="1825" 
d="M838 -23q-162 0 -294 61.5t-222 170t-127.5 251t-10.5 305.5q25 155 106 290.5t201.5 238.5t266 161t301.5 58q162 0 294 -61.5t222 -170t127.5 -251t11.5 -305.5q-26 -155 -107 -290.5t-201 -238.5t-266 -161t-302 -58zM843 211q114 0 221 43t195.5 119.5t148 176.5
t78.5 215q24 142 -26.5 259t-156.5 186t-249 69q-114 0 -221 -43t-195.5 -119.5t-148 -176.5t-78.5 -215q-23 -142 27.5 -259t156 -186t248.5 -69zM543 744q18 114 89.5 208t174.5 149.5t217 55.5q99 0 176.5 -43.5t119.5 -119t38 -169.5h-211q-3 57 -47.5 93t-109.5 36
q-86 0 -158 -61t-87 -148q-13 -86 38 -147.5t138 -61.5q64 0 117.5 36t74.5 92h211q-27 -94 -92.5 -169t-155 -119t-189.5 -43q-114 -1 -198.5 55t-124.5 149.5t-21 206.5z" />
    <glyph glyph-name="ordfeminine" unicode="&#xaa;" horiz-adv-x="944" 
d="M646 774q-37 -33 -92.5 -57.5t-129.5 -24.5q-122 0 -178 62.5t-39 165.5q18 111 115 171t274 60h104l8 51q22 127 -98 128q-67 -1 -108.5 -26t-49.5 -74l-175 14q16 101 115 167.5t243 66.5q134 0 204.5 -69.5t47.5 -206.5l-52 -314q-7 -44 -9.5 -90t7.5 -93h-181
q-6 33 -6 69zM681 1034h-104q-88 0 -135 -33.5t-54 -76.5q-15 -87 105 -88q41 0 87.5 19t78.5 44z" />
    <glyph glyph-name="guillemotleft" unicode="&#xab;" horiz-adv-x="1264" 
d="M365 144l-296 440l442 440h327l-435 -440l289 -440h-327zM834 144l-296 440l442 440h327l-435 -440l289 -440h-327z" />
    <glyph glyph-name="logicalnot" unicode="&#xac;" horiz-adv-x="1342" 
d="M827 315l38 228h-655l40 239h905l-77 -467h-251z" />
    <glyph glyph-name="registered" unicode="&#xae;" horiz-adv-x="1314" 
d="M625 346q-160 0 -279 78.5t-175.5 211t-29.5 292.5q20 120 82.5 225.5t155.5 185.5t206 125.5t233 45.5q161 0 280.5 -78.5t176 -210.5t29.5 -293q-20 -120 -82.5 -225.5t-156 -185.5t-206.5 -125.5t-234 -45.5zM650 499q120 0 227 57.5t181.5 155t93.5 216.5
q20 118 -22 215.5t-130 155.5t-207 58q-118 0 -225 -58t-181 -155.5t-94 -215.5t22 -215.5t129.5 -155.5t205.5 -58zM469 666l89 536h263q74 1 121.5 -45t33.5 -130q-9 -55 -39 -93.5t-72 -60.5l69 -207h-151l-55 181h-92l-30 -181h-137zM653 947h89q30 -1 56.5 19t32.5 61
q7 40 -13 57.5t-49 17.5h-90z" />
    <glyph glyph-name="macron" unicode="&#xaf;" horiz-adv-x="798" 
d="M837 1427l-32 -190h-578l32 190h578z" />
    <glyph glyph-name="degree" unicode="&#xb0;" horiz-adv-x="893" 
d="M491 790q-98 0 -171 47.5t-107.5 128t-18.5 178.5q17 99 78 179.5t149.5 128.5t186.5 48t171 -48t107.5 -128.5t17.5 -179.5q-16 -98 -77 -178.5t-149.5 -128t-186.5 -47.5zM524 990q64 0 116.5 45.5t63.5 108.5q10 65 -27.5 110t-101.5 45t-117 -45t-63 -110
q-11 -63 27 -108.5t102 -45.5z" />
    <glyph glyph-name="plusminus" unicode="&#xb1;" horiz-adv-x="1342" 
d="M184 661l38 231h383l43 257h250l-42 -257h382l-38 -231h-383l-42 -257h-251l43 257h-383zM84 57l40 239h1015l-39 -239h-1016z" />
    <glyph glyph-name="two.sups" unicode="&#xb2;" horiz-adv-x="812" 
d="M126 863l27 162l375 250q47 32 92.5 66.5t54.5 86.5q7 45 -21.5 72t-82.5 27q-60 0 -101.5 -35.5t-52.5 -100.5h-211q25 145 131 229.5t264 84.5q145 0 227.5 -70.5t62.5 -193.5q-16 -94 -80.5 -158.5t-167.5 -128.5l-176 -110v-1h361l-30 -180h-672z" />
    <glyph glyph-name="three.sups" unicode="&#xb3;" horiz-adv-x="835" 
d="M476 850q-122 0 -194 42t-98.5 110.5t-13.5 146.5h216q-9 -60 21.5 -93.5t95.5 -33.5q59 0 100.5 25.5t48.5 66.5q7 42 -30 66.5t-103 24.5h-87l26 157h87q63 0 103 22.5t46 61.5q7 40 -22 66t-82 26q-54 0 -93.5 -28.5t-46.5 -73.5h-216q19 114 122.5 191.5t261.5 77.5
q145 0 227.5 -65t65.5 -166q-13 -75 -70 -121t-135 -55v-2q97 -10 139.5 -67.5t30.5 -130.5q-12 -72 -66.5 -128t-140.5 -88t-193 -32z" />
    <glyph glyph-name="acute" unicode="&#xb4;" horiz-adv-x="541" 
d="M153 1209l223 302h288l-304 -302h-207z" />
    <glyph glyph-name="uni00B5" unicode="&#xb5;" horiz-adv-x="1223" 
d="M-53 -418l244 1474h295l-100 -600q-19 -117 26.5 -175t137.5 -58q93 0 155.5 58t82.5 175l99 600h294l-123 -742q-13 -82 72 -82h44l-38 -232h-123q-221 0 -245 171q-52 -92 -119.5 -127t-126.5 -35q-55 0 -108.5 28.5t-79.5 103.5l-92 -559h-295z" />
    <glyph glyph-name="paragraph" unicode="&#xb6;" horiz-adv-x="1169" 
d="M730 0l208 1259h-180l-117 -707h-86q-163 0 -265.5 61t-143 167.5t-17.5 241.5q22 134 97.5 239.5t198 167t286.5 61.5h506l-247 -1490h-240z" />
    <glyph glyph-name="periodcentered" unicode="&#xb7;" horiz-adv-x="501" 
d="M267 537q-77 0 -122 55.5t-33 133.5q11 64 63 107.5t117 43.5q76 0 121.5 -56t32.5 -133q-11 -64 -62.5 -107.5t-116.5 -43.5z" />
    <glyph glyph-name="cedilla" unicode="&#xb8;" horiz-adv-x="697" 
d="M64 -418l20 123h118q89 0 99 59t-79 59h-82l73 221h117l-8 -44l-13 -80q90 -1 131.5 -47t29.5 -118q-14 -86 -84.5 -129.5t-182.5 -43.5h-139z" />
    <glyph glyph-name="one.sups" unicode="&#xb9;" horiz-adv-x="550" 
d="M663 1691l-137 -828h-221l104 625h-1l-223 -114l31 191l243 126h204z" />
    <glyph glyph-name="ordmasculine" unicode="&#xba;" horiz-adv-x="940" 
d="M200 1044l12 77q17 104 74 184.5t144.5 126.5t196.5 46q165 0 243.5 -100.5t52.5 -256.5l-13 -77q-25 -154 -136 -253.5t-275 -99.5q-166 0 -245.5 99.5t-53.5 253.5zM391 1121l-13 -77q-15 -89 20.5 -147.5t125.5 -58.5q87 0 139.5 58.5t68.5 147.5l12 77
q14 87 -19.5 147.5t-122.5 61.5q-88 -1 -142.5 -61.5t-68.5 -147.5z" />
    <glyph glyph-name="guillemotright" unicode="&#xbb;" horiz-adv-x="1264" 
d="M-24 144l435 440l-289 440h327l296 -440l-442 -440h-327zM445 144l435 440l-289 440h327l296 -440l-442 -440h-327z" />
    <glyph glyph-name="onequarter" unicode="&#xbc;" horiz-adv-x="1618" 
d="M586 1490l-137 -828h-196l107 646h-1l-207 -119l29 174l224 127h181zM39 0l1271 1490h218l-1271 -1490h-218zM805 168l26 156l428 504h250l-84 -506h98l-25 -154h-98l-28 -168h-191l28 168h-404zM1234 322l52 319v0l-267 -318l-1 -1h216z" />
    <glyph glyph-name="onehalf" unicode="&#xbd;" horiz-adv-x="1679" 
d="M586 1490l-137 -828h-196l107 646h-1l-207 -119l29 174l224 127h181zM39 0l1271 1490h218l-1271 -1490h-218zM915 0l23 145l347 255q48 35 92 73t54 92q10 55 -15.5 86t-78.5 31q-54 0 -97.5 -38t-54.5 -109h-188q23 140 117 223t233 83q136 0 214.5 -69.5t57.5 -194.5
q-15 -86 -70 -149t-151 -137l-171 -130v-1h325l-26 -160h-611z" />
    <glyph glyph-name="threequarters" unicode="&#xbe;" horiz-adv-x="1798" 
d="M410 648q-110 0 -176 41t-90.5 108t-11.5 145h192q-10 -64 17 -101.5t89 -37.5q55 0 96 29t48 75q9 48 -25 76.5t-97 28.5h-78l24 142h77q59 0 98 25.5t47 71.5q7 45 -19.5 73.5t-75.5 28.5q-51 0 -90 -31.5t-48 -83.5h-190q18 114 111.5 189.5t237.5 75.5
q133 0 207 -64.5t59 -162.5q-12 -74 -65 -121.5t-125 -59.5v-1q87 -11 125.5 -68.5t26.5 -131.5q-17 -104 -116.5 -175t-247.5 -71zM219 0l1271 1490h218l-1271 -1490h-218zM986 168l26 156l428 504h250l-84 -506h98l-25 -154h-98l-28 -168h-191l28 168h-404zM1415 322
l52 319v0l-267 -318l-1 -1h216z" />
    <glyph glyph-name="questiondown" unicode="&#xbf;" horiz-adv-x="1094" 
d="M684 637l-9 -56q-17 -99 -52 -159.5t-92.5 -102.5t-143.5 -88q-84 -47 -126.5 -101t-51.5 -113q-14 -84 35.5 -134t147.5 -50q107 0 179 63.5t90 173.5h283q-23 -140 -98 -248t-193.5 -169.5t-274.5 -61.5q-146 0 -257 51.5t-166.5 141.5t-36.5 207q38 228 260 361
q104 62 162.5 112t73.5 137l5 36h265zM629 1121q71 0 112 -49.5t30 -120.5q-12 -70 -70 -119.5t-129 -49.5q-70 0 -111.5 49.5t-29.5 119.5q12 71 69.5 120.5t128.5 49.5z" />
    <glyph glyph-name="Agrave" unicode="&#xc0;" horiz-adv-x="1461" 
d="M-78 0l770 1490h396l276 -1490h-330l-51 325h-556l-162 -325h-343zM550 571h394l-24 154q-16 114 -32 232t-32 257q-63 -139 -118.5 -257t-110.5 -232zM822 1620l-202 313h288l122 -313h-208z" />
    <glyph glyph-name="Aacute" unicode="&#xc1;" horiz-adv-x="1461" 
d="M-78 0l770 1490h396l276 -1490h-330l-51 325h-556l-162 -325h-343zM550 571h394l-24 154q-16 114 -32 232t-32 257q-63 -139 -118.5 -257t-110.5 -232zM796 1643l223 302h288l-304 -302h-207z" />
    <glyph glyph-name="Acircumflex" unicode="&#xc2;" horiz-adv-x="1461" 
d="M-78 0l770 1490h396l276 -1490h-330l-51 325h-556l-162 -325h-343zM550 571h394l-24 154q-16 114 -32 232t-32 257q-63 -139 -118.5 -257t-110.5 -232zM783 1631h-232v1l293 301h236l199 -301v-1h-233l-106 167z" />
    <glyph glyph-name="Atilde" unicode="&#xc3;" horiz-adv-x="1461" 
d="M-78 0l770 1490h396l276 -1490h-330l-51 325h-556l-162 -325h-343zM550 571h394l-24 154q-16 114 -32 232t-32 257q-63 -139 -118.5 -257t-110.5 -232zM1059 1653q-63 0 -104.5 25.5t-72.5 51t-62 25.5q-32 0 -52.5 -27t-29.5 -70h-163q24 126 91 194.5t159 68.5
q64 0 104.5 -25.5t71 -50.5t64.5 -25t53 24t30 71h160q-23 -125 -92 -193.5t-157 -68.5z" />
    <glyph glyph-name="Adieresis" unicode="&#xc4;" horiz-adv-x="1461" 
d="M-78 0l770 1490h396l276 -1490h-330l-51 325h-556l-162 -325h-343zM550 571h394l-24 154q-16 114 -32 232t-32 257q-63 -139 -118.5 -257t-110.5 -232zM1137 1626q-70 0 -109 44t-27 111q11 67 64 111.5t123 44.5q69 0 108.5 -44.5t27.5 -111.5q-11 -67 -64.5 -111
t-122.5 -44zM691 1626q-70 0 -108.5 44t-26.5 111q11 67 64 111.5t122 44.5q70 0 109.5 -44.5t27.5 -111.5q-11 -67 -64.5 -111t-123.5 -44z" />
    <glyph glyph-name="Aring" unicode="&#xc5;" horiz-adv-x="1461" 
d="M-78 0l770 1490h396l276 -1490h-330l-51 325h-556l-162 -325h-343zM550 571h394l-24 154q-16 114 -32 232t-32 257q-63 -139 -118.5 -257t-110.5 -232zM922 1575q-115 0 -180 73.5t-46 182.5q15 94 93 156t179 62q116 0 180.5 -73.5t46.5 -182.5q-16 -94 -93.5 -156
t-179.5 -62zM928 1710q44 0 78 29t42 73q7 44 -17.5 73t-68.5 29t-77.5 -29t-41.5 -73q-7 -44 17.5 -73t67.5 -29z" />
    <glyph glyph-name="AE" unicode="&#xc6;" horiz-adv-x="2016" 
d="M-78 0l871 1490h1319l-44 -259h-696l-59 -360h620l-40 -243h-621l-61 -369h699l-43 -259h-996l61 369h-480l-212 -369h-318zM588 606h383l103 625h-128z" />
    <glyph glyph-name="Ccedilla" unicode="&#xc7;" horiz-adv-x="1495" 
d="M696 -24q-183 0 -319.5 74.5t-212.5 213t-76 329.5q0 183 58.5 348.5t168 294.5t262.5 203.5t342 74.5q176 0 308 -67t204 -190t69 -292h-310q-5 132 -79 204.5t-201 72.5q-126 0 -222 -56.5t-161.5 -150.5t-98.5 -208.5t-33 -230.5q0 -163 81 -255.5t238 -92.5
q138 0 245 72t157 203h311q-52 -166 -159 -289t-254 -190.5t-318 -67.5zM470 -415l20 123h118q89 0 99 59t-79 59h-82l73 221h117l-8 -44l-13 -80q90 -1 131.5 -47t29.5 -118q-14 -86 -84.5 -129.5t-182.5 -43.5h-139z" />
    <glyph glyph-name="Egrave" unicode="&#xc8;" horiz-adv-x="1240" 
d="M24 0l247 1490h1069l-44 -264h-762l-56 -345h704l-43 -257h-704l-60 -360h761l-43 -264h-1069zM736 1620l-202 313h288l122 -313h-208z" />
    <glyph glyph-name="Eacute" unicode="&#xc9;" horiz-adv-x="1240" 
d="M24 0l247 1490h1069l-44 -264h-762l-56 -345h704l-43 -257h-704l-60 -360h761l-43 -264h-1069zM709 1643l223 302h288l-304 -302h-207z" />
    <glyph glyph-name="Ecircumflex" unicode="&#xca;" horiz-adv-x="1240" 
d="M24 0l247 1490h1069l-44 -264h-762l-56 -345h704l-43 -257h-704l-60 -360h761l-43 -264h-1069zM697 1631h-232v1l293 301h236l199 -301v-1h-233l-106 167z" />
    <glyph glyph-name="Edieresis" unicode="&#xcb;" horiz-adv-x="1240" 
d="M24 0l247 1490h1069l-44 -264h-762l-56 -345h704l-43 -257h-704l-60 -360h761l-43 -264h-1069zM1051 1626q-70 0 -109 44t-27 111q11 67 64 111.5t123 44.5q69 0 108.5 -44.5t27.5 -111.5q-11 -67 -64.5 -111t-122.5 -44zM605 1626q-70 0 -108.5 44t-26.5 111
q11 67 64 111.5t122 44.5q70 0 109.5 -44.5t27.5 -111.5q-11 -67 -64.5 -111t-123.5 -44z" />
    <glyph glyph-name="Igrave" unicode="&#xcc;" horiz-adv-x="531" 
d="M579 1490l-247 -1490h-308l247 1490h308zM355 1620l-202 313h288l122 -313h-208z" />
    <glyph glyph-name="Iacute" unicode="&#xcd;" horiz-adv-x="531" 
d="M579 1490l-247 -1490h-308l247 1490h308zM329 1643l223 302h288l-304 -302h-207z" />
    <glyph glyph-name="Icircumflex" unicode="&#xce;" horiz-adv-x="531" 
d="M579 1490l-247 -1490h-308l247 1490h308zM316 1631h-232v1l293 301h236l199 -301v-1h-233l-106 167z" />
    <glyph glyph-name="Idieresis" unicode="&#xcf;" horiz-adv-x="531" 
d="M579 1490l-247 -1490h-308l247 1490h308zM670 1626q-70 0 -109 44t-27 111q11 67 64 111.5t123 44.5q69 0 108.5 -44.5t27.5 -111.5q-11 -67 -64.5 -111t-122.5 -44zM224 1626q-70 0 -108.5 44t-26.5 111q11 67 64 111.5t122 44.5q70 0 109.5 -44.5t27.5 -111.5
q-11 -67 -64.5 -111t-123.5 -44z" />
    <glyph glyph-name="Eth" unicode="&#xd0;" horiz-adv-x="1534" 
d="M702 0h-580l247 1490h515q225 0 377.5 -91t218 -258t27.5 -395q-38 -229 -141 -396.5t-269 -258.5t-395 -91zM473 259h202q226 0 355 126t168 361q38 235 -40.5 360t-300.5 125h-223zM-61 650l35 212h890l-35 -212h-890z" />
    <glyph glyph-name="Ntilde" unicode="&#xd1;" horiz-adv-x="1486" 
d="M24 0l247 1490h319l355 -762q19 -43 51 -121t63 -158q12 87 24.5 171.5t20.5 132.5l123 737h307l-247 -1490h-318l-322 690q-24 52 -64 145.5t-85 209.5q-15 -119 -29.5 -212t-22.5 -142l-114 -691h-308zM1070 1653q-63 0 -104.5 25.5t-72.5 51t-62 25.5q-32 0 -52.5 -27
t-29.5 -70h-163q24 126 91 194.5t159 68.5q64 0 104.5 -25.5t71 -50.5t64.5 -25t53 24t30 71h160q-23 -125 -92 -193.5t-157 -68.5z" />
    <glyph glyph-name="Ograve" unicode="&#xd2;" horiz-adv-x="1532" 
d="M690 -24q-179 0 -314.5 74.5t-211.5 213.5t-76 330q0 181 59 346.5t168 294.5t260.5 204t338.5 75q179 0 314.5 -74.5t211 -213t75.5 -331.5q0 -183 -59.5 -348.5t-169 -294t-261 -202.5t-335.5 -74zM704 248q121 0 215 56.5t158.5 150.5t98 208.5t33.5 229.5
q0 170 -84 259.5t-225 89.5q-120 0 -214 -56.5t-159 -150.5t-98.5 -208.5t-33.5 -230.5q0 -169 83.5 -258.5t225.5 -89.5zM855 1620l-202 313h288l122 -313h-208z" />
    <glyph glyph-name="Oacute" unicode="&#xd3;" horiz-adv-x="1532" 
d="M690 -24q-179 0 -314.5 74.5t-211.5 213.5t-76 330q0 181 59 346.5t168 294.5t260.5 204t338.5 75q179 0 314.5 -74.5t211 -213t75.5 -331.5q0 -183 -59.5 -348.5t-169 -294t-261 -202.5t-335.5 -74zM704 248q121 0 215 56.5t158.5 150.5t98 208.5t33.5 229.5
q0 170 -84 259.5t-225 89.5q-120 0 -214 -56.5t-159 -150.5t-98.5 -208.5t-33.5 -230.5q0 -169 83.5 -258.5t225.5 -89.5zM829 1643l223 302h288l-304 -302h-207z" />
    <glyph glyph-name="Ocircumflex" unicode="&#xd4;" horiz-adv-x="1532" 
d="M690 -24q-179 0 -314.5 74.5t-211.5 213.5t-76 330q0 181 59 346.5t168 294.5t260.5 204t338.5 75q179 0 314.5 -74.5t211 -213t75.5 -331.5q0 -183 -59.5 -348.5t-169 -294t-261 -202.5t-335.5 -74zM704 248q121 0 215 56.5t158.5 150.5t98 208.5t33.5 229.5
q0 170 -84 259.5t-225 89.5q-120 0 -214 -56.5t-159 -150.5t-98.5 -208.5t-33.5 -230.5q0 -169 83.5 -258.5t225.5 -89.5zM816 1631h-232v1l293 301h236l199 -301v-1h-233l-106 167z" />
    <glyph glyph-name="Otilde" unicode="&#xd5;" horiz-adv-x="1532" 
d="M690 -24q-179 0 -314.5 74.5t-211.5 213.5t-76 330q0 181 59 346.5t168 294.5t260.5 204t338.5 75q179 0 314.5 -74.5t211 -213t75.5 -331.5q0 -183 -59.5 -348.5t-169 -294t-261 -202.5t-335.5 -74zM704 248q121 0 215 56.5t158.5 150.5t98 208.5t33.5 229.5
q0 170 -84 259.5t-225 89.5q-120 0 -214 -56.5t-159 -150.5t-98.5 -208.5t-33.5 -230.5q0 -169 83.5 -258.5t225.5 -89.5zM1092 1653q-63 0 -104.5 25.5t-72.5 51t-62 25.5q-32 0 -52.5 -27t-29.5 -70h-163q24 126 91 194.5t159 68.5q64 0 104.5 -25.5t71 -50.5t64.5 -25
t53 24t30 71h160q-23 -125 -92 -193.5t-157 -68.5z" />
    <glyph glyph-name="Odieresis" unicode="&#xd6;" horiz-adv-x="1532" 
d="M690 -24q-179 0 -314.5 74.5t-211.5 213.5t-76 330q0 181 59 346.5t168 294.5t260.5 204t338.5 75q179 0 314.5 -74.5t211 -213t75.5 -331.5q0 -183 -59.5 -348.5t-169 -294t-261 -202.5t-335.5 -74zM704 248q121 0 215 56.5t158.5 150.5t98 208.5t33.5 229.5
q0 170 -84 259.5t-225 89.5q-120 0 -214 -56.5t-159 -150.5t-98.5 -208.5t-33.5 -230.5q0 -169 83.5 -258.5t225.5 -89.5zM1170 1626q-70 0 -109 44t-27 111q11 67 64 111.5t123 44.5q69 0 108.5 -44.5t27.5 -111.5q-11 -67 -64.5 -111t-122.5 -44zM724 1626
q-70 0 -108.5 44t-26.5 111q11 67 64 111.5t122 44.5q70 0 109.5 -44.5t27.5 -111.5q-11 -67 -64.5 -111t-123.5 -44z" />
    <glyph glyph-name="multiply" unicode="&#xd7;" horiz-adv-x="1342" 
d="M936 69l-281 336l-392 -334l-160 188l393 337l-281 335l213 184l281 -337l392 336l158 -192l-391 -335l280 -336z" />
    <glyph glyph-name="Oslash" unicode="&#xd8;" horiz-adv-x="1532" 
d="M690 -24q-179 0 -314.5 74.5t-211.5 213.5t-76 330q0 181 59 346.5t168 294.5t260.5 204t338.5 75q179 0 314.5 -74.5t211 -213t75.5 -331.5q0 -183 -59.5 -348.5t-169 -294t-261 -202.5t-335.5 -74zM704 248q121 0 215 56.5t158.5 150.5t98 208.5t33.5 229.5
q0 170 -84 259.5t-225 89.5q-120 0 -214 -56.5t-159 -150.5t-98.5 -208.5t-33.5 -230.5q0 -169 83.5 -258.5t225.5 -89.5zM110 -73l-146 146l1531 1490l145 -146z" />
    <glyph glyph-name="Ugrave" unicode="&#xd9;" horiz-adv-x="1442" 
d="M645 -24q-189 0 -319 71t-188 195.5t-31 286.5l160 961h301l-158 -956q-22 -131 45 -211.5t203 -80.5q99 0 179.5 41.5t133 112t67.5 158.5l155 936h301l-163 -981q-27 -161 -120 -281t-238.5 -186t-327.5 -66zM811 1620l-202 313h288l122 -313h-208z" />
    <glyph glyph-name="Uacute" unicode="&#xda;" horiz-adv-x="1442" 
d="M645 -24q-189 0 -319 71t-188 195.5t-31 286.5l160 961h301l-158 -956q-22 -131 45 -211.5t203 -80.5q99 0 179.5 41.5t133 112t67.5 158.5l155 936h301l-163 -981q-27 -161 -120 -281t-238.5 -186t-327.5 -66zM784 1643l223 302h288l-304 -302h-207z" />
    <glyph glyph-name="Ucircumflex" unicode="&#xdb;" horiz-adv-x="1442" 
d="M645 -24q-189 0 -319 71t-188 195.5t-31 286.5l160 961h301l-158 -956q-22 -131 45 -211.5t203 -80.5q99 0 179.5 41.5t133 112t67.5 158.5l155 936h301l-163 -981q-27 -161 -120 -281t-238.5 -186t-327.5 -66zM771 1631h-232v1l293 301h236l199 -301v-1h-233l-106 167z
" />
    <glyph glyph-name="Udieresis" unicode="&#xdc;" horiz-adv-x="1442" 
d="M645 -24q-189 0 -319 71t-188 195.5t-31 286.5l160 961h301l-158 -956q-22 -131 45 -211.5t203 -80.5q99 0 179.5 41.5t133 112t67.5 158.5l155 936h301l-163 -981q-27 -161 -120 -281t-238.5 -186t-327.5 -66zM1125 1626q-70 0 -109 44t-27 111q11 67 64 111.5t123 44.5
q69 0 108.5 -44.5t27.5 -111.5q-11 -67 -64.5 -111t-122.5 -44zM679 1626q-70 0 -108.5 44t-26.5 111q11 67 64 111.5t122 44.5q70 0 109.5 -44.5t27.5 -111.5q-11 -67 -64.5 -111t-123.5 -44z" />
    <glyph glyph-name="Yacute" unicode="&#xdd;" horiz-adv-x="1413" 
d="M473 0l92 557l-397 933h338l179 -447q18 -45 35 -90t33 -90q30 45 61 90t64 90l320 447h365l-698 -933l-92 -557h-300zM769 1643l223 302h288l-304 -302h-207z" />
    <glyph glyph-name="Thorn" unicode="&#xde;" horiz-adv-x="1319" 
d="M266 1490h303l-46 -277h225q177 0 290 -59.5t159.5 -161.5t24.5 -232q-21 -129 -101.5 -231.5t-213 -161t-309.5 -58.5h-225l-51 -309h-303zM412 542h224q137 1 210 63t89 151q14 92 -38 156.5t-188 65.5h-225z" />
    <glyph glyph-name="germandbls" unicode="&#xdf;" horiz-adv-x="1293" 
d="M24 0l182 1097q21 128 99 221t199.5 142.5t273.5 49.5q143 0 254 -45.5t167 -135t34 -220.5q-19 -117 -91 -199.5t-178 -111.5l-2 -16q143 -11 212.5 -113.5t43.5 -258.5q-22 -129 -97 -221t-190 -140.5t-255 -48.5h-194l41 243h148q101 0 169 53.5t83 140.5
q15 90 -42 145t-170 55h-117l39 233h79q82 0 140 58t72 137q13 84 -33 139.5t-145 55.5q-97 0 -166.5 -55.5t-84.5 -148.5l-175 -1056h-296z" />
    <glyph glyph-name="agrave" unicode="&#xe0;" horiz-adv-x="1220" 
d="M423 -22q-138 0 -229.5 69t-127.5 193t-9 289q27 162 105 286t192 193.5t249 69.5q102 0 176 -41.5t109 -123.5h4l24 143h287l-175 -1056h-287l26 158h-3q-61 -89 -149 -134.5t-192 -45.5zM539 218q111 0 193.5 84.5t105.5 226.5q24 141 -30.5 226t-165.5 85
q-108 0 -185.5 -81.5t-102.5 -229.5q-24 -148 26.5 -229.5t158.5 -81.5zM630 1186l-202 313h288l122 -313h-208z" />
    <glyph glyph-name="aacute" unicode="&#xe1;" horiz-adv-x="1220" 
d="M423 -22q-138 0 -229.5 69t-127.5 193t-9 289q27 162 105 286t192 193.5t249 69.5q102 0 176 -41.5t109 -123.5h4l24 143h287l-175 -1056h-287l26 158h-3q-61 -89 -149 -134.5t-192 -45.5zM539 218q111 0 193.5 84.5t105.5 226.5q24 141 -30.5 226t-165.5 85
q-108 0 -185.5 -81.5t-102.5 -229.5q-24 -148 26.5 -229.5t158.5 -81.5zM603 1209l223 302h288l-304 -302h-207z" />
    <glyph glyph-name="acircumflex" unicode="&#xe2;" horiz-adv-x="1220" 
d="M423 -22q-138 0 -229.5 69t-127.5 193t-9 289q27 162 105 286t192 193.5t249 69.5q102 0 176 -41.5t109 -123.5h4l24 143h287l-175 -1056h-287l26 158h-3q-61 -89 -149 -134.5t-192 -45.5zM539 218q111 0 193.5 84.5t105.5 226.5q24 141 -30.5 226t-165.5 85
q-108 0 -185.5 -81.5t-102.5 -229.5q-24 -148 26.5 -229.5t158.5 -81.5zM591 1197h-232v1l293 301h236l199 -301v-1h-233l-106 167z" />
    <glyph glyph-name="atilde" unicode="&#xe3;" horiz-adv-x="1220" 
d="M423 -22q-138 0 -229.5 69t-127.5 193t-9 289q27 162 105 286t192 193.5t249 69.5q102 0 176 -41.5t109 -123.5h4l24 143h287l-175 -1056h-287l26 158h-3q-61 -89 -149 -134.5t-192 -45.5zM539 218q111 0 193.5 84.5t105.5 226.5q24 141 -30.5 226t-165.5 85
q-108 0 -185.5 -81.5t-102.5 -229.5q-24 -148 26.5 -229.5t158.5 -81.5zM866 1219q-63 0 -104.5 25.5t-72.5 51t-62 25.5q-32 0 -52.5 -27t-29.5 -70h-163q24 126 91 194.5t159 68.5q64 0 104.5 -25.5t71 -50.5t64.5 -25t53 24t30 71h160q-23 -125 -92 -193.5t-157 -68.5z
" />
    <glyph glyph-name="adieresis" unicode="&#xe4;" horiz-adv-x="1220" 
d="M423 -22q-138 0 -229.5 69t-127.5 193t-9 289q27 162 105 286t192 193.5t249 69.5q102 0 176 -41.5t109 -123.5h4l24 143h287l-175 -1056h-287l26 158h-3q-61 -89 -149 -134.5t-192 -45.5zM539 218q111 0 193.5 84.5t105.5 226.5q24 141 -30.5 226t-165.5 85
q-108 0 -185.5 -81.5t-102.5 -229.5q-24 -148 26.5 -229.5t158.5 -81.5zM945 1192q-70 0 -109 44t-27 111q11 67 64 111.5t123 44.5q69 0 108.5 -44.5t27.5 -111.5q-11 -67 -64.5 -111t-122.5 -44zM499 1192q-70 0 -108.5 44t-26.5 111q11 67 64 111.5t122 44.5
q70 0 109.5 -44.5t27.5 -111.5q-11 -67 -64.5 -111t-123.5 -44z" />
    <glyph glyph-name="aring" unicode="&#xe5;" horiz-adv-x="1220" 
d="M423 -22q-138 0 -229.5 69t-127.5 193t-9 289q27 162 105 286t192 193.5t249 69.5q102 0 176 -41.5t109 -123.5h4l24 143h287l-175 -1056h-287l26 158h-3q-61 -89 -149 -134.5t-192 -45.5zM539 218q111 0 193.5 84.5t105.5 226.5q24 141 -30.5 226t-165.5 85
q-108 0 -185.5 -81.5t-102.5 -229.5q-24 -148 26.5 -229.5t158.5 -81.5zM714 1141q-109 0 -170 67.5t-44 169.5t100 169.5t192 67.5t170 -67.5t44 -169.5t-100 -169.5t-192 -67.5zM733 1276q46 0 80.5 28.5t41.5 73.5t-15.5 73.5t-65.5 28.5q-47 0 -81.5 -28.5t-42.5 -73.5
q-7 -45 16 -73.5t67 -28.5z" />
    <glyph glyph-name="ae" unicode="&#xe6;" horiz-adv-x="1820" 
d="M370 -18q-186 0 -280.5 86.5t-69.5 234.5q24 147 142 227t311 82q37 0 72.5 -0.5t71.5 -1.5q30 -1 62 -1.5t66 -0.5l19 111q11 67 -30 103.5t-128 36.5q-84 0 -140.5 -36.5t-73.5 -101.5h-277q22 100 90.5 181t178.5 128.5t256 47.5q123 0 202.5 -34.5t118.5 -94.5
q159 131 388 131q120 0 215 -36t150 -106.5t55 -174.5q0 -122 -89.5 -192t-259 -101t-410.5 -37q-1 -15 -1 -27q0 -111 51.5 -160t148.5 -49q98 0 160.5 40.5t87.5 104.5h279q-58 -171 -196 -268.5t-344 -97.5q-130 0 -227.5 39.5t-155.5 119.5q-68 -73 -177 -113t-266 -40z
M1036 610q186 5 285 22.5t136 49t37 78.5q0 48 -42.5 72.5t-119.5 24.5q-244 0 -296 -247zM716 433h-25h-25q-39 1 -77.5 1h-75.5q-85 -1 -143.5 -29.5t-68.5 -91.5q-10 -62 26.5 -94t112.5 -32q109 0 182 58t87 144z" />
    <glyph glyph-name="ccedilla" unicode="&#xe7;" horiz-adv-x="1136" 
d="M512 -24q-142 0 -246 56t-160 157.5t-56 237.5q0 127 43 244.5t123.5 209.5t193.5 145.5t254 53.5q135 0 239 -52.5t159.5 -147t43.5 -219.5h-285q1 75 -35 128t-126 53q-101 0 -171.5 -63t-107 -159.5t-36.5 -196.5q0 -99 45.5 -154t133.5 -55q93 0 159 52t93 131h287
q-27 -124 -105 -219t-193 -148.5t-253 -53.5zM303 -418l20 123h118q89 0 99 59t-79 59h-82l73 221h117l-8 -44l-13 -80q90 -1 131.5 -47t29.5 -118q-14 -86 -84.5 -129.5t-182.5 -43.5h-139z" />
    <glyph glyph-name="egrave" unicode="&#xe8;" horiz-adv-x="1145" 
d="M518 -24q-230 0 -359 125t-104 381q15 183 99.5 317.5t220.5 207.5t306 73q118 0 212 -36t148.5 -108.5t54.5 -180.5q0 -134 -88.5 -205t-258 -98.5t-410.5 -31.5q-2 -97 38 -160t164 -63q97 0 158 39.5t86 102.5h276q-57 -163 -195 -263t-348 -100zM360 612
q187 4 287 21t137 46.5t37 71.5q0 49 -43.5 77.5t-126.5 28.5q-137 0 -202 -71.5t-89 -173.5zM614 1186l-202 313h288l122 -313h-208z" />
    <glyph glyph-name="eacute" unicode="&#xe9;" horiz-adv-x="1145" 
d="M518 -24q-230 0 -359 125t-104 381q15 183 99.5 317.5t220.5 207.5t306 73q118 0 212 -36t148.5 -108.5t54.5 -180.5q0 -134 -88.5 -205t-258 -98.5t-410.5 -31.5q-2 -97 38 -160t164 -63q97 0 158 39.5t86 102.5h276q-57 -163 -195 -263t-348 -100zM360 612
q187 4 287 21t137 46.5t37 71.5q0 49 -43.5 77.5t-126.5 28.5q-137 0 -202 -71.5t-89 -173.5zM588 1209l223 302h288l-304 -302h-207z" />
    <glyph glyph-name="ecircumflex" unicode="&#xea;" horiz-adv-x="1145" 
d="M518 -24q-230 0 -359 125t-104 381q15 183 99.5 317.5t220.5 207.5t306 73q118 0 212 -36t148.5 -108.5t54.5 -180.5q0 -134 -88.5 -205t-258 -98.5t-410.5 -31.5q-2 -97 38 -160t164 -63q97 0 158 39.5t86 102.5h276q-57 -163 -195 -263t-348 -100zM360 612
q187 4 287 21t137 46.5t37 71.5q0 49 -43.5 77.5t-126.5 28.5q-137 0 -202 -71.5t-89 -173.5zM575 1197h-232v1l293 301h236l199 -301v-1h-233l-106 167z" />
    <glyph glyph-name="edieresis" unicode="&#xeb;" horiz-adv-x="1145" 
d="M518 -24q-230 0 -359 125t-104 381q15 183 99.5 317.5t220.5 207.5t306 73q118 0 212 -36t148.5 -108.5t54.5 -180.5q0 -134 -88.5 -205t-258 -98.5t-410.5 -31.5q-2 -97 38 -160t164 -63q97 0 158 39.5t86 102.5h276q-57 -163 -195 -263t-348 -100zM360 612
q187 4 287 21t137 46.5t37 71.5q0 49 -43.5 77.5t-126.5 28.5q-137 0 -202 -71.5t-89 -173.5zM929 1192q-70 0 -109 44t-27 111q11 67 64 111.5t123 44.5q69 0 108.5 -44.5t27.5 -111.5q-11 -67 -64.5 -111t-122.5 -44zM483 1192q-70 0 -108.5 44t-26.5 111q11 67 64 111.5
t122 44.5q70 0 109.5 -44.5t27.5 -111.5q-11 -67 -64.5 -111t-123.5 -44z" />
    <glyph glyph-name="igrave" unicode="&#xec;" horiz-adv-x="504" 
d="M17 0l175 1056h295l-175 -1056h-295zM270 1186l-202 313h288l122 -313h-208z" />
    <glyph glyph-name="iacute" unicode="&#xed;" horiz-adv-x="504" 
d="M17 0l175 1056h295l-175 -1056h-295zM243 1209l223 302h288l-304 -302h-207z" />
    <glyph glyph-name="icircumflex" unicode="&#xee;" horiz-adv-x="504" 
d="M17 0l175 1056h295l-175 -1056h-295zM231 1197h-232v1l293 301h236l199 -301v-1h-233l-106 167z" />
    <glyph glyph-name="idieresis" unicode="&#xef;" horiz-adv-x="504" 
d="M17 0l175 1056h295l-175 -1056h-295zM585 1192q-70 0 -109 44t-27 111q11 67 64 111.5t123 44.5q69 0 108.5 -44.5t27.5 -111.5q-11 -67 -64.5 -111t-122.5 -44zM139 1192q-70 0 -108.5 44t-26.5 111q11 67 64 111.5t122 44.5q70 0 109.5 -44.5t27.5 -111.5
q-11 -67 -64.5 -111t-123.5 -44z" />
    <glyph glyph-name="eth" unicode="&#xf0;" horiz-adv-x="1175" 
d="M1074 1404l-182 -85q135 -134 203.5 -323.5t29.5 -425.5q-30 -182 -117 -315t-219 -205.5t-296 -73.5q-159 1 -266.5 68.5t-153 188t-19.5 279.5q25 149 102 267.5t190.5 187.5t246.5 69q105 -1 171 -43t100 -96h16q-49 172 -205 320l-331 -155v138l225 105
q-86 62 -185 106l62 161q190 -52 342 -164l285 133zM537 206q120 0 201 88t104 229q14 87 -0.5 160.5t-63 118.5t-135.5 45q-125 0 -202.5 -90.5t-100.5 -228.5q-23 -137 24.5 -229.5t172.5 -92.5z" />
    <glyph glyph-name="ntilde" unicode="&#xf1;" horiz-adv-x="1199" 
d="M407 577l-95 -577h-295l174 1056h290l-25 -153q66 86 151 130.5t192 44.5q174 0 261.5 -113.5t54.5 -312.5l-108 -652h-294l102 617q17 106 -24.5 156.5t-128.5 50.5q-97 0 -166 -62t-89 -185zM853 1219q-63 0 -104.5 25.5t-72.5 51t-62 25.5q-32 0 -52.5 -27t-29.5 -70
h-163q24 126 91 194.5t159 68.5q64 0 104.5 -25.5t71 -50.5t64.5 -25t53 24t30 71h160q-23 -125 -92 -193.5t-157 -68.5z" />
    <glyph glyph-name="ograve" unicode="&#xf2;" horiz-adv-x="1188" 
d="M519 -24q-217 0 -342.5 123.5t-125.5 329.5q0 134 44.5 251.5t127.5 207.5t196.5 141t250.5 51q217 0 342.5 -124t125.5 -331q0 -129 -43.5 -246t-124.5 -208t-195.5 -143t-255.5 -52zM536 215q101 0 169.5 63t103.5 158t35 192q0 102 -53 157.5t-138 55.5
q-99 0 -168 -62.5t-104.5 -158t-35.5 -194.5q0 -102 52.5 -156.5t138.5 -54.5zM612 1186l-202 313h288l122 -313h-208z" />
    <glyph glyph-name="oacute" unicode="&#xf3;" horiz-adv-x="1188" 
d="M519 -24q-217 0 -342.5 123.5t-125.5 329.5q0 134 44.5 251.5t127.5 207.5t196.5 141t250.5 51q217 0 342.5 -124t125.5 -331q0 -129 -43.5 -246t-124.5 -208t-195.5 -143t-255.5 -52zM536 215q101 0 169.5 63t103.5 158t35 192q0 102 -53 157.5t-138 55.5
q-99 0 -168 -62.5t-104.5 -158t-35.5 -194.5q0 -102 52.5 -156.5t138.5 -54.5zM585 1209l223 302h288l-304 -302h-207z" />
    <glyph glyph-name="ocircumflex" unicode="&#xf4;" horiz-adv-x="1188" 
d="M519 -24q-217 0 -342.5 123.5t-125.5 329.5q0 134 44.5 251.5t127.5 207.5t196.5 141t250.5 51q217 0 342.5 -124t125.5 -331q0 -129 -43.5 -246t-124.5 -208t-195.5 -143t-255.5 -52zM536 215q101 0 169.5 63t103.5 158t35 192q0 102 -53 157.5t-138 55.5
q-99 0 -168 -62.5t-104.5 -158t-35.5 -194.5q0 -102 52.5 -156.5t138.5 -54.5zM573 1197h-232v1l293 301h236l199 -301v-1h-233l-106 167z" />
    <glyph glyph-name="otilde" unicode="&#xf5;" horiz-adv-x="1188" 
d="M519 -24q-217 0 -342.5 123.5t-125.5 329.5q0 134 44.5 251.5t127.5 207.5t196.5 141t250.5 51q217 0 342.5 -124t125.5 -331q0 -129 -43.5 -246t-124.5 -208t-195.5 -143t-255.5 -52zM536 215q101 0 169.5 63t103.5 158t35 192q0 102 -53 157.5t-138 55.5
q-99 0 -168 -62.5t-104.5 -158t-35.5 -194.5q0 -102 52.5 -156.5t138.5 -54.5zM848 1219q-63 0 -104.5 25.5t-72.5 51t-62 25.5q-32 0 -52.5 -27t-29.5 -70h-163q24 126 91 194.5t159 68.5q64 0 104.5 -25.5t71 -50.5t64.5 -25t53 24t30 71h160q-23 -125 -92 -193.5
t-157 -68.5z" />
    <glyph glyph-name="odieresis" unicode="&#xf6;" horiz-adv-x="1188" 
d="M519 -24q-217 0 -342.5 123.5t-125.5 329.5q0 134 44.5 251.5t127.5 207.5t196.5 141t250.5 51q217 0 342.5 -124t125.5 -331q0 -129 -43.5 -246t-124.5 -208t-195.5 -143t-255.5 -52zM536 215q101 0 169.5 63t103.5 158t35 192q0 102 -53 157.5t-138 55.5
q-99 0 -168 -62.5t-104.5 -158t-35.5 -194.5q0 -102 52.5 -156.5t138.5 -54.5zM927 1192q-70 0 -109 44t-27 111q11 67 64 111.5t123 44.5q69 0 108.5 -44.5t27.5 -111.5q-11 -67 -64.5 -111t-122.5 -44zM481 1192q-70 0 -108.5 44t-26.5 111q11 67 64 111.5t122 44.5
q70 0 109.5 -44.5t27.5 -111.5q-11 -67 -64.5 -111t-123.5 -44z" />
    <glyph glyph-name="divide" unicode="&#xf7;" horiz-adv-x="1342" 
d="M1206 714l-40 -239h-1009l40 239h1009zM720 827q-72 -1 -113.5 49t-29.5 122q11 70 69.5 119t129.5 50q70 -1 111 -50t30 -119q-12 -72 -69.5 -122t-127.5 -49zM586 22q-71 0 -113 50t-29 122q11 69 69 119t130 49q70 1 111 -49t30 -119q-12 -72 -70 -122t-128 -50z" />
    <glyph glyph-name="oslash" unicode="&#xf8;" horiz-adv-x="1188" 
d="M519 -24q-217 0 -342.5 123.5t-125.5 329.5q0 134 44.5 251.5t127.5 207.5t196.5 141t250.5 51q217 0 342.5 -124t125.5 -331q0 -129 -43.5 -246t-124.5 -208t-195.5 -143t-255.5 -52zM536 215q101 0 169.5 63t103.5 158t35 192q0 102 -53 157.5t-138 55.5
q-99 0 -168 -62.5t-104.5 -158t-35.5 -194.5q0 -102 52.5 -156.5t138.5 -54.5zM63 -49l-90 98l1151 1056l90 -98z" />
    <glyph glyph-name="ugrave" unicode="&#xf9;" horiz-adv-x="1199" 
d="M384 -22q-169 0 -252 108.5t-50 308.5l110 661h294l-101 -607q-17 -106 25 -161.5t134 -55.5q91 0 158.5 57t88.5 180l97 587h294l-175 -1056h-290l28 166q-69 -90 -158 -139t-203 -49zM617 1186l-202 313h288l122 -313h-208z" />
    <glyph glyph-name="uacute" unicode="&#xfa;" horiz-adv-x="1199" 
d="M384 -22q-169 0 -252 108.5t-50 308.5l110 661h294l-101 -607q-17 -106 25 -161.5t134 -55.5q91 0 158.5 57t88.5 180l97 587h294l-175 -1056h-290l28 166q-69 -90 -158 -139t-203 -49zM591 1209l223 302h288l-304 -302h-207z" />
    <glyph glyph-name="ucircumflex" unicode="&#xfb;" horiz-adv-x="1199" 
d="M384 -22q-169 0 -252 108.5t-50 308.5l110 661h294l-101 -607q-17 -106 25 -161.5t134 -55.5q91 0 158.5 57t88.5 180l97 587h294l-175 -1056h-290l28 166q-69 -90 -158 -139t-203 -49zM578 1197h-232v1l293 301h236l199 -301v-1h-233l-106 167z" />
    <glyph glyph-name="udieresis" unicode="&#xfc;" horiz-adv-x="1199" 
d="M384 -22q-169 0 -252 108.5t-50 308.5l110 661h294l-101 -607q-17 -106 25 -161.5t134 -55.5q91 0 158.5 57t88.5 180l97 587h294l-175 -1056h-290l28 166q-69 -90 -158 -139t-203 -49zM932 1192q-70 0 -109 44t-27 111q11 67 64 111.5t123 44.5q69 0 108.5 -44.5
t27.5 -111.5q-11 -67 -64.5 -111t-122.5 -44zM486 1192q-70 0 -108.5 44t-26.5 111q11 67 64 111.5t122 44.5q70 0 109.5 -44.5t27.5 -111.5q-11 -67 -64.5 -111t-123.5 -44z" />
    <glyph glyph-name="yacute" unicode="&#xfd;" horiz-adv-x="1134" 
d="M-27 -418l39 233h134q52 0 81.5 26t61.5 86l42 77l-232 1052h297l90 -522q9 -56 17 -113l16 -114q53 115 109 227l264 522h318l-667 -1219q-139 -255 -375 -255h-195zM537 1209l223 302h288l-304 -302h-207z" />
    <glyph glyph-name="thorn" unicode="&#xfe;" horiz-adv-x="1224" 
d="M619 -22q-215 0 -278 180h-3l-95 -576h-295l316 1908h295l-95 -577h3q125 165 336 165q135 0 226 -69.5t128 -193.5t10 -286q-27 -165 -104.5 -289t-191.5 -193t-252 -69zM583 218q107 0 184.5 81.5t102.5 229.5q24 148 -26.5 229.5t-157.5 81.5q-112 0 -194.5 -85
t-105.5 -226q-24 -142 30.5 -226.5t166.5 -84.5z" />
    <glyph glyph-name="ydieresis" unicode="&#xff;" horiz-adv-x="1134" 
d="M-27 -418l39 233h134q52 0 81.5 26t61.5 86l42 77l-232 1052h297l90 -522q9 -56 17 -113l16 -114q53 115 109 227l264 522h318l-667 -1219q-139 -255 -375 -255h-195zM878 1192q-70 0 -109 44t-27 111q11 67 64 111.5t123 44.5q69 0 108.5 -44.5t27.5 -111.5
q-11 -67 -64.5 -111t-122.5 -44zM432 1192q-70 0 -108.5 44t-26.5 111q11 67 64 111.5t122 44.5q70 0 109.5 -44.5t27.5 -111.5q-11 -67 -64.5 -111t-123.5 -44z" />
    <glyph glyph-name="Amacron" unicode="&#x100;" horiz-adv-x="1461" 
d="M-78 0l770 1490h396l276 -1490h-330l-51 325h-556l-162 -325h-343zM550 571h394l-24 154q-16 114 -32 232t-32 257q-63 -139 -118.5 -257t-110.5 -232zM1242 1861l-32 -190h-578l32 190h578z" />
    <glyph glyph-name="amacron" unicode="&#x101;" horiz-adv-x="1220" 
d="M423 -22q-138 0 -229.5 69t-127.5 193t-9 289q27 162 105 286t192 193.5t249 69.5q102 0 176 -41.5t109 -123.5h4l24 143h287l-175 -1056h-287l26 158h-3q-61 -89 -149 -134.5t-192 -45.5zM539 218q111 0 193.5 84.5t105.5 226.5q24 141 -30.5 226t-165.5 85
q-108 0 -185.5 -81.5t-102.5 -229.5q-24 -148 26.5 -229.5t158.5 -81.5zM1050 1427l-32 -190h-578l32 190h578z" />
    <glyph glyph-name="Abreve" unicode="&#x102;" horiz-adv-x="1461" 
d="M-78 0l770 1490h396l276 -1490h-330l-51 325h-556l-162 -325h-343zM550 571h394l-24 154q-16 114 -32 232t-32 257q-63 -139 -118.5 -257t-110.5 -232zM913 1620q-97 0 -168 41t-104.5 111t-18.5 157h177q-11 -66 28.5 -107.5t111.5 -41.5q73 0 125.5 41.5t63.5 107.5
h179q-14 -87 -71 -157t-141.5 -111t-181.5 -41z" />
    <glyph glyph-name="abreve" unicode="&#x103;" horiz-adv-x="1220" 
d="M423 -22q-138 0 -229.5 69t-127.5 193t-9 289q27 162 105 286t192 193.5t249 69.5q102 0 176 -41.5t109 -123.5h4l24 143h287l-175 -1056h-287l26 158h-3q-61 -89 -149 -134.5t-192 -45.5zM539 218q111 0 193.5 84.5t105.5 226.5q24 141 -30.5 226t-165.5 85
q-108 0 -185.5 -81.5t-102.5 -229.5q-24 -148 26.5 -229.5t158.5 -81.5zM721 1186q-97 0 -168 41t-104.5 111t-18.5 157h177q-11 -66 28.5 -107.5t111.5 -41.5q73 0 125.5 41.5t63.5 107.5h179q-14 -87 -71 -157t-141.5 -111t-181.5 -41z" />
    <glyph glyph-name="Aogonek" unicode="&#x104;" horiz-adv-x="1461" 
d="M-78 0l770 1490h396l276 -1490h-330l-51 325h-556l-162 -325h-343zM550 571h394l-24 154q-16 114 -32 232t-32 257q-63 -139 -118.5 -257t-110.5 -232zM1134 -418q-130 0 -195.5 51t-48.5 152q12 75 57.5 129.5t114.5 110.5l302 -25q-89 -57 -125 -92.5t-42 -72.5
q-12 -64 71 -64h59l-32 -189h-161z" />
    <glyph glyph-name="aogonek" unicode="&#x105;" horiz-adv-x="1220" 
d="M423 -22q-138 0 -229.5 69t-127.5 193t-9 289q27 162 105 286t192 193.5t249 69.5q102 0 176 -41.5t109 -123.5h4l24 143h287l-175 -1056h-287l26 158h-3q-61 -89 -149 -134.5t-192 -45.5zM539 218q111 0 193.5 84.5t105.5 226.5q24 141 -30.5 226t-165.5 85
q-108 0 -185.5 -81.5t-102.5 -229.5q-24 -148 26.5 -229.5t158.5 -81.5zM805 -418q-130 0 -193 52.5t-46 150.5q11 69 55.5 122.5t121.5 108.5l284 -16q-89 -58 -125 -93t-42 -72q-12 -64 71 -64h59l-32 -189h-153z" />
    <glyph glyph-name="Cacute" unicode="&#x106;" horiz-adv-x="1495" 
d="M696 -24q-183 0 -319.5 74.5t-212.5 213t-76 329.5q0 183 58.5 348.5t168 294.5t262.5 203.5t342 74.5q176 0 308 -67t204 -190t69 -292h-310q-5 132 -79 204.5t-201 72.5q-126 0 -222 -56.5t-161.5 -150.5t-98.5 -208.5t-33 -230.5q0 -163 81 -255.5t238 -92.5
q138 0 245 72t157 203h311q-52 -166 -159 -289t-254 -190.5t-318 -67.5zM821 1643l223 302h288l-304 -302h-207z" />
    <glyph glyph-name="cacute" unicode="&#x107;" horiz-adv-x="1136" 
d="M512 -24q-142 0 -246 56t-160 157.5t-56 237.5q0 127 43 244.5t123.5 209.5t193.5 145.5t254 53.5q135 0 239 -52.5t159.5 -147t43.5 -219.5h-285q1 75 -35 128t-126 53q-101 0 -171.5 -63t-107 -159.5t-36.5 -196.5q0 -99 45.5 -154t133.5 -55q93 0 159 52t93 131h287
q-27 -124 -105 -219t-193 -148.5t-253 -53.5zM575 1209l223 302h288l-304 -302h-207z" />
    <glyph glyph-name="Ccircumflex" unicode="&#x108;" horiz-adv-x="1495" 
d="M696 -24q-183 0 -319.5 74.5t-212.5 213t-76 329.5q0 183 58.5 348.5t168 294.5t262.5 203.5t342 74.5q176 0 308 -67t204 -190t69 -292h-310q-5 132 -79 204.5t-201 72.5q-126 0 -222 -56.5t-161.5 -150.5t-98.5 -208.5t-33 -230.5q0 -163 81 -255.5t238 -92.5
q138 0 245 72t157 203h311q-52 -166 -159 -289t-254 -190.5t-318 -67.5zM809 1631h-232v1l293 301h236l199 -301v-1h-233l-106 167z" />
    <glyph glyph-name="ccircumflex" unicode="&#x109;" horiz-adv-x="1136" 
d="M512 -24q-142 0 -246 56t-160 157.5t-56 237.5q0 127 43 244.5t123.5 209.5t193.5 145.5t254 53.5q135 0 239 -52.5t159.5 -147t43.5 -219.5h-285q1 75 -35 128t-126 53q-101 0 -171.5 -63t-107 -159.5t-36.5 -196.5q0 -99 45.5 -154t133.5 -55q93 0 159 52t93 131h287
q-27 -124 -105 -219t-193 -148.5t-253 -53.5zM563 1197h-232v1l293 301h236l199 -301v-1h-233l-106 167z" />
    <glyph glyph-name="Cdotaccent" unicode="&#x10a;" horiz-adv-x="1495" 
d="M696 -24q-183 0 -319.5 74.5t-212.5 213t-76 329.5q0 183 58.5 348.5t168 294.5t262.5 203.5t342 74.5q176 0 308 -67t204 -190t69 -292h-310q-5 132 -79 204.5t-201 72.5q-126 0 -222 -56.5t-161.5 -150.5t-98.5 -208.5t-33 -230.5q0 -163 81 -255.5t238 -92.5
q138 0 245 72t157 203h311q-52 -166 -159 -289t-254 -190.5t-318 -67.5zM940 1632q-68 0 -108 46t-29 112q11 67 66 113t124 46t109 -46t29 -113q-11 -66 -66.5 -112t-124.5 -46z" />
    <glyph glyph-name="cdotaccent" unicode="&#x10b;" horiz-adv-x="1136" 
d="M512 -24q-142 0 -246 56t-160 157.5t-56 237.5q0 127 43 244.5t123.5 209.5t193.5 145.5t254 53.5q135 0 239 -52.5t159.5 -147t43.5 -219.5h-285q1 75 -35 128t-126 53q-101 0 -171.5 -63t-107 -159.5t-36.5 -196.5q0 -99 45.5 -154t133.5 -55q93 0 159 52t93 131h287
q-27 -124 -105 -219t-193 -148.5t-253 -53.5zM693 1198q-68 0 -108 46t-29 112q11 67 66 113t124 46t109 -46t29 -113q-11 -66 -66.5 -112t-124.5 -46z" />
    <glyph glyph-name="Ccaron" unicode="&#x10c;" horiz-adv-x="1495" 
d="M696 -24q-183 0 -319.5 74.5t-212.5 213t-76 329.5q0 183 58.5 348.5t168 294.5t262.5 203.5t342 74.5q176 0 308 -67t204 -190t69 -292h-310q-5 132 -79 204.5t-201 72.5q-126 0 -222 -56.5t-161.5 -150.5t-98.5 -208.5t-33 -230.5q0 -163 81 -255.5t238 -92.5
q138 0 245 72t157 203h311q-52 -166 -159 -289t-254 -190.5t-318 -67.5zM859 1933l102 -167l161 167h233v-1l-298 -301h-237l-193 301v1h232z" />
    <glyph glyph-name="ccaron" unicode="&#x10d;" horiz-adv-x="1136" 
d="M512 -24q-142 0 -246 56t-160 157.5t-56 237.5q0 127 43 244.5t123.5 209.5t193.5 145.5t254 53.5q135 0 239 -52.5t159.5 -147t43.5 -219.5h-285q1 75 -35 128t-126 53q-101 0 -171.5 -63t-107 -159.5t-36.5 -196.5q0 -99 45.5 -154t133.5 -55q93 0 159 52t93 131h287
q-27 -124 -105 -219t-193 -148.5t-253 -53.5zM612 1499l102 -167l161 167h233v-1l-298 -301h-237l-193 301v1h232z" />
    <glyph glyph-name="Dcaron" unicode="&#x10e;" horiz-adv-x="1436" 
d="M604 0h-580l247 1490h515q225 0 377.5 -91t218 -258t27.5 -395q-38 -229 -141 -396.5t-269 -258.5t-395 -91zM375 259h202q226 0 355 126t168 361q38 235 -40.5 360t-300.5 125h-223zM686 1933l102 -167l161 167h233v-1l-298 -301h-237l-193 301v1h232z" />
    <glyph glyph-name="dcaron" unicode="&#x10f;" horiz-adv-x="1457" 
d="M439 -22q-183 0 -286.5 118t-103.5 316q0 124 37 243t106.5 214.5t169 152t225.5 56.5q222 0 298 -181h1l97 593h294l-246 -1490h-290l25 155h-1q-60 -95 -144 -136t-182 -41zM523 218q100 0 173 61t113 154t40 190q0 102 -51 159.5t-141 57.5q-101 0 -171 -63
t-106 -158.5t-36 -194.5q0 -100 47 -153t132 -53zM1358 1182l63 383h227l-117 -383h-173z" />
    <glyph glyph-name="Dcroat" unicode="&#x110;" horiz-adv-x="1534" 
d="M702 0h-580l247 1490h515q225 0 377.5 -91t218 -258t27.5 -395q-38 -229 -141 -396.5t-269 -258.5t-395 -91zM473 259h202q226 0 355 126t168 361q38 235 -40.5 360t-300.5 125h-223zM-61 650l35 212h890l-35 -212h-890z" />
    <glyph glyph-name="dcroat" unicode="&#x111;" horiz-adv-x="1223" 
d="M439 -22q-183 0 -286.5 118t-103.5 316q0 124 37 243t106.5 214.5t169 152t225.5 56.5q222 0 298 -181h1l97 593h294l-246 -1490h-290l25 155h-1q-60 -95 -144 -136t-182 -41zM523 218q100 0 173 61t113 154t40 190q0 102 -51 159.5t-141 57.5q-101 0 -171 -63
t-106 -158.5t-36 -194.5q0 -100 47 -153t132 -53zM607 1170l31 184h760l-31 -184h-760z" />
    <glyph glyph-name="Emacron" unicode="&#x112;" horiz-adv-x="1240" 
d="M24 0l247 1490h1069l-44 -264h-762l-56 -345h704l-43 -257h-704l-60 -360h761l-43 -264h-1069zM1156 1861l-32 -190h-578l32 190h578z" />
    <glyph glyph-name="emacron" unicode="&#x113;" horiz-adv-x="1145" 
d="M518 -24q-230 0 -359 125t-104 381q15 183 99.5 317.5t220.5 207.5t306 73q118 0 212 -36t148.5 -108.5t54.5 -180.5q0 -134 -88.5 -205t-258 -98.5t-410.5 -31.5q-2 -97 38 -160t164 -63q97 0 158 39.5t86 102.5h276q-57 -163 -195 -263t-348 -100zM360 612
q187 4 287 21t137 46.5t37 71.5q0 49 -43.5 77.5t-126.5 28.5q-137 0 -202 -71.5t-89 -173.5zM1034 1427l-32 -190h-578l32 190h578z" />
    <glyph glyph-name="Ebreve" unicode="&#x114;" horiz-adv-x="1240" 
d="M24 0l247 1490h1069l-44 -264h-762l-56 -345h704l-43 -257h-704l-60 -360h761l-43 -264h-1069zM827 1620q-97 0 -168 41t-104.5 111t-18.5 157h177q-11 -66 28.5 -107.5t111.5 -41.5q73 0 125.5 41.5t63.5 107.5h179q-14 -87 -71 -157t-141.5 -111t-181.5 -41z" />
    <glyph glyph-name="ebreve" unicode="&#x115;" horiz-adv-x="1145" 
d="M518 -24q-230 0 -359 125t-104 381q15 183 99.5 317.5t220.5 207.5t306 73q118 0 212 -36t148.5 -108.5t54.5 -180.5q0 -134 -88.5 -205t-258 -98.5t-410.5 -31.5q-2 -97 38 -160t164 -63q97 0 158 39.5t86 102.5h276q-57 -163 -195 -263t-348 -100zM360 612
q187 4 287 21t137 46.5t37 71.5q0 49 -43.5 77.5t-126.5 28.5q-137 0 -202 -71.5t-89 -173.5zM705 1186q-97 0 -168 41t-104.5 111t-18.5 157h177q-11 -66 28.5 -107.5t111.5 -41.5q73 0 125.5 41.5t63.5 107.5h179q-14 -87 -71 -157t-141.5 -111t-181.5 -41z" />
    <glyph glyph-name="Edotaccent" unicode="&#x116;" horiz-adv-x="1240" 
d="M24 0l247 1490h1069l-44 -264h-762l-56 -345h704l-43 -257h-704l-60 -360h761l-43 -264h-1069zM828 1632q-68 0 -108 46t-29 112q11 67 66 113t124 46t109 -46t29 -113q-11 -66 -66.5 -112t-124.5 -46z" />
    <glyph glyph-name="edotaccent" unicode="&#x117;" horiz-adv-x="1145" 
d="M518 -24q-230 0 -359 125t-104 381q15 183 99.5 317.5t220.5 207.5t306 73q118 0 212 -36t148.5 -108.5t54.5 -180.5q0 -134 -88.5 -205t-258 -98.5t-410.5 -31.5q-2 -97 38 -160t164 -63q97 0 158 39.5t86 102.5h276q-57 -163 -195 -263t-348 -100zM360 612
q187 4 287 21t137 46.5t37 71.5q0 49 -43.5 77.5t-126.5 28.5q-137 0 -202 -71.5t-89 -173.5zM706 1198q-68 0 -108 46t-29 112q11 67 66 113t124 46t109 -46t29 -113q-11 -66 -66.5 -112t-124.5 -46z" />
    <glyph glyph-name="Eogonek" unicode="&#x118;" horiz-adv-x="1240" 
d="M24 0l247 1490h1069l-44 -264h-762l-56 -345h704l-43 -257h-704l-60 -360h761l-43 -264h-1069zM871 -418q-130 0 -193 52.5t-46 150.5q12 73 63 134t146 122l252 -41q-89 -57 -125 -92.5t-42 -72.5q-12 -64 71 -64h59l-32 -189h-153z" />
    <glyph glyph-name="eogonek" unicode="&#x119;" horiz-adv-x="1145" 
d="M518 -24q-230 0 -359 125t-104 381q15 183 99.5 317.5t220.5 207.5t306 73q118 0 212 -36t148.5 -108.5t54.5 -180.5q0 -134 -88.5 -205t-258 -98.5t-410.5 -31.5q-2 -97 38 -160t164 -63q97 0 158 39.5t86 102.5h276q-57 -163 -195 -263t-348 -100zM360 612
q187 4 287 21t137 46.5t37 71.5q0 49 -43.5 77.5t-126.5 28.5q-137 0 -202 -71.5t-89 -173.5zM714 -410q-137 0 -200.5 52t-46.5 149q11 72 55.5 128t102.5 115l436 306q-26 -78 -73 -148.5t-97.5 -132.5t-88.5 -116t-45 -100q-6 -32 11.5 -48t66.5 -16h59l-31 -189h-149z
" />
    <glyph glyph-name="Ecaron" unicode="&#x11a;" horiz-adv-x="1240" 
d="M24 0l247 1490h1069l-44 -264h-762l-56 -345h704l-43 -257h-704l-60 -360h761l-43 -264h-1069zM747 1933l102 -167l161 167h233v-1l-298 -301h-237l-193 301v1h232z" />
    <glyph glyph-name="ecaron" unicode="&#x11b;" horiz-adv-x="1145" 
d="M518 -24q-230 0 -359 125t-104 381q15 183 99.5 317.5t220.5 207.5t306 73q118 0 212 -36t148.5 -108.5t54.5 -180.5q0 -134 -88.5 -205t-258 -98.5t-410.5 -31.5q-2 -97 38 -160t164 -63q97 0 158 39.5t86 102.5h276q-57 -163 -195 -263t-348 -100zM360 612
q187 4 287 21t137 46.5t37 71.5q0 49 -43.5 77.5t-126.5 28.5q-137 0 -202 -71.5t-89 -173.5zM625 1499l102 -167l161 167h233v-1l-298 -301h-237l-193 301v1h232z" />
    <glyph glyph-name="Gcircumflex" unicode="&#x11c;" horiz-adv-x="1507" 
d="M696 -24q-187 0 -323.5 76.5t-210.5 215.5t-74 327q0 183 59.5 348.5t169.5 294t261.5 202.5t336.5 74q170 0 305 -64.5t210.5 -182t68.5 -276.5h-313q-2 114 -73 182.5t-202 68.5q-126 0 -222.5 -56.5t-162 -151t-98.5 -208t-33 -228.5q0 -165 83.5 -257.5t239.5 -92.5
q105 0 193 40t147 110t79 160h-326l39 234h627l-33 -200q-31 -185 -136 -323.5t-263.5 -215.5t-348.5 -77zM812 1631h-232v1l293 301h236l199 -301v-1h-233l-106 167z" />
    <glyph glyph-name="gcircumflex" unicode="&#x11d;" horiz-adv-x="1222" 
d="M458 -432q-229 0 -340.5 94t-108.5 248h278q12 -125 175 -125q115 0 189.5 64t92.5 178l23 152h-1q-63 -93 -142.5 -136.5t-181.5 -43.5q-184 0 -287.5 119t-103.5 311q0 122 37.5 238t108 208.5t169 147.5t220.5 55q109 0 186.5 -46.5t114.5 -134.5h1l26 159h291
l-169 -1025q-28 -167 -108 -269t-200.5 -148t-269.5 -46zM525 235q100 0 172.5 59.5t112 150.5t39.5 187q0 99 -50.5 155.5t-140.5 56.5q-100 0 -170 -61t-106.5 -154t-36.5 -190q0 -100 47.5 -152t132.5 -52zM566 1197h-232v1l293 301h236l199 -301v-1h-233l-106 167z" />
    <glyph glyph-name="Gbreve" unicode="&#x11e;" horiz-adv-x="1507" 
d="M696 -24q-187 0 -323.5 76.5t-210.5 215.5t-74 327q0 183 59.5 348.5t169.5 294t261.5 202.5t336.5 74q170 0 305 -64.5t210.5 -182t68.5 -276.5h-313q-2 114 -73 182.5t-202 68.5q-126 0 -222.5 -56.5t-162 -151t-98.5 -208t-33 -228.5q0 -165 83.5 -257.5t239.5 -92.5
q105 0 193 40t147 110t79 160h-326l39 234h627l-33 -200q-31 -185 -136 -323.5t-263.5 -215.5t-348.5 -77zM942 1620q-97 0 -168 41t-104.5 111t-18.5 157h177q-11 -66 28.5 -107.5t111.5 -41.5q73 0 125.5 41.5t63.5 107.5h179q-14 -87 -71 -157t-141.5 -111t-181.5 -41z
" />
    <glyph glyph-name="gbreve" unicode="&#x11f;" horiz-adv-x="1222" 
d="M458 -432q-229 0 -340.5 94t-108.5 248h278q12 -125 175 -125q115 0 189.5 64t92.5 178l23 152h-1q-63 -93 -142.5 -136.5t-181.5 -43.5q-184 0 -287.5 119t-103.5 311q0 122 37.5 238t108 208.5t169 147.5t220.5 55q109 0 186.5 -46.5t114.5 -134.5h1l26 159h291
l-169 -1025q-28 -167 -108 -269t-200.5 -148t-269.5 -46zM525 235q100 0 172.5 59.5t112 150.5t39.5 187q0 99 -50.5 155.5t-140.5 56.5q-100 0 -170 -61t-106.5 -154t-36.5 -190q0 -100 47.5 -152t132.5 -52zM696 1186q-97 0 -168 41t-104.5 111t-18.5 157h177
q-11 -66 28.5 -107.5t111.5 -41.5q73 0 125.5 41.5t63.5 107.5h179q-14 -87 -71 -157t-141.5 -111t-181.5 -41z" />
    <glyph glyph-name="Gdotaccent" unicode="&#x120;" horiz-adv-x="1507" 
d="M696 -24q-187 0 -323.5 76.5t-210.5 215.5t-74 327q0 183 59.5 348.5t169.5 294t261.5 202.5t336.5 74q170 0 305 -64.5t210.5 -182t68.5 -276.5h-313q-2 114 -73 182.5t-202 68.5q-126 0 -222.5 -56.5t-162 -151t-98.5 -208t-33 -228.5q0 -165 83.5 -257.5t239.5 -92.5
q105 0 193 40t147 110t79 160h-326l39 234h627l-33 -200q-31 -185 -136 -323.5t-263.5 -215.5t-348.5 -77zM943 1632q-68 0 -108 46t-29 112q11 67 66 113t124 46t109 -46t29 -113q-11 -66 -66.5 -112t-124.5 -46z" />
    <glyph glyph-name="gdotaccent" unicode="&#x121;" horiz-adv-x="1222" 
d="M458 -432q-229 0 -340.5 94t-108.5 248h278q12 -125 175 -125q115 0 189.5 64t92.5 178l23 152h-1q-63 -93 -142.5 -136.5t-181.5 -43.5q-184 0 -287.5 119t-103.5 311q0 122 37.5 238t108 208.5t169 147.5t220.5 55q109 0 186.5 -46.5t114.5 -134.5h1l26 159h291
l-169 -1025q-28 -167 -108 -269t-200.5 -148t-269.5 -46zM525 235q100 0 172.5 59.5t112 150.5t39.5 187q0 99 -50.5 155.5t-140.5 56.5q-100 0 -170 -61t-106.5 -154t-36.5 -190q0 -100 47.5 -152t132.5 -52zM697 1198q-68 0 -108 46t-29 112q11 67 66 113t124 46t109 -46
t29 -113q-11 -66 -66.5 -112t-124.5 -46z" />
    <glyph glyph-name="uni0122" unicode="&#x122;" horiz-adv-x="1507" 
d="M696 -24q-187 0 -323.5 76.5t-210.5 215.5t-74 327q0 183 59.5 348.5t169.5 294t261.5 202.5t336.5 74q170 0 305 -64.5t210.5 -182t68.5 -276.5h-313q-2 114 -73 182.5t-202 68.5q-126 0 -222.5 -56.5t-162 -151t-98.5 -208t-33 -228.5q0 -165 83.5 -257.5t239.5 -92.5
q105 0 193 40t147 110t79 160h-326l39 234h627l-33 -200q-31 -185 -136 -323.5t-263.5 -215.5t-348.5 -77zM369 -479l149 361h276l-217 -361h-208z" />
    <glyph glyph-name="uni0123" unicode="&#x123;" horiz-adv-x="1222" 
d="M458 -432q-229 0 -340.5 94t-108.5 248h278q12 -125 175 -125q115 0 189.5 64t92.5 178l23 152h-1q-63 -93 -142.5 -136.5t-181.5 -43.5q-184 0 -287.5 119t-103.5 311q0 122 37.5 238t108 208.5t169 147.5t220.5 55q109 0 186.5 -46.5t114.5 -134.5h1l26 159h291
l-169 -1025q-28 -167 -108 -269t-200.5 -148t-269.5 -46zM525 235q100 0 172.5 59.5t112 150.5t39.5 187q0 99 -50.5 155.5t-140.5 56.5q-100 0 -170 -61t-106.5 -154t-36.5 -190q0 -100 47.5 -152t132.5 -52zM589 1182l23 137q21 126 77.5 205.5t114.5 120.5l139 -79
q-35 -46 -72 -108.5t-51 -149.5l-21 -126h-210z" />
    <glyph glyph-name="Hcircumflex" unicode="&#x124;" horiz-adv-x="1472" 
d="M24 0l247 1490h308l-100 -598h633l100 598h307l-247 -1490h-307l104 628h-633l-104 -628h-308zM787 1631h-232v1l293 301h236l199 -301v-1h-233l-106 167z" />
    <glyph glyph-name="hcircumflex" unicode="&#x125;" horiz-adv-x="1199" 
d="M409 587l-97 -587h-295l247 1490h295l-98 -590q65 85 148.5 131.5t193.5 46.5q169 0 258 -108.5t56 -308.5l-110 -661h-294l101 607q17 106 -24.5 161.5t-134.5 55.5q-91 0 -158.5 -57t-87.5 -180zM303 1631h-232v1l293 301h236l199 -301v-1h-233l-106 167z" />
    <glyph glyph-name="Hbar" unicode="&#x126;" horiz-adv-x="1591" 
d="M1662 1226l-29 -174h-131l-174 -1052h-308l104 628h-633l-104 -628h-307l174 1052h-123l29 174h123l44 264h307l-44 -264h633l44 264h308l-44 -264h131zM1195 1052h-634l-26 -160h633z" />
    <glyph glyph-name="hbar" unicode="&#x127;" horiz-adv-x="1199" 
d="M409 587l-97 -587h-295l247 1490h295l-98 -590q65 85 148.5 131.5t193.5 46.5q169 0 258 -108.5t56 -308.5l-110 -661h-294l101 607q17 106 -24.5 161.5t-134.5 55.5q-91 0 -158.5 -57t-87.5 -180zM69 1170l31 184h760l-31 -184h-760z" />
    <glyph glyph-name="Itilde" unicode="&#x128;" horiz-adv-x="531" 
d="M579 1490l-247 -1490h-308l247 1490h308zM592 1653q-63 0 -104.5 25.5t-72.5 51t-62 25.5q-32 0 -52.5 -27t-29.5 -70h-163q24 126 91 194.5t159 68.5q64 0 104.5 -25.5t71 -50.5t64.5 -25t53 24t30 71h160q-23 -125 -92 -193.5t-157 -68.5z" />
    <glyph glyph-name="itilde" unicode="&#x129;" horiz-adv-x="504" 
d="M17 0l175 1056h295l-175 -1056h-295zM506 1219q-63 0 -104.5 25.5t-72.5 51t-62 25.5q-32 0 -52.5 -27t-29.5 -70h-163q24 126 91 194.5t159 68.5q64 0 104.5 -25.5t71 -50.5t64.5 -25t53 24t30 71h160q-23 -125 -92 -193.5t-157 -68.5z" />
    <glyph glyph-name="Imacron" unicode="&#x12a;" horiz-adv-x="531" 
d="M579 1490l-247 -1490h-308l247 1490h308zM775 1861l-32 -190h-578l32 190h578z" />
    <glyph glyph-name="imacron" unicode="&#x12b;" horiz-adv-x="504" 
d="M17 0l175 1056h295l-175 -1056h-295zM690 1427l-32 -190h-578l32 190h578z" />
    <glyph glyph-name="Ibreve" unicode="&#x12c;" horiz-adv-x="531" 
d="M579 1490l-247 -1490h-308l247 1490h308zM446 1620q-97 0 -168 41t-104.5 111t-18.5 157h177q-11 -66 28.5 -107.5t111.5 -41.5q73 0 125.5 41.5t63.5 107.5h179q-14 -87 -71 -157t-141.5 -111t-181.5 -41z" />
    <glyph glyph-name="ibreve" unicode="&#x12d;" horiz-adv-x="504" 
d="M17 0l175 1056h295l-175 -1056h-295zM361 1186q-97 0 -168 41t-104.5 111t-18.5 157h177q-11 -66 28.5 -107.5t111.5 -41.5q73 0 125.5 41.5t63.5 107.5h179q-14 -87 -71 -157t-141.5 -111t-181.5 -41z" />
    <glyph glyph-name="Iogonek" unicode="&#x12e;" horiz-adv-x="531" 
d="M579 1490l-247 -1490h-308l247 1490h308zM109 -418q-130 0 -193 52.5t-46 150.5q12 73 63 134t146 122l252 -41q-89 -57 -125 -92.5t-42 -72.5q-12 -64 71 -64h59l-32 -189h-153z" />
    <glyph glyph-name="iogonek" unicode="&#x12f;" horiz-adv-x="504" 
d="M17 0l175 1056h295l-175 -1056h-295zM89 -418q-130 0 -193 52.5t-46 150.5q12 73 63 134t146 122l252 -41q-89 -57 -125 -92.5t-42 -72.5q-12 -64 71 -64h59l-32 -189h-153zM362 1198q-68 0 -108 46t-29 112q11 67 66 113t124 46t109 -46t29 -113q-11 -66 -66.5 -112
t-124.5 -46z" />
    <glyph glyph-name="Idotaccent" unicode="&#x130;" horiz-adv-x="531" 
d="M579 1490l-247 -1490h-308l247 1490h308zM447 1632q-68 0 -108 46t-29 112q11 67 66 113t124 46t109 -46t29 -113q-11 -66 -66.5 -112t-124.5 -46z" />
    <glyph glyph-name="dotlessi" unicode="&#x131;" horiz-adv-x="504" 
d="M17 0l175 1056h295l-175 -1056h-295z" />
    <glyph glyph-name="IJ" unicode="&#x132;" horiz-adv-x="1683" 
d="M579 1490l-247 -1490h-308l247 1490h308zM1003 -22q-201 0 -318 96.5t-117 277.5q0 23 4.5 60.5t21.5 139.5h290q-15 -92 -18 -118t-3 -39q0 -77 41.5 -117.5t118.5 -40.5q90 0 152 54.5t79 157.5l173 1041h308l-174 -1045q-37 -225 -182 -346t-376 -121z" />
    <glyph glyph-name="ij" unicode="&#x133;" horiz-adv-x="1009" 
d="M17 0l175 1056h295l-175 -1056h-295zM362 1198q-68 0 -108 46t-29 112q11 67 66 113t124 46t109 -46t29 -113q-11 -66 -66.5 -112t-124.5 -46zM697 1056h294l-190 -1145q-25 -155 -129 -242t-279 -87h-118l39 233h66q59 0 90 30t43 99zM866 1198q-68 0 -108 46t-29 112
q11 67 66 113t124 46t109 -46t29 -113q-11 -66 -66.5 -112t-124.5 -46z" />
    <glyph glyph-name="Jcircumflex" unicode="&#x134;" horiz-adv-x="1152" 
d="M472 -22q-201 0 -318 96.5t-117 277.5q0 23 4.5 60.5t21.5 139.5h290q-15 -92 -18 -118t-3 -39q0 -77 41.5 -117.5t118.5 -40.5q90 0 152 54.5t79 157.5l173 1041h308l-174 -1045q-37 -225 -182 -346t-376 -121zM941 1631h-232v1l293 301h236l199 -301v-1h-233l-106 167z
" />
    <glyph glyph-name="jcircumflex" unicode="&#x135;" horiz-adv-x="505" 
d="M193 1056h294l-190 -1145q-25 -155 -129 -242t-279 -87h-118l39 233h66q59 0 90 30t43 99zM231 1197h-232v1l293 301h236l199 -301v-1h-233l-106 167z" />
    <glyph glyph-name="uni0136" unicode="&#x136;" horiz-adv-x="1404" 
d="M24 0l247 1490h308l-68 -412l-46 -270q63 63 126 125.5t127 126.5l439 430h380l-665 -644l433 -846h-336l-322 651l-247 -241l-68 -410h-308zM311 -479l149 361h276l-217 -361h-208z" />
    <glyph glyph-name="uni0137" unicode="&#x137;" horiz-adv-x="1127" 
d="M17 0l247 1490h295l-139 -838h3l437 404h346l-489 -458l336 -598h-345l-240 429l-101 -94l-55 -335h-295zM190 -479l149 361h276l-217 -361h-208z" />
    <glyph glyph-name="kgreenlandic" unicode="&#x138;" horiz-adv-x="1141" 
d="M488 1056l-69 -415h96l382 415h344l-498 -527l320 -529h-357l-230 406h-96l-67 -406h-296l175 1056h296z" />
    <glyph glyph-name="Lacute" unicode="&#x139;" horiz-adv-x="1140" 
d="M24 0l247 1490h308l-204 -1226h677l-43 -264h-985zM329 1643l223 302h288l-304 -302h-207z" />
    <glyph glyph-name="lacute" unicode="&#x13a;" horiz-adv-x="504" 
d="M559 1490l-247 -1490h-295l247 1490h295zM315 1643l223 302h288l-304 -302h-207z" />
    <glyph glyph-name="uni013B" unicode="&#x13b;" horiz-adv-x="1140" 
d="M24 0l247 1490h308l-204 -1226h677l-43 -264h-985zM196 -479l149 361h276l-217 -361h-208z" />
    <glyph glyph-name="uni013C" unicode="&#x13c;" horiz-adv-x="504" 
d="M559 1490l-247 -1490h-295l247 1490h295zM-140 -479l149 361h276l-217 -361h-208z" />
    <glyph glyph-name="Lcaron" unicode="&#x13d;" horiz-adv-x="1140" 
d="M24 0l247 1490h308l-204 -1226h677l-43 -264h-985zM752 1182l63 383h227l-117 -383h-173z" />
    <glyph glyph-name="lcaron" unicode="&#x13e;" horiz-adv-x="708" 
d="M559 1490l-247 -1490h-295l247 1490h295zM638 1182l63 383h227l-117 -383h-173z" />
    <glyph glyph-name="Ldot" unicode="&#x13f;" horiz-adv-x="1137" 
d="M28 0l247 1490h308l-204 -1226h677l-43 -264h-985zM759 678q-68 0 -108 46t-29 112q11 67 66 113t124 46t109 -46t29 -113q-11 -66 -66.5 -112t-124.5 -46z" />
    <glyph glyph-name="ldot" unicode="&#x140;" horiz-adv-x="857" 
d="M559 1490l-247 -1490h-295l247 1490h295zM681 575q-77 0 -122 55.5t-33 133.5q11 64 63 107.5t117 43.5q76 0 121.5 -56t32.5 -133q-11 -64 -62.5 -107.5t-116.5 -43.5z" />
    <glyph glyph-name="Lslash" unicode="&#x141;" horiz-adv-x="1140" 
d="M24 0l247 1490h308l-204 -1226h677l-43 -264h-985zM47 370l43 261l925 487l-44 -261z" />
    <glyph glyph-name="lslash" unicode="&#x142;" horiz-adv-x="504" 
d="M559 1490l-247 -1490h-295l247 1490h295zM-48 498l38 226l644 340l-38 -227z" />
    <glyph glyph-name="Nacute" unicode="&#x143;" horiz-adv-x="1486" 
d="M24 0l247 1490h319l355 -762q19 -43 51 -121t63 -158q12 87 24.5 171.5t20.5 132.5l123 737h307l-247 -1490h-318l-322 690q-24 52 -64 145.5t-85 209.5q-15 -119 -29.5 -212t-22.5 -142l-114 -691h-308zM807 1643l223 302h288l-304 -302h-207z" />
    <glyph glyph-name="nacute" unicode="&#x144;" horiz-adv-x="1199" 
d="M407 577l-95 -577h-295l174 1056h290l-25 -153q66 86 151 130.5t192 44.5q174 0 261.5 -113.5t54.5 -312.5l-108 -652h-294l102 617q17 106 -24.5 156.5t-128.5 50.5q-97 0 -166 -62t-89 -185zM590 1209l223 302h288l-304 -302h-207z" />
    <glyph glyph-name="uni0145" unicode="&#x145;" horiz-adv-x="1486" 
d="M24 0l247 1490h319l355 -762q19 -43 51 -121t63 -158q12 87 24.5 171.5t20.5 132.5l123 737h307l-247 -1490h-318l-322 690q-24 52 -64 145.5t-85 209.5q-15 -119 -29.5 -212t-22.5 -142l-114 -691h-308zM353 -479l149 361h276l-217 -361h-208z" />
    <glyph glyph-name="uni0146" unicode="&#x146;" horiz-adv-x="1199" 
d="M407 577l-95 -577h-295l174 1056h290l-25 -153q66 86 151 130.5t192 44.5q174 0 261.5 -113.5t54.5 -312.5l-108 -652h-294l102 617q17 106 -24.5 156.5t-128.5 50.5q-97 0 -166 -62t-89 -185zM208 -479l149 361h276l-217 -361h-208z" />
    <glyph glyph-name="Ncaron" unicode="&#x147;" horiz-adv-x="1486" 
d="M24 0l247 1490h319l355 -762q19 -43 51 -121t63 -158q12 87 24.5 171.5t20.5 132.5l123 737h307l-247 -1490h-318l-322 690q-24 52 -64 145.5t-85 209.5q-15 -119 -29.5 -212t-22.5 -142l-114 -691h-308zM845 1933l102 -167l161 167h233v-1l-298 -301h-237l-193 301v1
h232z" />
    <glyph glyph-name="ncaron" unicode="&#x148;" horiz-adv-x="1199" 
d="M407 577l-95 -577h-295l174 1056h290l-25 -153q66 86 151 130.5t192 44.5q174 0 261.5 -113.5t54.5 -312.5l-108 -652h-294l102 617q17 106 -24.5 156.5t-128.5 50.5q-97 0 -166 -62t-89 -185zM627 1499l102 -167l161 167h233v-1l-298 -301h-237l-193 301v1h232z" />
    <glyph glyph-name="Eng" unicode="&#x14a;" horiz-adv-x="1486" 
d="M693 -418l41 245h119q98 0 113 90l14 83h-11l-322 690q-24 52 -64 145.5t-85 209.5q-15 -119 -29.5 -212t-22.5 -142l-114 -691h-308l247 1490h319l355 -762q19 -43 51 -121t63 -158q12 87 24.5 171.5t20.5 132.5l123 737h307l-227 -1371v0l-36 -218q-53 -319 -410 -319
h-168z" />
    <glyph glyph-name="eng" unicode="&#x14b;" horiz-adv-x="1199" 
d="M444 -418l40 241h102q98 0 113 94l14 83l102 617q17 106 -24.5 156.5t-128.5 50.5q-97 0 -166 -62t-89 -185l-95 -577h-295l174 1056h290l-25 -153q66 86 151 130.5t192 44.5q174 0 261.5 -113.5t54.5 -312.5l-108 -652l-16 -99q-53 -319 -401 -319h-146z" />
    <glyph glyph-name="Omacron" unicode="&#x14c;" horiz-adv-x="1532" 
d="M690 -24q-179 0 -314.5 74.5t-211.5 213.5t-76 330q0 181 59 346.5t168 294.5t260.5 204t338.5 75q179 0 314.5 -74.5t211 -213t75.5 -331.5q0 -183 -59.5 -348.5t-169 -294t-261 -202.5t-335.5 -74zM704 248q121 0 215 56.5t158.5 150.5t98 208.5t33.5 229.5
q0 170 -84 259.5t-225 89.5q-120 0 -214 -56.5t-159 -150.5t-98.5 -208.5t-33.5 -230.5q0 -169 83.5 -258.5t225.5 -89.5zM1275 1861l-32 -190h-578l32 190h578z" />
    <glyph glyph-name="omacron" unicode="&#x14d;" horiz-adv-x="1188" 
d="M519 -24q-217 0 -342.5 123.5t-125.5 329.5q0 134 44.5 251.5t127.5 207.5t196.5 141t250.5 51q217 0 342.5 -124t125.5 -331q0 -129 -43.5 -246t-124.5 -208t-195.5 -143t-255.5 -52zM536 215q101 0 169.5 63t103.5 158t35 192q0 102 -53 157.5t-138 55.5
q-99 0 -168 -62.5t-104.5 -158t-35.5 -194.5q0 -102 52.5 -156.5t138.5 -54.5zM1032 1427l-32 -190h-578l32 190h578z" />
    <glyph glyph-name="Obreve" unicode="&#x14e;" horiz-adv-x="1532" 
d="M690 -24q-179 0 -314.5 74.5t-211.5 213.5t-76 330q0 181 59 346.5t168 294.5t260.5 204t338.5 75q179 0 314.5 -74.5t211 -213t75.5 -331.5q0 -183 -59.5 -348.5t-169 -294t-261 -202.5t-335.5 -74zM704 248q121 0 215 56.5t158.5 150.5t98 208.5t33.5 229.5
q0 170 -84 259.5t-225 89.5q-120 0 -214 -56.5t-159 -150.5t-98.5 -208.5t-33.5 -230.5q0 -169 83.5 -258.5t225.5 -89.5zM946 1620q-97 0 -168 41t-104.5 111t-18.5 157h177q-11 -66 28.5 -107.5t111.5 -41.5q73 0 125.5 41.5t63.5 107.5h179q-14 -87 -71 -157t-141.5 -111
t-181.5 -41z" />
    <glyph glyph-name="obreve" unicode="&#x14f;" horiz-adv-x="1188" 
d="M519 -24q-217 0 -342.5 123.5t-125.5 329.5q0 134 44.5 251.5t127.5 207.5t196.5 141t250.5 51q217 0 342.5 -124t125.5 -331q0 -129 -43.5 -246t-124.5 -208t-195.5 -143t-255.5 -52zM536 215q101 0 169.5 63t103.5 158t35 192q0 102 -53 157.5t-138 55.5
q-99 0 -168 -62.5t-104.5 -158t-35.5 -194.5q0 -102 52.5 -156.5t138.5 -54.5zM703 1186q-97 0 -168 41t-104.5 111t-18.5 157h177q-11 -66 28.5 -107.5t111.5 -41.5q73 0 125.5 41.5t63.5 107.5h179q-14 -87 -71 -157t-141.5 -111t-181.5 -41z" />
    <glyph glyph-name="Ohungarumlaut" unicode="&#x150;" horiz-adv-x="1532" 
d="M690 -24q-179 0 -314.5 74.5t-211.5 213.5t-76 330q0 181 59 346.5t168 294.5t260.5 204t338.5 75q179 0 314.5 -74.5t211 -213t75.5 -331.5q0 -183 -59.5 -348.5t-169 -294t-261 -202.5t-335.5 -74zM704 248q121 0 215 56.5t158.5 150.5t98 208.5t33.5 229.5
q0 170 -84 259.5t-225 89.5q-120 0 -214 -56.5t-159 -150.5t-98.5 -208.5t-33.5 -230.5q0 -169 83.5 -258.5t225.5 -89.5zM1204 1620h-214l247 313h283zM858 1620h-208l186 313h265z" />
    <glyph glyph-name="ohungarumlaut" unicode="&#x151;" horiz-adv-x="1188" 
d="M519 -24q-217 0 -342.5 123.5t-125.5 329.5q0 134 44.5 251.5t127.5 207.5t196.5 141t250.5 51q217 0 342.5 -124t125.5 -331q0 -129 -43.5 -246t-124.5 -208t-195.5 -143t-255.5 -52zM536 215q101 0 169.5 63t103.5 158t35 192q0 102 -53 157.5t-138 55.5
q-99 0 -168 -62.5t-104.5 -158t-35.5 -194.5q0 -102 52.5 -156.5t138.5 -54.5zM960 1186h-214l247 313h283zM614 1186h-208l186 313h265z" />
    <glyph glyph-name="OE" unicode="&#x152;" horiz-adv-x="2100" 
d="M709 0q-228 0 -377.5 91t-210 258.5t-22.5 396.5q38 228 154.5 395t294.5 258t402 91h1249l-43 -264h-762l-57 -345h704l-42 -257h-704l-60 -360h761l-43 -264h-1244zM927 259l161 972h-161q-223 0 -352.5 -125t-168.5 -360t49 -361t314 -126h158z" />
    <glyph glyph-name="oe" unicode="&#x153;" horiz-adv-x="1947" 
d="M519 -24q-217 0 -342.5 123.5t-125.5 329.5q0 134 44.5 251.5t127.5 207.5t196.5 141t250.5 51q217 0 342.5 -124t125.5 -331q0 -129 -43.5 -246t-124.5 -208t-195.5 -143t-255.5 -52zM536 215q101 0 169.5 63t103.5 158t35 192q0 102 -53 157.5t-138 55.5
q-99 0 -168 -62.5t-104.5 -158t-35.5 -194.5q0 -102 52.5 -156.5t138.5 -54.5zM1320 -24q-230 0 -359 125t-104 381q15 183 99.5 317.5t220.5 207.5t306 73q118 0 212 -36t148.5 -108.5t54.5 -180.5q0 -134 -88.5 -205t-258 -98.5t-410.5 -31.5q-2 -97 38 -160t164 -63
q97 0 158 39.5t86 102.5h276q-57 -163 -195 -263t-348 -100zM1162 612q187 4 287 21t137 46.5t37 71.5q0 49 -43.5 77.5t-126.5 28.5q-137 0 -202 -71.5t-89 -173.5z" />
    <glyph glyph-name="Racute" unicode="&#x154;" horiz-adv-x="1332" 
d="M24 0l247 1490h593q167 0 280.5 -59.5t163 -169.5t24.5 -260q-25 -148 -113.5 -256.5t-223.5 -165.5l203 -579h-316l-178 521h-16h-270l-86 -521h-308zM459 768h270q121 0 202.5 65t99.5 172q17 107 -43.5 168t-182.5 61h-269zM718 1643l223 302h288l-304 -302h-207z" />
    <glyph glyph-name="racute" unicode="&#x155;" horiz-adv-x="764" 
d="M17 0l175 1056h284l-30 -180h3q45 95 114.5 141t174.5 46q26 0 47.5 -1t38.5 -1l-41 -251q-16 1 -52.5 3t-73.5 2q-91 0 -161 -62t-89 -181l-95 -572h-295zM412 1209l223 302h288l-304 -302h-207z" />
    <glyph glyph-name="uni0156" unicode="&#x156;" horiz-adv-x="1332" 
d="M24 0l247 1490h593q167 0 280.5 -59.5t163 -169.5t24.5 -260q-25 -148 -113.5 -256.5t-223.5 -165.5l203 -579h-316l-178 521h-16h-270l-86 -521h-308zM459 768h270q121 0 202.5 65t99.5 172q17 107 -43.5 168t-182.5 61h-269zM280 -479l149 361h276l-217 -361h-208z" />
    <glyph glyph-name="uni0157" unicode="&#x157;" horiz-adv-x="764" 
d="M17 0l175 1056h284l-30 -180h3q45 95 114.5 141t174.5 46q26 0 47.5 -1t38.5 -1l-41 -251q-16 1 -52.5 3t-73.5 2q-91 0 -161 -62t-89 -181l-95 -572h-295zM-140 -479l149 361h276l-217 -361h-208z" />
    <glyph glyph-name="Rcaron" unicode="&#x158;" horiz-adv-x="1332" 
d="M24 0l247 1490h593q167 0 280.5 -59.5t163 -169.5t24.5 -260q-25 -148 -113.5 -256.5t-223.5 -165.5l203 -579h-316l-178 521h-16h-270l-86 -521h-308zM459 768h270q121 0 202.5 65t99.5 172q17 107 -43.5 168t-182.5 61h-269zM756 1933l102 -167l161 167h233v-1
l-298 -301h-237l-193 301v1h232z" />
    <glyph glyph-name="rcaron" unicode="&#x159;" horiz-adv-x="764" 
d="M17 0l175 1056h284l-30 -180h3q45 95 114.5 141t174.5 46q26 0 47.5 -1t38.5 -1l-41 -251q-16 1 -52.5 3t-73.5 2q-91 0 -161 -62t-89 -181l-95 -572h-295zM450 1499l102 -167l161 167h233v-1l-298 -301h-237l-193 301v1h232z" />
    <glyph glyph-name="Sacute" unicode="&#x15a;" horiz-adv-x="1337" 
d="M599 -24q-292 0 -433 136.5t-101 376.5h295q-17 -123 52 -191.5t211 -68.5q130 0 218.5 53.5t102.5 142.5q12 70 -39.5 115t-188.5 76l-151 35q-430 96 -374 429q22 131 106.5 228.5t217 151.5t297.5 54q260 0 396 -128t105 -353h-287q9 108 -52.5 168t-181.5 60
q-115 0 -198 -53.5t-97 -136.5q-11 -67 38 -108.5t181 -71.5l138 -31q231 -51 327 -157.5t67 -281.5q-34 -209 -206.5 -327t-442.5 -118zM729 1643l223 302h288l-304 -302h-207z" />
    <glyph glyph-name="sacute" unicode="&#x15b;" horiz-adv-x="1065" 
d="M464 -26q-130 0 -229.5 39t-156.5 113.5t-57 180.5v12t1 13h289q-8 -147 162 -147q83 0 143.5 36.5t60.5 96.5q0 62 -110 85l-179 35q-277 56 -277 270q0 111 65 194.5t176 129.5t251 46q190 0 304 -81.5t114 -222.5q0 -25 -4 -53h-273q8 69 -33 108.5t-115 39.5
q-82 0 -135.5 -39.5t-53.5 -94.5q0 -63 102 -85l194 -39q276 -56 276 -253q0 -114 -68.5 -200.5t-185.5 -135t-261 -48.5zM526 1209l223 302h288l-304 -302h-207z" />
    <glyph glyph-name="Scircumflex" unicode="&#x15c;" horiz-adv-x="1337" 
d="M599 -24q-292 0 -433 136.5t-101 376.5h295q-17 -123 52 -191.5t211 -68.5q130 0 218.5 53.5t102.5 142.5q12 70 -39.5 115t-188.5 76l-151 35q-430 96 -374 429q22 131 106.5 228.5t217 151.5t297.5 54q260 0 396 -128t105 -353h-287q9 108 -52.5 168t-181.5 60
q-115 0 -198 -53.5t-97 -136.5q-11 -67 38 -108.5t181 -71.5l138 -31q231 -51 327 -157.5t67 -281.5q-34 -209 -206.5 -327t-442.5 -118zM716 1631h-232v1l293 301h236l199 -301v-1h-233l-106 167z" />
    <glyph glyph-name="scircumflex" unicode="&#x15d;" horiz-adv-x="1065" 
d="M464 -26q-130 0 -229.5 39t-156.5 113.5t-57 180.5v12t1 13h289q-8 -147 162 -147q83 0 143.5 36.5t60.5 96.5q0 62 -110 85l-179 35q-277 56 -277 270q0 111 65 194.5t176 129.5t251 46q190 0 304 -81.5t114 -222.5q0 -25 -4 -53h-273q8 69 -33 108.5t-115 39.5
q-82 0 -135.5 -39.5t-53.5 -94.5q0 -63 102 -85l194 -39q276 -56 276 -253q0 -114 -68.5 -200.5t-185.5 -135t-261 -48.5zM513 1197h-232v1l293 301h236l199 -301v-1h-233l-106 167z" />
    <glyph glyph-name="Scedilla" unicode="&#x15e;" horiz-adv-x="1337" 
d="M599 -24q-292 0 -433 136.5t-101 376.5h295q-17 -123 52 -191.5t211 -68.5q130 0 218.5 53.5t102.5 142.5q12 70 -39.5 115t-188.5 76l-151 35q-430 96 -374 429q22 131 106.5 228.5t217 151.5t297.5 54q260 0 396 -128t105 -353h-287q9 108 -52.5 168t-181.5 60
q-115 0 -198 -53.5t-97 -136.5q-11 -67 38 -108.5t181 -71.5l138 -31q231 -51 327 -157.5t67 -281.5q-34 -209 -206.5 -327t-442.5 -118zM385 -418l20 123h118q89 0 99 59t-79 59h-82l73 221h117l-8 -44l-13 -80q90 -1 131.5 -47t29.5 -118q-14 -86 -84.5 -129.5
t-182.5 -43.5h-139z" />
    <glyph glyph-name="scedilla" unicode="&#x15f;" horiz-adv-x="1065" 
d="M464 -26q-130 0 -229.5 39t-156.5 113.5t-57 180.5v12t1 13h289q-8 -147 162 -147q83 0 143.5 36.5t60.5 96.5q0 62 -110 85l-179 35q-277 56 -277 270q0 111 65 194.5t176 129.5t251 46q190 0 304 -81.5t114 -222.5q0 -25 -4 -53h-273q8 69 -33 108.5t-115 39.5
q-82 0 -135.5 -39.5t-53.5 -94.5q0 -63 102 -85l194 -39q276 -56 276 -253q0 -114 -68.5 -200.5t-185.5 -135t-261 -48.5zM252 -418l20 123h118q89 0 99 59t-79 59h-82l73 221h117l-8 -44l-13 -80q90 -1 131.5 -47t29.5 -118q-14 -86 -84.5 -129.5t-182.5 -43.5h-139z" />
    <glyph glyph-name="Scaron" unicode="&#x160;" horiz-adv-x="1337" 
d="M599 -24q-292 0 -433 136.5t-101 376.5h295q-17 -123 52 -191.5t211 -68.5q130 0 218.5 53.5t102.5 142.5q12 70 -39.5 115t-188.5 76l-151 35q-430 96 -374 429q22 131 106.5 228.5t217 151.5t297.5 54q260 0 396 -128t105 -353h-287q9 108 -52.5 168t-181.5 60
q-115 0 -198 -53.5t-97 -136.5q-11 -67 38 -108.5t181 -71.5l138 -31q231 -51 327 -157.5t67 -281.5q-34 -209 -206.5 -327t-442.5 -118zM766 1933l102 -167l161 167h233v-1l-298 -301h-237l-193 301v1h232z" />
    <glyph glyph-name="scaron" unicode="&#x161;" horiz-adv-x="1065" 
d="M464 -26q-130 0 -229.5 39t-156.5 113.5t-57 180.5v12t1 13h289q-8 -147 162 -147q83 0 143.5 36.5t60.5 96.5q0 62 -110 85l-179 35q-277 56 -277 270q0 111 65 194.5t176 129.5t251 46q190 0 304 -81.5t114 -222.5q0 -25 -4 -53h-273q8 69 -33 108.5t-115 39.5
q-82 0 -135.5 -39.5t-53.5 -94.5q0 -63 102 -85l194 -39q276 -56 276 -253q0 -114 -68.5 -200.5t-185.5 -135t-261 -48.5zM563 1499l102 -167l161 167h233v-1l-298 -301h-237l-193 301v1h232z" />
    <glyph glyph-name="uni021A" unicode="&#x162;" horiz-adv-x="1302" 
d="M160 1226l45 264h1211l-44 -264h-452l-202 -1226h-308l203 1226h-453zM363 -418l20 123h118q89 0 99 59t-79 59h-82l73 221h117l-8 -44l-13 -80q90 -1 131.5 -47t29.5 -118q-14 -86 -84.5 -129.5t-182.5 -43.5h-139z" />
    <glyph glyph-name="uni0163" unicode="&#x163;" horiz-adv-x="756" 
d="M798 1056l-38 -231h-216l-82 -499q-9 -54 9.5 -74.5t77.5 -20.5h113l-38 -231h-171q-175 0 -246 68t-47 212l90 545h-183l38 231h183l48 288h294l-48 -288h216zM192 -418l20 123h118q89 0 99 59t-79 59h-82l73 221h117l-8 -44l-13 -80q90 -1 131.5 -47t29.5 -118
q-14 -86 -84.5 -129.5t-182.5 -43.5h-139z" />
    <glyph glyph-name="Tcaron" unicode="&#x164;" horiz-adv-x="1302" 
d="M160 1226l45 264h1211l-44 -264h-452l-202 -1226h-308l203 1226h-453zM753 1933l102 -167l161 167h233v-1l-298 -301h-237l-193 301v1h232z" />
    <glyph glyph-name="tcaron" unicode="&#x165;" horiz-adv-x="790" 
d="M798 1056l-38 -231h-216l-82 -499q-9 -54 9.5 -74.5t77.5 -20.5h113l-38 -231h-171q-175 0 -246 68t-47 212l90 545h-183l38 231h183l48 288h294l-48 -288h216zM734 1182l63 383h227l-117 -383h-173z" />
    <glyph glyph-name="Tbar" unicode="&#x166;" horiz-adv-x="1302" 
d="M160 1226l45 264h1211l-44 -264h-452l-202 -1226h-308l203 1226h-453zM219 607l35 212h890l-35 -212h-890z" />
    <glyph glyph-name="tbar" unicode="&#x167;" horiz-adv-x="757" 
d="M740 703l-30 -184h-215l-32 -193q-9 -54 9.5 -74.5t77.5 -20.5h113l-38 -231h-171q-175 0 -246 68t-47 212l39 239h-183l30 184h184l20 122h-183l38 231h183l48 288h294l-48 -288h216l-38 -231h-216l-20 -122h215z" />
    <glyph glyph-name="Utilde" unicode="&#x168;" horiz-adv-x="1442" 
d="M645 -24q-189 0 -319 71t-188 195.5t-31 286.5l160 961h301l-158 -956q-22 -131 45 -211.5t203 -80.5q99 0 179.5 41.5t133 112t67.5 158.5l155 936h301l-163 -981q-27 -161 -120 -281t-238.5 -186t-327.5 -66zM1047 1653q-63 0 -104.5 25.5t-72.5 51t-62 25.5
q-32 0 -52.5 -27t-29.5 -70h-163q24 126 91 194.5t159 68.5q64 0 104.5 -25.5t71 -50.5t64.5 -25t53 24t30 71h160q-23 -125 -92 -193.5t-157 -68.5z" />
    <glyph glyph-name="utilde" unicode="&#x169;" horiz-adv-x="1199" 
d="M384 -22q-169 0 -252 108.5t-50 308.5l110 661h294l-101 -607q-17 -106 25 -161.5t134 -55.5q91 0 158.5 57t88.5 180l97 587h294l-175 -1056h-290l28 166q-69 -90 -158 -139t-203 -49zM854 1219q-63 0 -104.5 25.5t-72.5 51t-62 25.5q-32 0 -52.5 -27t-29.5 -70h-163
q24 126 91 194.5t159 68.5q64 0 104.5 -25.5t71 -50.5t64.5 -25t53 24t30 71h160q-23 -125 -92 -193.5t-157 -68.5z" />
    <glyph glyph-name="Umacron" unicode="&#x16a;" horiz-adv-x="1442" 
d="M645 -24q-189 0 -319 71t-188 195.5t-31 286.5l160 961h301l-158 -956q-22 -131 45 -211.5t203 -80.5q99 0 179.5 41.5t133 112t67.5 158.5l155 936h301l-163 -981q-27 -161 -120 -281t-238.5 -186t-327.5 -66zM1230 1861l-32 -190h-578l32 190h578z" />
    <glyph glyph-name="umacron" unicode="&#x16b;" horiz-adv-x="1199" 
d="M384 -22q-169 0 -252 108.5t-50 308.5l110 661h294l-101 -607q-17 -106 25 -161.5t134 -55.5q91 0 158.5 57t88.5 180l97 587h294l-175 -1056h-290l28 166q-69 -90 -158 -139t-203 -49zM1037 1427l-32 -190h-578l32 190h578z" />
    <glyph glyph-name="Ubreve" unicode="&#x16c;" horiz-adv-x="1442" 
d="M645 -24q-189 0 -319 71t-188 195.5t-31 286.5l160 961h301l-158 -956q-22 -131 45 -211.5t203 -80.5q99 0 179.5 41.5t133 112t67.5 158.5l155 936h301l-163 -981q-27 -161 -120 -281t-238.5 -186t-327.5 -66zM901 1620q-97 0 -168 41t-104.5 111t-18.5 157h177
q-11 -66 28.5 -107.5t111.5 -41.5q73 0 125.5 41.5t63.5 107.5h179q-14 -87 -71 -157t-141.5 -111t-181.5 -41z" />
    <glyph glyph-name="ubreve" unicode="&#x16d;" horiz-adv-x="1199" 
d="M384 -22q-169 0 -252 108.5t-50 308.5l110 661h294l-101 -607q-17 -106 25 -161.5t134 -55.5q91 0 158.5 57t88.5 180l97 587h294l-175 -1056h-290l28 166q-69 -90 -158 -139t-203 -49zM708 1186q-97 0 -168 41t-104.5 111t-18.5 157h177q-11 -66 28.5 -107.5
t111.5 -41.5q73 0 125.5 41.5t63.5 107.5h179q-14 -87 -71 -157t-141.5 -111t-181.5 -41z" />
    <glyph glyph-name="Uring" unicode="&#x16e;" horiz-adv-x="1442" 
d="M645 -24q-189 0 -319 71t-188 195.5t-31 286.5l160 961h301l-158 -956q-22 -131 45 -211.5t203 -80.5q99 0 179.5 41.5t133 112t67.5 158.5l155 936h301l-163 -981q-27 -161 -120 -281t-238.5 -186t-327.5 -66zM910 1575q-115 0 -180 73.5t-46 182.5q15 94 93 156t179 62
q116 0 180.5 -73.5t46.5 -182.5q-16 -94 -93.5 -156t-179.5 -62zM916 1710q44 0 78 29t42 73q7 44 -17.5 73t-68.5 29t-77.5 -29t-41.5 -73q-7 -44 17.5 -73t67.5 -29z" />
    <glyph glyph-name="uring" unicode="&#x16f;" horiz-adv-x="1199" 
d="M384 -22q-169 0 -252 108.5t-50 308.5l110 661h294l-101 -607q-17 -106 25 -161.5t134 -55.5q91 0 158.5 57t88.5 180l97 587h294l-175 -1056h-290l28 166q-69 -90 -158 -139t-203 -49zM701 1141q-109 0 -170 67.5t-44 169.5t100 169.5t192 67.5t170 -67.5t44 -169.5
t-100 -169.5t-192 -67.5zM720 1276q46 0 80.5 28.5t41.5 73.5t-15.5 73.5t-65.5 28.5q-47 0 -81.5 -28.5t-42.5 -73.5q-7 -45 16 -73.5t67 -28.5z" />
    <glyph glyph-name="Uhungarumlaut" unicode="&#x170;" horiz-adv-x="1442" 
d="M645 -24q-189 0 -319 71t-188 195.5t-31 286.5l160 961h301l-158 -956q-22 -131 45 -211.5t203 -80.5q99 0 179.5 41.5t133 112t67.5 158.5l155 936h301l-163 -981q-27 -161 -120 -281t-238.5 -186t-327.5 -66zM1159 1620h-214l247 313h283zM813 1620h-208l186 313h265z
" />
    <glyph glyph-name="uhungarumlaut" unicode="&#x171;" horiz-adv-x="1199" 
d="M384 -22q-169 0 -252 108.5t-50 308.5l110 661h294l-101 -607q-17 -106 25 -161.5t134 -55.5q91 0 158.5 57t88.5 180l97 587h294l-175 -1056h-290l28 166q-69 -90 -158 -139t-203 -49zM966 1186h-214l247 313h283zM620 1186h-208l186 313h265z" />
    <glyph glyph-name="Uogonek" unicode="&#x172;" horiz-adv-x="1442" 
d="M645 -24q-189 0 -319 71t-188 195.5t-31 286.5l160 961h301l-158 -956q-22 -131 45 -211.5t203 -80.5q99 0 179.5 41.5t133 112t67.5 158.5l155 936h301l-163 -981q-27 -161 -120 -281t-238.5 -186t-327.5 -66zM642 -418q-130 0 -195 52.5t-49 150.5q14 85 75.5 138.5
t151 92t188.5 76t190.5 89.5t157.5 132.5t87 205.5l84 -10q-23 -129 -76 -217t-122.5 -147t-142.5 -98.5t-137.5 -70.5t-107.5 -63.5t-50 -77.5q-11 -64 71 -64h59l-31 -189h-153z" />
    <glyph glyph-name="uogonek" unicode="&#x173;" horiz-adv-x="1199" 
d="M384 -22q-169 0 -252 108.5t-50 308.5l110 661h294l-101 -607q-17 -106 25 -161.5t134 -55.5q91 0 158.5 57t88.5 180l97 587h294l-175 -1056h-290l28 166q-69 -90 -158 -139t-203 -49zM784 -418q-130 0 -193 52.5t-46 150.5q12 73 63 134t146 122l252 -41
q-89 -57 -125 -92.5t-42 -72.5q-12 -64 71 -64h59l-32 -189h-153z" />
    <glyph glyph-name="Wcircumflex" unicode="&#x174;" horiz-adv-x="2041" 
d="M321 0l-153 1490h324l53 -740q6 -98 9.5 -196t5.5 -197q37 99 74.5 197t77.5 196l307 740h314l61 -740q7 -97 12.5 -194.5t8.5 -194.5q35 97 71.5 194.5t74.5 194.5l298 740h332l-648 -1490h-343l-77 813q-5 55 -8.5 116.5t-6.5 132.5q-27 -71 -50.5 -132.5t-46.5 -116.5
l-345 -813h-345zM1071 1631h-232v1l293 301h236l199 -301v-1h-233l-106 167z" />
    <glyph glyph-name="wcircumflex" unicode="&#x175;" horiz-adv-x="1676" 
d="M249 0l-150 1056h305l35 -369q8 -94 14 -193t11 -197q41 98 81.5 197t80.5 193l163 369h265l39 -369q9 -93 17 -192t15 -197q38 98 75.5 196.5t76.5 192.5l158 369h316l-500 -1056h-305l-53 420q-8 66 -14.5 136t-12.5 141q-30 -71 -60 -141t-61 -136l-193 -420h-303z
M816 1197h-232v1l293 301h236l199 -301v-1h-233l-106 167z" />
    <glyph glyph-name="Ycircumflex" unicode="&#x176;" horiz-adv-x="1413" 
d="M473 0l92 557l-397 933h338l179 -447q18 -45 35 -90t33 -90q30 45 61 90t64 90l320 447h365l-698 -933l-92 -557h-300zM757 1631h-232v1l293 301h236l199 -301v-1h-233l-106 167z" />
    <glyph glyph-name="ycircumflex" unicode="&#x177;" horiz-adv-x="1134" 
d="M-27 -418l39 233h134q52 0 81.5 26t61.5 86l42 77l-232 1052h297l90 -522q9 -56 17 -113l16 -114q53 115 109 227l264 522h318l-667 -1219q-139 -255 -375 -255h-195zM525 1197h-232v1l293 301h236l199 -301v-1h-233l-106 167z" />
    <glyph glyph-name="Ydieresis" unicode="&#x178;" horiz-adv-x="1413" 
d="M473 0l92 557l-397 933h338l179 -447q18 -45 35 -90t33 -90q30 45 61 90t64 90l320 447h365l-698 -933l-92 -557h-300zM1111 1626q-70 0 -109 44t-27 111q11 67 64 111.5t123 44.5q69 0 108.5 -44.5t27.5 -111.5q-11 -67 -64.5 -111t-122.5 -44zM665 1626
q-70 0 -108.5 44t-26.5 111q11 67 64 111.5t122 44.5q70 0 109.5 -44.5t27.5 -111.5q-11 -67 -64.5 -111t-123.5 -44z" />
    <glyph glyph-name="Zacute" unicode="&#x179;" horiz-adv-x="1310" 
d="M5 0l30 181l921 1059h-749l42 250h1129l-30 -182l-922 -1058h749l-41 -250h-1129zM721 1643l223 302h288l-304 -302h-207z" />
    <glyph glyph-name="zacute" unicode="&#x17a;" horiz-adv-x="1071" 
d="M9 0l33 198l618 621l1 3h-516l39 234h871l-35 -209l-606 -611l-1 -3h513l-38 -233h-879zM525 1209l223 302h288l-304 -302h-207z" />
    <glyph glyph-name="Zdotaccent" unicode="&#x17b;" horiz-adv-x="1310" 
d="M5 0l30 181l921 1059h-749l42 250h1129l-30 -182l-922 -1058h749l-41 -250h-1129zM840 1632q-68 0 -108 46t-29 112q11 67 66 113t124 46t109 -46t29 -113q-11 -66 -66.5 -112t-124.5 -46z" />
    <glyph glyph-name="zdotaccent" unicode="&#x17c;" horiz-adv-x="1071" 
d="M9 0l33 198l618 621l1 3h-516l39 234h871l-35 -209l-606 -611l-1 -3h513l-38 -233h-879zM644 1198q-68 0 -108 46t-29 112q11 67 66 113t124 46t109 -46t29 -113q-11 -66 -66.5 -112t-124.5 -46z" />
    <glyph glyph-name="Zcaron" unicode="&#x17d;" horiz-adv-x="1310" 
d="M5 0l30 181l921 1059h-749l42 250h1129l-30 -182l-922 -1058h749l-41 -250h-1129zM759 1933l102 -167l161 167h233v-1l-298 -301h-237l-193 301v1h232z" />
    <glyph glyph-name="zcaron" unicode="&#x17e;" horiz-adv-x="1071" 
d="M9 0l33 198l618 621l1 3h-516l39 234h871l-35 -209l-606 -611l-1 -3h513l-38 -233h-879zM563 1499l102 -167l161 167h233v-1l-298 -301h-237l-193 301v1h232z" />
    <glyph glyph-name="longs" unicode="&#x17f;" horiz-adv-x="616" 
d="M-98 -418h-157l39 238h87q66 0 95.5 26.5t40.5 91.5l209 1255q49 297 392 297h167l-38 -231h-101q-63 0 -93.5 -26.5t-40.5 -89.5l-207 -1243q-27 -160 -119 -239t-274 -79z" />
    <glyph glyph-name="bbar" unicode="&#x180;" horiz-adv-x="1224" 
d="M638 -22q-112 0 -189.5 49t-111.5 147h-1l-28 -174h-291l246 1490h295l-93 -572h1q50 82 137 121t183 39q180 0 284 -122.5t104 -324.5q0 -119 -36 -235t-104.5 -210.5t-168 -151t-227.5 -56.5zM565 218q102 0 172 63t106.5 159t36.5 193q0 101 -47.5 154t-132.5 53
q-101 0 -174 -62t-112 -155t-39 -189q0 -101 50.5 -158.5t139.5 -57.5zM69 1170l31 184h760l-31 -184h-760z" />
    <glyph glyph-name="uni0181" unicode="&#x181;" horiz-adv-x="1708" 
d="M114 1033l24 149q24 142 114.5 225t237.5 83h757q241 0 356.5 -111.5t86.5 -290.5q-20 -122 -108 -200.5t-215 -109.5v-1q133 -16 212.5 -113t51.5 -263q-29 -180 -177.5 -290.5t-403.5 -110.5h-638l246 1490l-43 -257h-87q-90 0 -103 -82l-19 -118h-292zM753 242h285
q118 0 194 52.5t92 147.5q15 91 -40 144t-171 53h-294zM857 871h271q101 0 169 52.5t83 140.5q14 85 -35 134.5t-150 49.5h-275z" />
    <glyph glyph-name="uni0182" unicode="&#x182;" horiz-adv-x="1292" 
d="M24 0l247 1490h980l-42 -250h-678l-50 -308h255q263 0 393.5 -125t96.5 -335q-24 -139 -110 -245.5t-222.5 -166.5t-312.5 -60h-557zM366 244h255q130 0 210.5 69t95.5 162q15 91 -43 153.5t-188 62.5h-256z" />
    <glyph glyph-name="uni0183" unicode="&#x183;" horiz-adv-x="1224" 
d="M638 -22q-112 0 -189.5 49t-111.5 147h-1l-28 -174h-291l246 1490h863l-39 -234h-567l-55 -338h1q50 82 137 121t183 39q180 0 284 -122.5t104 -324.5q0 -119 -36 -235t-104.5 -210.5t-168 -151t-227.5 -56.5zM565 218q102 0 172 63t106.5 159t36.5 193q0 101 -47.5 154
t-132.5 53q-101 0 -174 -62t-112 -155t-39 -189q0 -101 50.5 -158.5t139.5 -57.5z" />
    <glyph glyph-name="uni0184" unicode="&#x184;" horiz-adv-x="1546" 
d="M723 932h256q262 0 393 -125t96 -335q-23 -139 -109.5 -245.5t-223 -166.5t-311.5 -60h-557l206 1240h-359l42 250h660zM683 691l-74 -447h256q128 0 208.5 69t95.5 162q15 91 -43 153.5t-187 62.5h-256z" />
    <glyph glyph-name="uni0185" unicode="&#x185;" horiz-adv-x="1314" 
d="M407 1536h51l-8 -46h242l-83 -506h13q39 60 117 104t185 44q124 0 216.5 -64.5t134 -192.5t11.5 -318q-32 -187 -114.5 -315t-197 -194.5t-240.5 -66.5q-116 0 -176 44.5t-79 102.5h-17l-21 -128h-291l173 1049l-159 170l24 141zM1004 558q24 152 -24 244t-174 93
q-132 -1 -202.5 -98t-93.5 -239q-16 -94 -5.5 -171t56 -122.5t133.5 -45.5q126 0 204.5 93t105.5 246z" />
    <glyph glyph-name="uni0186" unicode="&#x186;" horiz-adv-x="1495" 
d="M871 1514q183 0 320 -74.5t212.5 -213t75.5 -329.5q0 -183 -58.5 -348.5t-168 -294.5t-262.5 -203.5t-342 -74.5q-176 0 -308 67t-204 190t-68 292h309q5 -132 79 -204.5t201 -72.5q126 0 222 56.5t161.5 150.5t99 208.5t33.5 230.5q0 163 -81.5 255.5t-237.5 92.5
q-138 0 -245.5 -72t-157.5 -203h-310q51 166 158 289t254.5 190.5t317.5 67.5z" />
    <glyph glyph-name="uni0187" unicode="&#x187;" horiz-adv-x="1495" 
d="M696 -24q-183 0 -319.5 74.5t-212.5 213t-76 329.5q0 183 58.5 348.5t168 294.5t262.5 203.5t342 74.5q218 0 367 -102q72 264 389 264h163l-39 -238h-120q-100 0 -116 -93l-63 -380h-310q-5 132 -79 204.5t-201 72.5q-126 0 -222 -56.5t-161.5 -150.5t-98.5 -208.5
t-33 -230.5q0 -163 81 -255.5t238 -92.5q138 0 245 72t157 203h311q-52 -166 -159 -289t-254 -190.5t-318 -67.5z" />
    <glyph glyph-name="uni0188" unicode="&#x188;" horiz-adv-x="1136" 
d="M512 -24q-142 0 -246 56t-160 157.5t-56 237.5q0 127 43 244.5t123.5 209.5t193.5 145.5t254 53.5q132 0 236 -51q67 233 363 233h163l-40 -238h-119q-100 0 -116 -93l-45 -270h-285q1 75 -35 128t-126 53q-101 0 -171.5 -63t-107 -159.5t-36.5 -196.5q0 -99 45.5 -154
t133.5 -55q93 0 159 52t93 131h287q-27 -124 -105 -219t-193 -148.5t-253 -53.5z" />
    <glyph glyph-name="Dbar1" unicode="&#x189;" horiz-adv-x="1534" 
d="M702 0h-580l247 1490h515q225 0 377.5 -91t218 -258t27.5 -395q-38 -229 -141 -396.5t-269 -258.5t-395 -91zM473 259h202q226 0 355 126t168 361q38 235 -40.5 360t-300.5 125h-223zM-61 650l35 212h890l-35 -212h-890z" />
    <glyph glyph-name="uni018A" unicode="&#x18a;" horiz-adv-x="1824" 
d="M115 1033l24 149q24 142 114.5 225t237.5 83h683q225 0 377.5 -91t218 -258t27.5 -395q-38 -229 -141 -396.5t-269 -258.5t-395 -91h-580l247 1490l-43 -257h-87q-90 0 -103 -82l-19 -118h-292zM763 259h202q226 0 355 126t168 361q38 235 -40.5 360t-300.5 125h-223z
" />
    <glyph glyph-name="uni018B" unicode="&#x18b;" horiz-adv-x="1319" 
d="M1129 0h-556q-175 0 -292.5 60t-168.5 166.5t-28 245.5t109.5 243t223.5 162t313 58h250l49 297h-673l40 250h978zM865 245l72 445h-250q-131 0 -205.5 -62t-89.5 -153q-15 -93 38 -162t184 -68h251z" />
    <glyph glyph-name="uni018C" unicode="&#x18c;" horiz-adv-x="1223" 
d="M439 -22q-183 0 -286.5 118t-103.5 316q0 124 37 243t106.5 214.5t169 152t225.5 56.5q222 0 298 -181h1l59 359h-568l38 234h862l-246 -1490h-290l25 155h-1q-60 -95 -144 -136t-182 -41zM523 218q100 0 173 61t113 154t40 190q0 102 -51 159.5t-141 57.5
q-101 0 -171 -63t-106 -158.5t-36 -194.5q0 -100 47 -153t132 -53z" />
    <glyph glyph-name="deltaturn" unicode="&#x18d;" horiz-adv-x="1271" 
d="M875 -376h-806l40 233h421q-19 20 -63.5 56.5t-96.5 83.5q-133 123 -206.5 256t-49.5 297l3 20q24 167 105 293.5t210 197.5t297 71q167 0 272.5 -66.5t147.5 -186t19 -278.5l-4 -20q-20 -135 -91.5 -241.5t-177.5 -173.5t-227 -86q-8 -1 -17.5 -1t-20.5 -1
q41 -39 93 -95t100.5 -111t76.5 -93zM864 550l3 20q14 89 5.5 163.5t-51 118.5t-131.5 44q-128 0 -193 -92.5t-86 -233.5l-3 -20q-17 -114 17.5 -192.5t92.5 -116.5q13 -5 26.5 -6.5t30.5 -1.5q85 0 144 43t95 115t50 159z" />
    <glyph glyph-name="Eturn" unicode="&#x18e;" horiz-adv-x="1240" 
d="M1288 1490l-247 -1490h-1068l43 264h762l57 345h-704l42 257h704l60 360h-761l43 264h1069z" />
    <glyph glyph-name="uni018F" unicode="&#x18f;" horiz-adv-x="1502" 
d="M652 -24q-193 0 -331 79.5t-201.5 220.5t-32.5 326l32 190h1054q24 209 -56.5 329.5t-261.5 120.5q-137 0 -237 -68.5t-144 -182.5h-312q45 156 155.5 273.5t263 183.5t323.5 66q201 0 343.5 -93.5t205 -266t22.5 -410.5q-38 -230 -152.5 -403t-287 -269t-383.5 -96z
M1116 558h-735q-14 -93 22.5 -162.5t112 -108.5t178.5 -39q148 0 255.5 81t166.5 229z" />
    <glyph glyph-name="Epsilon1" unicode="&#x190;" horiz-adv-x="1269" 
d="M551 -24q-166 0 -288 57.5t-181 157.5t-37 229q22 133 125.5 233t262.5 120v3q-121 26 -186 111t-44 211q20 122 100.5 215.5t204.5 147t276 53.5q164 0 276.5 -61t164 -167.5t28.5 -242.5h-290q18 108 -34.5 172t-162.5 64q-107 0 -186 -58t-96 -154
q-14 -90 48.5 -142.5t182.5 -52.5h133l-37 -225h-133q-132 0 -221.5 -57.5t-105.5 -152.5q-16 -100 44 -160.5t178 -60.5q127 0 215 73t109 203h294q-23 -142 -103.5 -259t-215.5 -187t-321 -70z" />
    <glyph glyph-name="uni0191" unicode="&#x191;" horiz-adv-x="1192" 
d="M-262 -418l41 245h119q97 0 112 90l23 133l238 1440h1036l-45 -264h-728l-60 -366h679l-43 -256h-678l-80 -485v0l-36 -218q-53 -319 -411 -319h-167z" />
    <glyph glyph-name="florin" unicode="&#x192;" horiz-adv-x="898" 
d="M875 1082l-35 -213h-216l-149 -899q-32 -190 -146.5 -289.5t-290.5 -98.5q-37 -1 -71.5 2t-72.5 12l53 232q16 -5 45.5 -8t48.5 -3q68 0 100.5 41t44.5 112l149 899h-170l35 213h170l15 93q31 186 154.5 283.5t306.5 97.5q47 0 91 -6t78 -16l-68 -225q-19 4 -40.5 7
t-56.5 2q-71 1 -117 -35t-59 -108l-15 -93h216z" />
    <glyph glyph-name="uni0193" unicode="&#x193;" horiz-adv-x="1507" 
d="M696 -24q-187 0 -323.5 76.5t-210.5 215.5t-74 327q0 183 59.5 348.5t169.5 294t261.5 202.5t336.5 74q220 0 376 -105q19 139 116 203t264 64h162l-39 -238h-120q-100 0 -115 -93l-59 -354h-1v0v0h-313q-2 114 -73 182.5t-202 68.5q-126 0 -222.5 -56.5t-162 -151
t-98.5 -208t-33 -228.5q0 -165 83.5 -257.5t239.5 -92.5q105 0 193 40t147 110t79 160h-326l39 234h627l-33 -200q-31 -185 -136 -323.5t-263.5 -215.5t-348.5 -77z" />
    <glyph glyph-name="Gamma1" unicode="&#x194;" horiz-adv-x="1456" 
d="M198 1490h342l218 -778l474 778h343l-722 -1113q63 -214 93.5 -346t19.5 -204q-21 -120 -129.5 -194.5t-269.5 -74.5q-163 0 -250.5 72.5t-64.5 202.5q4 31 20 69.5t49.5 97.5t90 150.5t142.5 229.5zM652 64q-41 -68 -67 -123t-33 -96q-11 -74 50 -74q62 0 76 75
q6 41 -1 95.5t-25 122.5z" />
    <glyph glyph-name="uni0195" unicode="&#x195;" horiz-adv-x="1958" 
d="M17 0l247 1490h286l-94 -569h14q55 98 148 154.5t220 56.5q175 0 262 -111.5t55 -309.5l-25 -153l-21 -122q-13 -82 2.5 -127.5t49 -64.5t72.5 -19q130 0 234 187.5t169 578.5l21 127h295l-21 -127q-85 -514 -271 -762.5t-479 -248.5q-209 0 -307 118.5t-61 337.5l20 122
l17 102q18 107 -26.5 166t-142.5 59t-170.5 -62.5t-90.5 -174.5l-108 -648h-295z" />
    <glyph glyph-name="Iota" unicode="&#x196;" horiz-adv-x="559" 
d="M359 0q-181 0 -250.5 66.5t-43.5 219.5l199 1204h295l-196 -1176q-8 -49 9 -68.5t67 -19.5h42l-37 -226h-85z" />
    <glyph glyph-name="uni0197" unicode="&#x197;" horiz-adv-x="702" 
d="M664 1490l-247 -1490h-308l247 1490h308zM47 707l24 144h667l-24 -144h-667z" />
    <glyph glyph-name="uni0198" unicode="&#x198;" horiz-adv-x="1434" 
d="M24 0l247 1490h300l-107 -651h19l587 531q132 116 267.5 134.5t257.5 -62.5l-133 -214q-55 32 -102.5 17.5t-106.5 -67.5l-420 -374l482 -804h-362l-348 590l-215 -197l-65 -393h-301z" />
    <glyph glyph-name="uni0199" unicode="&#x199;" horiz-adv-x="1127" 
d="M156 839l36 217l20 115q52 319 404 319h163l-40 -238h-119q-101 0 -116 -93l-17 -103l-67 -404h3l437 404h346l-489 -458l336 -598h-345l-240 429l-101 -94l-55 -335h-295l139 839v0z" />
    <glyph glyph-name="uni019A" unicode="&#x19a;" horiz-adv-x="504" 
d="M559 1490l-247 -1490h-295l247 1490h295zM-105 676l31 184h760l-31 -184h-760z" />
    <glyph glyph-name="lambdabar" unicode="&#x19b;" horiz-adv-x="1314" 
d="M939 1393l-34 -194l-74 -23l207 -847q10 -43 29.5 -76t59.5 -33h35l-37 -232q-21 -5 -49 -6t-62 -1q-123 0 -185.5 57t-85.5 168l-95 457l-337 -663h-319l567 1058l-8 30l-294 -92l31 195l209 65q-30 42 -98 42q-12 0 -27.5 -0.5t-32.5 -3.5l30 221q33 10 84 15t83 5
q113 0 171.5 -45t77.5 -128l4 -15z" />
    <glyph glyph-name="mcapturn" unicode="&#x19c;" horiz-adv-x="1896" 
d="M784 159q-66 -84 -160 -131.5t-214 -47.5q-181 0 -258 100.5t-36 346.5l176 1063h293l-176 -1063q-19 -114 18 -161.5t106 -47.5q85 0 142.5 33t93.5 90q3 41 10 86l177 1063h292l-177 -1063q-18 -114 19 -161.5t107 -47.5q81 0 137 30.5t91 82.5l194 1159h295
l-247 -1490h-268l6 117q-64 -65 -147 -101t-183 -36q-111 0 -186.5 41t-104.5 138z" />
    <glyph glyph-name="Nhook" unicode="&#x19d;" horiz-adv-x="1486" 
d="M-262 -418l41 245h119q97 0 112 90l23 133l238 1440h319l355 -762q19 -43 51 -121t63 -158q12 87 24.5 171.5t20.5 132.5l123 737h307l-247 -1490h-318l-322 690q-24 52 -64 145.5t-85 209.5q-15 -119 -29.5 -212t-22.5 -142l-95 -572h1l-36 -218q-53 -319 -411 -319
h-167z" />
    <glyph glyph-name="uni019E" unicode="&#x19e;" horiz-adv-x="1200" 
d="M409 587l-97 -587h-295l175 1056h290l-26 -155q66 86 150 131.5t193 45.5q173 0 261.5 -112t55.5 -312l-178 -1072h-294l170 1025q36 217 -150 217q-91 0 -163 -57t-92 -180z" />
    <glyph glyph-name="Obar" unicode="&#x19f;" horiz-adv-x="1532" 
d="M690 -24q-179 0 -314.5 74.5t-211.5 213.5t-76 330q0 181 59 346.5t168 294.5t260.5 204t338.5 75q179 0 314.5 -74.5t211 -213t75.5 -331.5q0 -183 -59.5 -348.5t-169 -294t-261 -202.5t-335.5 -74zM434 845h774q1 24 1 48q0 170 -84 259.5t-225 89.5q-117 0 -209.5 -54
t-157 -144.5t-99.5 -198.5zM704 248q118 0 210 54t156.5 144t99.5 199h-774q-1 -25 -1 -49q0 -169 83.5 -258.5t225.5 -89.5z" />
    <glyph glyph-name="Ohorn" unicode="&#x1a0;" horiz-adv-x="1531" 
d="M690 -24q-179 0 -314.5 74.5t-211.5 213.5t-76 330q0 181 59 346.5t168 294.5t260.5 204t338.5 75h14v0q52 0 90.5 -3.5t79.5 -8.5t96.5 -8.5t140.5 -3.5q25 0 30 26l35 214h266l-39 -237q-16 -97 -80 -143t-156 -49q60 -78 92 -180t32 -226q0 -183 -59.5 -348.5
t-169 -294t-261 -202.5t-335.5 -74zM704 248q121 0 215 56.5t158.5 150.5t98 208.5t33.5 229.5q0 170 -84 259.5t-225 89.5q-120 0 -214 -56.5t-159 -150.5t-98.5 -208.5t-33.5 -230.5q0 -169 83.5 -258.5t225.5 -89.5z" />
    <glyph glyph-name="ohorn" unicode="&#x1a1;" horiz-adv-x="1189" 
d="M519 -24q-217 0 -342.5 123.5t-125.5 329.5q0 134 44.5 251.5t127.5 207.5t196.5 141t250.5 51h15v0q63 0 99 -5t73.5 -10t106.5 -5q26 0 30 25l35 211h257l-38 -228q-13 -78 -62 -122t-118 -59q70 -109 70 -262q0 -129 -43.5 -246t-124.5 -208t-195.5 -143t-255.5 -52z
M536 215q101 0 169.5 63t103.5 158t35 192q0 102 -53 157.5t-138 55.5q-99 0 -168 -62.5t-104.5 -158t-35.5 -194.5q0 -102 52.5 -156.5t138.5 -54.5z" />
    <glyph glyph-name="OI" unicode="&#x1a2;" horiz-adv-x="1855" 
d="M1895 1490l-316 -1908h-293l259 1561l-165 -68l-73 -444v0l-74 -444q-52 -54 -139.5 -101t-201.5 -76.5t-245 -29.5q-312 0 -455.5 187.5t-89.5 516.5l17 103v0l3 19q37 222 143 379.5t270 241t375 83.5q157 0 274.5 -43.5t183.5 -105.5l306 129h221zM417 706l-2 -10v0
l-2 -12q-35 -212 28.5 -336t259.5 -124q80 0 146 20.5t108 54.5l55 329v0l94 563q-33 36 -94.5 54.5t-132.5 18.5q-202 0 -304.5 -118t-139.5 -340l-3 -16h1z" />
    <glyph glyph-name="uni01A3" unicode="&#x1a3;" horiz-adv-x="1453" 
d="M1489 1118l-253 -1536h-295l198 1200l-114 -44l-29 -178h-2l-59 -364q-72 -89 -182 -152.5t-283 -63.5q-169 0 -269 72.5t-136 196.5t-11 277l3 30q27 167 105 297t204.5 204.5t299.5 74.5q110 0 190.5 -41t130.5 -97l298 124h204zM509 217q85 0 142 45l52 317v0l43 261
q-18 27 -49.5 41.5t-80.5 14.5q-87 0 -140.5 -46.5t-82 -124t-43.5 -169.5l-4 -30q-13 -86 -5.5 -156.5t47 -111.5t121.5 -41z" />
    <glyph glyph-name="uni01A4" unicode="&#x1a4;" horiz-adv-x="1680" 
d="M118 1033l24 149q23 142 113.5 225t237.5 83h750q167 0 280.5 -60.5t163 -171t24.5 -260.5t-110.5 -259t-219 -168t-300.5 -59h-277l-84 -512h-308l205 1233h-86q-90 0 -103 -82l-19 -118h-291zM847 770h261q122 0 203 62.5t99 168.5q18 107 -43 169t-183 62h-260z" />
    <glyph glyph-name="uni01A5" unicode="&#x1a5;" horiz-adv-x="1223" 
d="M155 839l36 217l20 115q52 319 404 319h163l-40 -238h-119q-101 0 -116 -93l-17 -103l-23 -138q60 87 143.5 123.5t179.5 36.5q180 0 284 -120.5t104 -317.5q0 -122 -36.5 -240t-106 -213.5t-169.5 -152t-228 -56.5q-110 0 -186.5 50t-107.5 140h-1l-97 -586h-295
l209 1257h-1zM565 218q102 0 172 63t106.5 159t36.5 193q0 101 -47.5 154t-132.5 53q-101 0 -174 -62t-112 -155t-39 -189q0 -101 50.5 -158.5t139.5 -57.5z" />
    <glyph glyph-name="YR" unicode="&#x1a6;" horiz-adv-x="1507" 
d="M215 1389l34 203h307l-17 -102h250q256 0 385 -113t93 -327q-28 -166 -120 -263.5t-231 -150.5l365 -974l-3 -13h-328l-331 917h-232l-94 -566h-308l231 1389h-1zM427 810h248q122 0 194.5 59t87.5 155q17 101 -34 160t-176 59h-248z" />
    <glyph glyph-name="uni01A7" unicode="&#x1a7;" horiz-adv-x="1337" 
d="M587 -24q-183 0 -310.5 56t-186 160t-34.5 248q28 168 155 269.5t374 152.5l147 31q143 30 210 72t79 111q13 81 -47.5 133t-173.5 52q-120 0 -208 -61t-113 -167h-288q43 225 206.5 353t421.5 128q169 0 291 -57t180 -158.5t36 -237.5q-53 -320 -506 -414l-163 -34
q-147 -31 -217 -76t-82 -117q-15 -87 50.5 -139t193.5 -52q143 0 240.5 68.5t120.5 191.5h296q-39 -243 -212.5 -378t-459.5 -135z" />
    <glyph glyph-name="uni01A8" unicode="&#x1a8;" horiz-adv-x="1063" 
d="M111 721q32 165 172 260.5t345 95.5q206 0 312.5 -90.5t81.5 -240.5q-42 -249 -365 -310l-191 -36q-67 -12 -107 -37t-46 -67q-9 -49 33 -77.5t125 -28.5q176 0 216 142h290q-28 -113 -105.5 -192.5t-191 -121.5t-250.5 -42q-138 0 -236.5 43t-145 121t-29.5 183
q20 114 107 185.5t252 103.5l206 39q63 13 102.5 39t45.5 67q8 47 -31.5 77t-115.5 30q-78 0 -133.5 -40t-67.5 -103h-273z" />
    <glyph glyph-name="uni01A9" unicode="&#x1a9;" horiz-adv-x="1304" 
d="M-33 0l37 223l481 422q32 27 68.5 58t74.5 61q-58 64 -104 118l-315 381l39 227h1154l-44 -264h-506q-64 0 -127.5 0.5t-127.5 0.5q37 -38 70 -75.5t62 -71.5l227 -279l-17 -108l-313 -276q-43 -38 -90.5 -76.5t-93.5 -76.5h771l-44 -264h-1202z" />
    <glyph glyph-name="eshlooprev" unicode="&#x1aa;" horiz-adv-x="1267" 
d="M208 1154q18 111 88 202.5t172.5 146t215.5 54.5t197 -54.5t125 -146t23 -202.5l-1 -1l-196 -1181q-15 -86 15.5 -126t97.5 -41q39 1 88 9l-36 -231q-35 -8 -74 -11.5t-78 -3.5q-177 0 -259 104t-49 300l132 796q-59 -17 -118 -17q-113 0 -197 54.5t-124 146t-22 202.5z
M595 1004q60 0 109.5 38t61.5 115q12 76 -25 113.5t-97 38.5q-66 -1 -114.5 -39.5t-60.5 -112.5q-14 -77 23 -115t103 -38z" />
    <glyph glyph-name="uni01AB" unicode="&#x1ab;" horiz-adv-x="756" 
d="M44 -418l39 238h123q106 0 121 93l16 95q-221 38 -183 272l90 545h-183l38 231h183l48 288h294l-48 -288h216l-38 -231h-216l-82 -499q-9 -54 9.5 -74.5t77.5 -20.5h113l-38 -231v0l-16 -99q-53 -319 -402 -319h-162z" />
    <glyph glyph-name="uni01AC" unicode="&#x1ac;" horiz-adv-x="1410" 
d="M168 1033l24 149q23 142 113.5 225t237.5 83h981l-44 -264h-458l-202 -1226h-308l203 1226h-48l44 264l-43 -257h-87q-90 0 -103 -82l-19 -118h-291z" />
    <glyph glyph-name="uni01AD" unicode="&#x1ad;" horiz-adv-x="749" 
d="M441 0q-342 0 -293 297l87 528h-158l38 231h159l19 115q52 319 404 319h163l-40 -238h-119q-101 0 -116 -93l-17 -103h216l-39 -231h-216l-79 -478q-10 -63 11.5 -89.5t84.5 -26.5h101l-38 -231h-168z" />
    <glyph glyph-name="Trthook" unicode="&#x1ae;" horiz-adv-x="1302" 
d="M720 0l-12 -74q-11 -67 35 -88t107 -21h62l-38 -235h-141q-95 0 -177.5 28t-125.5 102.5t-19 214.5l12 73h-13l203 1226h-453l45 264h1211l-44 -264h-452l-202 -1226h2z" />
    <glyph glyph-name="Uhorn" unicode="&#x1af;" horiz-adv-x="1442" 
d="M1161 1300l32 190h176q25 0 30 26l35 214h266l-39 -237q-14 -86 -67 -132.5t-131 -56.5l-132 -795q-27 -161 -120 -281t-238.5 -186t-327.5 -66q-189 0 -319 71t-188 195.5t-31 286.5l160 961h301l-158 -956q-22 -131 45 -211.5t203 -80.5q99 0 179.5 41.5t133 112
t67.5 158.5l123 746v0z" />
    <glyph glyph-name="uhorn" unicode="&#x1b0;" horiz-adv-x="1323" 
d="M384 -22q-169 0 -252 108.5t-50 308.5l110 661h294l-101 -607q-17 -106 25 -161.5t134 -55.5q91 0 158.5 57t88.5 180l97 587h209q33 0 38 33l35 207h236l-38 -228q-16 -91 -73.5 -137.5t-142.5 -53.5l-145 -877h-290l28 166q-69 -90 -158 -139t-203 -49z" />
    <glyph glyph-name="Upsilon2" unicode="&#x1b1;" horiz-adv-x="1545" 
d="M97 683q32 190 130.5 326t241.5 219l2 12h-281l41 250h585l-52 -314q-86 -33 -161 -101.5t-127.5 -163t-70.5 -206.5q-22 -130 12 -233t113.5 -163t194.5 -61q117 1 216.5 61t167 163t89.5 233q28 167 -31.5 294t-171.5 177l52 314h584l-41 -250h-282l-2 -12
q117 -82 170 -218.5t22 -326.5q-26 -154 -98.5 -283t-182 -223t-246 -145.5t-290.5 -51.5q-204 0 -347 90t-206.5 248.5t-30.5 364.5z" />
    <glyph glyph-name="Vcursive" unicode="&#x1b2;" horiz-adv-x="1314" 
d="M562 -20q-166 0 -285.5 59t-174.5 174.5t-27 284.5l164 992h306l-164 -992q-45 -274 222 -274q264 0 309 274l99 607q14 87 -11 120t-101 33q-38 0 -91 -7l42 241q37 8 73 13t73 5q180 0 268.5 -104.5t57.5 -300.5l-100 -607q-28 -169 -121.5 -284t-233 -174.5
t-305.5 -59.5z" />
    <glyph glyph-name="uni01B3" unicode="&#x1b3;" horiz-adv-x="1553" 
d="M190 1490h329l279 -647h17l356 466q79 101 170 148.5t184 49.5t177 -33l-104 -228q-68 23 -116 5t-101 -85l-468 -587l-96 -579h-299l96 579z" />
    <glyph glyph-name="uni01B4" unicode="&#x1b4;" horiz-adv-x="1415" 
d="M902 1056l65 124q51 100 97.5 169.5t113.5 105t182 35.5h174l-39 -238h-96q-55 0 -83 -31.5t-56 -81.5l-48 -83h-2l-667 -1219q-139 -255 -375 -255h-195l39 233h134q52 0 81.5 26t61.5 86l42 77l-232 1052h297l90 -522q9 -56 17 -113l16 -114q53 115 109 227l264 522h10
z" />
    <glyph glyph-name="Zbar" unicode="&#x1b5;" horiz-adv-x="1310" 
d="M5 0l30 181l921 1059h-749l42 250h1129l-30 -182l-922 -1058h749l-41 -250h-1129zM229 639l35 212h890l-35 -212h-890z" />
    <glyph glyph-name="zbar" unicode="&#x1b6;" horiz-adv-x="1071" 
d="M9 0l33 198l618 621l1 3h-516l39 234h871l-35 -209l-606 -611l-1 -3h513l-38 -233h-879zM203 470l24 144h667l-24 -144h-667z" />
    <glyph glyph-name="uni01B7" unicode="&#x1b7;" horiz-adv-x="1351" 
d="M-26 103h304q-14 -129 62.5 -209t204.5 -80q100 0 180 50t133 136.5t71 196.5q30 186 -56.5 293.5t-249.5 107.5h-156l37 220l491 405v12h-752l44 255h1129l-36 -218l-566 -465l-3 -14q155 -12 261 -90t151 -206.5t18 -293.5q-31 -187 -135.5 -332.5t-260.5 -228.5
t-341 -83q-174 0 -300.5 69.5t-188.5 192.5t-41 282z" />
    <glyph glyph-name="uni01B8" unicode="&#x1b8;" horiz-adv-x="1351" 
d="M1236 103q-33 -159 -135.5 -282t-252.5 -192.5t-324 -69.5q-185 0 -313 83t-184 228.5t-26 332.5q28 165 115.5 293.5t218.5 206.5t290 90l3 14l-412 465l36 218h1130l-43 -255h-752v-12l355 -405l-37 -220h-155q-109 0 -201 -48.5t-154 -138.5t-83 -214
q-27 -165 40 -274t216 -109q85 0 161 36.5t129.5 101.5t72.5 151h305z" />
    <glyph glyph-name="uni01B9" unicode="&#x1b9;" horiz-adv-x="1269" 
d="M467 -458q-167 0 -285.5 58t-174 159.5t-33.5 230.5q17 102 81.5 193.5t176.5 154t272 77.5v2l-341 421l37 218h1001l-43 -256h-631v-2l275 -354l-35 -212h-156q-133 0 -223.5 -60t-107.5 -166q-16 -100 47 -162t183 -62q126 0 210.5 73.5t105.5 202.5h294
q-23 -142 -107 -259t-221.5 -187t-324.5 -70z" />
    <glyph glyph-name="uni01BA" unicode="&#x1ba;" horiz-adv-x="1125" 
d="M224 1056h899l-28 -172l-355 -245q124 -31 182.5 -108t40.5 -184q-13 -81 -61.5 -138t-117 -94t-145.5 -61t-148 -39q-216 -48 -231 -140q-9 -54 34.5 -81.5t118.5 -27.5t145 32.5t90 123.5h279q-16 -91 -85 -174.5t-185.5 -137t-275.5 -53.5q-137 0 -233.5 42.5
t-142 119t-28.5 178.5q15 90 66 149t121.5 95t145.5 56.5t139 33.5q91 18 155.5 39t75.5 86q16 96 -142 96h-236l29 171l311 197h-457z" />
    <glyph glyph-name="uni01BB" unicode="&#x1bb;" horiz-adv-x="1224" 
d="M-10 0l37 226l624 467q111 85 191.5 160.5t97.5 177.5q18 111 -33 174t-165 63q-115 0 -202.5 -77t-109.5 -213h-283q26 161 109.5 281.5t211.5 187.5t288 67q159 0 273 -57t167 -162t29 -248q-26 -154 -125 -270.5t-275 -250.5l-361 -277l-1 -2h635l-40 -247h-1068z
M256 524l35 212h890l-35 -212h-890z" />
    <glyph glyph-name="uni01BC" unicode="&#x1bc;" horiz-adv-x="1306" 
d="M616 -22q-159 0 -275.5 60t-174.5 168t-42 252h291q-12 -105 47.5 -173t170.5 -68q116 0 205 77.5t109 199.5q20 123 -33.5 202t-165.5 79q-99 0 -179 -41.5t-118 -115.5h-280l136 623h-144l42 249h1110l-41 -249h-683l-85 -352h2q67 59 141 88.5t166 29.5
q141 0 246 -62.5t154 -176t24 -266.5q-26 -153 -110 -271.5t-215 -185.5t-298 -67z" />
    <glyph glyph-name="uni01BD" unicode="&#x1bd;" horiz-adv-x="1271" 
d="M487 462l-263 13l112 375h-168l37 232h960l-37 -232h-520l-59 -187q37 19 99 34.5t132 16.5q188 2 277 -94t62 -269q-18 -105 -81 -188.5t-176 -131.5t-282 -49q-121 1 -226 36.5t-163 110t-38 192.5l294 14q-6 -57 40.5 -85.5t130.5 -27.5q95 -1 146.5 39.5t63.5 108.5
q11 66 -30.5 106t-129.5 41q-68 -1 -111.5 -16.5t-69.5 -38.5z" />
    <glyph glyph-name="glottalstopbarinv" unicode="&#x1be;" horiz-adv-x="1125" 
d="M707 301q8 50 -25.5 81t-82.5 62q-49 32 -98.5 74.5t-77 112.5t-8.5 186l9 52h-162l37 213h161l46 269h296l-45 -269h190l-36 -213h-189l-9 -54q-11 -67 7 -108.5t53 -69t75 -51.5q44 -26 83 -57t59 -81.5t6 -135.5q-16 -96 -86 -171t-182 -118t-253 -43q-156 0 -254 55
t-139.5 139t-27.5 171h282q-7 -59 18 -93t68.5 -48.5t91.5 -14.5q81 0 133 29.5t60 82.5z" />
    <glyph glyph-name="uni01BF" unicode="&#x1bf;" horiz-adv-x="1325" 
d="M516 1007q59 59 133 92t167 33q140 0 226 -69t117.5 -192.5t9.5 -287.5l-8 -52q-28 -197 -130.5 -330.5t-274 -222t-405.5 -150.5l-36 -244h-296l226 1534h277zM385 58q191 48 322 164t157 309l8 52q11 85 1 156t-50.5 113.5t-120.5 42.5q-73 0 -124 -27.5t-85 -78.5z
" />
    <glyph glyph-name="pipe" unicode="&#x1c0;" horiz-adv-x="560" 
d="M519 1466l-243 -1466h-179l243 1466h179z" />
    <glyph glyph-name="pipedbl" unicode="&#x1c1;" horiz-adv-x="753" 
d="M491 1466l-243 -1466h-179l243 1466h179zM760 1466l-243 -1466h-179l243 1466h179z" />
    <glyph glyph-name="pipedblbar" unicode="&#x1c2;" horiz-adv-x="505" 
d="M495 1466l-243 -1466h-179l243 1466h179zM-48 1021l31 184h760l-31 -184h-760zM-127 544l31 184h760l-31 -184h-760z" />
    <glyph glyph-name="exclam1" unicode="&#x1c3;" horiz-adv-x="505" 
d="M106 439l148 1051h315l-201 -1051h-262zM176 -18q-77 0 -122 55.5t-33 133.5q11 64 63 107.5t117 43.5q76 0 121.5 -56t32.5 -133q-11 -64 -62.5 -107.5t-116.5 -43.5z" />
    <glyph glyph-name="Dzcaron_" unicode="&#x1c5;" horiz-adv-x="2507" 
d="M604 0h-580l247 1490h515q225 0 377.5 -91t218 -258t27.5 -395q-38 -229 -141 -396.5t-269 -258.5t-395 -91zM375 259h202q226 0 355 126t168 361q38 235 -40.5 360t-300.5 125h-223zM1445 0l33 198l618 621l1 3h-516l39 234h871l-35 -209l-606 -611l-1 -3h513l-38 -233
h-879zM1999 1499l102 -167l161 167h233v-1l-298 -301h-237l-193 301v1h232z" />
    <glyph glyph-name="uni01C6" unicode="&#x1c6;" horiz-adv-x="2181" 
d="M439 -22q-183 0 -286.5 118t-103.5 316q0 124 37 243t106.5 214.5t169 152t225.5 56.5q222 0 298 -181h1l97 593h294l-246 -1490h-290l25 155h-1q-60 -95 -144 -136t-182 -41zM523 218q100 0 173 61t113 154t40 190q0 102 -51 159.5t-141 57.5q-101 0 -171 -63
t-106 -158.5t-36 -194.5q0 -100 47 -153t132 -53zM1119 0l33 198l618 621l1 3h-516l39 234h871l-35 -209l-606 -611l-1 -3h513l-38 -233h-879zM1672 1499l102 -167l161 167h233v-1l-298 -301h-237l-193 301v1h232z" />
    <glyph glyph-name="uni01C7" unicode="&#x1c7;" horiz-adv-x="2292" 
d="M24 0l247 1490h308l-204 -1226h677l-43 -264h-985zM1612 -22q-201 0 -318 96.5t-117 277.5q0 23 4.5 60.5t21.5 139.5h290q-15 -92 -18 -118t-3 -39q0 -77 41.5 -117.5t118.5 -40.5q90 0 152 54.5t79 157.5l173 1041h308l-174 -1045q-37 -225 -182 -346t-376 -121z" />
    <glyph glyph-name="uni01C8" unicode="&#x1c8;" horiz-adv-x="1645" 
d="M24 0l247 1490h308l-204 -1226h677l-43 -264h-985zM1333 1056h294l-190 -1145q-25 -155 -129 -242t-279 -87h-118l39 233h66q59 0 90 30t43 99zM1503 1198q-68 0 -108 46t-29 112q11 67 66 113t124 46t109 -46t29 -113q-11 -66 -66.5 -112t-124.5 -46z" />
    <glyph glyph-name="uni01C9" unicode="&#x1c9;" horiz-adv-x="1009" 
d="M559 1490l-247 -1490h-295l247 1490h295zM697 1056h294l-190 -1145q-25 -155 -129 -242t-279 -87h-118l39 233h66q59 0 90 30t43 99zM866 1198q-68 0 -108 46t-29 112q11 67 66 113t124 46t109 -46t29 -113q-11 -66 -66.5 -112t-124.5 -46z" />
    <glyph glyph-name="uni01CA" unicode="&#x1ca;" horiz-adv-x="2638" 
d="M24 0l247 1490h319l355 -762q19 -43 51 -121t63 -158q12 87 24.5 171.5t20.5 132.5l123 737h307l-247 -1490h-318l-322 690q-24 52 -64 145.5t-85 209.5q-15 -119 -29.5 -212t-22.5 -142l-114 -691h-308zM1958 -22q-201 0 -318 96.5t-117 277.5q0 23 4.5 60.5t21.5 139.5
h290q-15 -92 -18 -118t-3 -39q0 -77 41.5 -117.5t118.5 -40.5q90 0 152 54.5t79 157.5l173 1041h308l-174 -1045q-37 -225 -182 -346t-376 -121z" />
    <glyph glyph-name="uni01CB" unicode="&#x1cb;" horiz-adv-x="1991" 
d="M24 0l247 1490h319l355 -762q19 -43 51 -121t63 -158q12 87 24.5 171.5t20.5 132.5l123 737h307l-247 -1490h-318l-322 690q-24 52 -64 145.5t-85 209.5q-15 -119 -29.5 -212t-22.5 -142l-114 -691h-308zM1679 1056h294l-190 -1145q-25 -155 -129 -242t-279 -87h-118
l39 233h66q59 0 90 30t43 99zM1849 1198q-68 0 -108 46t-29 112q11 67 66 113t124 46t109 -46t29 -113q-11 -66 -66.5 -112t-124.5 -46z" />
    <glyph glyph-name="uni01CC" unicode="&#x1cc;" horiz-adv-x="1703" 
d="M407 577l-95 -577h-295l174 1056h290l-25 -153q66 86 151 130.5t192 44.5q174 0 261.5 -113.5t54.5 -312.5l-108 -652h-294l102 617q17 106 -24.5 156.5t-128.5 50.5q-97 0 -166 -62t-89 -185zM1392 1056h294l-190 -1145q-25 -155 -129 -242t-279 -87h-118l39 233h66
q59 0 90 30t43 99zM1561 1198q-68 0 -108 46t-29 112q11 67 66 113t124 46t109 -46t29 -113q-11 -66 -66.5 -112t-124.5 -46z" />
    <glyph glyph-name="uni01CD" unicode="&#x1cd;" horiz-adv-x="1461" 
d="M-78 0l770 1490h396l276 -1490h-330l-51 325h-556l-162 -325h-343zM550 571h394l-24 154q-16 114 -32 232t-32 257q-63 -139 -118.5 -257t-110.5 -232zM833 1933l102 -167l161 167h233v-1l-298 -301h-237l-193 301v1h232z" />
    <glyph glyph-name="uni01CE" unicode="&#x1ce;" horiz-adv-x="1220" 
d="M423 -22q-138 0 -229.5 69t-127.5 193t-9 289q27 162 105 286t192 193.5t249 69.5q102 0 176 -41.5t109 -123.5h4l24 143h287l-175 -1056h-287l26 158h-3q-61 -89 -149 -134.5t-192 -45.5zM539 218q111 0 193.5 84.5t105.5 226.5q24 141 -30.5 226t-165.5 85
q-108 0 -185.5 -81.5t-102.5 -229.5q-24 -148 26.5 -229.5t158.5 -81.5zM641 1499l102 -167l161 167h233v-1l-298 -301h-237l-193 301v1h232z" />
    <glyph glyph-name="uni01CF" unicode="&#x1cf;" horiz-adv-x="531" 
d="M579 1490l-247 -1490h-308l247 1490h308zM366 1933l102 -167l161 167h233v-1l-298 -301h-237l-193 301v1h232z" />
    <glyph glyph-name="uni01D0" unicode="&#x1d0;" horiz-adv-x="504" 
d="M17 0l175 1056h295l-175 -1056h-295zM281 1499l102 -167l161 167h233v-1l-298 -301h-237l-193 301v1h232z" />
    <glyph glyph-name="uni01D1" unicode="&#x1d1;" horiz-adv-x="1532" 
d="M690 -24q-179 0 -314.5 74.5t-211.5 213.5t-76 330q0 181 59 346.5t168 294.5t260.5 204t338.5 75q179 0 314.5 -74.5t211 -213t75.5 -331.5q0 -183 -59.5 -348.5t-169 -294t-261 -202.5t-335.5 -74zM704 248q121 0 215 56.5t158.5 150.5t98 208.5t33.5 229.5
q0 170 -84 259.5t-225 89.5q-120 0 -214 -56.5t-159 -150.5t-98.5 -208.5t-33.5 -230.5q0 -169 83.5 -258.5t225.5 -89.5zM866 1933l102 -167l161 167h233v-1l-298 -301h-237l-193 301v1h232z" />
    <glyph glyph-name="uni01D2" unicode="&#x1d2;" horiz-adv-x="1188" 
d="M519 -24q-217 0 -342.5 123.5t-125.5 329.5q0 134 44.5 251.5t127.5 207.5t196.5 141t250.5 51q217 0 342.5 -124t125.5 -331q0 -129 -43.5 -246t-124.5 -208t-195.5 -143t-255.5 -52zM536 215q101 0 169.5 63t103.5 158t35 192q0 102 -53 157.5t-138 55.5
q-99 0 -168 -62.5t-104.5 -158t-35.5 -194.5q0 -102 52.5 -156.5t138.5 -54.5zM623 1499l102 -167l161 167h233v-1l-298 -301h-237l-193 301v1h232z" />
    <glyph glyph-name="uni01D3" unicode="&#x1d3;" horiz-adv-x="1442" 
d="M645 -24q-189 0 -319 71t-188 195.5t-31 286.5l160 961h301l-158 -956q-22 -131 45 -211.5t203 -80.5q99 0 179.5 41.5t133 112t67.5 158.5l155 936h301l-163 -981q-27 -161 -120 -281t-238.5 -186t-327.5 -66zM821 1933l102 -167l161 167h233v-1l-298 -301h-237
l-193 301v1h232z" />
    <glyph glyph-name="uni01D4" unicode="&#x1d4;" horiz-adv-x="1199" 
d="M384 -22q-169 0 -252 108.5t-50 308.5l110 661h294l-101 -607q-17 -106 25 -161.5t134 -55.5q91 0 158.5 57t88.5 180l97 587h294l-175 -1056h-290l28 166q-69 -90 -158 -139t-203 -49zM628 1499l102 -167l161 167h233v-1l-298 -301h-237l-193 301v1h232z" />
    <glyph glyph-name="uni01D5" unicode="&#x1d5;" horiz-adv-x="1442" 
d="M645 -24q-189 0 -319 71t-188 195.5t-31 286.5l160 961h301l-158 -956q-22 -131 45 -211.5t203 -80.5q99 0 179.5 41.5t133 112t67.5 158.5l155 936h301l-163 -981q-27 -161 -120 -281t-238.5 -186t-327.5 -66zM1308 2187l-32 -171h-578l32 171h578zM663 1603
q-70 0 -108.5 44t-27.5 111q12 67 65 111.5t122 44.5q70 0 109 -44.5t28 -111.5t-64.5 -111t-123.5 -44zM1108 1603q-70 0 -108.5 44t-27.5 111q12 67 65 111.5t123 44.5q69 0 108 -44.5t28 -111.5t-64.5 -111t-123.5 -44z" />
    <glyph glyph-name="uni01D6" unicode="&#x1d6;" horiz-adv-x="1199" 
d="M384 -22q-169 0 -252 108.5t-50 308.5l110 661h294l-101 -607q-17 -106 25 -161.5t134 -55.5q91 0 158.5 57t88.5 180l97 587h294l-175 -1056h-290l28 166q-69 -90 -158 -139t-203 -49zM1115 1753l-32 -171h-578l32 171h578zM470 1169q-70 0 -108.5 44t-27.5 111
q12 67 65 111.5t122 44.5q70 0 109 -44.5t28 -111.5t-64.5 -111t-123.5 -44zM915 1169q-70 0 -108.5 44t-27.5 111q12 67 65 111.5t123 44.5q69 0 108 -44.5t28 -111.5t-64.5 -111t-123.5 -44z" />
    <glyph glyph-name="uni01D7" unicode="&#x1d7;" horiz-adv-x="1442" 
d="M645 -24q-189 0 -319 71t-188 195.5t-31 286.5l160 961h301l-158 -956q-22 -131 45 -211.5t203 -80.5q99 0 179.5 41.5t133 112t67.5 158.5l155 936h301l-163 -981q-27 -161 -120 -281t-238.5 -186t-327.5 -66zM663 1603q-70 0 -108.5 44t-27.5 111q12 67 65 111.5
t122 44.5q70 0 109 -44.5t28 -111.5t-64.5 -111t-123.5 -44zM1108 1603q-70 0 -108.5 44t-27.5 111q12 67 65 111.5t123 44.5q69 0 108 -44.5t28 -111.5t-64.5 -111t-123.5 -44zM862 1971l210 285h268l-284 -285h-194z" />
    <glyph glyph-name="uni01D8" unicode="&#x1d8;" horiz-adv-x="1199" 
d="M384 -22q-169 0 -252 108.5t-50 308.5l110 661h294l-101 -607q-17 -106 25 -161.5t134 -55.5q91 0 158.5 57t88.5 180l97 587h294l-175 -1056h-290l28 166q-69 -90 -158 -139t-203 -49zM470 1169q-70 0 -108.5 44t-27.5 111q12 67 65 111.5t122 44.5q70 0 109 -44.5
t28 -111.5t-64.5 -111t-123.5 -44zM915 1169q-70 0 -108.5 44t-27.5 111q12 67 65 111.5t123 44.5q69 0 108 -44.5t28 -111.5t-64.5 -111t-123.5 -44zM669 1537l210 285h268l-284 -285h-194z" />
    <glyph glyph-name="uni01D9" unicode="&#x1d9;" horiz-adv-x="1442" 
d="M645 -24q-189 0 -319 71t-188 195.5t-31 286.5l160 961h301l-158 -956q-22 -131 45 -211.5t203 -80.5q99 0 179.5 41.5t133 112t67.5 158.5l155 936h301l-163 -981q-27 -161 -120 -281t-238.5 -186t-327.5 -66zM882 2244l97 -159l153 159h217v-1l-281 -283h-220l-183 283
v1h217zM663 1603q-70 0 -108.5 44t-27.5 111q12 67 65 111.5t122 44.5q70 0 109 -44.5t28 -111.5t-64.5 -111t-123.5 -44zM1108 1603q-70 0 -108.5 44t-27.5 111q12 67 65 111.5t123 44.5q69 0 108 -44.5t28 -111.5t-64.5 -111t-123.5 -44z" />
    <glyph glyph-name="uni01DA" unicode="&#x1da;" horiz-adv-x="1199" 
d="M384 -22q-169 0 -252 108.5t-50 308.5l110 661h294l-101 -607q-17 -106 25 -161.5t134 -55.5q91 0 158.5 57t88.5 180l97 587h294l-175 -1056h-290l28 166q-69 -90 -158 -139t-203 -49zM689 1810l97 -159l153 159h217v-1l-281 -283h-220l-183 283v1h217zM470 1169
q-70 0 -108.5 44t-27.5 111q12 67 65 111.5t122 44.5q70 0 109 -44.5t28 -111.5t-64.5 -111t-123.5 -44zM915 1169q-70 0 -108.5 44t-27.5 111q12 67 65 111.5t123 44.5q69 0 108 -44.5t28 -111.5t-64.5 -111t-123.5 -44z" />
    <glyph glyph-name="uni01DB" unicode="&#x1db;" horiz-adv-x="1442" 
d="M645 -24q-189 0 -319 71t-188 195.5t-31 286.5l160 961h301l-158 -956q-22 -131 45 -211.5t203 -80.5q99 0 179.5 41.5t133 112t67.5 158.5l155 936h301l-163 -981q-27 -161 -120 -281t-238.5 -186t-327.5 -66zM1108 1603q-70 0 -108.5 44.5t-27.5 111.5q12 67 65 111
t123 44q69 0 108 -44t28 -111t-64.5 -111.5t-123.5 -44.5zM663 1603q-70 0 -108.5 44.5t-27.5 111.5q12 67 65 111t122 44q70 0 109 -44t28 -111t-64.5 -111.5t-123.5 -44.5zM862 1971l-190 285h268l116 -285h-194z" />
    <glyph glyph-name="uni01DC" unicode="&#x1dc;" horiz-adv-x="1199" 
d="M384 -22q-169 0 -252 108.5t-50 308.5l110 661h294l-101 -607q-17 -106 25 -161.5t134 -55.5q91 0 158.5 57t88.5 180l97 587h294l-175 -1056h-290l28 166q-69 -90 -158 -139t-203 -49zM915 1169q-70 0 -108.5 44.5t-27.5 111.5q12 67 65 111t123 44q69 0 108 -44
t28 -111t-64.5 -111.5t-123.5 -44.5zM470 1169q-70 0 -108.5 44.5t-27.5 111.5q12 67 65 111t122 44q70 0 109 -44t28 -111t-64.5 -111.5t-123.5 -44.5zM669 1537l-190 285h268l116 -285h-194z" />
    <glyph glyph-name="eturn" unicode="&#x1dd;" horiz-adv-x="1145" 
d="M627 1080q230 0 358.5 -125t104.5 -381q-15 -183 -99.5 -317.5t-220.5 -207.5t-306 -73q-118 0 -212 36t-148.5 108.5t-54.5 180.5q0 134 88.5 205t257.5 98.5t411 31.5q1 97 -38.5 160t-163.5 63q-97 0 -158 -39.5t-86 -102.5h-276q57 163 195 263t348 100zM785 444
q-188 -4 -287.5 -21t-136.5 -46.5t-37 -71.5q0 -49 43.5 -77.5t126.5 -28.5q136 0 201.5 71.5t89.5 173.5z" />
    <glyph glyph-name="uni01DE" unicode="&#x1de;" horiz-adv-x="1461" 
d="M-78 0l770 1490h396l276 -1490h-330l-51 325h-556l-162 -325h-343zM550 571h394l-24 154q-16 114 -32 232t-32 257q-63 -139 -118.5 -257t-110.5 -232zM1320 2187l-32 -171h-578l32 171h578zM675 1603q-70 0 -108.5 44t-27.5 111q12 67 65 111.5t122 44.5q70 0 109 -44.5
t28 -111.5t-64.5 -111t-123.5 -44zM1120 1603q-70 0 -108.5 44t-27.5 111q12 67 65 111.5t123 44.5q69 0 108 -44.5t28 -111.5t-64.5 -111t-123.5 -44z" />
    <glyph glyph-name="uni01DF" unicode="&#x1df;" horiz-adv-x="1220" 
d="M423 -22q-138 0 -229.5 69t-127.5 193t-9 289q27 162 105 286t192 193.5t249 69.5q102 0 176 -41.5t109 -123.5h4l24 143h287l-175 -1056h-287l26 158h-3q-61 -89 -149 -134.5t-192 -45.5zM539 218q111 0 193.5 84.5t105.5 226.5q24 141 -30.5 226t-165.5 85
q-108 0 -185.5 -81.5t-102.5 -229.5q-24 -148 26.5 -229.5t158.5 -81.5zM1128 1753l-32 -171h-578l32 171h578zM483 1169q-70 0 -108.5 44t-27.5 111q12 67 65 111.5t122 44.5q70 0 109 -44.5t28 -111.5t-64.5 -111t-123.5 -44zM928 1169q-70 0 -108.5 44t-27.5 111
q12 67 65 111.5t123 44.5q69 0 108 -44.5t28 -111.5t-64.5 -111t-123.5 -44z" />
    <glyph glyph-name="uni01E0" unicode="&#x1e0;" horiz-adv-x="1461" 
d="M-78 0l770 1490h396l276 -1490h-330l-51 325h-556l-162 -325h-343zM550 571h394l-24 154q-16 114 -32 232t-32 257q-63 -139 -118.5 -257t-110.5 -232zM1320 2187l-32 -171h-578l32 171h578zM911 1609q-69 0 -109 46t-29 112q11 67 66.5 113t123.5 46q69 0 109.5 -46
t28.5 -113q-11 -66 -66.5 -112t-123.5 -46z" />
    <glyph glyph-name="uni01E1" unicode="&#x1e1;" horiz-adv-x="1220" 
d="M423 -22q-138 0 -229.5 69t-127.5 193t-9 289q27 162 105 286t192 193.5t249 69.5q102 0 176 -41.5t109 -123.5h4l24 143h287l-175 -1056h-287l26 158h-3q-61 -89 -149 -134.5t-192 -45.5zM539 218q111 0 193.5 84.5t105.5 226.5q24 141 -30.5 226t-165.5 85
q-108 0 -185.5 -81.5t-102.5 -229.5q-24 -148 26.5 -229.5t158.5 -81.5zM1128 1753l-32 -171h-578l32 171h578zM719 1175q-69 0 -109 46t-29 112q11 67 66.5 113t123.5 46q69 0 109.5 -46t28.5 -113q-11 -66 -66.5 -112t-123.5 -46z" />
    <glyph glyph-name="uni01E2" unicode="&#x1e2;" horiz-adv-x="2016" 
d="M-78 0l871 1490h1319l-44 -259h-696l-59 -360h620l-40 -243h-621l-61 -369h699l-43 -259h-996l61 369h-480l-212 -369h-318zM588 606h383l103 625h-128zM1812 1861l-32 -190h-578l32 190h578z" />
    <glyph glyph-name="uni01E3" unicode="&#x1e3;" horiz-adv-x="1820" 
d="M370 -18q-186 0 -280.5 86.5t-69.5 234.5q24 147 142 227t311 82q37 0 72.5 -0.5t71.5 -1.5q30 -1 62 -1.5t66 -0.5l19 111q11 67 -30 103.5t-128 36.5q-84 0 -140.5 -36.5t-73.5 -101.5h-277q22 100 90.5 181t178.5 128.5t256 47.5q123 0 202.5 -34.5t118.5 -94.5
q159 131 388 131q120 0 215 -36t150 -106.5t55 -174.5q0 -122 -89.5 -192t-259 -101t-410.5 -37q-1 -15 -1 -27q0 -111 51.5 -160t148.5 -49q98 0 160.5 40.5t87.5 104.5h279q-58 -171 -196 -268.5t-344 -97.5q-130 0 -227.5 39.5t-155.5 119.5q-68 -73 -177 -113t-266 -40z
M1036 610q186 5 285 22.5t136 49t37 78.5q0 48 -42.5 72.5t-119.5 24.5q-244 0 -296 -247zM716 433h-25h-25q-39 1 -77.5 1h-75.5q-85 -1 -143.5 -29.5t-68.5 -91.5q-10 -62 26.5 -94t112.5 -32q109 0 182 58t87 144zM1322 1427l-32 -190h-578l32 190h578z" />
    <glyph glyph-name="Gbar" unicode="&#x1e4;" horiz-adv-x="1507" 
d="M696 -24q-187 0 -323.5 76.5t-210.5 215.5t-74 327q0 183 59.5 348.5t169.5 294t261.5 202.5t336.5 74q170 0 305 -64.5t210.5 -182t68.5 -276.5h-313q-2 114 -73 182.5t-202 68.5q-126 0 -222.5 -56.5t-162 -151t-98.5 -208t-33 -228.5q0 -165 83.5 -257.5t239.5 -92.5
q105 0 193 40t147 110t79 160h-326l39 234h627l-33 -200q-31 -185 -136 -323.5t-263.5 -215.5t-348.5 -77zM777 355l20 119h717l-20 -119h-717z" />
    <glyph glyph-name="gbar" unicode="&#x1e5;" horiz-adv-x="1222" 
d="M458 -432q-229 0 -340.5 94t-108.5 248h278q12 -125 175 -125q115 0 189.5 64t92.5 178l23 152h-1q-63 -93 -142.5 -136.5t-181.5 -43.5q-184 0 -287.5 119t-103.5 311q0 122 37.5 238t108 208.5t169 147.5t220.5 55q109 0 186.5 -46.5t114.5 -134.5h1l26 159h291
l-169 -1025q-28 -167 -108 -269t-200.5 -148t-269.5 -46zM525 235q100 0 172.5 59.5t112 150.5t39.5 187q0 99 -50.5 155.5t-140.5 56.5q-100 0 -170 -61t-106.5 -154t-36.5 -190q0 -100 47.5 -152t132.5 -52zM631 494l24 144h667l-24 -144h-667z" />
    <glyph glyph-name="Gcaron" unicode="&#x1e6;" horiz-adv-x="1507" 
d="M696 -24q-187 0 -323.5 76.5t-210.5 215.5t-74 327q0 183 59.5 348.5t169.5 294t261.5 202.5t336.5 74q170 0 305 -64.5t210.5 -182t68.5 -276.5h-313q-2 114 -73 182.5t-202 68.5q-126 0 -222.5 -56.5t-162 -151t-98.5 -208t-33 -228.5q0 -165 83.5 -257.5t239.5 -92.5
q105 0 193 40t147 110t79 160h-326l39 234h627l-33 -200q-31 -185 -136 -323.5t-263.5 -215.5t-348.5 -77zM862 1933l102 -167l161 167h233v-1l-298 -301h-237l-193 301v1h232z" />
    <glyph glyph-name="gcaron" unicode="&#x1e7;" horiz-adv-x="1222" 
d="M458 -432q-229 0 -340.5 94t-108.5 248h278q12 -125 175 -125q115 0 189.5 64t92.5 178l23 152h-1q-63 -93 -142.5 -136.5t-181.5 -43.5q-184 0 -287.5 119t-103.5 311q0 122 37.5 238t108 208.5t169 147.5t220.5 55q109 0 186.5 -46.5t114.5 -134.5h1l26 159h291
l-169 -1025q-28 -167 -108 -269t-200.5 -148t-269.5 -46zM525 235q100 0 172.5 59.5t112 150.5t39.5 187q0 99 -50.5 155.5t-140.5 56.5q-100 0 -170 -61t-106.5 -154t-36.5 -190q0 -100 47.5 -152t132.5 -52zM616 1499l102 -167l161 167h233v-1l-298 -301h-237l-193 301v1
h232z" />
    <glyph glyph-name="uni01E8" unicode="&#x1e8;" horiz-adv-x="1404" 
d="M24 0l247 1490h308l-68 -412l-46 -270q63 63 126 125.5t127 126.5l439 430h380l-665 -644l433 -846h-336l-322 651l-247 -241l-68 -410h-308zM803 1933l102 -167l161 167h233v-1l-298 -301h-237l-193 301v1h232z" />
    <glyph glyph-name="uni01E9" unicode="&#x1e9;" horiz-adv-x="1127" 
d="M17 0l247 1490h295l-139 -838h3l437 404h346l-489 -458l336 -598h-345l-240 429l-101 -94l-55 -335h-295zM353 1933l102 -167l161 167h233v-1l-298 -301h-237l-193 301v1h232z" />
    <glyph glyph-name="uni01EA" unicode="&#x1ea;" horiz-adv-x="1532" 
d="M690 -24q-179 0 -314.5 74.5t-211.5 213.5t-76 330q0 181 59 346.5t168 294.5t260.5 204t338.5 75q179 0 314.5 -74.5t211 -213t75.5 -331.5q0 -183 -59.5 -348.5t-169 -294t-261 -202.5t-335.5 -74zM704 248q121 0 215 56.5t158.5 150.5t98 208.5t33.5 229.5
q0 170 -84 259.5t-225 89.5q-120 0 -214 -56.5t-159 -150.5t-98.5 -208.5t-33.5 -230.5q0 -169 83.5 -258.5t225.5 -89.5zM680 -418q-130 0 -195 52.5t-48 150.5q13 80 68 134.5t137 98t178 89t193 106t182 149t144 218.5t78 315h98q-12 -221 -71 -373.5t-145 -253
t-180.5 -164t-179 -106t-141 -79t-64.5 -84.5q-10 -64 72 -64h58l-31 -189h-153z" />
    <glyph glyph-name="uni01EB" unicode="&#x1eb;" horiz-adv-x="1188" 
d="M519 -24q-217 0 -342.5 123.5t-125.5 329.5q0 134 44.5 251.5t127.5 207.5t196.5 141t250.5 51q217 0 342.5 -124t125.5 -331q0 -129 -43.5 -246t-124.5 -208t-195.5 -143t-255.5 -52zM536 215q101 0 169.5 63t103.5 158t35 192q0 102 -53 157.5t-138 55.5
q-99 0 -168 -62.5t-104.5 -158t-35.5 -194.5q0 -102 52.5 -156.5t138.5 -54.5zM505 -419q-137 0 -200.5 52t-47.5 149q14 84 71 140t139.5 97.5t174 82t176 94t145.5 132.5t81 199h85q-21 -131 -70 -221t-112 -151t-129.5 -102.5t-125.5 -73.5t-98 -65.5t-47 -79.5
q-5 -32 12.5 -48t66.5 -16h48l-31 -189h-138z" />
    <glyph glyph-name="uni01EC" unicode="&#x1ec;" horiz-adv-x="1532" 
d="M690 -24q-179 0 -314.5 74.5t-211.5 213.5t-76 330q0 181 59 346.5t168 294.5t260.5 204t338.5 75q179 0 314.5 -74.5t211 -213t75.5 -331.5q0 -183 -59.5 -348.5t-169 -294t-261 -202.5t-335.5 -74zM704 248q121 0 215 56.5t158.5 150.5t98 208.5t33.5 229.5
q0 170 -84 259.5t-225 89.5q-120 0 -214 -56.5t-159 -150.5t-98.5 -208.5t-33.5 -230.5q0 -169 83.5 -258.5t225.5 -89.5zM680 -418q-130 0 -195 52.5t-48 150.5q13 80 68 134.5t137 98t178 89t193 106t182 149t144 218.5t78 315h98q-12 -221 -71 -373.5t-145 -253
t-180.5 -164t-179 -106t-141 -79t-64.5 -84.5q-10 -64 72 -64h58l-31 -189h-153zM1275 1861l-32 -190h-578l32 190h578z" />
    <glyph glyph-name="uni01ED" unicode="&#x1ed;" horiz-adv-x="1188" 
d="M519 -24q-217 0 -342.5 123.5t-125.5 329.5q0 134 44.5 251.5t127.5 207.5t196.5 141t250.5 51q217 0 342.5 -124t125.5 -331q0 -129 -43.5 -246t-124.5 -208t-195.5 -143t-255.5 -52zM536 215q101 0 169.5 63t103.5 158t35 192q0 102 -53 157.5t-138 55.5
q-99 0 -168 -62.5t-104.5 -158t-35.5 -194.5q0 -102 52.5 -156.5t138.5 -54.5zM505 -419q-137 0 -200.5 52t-47.5 149q14 84 71 140t139.5 97.5t174 82t176 94t145.5 132.5t81 199h85q-21 -131 -70 -221t-112 -151t-129.5 -102.5t-125.5 -73.5t-98 -65.5t-47 -79.5
q-5 -32 12.5 -48t66.5 -16h48l-31 -189h-138zM1032 1427l-32 -190h-578l32 190h578z" />
    <glyph glyph-name="uni01EE" unicode="&#x1ee;" horiz-adv-x="1351" 
d="M-26 103h304q-14 -129 62.5 -209t204.5 -80q100 0 180 50t133 136.5t71 196.5q30 186 -56.5 293.5t-249.5 107.5h-156l37 220l491 405v12h-752l44 255h1129l-36 -218l-566 -465l-3 -14q155 -12 261 -90t151 -206.5t18 -293.5q-31 -187 -135.5 -332.5t-260.5 -228.5
t-341 -83q-174 0 -300.5 69.5t-188.5 192.5t-41 282zM804 2119l102 -167l161 167h233v-1l-298 -301h-237l-193 301v1h232z" />
    <glyph glyph-name="uni01EF" unicode="&#x1ef;" horiz-adv-x="1257" 
d="M502 -458q-181 0 -303 70t-175.5 187.5t-30.5 258.5h293q-20 -125 41 -200.5t183 -75.5q119 0 202.5 70t102.5 185q18 111 -43 175.5t-200 64.5h-219l31 187l416 342v1h-614l42 249h980l-40 -239l-461 -373q219 -6 326 -122t78 -294q-24 -142 -104.5 -252t-209 -172
t-295.5 -62zM655 1499l102 -167l161 167h233v-1l-298 -301h-237l-193 301v1h232z" />
    <glyph glyph-name="uni01F0" unicode="&#x1f0;" horiz-adv-x="505" 
d="M193 1056h294l-190 -1145q-25 -155 -129 -242t-279 -87h-118l39 233h66q59 0 90 30t43 99zM281 1499l102 -167l161 167h233v-1l-298 -301h-237l-193 301v1h232z" />
    <glyph glyph-name="uni01F1" unicode="&#x1f1;" horiz-adv-x="2747" 
d="M604 0h-580l247 1490h515q225 0 377.5 -91t218 -258t27.5 -395q-38 -229 -141 -396.5t-269 -258.5t-395 -91zM375 259h202q226 0 355 126t168 361q38 235 -40.5 360t-300.5 125h-223zM1441 0l30 181l921 1059h-749l42 250h1129l-30 -182l-922 -1058h749l-41 -250h-1129z
" />
    <glyph glyph-name="uni01F2" unicode="&#x1f2;" horiz-adv-x="2507" 
d="M604 0h-580l247 1490h515q225 0 377.5 -91t218 -258t27.5 -395q-38 -229 -141 -396.5t-269 -258.5t-395 -91zM375 259h202q226 0 355 126t168 361q38 235 -40.5 360t-300.5 125h-223zM1445 0l33 198l618 621l1 3h-516l39 234h871l-35 -209l-606 -611l-1 -3h513l-38 -233
h-879z" />
    <glyph glyph-name="uni01F3" unicode="&#x1f3;" horiz-adv-x="2181" 
d="M439 -22q-183 0 -286.5 118t-103.5 316q0 124 37 243t106.5 214.5t169 152t225.5 56.5q222 0 298 -181h1l97 593h294l-246 -1490h-290l25 155h-1q-60 -95 -144 -136t-182 -41zM523 218q100 0 173 61t113 154t40 190q0 102 -51 159.5t-141 57.5q-101 0 -171 -63
t-106 -158.5t-36 -194.5q0 -100 47 -153t132 -53zM1119 0l33 198l618 621l1 3h-516l39 234h871l-35 -209l-606 -611l-1 -3h513l-38 -233h-879z" />
    <glyph glyph-name="uni01F4" unicode="&#x1f4;" horiz-adv-x="1507" 
d="M696 -24q-187 0 -323.5 76.5t-210.5 215.5t-74 327q0 183 59.5 348.5t169.5 294t261.5 202.5t336.5 74q170 0 305 -64.5t210.5 -182t68.5 -276.5h-313q-2 114 -73 182.5t-202 68.5q-126 0 -222.5 -56.5t-162 -151t-98.5 -208t-33 -228.5q0 -165 83.5 -257.5t239.5 -92.5
q105 0 193 40t147 110t79 160h-326l39 234h627l-33 -200q-31 -185 -136 -323.5t-263.5 -215.5t-348.5 -77zM825 1643l223 302h288l-304 -302h-207z" />
    <glyph glyph-name="uni01F5" unicode="&#x1f5;" horiz-adv-x="1222" 
d="M458 -432q-229 0 -340.5 94t-108.5 248h278q12 -125 175 -125q115 0 189.5 64t92.5 178l23 152h-1q-63 -93 -142.5 -136.5t-181.5 -43.5q-184 0 -287.5 119t-103.5 311q0 122 37.5 238t108 208.5t169 147.5t220.5 55q109 0 186.5 -46.5t114.5 -134.5h1l26 159h291
l-169 -1025q-28 -167 -108 -269t-200.5 -148t-269.5 -46zM525 235q100 0 172.5 59.5t112 150.5t39.5 187q0 99 -50.5 155.5t-140.5 56.5q-100 0 -170 -61t-106.5 -154t-36.5 -190q0 -100 47.5 -152t132.5 -52zM579 1209l223 302h288l-304 -302h-207z" />
    <glyph glyph-name="uni01F6" unicode="&#x1f6;" horiz-adv-x="2175" 
d="M1489 -22q-157 0 -266 58.5t-159 161.5t-27 237l32 193h-633l-104 -628h-308l246 1490h308l-99 -598h633l99 598h307l-174 -1057q-35 -210 155 -210q105 0 176.5 63t88.5 166l99 604h295l-106 -641q-22 -134 -99.5 -232t-197 -151.5t-266.5 -53.5z" />
    <glyph glyph-name="uni01F7" unicode="&#x1f7;" horiz-adv-x="1460" 
d="M596 1488l-5 -34q55 26 123.5 40t150.5 14q182 0 310 -76t182 -221t15 -352l-12 -58q-39 -213 -172.5 -397.5t-350.5 -326.5t-508 -226l-43 -269h-306l311 1906h305zM371 106q280 99 456 276t221 419l12 62q20 109 9 199.5t-67.5 145.5t-173.5 55q-167 0 -285 -105z" />
    <glyph glyph-name="uni01F8" unicode="&#x1f8;" horiz-adv-x="1486" 
d="M24 0l247 1490h319l355 -762q19 -43 51 -121t63 -158q12 87 24.5 171.5t20.5 132.5l123 737h307l-247 -1490h-318l-322 690q-24 52 -64 145.5t-85 209.5q-15 -119 -29.5 -212t-22.5 -142l-114 -691h-308zM834 1620l-202 313h288l122 -313h-208z" />
    <glyph glyph-name="uni01F9" unicode="&#x1f9;" horiz-adv-x="1199" 
d="M407 577l-95 -577h-295l174 1056h290l-25 -153q66 86 151 130.5t192 44.5q174 0 261.5 -113.5t54.5 -312.5l-108 -652h-294l102 617q17 106 -24.5 156.5t-128.5 50.5q-97 0 -166 -62t-89 -185zM616 1186l-202 313h288l122 -313h-208z" />
    <glyph glyph-name="Aringacute" unicode="&#x1fa;" horiz-adv-x="1461" 
d="M-78 0l770 1490h396l276 -1490h-330l-51 325h-556l-162 -325h-343zM550 571h394l-24 154q-16 114 -32 232t-32 257q-63 -139 -118.5 -257t-110.5 -232zM923 1574q-116 0 -180.5 71t-46.5 177q16 91 93.5 151.5t179.5 60.5q116 0 180.5 -71t46.5 -177q-16 -91 -94 -151.5
t-179 -60.5zM891 2093l181 207h250l-239 -207h-192zM929 1704q44 0 78 29t42 71q7 43 -18 71.5t-68 28.5q-44 0 -78 -28.5t-41 -71.5q-8 -42 16.5 -71t68.5 -29z" />
    <glyph glyph-name="aringacute" unicode="&#x1fb;" horiz-adv-x="1220" 
d="M423 -22q-138 0 -229.5 69t-127.5 193t-9 289q27 162 105 286t192 193.5t249 69.5q102 0 176 -41.5t109 -123.5h4l24 143h287l-175 -1056h-287l26 158h-3q-61 -89 -149 -134.5t-192 -45.5zM539 218q111 0 193.5 84.5t105.5 226.5q24 141 -30.5 226t-165.5 85
q-108 0 -185.5 -81.5t-102.5 -229.5q-24 -148 26.5 -229.5t158.5 -81.5zM730 1140q-116 0 -180.5 71t-46.5 177q16 91 93.5 151.5t179.5 60.5q116 0 180.5 -71t46.5 -177q-16 -91 -94 -151.5t-179 -60.5zM698 1659l181 207h250l-239 -207h-192zM736 1270q44 0 78 29t42 71
q7 43 -18 71.5t-68 28.5q-44 0 -78 -28.5t-41 -71.5q-8 -42 16.5 -71t68.5 -29z" />
    <glyph glyph-name="AEacute" unicode="&#x1fc;" horiz-adv-x="2016" 
d="M-78 0l871 1490h1319l-44 -259h-696l-59 -360h620l-40 -243h-621l-61 -369h699l-43 -259h-996l61 369h-480l-212 -369h-318zM588 606h383l103 625h-128zM1366 1643l223 302h288l-304 -302h-207z" />
    <glyph glyph-name="aeacute" unicode="&#x1fd;" horiz-adv-x="1820" 
d="M370 -18q-186 0 -280.5 86.5t-69.5 234.5q24 147 142 227t311 82q37 0 72.5 -0.5t71.5 -1.5q30 -1 62 -1.5t66 -0.5l19 111q11 67 -30 103.5t-128 36.5q-84 0 -140.5 -36.5t-73.5 -101.5h-277q22 100 90.5 181t178.5 128.5t256 47.5q123 0 202.5 -34.5t118.5 -94.5
q159 131 388 131q120 0 215 -36t150 -106.5t55 -174.5q0 -122 -89.5 -192t-259 -101t-410.5 -37q-1 -15 -1 -27q0 -111 51.5 -160t148.5 -49q98 0 160.5 40.5t87.5 104.5h279q-58 -171 -196 -268.5t-344 -97.5q-130 0 -227.5 39.5t-155.5 119.5q-68 -73 -177 -113t-266 -40z
M1036 610q186 5 285 22.5t136 49t37 78.5q0 48 -42.5 72.5t-119.5 24.5q-244 0 -296 -247zM716 433h-25h-25q-39 1 -77.5 1h-75.5q-85 -1 -143.5 -29.5t-68.5 -91.5q-10 -62 26.5 -94t112.5 -32q109 0 182 58t87 144zM875 1209l223 302h288l-304 -302h-207z" />
    <glyph glyph-name="Oslashacute" unicode="&#x1fe;" horiz-adv-x="1532" 
d="M690 -24q-179 0 -314.5 74.5t-211.5 213.5t-76 330q0 181 59 346.5t168 294.5t260.5 204t338.5 75q179 0 314.5 -74.5t211 -213t75.5 -331.5q0 -183 -59.5 -348.5t-169 -294t-261 -202.5t-335.5 -74zM704 248q121 0 215 56.5t158.5 150.5t98 208.5t33.5 229.5
q0 170 -84 259.5t-225 89.5q-120 0 -214 -56.5t-159 -150.5t-98.5 -208.5t-33.5 -230.5q0 -169 83.5 -258.5t225.5 -89.5zM110 -73l-146 146l1531 1490l145 -146zM829 1643l223 302h288l-304 -302h-207z" />
    <glyph glyph-name="oslashacute" unicode="&#x1ff;" horiz-adv-x="1188" 
d="M519 -24q-217 0 -342.5 123.5t-125.5 329.5q0 134 44.5 251.5t127.5 207.5t196.5 141t250.5 51q217 0 342.5 -124t125.5 -331q0 -129 -43.5 -246t-124.5 -208t-195.5 -143t-255.5 -52zM536 215q101 0 169.5 63t103.5 158t35 192q0 102 -53 157.5t-138 55.5
q-99 0 -168 -62.5t-104.5 -158t-35.5 -194.5q0 -102 52.5 -156.5t138.5 -54.5zM63 -49l-90 98l1151 1056l90 -98zM585 1209l223 302h288l-304 -302h-207z" />
    <glyph glyph-name="uni0200" unicode="&#x200;" horiz-adv-x="1461" 
d="M-78 0l770 1490h396l276 -1490h-330l-51 325h-556l-162 -325h-343zM550 571h394l-24 154q-16 114 -32 232t-32 257q-63 -139 -118.5 -257t-110.5 -232zM656 1620l-213 313h284l143 -313h-214zM1003 1620l-140 313h265l82 -313h-207z" />
    <glyph glyph-name="uni0201" unicode="&#x201;" horiz-adv-x="1220" 
d="M423 -22q-138 0 -229.5 69t-127.5 193t-9 289q27 162 105 286t192 193.5t249 69.5q102 0 176 -41.5t109 -123.5h4l24 143h287l-175 -1056h-287l26 158h-3q-61 -89 -149 -134.5t-192 -45.5zM539 218q111 0 193.5 84.5t105.5 226.5q24 141 -30.5 226t-165.5 85
q-108 0 -185.5 -81.5t-102.5 -229.5q-24 -148 26.5 -229.5t158.5 -81.5zM464 1186l-213 313h284l143 -313h-214zM811 1186l-140 313h265l82 -313h-207z" />
    <glyph glyph-name="uni0202" unicode="&#x202;" horiz-adv-x="1461" 
d="M-78 0l770 1490h396l276 -1490h-330l-51 325h-556l-162 -325h-343zM550 571h394l-24 154q-16 114 -32 232t-32 257q-63 -139 -118.5 -257t-110.5 -232zM965 1937q100 0 170.5 -41t103.5 -110t19 -155h-179q10 64 -29 104.5t-111 40.5q-73 0 -126 -40.5t-63 -104.5h-178
q14 86 70 155t140 110t183 41z" />
    <glyph glyph-name="uni0203" unicode="&#x203;" horiz-adv-x="1220" 
d="M423 -22q-138 0 -229.5 69t-127.5 193t-9 289q27 162 105 286t192 193.5t249 69.5q102 0 176 -41.5t109 -123.5h4l24 143h287l-175 -1056h-287l26 158h-3q-61 -89 -149 -134.5t-192 -45.5zM539 218q111 0 193.5 84.5t105.5 226.5q24 141 -30.5 226t-165.5 85
q-108 0 -185.5 -81.5t-102.5 -229.5q-24 -148 26.5 -229.5t158.5 -81.5zM773 1503q100 0 170.5 -41t103.5 -110t19 -155h-179q10 64 -29 104.5t-111 40.5q-73 0 -126 -40.5t-63 -104.5h-178q14 86 70 155t140 110t183 41z" />
    <glyph glyph-name="uni0204" unicode="&#x204;" horiz-adv-x="1240" 
d="M24 0l247 1490h1069l-44 -264h-762l-56 -345h704l-43 -257h-704l-60 -360h761l-43 -264h-1069zM569 1620l-213 313h284l143 -313h-214zM916 1620l-140 313h265l82 -313h-207z" />
    <glyph glyph-name="uni0205" unicode="&#x205;" horiz-adv-x="1145" 
d="M518 -24q-230 0 -359 125t-104 381q15 183 99.5 317.5t220.5 207.5t306 73q118 0 212 -36t148.5 -108.5t54.5 -180.5q0 -134 -88.5 -205t-258 -98.5t-410.5 -31.5q-2 -97 38 -160t164 -63q97 0 158 39.5t86 102.5h276q-57 -163 -195 -263t-348 -100zM360 612
q187 4 287 21t137 46.5t37 71.5q0 49 -43.5 77.5t-126.5 28.5q-137 0 -202 -71.5t-89 -173.5zM448 1186l-213 313h284l143 -313h-214zM795 1186l-140 313h265l82 -313h-207z" />
    <glyph glyph-name="uni0206" unicode="&#x206;" horiz-adv-x="1240" 
d="M24 0l247 1490h1069l-44 -264h-762l-56 -345h704l-43 -257h-704l-60 -360h761l-43 -264h-1069zM879 1937q100 0 170.5 -41t103.5 -110t19 -155h-179q10 64 -29 104.5t-111 40.5q-73 0 -126 -40.5t-63 -104.5h-178q14 86 70 155t140 110t183 41z" />
    <glyph glyph-name="uni0207" unicode="&#x207;" horiz-adv-x="1145" 
d="M518 -24q-230 0 -359 125t-104 381q15 183 99.5 317.5t220.5 207.5t306 73q118 0 212 -36t148.5 -108.5t54.5 -180.5q0 -134 -88.5 -205t-258 -98.5t-410.5 -31.5q-2 -97 38 -160t164 -63q97 0 158 39.5t86 102.5h276q-57 -163 -195 -263t-348 -100zM360 612
q187 4 287 21t137 46.5t37 71.5q0 49 -43.5 77.5t-126.5 28.5q-137 0 -202 -71.5t-89 -173.5zM757 1503q100 0 170.5 -41t103.5 -110t19 -155h-179q10 64 -29 104.5t-111 40.5q-73 0 -126 -40.5t-63 -104.5h-178q14 86 70 155t140 110t183 41z" />
    <glyph glyph-name="uni0208" unicode="&#x208;" horiz-adv-x="531" 
d="M579 1490l-247 -1490h-308l247 1490h308zM189 1620l-213 313h284l143 -313h-214zM536 1620l-140 313h265l82 -313h-207z" />
    <glyph glyph-name="uni0209" unicode="&#x209;" horiz-adv-x="504" 
d="M17 0l175 1056h295l-175 -1056h-295zM103 1186l-213 313h284l143 -313h-214zM450 1186l-140 313h265l82 -313h-207z" />
    <glyph glyph-name="uni020A" unicode="&#x20a;" horiz-adv-x="531" 
d="M579 1490l-247 -1490h-308l247 1490h308zM498 1937q100 0 170.5 -41t103.5 -110t19 -155h-179q10 64 -29 104.5t-111 40.5q-73 0 -126 -40.5t-63 -104.5h-178q14 86 70 155t140 110t183 41z" />
    <glyph glyph-name="uni020B" unicode="&#x20b;" horiz-adv-x="504" 
d="M17 0l175 1056h295l-175 -1056h-295zM413 1503q100 0 170.5 -41t103.5 -110t19 -155h-179q10 64 -29 104.5t-111 40.5q-73 0 -126 -40.5t-63 -104.5h-178q14 86 70 155t140 110t183 41z" />
    <glyph glyph-name="uni020C" unicode="&#x20c;" horiz-adv-x="1532" 
d="M690 -24q-179 0 -314.5 74.5t-211.5 213.5t-76 330q0 181 59 346.5t168 294.5t260.5 204t338.5 75q179 0 314.5 -74.5t211 -213t75.5 -331.5q0 -183 -59.5 -348.5t-169 -294t-261 -202.5t-335.5 -74zM704 248q121 0 215 56.5t158.5 150.5t98 208.5t33.5 229.5
q0 170 -84 259.5t-225 89.5q-120 0 -214 -56.5t-159 -150.5t-98.5 -208.5t-33.5 -230.5q0 -169 83.5 -258.5t225.5 -89.5zM689 1620l-213 313h284l143 -313h-214zM1036 1620l-140 313h265l82 -313h-207z" />
    <glyph glyph-name="uni020D" unicode="&#x20d;" horiz-adv-x="1188" 
d="M519 -24q-217 0 -342.5 123.5t-125.5 329.5q0 134 44.5 251.5t127.5 207.5t196.5 141t250.5 51q217 0 342.5 -124t125.5 -331q0 -129 -43.5 -246t-124.5 -208t-195.5 -143t-255.5 -52zM536 215q101 0 169.5 63t103.5 158t35 192q0 102 -53 157.5t-138 55.5
q-99 0 -168 -62.5t-104.5 -158t-35.5 -194.5q0 -102 52.5 -156.5t138.5 -54.5zM445 1186l-213 313h284l143 -313h-214zM792 1186l-140 313h265l82 -313h-207z" />
    <glyph glyph-name="uni020E" unicode="&#x20e;" horiz-adv-x="1532" 
d="M690 -24q-179 0 -314.5 74.5t-211.5 213.5t-76 330q0 181 59 346.5t168 294.5t260.5 204t338.5 75q179 0 314.5 -74.5t211 -213t75.5 -331.5q0 -183 -59.5 -348.5t-169 -294t-261 -202.5t-335.5 -74zM704 248q121 0 215 56.5t158.5 150.5t98 208.5t33.5 229.5
q0 170 -84 259.5t-225 89.5q-120 0 -214 -56.5t-159 -150.5t-98.5 -208.5t-33.5 -230.5q0 -169 83.5 -258.5t225.5 -89.5zM998 1937q100 0 170.5 -41t103.5 -110t19 -155h-179q10 64 -29 104.5t-111 40.5q-73 0 -126 -40.5t-63 -104.5h-178q14 86 70 155t140 110t183 41z
" />
    <glyph glyph-name="uni020F" unicode="&#x20f;" horiz-adv-x="1188" 
d="M519 -24q-217 0 -342.5 123.5t-125.5 329.5q0 134 44.5 251.5t127.5 207.5t196.5 141t250.5 51q217 0 342.5 -124t125.5 -331q0 -129 -43.5 -246t-124.5 -208t-195.5 -143t-255.5 -52zM536 215q101 0 169.5 63t103.5 158t35 192q0 102 -53 157.5t-138 55.5
q-99 0 -168 -62.5t-104.5 -158t-35.5 -194.5q0 -102 52.5 -156.5t138.5 -54.5zM755 1503q100 0 170.5 -41t103.5 -110t19 -155h-179q10 64 -29 104.5t-111 40.5q-73 0 -126 -40.5t-63 -104.5h-178q14 86 70 155t140 110t183 41z" />
    <glyph glyph-name="uni0210" unicode="&#x210;" horiz-adv-x="1332" 
d="M24 0l247 1490h593q167 0 280.5 -59.5t163 -169.5t24.5 -260q-25 -148 -113.5 -256.5t-223.5 -165.5l203 -579h-316l-178 521h-16h-270l-86 -521h-308zM459 768h270q121 0 202.5 65t99.5 172q17 107 -43.5 168t-182.5 61h-269zM579 1620l-213 313h284l143 -313h-214z
M926 1620l-140 313h265l82 -313h-207z" />
    <glyph glyph-name="uni0211" unicode="&#x211;" horiz-adv-x="764" 
d="M17 0l175 1056h284l-30 -180h3q45 95 114.5 141t174.5 46q26 0 47.5 -1t38.5 -1l-41 -251q-16 1 -52.5 3t-73.5 2q-91 0 -161 -62t-89 -181l-95 -572h-295zM272 1186l-213 313h284l143 -313h-214zM619 1186l-140 313h265l82 -313h-207z" />
    <glyph glyph-name="uni0212" unicode="&#x212;" horiz-adv-x="1332" 
d="M24 0l247 1490h593q167 0 280.5 -59.5t163 -169.5t24.5 -260q-25 -148 -113.5 -256.5t-223.5 -165.5l203 -579h-316l-178 521h-16h-270l-86 -521h-308zM459 768h270q121 0 202.5 65t99.5 172q17 107 -43.5 168t-182.5 61h-269zM888 1937q100 0 170.5 -41t103.5 -110
t19 -155h-179q10 64 -29 104.5t-111 40.5q-73 0 -126 -40.5t-63 -104.5h-178q14 86 70 155t140 110t183 41z" />
    <glyph glyph-name="uni0213" unicode="&#x213;" horiz-adv-x="764" 
d="M17 0l175 1056h284l-30 -180h3q45 95 114.5 141t174.5 46q26 0 47.5 -1t38.5 -1l-41 -251q-16 1 -52.5 3t-73.5 2q-91 0 -161 -62t-89 -181l-95 -572h-295zM582 1503q100 0 170.5 -41t103.5 -110t19 -155h-179q10 64 -29 104.5t-111 40.5q-73 0 -126 -40.5t-63 -104.5
h-178q14 86 70 155t140 110t183 41z" />
    <glyph glyph-name="uni0214" unicode="&#x214;" horiz-adv-x="1442" 
d="M645 -24q-189 0 -319 71t-188 195.5t-31 286.5l160 961h301l-158 -956q-22 -131 45 -211.5t203 -80.5q99 0 179.5 41.5t133 112t67.5 158.5l155 936h301l-163 -981q-27 -161 -120 -281t-238.5 -186t-327.5 -66zM644 1620l-213 313h284l143 -313h-214zM991 1620l-140 313
h265l82 -313h-207z" />
    <glyph glyph-name="uni0215" unicode="&#x215;" horiz-adv-x="1199" 
d="M384 -22q-169 0 -252 108.5t-50 308.5l110 661h294l-101 -607q-17 -106 25 -161.5t134 -55.5q91 0 158.5 57t88.5 180l97 587h294l-175 -1056h-290l28 166q-69 -90 -158 -139t-203 -49zM451 1186l-213 313h284l143 -313h-214zM798 1186l-140 313h265l82 -313h-207z" />
    <glyph glyph-name="uni0216" unicode="&#x216;" horiz-adv-x="1442" 
d="M645 -24q-189 0 -319 71t-188 195.5t-31 286.5l160 961h301l-158 -956q-22 -131 45 -211.5t203 -80.5q99 0 179.5 41.5t133 112t67.5 158.5l155 936h301l-163 -981q-27 -161 -120 -281t-238.5 -186t-327.5 -66zM953 1937q100 0 170.5 -41t103.5 -110t19 -155h-179
q10 64 -29 104.5t-111 40.5q-73 0 -126 -40.5t-63 -104.5h-178q14 86 70 155t140 110t183 41z" />
    <glyph glyph-name="uni0217" unicode="&#x217;" horiz-adv-x="1199" 
d="M384 -22q-169 0 -252 108.5t-50 308.5l110 661h294l-101 -607q-17 -106 25 -161.5t134 -55.5q91 0 158.5 57t88.5 180l97 587h294l-175 -1056h-290l28 166q-69 -90 -158 -139t-203 -49zM760 1503q100 0 170.5 -41t103.5 -110t19 -155h-179q10 64 -29 104.5t-111 40.5
q-73 0 -126 -40.5t-63 -104.5h-178q14 86 70 155t140 110t183 41z" />
    <glyph glyph-name="uni0218" unicode="&#x218;" horiz-adv-x="1337" 
d="M599 -24q-292 0 -433 136.5t-101 376.5h295q-17 -123 52 -191.5t211 -68.5q130 0 218.5 53.5t102.5 142.5q12 70 -39.5 115t-188.5 76l-151 35q-430 96 -374 429q22 131 106.5 228.5t217 151.5t297.5 54q260 0 396 -128t105 -353h-287q9 108 -52.5 168t-181.5 60
q-115 0 -198 -53.5t-97 -136.5q-11 -67 38 -108.5t181 -71.5l138 -31q231 -51 327 -157.5t67 -281.5q-34 -209 -206.5 -327t-442.5 -118zM281 -479l149 361h276l-217 -361h-208z" />
    <glyph glyph-name="uni0219" unicode="&#x219;" horiz-adv-x="1065" 
d="M464 -26q-130 0 -229.5 39t-156.5 113.5t-57 180.5v12t1 13h289q-8 -147 162 -147q83 0 143.5 36.5t60.5 96.5q0 62 -110 85l-179 35q-277 56 -277 270q0 111 65 194.5t176 129.5t251 46q190 0 304 -81.5t114 -222.5q0 -25 -4 -53h-273q8 69 -33 108.5t-115 39.5
q-82 0 -135.5 -39.5t-53.5 -94.5q0 -63 102 -85l194 -39q276 -56 276 -253q0 -114 -68.5 -200.5t-185.5 -135t-261 -48.5zM144 -479l149 361h276l-217 -361h-208z" />
    <glyph glyph-name="uni021A.1" unicode="&#x21a;" horiz-adv-x="1302" 
d="M160 1226l45 264h1211l-44 -264h-452l-202 -1226h-308l203 1226h-453zM260 -479l149 361h276l-217 -361h-208z" />
    <glyph glyph-name="uni021B" unicode="&#x21b;" horiz-adv-x="756" 
d="M798 1056l-38 -231h-216l-82 -499q-9 -54 9.5 -74.5t77.5 -20.5h113l-38 -231h-171q-175 0 -246 68t-47 212l90 545h-183l38 231h183l48 288h294l-48 -288h216zM51 -479l149 361h276l-217 -361h-208z" />
    <glyph glyph-name="uni021C" unicode="&#x21c;" horiz-adv-x="1318" 
d="M174 321l38 227q261 74 420.5 142t238.5 149t98 194q38 231 -208 231q-110 0 -178.5 -46t-80.5 -122h-306q20 124 104 217t213.5 145t288.5 52q164 0 280 -48.5t168.5 -146t28.5 -243.5q-36 -221 -229 -385q80 -49 115.5 -135.5t14.5 -208.5q-36 -221 -189.5 -379.5
t-396 -258t-545.5 -141.5l40 243q338 63 544 193t243 354q24 147 -43 190q-252 -131 -659 -223z" />
    <glyph glyph-name="uni021D" unicode="&#x21d;" horiz-adv-x="1126" 
d="M153 161l36 212q270 78 401.5 169.5t152.5 216.5q25 151 -132 151q-76 0 -123 -37.5t-58 -102.5h-295q27 168 160 265t350 97q212 0 318.5 -90.5t78.5 -258.5q-28 -172 -186 -310q142 -86 108 -285q-78 -470 -909 -624l36 218q198 60 320 121.5t182.5 134t76.5 166.5
q14 83 -13 137q-202 -107 -504 -180z" />
    <glyph glyph-name="uni021E" unicode="&#x21e;" horiz-adv-x="1472" 
d="M24 0l247 1490h308l-100 -598h633l100 598h307l-247 -1490h-307l104 628h-633l-104 -628h-308zM836 1933l102 -167l161 167h233v-1l-298 -301h-237l-193 301v1h232z" />
    <glyph glyph-name="uni021F" unicode="&#x21f;" horiz-adv-x="1199" 
d="M409 587l-97 -587h-295l247 1490h295l-98 -590q65 85 148.5 131.5t193.5 46.5q169 0 258 -108.5t56 -308.5l-110 -661h-294l101 607q17 106 -24.5 161.5t-134.5 55.5q-91 0 -158.5 -57t-87.5 -180zM353 1933l102 -167l161 167h233v-1l-298 -301h-237l-193 301v1h232z" />
    <glyph glyph-name="uni0220" unicode="&#x220;" horiz-adv-x="1321" 
d="M1050 -416h-298l242 1472q17 104 -32 160.5t-179 57.5q-134 -1 -269 -77l-199 -1197h-295l248 1490h295l-9 -53q68 33 145 53t162 20q137 0 243.5 -53t159 -154.5t27.5 -246.5z" />
    <glyph glyph-name="uni0221" unicode="&#x221;" horiz-adv-x="1543" 
d="M1066 -418q-133 0 -211.5 41t-110.5 114l-200 -145l-111 172l301 216l28 170q-60 -92 -143 -132t-180 -40q-183 0 -286.5 118t-103.5 316q0 124 37 243t106.5 214.5t169 152t225.5 56.5q222 0 298 -181h1l97 593h294l-210 -1274v0l-14 -87q50 9 97 9q168 0 254 -83.5
t65 -212.5q-21 -123 -125.5 -191.5t-277.5 -68.5zM523 218q100 0 173 61t113 154t40 190q0 102 -51 159.5t-141 57.5q-101 0 -171 -63t-106 -158.5t-36 -194.5q0 -100 47 -153t132 -53zM1018 -84l-7 -37q-9 -55 18.5 -83.5t73.5 -28.5q42 0 72.5 23t36.5 61q7 37 -14.5 61
t-68.5 27q-51 5 -111 -23z" />
    <glyph glyph-name="uni0222" unicode="&#x222;" horiz-adv-x="1319" 
d="M708 951h31q116 0 192 31t93 138q10 67 -15 103t-87 51l39 236q197 -2 300.5 -102t72.5 -288q-18 -108 -76.5 -183.5t-148.5 -121.5q72 -59 102.5 -147t11.5 -205q-26 -154 -116.5 -262t-227.5 -164.5t-304 -56.5h-21q-168 0 -287 56.5t-174 163.5t-30 260q19 118 79 207
t152 147q-74 47 -107 122t-15 184q31 189 167 288.5t334 101.5l-39 -236q-68 -15 -104.5 -50.5t-47.5 -103.5q-12 -72 13.5 -108.5t80.5 -48.5t132 -12zM695 702h-22q-118 0 -199 -62t-101 -180q-20 -116 41.5 -176t178.5 -60h22q117 0 197.5 59.5t99.5 179.5
q18 117 -41 178t-176 61z" />
    <glyph glyph-name="uni0223" unicode="&#x223;" horiz-adv-x="1318" 
d="M734 930q123 0 201.5 46t97.5 163q14 83 -16 127.5t-87 64.5l37 225q187 -2 290.5 -105.5t69.5 -306.5q-20 -122 -80 -204.5t-149 -131.5q73 -55 104.5 -142t10.5 -209q-25 -157 -115.5 -263t-226 -160t-297.5 -54h-22q-162 0 -280.5 54t-173.5 160t-29 262
q20 122 81 209.5t151 142.5q-73 49 -106 131.5t-14 204.5q35 201 172.5 305.5t326.5 106.5l-39 -225q-61 -20 -104.5 -64.5t-56.5 -127.5q-20 -118 43 -163.5t182 -45.5h29zM693 695h-21q-125 -1 -206.5 -64.5t-100.5 -174.5q-18 -112 42 -175.5t184 -63.5h22
q126 0 206 63.5t98 176.5q18 111 -40 174t-184 64z" />
    <glyph glyph-name="uni0224" unicode="&#x224;" horiz-adv-x="1310" 
d="M540 -418l41 245h119q98 0 113 90l14 83h-822l30 181l921 1059h-749l42 250h1129l-30 -182l-922 -1058h749l-41 -250l-16 -99q-53 -319 -410 -319h-168z" />
    <glyph glyph-name="uni0225" unicode="&#x225;" horiz-adv-x="1071" 
d="M731 -208l9 58q11 68 -8 109t-88 41h-635l33 198l626 621l1 3h-524l39 234h871l-35 -209l-614 -611l-1 -3h304q164 0 236.5 -99t43.5 -272l-11 -70h-247z" />
    <glyph glyph-name="uni0226" unicode="&#x226;" horiz-adv-x="1461" 
d="M-78 0l770 1490h396l276 -1490h-330l-51 325h-556l-162 -325h-343zM550 571h394l-24 154q-16 114 -32 232t-32 257q-63 -139 -118.5 -257t-110.5 -232zM914 1632q-68 0 -108 46t-29 112q11 67 66 113t124 46t109 -46t29 -113q-11 -66 -66.5 -112t-124.5 -46z" />
    <glyph glyph-name="uni0227" unicode="&#x227;" horiz-adv-x="1220" 
d="M423 -22q-138 0 -229.5 69t-127.5 193t-9 289q27 162 105 286t192 193.5t249 69.5q102 0 176 -41.5t109 -123.5h4l24 143h287l-175 -1056h-287l26 158h-3q-61 -89 -149 -134.5t-192 -45.5zM539 218q111 0 193.5 84.5t105.5 226.5q24 141 -30.5 226t-165.5 85
q-108 0 -185.5 -81.5t-102.5 -229.5q-24 -148 26.5 -229.5t158.5 -81.5zM722 1198q-68 0 -108 46t-29 112q11 67 66 113t124 46t109 -46t29 -113q-11 -66 -66.5 -112t-124.5 -46z" />
    <glyph glyph-name="uni0228" unicode="&#x228;" horiz-adv-x="1240" 
d="M24 0l247 1490h1069l-44 -264h-762l-56 -345h704l-43 -257h-704l-60 -360h761l-43 -264h-1069zM365 -418l20 123h118q89 0 99 59t-79 59h-82l73 221h117l-8 -44l-13 -80q90 -1 131.5 -47t29.5 -118q-14 -86 -84.5 -129.5t-182.5 -43.5h-139z" />
    <glyph glyph-name="uni0229" unicode="&#x229;" horiz-adv-x="1145" 
d="M518 -24q-230 0 -359 125t-104 381q15 183 99.5 317.5t220.5 207.5t306 73q118 0 212 -36t148.5 -108.5t54.5 -180.5q0 -134 -88.5 -205t-258 -98.5t-410.5 -31.5q-2 -97 38 -160t164 -63q97 0 158 39.5t86 102.5h276q-57 -163 -195 -263t-348 -100zM360 612
q187 4 287 21t137 46.5t37 71.5q0 49 -43.5 77.5t-126.5 28.5q-137 0 -202 -71.5t-89 -173.5zM321 -418l20 123h118q89 0 99 59t-79 59h-82l73 221h117l-8 -44l-13 -80q90 -1 131.5 -47t29.5 -118q-14 -86 -84.5 -129.5t-182.5 -43.5h-139z" />
    <glyph glyph-name="uni022A" unicode="&#x22a;" horiz-adv-x="1532" 
d="M690 -24q-179 0 -314.5 74.5t-211.5 213.5t-76 330q0 181 59 346.5t168 294.5t260.5 204t338.5 75q179 0 314.5 -74.5t211 -213t75.5 -331.5q0 -183 -59.5 -348.5t-169 -294t-261 -202.5t-335.5 -74zM704 248q121 0 215 56.5t158.5 150.5t98 208.5t33.5 229.5
q0 170 -84 259.5t-225 89.5q-120 0 -214 -56.5t-159 -150.5t-98.5 -208.5t-33.5 -230.5q0 -169 83.5 -258.5t225.5 -89.5zM1353 2187l-32 -171h-578l32 171h578zM708 1603q-70 0 -108.5 44t-27.5 111q12 67 65 111.5t122 44.5q70 0 109 -44.5t28 -111.5t-64.5 -111
t-123.5 -44zM1153 1603q-70 0 -108.5 44t-27.5 111q12 67 65 111.5t123 44.5q69 0 108 -44.5t28 -111.5t-64.5 -111t-123.5 -44z" />
    <glyph glyph-name="uni022B" unicode="&#x22b;" horiz-adv-x="1188" 
d="M519 -24q-217 0 -342.5 123.5t-125.5 329.5q0 134 44.5 251.5t127.5 207.5t196.5 141t250.5 51q217 0 342.5 -124t125.5 -331q0 -129 -43.5 -246t-124.5 -208t-195.5 -143t-255.5 -52zM536 215q101 0 169.5 63t103.5 158t35 192q0 102 -53 157.5t-138 55.5
q-99 0 -168 -62.5t-104.5 -158t-35.5 -194.5q0 -102 52.5 -156.5t138.5 -54.5zM1110 1753l-32 -171h-578l32 171h578zM465 1169q-70 0 -108.5 44t-27.5 111q12 67 65 111.5t122 44.5q70 0 109 -44.5t28 -111.5t-64.5 -111t-123.5 -44zM910 1169q-70 0 -108.5 44t-27.5 111
q12 67 65 111.5t123 44.5q69 0 108 -44.5t28 -111.5t-64.5 -111t-123.5 -44z" />
    <glyph glyph-name="uni022C" unicode="&#x22c;" horiz-adv-x="1532" 
d="M690 -24q-179 0 -314.5 74.5t-211.5 213.5t-76 330q0 181 59 346.5t168 294.5t260.5 204t338.5 75q179 0 314.5 -74.5t211 -213t75.5 -331.5q0 -183 -59.5 -348.5t-169 -294t-261 -202.5t-335.5 -74zM704 248q121 0 215 56.5t158.5 150.5t98 208.5t33.5 229.5
q0 170 -84 259.5t-225 89.5q-120 0 -214 -56.5t-159 -150.5t-98.5 -208.5t-33.5 -230.5q0 -169 83.5 -258.5t225.5 -89.5zM1088 1630q-63 0 -104.5 25.5t-72.5 51t-63 25.5q-31 0 -51.5 -27t-29.5 -69h-163q23 125 90.5 193.5t159.5 68.5q64 0 104.5 -25t71 -50.5
t64.5 -25.5t52.5 24t30.5 72h160q-23 -126 -92 -194.5t-157 -68.5zM1354 2187l-32 -171h-578l32 171h578z" />
    <glyph glyph-name="uni022D" unicode="&#x22d;" horiz-adv-x="1188" 
d="M519 -24q-217 0 -342.5 123.5t-125.5 329.5q0 134 44.5 251.5t127.5 207.5t196.5 141t250.5 51q217 0 342.5 -124t125.5 -331q0 -129 -43.5 -246t-124.5 -208t-195.5 -143t-255.5 -52zM536 215q101 0 169.5 63t103.5 158t35 192q0 102 -53 157.5t-138 55.5
q-99 0 -168 -62.5t-104.5 -158t-35.5 -194.5q0 -102 52.5 -156.5t138.5 -54.5zM845 1196q-63 0 -104.5 25.5t-72.5 51t-63 25.5q-31 0 -51.5 -27t-29.5 -69h-163q23 125 90.5 193.5t159.5 68.5q64 0 104.5 -25t71 -50.5t64.5 -25.5t52.5 24t30.5 72h160q-23 -126 -92 -194.5
t-157 -68.5zM1111 1753l-32 -171h-578l32 171h578z" />
    <glyph glyph-name="uni022E" unicode="&#x22e;" horiz-adv-x="1532" 
d="M690 -24q-179 0 -314.5 74.5t-211.5 213.5t-76 330q0 181 59 346.5t168 294.5t260.5 204t338.5 75q179 0 314.5 -74.5t211 -213t75.5 -331.5q0 -183 -59.5 -348.5t-169 -294t-261 -202.5t-335.5 -74zM704 248q121 0 215 56.5t158.5 150.5t98 208.5t33.5 229.5
q0 170 -84 259.5t-225 89.5q-120 0 -214 -56.5t-159 -150.5t-98.5 -208.5t-33.5 -230.5q0 -169 83.5 -258.5t225.5 -89.5zM947 1632q-68 0 -108 46t-29 112q11 67 66 113t124 46t109 -46t29 -113q-11 -66 -66.5 -112t-124.5 -46z" />
    <glyph glyph-name="uni022F" unicode="&#x22f;" horiz-adv-x="1188" 
d="M519 -24q-217 0 -342.5 123.5t-125.5 329.5q0 134 44.5 251.5t127.5 207.5t196.5 141t250.5 51q217 0 342.5 -124t125.5 -331q0 -129 -43.5 -246t-124.5 -208t-195.5 -143t-255.5 -52zM536 215q101 0 169.5 63t103.5 158t35 192q0 102 -53 157.5t-138 55.5
q-99 0 -168 -62.5t-104.5 -158t-35.5 -194.5q0 -102 52.5 -156.5t138.5 -54.5zM704 1198q-68 0 -108 46t-29 112q11 67 66 113t124 46t109 -46t29 -113q-11 -66 -66.5 -112t-124.5 -46z" />
    <glyph glyph-name="uni0230" unicode="&#x230;" horiz-adv-x="1532" 
d="M690 -24q-179 0 -314.5 74.5t-211.5 213.5t-76 330q0 181 59 346.5t168 294.5t260.5 204t338.5 75q179 0 314.5 -74.5t211 -213t75.5 -331.5q0 -183 -59.5 -348.5t-169 -294t-261 -202.5t-335.5 -74zM704 248q121 0 215 56.5t158.5 150.5t98 208.5t33.5 229.5
q0 170 -84 259.5t-225 89.5q-120 0 -214 -56.5t-159 -150.5t-98.5 -208.5t-33.5 -230.5q0 -169 83.5 -258.5t225.5 -89.5zM1353 2187l-32 -171h-578l32 171h578zM944 1609q-69 0 -109 46t-29 112q11 67 66.5 113t123.5 46q69 0 109.5 -46t28.5 -113q-11 -66 -66.5 -112
t-123.5 -46z" />
    <glyph glyph-name="uni0231" unicode="&#x231;" horiz-adv-x="1188" 
d="M519 -24q-217 0 -342.5 123.5t-125.5 329.5q0 134 44.5 251.5t127.5 207.5t196.5 141t250.5 51q217 0 342.5 -124t125.5 -331q0 -129 -43.5 -246t-124.5 -208t-195.5 -143t-255.5 -52zM536 215q101 0 169.5 63t103.5 158t35 192q0 102 -53 157.5t-138 55.5
q-99 0 -168 -62.5t-104.5 -158t-35.5 -194.5q0 -102 52.5 -156.5t138.5 -54.5zM1110 1753l-32 -171h-578l32 171h578zM701 1175q-69 0 -109 46t-29 112q11 67 66.5 113t123.5 46q69 0 109.5 -46t28.5 -113q-11 -66 -66.5 -112t-123.5 -46z" />
    <glyph glyph-name="uni0232" unicode="&#x232;" horiz-adv-x="1413" 
d="M473 0l92 557l-397 933h338l179 -447q18 -45 35 -90t33 -90q30 45 61 90t64 90l320 447h365l-698 -933l-92 -557h-300zM1216 1861l-32 -190h-578l32 190h578z" />
    <glyph glyph-name="uni0233" unicode="&#x233;" horiz-adv-x="1134" 
d="M-27 -418l39 233h134q52 0 81.5 26t61.5 86l42 77l-232 1052h297l90 -522q9 -56 17 -113l16 -114q53 115 109 227l264 522h318l-667 -1219q-139 -255 -375 -255h-195zM984 1427l-32 -190h-578l32 190h578z" />
    <glyph glyph-name="uni0234" unicode="&#x234;" horiz-adv-x="824" 
d="M346 -418q-133 0 -211.5 41t-110.5 114l-199 -145l-112 172l301 216l3 20v0l13 75l23 141v0l211 1274h295l-226 -1361q50 9 97 9q168 0 254 -83.5t65 -212.5q-20 -123 -125 -191.5t-278 -68.5zM298 -84l-6 -37q-10 -55 17.5 -83.5t73.5 -28.5q42 0 72.5 23t37.5 61
q6 37 -15.5 61t-68.5 27q-51 5 -111 -23z" />
    <glyph glyph-name="uni0235" unicode="&#x235;" horiz-adv-x="1519" 
d="M1042 -418q-133 0 -211.5 41t-110.5 114l-200 -145l-111 172l301 216l3 20v0l102 617q17 106 -24.5 156.5t-128.5 50.5q-97 0 -166 -62t-89 -185l-95 -577h-295l174 1056h290l-25 -153q66 86 151 130.5t192 44.5q174 0 261.5 -113.5t54.5 -312.5l-72 -436v0l-14 -87
q50 9 97 9q168 0 254 -83.5t65 -212.5q-21 -123 -125.5 -191.5t-277.5 -68.5zM994 -84l-7 -37q-9 -55 18.5 -83.5t73.5 -28.5q41 0 72 23t37 61q7 37 -14.5 61t-68.5 27q-51 5 -111 -23z" />
    <glyph glyph-name="uni0236" unicode="&#x236;" horiz-adv-x="964" 
d="M483 -19q-133 0 -211.5 41t-110.5 114l-199 -145l-112 172l301 216l4 20v0l70 426h-158l38 231h158l48 288h294l-48 -288h217l-39 -231h-216l-35 -210v0l-14 -87q50 9 97 9q169 0 255 -83.5t64 -212.5q-20 -123 -125 -191.5t-278 -68.5zM435 315l-6 -37q-9 -55 18 -83.5
t73 -28.5q42 0 72.5 23t37.5 61q6 37 -15.5 61t-68.5 27q-51 4 -111 -23z" />
    <glyph glyph-name="uni0237" unicode="&#x237;" horiz-adv-x="505" 
d="M193 1056h294l-190 -1145q-25 -155 -129 -242t-279 -87h-118l39 233h66q59 0 90 30t43 99z" />
    <glyph glyph-name="uni0238" unicode="&#x238;" horiz-adv-x="1893" 
d="M1800 564l-3 -20q-27 -165 -100.5 -292.5t-182 -199.5t-242.5 -72q-87 0 -149.5 31t-103.5 87l-16 -98h-268l5 116q-62 -64 -139.5 -100t-172.5 -36q-132 0 -216 72t-115.5 199.5t-3.5 292.5l3 20q24 172 97.5 299.5t183.5 198t243 70.5q88 0 151 -31t103 -88l80 477h297
l-80 -475q60 56 133.5 86.5t161.5 30.5q198 0 284.5 -155t49.5 -413zM1501 544l3 20q24 146 -8.5 238.5t-151.5 92.5q-68 0 -121 -31.5t-91 -88.5l-72 -431q18 -60 60.5 -93t113.5 -33q84 0 138 43.5t85 117.5t44 165zM392 564l-2 -20q-13 -91 -7.5 -165t43.5 -117.5
t122 -43.5q70 0 123.5 32t91.5 89l71 431q-18 59 -60.5 92t-111.5 33q-120 0 -183 -92.5t-87 -238.5z" />
    <glyph glyph-name="uni0239" unicode="&#x239;" horiz-adv-x="1893" 
d="M638 -416l86 515q-60 -56 -133.5 -87.5t-161.5 -31.5q-132 0 -216.5 72t-116 199.5t-3.5 292.5l4 20q30 171 102.5 298.5t180 198.5t240.5 71q95 0 160.5 -36t106.5 -101l39 123h240l-7 -116q62 62 138 96t169 34q132 0 216.5 -71t115.5 -198.5t2 -298.5l-3 -21
q-27 -166 -100.5 -293t-182 -198.5t-241.5 -71.5q-87 0 -150 31t-104 87l-84 -514h-297zM393 564l-3 -20q-16 -91 -10.5 -165t45 -117.5t123.5 -43.5q72 0 125.5 34t91.5 95l71 428q-20 57 -63 88.5t-111 31.5q-120 0 -183 -92.5t-86 -238.5zM1501 544l3 20
q24 146 -8.5 238.5t-151.5 92.5q-70 0 -123 -34t-91 -94l-71 -429q19 -57 62.5 -88.5t112.5 -31.5q84 0 137 43.5t83.5 117.5t46.5 165z" />
    <glyph glyph-name="uni023A" unicode="&#x23a;" horiz-adv-x="1461" 
d="M1303 1678l-181 -368l242 -1310h-330l-51 325h-346l-253 -515h-119l253 515h-91l-162 -325h-343l770 1490h396l1 -5l95 193h119zM640 571l236 480q-11 82 -20 163q-63 -139 -118.5 -257t-110.5 -232l-77 -154h90zM901 862l-143 -291h186l-24 154q-5 34 -9.5 68t-9.5 69z
" />
    <glyph glyph-name="uni023B" unicode="&#x23b;" horiz-adv-x="1495" 
d="M231 -190l124 253q-125 75 -196 210.5t-71 319.5q0 183 58.5 348.5t168 294.5t262.5 203.5t342 74.5q75 0 144 -13l86 177h189l-113 -230q131 -65 204.5 -189t70.5 -294h-310q-6 146 -95 219l-458 -930q36 -6 77 -6q138 0 245 72t157 203h311q-52 -166 -159 -289
t-254 -190.5t-318 -67.5q-98 0 -185 22l-92 -188h-188zM487 329l448 913h-25q-126 0 -222 -56.5t-161.5 -150.5t-98.5 -208.5t-33 -230.5q0 -176 92 -267z" />
    <glyph glyph-name="uni023C" unicode="&#x23c;" horiz-adv-x="1136" 
d="M37 -418l220 455q-99 56 -153 156.5t-54 233.5q0 127 43 244.5t123.5 209.5t193.5 145.5t254 53.5q48 0 93 -7l202 417h174l-224 -465q100 -52 154.5 -146t42.5 -218h-285q1 75 -30 121l-274 -568h7q93 0 159 52t93 131h287q-27 -124 -105 -219t-193 -148.5t-253 -53.5
q-55 0 -105 9l-195 -403h-175zM378 287l267 554q-96 -5 -163 -68.5t-102 -157.5t-35 -192q0 -84 33 -136z" />
    <glyph glyph-name="uni023D" unicode="&#x23d;" horiz-adv-x="1238" 
d="M122 0l247 1490h308l-204 -1226h677l-43 -264h-985zM39 639l35 212h890l-35 -212h-890z" />
    <glyph glyph-name="uni023E" unicode="&#x23e;" horiz-adv-x="1302" 
d="M165 -190l322 654l126 762h-453l45 264h787l92 188h188l-92 -188h236l-44 -264h-322l-195 -396l-137 -830h-272l-93 -190h-188z" />
    <glyph glyph-name="uni023F" unicode="&#x23f;" horiz-adv-x="1099" 
d="M464 -26q-48 0 -93 6q34 -81 60 -122.5t51 -56.5t55 -15q60 0 109.5 26t86.5 53l64 -157q-55 -42 -133 -84.5t-170 -41.5q-88 0 -146 38.5t-97 101.5t-68 134l-119 292q-43 70 -43 159v12t1 13h289q-8 -147 162 -147q83 0 143.5 36.5t60.5 96.5q0 62 -110 85l-179 35
q-277 56 -277 270q0 111 65 194.5t176 129.5t251 46q190 0 304 -81.5t114 -222.5q0 -25 -4 -53h-273q8 69 -33 108.5t-115 39.5q-82 0 -135.5 -39.5t-53.5 -94.5q0 -63 102 -85l194 -39q276 -56 276 -253q0 -114 -68.5 -200.5t-185.5 -135t-261 -48.5z" />
    <glyph glyph-name="uni0240" unicode="&#x240;" horiz-adv-x="1071" 
d="M9 0l33 198l626 621l1 3h-524l39 234h871l-35 -209l-614 -611l-1 -3h111q83 0 136 -19t88 -65.5t64 -129.5q36 -111 70 -157.5t90 -46.5q59 0 136 39l68 -206q-60 -32 -120.5 -49.5t-122.5 -17.5q-128 0 -213 77.5t-131 244.5q-30 63 -54.5 80t-85.5 17h-432z" />
    <glyph glyph-name="uni0241" unicode="&#x241;" horiz-adv-x="1123" 
d="M433 507h102q85 0 137 39.5t80.5 106.5t42.5 150l26 156q11 65 6.5 134.5t-42 117t-128.5 47.5q-93 0 -149.5 -53.5t-71.5 -133.5h-291q22 132 100.5 230.5t195 153.5t252.5 55q171 0 277 -73.5t146.5 -198.5t14.5 -279l-26 -156q-32 -186 -146 -329t-296 -193l-47 -281
h-308l85 507h40z" />
    <glyph glyph-name="uni0242" unicode="&#x242;" horiz-adv-x="1126" 
d="M128 690q33 205 172.5 323.5t344.5 118.5q209 0 320 -112.5t77 -313.5q-24 -150 -115 -249.5t-248 -125.5l-55 -331h-297l81 486h112q100 0 154.5 54.5t71.5 157.5q15 91 -14 144.5t-113 53.5q-161 0 -195 -206h-296z" />
    <glyph glyph-name="uni0243" unicode="&#x243;" horiz-adv-x="1320" 
d="M24 0l246 1490h589q241 0 356.5 -111.5t86.5 -290.5q-20 -122 -108 -200.5t-215 -109.5v-1q133 -16 212.5 -113t51.5 -263q-29 -180 -177.5 -290.5t-403.5 -110.5h-638zM365 242h285q118 0 194 52.5t92 147.5q15 91 -40 144t-171 53h-294zM469 871h271q101 0 169 52.5
t83 140.5q14 85 -35 134.5t-150 49.5h-275zM-66 369l24 144h667l-24 -144h-667z" />
    <glyph glyph-name="uni0244" unicode="&#x244;" horiz-adv-x="1506" 
d="M1591 848l-28 -174h-171l-27 -165q-27 -161 -120.5 -281t-238.5 -186t-327 -66q-190 0 -320 71t-187.5 195.5t-30.5 286.5l24 145h-173l28 174h174l106 642h301l-106 -642h625l106 642h301l-106 -642h170zM1091 674h-625l-23 -140q-21 -131 45.5 -211.5t202.5 -80.5
q99 0 180 41.5t133.5 112t66.5 158.5z" />
    <glyph glyph-name="uni0245" unicode="&#x245;" horiz-adv-x="1507" 
d="M1000 0l-155 1123l-525 -1123h-339l766 1490h317l277 -1490h-341z" />
    <glyph glyph-name="uni0246" unicode="&#x246;" horiz-adv-x="1240" 
d="M180 -190l86 190h-242l247 1490h673l85 188h164l-85 -188h232l-44 -264h-308l-156 -345h350l-43 -257h-424l-163 -360h584l-43 -264h-661l-86 -190h-166zM667 881l157 345h-290l-56 -345h189zM386 264l164 360h-115l-60 -360h11z" />
    <glyph glyph-name="uni0247" unicode="&#x247;" horiz-adv-x="1145" 
d="M32 -418l229 446q-111 55 -167 168t-39 286q15 183 99.5 317.5t220.5 207.5t306 73q61 0 116 -10l216 420h128l-233 -452q86 -38 137 -108.5t51 -174.5q0 -162 -129.5 -232.5t-370.5 -90.5l-118 -229q28 -6 63 -6q97 0 158 39.5t86 102.5h276q-57 -163 -195 -263
t-348 -100q-80 0 -149 15l-210 -409h-127zM567 623l120 232q-17 2 -36 2q-137 0 -202 -71.5t-89 -173.5q122 3 207 11zM379 257l86 167q-58 -3 -126 -4q-1 -50 7.5 -91.5t32.5 -71.5zM794 816l-88 -170q66 17 90.5 43.5t24.5 61.5q0 39 -27 65z" />
    <glyph glyph-name="uni0248" unicode="&#x248;" horiz-adv-x="1238" 
d="M472 -22q-201 0 -318 96.5t-117 277.5q0 23 4.5 60.5t21.5 139.5h290q-15 -92 -18 -118t-3 -39q0 -77 41.5 -117.5t118.5 -40.5q90 0 152 54.5t79 157.5l173 1041h308l-174 -1045q-37 -225 -182 -346t-376 -121zM603 812l24 144h667l-24 -144h-667z" />
    <glyph glyph-name="uni0249" unicode="&#x249;" horiz-adv-x="504" 
d="M194 1056h294l-190 -1145q-25 -155 -129 -242t-279 -87h-118l39 233h66q59 0 90 30t43 99zM-119 577l31 184h760l-31 -184h-760zM363 1198q-68 0 -108 46t-29 112q11 67 66 113t124 46t109 -46t29 -113q-11 -66 -66.5 -112t-124.5 -46z" />
    <glyph glyph-name="Q_rthook" unicode="&#x24a;" horiz-adv-x="1541" 
d="M1589 1490l-247 -1490l-14 -87q-8 -48 11 -70.5t71 -22.5h120l-40 -238h-162q-349 0 -296 319l16 99l36 218h-2q-78 -114 -202 -177t-270 -63q-186 0 -313.5 98.5t-181 271.5t-16.5 396q28 167 98.5 307.5t173 243.5t228.5 160t265 57q143 0 247 -62.5t146 -174.5h2
l36 215h294zM706 246q177 0 302 134t163 364q39 234 -41 367t-258 133q-117 0 -213.5 -61t-162 -173t-90.5 -266q-38 -230 43 -364t257 -134z" />
    <glyph glyph-name="qrthook" unicode="&#x24b;" horiz-adv-x="1220" 
d="M1013 -418q-177 0 -248 80.5t-45 238.5l42 255q-60 -88 -148 -133t-191 -45q-138 0 -229.5 69t-127.5 193t-9 289q27 162 105 286t192 193.5t249 69.5q102 0 176 -41.5t109 -123.5h4l24 143h287l-145 -871v0l-7 -45l-23 -140v0l-15 -87q-8 -48 11.5 -70.5t71.5 -22.5h119
l-39 -238h-163zM539 218q111 0 193.5 84.5t105.5 226.5q24 141 -30.5 226t-165.5 85q-108 0 -185.5 -81.5t-102.5 -229.5q-24 -148 26.5 -229.5t158.5 -81.5z" />
    <glyph glyph-name="uni024C" unicode="&#x24c;" horiz-adv-x="1331" 
d="M56 0l92 552h-150l38 229h150l117 709h593q167 0 280.5 -59.5t163 -169.5t24.5 -260q-25 -148 -113.5 -256.5t-223.5 -165.5l203 -579h-316l-178 521h-16h-270l-86 -521h-308zM491 768h270q121 0 202.5 65t99.5 172t-43 168t-183 61h-269z" />
    <glyph glyph-name="uni024D" unicode="&#x24d;" horiz-adv-x="764" 
d="M17 0l175 1056h284l-30 -180h3q45 95 114.5 141t174.5 46q26 0 47.5 -1t38.5 -1l-41 -251q-16 1 -52.5 3t-73.5 2q-91 0 -161 -62t-89 -181l-95 -572h-295zM-142 440l31 184h760l-31 -184h-760z" />
    <glyph glyph-name="uni024E" unicode="&#x24e;" horiz-adv-x="1428" 
d="M1542 1180l-27 -158h-302l-348 -465l-92 -557h-300l92 557l-198 465h-292l26 158h199l-132 310h338l124 -310h346l222 310h365l-232 -310h211zM863 1022h-170q16 -40 30.5 -79.5t29.5 -79.5q27 40 54.5 79.5t55.5 79.5z" />
    <glyph glyph-name="uni024F" unicode="&#x24f;" horiz-adv-x="1148" 
d="M1174 758l-25 -154h-177l-419 -767q-139 -255 -375 -255h-195l38 233h135q52 0 81.5 26t61.5 86l42 77l-133 600h-176l25 154h117l-66 298h297l52 -298h294l150 298h318l-162 -298h117zM672 604h-188l12 -70q9 -56 17 -113t15 -114q54 115 109 227z" />
    <glyph glyph-name="aturn" unicode="&#x250;" horiz-adv-x="1220" 
d="M797 1078q138 0 229.5 -69t127.5 -193t9 -289q-27 -162 -105 -286t-192 -193.5t-249 -69.5q-102 0 -176 41.5t-109 123.5h-4l-24 -143h-287l175 1056h287l-26 -158h3q61 89 149 134.5t192 45.5zM682 838q-112 0 -194.5 -84.5t-105.5 -226.5q-24 -141 30.5 -226t166.5 -85
q107 0 184.5 81.5t102.5 229.5q24 148 -26.5 229.5t-157.5 81.5z" />
    <glyph glyph-name="ascript" unicode="&#x251;" horiz-adv-x="1220" 
d="M423 -22q-138 0 -229.5 69t-127.5 193t-9 289q27 162 105 286t192 193.5t249 69.5q102 0 176 -41.5t109 -123.5h4l24 143h287l-175 -1056h-287l26 158h-3q-61 -89 -149 -134.5t-192 -45.5zM539 218q111 0 193.5 84.5t105.5 226.5q24 141 -30.5 226t-165.5 85
q-108 0 -185.5 -81.5t-102.5 -229.5q-24 -148 26.5 -229.5t158.5 -81.5z" />
    <glyph glyph-name="ascriptturn" unicode="&#x252;" horiz-adv-x="1221" 
d="M616 -22q-104 0 -177.5 45.5t-104.5 134.5h-3l-26 -158h-288l175 1056h288l-24 -143h4q62 82 150 123.5t190 41.5q135 0 226 -69.5t128 -193.5t10 -286q-27 -165 -104.5 -289t-191.5 -193t-252 -69zM580 218q107 0 185 81.5t102 229.5t-26.5 229.5t-158.5 81.5
q-111 0 -193.5 -85t-105.5 -226q-23 -142 31 -226.5t166 -84.5z" />
    <glyph glyph-name="uni0253" unicode="&#x253;" horiz-adv-x="1223" 
d="M626 -22q-104 0 -181 45.5t-108 134.5h-3l-26 -158h-291l140 839l36 217l19 115q52 319 405 319h162l-39 -238h-120q-101 0 -116 -93l-17 -103l-26 -157l4 4q124 162 328 162q134 0 227 -68.5t132.5 -190t13.5 -281.5q-27 -163 -102 -286.5t-187 -192t-251 -68.5z
M582 218q107 0 184.5 80t102.5 227q24 146 -27 226.5t-158 80.5q-112 0 -194 -84t-105 -223q-24 -140 30.5 -223.5t166.5 -83.5z" />
    <glyph glyph-name="uni0254" unicode="&#x254;" horiz-adv-x="1123" 
d="M45 376h278q-10 -73 34.5 -116t131.5 -43q88 0 140 45t79.5 117.5t41.5 154.5l6 36q13 77 10 152.5t-40 124.5t-127 49q-94 0 -150.5 -59t-76.5 -158h-276q38 217 185 335t353 118q169 0 270.5 -74t137.5 -201t9 -287l-6 -36q-26 -157 -104.5 -282.5t-204.5 -198.5
t-293 -73q-132 0 -227.5 51t-141.5 140.5t-29 204.5z" />
    <glyph glyph-name="drthook" unicode="&#x256;" horiz-adv-x="1223" 
d="M1017 -418q-178 0 -248.5 80.5t-44.5 238.5l42 254h-1q-60 -95 -144 -136t-182 -41q-183 0 -286.5 118t-103.5 316q0 124 37 243t106.5 214.5t169 152t225.5 56.5q222 0 298 -181h1l97 593h294l-215 -1305v0l-20 -124l-11 -61v0l-14 -87q-8 -48 11 -70.5t71 -22.5h120
l-39 -238h-163zM523 218q100 0 173 61t113 154t40 190q0 102 -51 159.5t-141 57.5q-101 0 -171 -63t-106 -158.5t-36 -194.5q0 -100 47 -153t132 -53z" />
    <glyph glyph-name="uni0257" unicode="&#x257;" horiz-adv-x="1220" 
d="M423 -22q-138 0 -229.5 69t-127.5 193t-9 289q27 162 105 286t192 193.5t249 69.5q101 0 174 -40t109 -119l23 137l19 115q52 319 404 319h163l-40 -238h-119q-101 0 -116 -93l-17 -103l-175 -1056h-287l26 158h-3q-61 -89 -149 -134.5t-192 -45.5zM539 218
q111 0 193.5 84.5t105.5 226.5q24 141 -30.5 226t-165.5 85q-108 0 -185.5 -81.5t-102.5 -229.5q-24 -148 26.5 -229.5t158.5 -81.5z" />
    <glyph glyph-name="erev" unicode="&#x258;" horiz-adv-x="1122" 
d="M417 -20q-163 0 -260.5 61t-140.5 135l174 160q40 -60 102 -89.5t136 -29.5q122 0 204.5 68t115.5 177h-708l21 124q41 249 190.5 397.5t381.5 148.5q163 0 268.5 -72.5t147.5 -202t14 -299.5l-6 -39q-23 -147 -109 -269.5t-221.5 -196t-309.5 -73.5zM777 659
q1 97 -39.5 167t-145.5 70q-97 0 -152 -61.5t-73 -145.5l-8 -30h418z" />
    <glyph glyph-name="uni0259" unicode="&#x259;" horiz-adv-x="1145" 
d="M627 1080q230 0 358.5 -125t104.5 -381q-15 -183 -99.5 -317.5t-220.5 -207.5t-306 -73q-118 0 -212 36t-148.5 108.5t-54.5 180.5q0 134 88.5 205t257.5 98.5t411 31.5q1 97 -38.5 160t-163.5 63q-97 0 -158 -39.5t-86 -102.5h-276q57 163 195 263t348 100zM785 444
q-188 -4 -287.5 -21t-136.5 -46.5t-37 -71.5q0 -49 43.5 -77.5t126.5 -28.5q136 0 201.5 71.5t89.5 173.5z" />
    <glyph glyph-name="uni025A" unicode="&#x25a;" horiz-adv-x="1599" 
d="M464 -24q-118 0 -212 36t-148.5 108.5t-54.5 180.5q0 133 89.5 202.5t258.5 104t408 63.5q-4 83 -46.5 135.5t-154.5 52.5q-97 0 -158 -39.5t-86 -102.5h-276q57 163 195 263t348 100q198 0 322 -92.5t142 -280.5l268 31q-1 -137 5 -205t25.5 -90.5t56.5 -22.5
q29 0 75 12l14 -182q-89 -33 -170 -33q-115 0 -167 71t-59 240l-55 -8q-25 -168 -110.5 -290t-217 -188t-292.5 -66zM791 480q-183 -27 -284.5 -51t-142 -54t-40.5 -74q0 -102 162 -102q99 0 161 38.5t96 102.5t48 140z" />
    <glyph glyph-name="epsilon1" unicode="&#x25b;" horiz-adv-x="1061" 
d="M431 -24q-131 0 -231 38.5t-150 111.5t-33 178q16 95 77.5 153t150.5 88q-73 25 -107 73.5t-21 130.5q17 100 88.5 174t180.5 115.5t239 41.5q127 0 221 -40t142 -117t37 -187h-279q6 64 -34.5 99t-117.5 35q-74 0 -128 -31.5t-62 -85.5q-8 -48 29 -80.5t121 -32.5h125
l-9 -55v0l-23 -137h-131q-80 0 -135.5 -32.5t-66.5 -96.5q-10 -62 32.5 -97.5t125.5 -35.5q174 0 214 146h289q-23 -109 -98.5 -189t-190 -123.5t-255.5 -43.5z" />
    <glyph glyph-name="epsilon1rev" unicode="&#x25c;" horiz-adv-x="1062" 
d="M448 -24q-212 0 -328.5 96t-98.5 260h290q-5 -70 38 -108t128 -38q83 0 137 35.5t64 97.5q11 64 -33.5 96.5t-125.5 32.5h-131l11 64h-1l22 128h124q85 0 133 32.5t56 80.5q9 54 -34 85.5t-117 31.5q-78 0 -130 -35t-67 -99h-279q25 110 98.5 187t181 117t234.5 40
q130 0 225.5 -41.5t142 -115.5t30.5 -174q-14 -82 -64 -130.5t-131 -73.5q79 -30 121 -88t26 -153q-17 -105 -91.5 -178t-187 -111.5t-243.5 -38.5z" />
    <glyph glyph-name="epsilon1revhook" unicode="&#x25d;" horiz-adv-x="1512" 
d="M1304 367q-115 0 -166.5 65t-57.5 224l-167 -71q-38 -24 -90 -40q79 -30 121 -88t26 -153q-17 -105 -91.5 -178t-187 -111.5t-243.5 -38.5q-212 0 -328.5 96t-98.5 260h290q-5 -70 38 -108t128 -38q83 0 137 35.5t64 97.5q11 64 -33.5 96.5t-125.5 32.5h-131l11 64h-1
l22 128h124q85 0 133 32.5t56 80.5q9 54 -34 85.5t-117 31.5q-78 0 -130 -35t-67 -99h-279q25 110 98.5 187t181 117t234.5 40q175 0 285.5 -74t116.5 -198l268 107q-1 -137 7 -211.5t29.5 -104t58.5 -29.5q29 0 74 12l14 -182q-89 -33 -169 -33z" />
    <glyph glyph-name="epsilon1revclosed" unicode="&#x25e;" horiz-adv-x="1102" 
d="M489 -24q-236 0 -357 135t-75 417q33 200 123.5 321t216 176t263.5 55q130 0 225.5 -41.5t142.5 -115.5t30 -174q-13 -82 -63.5 -130.5t-131.5 -73.5q79 -30 121 -88t27 -153q-18 -105 -92.5 -178t-186.5 -111.5t-243 -38.5zM493 512v0l21 128h71q84 0 132.5 32.5
t55.5 80.5q9 54 -32 85.5t-115 31.5q-62 0 -116.5 -30t-95.5 -104.5t-63 -207.5t-7 -207.5t59 -104.5t111 -30q82 0 138 35.5t66 97.5q11 64 -33.5 96.5t-125.5 32.5h-77z" />
    <glyph glyph-name="jdotlessbar" unicode="&#x25f;" horiz-adv-x="505" 
d="M193 1056h294l-190 -1145q-25 -155 -129 -242t-279 -87h-118l39 233h66q59 0 90 30t43 99zM-120 577l31 184h760l-31 -184h-760z" />
    <glyph glyph-name="uni0260" unicode="&#x260;" horiz-adv-x="1222" 
d="M458 -432q-229 0 -340.5 94t-108.5 248h278q12 -125 175 -125q115 0 189.5 64t92.5 178l23 152h-1q-63 -93 -142.5 -136.5t-181.5 -43.5q-184 0 -287.5 119t-103.5 311q0 122 37.5 238t108 208.5t169 147.5t220.5 55q222 0 299 -176l26 154l19 115q52 319 404 319h163
l-39 -238h-120q-101 0 -116 -93l-17 -103l-169 -1025q-28 -167 -108 -269t-200.5 -148t-269.5 -46zM525 235q100 0 172.5 59.5t112 150.5t39.5 187q0 99 -50.5 155.5t-140.5 56.5q-100 0 -170 -61t-106.5 -154t-36.5 -190q0 -100 47.5 -152t132.5 -52z" />
    <glyph glyph-name="gcursive" unicode="&#x261;" horiz-adv-x="1222" 
d="M458 -432q-229 0 -340.5 94t-108.5 248h278q12 -125 175 -125q115 0 189.5 64t92.5 178l23 152h-1q-63 -93 -142.5 -136.5t-181.5 -43.5q-184 0 -287.5 119t-103.5 311q0 122 37.5 238t108 208.5t169 147.5t220.5 55q109 0 186.5 -46.5t114.5 -134.5h1l26 159h291
l-169 -1025q-28 -167 -108 -269t-200.5 -148t-269.5 -46zM525 235q100 0 172.5 59.5t112 150.5t39.5 187q0 99 -50.5 155.5t-140.5 56.5q-100 0 -170 -61t-106.5 -154t-36.5 -190q0 -100 47.5 -152t132.5 -52z" />
    <glyph glyph-name="g.sc" unicode="&#x262;" horiz-adv-x="1109" 
d="M502 -16q-209 0 -330.5 119t-121.5 323q0 132 43.5 249t123.5 206.5t190.5 140.5t243.5 51q122 0 223 -44.5t158.5 -128.5t49.5 -202h-283q-4 132 -151 132q-107 0 -178 -61.5t-105.5 -154t-34.5 -185.5q0 -98 48 -150.5t143 -52.5q97 0 163.5 45t83.5 112h-198l34 203
h468l-26 -162q-22 -136 -98.5 -234.5t-192 -152t-253.5 -53.5z" />
    <glyph glyph-name="gamma1" unicode="&#x263;" horiz-adv-x="1294" 
d="M489 -442q-166 0 -251.5 68t-64.5 203q8 51 36.5 113.5t74.5 125.5l182 258l-298 792h303l189 -517l365 517h303l-563 -804l87 -238q29 -73 34.5 -137t-1.5 -112q-22 -134 -127 -201.5t-269 -67.5zM571 35q-42 -63 -67.5 -112t-32.5 -88q-11 -67 53 -67q59 -1 72 67
q6 42 -1 91.5t-24 108.5z" />
    <glyph glyph-name="babygamma" unicode="&#x264;" horiz-adv-x="1365" 
d="M227 805l-117 174q61 60 141 106.5t180 46.5q101 0 170 -61t135 -187q107 125 198 186.5t194 61.5q100 0 164 -46.5t106 -106.5l-177 -174q-20 27 -46 46.5t-56 18.5q-35 1 -69 -22t-80 -75.5t-117 -143.5q3 -6 6 -13q40 -96 69.5 -197t14.5 -195q-20 -121 -117.5 -182.5
t-239.5 -61.5q-141 0 -218 62.5t-57 181.5q15 93 80.5 195t143.5 206q3 6 7 11q-65 133 -104 184t-90 50q-29 1 -61.5 -18.5t-59.5 -46.5zM653 374q-62 -90 -74 -134q-3 -17 5 -33t38 -16q29 0 42.5 16t15.5 33q6 41 -27 134z" />
    <glyph glyph-name="hturn" unicode="&#x265;" horiz-adv-x="1199" 
d="M791 469l97 587h294l-247 -1490h-294l98 590q-65 -85 -148.5 -131.5t-194.5 -46.5q-168 0 -257.5 108.5t-56.5 308.5l110 661h294l-100 -607q-18 -106 24 -161.5t134 -55.5q91 0 158.5 57t88.5 180z" />
    <glyph glyph-name="uni0266" unicode="&#x266;" horiz-adv-x="1199" 
d="M155 839l36 217l20 115q52 319 404 319h163l-40 -238h-119q-101 0 -116 -93l-17 -103l-25 -147q66 83 149.5 126t188.5 43q174 0 261.5 -113.5t54.5 -312.5l-108 -652h-294l102 617q17 106 -24.5 156.5t-128.5 50.5q-97 0 -166 -62t-89 -185l-95 -577h-295l139 839h-1z
" />
    <glyph glyph-name="uni0267" unicode="&#x267;" horiz-adv-x="1199" 
d="M593 -418h-166l39 238h120q98 0 113 93l14 87l102 617q17 106 -24.5 156.5t-128.5 50.5q-97 0 -166 -62t-89 -185l-95 -577h-295l139 839h-1l36 217l20 115q52 319 404 319h163l-40 -238h-119q-101 0 -116 -93l-17 -103l-25 -147q66 83 149.5 126t188.5 43
q174 0 261.5 -113.5t54.5 -312.5l-108 -652l-16 -99q-26 -158 -123.5 -238.5t-274.5 -80.5z" />
    <glyph glyph-name="ibar" unicode="&#x268;" horiz-adv-x="504" 
d="M17 0l175 1056h295l-175 -1056h-295zM362 1198q-68 0 -108 46t-29 112q11 67 66 113t124 46t109 -46t29 -113q-11 -66 -66.5 -112t-124.5 -46zM-133 502l31 184h760l-31 -184h-760z" />
    <glyph glyph-name="iota" unicode="&#x3b9;" horiz-adv-x="559" 
d="M359 0q-181 0 -250.5 66.5t-43.5 219.5l127 770h295l-124 -742q-8 -49 9 -68.5t67 -19.5h42l-37 -226h-85z" />
    <glyph glyph-name="iota" unicode="&#x269;" horiz-adv-x="559" 
d="M359 0q-181 0 -250.5 66.5t-43.5 219.5l127 770h295l-124 -742q-8 -49 9 -68.5t67 -19.5h42l-37 -226h-85z" />
    <glyph glyph-name="lmidtilde" unicode="&#x26b;" horiz-adv-x="504" 
d="M559 1490l-247 -1490h-295l247 1490h295zM433 591q-73 0 -120 25.5t-82 51t-71 25.5t-60 -27t-34 -70h-190q27 126 105.5 194.5t184.5 68.5q75 0 121 -25.5t80 -50.5t73 -25q40 0 61.5 24t34.5 71h187q-27 -125 -107.5 -193.5t-182.5 -68.5z" />
    <glyph glyph-name="uni026C" unicode="&#x26c;" horiz-adv-x="967" 
d="M972 556h-216l-21 -126l-71 -430h-296l71 430l21 126h-113q-159 -1 -232 76t-53 199q14 82 65 150.5t137.5 109.5t206.5 41q45 0 83 -6l61 364h296l-121 -730h216zM502 807q8 51 -8.5 81.5t-63.5 29.5q-41 1 -72.5 -23.5t-36.5 -56.5q-6 -30 16 -54.5t69 -23.5h88z" />
    <glyph glyph-name="lrthook" unicode="&#x26d;" horiz-adv-x="504" 
d="M297 -418q-349 0 -296 319l16 99l247 1490h295l-247 -1490l-15 -87q-8 -48 11.5 -70.5t71.5 -22.5h119l-39 -238h-163z" />
    </font>
</defs>
</svg>
