<?xml version="1.0" standalone="no"?>
<!DOCTYPE svg PUBLIC "-//W3C//DTD SVG 1.1//EN" "http://www.w3.org/Graphics/SVG/1.1/DTD/svg11.dtd" >
<svg xmlns="http://www.w3.org/2000/svg" xmlns:xlink="http://www.w3.org/1999/xlink" version="1.1">
<metadata>
Created by FontForge 20201107 at Mon Nov 20 03:07:40 2023
 By 
Copyright 2016 The Inter Project Authors
</metadata>
<defs>
<font id="InterDisplay-ExtraBold" horiz-adv-x="0" >
  <font-face 
    font-family="Inter Display ExtraBold"
    font-weight="800"
    font-stretch="normal"
    units-per-em="2048"
    panose-1="2 0 9 3 0 0 0 2 0 4"
    ascent="1638"
    descent="-410"
    x-height="1056"
    cap-height="1490"
    bbox="-1673.02 -693 5270 2307"
    underline-thickness="231"
    underline-position="-231"
    unicode-range="U+0020-1F852"
  />
<missing-glyph horiz-adv-x="1344" 
d="M1016 -416h-688v2272h688v-2272zM512 320v-256h320v256h-320zM512 704v-256h320v256h-192v-128h64v64h64v-128h-192v192h-64zM512 -192v-64h320v64h-215l215 127v65h-320v-64h216zM512 1408v-224h320v64h-128v160h-192zM512 1536v-64h320v64h-144v96h144v64h-320v-64h112
v-96h-112zM512 960v-64h192v160h128v64h-320v-64h128v-96h-128zM512 832v-64h320v224h-64v-160h-256zM768 128h-192v128h192v-128zM640 1248h-64v96h64v-96z" />
    <glyph glyph-name=".notdef" horiz-adv-x="1344" 
d="M1016 -416h-688v2272h688v-2272zM512 320v-256h320v256h-320zM512 704v-256h320v256h-192v-128h64v64h64v-128h-192v192h-64zM512 -192v-64h320v64h-215l215 127v65h-320v-64h216zM512 1408v-224h320v64h-128v160h-192zM512 1536v-64h320v64h-144v96h144v64h-320v-64h112
v-96h-112zM512 960v-64h192v160h128v64h-320v-64h128v-96h-128zM512 832v-64h320v224h-64v-160h-256zM768 128h-192v128h192v-128zM640 1248h-64v96h64v-96z" />
    <glyph glyph-name=".null" horiz-adv-x="912" 
 />
    <glyph glyph-name="nonmarkingreturn" horiz-adv-x="682" 
 />
    <glyph glyph-name="space" unicode=" " horiz-adv-x="409" 
 />
    <glyph glyph-name="exclam" unicode="!" horiz-adv-x="528" 
d="M112 455l-32 1035h367l-32 -1035h-303zM264 -19q-78 0 -133 55t-55 134q0 78 55 133t133 55t133 -55t55 -133q0 -79 -55 -134t-133 -55z" />
    <glyph glyph-name="quotedbl" unicode="&#x22;" horiz-adv-x="1025" 
d="M162 905l-32 585h310l-32 -585h-246zM617 905l-32 585h310l-32 -585h-246z" />
    <glyph glyph-name="numbersign" unicode="#" horiz-adv-x="1301" 
d="M662 0l58 358h-267l-58 -358h-257l59 358h-200l44 256h198l43 261h-200l44 257h198l58 358h257l-59 -358h268l58 358h257l-59 -358h199l-43 -257h-199l-43 -261h201l-44 -256h-199l-59 -358h-255zM495 614h268l42 261h-267z" />
    <glyph glyph-name="dollar" unicode="$" horiz-adv-x="1368" 
d="M593 -219v199q-252 21 -389 153.5t-137 358.5h343q3 -85 51 -140.5t132 -75.5v341l-57 12q-440 90 -440 421q0 126 61.5 224.5t173.5 159.5t262 76v199h201v-202q218 -26 342.5 -151.5t130.5 -329.5h-333q-11 136 -140 182v-322l34 -6q248 -49 360.5 -151.5t112.5 -275.5
q0 -203 -133 -326.5t-374 -145.5v-200h-201zM794 276q70 17 110.5 56.5t40.5 94.5q0 95 -151 144v-295zM593 933v280q-62 -17 -99.5 -55.5t-37.5 -90.5q0 -90 137 -134z" />
    <glyph glyph-name="percent" unicode="%" horiz-adv-x="1999" 
d="M486 726q-105 0 -186 47t-127.5 132t-46.5 199v30q0 115 46.5 200.5t127.5 132.5t186 47t186.5 -47t128 -132.5t46.5 -200.5v-30q0 -114 -46.5 -199t-128 -132t-186.5 -47zM1511 -24q-104 0 -185.5 47t-128 132t-46.5 199v30q0 115 46.5 200t128 132.5t185.5 47.5
q105 0 186.5 -47.5t128.5 -132.5t47 -200v-30q0 -114 -47 -199t-128.5 -132t-186.5 -47zM368 0l1024 1490h237l-1024 -1490h-237zM1511 180q56 0 90.5 43t34.5 131v30q0 89 -34.5 133t-90.5 44q-55 0 -89 -44t-34 -133v-30q0 -88 34 -131t89 -43zM486 931q56 0 90 42.5
t34 130.5v30q0 90 -34 133.5t-90 43.5t-89.5 -43.5t-33.5 -133.5v-30q0 -88 33.5 -130.5t89.5 -42.5z" />
    <glyph glyph-name="ampersand" unicode="&#x26;" horiz-adv-x="1357" 
d="M558 -23q-156 0 -269.5 56t-175 150.5t-61.5 212.5q0 122 67.5 208.5t200.5 174.5q-58 75 -96.5 158t-38.5 179q0 111 52.5 200t146.5 141.5t220 52.5q120 0 208.5 -48.5t137 -130.5t48.5 -183q0 -204 -198 -347l-81 -58l223 -251q30 55 47.5 119.5t17.5 134.5h282
q0 -138 -33.5 -264t-106.5 -223l229 -259h-355l-85 93q-83 -58 -183 -87t-197 -29zM750 298l-258 283q-48 -35 -77 -73t-29 -91q0 -73 54.5 -119t139.5 -46q86 0 170 46zM557 932l78 50q53 35 74 72.5t21 70.5q0 44 -32.5 76.5t-93.5 32.5q-58 0 -93.5 -33.5t-35.5 -89.5
q0 -42 21 -84.5t61 -94.5z" />
    <glyph glyph-name="quotesingle" unicode="'" horiz-adv-x="570" 
d="M162 905l-32 585h310l-32 -585h-246z" />
    <glyph glyph-name="parenleft" unicode="(" horiz-adv-x="706" 
d="M108 592q0 177 29 359t81 342.5t120 272.5h330q-60 -139 -108 -302t-75.5 -335t-27.5 -337q0 -146 24.5 -285t71.5 -286t115 -315h-330q-112 191 -171 417t-59 469z" />
    <glyph glyph-name="parenright" unicode=")" horiz-adv-x="706" 
d="M38 -294q68 168 115.5 315t71.5 286t24 285q0 165 -27.5 337t-75.5 335t-108 302h330q68 -112 120 -272.5t81 -342.5t29 -359q0 -243 -58.5 -469t-171.5 -417h-330z" />
    <glyph glyph-name="asterisk" unicode="*" horiz-adv-x="1153" 
d="M471 652l21 271l-226 -153l-106 182l246 118l-246 118l106 184l226 -153l-21 271h210l-20 -271l226 153l105 -184l-244 -118l244 -118l-105 -182l-226 153l20 -271h-210z" />
    <glyph glyph-name="plus" unicode="+" horiz-adv-x="1364" 
d="M538 50v389h-380v273h380v388h287v-388h381v-273h-381v-389h-287z" />
    <glyph glyph-name="comma" unicode="," horiz-adv-x="521" 
d="M44 -324l67 581h325l-153 -581h-239z" />
    <glyph glyph-name="hyphen" unicode="-" horiz-adv-x="925" 
d="M806 712v-268h-687v268h687z" />
    <glyph glyph-name="period" unicode="." horiz-adv-x="521" 
d="M261 -19q-78 0 -133 55t-55 134q0 78 55 133t133 55t133 -55t55 -133q0 -79 -55 -134t-133 -55z" />
    <glyph glyph-name="slash" unicode="/" horiz-adv-x="777" 
d="M777 1560l-480 -1784h-297l480 1784h297z" />
    <glyph glyph-name="zero" unicode="0" horiz-adv-x="1362" 
d="M681 -24q-196 0 -337 93t-216.5 265.5t-75.5 409.5q0 238 75.5 410.5t216.5 266t337 93.5q197 0 338 -93.5t216 -266t75 -410.5t-75 -410t-216 -265t-338 -93zM681 258q135 0 213 130t78 356q0 227 -78 357.5t-213 130.5t-212.5 -130.5t-77.5 -357.5q0 -226 77.5 -356
t212.5 -130z" />
    <glyph glyph-name="one" unicode="1" horiz-adv-x="821" 
d="M725 1490v-1490h-346v1168h-2l-341 -213v305l367 230h322z" />
    <glyph glyph-name="two" unicode="2" horiz-adv-x="1257" 
d="M77 0v257l553 459q54 47 103 92t79 97.5t30 120.5q0 93 -58 149.5t-155 56.5q-106 0 -169 -70t-63 -197h-330q0 168 68.5 291t195 190.5t298.5 67.5q159 0 282.5 -57t194.5 -162.5t71 -249.5q0 -108 -41 -194.5t-115.5 -165t-176.5 -163.5l-279 -237v-2h617v-283h-1105z
" />
    <glyph glyph-name="three" unicode="3" horiz-adv-x="1287" 
d="M646 -24q-199 0 -328.5 73t-193 192.5t-63.5 259.5h340q0 -118 64.5 -184.5t177.5 -66.5q105 0 170.5 53.5t65.5 140.5q0 85 -71.5 136.5t-189.5 51.5h-138v252h138q111 0 175 46.5t64 128.5q0 84 -59 136.5t-152 52.5q-97 0 -158 -57.5t-61 -152.5h-337
q0 136 67.5 243.5t192 170t296.5 62.5q159 0 281 -53t192 -146.5t70 -215.5q0 -131 -82.5 -215t-208.5 -105v-3q162 -19 249.5 -121t87.5 -235q0 -128 -74.5 -228.5t-207.5 -158t-307 -57.5z" />
    <glyph glyph-name="four" unicode="4" horiz-adv-x="1378" 
d="M61 305v274l633 911h441v-914h181v-271h-181v-305h-338v305h-736zM797 576v583h-1l-401 -581v-2h402z" />
    <glyph glyph-name="five" unicode="5" horiz-adv-x="1245" 
d="M619 -23q-165 0 -291 60t-199.5 170.5t-82.5 260.5h336q2 -95 70 -157.5t169 -62.5q104 0 169 69.5t65 179.5q0 111 -64.5 182t-166.5 71q-88 0 -149.5 -37.5t-83.5 -102.5h-324l44 880h992v-285h-676l-23 -299h2q104 106 284 106q134 0 248.5 -67t184.5 -181t70 -257
q0 -155 -71.5 -274.5t-200.5 -187.5t-302 -68z" />
    <glyph glyph-name="six" unicode="6" horiz-adv-x="1292" 
d="M667 -24q-291 0 -453 195t-162 546q0 243 72.5 422t211.5 277t339 98q156 0 274 -58.5t189 -159t84 -225.5h-333q-15 79 -73.5 126.5t-149.5 47.5q-146 0 -215.5 -114.5t-69.5 -306.5h2q113 169 346 169q148 0 263.5 -65t181.5 -178t66 -257q0 -154 -73.5 -270.5
t-202.5 -181.5t-297 -65zM664 252q102 0 169 68.5t67 172.5q0 103 -66.5 171t-167.5 68t-168.5 -68.5t-67.5 -171.5t67 -171.5t167 -68.5z" />
    <glyph glyph-name="seven" unicode="7" horiz-adv-x="1155" 
d="M145 0l605 1193v2h-708v295h1070v-287l-606 -1203h-361z" />
    <glyph glyph-name="eight" unicode="8" horiz-adv-x="1285" 
d="M642 -24q-177 0 -310 53.5t-206.5 149.5t-73.5 223q0 152 101.5 250t271.5 121q-150 24 -237.5 110.5t-87.5 224.5q0 120 68.5 211.5t190.5 143t283 51.5q163 0 285 -50.5t189.5 -142t67.5 -213.5q0 -137 -87 -224t-237 -111q170 -23 271.5 -121t101.5 -250
q0 -127 -74 -223t-207 -149.5t-310 -53.5zM642 226q100 0 164.5 56.5t64.5 145.5q0 90 -64.5 148t-164.5 58t-164.5 -58t-64.5 -148q0 -89 64 -145.5t165 -56.5zM642 892q90 0 145 50t55 133q0 82 -55 131.5t-145 49.5q-91 0 -145 -49.5t-54 -131.5q0 -83 54 -133t145 -50z
" />
    <glyph glyph-name="nine" unicode="9" horiz-adv-x="1292" 
d="M616 -24q-156 0 -274.5 58.5t-189.5 159t-84 225.5h333q14 -79 73 -126.5t151 -47.5q146 0 215.5 114.5t69.5 306.5h-2q-56 -85 -144 -126t-201 -41q-148 0 -263.5 64.5t-181.5 177.5t-66 257q0 154 73.5 270t202.5 181t296 65q292 0 454 -195t162 -546q0 -243 -73 -422
t-212.5 -277t-338.5 -98zM626 759q100 0 167.5 68.5t67.5 171.5t-67 171t-166 68q-102 0 -169 -68t-67 -172q0 -103 66.5 -171t167.5 -68z" />
    <glyph glyph-name="colon" unicode=":" horiz-adv-x="521" 
d="M261 -19q-78 0 -133 55t-55 134q0 78 55 133t133 55t133 -55t55 -133q0 -79 -55 -134t-133 -55zM261 646q-78 0 -133 55t-55 134q0 78 55 133t133 55t133 -55t55 -133q0 -79 -55 -134t-133 -55z" />
    <glyph glyph-name="semicolon" unicode=";" horiz-adv-x="525" 
d="M44 -324l67 581h325l-153 -581h-239zM265 646q-78 0 -133 55t-55 134q0 78 55 133t133 55t133 -55t55 -133q0 -79 -55 -134t-133 -55z" />
    <glyph glyph-name="less" unicode="&#x3c;" horiz-adv-x="1364" 
d="M145 453v293l1048 445v-325l-685 -260v-14l685 -260v-322z" />
    <glyph glyph-name="equal" unicode="=" horiz-adv-x="1364" 
d="M165 209v286h1033v-286h-1033zM165 706v284h1033v-284h-1033z" />
    <glyph glyph-name="greater" unicode="&#x3e;" horiz-adv-x="1364" 
d="M1218 453l-1047 -443v322l686 260v14l-686 260v325l1047 -445v-293z" />
    <glyph glyph-name="question" unicode="?" horiz-adv-x="1198" 
d="M417 455v71q0 95 23 155.5t73 104t132 88.5q73 40 106 90t33 106q0 74 -52 120t-137 46q-94 0 -149.5 -57t-55.5 -153h-326q0 141 67 250.5t187.5 172t281.5 62.5q152 0 268.5 -52t182 -143t65.5 -210q0 -231 -195 -358q-91 -60 -146.5 -110.5t-55.5 -132.5v-50h-302z
M573 -19q-79 0 -133.5 55t-54.5 134q0 78 54.5 133t133.5 55q78 0 133 -55t55 -133q0 -79 -55 -134t-133 -55z" />
    <glyph glyph-name="at" unicode="@" horiz-adv-x="2090" 
d="M1068 -444q-309 0 -537.5 119.5t-353.5 337.5t-125 513t125 514t352 339.5t534 120.5q297 0 516 -114t339 -319.5t120 -480.5q0 -280 -124.5 -433.5t-341.5 -153.5q-124 0 -193.5 48t-81.5 114h-2q-23 -61 -98 -107.5t-197 -46.5q-142 0 -248 66.5t-164 184t-58 270.5
q0 166 65 279t171 170.5t228 57.5q100 0 174 -34.5t101 -84.5h2v97h233v-681q0 -50 20.5 -69t51.5 -19q80 0 127.5 92t47.5 247q0 204 -83.5 349.5t-236.5 223t-362 77.5q-224 0 -387.5 -86t-252 -245t-88.5 -375q0 -217 88.5 -375t251.5 -243.5t386 -85.5q146 0 259 29.5
t166 50.5l98 -245q-68 -30 -201 -66t-321 -36zM1029 268q108 0 165.5 67.5t57.5 192.5t-57.5 193t-165.5 68q-112 0 -173 -67.5t-61 -193.5q0 -125 61 -192.5t173 -67.5z" />
    <glyph glyph-name="A" unicode="A" horiz-adv-x="1511" 
d="M5 0l512 1490h474l515 -1490h-402l-88 287h-529l-91 -287h-391zM577 568h352l-27 87q-37 125 -73.5 250t-73.5 262q-38 -137 -75 -262t-76 -250z" />
    <glyph glyph-name="B" unicode="B" horiz-adv-x="1325" 
d="M96 0v1490h620q248 0 379.5 -105t131.5 -273q0 -129 -75.5 -215.5t-201.5 -114.5v-2q93 -6 167.5 -51.5t118 -124t43.5 -183.5q0 -123 -60.5 -218t-176 -149t-281.5 -54h-665zM447 276h255q98 0 154 45.5t56 125.5q0 81 -55.5 128.5t-152.5 47.5h-257v-347zM447 885h235
q86 0 136 44.5t50 120.5q0 75 -50 119.5t-136 44.5h-235v-329z" />
    <glyph glyph-name="C" unicode="C" horiz-adv-x="1490" 
d="M768 -24q-205 0 -366.5 91.5t-255.5 263.5t-94 413q0 243 94 415.5t255.5 263.5t366.5 91q182 0 326 -70.5t234.5 -198t112.5 -298.5h-363q-23 120 -103.5 186.5t-200.5 66.5q-172 0 -266 -121.5t-94 -334.5q0 -212 93.5 -333t266.5 -121q120 0 200.5 66t104.5 185h362
q-23 -171 -113.5 -298t-234 -197t-325.5 -70z" />
    <glyph glyph-name="D" unicode="D" horiz-adv-x="1445" 
d="M649 0h-553v1490h553q227 0 394 -91.5t258.5 -258.5t91.5 -395t-90.5 -395t-257.5 -258.5t-396 -91.5zM456 300h175q205 0 302.5 112.5t97.5 332.5t-99 332.5t-305 112.5h-171v-890z" />
    <glyph glyph-name="E" unicode="E" horiz-adv-x="1268" 
d="M96 0v1490h1110v-306h-750v-287h693v-297h-693v-294h750v-306h-1110z" />
    <glyph glyph-name="F" unicode="F" horiz-adv-x="1214" 
d="M96 0v1490h1076v-306h-716v-317h671v-296h-671v-571h-360z" />
    <glyph glyph-name="G" unicode="G" horiz-adv-x="1511" 
d="M772 -24q-216 0 -378 95t-252 267.5t-90 405.5q0 243 94 415.5t255.5 263.5t364.5 91q176 0 321.5 -66.5t238.5 -185.5t109 -278h-366q-20 99 -94.5 157.5t-195.5 58.5q-174 0 -269.5 -120.5t-95.5 -335.5t96.5 -334.5t272.5 -119.5q142 0 225.5 71t85.5 186h-298v264
h650v-202q0 -189 -85.5 -331.5t-237.5 -222t-351 -79.5z" />
    <glyph glyph-name="H" unicode="H" horiz-adv-x="1479" 
d="M96 0v1490h360v-579h567v579h360v-1490h-360v605h-567v-605h-360z" />
    <glyph glyph-name="I" unicode="I" horiz-adv-x="552" 
d="M456 1490v-1490h-360v1490h360z" />
    <glyph glyph-name="J" unicode="J" horiz-adv-x="1174" 
d="M559 -23q-240 0 -373.5 125.5t-133.5 359.5v109h335v-112q0 -88 44.5 -135t122.5 -47t122 47t44 135v1031h360v-1037q0 -229 -137 -352.5t-384 -123.5z" />
    <glyph glyph-name="K" unicode="K" horiz-adv-x="1446" 
d="M96 0v1490h360v-665q51 64 103 128.5t104 128.5l333 408h423l-539 -642l560 -848h-412l-383 605l-189 -226v-379h-360z" />
    <glyph glyph-name="L" unicode="L" horiz-adv-x="1158" 
d="M96 0v1490h360v-1184h660v-306h-1020z" />
    <glyph glyph-name="M" unicode="M" horiz-adv-x="1861" 
d="M96 0v1490h532l192 -585q22 -71 53 -183t59 -217q28 105 58.5 217t51.5 183l190 585h533v-1490h-353v645q0 76 4.5 205.5t7.5 262.5q-37 -135 -73 -264t-60 -204l-214 -645h-291l-218 645q-23 72 -58 194.5t-72 253.5q3 -128 7 -251.5t4 -196.5v-645h-353z" />
    <glyph glyph-name="N" unicode="N" horiz-adv-x="1498" 
d="M96 0v1490h372l423 -677q27 -42 70 -118.5t86 -156.5q-2 88 -3.5 172t-1.5 134v646h360v-1490h-373l-388 620q-33 52 -83 139t-108 192q4 -109 5 -196t1 -134v-621h-360z" />
    <glyph glyph-name="O" unicode="O" horiz-adv-x="1529" 
d="M765 -24q-202 0 -363.5 91.5t-255.5 263.5t-94 413q0 243 94 415.5t255.5 263.5t363.5 91q201 0 362.5 -91t255.5 -263.5t94 -415.5q0 -242 -94 -414t-255.5 -263t-362.5 -91zM765 290q160 0 255 119t95 335q0 217 -95 336.5t-255 119.5t-255.5 -119.5t-95.5 -336.5
q0 -216 95.5 -335t255.5 -119z" />
    <glyph glyph-name="P" unicode="P" horiz-adv-x="1309" 
d="M96 0v1490h610q172 0 298 -61.5t194.5 -174.5t68.5 -268q0 -154 -69 -267t-195.5 -175t-298.5 -62h-248v-482h-360zM456 781h225q108 0 171.5 55.5t63.5 149.5q0 95 -63.5 150.5t-171.5 55.5h-225v-411z" />
    <glyph glyph-name="Q" unicode="Q" horiz-adv-x="1529" 
d="M765 -24q-202 0 -363.5 91.5t-255.5 263.5t-94 413q0 243 94 415.5t255.5 263.5t363.5 91q201 0 362.5 -91t255.5 -263.5t94 -415.5q0 -198 -64.5 -350t-176.5 -250l216 -261h-314l-111 138q-122 -45 -262 -45zM628 531h286l101 -128q48 58 74 144t26 197
q0 217 -95 336.5t-255 119.5t-255.5 -119.5t-95.5 -336.5q0 -216 95.5 -335t255.5 -119q23 0 44 2z" />
    <glyph glyph-name="R" unicode="R" horiz-adv-x="1347" 
d="M96 0v1490h614q173 0 299 -61.5t194.5 -174.5t68.5 -268q0 -143 -65 -250t-182 -168l286 -568h-380l-243 495h-232v-495h-360zM456 778h230q108 0 171 57t63 151q0 95 -63 152t-172 57h-229v-417z" />
    <glyph glyph-name="S" unicode="S" horiz-adv-x="1368" 
d="M689 -24q-298 0 -460 134.5t-162 381.5h343q4 -107 78.5 -167t203.5 -60q114 0 183.5 44.5t69.5 117.5q0 63 -60.5 103t-195.5 68l-153 31q-440 90 -440 421q0 138 73.5 242.5t205.5 163t307 58.5q268 0 423 -129.5t162 -358.5h-333q-8 92 -74 145.5t-173 53.5
q-102 0 -166.5 -44t-64.5 -114q0 -61 56.5 -98t184.5 -63l131 -26q248 -49 360.5 -151.5t112.5 -275.5q0 -225 -162 -351t-450 -126z" />
    <glyph glyph-name="T" unicode="T" horiz-adv-x="1321" 
d="M42 1184v306h1237v-306h-438v-1184h-360v1184h-439z" />
    <glyph glyph-name="U" unicode="U" horiz-adv-x="1443" 
d="M722 -24q-191 0 -332 68.5t-218.5 191.5t-77.5 288v966h351v-937q0 -117 76.5 -194t200.5 -77t200 76.5t76 194.5v937h351v-966q0 -164 -78 -287.5t-219 -192t-330 -68.5z" />
    <glyph glyph-name="V" unicode="V" horiz-adv-x="1488" 
d="M517 0l-512 1490h393l209 -655q37 -119 73 -244.5t74 -258.5q36 133 70.5 258.5t69.5 244.5l201 655h389l-499 -1490h-468z" />
    <glyph glyph-name="W" unicode="W" horiz-adv-x="2081" 
d="M402 0l-397 1490h387l148 -662q21 -99 40.5 -197.5t37.5 -196.5q20 98 40.5 196.5t44.5 197.5l159 662h357l159 -662q23 -98 43.5 -196t40.5 -196q18 98 37.5 196t40.5 196l148 662h388l-398 -1490h-398l-191 753q-12 47 -23.5 102.5t-25.5 120.5q-13 -65 -25 -120.5
t-24 -102.5l-190 -753h-399z" />
    <glyph glyph-name="X" unicode="X" horiz-adv-x="1471" 
d="M6 0l536 762l-483 728h407l143 -225q33 -53 66 -107t64 -107q33 53 66 107t68 107l145 225h396l-475 -718l526 -772h-417l-187 287q-32 49 -63.5 98.5t-62.5 98.5q-31 -49 -63 -98.5t-66 -98.5l-194 -287h-406z" />
    <glyph glyph-name="Y" unicode="Y" horiz-adv-x="1453" 
d="M558 0v533l-553 957h411l235 -433q22 -41 42.5 -81.5t41.5 -80.5q19 40 39 80.5t41 81.5l224 433h409l-541 -957v-533h-349z" />
    <glyph glyph-name="Z" unicode="Z" horiz-adv-x="1317" 
d="M52 0v274l610 732q38 44 77 88.5t79 89.5h-748v306h1188v-274l-600 -729q-38 -45 -77.5 -90.5t-80.5 -90.5h765v-306h-1213z" />
    <glyph glyph-name="bracketleft" unicode="[" horiz-adv-x="706" 
d="M120 -294v1860h522v-266h-177v-1328h177v-266h-522z" />
    <glyph glyph-name="backslash" unicode="\" horiz-adv-x="777" 
d="M480 -224l-480 1784h297l480 -1784h-297z" />
    <glyph glyph-name="bracketright" unicode="]" horiz-adv-x="706" 
d="M65 -294v266h176v1328h-176v266h521v-1860h-521z" />
    <glyph glyph-name="asciicircum" unicode="^" horiz-adv-x="969" 
d="M44 814l309 646h263l309 -646h-251l-184 424h-11l-184 -424h-251z" />
    <glyph glyph-name="underscore" unicode="_" horiz-adv-x="991" 
d="M991 0v-256h-991v256h991z" />
    <glyph glyph-name="grave" unicode="`" horiz-adv-x="649" 
d="M344 1184l-279 319h327l187 -319h-235z" />
    <glyph glyph-name="a" unicode="a" horiz-adv-x="1162" 
d="M419 -18q-159 0 -260.5 77.5t-101.5 235.5q0 119 55.5 188t148.5 102t206 42q142 12 200 29t58 65v5q0 47 -39.5 76.5t-107.5 29.5q-72 0 -114.5 -32t-47.5 -86h-320q11 172 137.5 268.5t356.5 96.5t353 -96.5t123 -271.5v-711h-336v148h-4q-47 -85 -121 -125.5
t-186 -40.5zM524 207q86 0 145 47.5t59 125.5v96q-27 -13 -75 -23t-112 -21q-69 -11 -113.5 -40t-44.5 -81q0 -49 39 -76.5t102 -27.5z" />
    <glyph glyph-name="b" unicode="b" horiz-adv-x="1251" 
d="M742 -23q-104 0 -183.5 46.5t-120.5 139.5h-2v-163h-340v1490h344v-576h2q98 165 303 165q134 0 236 -70t159.5 -194t57.5 -285q0 -167 -56.5 -291.5t-159 -193t-240.5 -68.5zM645 252q95 0 150 74t55 204q0 129 -55 202t-150 73q-97 0 -158 -75t-61 -200
q0 -127 61 -202.5t158 -75.5z" />
    <glyph glyph-name="c" unicode="c" horiz-adv-x="1164" 
d="M598 -24q-164 0 -286.5 69.5t-191 193.5t-68.5 289q0 164 68.5 288.5t191.5 194t286 69.5q147 0 261 -56t181.5 -155t75.5 -228h-332q-8 75 -55.5 120.5t-123.5 45.5q-97 0 -150.5 -74.5t-53.5 -204.5t54 -204.5t150 -74.5q76 0 122 46t56 123h333q-4 -129 -70.5 -228.5
t-182 -156.5t-265.5 -57z" />
    <glyph glyph-name="d" unicode="d" horiz-adv-x="1251" 
d="M509 -23q-139 0 -241.5 68.5t-159 193t-56.5 291.5q0 161 58 285t160 194t236 70q204 0 303 -165h1v576h345v-1490h-341v163h-1q-41 -93 -120.5 -139.5t-183.5 -46.5zM605 252q98 0 158.5 75.5t60.5 202.5q0 125 -60.5 200t-158.5 75q-95 0 -149.5 -73t-54.5 -202
q0 -130 54.5 -204t149.5 -74z" />
    <glyph glyph-name="e" unicode="e" horiz-adv-x="1171" 
d="M596 -24q-162 0 -284.5 71t-191 195.5t-68.5 285.5t68.5 285.5t189.5 195.5t277 71q159 0 279.5 -69.5t188.5 -192t68 -282.5v-93h-735q3 -101 60.5 -160t159.5 -59q76 0 127.5 31t70.5 83h309q-19 -106 -92 -188t-183.5 -128t-243.5 -46zM390 649h412q-12 83 -66 130
t-140 47q-87 0 -141 -47t-65 -130z" />
    <glyph glyph-name="f" unicode="f" horiz-adv-x="813" 
d="M773 1056v-266h-217v-790h-345v790h-192v266h192v117q0 161 90.5 239t279.5 78h192v-266h-105q-61 0 -86.5 -25.5t-25.5 -85.5v-57h217z" />
    <glyph glyph-name="g" unicode="g" horiz-adv-x="1251" 
d="M617 -432q-244 0 -366.5 99t-146.5 251h329q14 -49 62 -77.5t122 -28.5q196 0 196 212v163h-1q-42 -94 -121 -137t-182 -43q-139 0 -241.5 68.5t-159 188.5t-56.5 275q0 157 58 279t160 191.5t236 69.5q205 0 306 -171h1v148h342v-998q0 -258 -145.5 -374t-392.5 -116z
M605 277q98 0 158.5 72.5t60.5 195.5q0 121 -60.5 194t-158.5 73q-95 0 -149.5 -71t-54.5 -196q0 -126 54.5 -197t149.5 -71z" />
    <glyph glyph-name="h" unicode="h" horiz-adv-x="1231" 
d="M440 574v-574h-344v1490h344v-597q53 87 134 136.5t198 49.5q172 0 267.5 -110t95.5 -305v-664h-344v592q0 94 -45 143.5t-127 49.5q-81 0 -130 -51.5t-49 -159.5z" />
    <glyph glyph-name="i" unicode="i" horiz-adv-x="536" 
d="M96 0v1056h344v-1056h-344zM267 1159q-82 0 -135.5 49t-53.5 125t53.5 124.5t135.5 48.5q83 0 136.5 -48.5t53.5 -124.5t-53.5 -125t-136.5 -49z" />
    <glyph glyph-name="j" unicode="j" horiz-adv-x="538" 
d="M97 1056h345v-1120q0 -173 -97 -263.5t-289 -90.5h-135v267h70q56 0 81 28.5t25 93.5v1085zM268 1159q-82 0 -135.5 49t-53.5 125t53.5 124.5t135.5 48.5q83 0 136.5 -48.5t53.5 -124.5t-53.5 -125t-136.5 -49z" />
    <glyph glyph-name="k" unicode="k" horiz-adv-x="1163" 
d="M96 0v1490h344v-809h4l321 375h397l-393 -461l410 -595h-397l-269 399l-73 -85v-314h-344z" />
    <glyph glyph-name="l" unicode="l" horiz-adv-x="536" 
d="M440 1490v-1490h-344v1490h344z" />
    <glyph glyph-name="m" unicode="m" horiz-adv-x="1847" 
d="M96 0v1056h331v-198q46 113 133 167t190 54q106 0 189.5 -54.5t116.5 -158.5q40 103 133 158t206 55q156 0 256.5 -100t100.5 -276v-703h-345v627q0 84 -44.5 128.5t-114.5 44.5q-73 0 -116.5 -49t-43.5 -129v-622h-329v631q0 77 -43 123t-113 46t-116.5 -48.5
t-46.5 -136.5v-615h-344z" />
    <glyph glyph-name="n" unicode="n" horiz-adv-x="1231" 
d="M440 574v-574h-344v1056h340v-171q53 90 135 142t201 52q172 0 267.5 -110t95.5 -305v-664h-344v592q0 94 -45 143.5t-127 49.5q-81 0 -130 -51.5t-49 -159.5z" />
    <glyph glyph-name="o" unicode="o" horiz-adv-x="1215" 
d="M608 -24q-166 0 -291 68t-195 192t-70 292q0 166 70 290.5t195 193t291 68.5q165 0 290.5 -68.5t195 -193t69.5 -290.5q0 -168 -69.5 -291.5t-195 -192t-290.5 -68.5zM608 250q90 0 148.5 72t58.5 206t-58.5 206t-148.5 72t-148.5 -72t-58.5 -206t58 -206t149 -72z" />
    <glyph glyph-name="p" unicode="p" horiz-adv-x="1251" 
d="M96 -418v1474h340v-138h5q95 161 304 161q134 0 236 -70t159.5 -194t57.5 -285q0 -167 -56.5 -291.5t-159 -193t-240.5 -68.5q-214 0 -298 180h-4v-575h-344zM645 252q95 0 150 74t55 204q0 129 -55 202t-150 73q-97 0 -158 -75t-61 -200q0 -127 61 -202.5t158 -75.5z
" />
    <glyph glyph-name="q" unicode="q" horiz-adv-x="1251" 
d="M1155 -418h-345v575h-3q-84 -180 -298 -180q-139 0 -241.5 68.5t-159 193t-56.5 291.5q0 161 58 285t160 194t236 70q208 0 304 -161h4v138h341v-1474zM605 252q98 0 158.5 75.5t60.5 202.5q0 125 -60.5 200t-158.5 75q-95 0 -149.5 -73t-54.5 -202q0 -130 54.5 -204
t149.5 -74z" />
    <glyph glyph-name="r" unicode="r" horiz-adv-x="806" 
d="M96 0v1056h333v-186h3q29 101 90.5 145.5t167.5 44.5q28 0 50.5 -0.5t43.5 -1.5v-284q-19 1 -59 2t-77 1q-93 0 -150.5 -62t-57.5 -174v-541h-344z" />
    <glyph glyph-name="s" unicode="s" horiz-adv-x="1103" 
d="M562 -26q-146 0 -259 44t-180.5 126t-76.5 194h339q8 -59 52 -93t120 -34q71 0 111 25t40 65q0 66 -128 89l-191 34q-156 28 -237.5 107t-81.5 204q0 156 126 249.5t347 93.5t352 -98t136 -267h-317q-1 55 -45.5 92t-113.5 37q-67 0 -104.5 -26t-37.5 -65q0 -65 114 -87
l212 -39q163 -30 241 -100t78 -188q0 -108 -62.5 -190t-174 -127.5t-259.5 -45.5z" />
    <glyph glyph-name="t" unicode="t" horiz-adv-x="803" 
d="M761 1056v-266h-217v-435q0 -51 20 -70t78 -19h119v-266h-195q-190 0 -278.5 71.5t-88.5 225.5v493h-180v266h180v288h345v-288h217z" />
    <glyph glyph-name="u" unicode="u" horiz-adv-x="1231" 
d="M459 -23q-172 0 -267.5 110t-95.5 305v664h344v-592q0 -94 45 -143.5t127 -49.5q81 0 130 51.5t49 159.5v574h344v-1056h-340v171q-53 -90 -135 -142t-201 -52z" />
    <glyph glyph-name="v" unicode="v" horiz-adv-x="1170" 
d="M389 0l-385 1056h360l153 -486q19 -63 37 -125.5t35 -124.5q17 62 34.5 124.5t35.5 125.5l150 486h356l-385 -1056h-391z" />
    <glyph glyph-name="w" unicode="w" horiz-adv-x="1732" 
d="M329 0l-325 1056h362l82 -330q22 -92 42.5 -190.5t41.5 -196.5q23 98 46.5 196.5t47.5 190.5l87 330h305l87 -330q24 -92 47.5 -190.5t46.5 -196.5q20 98 39.5 196t41.5 191l79 330h368l-325 -1056h-355l-117 395q-17 59 -33 120.5t-31 123.5q-16 -62 -32 -123.5
t-33 -120.5l-117 -395h-355z" />
    <glyph glyph-name="x" unicode="x" horiz-adv-x="1125" 
d="M4 0l372 538l-344 518h371l73 -123q25 -45 48 -87t44 -82q23 40 46 82t49 87l75 123h366l-350 -509l366 -547h-373l-80 131q-28 48 -53 93t-50 88q-25 -43 -50 -88t-54 -93l-83 -131h-373z" />
    <glyph glyph-name="y" unicode="y" horiz-adv-x="1170" 
d="M129 -418v267h146q54 0 76 23.5t41 81.5l18 48l-406 1054h360l156 -486q17 -55 33 -110t32 -111q15 56 31.5 111t33.5 110l159 486h356l-455 -1205q-54 -143 -135.5 -206t-214.5 -63h-231z" />
    <glyph glyph-name="z" unicode="z" horiz-adv-x="1108" 
d="M97 0v226l501 560v2h-501v268h905v-239l-490 -549v-2h499v-266h-914z" />
    <glyph glyph-name="braceleft" unicode="{" horiz-adv-x="945" 
d="M881 -294q-111 0 -208.5 11.5t-171.5 51.5t-116 123t-42 227v153q0 106 -45.5 157t-161.5 54h-17v306h17q116 3 161.5 54t45.5 157v153q0 144 42 227t116 123t171.5 51.5t208.5 11.5v-260q-120 0 -161 -41t-41 -151v-204q0 -52 -20 -104.5t-72 -97t-149 -72.5
q97 -29 149 -73.5t72 -96.5t20 -104v-204q0 -110 41 -151t161 -41v-260z" />
    <glyph glyph-name="bar" unicode="|" horiz-adv-x="752" 
d="M542 1970v-2450h-333v2450h333z" />
    <glyph glyph-name="braceright" unicode="}" horiz-adv-x="945" 
d="M65 -294v260q119 0 160 41t41 151v204q0 52 20 104t72 96.5t149 73.5q-97 28 -149 72.5t-72 97t-20 104.5v204q0 110 -41 151t-160 41v260q111 0 208.5 -11.5t171 -51.5t115.5 -123t42 -227v-153q0 -110 49 -160.5t174 -50.5h1v-306q-125 0 -174.5 -50.5t-49.5 -160.5
v-153q0 -144 -42 -227t-115.5 -123t-171 -51.5t-208.5 -11.5z" />
    <glyph glyph-name="asciitilde" unicode="~" horiz-adv-x="1364" 
d="M133 392q-8 213 78 332t243 119q68 0 130.5 -27t141.5 -98q39 -34 67 -53.5t67 -19.5q48 0 80.5 39t30.5 126h260q7 -212 -81 -331.5t-241 -119.5q-72 0 -135.5 29.5t-139.5 95.5q-43 39 -68 56.5t-62 17.5q-49 0 -81.5 -38.5t-29.5 -127.5h-260z" />
    <glyph glyph-name="uni00A0" unicode="&#xa0;" horiz-adv-x="409" 
 />
    <glyph glyph-name="exclamdown" unicode="&#xa1;" horiz-adv-x="530" 
d="M80 -418l33 1023h305l32 -1023h-370zM265 701q-79 0 -134 55.5t-55 133.5q0 79 55 134.5t134 55.5q78 0 134 -55.5t56 -134.5q0 -78 -56 -133.5t-134 -55.5z" />
    <glyph glyph-name="cent" unicode="&#xa2;" horiz-adv-x="1164" 
d="M545 0v195q-149 11 -260 83t-172 191.5t-61 274.5t61.5 275t172 192t259.5 84v195h114v-196q131 -11 231.5 -69t159.5 -152.5t66 -215.5h-332q-14 130 -125 160v-545q107 30 124 163h333q-4 -120 -62 -215t-160 -154t-235 -71v-195h-114zM545 474v542
q-69 -22 -106.5 -92.5t-37.5 -179.5q0 -107 37.5 -177.5t106.5 -92.5z" />
    <glyph glyph-name="sterling" unicode="&#xa3;" horiz-adv-x="1273" 
d="M57 0v288h1q162 0 153 139l-10 166h-144v266h127l-8 127q-11 169 59.5 286.5t194.5 179t274 61.5q149 0 265 -63.5t182.5 -180t66.5 -274.5h-330q0 121 -47.5 175.5t-130.5 54.5q-86 0 -137.5 -53.5t-46.5 -166.5l5 -146h300v-266h-289l4 -107q3 -75 -28 -122.5
t-83 -75.5h422q43 0 43 43v54h324v-59q0 -158 -89.5 -242t-260.5 -84h-817z" />
    <glyph glyph-name="currency" unicode="&#xa4;" horiz-adv-x="1550" 
d="M775 -20q-105 0 -200 33t-173 92l-136 -133l-145 150l140 135q-49 75 -76 164t-26 187q-1 103 28.5 195t82.5 168l-149 147l145 150l150 -148q76 54 167.5 84t191.5 30q101 0 193 -30.5t168 -86.5l150 151l149 -150l-153 -150q52 -76 81 -167t30 -193q-1 -97 -28 -185
t-75 -162l145 -139l-149 -150l-136 136q-78 -60 -173.5 -94t-201.5 -34zM775 178q117 0 213.5 56.5t153.5 154t57 219.5q0 123 -57 220t-153.5 153.5t-213.5 56.5q-119 0 -215.5 -56.5t-152.5 -153.5t-56 -220q0 -122 56 -219.5t152.5 -154t215.5 -56.5z" />
    <glyph glyph-name="yen" unicode="&#xa5;" horiz-adv-x="1145" 
d="M365 1490l208 -528l207 528h356l-322 -715h213v-192h-287v-96h287v-192h-287v-295h-346v295h-315v192h315v96h-315v192h250l-319 715h355z" />
    <glyph glyph-name="brokenbar" unicode="&#xa6;" horiz-adv-x="710" 
d="M201 419h307v-699h-307v699zM508 1490v-696h-307v696h307z" />
    <glyph glyph-name="section" unicode="&#xa7;" horiz-adv-x="1198" 
d="M1028 1115h-302q0 46 -35.5 77.5t-104.5 31.5q-47 0 -89.5 -19.5t-42.5 -70.5q0 -49 46 -82.5t88 -47.5l277 -119q29 -12 71.5 -36t83 -63.5t64.5 -98.5t16 -142q-7 -62 -40 -100.5t-72.5 -58.5t-65.5 -28l-5 -2q64 -56 97.5 -125t33.5 -155q0 -117 -58 -201.5
t-159 -129.5t-230 -45q-140 0 -245 50t-163.5 141.5t-58.5 213.5h300q0 -58 45 -89.5t126 -26.5q49 2 93.5 21.5t45.5 65.5q-1 49 -46.5 80.5t-82.5 49.5l-277 117q-31 12 -74.5 36t-84 63.5t-64 99t-14.5 143.5q6 63 37 101t70.5 58t70.5 29v1q-57 56 -92.5 124t-35.5 156
q0 108 55.5 193t153.5 134t226 49q132 0 231 -51.5t154.5 -140.5t56.5 -203zM820 526q6 30 -20.5 60t-91.5 55l-233 96q-36 15 -63.5 -2t-33.5 -51q-16 -66 113 -116l235 -95q30 -13 58.5 2.5t35.5 50.5z" />
    <glyph glyph-name="dieresis" unicode="&#xa8;" horiz-adv-x="1231" 
d="M843 1163q-78 0 -129 48.5t-51 123.5q0 74 51 122.5t129 48.5q79 0 130 -48.5t51 -122.5q0 -75 -51 -123.5t-130 -48.5zM387 1163q-78 0 -129 48.5t-51 123.5q0 74 51 122.5t129 48.5q79 0 130 -48.5t51 -122.5q0 -75 -51 -123.5t-130 -48.5z" />
    <glyph glyph-name="copyright" unicode="&#xa9;" horiz-adv-x="1832" 
d="M916 -23q-159 0 -298 59.5t-244.5 165.5t-165.5 245t-60 298t60 298t165.5 245t244.5 165.5t298 59.5t298.5 -59.5t245 -165.5t165 -245t59.5 -298t-59.5 -298t-165 -245t-245 -165.5t-298.5 -59.5zM916 238q140 0 255 68.5t183.5 183.5t68.5 255t-68.5 255t-183.5 183.5
t-255 68.5t-255 -68.5t-183.5 -183.5t-68.5 -255t68.5 -255t183.5 -183.5t255 -68.5zM518 744q0 112 54.5 204t146.5 146.5t204 54.5q98 0 181 -43.5t136.5 -118t64.5 -167.5h-226q-11 50 -55.5 81t-100.5 31q-78 0 -133 -54.5t-55 -131.5q0 -78 55 -133t133 -55
q56 0 98.5 31t53.5 80h226q-10 -93 -63 -167.5t-135 -117.5t-180 -43q-112 0 -204 54.5t-146.5 146t-54.5 202.5z" />
    <glyph glyph-name="ordfeminine" unicode="&#xaa;" horiz-adv-x="979" 
d="M623 774q-32 -34 -83.5 -58t-126.5 -24q-123 0 -189.5 62.5t-66.5 165.5q0 111 87.5 170.5t265.5 59.5h105v52q0 60 -29 94t-91 34q-68 0 -105.5 -25.5t-37.5 -74.5l-180 13q0 102 88.5 168.5t234.5 66.5q135 0 217.5 -69.5t82.5 -206.5v-314q1 -42 6 -88.5t23 -95.5
h-183q-11 33 -18 70zM615 1033h-105q-88 1 -130 -33t-42 -77q0 -40 29 -64t92 -24q42 0 85.5 19t70.5 44v135z" />
    <glyph glyph-name="guillemotleft" unicode="&#xab;" horiz-adv-x="1343" 
d="M429 144l-369 440l369 440h380l-362 -440l362 -440h-380zM923 144l-369 440l369 440h380l-362 -440l362 -440h-380z" />
    <glyph glyph-name="logicalnot" unicode="&#xac;" horiz-adv-x="1364" 
d="M854 315v209h-647v273h934v-482h-287z" />
    <glyph glyph-name="registered" unicode="&#xae;" horiz-adv-x="1316" 
d="M657 346q-120 0 -225.5 45.5t-185 125.5t-124.5 185.5t-45 225.5t45 225.5t124.5 185.5t185 125.5t225.5 45.5q121 0 226.5 -45.5t185.5 -125.5t125 -185.5t45 -225.5t-45 -225.5t-125 -185.5t-185.5 -125.5t-226.5 -45.5zM657 504q118 0 214.5 57t153.5 153.5t57 213.5
t-57 213t-153.5 153.5t-214.5 57.5q-117 0 -213 -57.5t-153.5 -153.5t-57.5 -213t57.5 -213.5t153.5 -153.5t213 -57zM445 666v536h260q84 1 138 -46.5t54 -131.5q0 -53 -23 -91.5t-62 -60.5l101 -206h-160l-80 180h-82v-180h-146zM591 951h81q32 0 53 18.5t21 54.5
q0 37 -21 54.5t-53 17.5h-81v-145z" />
    <glyph glyph-name="macron" unicode="&#xaf;" horiz-adv-x="783" 
d="M686 1431v-210h-589v210h589z" />
    <glyph glyph-name="degree" unicode="&#xb0;" horiz-adv-x="904" 
d="M452 773q-100 -1 -182.5 48t-131.5 131.5t-49 183.5q0 100 49 182.5t131.5 131.5t182.5 49q101 0 183 -49t131 -131.5t49 -182.5q0 -101 -49 -183.5t-131 -131.5t-183 -48zM452 995q58 0 99.5 41.5t41.5 99.5t-41.5 98.5t-99.5 40.5t-99 -40.5t-41 -98.5t41 -99.5
t99 -41.5z" />
    <glyph glyph-name="plusminus" unicode="&#xb1;" horiz-adv-x="1364" 
d="M157 663v259h381v240h286v-240h381v-259h-381v-241h-286v241h-381zM157 52v270h1048v-270h-1048z" />
    <glyph glyph-name="two.sups" unicode="&#xb2;" horiz-adv-x="821" 
d="M67 859v175l336 249q34 25 74.5 57.5t40.5 83.5q0 40 -30 65t-78 25q-54 0 -87 -33t-33 -96h-231q0 150 94.5 236t256.5 86q149 0 246 -71t97 -198q0 -97 -55.5 -161.5t-146.5 -125.5l-141 -96v-1h345v-195h-688z" />
    <glyph glyph-name="three.sups" unicode="&#xb3;" horiz-adv-x="840" 
d="M425 845q-128 0 -208 44t-117.5 114t-37.5 149h236q0 -56 33.5 -88t92.5 -32q52 0 85.5 23t33.5 60t-37 59.5t-97 22.5h-90v169h90q125 0 125 77q0 36 -30 59.5t-77 23.5q-49 0 -81 -26t-32 -67h-236q0 116 92.5 195t256.5 79q149 0 243.5 -65t94.5 -168q0 -77 -51 -123
t-126 -53v-2q100 -9 152.5 -67.5t52.5 -133.5q0 -107 -102 -178.5t-266 -71.5z" />
    <glyph glyph-name="acute" unicode="&#xb4;" horiz-adv-x="649" 
d="M70 1184l187 319h326l-278 -319h-235z" />
    <glyph glyph-name="uni00B5" unicode="&#xb5;" horiz-adv-x="1261" 
d="M96 -418v1474h344v-592q0 -100 46.5 -152.5t129.5 -52.5t129 52.5t46 152.5v592h344v-715q0 -74 75 -74h51v-267h-162q-219 0 -274 172q-33 -86 -87 -119t-110 -33q-51 0 -101.5 25.5t-86.5 90.5v-554h-344z" />
    <glyph glyph-name="paragraph" unicode="&#xb6;" horiz-adv-x="1178" 
d="M818 0v1230h-180v-678h-87q-165 0 -278.5 61t-172 167.5t-58.5 241.5q0 134 58.5 239.5t172 167t278.5 61.5h531v-1490h-264z" />
    <glyph glyph-name="periodcentered" unicode="&#xb7;" horiz-adv-x="521" 
d="M261 517q-78 0 -133 55t-55 134q0 78 55 133t133 55t133 -55t55 -133q0 -79 -55 -134t-133 -55z" />
    <glyph glyph-name="cedilla" unicode="&#xb8;" horiz-adv-x="786" 
d="M257 -418v131h119q84 0 84 56q0 57 -84 57h-84l40 216h127v-119q91 -1 139.5 -48t48.5 -118q0 -86 -63.5 -130.5t-178.5 -44.5h-148z" />
    <glyph glyph-name="one.sups" unicode="&#xb9;" horiz-adv-x="555" 
d="M485 1694v-835h-243v613h-1l-201 -112v208l222 126h223z" />
    <glyph glyph-name="ordmasculine" unicode="&#xba;" horiz-adv-x="973" 
d="M128 1044v76q-1 157 96.5 257.5t261.5 100.5q167 0 263 -100.5t96 -257.5v-76q0 -154 -95 -254t-261 -100q-168 0 -265 100t-96 254zM308 1120v-76q0 -89 45 -147.5t136 -58.5q89 0 132.5 58.5t43.5 147.5v76q0 88 -44 149t-135 61q-89 0 -133.5 -61t-44.5 -149z" />
    <glyph glyph-name="guillemotright" unicode="&#xbb;" horiz-adv-x="1343" 
d="M40 144l362 440l-362 440h380l369 -440l-369 -440h-380zM534 144l362 440l-362 440h380l369 -440l-369 -440h-380z" />
    <glyph glyph-name="onequarter" unicode="&#xbc;" horiz-adv-x="1672" 
d="M441 1490v-835h-215v637h-2l-184 -116v187l202 127h199zM139 0l1024 1490h237l-1024 -1490h-237zM910 164v169l337 502h274v-505h93v-166h-93v-164h-210v164h-401zM1311 330v303v0l-198 -302v-1h198z" />
    <glyph glyph-name="onehalf" unicode="&#xbd;" horiz-adv-x="1734" 
d="M441 1490v-835h-215v637h-2l-184 -116v187l202 127h199zM139 0l1024 1490h237l-1024 -1490h-237zM1047 0v157l307 255q36 30 72 66.5t36 92.5q0 47 -28.5 75.5t-74.5 28.5q-52 0 -83.5 -36.5t-31.5 -103.5h-205q0 144 86 228.5t234 84.5q135 0 223 -71t88 -194
q0 -92 -50.5 -156.5t-133.5 -135.5l-136 -116v-1h322v-174h-625z" />
    <glyph glyph-name="threequarters" unicode="&#xbe;" horiz-adv-x="1858" 
d="M390 641q-116 0 -189 42.5t-107.5 110.5t-34.5 147h210q0 -62 31.5 -97t88.5 -35q50 0 82 27t32 70q0 44 -35.5 70.5t-92.5 26.5h-81v152h81q55 0 86.5 23.5t31.5 65.5t-29 69t-73 27q-47 0 -77.5 -29.5t-30.5 -77.5h-208q0 115 84 192.5t232 77.5q135 0 221 -65t86 -168
q0 -76 -47 -122t-115 -56v-1q93 -10 140.5 -68t47.5 -132q0 -108 -93 -179t-241 -71zM325 0l1024 1490h237l-1024 -1490h-237zM1095 164v169l337 502h274v-505h93v-166h-93v-164h-210v164h-401zM1496 330v303v0l-198 -302v-1h198z" />
    <glyph glyph-name="questiondown" unicode="&#xbf;" horiz-adv-x="1198" 
d="M781 601v-71q0 -95 -22.5 -155.5t-72.5 -104t-132 -88.5q-73 -40 -106.5 -90t-33.5 -106q0 -74 52 -120t137 -46q94 0 150 57t56 153h325q0 -141 -66.5 -250.5t-187.5 -172t-281 -62.5q-152 0 -268.5 52t-182.5 143t-66 210q0 231 195 358q91 60 147 110.5t56 132.5v50
h301zM626 1075q78 0 133 -55t55 -134q0 -78 -55 -133t-133 -55t-133 55t-55 133q0 79 55 134t133 55z" />
    <glyph glyph-name="Agrave" unicode="&#xc0;" horiz-adv-x="1511" 
d="M5 0l512 1490h474l515 -1490h-402l-88 287h-529l-91 -287h-391zM577 568h352l-27 87q-37 125 -73.5 250t-73.5 262q-38 -137 -75 -262t-76 -250zM656 1618l-279 319h327l187 -319h-235z" />
    <glyph glyph-name="Aacute" unicode="&#xc1;" horiz-adv-x="1511" 
d="M5 0l512 1490h474l515 -1490h-402l-88 287h-529l-91 -287h-391zM577 568h352l-27 87q-37 125 -73.5 250t-73.5 262q-38 -137 -75 -262t-76 -250zM621 1618l187 319h326l-278 -319h-235z" />
    <glyph glyph-name="Acircumflex" unicode="&#xc2;" horiz-adv-x="1511" 
d="M5 0l512 1490h474l515 -1490h-402l-88 287h-529l-91 -287h-391zM577 568h352l-27 87q-37 125 -73.5 250t-73.5 262q-38 -137 -75 -262t-76 -250zM629 1623h-257v1l249 313h264l255 -313v-1h-257l-130 164z" />
    <glyph glyph-name="Atilde" unicode="&#xc3;" horiz-adv-x="1511" 
d="M5 0l512 1490h474l515 -1490h-402l-88 287h-529l-91 -287h-391zM577 568h352l-27 87q-37 125 -73.5 250t-73.5 262q-38 -137 -75 -262t-76 -250zM900 1636q-69 0 -115 27.5t-80 55.5t-68 28q-33 0 -50.5 -28t-19.5 -76h-180q3 141 66 213.5t160 72.5q70 0 115.5 -27
t79.5 -54t68 -27q38 0 54 26t19 76h177q-2 -139 -66.5 -213t-159.5 -74z" />
    <glyph glyph-name="Adieresis" unicode="&#xc4;" horiz-adv-x="1511" 
d="M5 0l512 1490h474l515 -1490h-402l-88 287h-529l-91 -287h-391zM577 568h352l-27 87q-37 125 -73.5 250t-73.5 262q-38 -137 -75 -262t-76 -250zM984 1597q-78 0 -129 48.5t-51 123.5q0 74 51 122.5t129 48.5q79 0 130 -48.5t51 -122.5q0 -75 -51 -123.5t-130 -48.5z
M528 1597q-78 0 -129 48.5t-51 123.5q0 74 51 122.5t129 48.5q79 0 130 -48.5t51 -122.5q0 -75 -51 -123.5t-130 -48.5z" />
    <glyph glyph-name="Aring" unicode="&#xc5;" horiz-adv-x="1511" 
d="M5 0l512 1490h474l515 -1490h-402l-88 287h-529l-91 -287h-391zM577 568h352l-27 87q-37 125 -73.5 250t-73.5 262q-38 -137 -75 -262t-76 -250zM756 1573q-111 0 -184 67.5t-73 171.5t73 171.5t184 67.5q112 0 185 -67.5t73 -171.5t-73 -171.5t-185 -67.5zM756 1714
q43 0 71 27.5t28 70.5t-28 70.5t-71 27.5q-42 0 -70 -27.5t-28 -70.5t28 -70.5t70 -27.5z" />
    <glyph glyph-name="AE" unicode="&#xc6;" horiz-adv-x="2122" 
d="M5 0l603 1490h1452v-306h-750v-290h693v-296h-693v-292h750v-306h-1096v319h-464l-125 -319h-370zM605 587h359v597h-126z" />
    <glyph glyph-name="Ccedilla" unicode="&#xc7;" horiz-adv-x="1490" 
d="M768 -24q-205 0 -366.5 91.5t-255.5 263.5t-94 413q0 243 94 415.5t255.5 263.5t366.5 91q182 0 326 -70.5t234.5 -198t112.5 -298.5h-363q-23 120 -103.5 186.5t-200.5 66.5q-172 0 -266 -121.5t-94 -334.5q0 -212 93.5 -333t266.5 -121q120 0 200.5 66t104.5 185h362
q-23 -171 -113.5 -298t-234 -197t-325.5 -70zM616 -413v131h119q84 0 84 56q0 57 -84 57h-84l40 216h127v-119q91 -1 139.5 -48t48.5 -118q0 -86 -63.5 -130.5t-178.5 -44.5h-148z" />
    <glyph glyph-name="Egrave" unicode="&#xc8;" horiz-adv-x="1268" 
d="M96 0v1490h1110v-306h-750v-287h693v-297h-693v-294h750v-306h-1110zM551 1618l-279 319h327l187 -319h-235z" />
    <glyph glyph-name="Eacute" unicode="&#xc9;" horiz-adv-x="1268" 
d="M96 0v1490h1110v-306h-750v-287h693v-297h-693v-294h750v-306h-1110zM516 1618l187 319h326l-278 -319h-235z" />
    <glyph glyph-name="Ecircumflex" unicode="&#xca;" horiz-adv-x="1268" 
d="M96 0v1490h1110v-306h-750v-287h693v-297h-693v-294h750v-306h-1110zM524 1623h-257v1l249 313h264l255 -313v-1h-257l-130 164z" />
    <glyph glyph-name="Edieresis" unicode="&#xcb;" horiz-adv-x="1268" 
d="M96 0v1490h1110v-306h-750v-287h693v-297h-693v-294h750v-306h-1110zM879 1597q-78 0 -129 48.5t-51 123.5q0 74 51 122.5t129 48.5q79 0 130 -48.5t51 -122.5q0 -75 -51 -123.5t-130 -48.5zM423 1597q-78 0 -129 48.5t-51 123.5q0 74 51 122.5t129 48.5q79 0 130 -48.5
t51 -122.5q0 -75 -51 -123.5t-130 -48.5z" />
    <glyph glyph-name="Igrave" unicode="&#xcc;" horiz-adv-x="552" 
d="M456 1490v-1490h-360v1490h360zM176 1618l-279 319h327l187 -319h-235z" />
    <glyph glyph-name="Iacute" unicode="&#xcd;" horiz-adv-x="552" 
d="M456 1490v-1490h-360v1490h360zM141 1618l187 319h326l-278 -319h-235z" />
    <glyph glyph-name="Icircumflex" unicode="&#xce;" horiz-adv-x="552" 
d="M456 1490v-1490h-360v1490h360zM149 1623h-257v1l249 313h264l255 -313v-1h-257l-130 164z" />
    <glyph glyph-name="Idieresis" unicode="&#xcf;" horiz-adv-x="552" 
d="M456 1490v-1490h-360v1490h360zM504 1597q-78 0 -129 48.5t-51 123.5q0 74 51 122.5t129 48.5q79 0 130 -48.5t51 -122.5q0 -75 -51 -123.5t-130 -48.5zM48 1597q-78 0 -129 48.5t-51 123.5q0 74 51 122.5t129 48.5q79 0 130 -48.5t51 -122.5q0 -75 -51 -123.5
t-130 -48.5z" />
    <glyph glyph-name="Eth" unicode="&#xd0;" horiz-adv-x="1555" 
d="M759 0h-553v1490h553q227 0 394 -91.5t258.5 -258.5t91.5 -395t-90.5 -395t-257.5 -258.5t-396 -91.5zM566 300h175q205 0 302.5 112.5t97.5 332.5t-99 332.5t-305 112.5h-171v-890zM19 629v232h924v-232h-924z" />
    <glyph glyph-name="Ntilde" unicode="&#xd1;" horiz-adv-x="1498" 
d="M96 0v1490h372l423 -677q27 -42 70 -118.5t86 -156.5q-2 88 -3.5 172t-1.5 134v646h360v-1490h-373l-388 620q-33 52 -83 139t-108 192q4 -109 5 -196t1 -134v-621h-360zM894 1636q-69 0 -115 27.5t-80 55.5t-68 28q-33 0 -50.5 -28t-19.5 -76h-180q3 141 66 213.5
t160 72.5q70 0 115.5 -27t79.5 -54t68 -27q38 0 54 26t19 76h177q-2 -139 -66.5 -213t-159.5 -74z" />
    <glyph glyph-name="Ograve" unicode="&#xd2;" horiz-adv-x="1529" 
d="M765 -24q-202 0 -363.5 91.5t-255.5 263.5t-94 413q0 243 94 415.5t255.5 263.5t363.5 91q201 0 362.5 -91t255.5 -263.5t94 -415.5q0 -242 -94 -414t-255.5 -263t-362.5 -91zM765 290q160 0 255 119t95 335q0 217 -95 336.5t-255 119.5t-255.5 -119.5t-95.5 -336.5
q0 -216 95.5 -335t255.5 -119zM665 1618l-279 319h327l187 -319h-235z" />
    <glyph glyph-name="Oacute" unicode="&#xd3;" horiz-adv-x="1529" 
d="M765 -24q-202 0 -363.5 91.5t-255.5 263.5t-94 413q0 243 94 415.5t255.5 263.5t363.5 91q201 0 362.5 -91t255.5 -263.5t94 -415.5q0 -242 -94 -414t-255.5 -263t-362.5 -91zM765 290q160 0 255 119t95 335q0 217 -95 336.5t-255 119.5t-255.5 -119.5t-95.5 -336.5
q0 -216 95.5 -335t255.5 -119zM630 1618l187 319h326l-278 -319h-235z" />
    <glyph glyph-name="Ocircumflex" unicode="&#xd4;" horiz-adv-x="1529" 
d="M765 -24q-202 0 -363.5 91.5t-255.5 263.5t-94 413q0 243 94 415.5t255.5 263.5t363.5 91q201 0 362.5 -91t255.5 -263.5t94 -415.5q0 -242 -94 -414t-255.5 -263t-362.5 -91zM765 290q160 0 255 119t95 335q0 217 -95 336.5t-255 119.5t-255.5 -119.5t-95.5 -336.5
q0 -216 95.5 -335t255.5 -119zM637 1623h-257v1l249 313h264l255 -313v-1h-257l-130 164z" />
    <glyph glyph-name="Otilde" unicode="&#xd5;" horiz-adv-x="1529" 
d="M765 -24q-202 0 -363.5 91.5t-255.5 263.5t-94 413q0 243 94 415.5t255.5 263.5t363.5 91q201 0 362.5 -91t255.5 -263.5t94 -415.5q0 -242 -94 -414t-255.5 -263t-362.5 -91zM765 290q160 0 255 119t95 335q0 217 -95 336.5t-255 119.5t-255.5 -119.5t-95.5 -336.5
q0 -216 95.5 -335t255.5 -119zM908 1636q-69 0 -115 27.5t-80 55.5t-68 28q-33 0 -50.5 -28t-19.5 -76h-180q3 141 66 213.5t160 72.5q70 0 115.5 -27t79.5 -54t68 -27q38 0 54 26t19 76h177q-2 -139 -66.5 -213t-159.5 -74z" />
    <glyph glyph-name="Odieresis" unicode="&#xd6;" horiz-adv-x="1529" 
d="M765 -24q-202 0 -363.5 91.5t-255.5 263.5t-94 413q0 243 94 415.5t255.5 263.5t363.5 91q201 0 362.5 -91t255.5 -263.5t94 -415.5q0 -242 -94 -414t-255.5 -263t-362.5 -91zM765 290q160 0 255 119t95 335q0 217 -95 336.5t-255 119.5t-255.5 -119.5t-95.5 -336.5
q0 -216 95.5 -335t255.5 -119zM992 1597q-78 0 -129 48.5t-51 123.5q0 74 51 122.5t129 48.5q79 0 130 -48.5t51 -122.5q0 -75 -51 -123.5t-130 -48.5zM536 1597q-78 0 -129 48.5t-51 123.5q0 74 51 122.5t129 48.5q79 0 130 -48.5t51 -122.5q0 -75 -51 -123.5t-130 -48.5z
" />
    <glyph glyph-name="multiply" unicode="&#xd7;" horiz-adv-x="1364" 
d="M1017 52l-335 334l-334 -334l-213 212l334 334l-334 333l213 216l334 -335l335 335l212 -216l-334 -333l334 -334z" />
    <glyph glyph-name="Oslash" unicode="&#xd8;" horiz-adv-x="1529" 
d="M765 -24q-202 0 -363.5 91.5t-255.5 263.5t-94 413q0 243 94 415.5t255.5 263.5t363.5 91q201 0 362.5 -91t255.5 -263.5t94 -415.5q0 -242 -94 -414t-255.5 -263t-362.5 -91zM765 290q160 0 255 119t95 335q0 217 -95 336.5t-255 119.5t-255.5 -119.5t-95.5 -336.5
q0 -216 95.5 -335t255.5 -119zM209 -81l-185 162l1297 1490l186 -162z" />
    <glyph glyph-name="Ugrave" unicode="&#xd9;" horiz-adv-x="1443" 
d="M722 -24q-191 0 -332 68.5t-218.5 191.5t-77.5 288v966h351v-937q0 -117 76.5 -194t200.5 -77t200 76.5t76 194.5v937h351v-966q0 -164 -78 -287.5t-219 -192t-330 -68.5zM622 1618l-279 319h327l187 -319h-235z" />
    <glyph glyph-name="Uacute" unicode="&#xda;" horiz-adv-x="1443" 
d="M722 -24q-191 0 -332 68.5t-218.5 191.5t-77.5 288v966h351v-937q0 -117 76.5 -194t200.5 -77t200 76.5t76 194.5v937h351v-966q0 -164 -78 -287.5t-219 -192t-330 -68.5zM586 1618l187 319h326l-278 -319h-235z" />
    <glyph glyph-name="Ucircumflex" unicode="&#xdb;" horiz-adv-x="1443" 
d="M722 -24q-191 0 -332 68.5t-218.5 191.5t-77.5 288v966h351v-937q0 -117 76.5 -194t200.5 -77t200 76.5t76 194.5v937h351v-966q0 -164 -78 -287.5t-219 -192t-330 -68.5zM594 1623h-257v1l249 313h264l255 -313v-1h-257l-130 164z" />
    <glyph glyph-name="Udieresis" unicode="&#xdc;" horiz-adv-x="1443" 
d="M722 -24q-191 0 -332 68.5t-218.5 191.5t-77.5 288v966h351v-937q0 -117 76.5 -194t200.5 -77t200 76.5t76 194.5v937h351v-966q0 -164 -78 -287.5t-219 -192t-330 -68.5zM949 1597q-78 0 -129 48.5t-51 123.5q0 74 51 122.5t129 48.5q79 0 130 -48.5t51 -122.5
q0 -75 -51 -123.5t-130 -48.5zM493 1597q-78 0 -129 48.5t-51 123.5q0 74 51 122.5t129 48.5q79 0 130 -48.5t51 -122.5q0 -75 -51 -123.5t-130 -48.5z" />
    <glyph glyph-name="Yacute" unicode="&#xdd;" horiz-adv-x="1453" 
d="M558 0v533l-553 957h411l235 -433q22 -41 42.5 -81.5t41.5 -80.5q19 40 39 80.5t41 81.5l224 433h409l-541 -957v-533h-349zM591 1618l187 319h326l-278 -319h-235z" />
    <glyph glyph-name="Thorn" unicode="&#xde;" horiz-adv-x="1356" 
d="M95 1490h352v-264h199q185 0 313 -60t194 -164.5t66 -238.5q0 -135 -66 -239t-194 -163t-313 -59h-199v-302h-352v1490zM447 565h199q128 1 183.5 60t55.5 134q0 77 -55.5 139t-183.5 62h-199v-395z" />
    <glyph glyph-name="germandbls" unicode="&#xdf;" horiz-adv-x="1339" 
d="M96 0v1093q0 195 145.5 306t389.5 111q150 0 277 -45.5t203.5 -136t76.5 -226.5q0 -112 -55.5 -193t-154.5 -107v-17q147 -9 231 -113.5t84 -261.5q0 -134 -62.5 -225.5t-173 -138t-254.5 -46.5h-206v277h141q94 0 149 46.5t55 124.5q0 80 -61.5 127t-166.5 47h-111v262
h73q71 0 113.5 48.5t42.5 118.5q0 76 -49.5 124.5t-139.5 48.5q-91 0 -145.5 -51t-54.5 -138v-1035h-347z" />
    <glyph glyph-name="agrave" unicode="&#xe0;" horiz-adv-x="1162" 
d="M419 -18q-159 0 -260.5 77.5t-101.5 235.5q0 119 55.5 188t148.5 102t206 42q142 12 200 29t58 65v5q0 47 -39.5 76.5t-107.5 29.5q-72 0 -114.5 -32t-47.5 -86h-320q11 172 137.5 268.5t356.5 96.5t353 -96.5t123 -271.5v-711h-336v148h-4q-47 -85 -121 -125.5
t-186 -40.5zM524 207q86 0 145 47.5t59 125.5v96q-27 -13 -75 -23t-112 -21q-69 -11 -113.5 -40t-44.5 -81q0 -49 39 -76.5t102 -27.5zM476 1184l-279 319h327l187 -319h-235z" />
    <glyph glyph-name="aacute" unicode="&#xe1;" horiz-adv-x="1162" 
d="M419 -18q-159 0 -260.5 77.5t-101.5 235.5q0 119 55.5 188t148.5 102t206 42q142 12 200 29t58 65v5q0 47 -39.5 76.5t-107.5 29.5q-72 0 -114.5 -32t-47.5 -86h-320q11 172 137.5 268.5t356.5 96.5t353 -96.5t123 -271.5v-711h-336v148h-4q-47 -85 -121 -125.5
t-186 -40.5zM524 207q86 0 145 47.5t59 125.5v96q-27 -13 -75 -23t-112 -21q-69 -11 -113.5 -40t-44.5 -81q0 -49 39 -76.5t102 -27.5zM441 1184l187 319h326l-278 -319h-235z" />
    <glyph glyph-name="acircumflex" unicode="&#xe2;" horiz-adv-x="1162" 
d="M419 -18q-159 0 -260.5 77.5t-101.5 235.5q0 119 55.5 188t148.5 102t206 42q142 12 200 29t58 65v5q0 47 -39.5 76.5t-107.5 29.5q-72 0 -114.5 -32t-47.5 -86h-320q11 172 137.5 268.5t356.5 96.5t353 -96.5t123 -271.5v-711h-336v148h-4q-47 -85 -121 -125.5
t-186 -40.5zM524 207q86 0 145 47.5t59 125.5v96q-27 -13 -75 -23t-112 -21q-69 -11 -113.5 -40t-44.5 -81q0 -49 39 -76.5t102 -27.5zM448 1189h-257v1l249 313h264l255 -313v-1h-257l-130 164z" />
    <glyph glyph-name="atilde" unicode="&#xe3;" horiz-adv-x="1162" 
d="M419 -18q-159 0 -260.5 77.5t-101.5 235.5q0 119 55.5 188t148.5 102t206 42q142 12 200 29t58 65v5q0 47 -39.5 76.5t-107.5 29.5q-72 0 -114.5 -32t-47.5 -86h-320q11 172 137.5 268.5t356.5 96.5t353 -96.5t123 -271.5v-711h-336v148h-4q-47 -85 -121 -125.5
t-186 -40.5zM524 207q86 0 145 47.5t59 125.5v96q-27 -13 -75 -23t-112 -21q-69 -11 -113.5 -40t-44.5 -81q0 -49 39 -76.5t102 -27.5zM719 1202q-69 0 -115 27.5t-80 55.5t-68 28q-33 0 -50.5 -28t-19.5 -76h-180q3 141 66 213.5t160 72.5q70 0 115.5 -27t79.5 -54t68 -27
q38 0 54 26t19 76h177q-2 -139 -66.5 -213t-159.5 -74z" />
    <glyph glyph-name="adieresis" unicode="&#xe4;" horiz-adv-x="1162" 
d="M419 -18q-159 0 -260.5 77.5t-101.5 235.5q0 119 55.5 188t148.5 102t206 42q142 12 200 29t58 65v5q0 47 -39.5 76.5t-107.5 29.5q-72 0 -114.5 -32t-47.5 -86h-320q11 172 137.5 268.5t356.5 96.5t353 -96.5t123 -271.5v-711h-336v148h-4q-47 -85 -121 -125.5
t-186 -40.5zM524 207q86 0 145 47.5t59 125.5v96q-27 -13 -75 -23t-112 -21q-69 -11 -113.5 -40t-44.5 -81q0 -49 39 -76.5t102 -27.5zM803 1163q-78 0 -129 48.5t-51 123.5q0 74 51 122.5t129 48.5q79 0 130 -48.5t51 -122.5q0 -75 -51 -123.5t-130 -48.5zM347 1163
q-78 0 -129 48.5t-51 123.5q0 74 51 122.5t129 48.5q79 0 130 -48.5t51 -122.5q0 -75 -51 -123.5t-130 -48.5z" />
    <glyph glyph-name="aring" unicode="&#xe5;" horiz-adv-x="1162" 
d="M419 -18q-159 0 -260.5 77.5t-101.5 235.5q0 119 55.5 188t148.5 102t206 42q142 12 200 29t58 65v5q0 47 -39.5 76.5t-107.5 29.5q-72 0 -114.5 -32t-47.5 -86h-320q11 172 137.5 268.5t356.5 96.5t353 -96.5t123 -271.5v-711h-336v148h-4q-47 -85 -121 -125.5
t-186 -40.5zM524 207q86 0 145 47.5t59 125.5v96q-27 -13 -75 -23t-112 -21q-69 -11 -113.5 -40t-44.5 -81q0 -49 39 -76.5t102 -27.5zM575 1139q-111 0 -184 67.5t-73 171.5t73 171.5t184 67.5q112 0 185 -67.5t73 -171.5t-73 -171.5t-185 -67.5zM575 1280q43 0 71 27.5
t28 70.5t-28 70.5t-71 27.5q-42 0 -70 -27.5t-28 -70.5t28 -70.5t70 -27.5z" />
    <glyph glyph-name="ae" unicode="&#xe6;" horiz-adv-x="1822" 
d="M455 -18q-188 0 -293 80t-105 233q0 128 75 206t209 113t310 35h75v77q0 47 -40 76.5t-108 29.5q-72 0 -114.5 -32t-47.5 -86h-320q6 99 63 182t161 133t252 50q113 0 197 -36t135 -101q62 65 144 101.5t191 36.5q158 0 278.5 -69.5t188.5 -192t68 -282.5v-93h-735
q3 -101 60.5 -160t160.5 -59q75 0 127 31t70 83h310q-20 -106 -92.5 -188t-183 -128t-244.5 -46q-123 0 -224 50.5t-158 133.5q-75 -106 -187 -142t-223 -36zM726 443h-141q-93 0 -147.5 -35.5t-54.5 -94.5q0 -51 39 -78t102 -27q86 0 144 47t58 125v63zM1041 649h412
q-11 83 -65 130t-141 47t-141 -47t-65 -130z" />
    <glyph glyph-name="ccedilla" unicode="&#xe7;" horiz-adv-x="1164" 
d="M598 -24q-164 0 -286.5 69.5t-191 193.5t-68.5 289q0 164 68.5 288.5t191.5 194t286 69.5q147 0 261 -56t181.5 -155t75.5 -228h-332q-8 75 -55.5 120.5t-123.5 45.5q-97 0 -150.5 -74.5t-53.5 -204.5t54 -204.5t150 -74.5q76 0 122 46t56 123h333q-4 -129 -70.5 -228.5
t-182 -156.5t-265.5 -57zM463 -418v131h119q84 0 84 56q0 57 -84 57h-84l40 216h127v-119q91 -1 139.5 -48t48.5 -118q0 -86 -63.5 -130.5t-178.5 -44.5h-148z" />
    <glyph glyph-name="egrave" unicode="&#xe8;" horiz-adv-x="1171" 
d="M596 -24q-162 0 -284.5 71t-191 195.5t-68.5 285.5t68.5 285.5t189.5 195.5t277 71q159 0 279.5 -69.5t188.5 -192t68 -282.5v-93h-735q3 -101 60.5 -160t159.5 -59q76 0 127.5 31t70.5 83h309q-19 -106 -92 -188t-183.5 -128t-243.5 -46zM390 649h412q-12 83 -66 130
t-140 47q-87 0 -141 -47t-65 -130zM487 1184l-279 319h327l187 -319h-235z" />
    <glyph glyph-name="eacute" unicode="&#xe9;" horiz-adv-x="1171" 
d="M596 -24q-162 0 -284.5 71t-191 195.5t-68.5 285.5t68.5 285.5t189.5 195.5t277 71q159 0 279.5 -69.5t188.5 -192t68 -282.5v-93h-735q3 -101 60.5 -160t159.5 -59q76 0 127.5 31t70.5 83h309q-19 -106 -92 -188t-183.5 -128t-243.5 -46zM390 649h412q-12 83 -66 130
t-140 47q-87 0 -141 -47t-65 -130zM452 1184l187 319h326l-278 -319h-235z" />
    <glyph glyph-name="ecircumflex" unicode="&#xea;" horiz-adv-x="1171" 
d="M596 -24q-162 0 -284.5 71t-191 195.5t-68.5 285.5t68.5 285.5t189.5 195.5t277 71q159 0 279.5 -69.5t188.5 -192t68 -282.5v-93h-735q3 -101 60.5 -160t159.5 -59q76 0 127.5 31t70.5 83h309q-19 -106 -92 -188t-183.5 -128t-243.5 -46zM390 649h412q-12 83 -66 130
t-140 47q-87 0 -141 -47t-65 -130zM460 1189h-257v1l249 313h264l255 -313v-1h-257l-130 164z" />
    <glyph glyph-name="edieresis" unicode="&#xeb;" horiz-adv-x="1171" 
d="M596 -24q-162 0 -284.5 71t-191 195.5t-68.5 285.5t68.5 285.5t189.5 195.5t277 71q159 0 279.5 -69.5t188.5 -192t68 -282.5v-93h-735q3 -101 60.5 -160t159.5 -59q76 0 127.5 31t70.5 83h309q-19 -106 -92 -188t-183.5 -128t-243.5 -46zM390 649h412q-12 83 -66 130
t-140 47q-87 0 -141 -47t-65 -130zM815 1163q-78 0 -129 48.5t-51 123.5q0 74 51 122.5t129 48.5q79 0 130 -48.5t51 -122.5q0 -75 -51 -123.5t-130 -48.5zM359 1163q-78 0 -129 48.5t-51 123.5q0 74 51 122.5t129 48.5q79 0 130 -48.5t51 -122.5q0 -75 -51 -123.5
t-130 -48.5z" />
    <glyph glyph-name="igrave" unicode="&#xec;" horiz-adv-x="536" 
d="M96 0v1056h344v-1056h-344zM168 1184l-279 319h327l187 -319h-235z" />
    <glyph glyph-name="iacute" unicode="&#xed;" horiz-adv-x="536" 
d="M96 0v1056h344v-1056h-344zM133 1184l187 319h326l-278 -319h-235z" />
    <glyph glyph-name="icircumflex" unicode="&#xee;" horiz-adv-x="536" 
d="M96 0v1056h344v-1056h-344zM141 1189h-257v1l249 313h264l255 -313v-1h-257l-130 164z" />
    <glyph glyph-name="idieresis" unicode="&#xef;" horiz-adv-x="536" 
d="M96 0v1056h344v-1056h-344zM496 1163q-78 0 -129 48.5t-51 123.5q0 74 51 122.5t129 48.5q79 0 130 -48.5t51 -122.5q0 -75 -51 -123.5t-130 -48.5zM40 1163q-78 0 -129 48.5t-51 123.5q0 74 51 122.5t129 48.5q79 0 130 -48.5t51 -122.5q0 -75 -51 -123.5t-130 -48.5z
" />
    <glyph glyph-name="eth" unicode="&#xf0;" horiz-adv-x="1200" 
d="M928 1399l-151 -78q165 -131 267.5 -318.5t102.5 -423.5q0 -181 -66.5 -316.5t-190.5 -210.5t-296 -76q-163 1 -284.5 68t-189.5 187.5t-68 280.5q0 145 56.5 263t159 187t239.5 69q96 0 166.5 -34.5t114.5 -83.5h16q-39 82 -104.5 156t-147.5 136l-328 -170l-12 151
l209 108q-100 59 -206 98l18 176q224 -43 415 -158l268 138zM603 236q105 0 165 80t60 216q0 126 -55.5 208.5t-169.5 82.5q-111 0 -166.5 -79.5t-55.5 -208.5q0 -133 57.5 -216t164.5 -83z" />
    <glyph glyph-name="ntilde" unicode="&#xf1;" horiz-adv-x="1231" 
d="M440 574v-574h-344v1056h340v-171q53 90 135 142t201 52q172 0 267.5 -110t95.5 -305v-664h-344v592q0 94 -45 143.5t-127 49.5q-81 0 -130 -51.5t-49 -159.5zM758 1202q-69 0 -115 27.5t-80 55.5t-68 28q-33 0 -50.5 -28t-19.5 -76h-180q3 141 66 213.5t160 72.5
q70 0 115.5 -27t79.5 -54t68 -27q38 0 54 26t19 76h177q-2 -139 -66.5 -213t-159.5 -74z" />
    <glyph glyph-name="ograve" unicode="&#xf2;" horiz-adv-x="1215" 
d="M608 -24q-166 0 -291 68t-195 192t-70 292q0 166 70 290.5t195 193t291 68.5q165 0 290.5 -68.5t195 -193t69.5 -290.5q0 -168 -69.5 -291.5t-195 -192t-290.5 -68.5zM608 250q90 0 148.5 72t58.5 206t-58.5 206t-148.5 72t-148.5 -72t-58.5 -206t58 -206t149 -72z
M508 1184l-279 319h327l187 -319h-235z" />
    <glyph glyph-name="oacute" unicode="&#xf3;" horiz-adv-x="1215" 
d="M608 -24q-166 0 -291 68t-195 192t-70 292q0 166 70 290.5t195 193t291 68.5q165 0 290.5 -68.5t195 -193t69.5 -290.5q0 -168 -69.5 -291.5t-195 -192t-290.5 -68.5zM608 250q90 0 148.5 72t58.5 206t-58.5 206t-148.5 72t-148.5 -72t-58.5 -206t58 -206t149 -72z
M473 1184l187 319h326l-278 -319h-235z" />
    <glyph glyph-name="ocircumflex" unicode="&#xf4;" horiz-adv-x="1215" 
d="M608 -24q-166 0 -291 68t-195 192t-70 292q0 166 70 290.5t195 193t291 68.5q165 0 290.5 -68.5t195 -193t69.5 -290.5q0 -168 -69.5 -291.5t-195 -192t-290.5 -68.5zM608 250q90 0 148.5 72t58.5 206t-58.5 206t-148.5 72t-148.5 -72t-58.5 -206t58 -206t149 -72z
M480 1189h-257v1l249 313h264l255 -313v-1h-257l-130 164z" />
    <glyph glyph-name="otilde" unicode="&#xf5;" horiz-adv-x="1215" 
d="M608 -24q-166 0 -291 68t-195 192t-70 292q0 166 70 290.5t195 193t291 68.5q165 0 290.5 -68.5t195 -193t69.5 -290.5q0 -168 -69.5 -291.5t-195 -192t-290.5 -68.5zM608 250q90 0 148.5 72t58.5 206t-58.5 206t-148.5 72t-148.5 -72t-58.5 -206t58 -206t149 -72z
M751 1202q-69 0 -115 27.5t-80 55.5t-68 28q-33 0 -50.5 -28t-19.5 -76h-180q3 141 66 213.5t160 72.5q70 0 115.5 -27t79.5 -54t68 -27q38 0 54 26t19 76h177q-2 -139 -66.5 -213t-159.5 -74z" />
    <glyph glyph-name="odieresis" unicode="&#xf6;" horiz-adv-x="1215" 
d="M608 -24q-166 0 -291 68t-195 192t-70 292q0 166 70 290.5t195 193t291 68.5q165 0 290.5 -68.5t195 -193t69.5 -290.5q0 -168 -69.5 -291.5t-195 -192t-290.5 -68.5zM608 250q90 0 148.5 72t58.5 206t-58.5 206t-148.5 72t-148.5 -72t-58.5 -206t58 -206t149 -72z
M835 1163q-78 0 -129 48.5t-51 123.5q0 74 51 122.5t129 48.5q79 0 130 -48.5t51 -122.5q0 -75 -51 -123.5t-130 -48.5zM379 1163q-78 0 -129 48.5t-51 123.5q0 74 51 122.5t129 48.5q79 0 130 -48.5t51 -122.5q0 -75 -51 -123.5t-130 -48.5z" />
    <glyph glyph-name="divide" unicode="&#xf7;" horiz-adv-x="1364" 
d="M1202 734v-269h-1041v269h1041zM682 825q-78 0 -133 55t-55 133q0 77 55 131.5t133 54.5q77 0 131 -54.5t54 -131.5q0 -78 -54 -133t-131 -55zM867 189q0 -79 -54.5 -133.5t-130.5 -55.5q-79 1 -133.5 55.5t-54.5 133.5q0 76 54.5 130.5t133.5 54.5q76 0 130.5 -54.5
t54.5 -130.5z" />
    <glyph glyph-name="oslash" unicode="&#xf8;" horiz-adv-x="1215" 
d="M608 -24q-166 0 -291 68t-195 192t-70 292q0 166 70 290.5t195 193t291 68.5q165 0 290.5 -68.5t195 -193t69.5 -290.5q0 -168 -69.5 -291.5t-195 -192t-290.5 -68.5zM608 250q90 0 148.5 72t58.5 206t-58.5 206t-148.5 72t-148.5 -72t-58.5 -206t58 -206t149 -72z
M163 -51l-108 102l997 1056l107 -102z" />
    <glyph glyph-name="ugrave" unicode="&#xf9;" horiz-adv-x="1231" 
d="M459 -23q-172 0 -267.5 110t-95.5 305v664h344v-592q0 -94 45 -143.5t127 -49.5q81 0 130 51.5t49 159.5v574h344v-1056h-340v171q-53 -90 -135 -142t-201 -52zM515 1184l-279 319h327l187 -319h-235z" />
    <glyph glyph-name="uacute" unicode="&#xfa;" horiz-adv-x="1231" 
d="M459 -23q-172 0 -267.5 110t-95.5 305v664h344v-592q0 -94 45 -143.5t127 -49.5q81 0 130 51.5t49 159.5v574h344v-1056h-340v171q-53 -90 -135 -142t-201 -52zM480 1184l187 319h326l-278 -319h-235z" />
    <glyph glyph-name="ucircumflex" unicode="&#xfb;" horiz-adv-x="1231" 
d="M459 -23q-172 0 -267.5 110t-95.5 305v664h344v-592q0 -94 45 -143.5t127 -49.5q81 0 130 51.5t49 159.5v574h344v-1056h-340v171q-53 -90 -135 -142t-201 -52zM488 1189h-257v1l249 313h264l255 -313v-1h-257l-130 164z" />
    <glyph glyph-name="udieresis" unicode="&#xfc;" horiz-adv-x="1231" 
d="M459 -23q-172 0 -267.5 110t-95.5 305v664h344v-592q0 -94 45 -143.5t127 -49.5q81 0 130 51.5t49 159.5v574h344v-1056h-340v171q-53 -90 -135 -142t-201 -52zM843 1163q-78 0 -129 48.5t-51 123.5q0 74 51 122.5t129 48.5q79 0 130 -48.5t51 -122.5q0 -75 -51 -123.5
t-130 -48.5zM387 1163q-78 0 -129 48.5t-51 123.5q0 74 51 122.5t129 48.5q79 0 130 -48.5t51 -122.5q0 -75 -51 -123.5t-130 -48.5z" />
    <glyph glyph-name="yacute" unicode="&#xfd;" horiz-adv-x="1170" 
d="M129 -418v267h146q54 0 76 23.5t41 81.5l18 48l-406 1054h360l156 -486q17 -55 33 -110t32 -111q15 56 31.5 111t33.5 110l159 486h356l-455 -1205q-54 -143 -135.5 -206t-214.5 -63h-231zM425 1184l187 319h326l-278 -319h-235z" />
    <glyph glyph-name="thorn" unicode="&#xfe;" horiz-adv-x="1252" 
d="M744 -23q-215 0 -299 180h-3v-575h-346v1908h346v-572h4q96 161 301 161q133 0 235.5 -70t160 -194t57.5 -285q0 -167 -56.5 -291.5t-159 -193t-240.5 -68.5zM647 252q95 0 150 74t55 204q0 129 -55 202t-150 73q-98 0 -158.5 -75t-60.5 -200q0 -127 60.5 -202.5
t158.5 -75.5z" />
    <glyph glyph-name="ydieresis" unicode="&#xff;" horiz-adv-x="1170" 
d="M129 -418v267h146q54 0 76 23.5t41 81.5l18 48l-406 1054h360l156 -486q17 -55 33 -110t32 -111q15 56 31.5 111t33.5 110l159 486h356l-455 -1205q-54 -143 -135.5 -206t-214.5 -63h-231zM788 1163q-78 0 -129 48.5t-51 123.5q0 74 51 122.5t129 48.5q79 0 130 -48.5
t51 -122.5q0 -75 -51 -123.5t-130 -48.5zM332 1163q-78 0 -129 48.5t-51 123.5q0 74 51 122.5t129 48.5q79 0 130 -48.5t51 -122.5q0 -75 -51 -123.5t-130 -48.5z" />
    <glyph glyph-name="Amacron" unicode="&#x100;" horiz-adv-x="1511" 
d="M5 0l512 1490h474l515 -1490h-402l-88 287h-529l-91 -287h-391zM577 568h352l-27 87q-37 125 -73.5 250t-73.5 262q-38 -137 -75 -262t-76 -250zM1051 1865v-210h-589v210h589z" />
    <glyph glyph-name="amacron" unicode="&#x101;" horiz-adv-x="1162" 
d="M419 -18q-159 0 -260.5 77.5t-101.5 235.5q0 119 55.5 188t148.5 102t206 42q142 12 200 29t58 65v5q0 47 -39.5 76.5t-107.5 29.5q-72 0 -114.5 -32t-47.5 -86h-320q11 172 137.5 268.5t356.5 96.5t353 -96.5t123 -271.5v-711h-336v148h-4q-47 -85 -121 -125.5
t-186 -40.5zM524 207q86 0 145 47.5t59 125.5v96q-27 -13 -75 -23t-112 -21q-69 -11 -113.5 -40t-44.5 -81q0 -49 39 -76.5t102 -27.5zM870 1431v-210h-589v210h589z" />
    <glyph glyph-name="Abreve" unicode="&#x102;" horiz-adv-x="1511" 
d="M5 0l512 1490h474l515 -1490h-402l-88 287h-529l-91 -287h-391zM577 568h352l-27 87q-37 125 -73.5 250t-73.5 262q-38 -137 -75 -262t-76 -250zM757 1610q-105 0 -187.5 42.5t-131 115.5t-48.5 163h198q0 -65 47.5 -105.5t121.5 -40.5q73 0 120 40.5t47 105.5h199
q0 -90 -48 -163t-131 -115.5t-187 -42.5z" />
    <glyph glyph-name="abreve" unicode="&#x103;" horiz-adv-x="1162" 
d="M419 -18q-159 0 -260.5 77.5t-101.5 235.5q0 119 55.5 188t148.5 102t206 42q142 12 200 29t58 65v5q0 47 -39.5 76.5t-107.5 29.5q-72 0 -114.5 -32t-47.5 -86h-320q11 172 137.5 268.5t356.5 96.5t353 -96.5t123 -271.5v-711h-336v148h-4q-47 -85 -121 -125.5
t-186 -40.5zM524 207q86 0 145 47.5t59 125.5v96q-27 -13 -75 -23t-112 -21q-69 -11 -113.5 -40t-44.5 -81q0 -49 39 -76.5t102 -27.5zM576 1176q-105 0 -187.5 42.5t-131 115.5t-48.5 163h198q0 -65 47.5 -105.5t121.5 -40.5q73 0 120 40.5t47 105.5h199q0 -90 -48 -163
t-131 -115.5t-187 -42.5z" />
    <glyph glyph-name="Aogonek" unicode="&#x104;" horiz-adv-x="1511" 
d="M5 0l512 1490h474l515 -1490h-402l-88 287h-529l-91 -287h-391zM577 568h352l-27 87q-37 125 -73.5 250t-73.5 262q-38 -137 -75 -262t-76 -250zM1326 -418q-145 0 -227 52t-82 157q0 72 34.5 125t89.5 106l365 -22q-78 -48 -108 -81t-30 -69q0 -61 80 -61h58v-207h-180z
" />
    <glyph glyph-name="aogonek" unicode="&#x105;" horiz-adv-x="1162" 
d="M419 -18q-159 0 -260.5 77.5t-101.5 235.5q0 119 55.5 188t148.5 102t206 42q142 12 200 29t58 65v5q0 47 -39.5 76.5t-107.5 29.5q-72 0 -114.5 -32t-47.5 -86h-320q11 172 137.5 268.5t356.5 96.5t353 -96.5t123 -271.5v-711h-336v148h-4q-47 -85 -121 -125.5
t-186 -40.5zM524 207q86 0 145 47.5t59 125.5v96q-27 -13 -75 -23t-112 -21q-69 -11 -113.5 -40t-44.5 -81q0 -49 39 -76.5t102 -27.5zM898 -418q-145 0 -224 54.5t-79 154.5q0 67 35 119.5t99 105.5l337 -16q-78 -49 -108 -81.5t-30 -68.5q0 -61 80 -61h58v-207h-168z" />
    <glyph glyph-name="Cacute" unicode="&#x106;" horiz-adv-x="1490" 
d="M768 -24q-205 0 -366.5 91.5t-255.5 263.5t-94 413q0 243 94 415.5t255.5 263.5t366.5 91q182 0 326 -70.5t234.5 -198t112.5 -298.5h-363q-23 120 -103.5 186.5t-200.5 66.5q-172 0 -266 -121.5t-94 -334.5q0 -212 93.5 -333t266.5 -121q120 0 200.5 66t104.5 185h362
q-23 -171 -113.5 -298t-234 -197t-325.5 -70zM623 1618l187 319h326l-278 -319h-235z" />
    <glyph glyph-name="cacute" unicode="&#x107;" horiz-adv-x="1164" 
d="M598 -24q-164 0 -286.5 69.5t-191 193.5t-68.5 289q0 164 68.5 288.5t191.5 194t286 69.5q147 0 261 -56t181.5 -155t75.5 -228h-332q-8 75 -55.5 120.5t-123.5 45.5q-97 0 -150.5 -74.5t-53.5 -204.5t54 -204.5t150 -74.5q76 0 122 46t56 123h333q-4 -129 -70.5 -228.5
t-182 -156.5t-265.5 -57zM463 1184l187 319h326l-278 -319h-235z" />
    <glyph glyph-name="Ccircumflex" unicode="&#x108;" horiz-adv-x="1490" 
d="M768 -24q-205 0 -366.5 91.5t-255.5 263.5t-94 413q0 243 94 415.5t255.5 263.5t366.5 91q182 0 326 -70.5t234.5 -198t112.5 -298.5h-363q-23 120 -103.5 186.5t-200.5 66.5q-172 0 -266 -121.5t-94 -334.5q0 -212 93.5 -333t266.5 -121q120 0 200.5 66t104.5 185h362
q-23 -171 -113.5 -298t-234 -197t-325.5 -70zM631 1623h-257v1l249 313h264l255 -313v-1h-257l-130 164z" />
    <glyph glyph-name="ccircumflex" unicode="&#x109;" horiz-adv-x="1164" 
d="M598 -24q-164 0 -286.5 69.5t-191 193.5t-68.5 289q0 164 68.5 288.5t191.5 194t286 69.5q147 0 261 -56t181.5 -155t75.5 -228h-332q-8 75 -55.5 120.5t-123.5 45.5q-97 0 -150.5 -74.5t-53.5 -204.5t54 -204.5t150 -74.5q76 0 122 46t56 123h333q-4 -129 -70.5 -228.5
t-182 -156.5t-265.5 -57zM471 1189h-257v1l249 313h264l255 -313v-1h-257l-130 164z" />
    <glyph glyph-name="Cdotaccent" unicode="&#x10a;" horiz-adv-x="1490" 
d="M768 -24q-205 0 -366.5 91.5t-255.5 263.5t-94 413q0 243 94 415.5t255.5 263.5t366.5 91q182 0 326 -70.5t234.5 -198t112.5 -298.5h-363q-23 120 -103.5 186.5t-200.5 66.5q-172 0 -266 -121.5t-94 -334.5q0 -212 93.5 -333t266.5 -121q120 0 200.5 66t104.5 185h362
q-23 -171 -113.5 -298t-234 -197t-325.5 -70zM757 1593q-82 0 -135.5 49t-53.5 125t53.5 124.5t135.5 48.5q83 0 136.5 -48.5t53.5 -124.5t-53.5 -125t-136.5 -49z" />
    <glyph glyph-name="cdotaccent" unicode="&#x10b;" horiz-adv-x="1164" 
d="M598 -24q-164 0 -286.5 69.5t-191 193.5t-68.5 289q0 164 68.5 288.5t191.5 194t286 69.5q147 0 261 -56t181.5 -155t75.5 -228h-332q-8 75 -55.5 120.5t-123.5 45.5q-97 0 -150.5 -74.5t-53.5 -204.5t54 -204.5t150 -74.5q76 0 122 46t56 123h333q-4 -129 -70.5 -228.5
t-182 -156.5t-265.5 -57zM597 1159q-82 0 -135.5 49t-53.5 125t53.5 124.5t135.5 48.5q83 0 136.5 -48.5t53.5 -124.5t-53.5 -125t-136.5 -49z" />
    <glyph glyph-name="Ccaron" unicode="&#x10c;" horiz-adv-x="1490" 
d="M768 -24q-205 0 -366.5 91.5t-255.5 263.5t-94 413q0 243 94 415.5t255.5 263.5t366.5 91q182 0 326 -70.5t234.5 -198t112.5 -298.5h-363q-23 120 -103.5 186.5t-200.5 66.5q-172 0 -266 -121.5t-94 -334.5q0 -212 93.5 -333t266.5 -121q120 0 200.5 66t104.5 185h362
q-23 -171 -113.5 -298t-234 -197t-325.5 -70zM631 1937l124 -164l130 164h257v-1l-255 -313h-264l-249 313v1h257z" />
    <glyph glyph-name="ccaron" unicode="&#x10d;" horiz-adv-x="1164" 
d="M598 -24q-164 0 -286.5 69.5t-191 193.5t-68.5 289q0 164 68.5 288.5t191.5 194t286 69.5q147 0 261 -56t181.5 -155t75.5 -228h-332q-8 75 -55.5 120.5t-123.5 45.5q-97 0 -150.5 -74.5t-53.5 -204.5t54 -204.5t150 -74.5q76 0 122 46t56 123h333q-4 -129 -70.5 -228.5
t-182 -156.5t-265.5 -57zM471 1503l124 -164l130 164h257v-1l-255 -313h-264l-249 313v1h257z" />
    <glyph glyph-name="Dcaron" unicode="&#x10e;" horiz-adv-x="1445" 
d="M649 0h-553v1490h553q227 0 394 -91.5t258.5 -258.5t91.5 -395t-90.5 -395t-257.5 -258.5t-396 -91.5zM456 300h175q205 0 302.5 112.5t97.5 332.5t-99 332.5t-305 112.5h-171v-890zM458 1937l124 -164l130 164h257v-1l-255 -313h-264l-249 313v1h257z" />
    <glyph glyph-name="dcaron" unicode="&#x10f;" horiz-adv-x="1527" 
d="M509 -23q-139 0 -241.5 68.5t-159 193t-56.5 291.5q0 161 58 285t160 194t236 70q204 0 303 -165h1v576h345v-1490h-341v163h-1q-41 -93 -120.5 -139.5t-183.5 -46.5zM605 252q98 0 158.5 75.5t60.5 202.5q0 125 -60.5 200t-158.5 75q-95 0 -149.5 -73t-54.5 -202
q0 -130 54.5 -204t149.5 -74zM1279 1182v386h249l-53 -386h-196z" />
    <glyph glyph-name="Dcroat" unicode="&#x110;" horiz-adv-x="1445" 
d="M649 0h-553v1490h553q227 0 394 -91.5t258.5 -258.5t91.5 -395t-90.5 -395t-257.5 -258.5t-396 -91.5zM456 300h175q205 0 302.5 112.5t97.5 332.5t-99 332.5t-305 112.5h-171v-890zM-4 633v224h903v-224h-903z" />
    <glyph glyph-name="dcroat" unicode="&#x111;" horiz-adv-x="1251" 
d="M509 -23q-139 0 -241.5 68.5t-159 193t-56.5 291.5q0 161 58 285t160 194t236 70q204 0 303 -165h1v576h345v-1490h-341v163h-1q-41 -93 -120.5 -139.5t-183.5 -46.5zM605 252q98 0 158.5 75.5t60.5 202.5q0 125 -60.5 200t-158.5 75q-95 0 -149.5 -73t-54.5 -202
q0 -130 54.5 -204t149.5 -74zM484 1162v200h809v-200h-809z" />
    <glyph glyph-name="Emacron" unicode="&#x112;" horiz-adv-x="1268" 
d="M96 0v1490h1110v-306h-750v-287h693v-297h-693v-294h750v-306h-1110zM945 1865v-210h-589v210h589z" />
    <glyph glyph-name="emacron" unicode="&#x113;" horiz-adv-x="1171" 
d="M596 -24q-162 0 -284.5 71t-191 195.5t-68.5 285.5t68.5 285.5t189.5 195.5t277 71q159 0 279.5 -69.5t188.5 -192t68 -282.5v-93h-735q3 -101 60.5 -160t159.5 -59q76 0 127.5 31t70.5 83h309q-19 -106 -92 -188t-183.5 -128t-243.5 -46zM390 649h412q-12 83 -66 130
t-140 47q-87 0 -141 -47t-65 -130zM882 1431v-210h-589v210h589z" />
    <glyph glyph-name="Ebreve" unicode="&#x114;" horiz-adv-x="1268" 
d="M96 0v1490h1110v-306h-750v-287h693v-297h-693v-294h750v-306h-1110zM651 1610q-105 0 -187.5 42.5t-131 115.5t-48.5 163h198q0 -65 47.5 -105.5t121.5 -40.5q73 0 120 40.5t47 105.5h199q0 -90 -48 -163t-131 -115.5t-187 -42.5z" />
    <glyph glyph-name="ebreve" unicode="&#x115;" horiz-adv-x="1171" 
d="M596 -24q-162 0 -284.5 71t-191 195.5t-68.5 285.5t68.5 285.5t189.5 195.5t277 71q159 0 279.5 -69.5t188.5 -192t68 -282.5v-93h-735q3 -101 60.5 -160t159.5 -59q76 0 127.5 31t70.5 83h309q-19 -106 -92 -188t-183.5 -128t-243.5 -46zM390 649h412q-12 83 -66 130
t-140 47q-87 0 -141 -47t-65 -130zM587 1176q-105 0 -187.5 42.5t-131 115.5t-48.5 163h198q0 -65 47.5 -105.5t121.5 -40.5q73 0 120 40.5t47 105.5h199q0 -90 -48 -163t-131 -115.5t-187 -42.5z" />
    <glyph glyph-name="Edotaccent" unicode="&#x116;" horiz-adv-x="1268" 
d="M96 0v1490h1110v-306h-750v-287h693v-297h-693v-294h750v-306h-1110zM650 1593q-82 0 -135.5 49t-53.5 125t53.5 124.5t135.5 48.5q83 0 136.5 -48.5t53.5 -124.5t-53.5 -125t-136.5 -49z" />
    <glyph glyph-name="edotaccent" unicode="&#x117;" horiz-adv-x="1171" 
d="M596 -24q-162 0 -284.5 71t-191 195.5t-68.5 285.5t68.5 285.5t189.5 195.5t277 71q159 0 279.5 -69.5t188.5 -192t68 -282.5v-93h-735q3 -101 60.5 -160t159.5 -59q76 0 127.5 31t70.5 83h309q-19 -106 -92 -188t-183.5 -128t-243.5 -46zM390 649h412q-12 83 -66 130
t-140 47q-87 0 -141 -47t-65 -130zM586 1159q-82 0 -135.5 49t-53.5 125t53.5 124.5t135.5 48.5q83 0 136.5 -48.5t53.5 -124.5t-53.5 -125t-136.5 -49z" />
    <glyph glyph-name="Eogonek" unicode="&#x118;" horiz-adv-x="1268" 
d="M96 0v1490h1110v-306h-750v-287h693v-297h-693v-294h750v-306h-1110zM1038 -418q-145 0 -224 54.5t-79 154.5q0 69 37.5 127.5t108.5 115.5l325 -34q-78 -48 -108 -81t-30 -69q0 -61 80 -61h58v-207h-168z" />
    <glyph glyph-name="eogonek" unicode="&#x119;" horiz-adv-x="1171" 
d="M596 -24q-162 0 -284.5 71t-191 195.5t-68.5 285.5t68.5 285.5t189.5 195.5t277 71q159 0 279.5 -69.5t188.5 -192t68 -282.5v-93h-735q3 -101 60.5 -160t159.5 -59q76 0 127.5 31t70.5 83h309q-19 -106 -92 -188t-183.5 -128t-243.5 -46zM390 649h412q-12 83 -66 130
t-140 47q-87 0 -141 -47t-65 -130zM891 -418q-149 0 -228.5 54t-79.5 154q0 69 33.5 120.5t83.5 110.5l415 317q-13 -79 -46 -149t-69.5 -131.5t-62.5 -113.5t-26 -94q0 -61 84 -61h57v-207h-161z" />
    <glyph glyph-name="Ecaron" unicode="&#x11a;" horiz-adv-x="1268" 
d="M96 0v1490h1110v-306h-750v-287h693v-297h-693v-294h750v-306h-1110zM524 1937l124 -164l130 164h257v-1l-255 -313h-264l-249 313v1h257z" />
    <glyph glyph-name="ecaron" unicode="&#x11b;" horiz-adv-x="1171" 
d="M596 -24q-162 0 -284.5 71t-191 195.5t-68.5 285.5t68.5 285.5t189.5 195.5t277 71q159 0 279.5 -69.5t188.5 -192t68 -282.5v-93h-735q3 -101 60.5 -160t159.5 -59q76 0 127.5 31t70.5 83h309q-19 -106 -92 -188t-183.5 -128t-243.5 -46zM390 649h412q-12 83 -66 130
t-140 47q-87 0 -141 -47t-65 -130zM460 1503l124 -164l130 164h257v-1l-255 -313h-264l-249 313v1h257z" />
    <glyph glyph-name="Gcircumflex" unicode="&#x11c;" horiz-adv-x="1511" 
d="M772 -24q-216 0 -378 95t-252 267.5t-90 405.5q0 243 94 415.5t255.5 263.5t364.5 91q176 0 321.5 -66.5t238.5 -185.5t109 -278h-366q-20 99 -94.5 157.5t-195.5 58.5q-174 0 -269.5 -120.5t-95.5 -335.5t96.5 -334.5t272.5 -119.5q142 0 225.5 71t85.5 186h-298v264
h650v-202q0 -189 -85.5 -331.5t-237.5 -222t-351 -79.5zM629 1623h-257v1l249 313h264l255 -313v-1h-257l-130 164z" />
    <glyph glyph-name="gcircumflex" unicode="&#x11d;" horiz-adv-x="1251" 
d="M617 -432q-244 0 -366.5 99t-146.5 251h329q14 -49 62 -77.5t122 -28.5q196 0 196 212v163h-1q-42 -94 -121 -137t-182 -43q-139 0 -241.5 68.5t-159 188.5t-56.5 275q0 157 58 279t160 191.5t236 69.5q205 0 306 -171h1v148h342v-998q0 -258 -145.5 -374t-392.5 -116z
M605 277q98 0 158.5 72.5t60.5 195.5q0 121 -60.5 194t-158.5 73q-95 0 -149.5 -71t-54.5 -196q0 -126 54.5 -197t149.5 -71zM477 1189h-257v1l249 313h264l255 -313v-1h-257l-130 164z" />
    <glyph glyph-name="Gbreve" unicode="&#x11e;" horiz-adv-x="1511" 
d="M772 -24q-216 0 -378 95t-252 267.5t-90 405.5q0 243 94 415.5t255.5 263.5t364.5 91q176 0 321.5 -66.5t238.5 -185.5t109 -278h-366q-20 99 -94.5 157.5t-195.5 58.5q-174 0 -269.5 -120.5t-95.5 -335.5t96.5 -334.5t272.5 -119.5q142 0 225.5 71t85.5 186h-298v264
h650v-202q0 -189 -85.5 -331.5t-237.5 -222t-351 -79.5zM757 1610q-105 0 -187.5 42.5t-131 115.5t-48.5 163h198q0 -65 47.5 -105.5t121.5 -40.5q73 0 120 40.5t47 105.5h199q0 -90 -48 -163t-131 -115.5t-187 -42.5z" />
    <glyph glyph-name="gbreve" unicode="&#x11f;" horiz-adv-x="1251" 
d="M617 -432q-244 0 -366.5 99t-146.5 251h329q14 -49 62 -77.5t122 -28.5q196 0 196 212v163h-1q-42 -94 -121 -137t-182 -43q-139 0 -241.5 68.5t-159 188.5t-56.5 275q0 157 58 279t160 191.5t236 69.5q205 0 306 -171h1v148h342v-998q0 -258 -145.5 -374t-392.5 -116z
M605 277q98 0 158.5 72.5t60.5 195.5q0 121 -60.5 194t-158.5 73q-95 0 -149.5 -71t-54.5 -196q0 -126 54.5 -197t149.5 -71zM604 1176q-105 0 -187.5 42.5t-131 115.5t-48.5 163h198q0 -65 47.5 -105.5t121.5 -40.5q73 0 120 40.5t47 105.5h199q0 -90 -48 -163t-131 -115.5
t-187 -42.5z" />
    <glyph glyph-name="Gdotaccent" unicode="&#x120;" horiz-adv-x="1511" 
d="M772 -24q-216 0 -378 95t-252 267.5t-90 405.5q0 243 94 415.5t255.5 263.5t364.5 91q176 0 321.5 -66.5t238.5 -185.5t109 -278h-366q-20 99 -94.5 157.5t-195.5 58.5q-174 0 -269.5 -120.5t-95.5 -335.5t96.5 -334.5t272.5 -119.5q142 0 225.5 71t85.5 186h-298v264
h650v-202q0 -189 -85.5 -331.5t-237.5 -222t-351 -79.5zM755 1593q-82 0 -135.5 49t-53.5 125t53.5 124.5t135.5 48.5q83 0 136.5 -48.5t53.5 -124.5t-53.5 -125t-136.5 -49z" />
    <glyph glyph-name="gdotaccent" unicode="&#x121;" horiz-adv-x="1251" 
d="M617 -432q-244 0 -366.5 99t-146.5 251h329q14 -49 62 -77.5t122 -28.5q196 0 196 212v163h-1q-42 -94 -121 -137t-182 -43q-139 0 -241.5 68.5t-159 188.5t-56.5 275q0 157 58 279t160 191.5t236 69.5q205 0 306 -171h1v148h342v-998q0 -258 -145.5 -374t-392.5 -116z
M605 277q98 0 158.5 72.5t60.5 195.5q0 121 -60.5 194t-158.5 73q-95 0 -149.5 -71t-54.5 -196q0 -126 54.5 -197t149.5 -71zM603 1159q-82 0 -135.5 49t-53.5 125t53.5 124.5t135.5 48.5q83 0 136.5 -48.5t53.5 -124.5t-53.5 -125t-136.5 -49z" />
    <glyph glyph-name="uni0122" unicode="&#x122;" horiz-adv-x="1511" 
d="M772 -24q-216 0 -378 95t-252 267.5t-90 405.5q0 243 94 415.5t255.5 263.5t364.5 91q176 0 321.5 -66.5t238.5 -185.5t109 -278h-366q-20 99 -94.5 157.5t-195.5 58.5q-174 0 -269.5 -120.5t-95.5 -335.5t96.5 -334.5t272.5 -119.5q142 0 225.5 71t85.5 186h-298v264
h650v-202q0 -189 -85.5 -331.5t-237.5 -222t-351 -79.5zM506 -473l92 355h316l-170 -355h-238z" />
    <glyph glyph-name="uni0123" unicode="&#x123;" horiz-adv-x="1251" 
d="M617 -432q-244 0 -366.5 99t-146.5 251h329q14 -49 62 -77.5t122 -28.5q196 0 196 212v163h-1q-42 -94 -121 -137t-182 -43q-139 0 -241.5 68.5t-159 188.5t-56.5 275q0 157 58 279t160 191.5t236 69.5q205 0 306 -171h1v148h342v-998q0 -258 -145.5 -374t-392.5 -116z
M605 277q98 0 158.5 72.5t60.5 195.5q0 121 -60.5 194t-158.5 73q-95 0 -149.5 -71t-54.5 -196q0 -126 54.5 -197t149.5 -71zM487 1174v142q0 127 40.5 208.5t102.5 123.5l167 -75q-24 -39 -51.5 -108.5t-27.5 -161.5v-129h-231z" />
    <glyph glyph-name="Hcircumflex" unicode="&#x124;" horiz-adv-x="1479" 
d="M96 0v1490h360v-579h567v579h360v-1490h-360v605h-567v-605h-360zM612 1623h-257v1l249 313h264l255 -313v-1h-257l-130 164z" />
    <glyph glyph-name="hcircumflex" unicode="&#x125;" horiz-adv-x="1231" 
d="M440 574v-574h-344v1490h344v-597q53 87 134 136.5t198 49.5q172 0 267.5 -110t95.5 -305v-664h-344v592q0 94 -45 143.5t-127 49.5q-81 0 -130 -51.5t-49 -159.5zM141 1623h-257v1l249 313h264l255 -313v-1h-257l-130 164z" />
    <glyph glyph-name="Hbar" unicode="&#x126;" horiz-adv-x="1631" 
d="M1588 1246v-182h-136v-1064h-360v605h-567v-605h-360v1064h-123v182h123v244h360v-244h567v244h360v-244h136zM1092 1064h-567v-153h567v153z" />
    <glyph glyph-name="hbar" unicode="&#x127;" horiz-adv-x="1231" 
d="M440 574v-574h-344v1490h344v-597q53 87 134 136.5t198 49.5q172 0 267.5 -110t95.5 -305v-664h-344v592q0 94 -45 143.5t-127 49.5q-81 0 -130 -51.5t-49 -159.5zM-44 1162v200h809v-200h-809z" />
    <glyph glyph-name="Itilde" unicode="&#x128;" horiz-adv-x="552" 
d="M456 1490v-1490h-360v1490h360zM420 1636q-69 0 -115 27.5t-80 55.5t-68 28q-33 0 -50.5 -28t-19.5 -76h-180q3 141 66 213.5t160 72.5q70 0 115.5 -27t79.5 -54t68 -27q38 0 54 26t19 76h177q-2 -139 -66.5 -213t-159.5 -74z" />
    <glyph glyph-name="itilde" unicode="&#x129;" horiz-adv-x="536" 
d="M96 0v1056h344v-1056h-344zM412 1202q-69 0 -115 27.5t-80 55.5t-68 28q-33 0 -50.5 -28t-19.5 -76h-180q3 141 66 213.5t160 72.5q70 0 115.5 -27t79.5 -54t68 -27q38 0 54 26t19 76h177q-2 -139 -66.5 -213t-159.5 -74z" />
    <glyph glyph-name="Imacron" unicode="&#x12a;" horiz-adv-x="552" 
d="M456 1490v-1490h-360v1490h360zM570 1865v-210h-589v210h589z" />
    <glyph glyph-name="imacron" unicode="&#x12b;" horiz-adv-x="536" 
d="M96 0v1056h344v-1056h-344zM562 1431v-210h-589v210h589z" />
    <glyph glyph-name="Ibreve" unicode="&#x12c;" horiz-adv-x="552" 
d="M456 1490v-1490h-360v1490h360zM276 1610q-105 0 -187.5 42.5t-131 115.5t-48.5 163h198q0 -65 47.5 -105.5t121.5 -40.5q73 0 120 40.5t47 105.5h199q0 -90 -48 -163t-131 -115.5t-187 -42.5z" />
    <glyph glyph-name="ibreve" unicode="&#x12d;" horiz-adv-x="536" 
d="M96 0v1056h344v-1056h-344zM268 1176q-105 0 -187.5 42.5t-131 115.5t-48.5 163h198q0 -65 47.5 -105.5t121.5 -40.5q73 0 120 40.5t47 105.5h199q0 -90 -48 -163t-131 -115.5t-187 -42.5z" />
    <glyph glyph-name="Iogonek" unicode="&#x12e;" horiz-adv-x="552" 
d="M456 1490v-1490h-360v1490h360zM288 -418q-145 0 -224 54.5t-79 154.5q0 69 37.5 127.5t108.5 115.5l325 -34q-78 -48 -108 -81t-30 -69q0 -61 80 -61h58v-207h-168z" />
    <glyph glyph-name="iogonek" unicode="&#x12f;" horiz-adv-x="536" 
d="M96 0v1056h344v-1056h-344zM273 -418q-145 0 -224 54.5t-79 154.5q0 69 37.5 127.5t108.5 115.5l325 -34q-78 -48 -108 -81t-30 -69q0 -61 80 -61h58v-207h-168zM267 1159q-82 0 -135.5 49t-53.5 125t53.5 124.5t135.5 48.5q83 0 136.5 -48.5t53.5 -124.5t-53.5 -125
t-136.5 -49z" />
    <glyph glyph-name="Idotaccent" unicode="&#x130;" horiz-adv-x="552" 
d="M456 1490v-1490h-360v1490h360zM275 1593q-82 0 -135.5 49t-53.5 125t53.5 124.5t135.5 48.5q83 0 136.5 -48.5t53.5 -124.5t-53.5 -125t-136.5 -49z" />
    <glyph glyph-name="dotlessi" unicode="&#x131;" horiz-adv-x="536" 
d="M96 0v1056h344v-1056h-344z" />
    <glyph glyph-name="IJ" unicode="&#x132;" horiz-adv-x="1726" 
d="M456 1490v-1490h-360v1490h360zM1111 -23q-240 0 -373.5 125.5t-133.5 359.5v109h335v-112q0 -88 44.5 -135t122.5 -47t122 47t44 135v1031h360v-1037q0 -229 -137 -352.5t-384 -123.5z" />
    <glyph glyph-name="ij" unicode="&#x133;" horiz-adv-x="1074" 
d="M96 0v1056h344v-1056h-344zM267 1159q-82 0 -135.5 49t-53.5 125t53.5 124.5t135.5 48.5q83 0 136.5 -48.5t53.5 -124.5t-53.5 -125t-136.5 -49zM633 1056h345v-1120q0 -173 -97 -263.5t-289 -90.5h-135v267h70q56 0 81 28.5t25 93.5v1085zM804 1159q-82 0 -135.5 49
t-53.5 125t53.5 124.5t135.5 48.5q83 0 136.5 -48.5t53.5 -124.5t-53.5 -125t-136.5 -49z" />
    <glyph glyph-name="Jcircumflex" unicode="&#x134;" horiz-adv-x="1174" 
d="M559 -23q-240 0 -373.5 125.5t-133.5 359.5v109h335v-112q0 -88 44.5 -135t122.5 -47t122 47t44 135v1031h360v-1037q0 -229 -137 -352.5t-384 -123.5zM773 1623h-257v1l249 313h264l255 -313v-1h-257l-130 164z" />
    <glyph glyph-name="jcircumflex" unicode="&#x135;" horiz-adv-x="538" 
d="M97 1056h345v-1120q0 -173 -97 -263.5t-289 -90.5h-135v267h70q56 0 81 28.5t25 93.5v1085zM142 1189h-257v1l249 313h264l255 -313v-1h-257l-130 164z" />
    <glyph glyph-name="uni0136" unicode="&#x136;" horiz-adv-x="1446" 
d="M96 0v1490h360v-665q51 64 103 128.5t104 128.5l333 408h423l-539 -642l560 -848h-412l-383 605l-189 -226v-379h-360zM470 -473l92 355h316l-170 -355h-238z" />
    <glyph glyph-name="uni0137" unicode="&#x137;" horiz-adv-x="1163" 
d="M96 0v1490h344v-809h4l321 375h397l-393 -461l410 -595h-397l-269 399l-73 -85v-314h-344zM349 -473l92 355h316l-170 -355h-238z" />
    <glyph glyph-name="kgreenlandic" unicode="&#x138;" horiz-adv-x="1198" 
d="M442 1056v-400h95l278 400h400l-382 -521l380 -535h-417l-251 388h-103v-388h-346v1056h346z" />
    <glyph glyph-name="Lacute" unicode="&#x139;" horiz-adv-x="1158" 
d="M96 0v1490h360v-1184h660v-306h-1020zM141 1618l187 319h326l-278 -319h-235z" />
    <glyph glyph-name="lacute" unicode="&#x13a;" horiz-adv-x="536" 
d="M440 1490v-1490h-344v1490h344zM133 1618l187 319h326l-278 -319h-235z" />
    <glyph glyph-name="uni013B" unicode="&#x13b;" horiz-adv-x="1158" 
d="M96 0v1490h360v-1184h660v-306h-1020zM340 -473l92 355h316l-170 -355h-238z" />
    <glyph glyph-name="uni013C" unicode="&#x13c;" horiz-adv-x="536" 
d="M440 1490v-1490h-344v1490h344zM20 -473l92 355h316l-170 -355h-238z" />
    <glyph glyph-name="Lcaron" unicode="&#x13d;" horiz-adv-x="1158" 
d="M96 0v1490h360v-1184h660v-306h-1020zM665 1182v386h249l-53 -386h-196z" />
    <glyph glyph-name="lcaron" unicode="&#x13e;" horiz-adv-x="812" 
d="M440 1490v-1490h-344v1490h344zM563 1182v386h249l-53 -386h-196z" />
    <glyph glyph-name="Ldot" unicode="&#x13f;" horiz-adv-x="1156" 
d="M102 0v1490h360v-1184h660v-306h-1020zM746 658q-82 0 -135.5 49t-53.5 125t53.5 124.5t135.5 48.5q83 0 136.5 -48.5t53.5 -124.5t-53.5 -125t-136.5 -49z" />
    <glyph glyph-name="ldot" unicode="&#x140;" horiz-adv-x="930" 
d="M440 1490v-1490h-344v1490h344zM707 556q-78 0 -133 55t-55 134q0 78 55 133t133 55t133 -55t55 -133q0 -79 -55 -134t-133 -55z" />
    <glyph glyph-name="Lslash" unicode="&#x141;" horiz-adv-x="1249" 
d="M186 0v1490h360v-1184h660v-306h-1020zM-10 331v293l888 512v-292z" />
    <glyph glyph-name="lslash" unicode="&#x142;" horiz-adv-x="536" 
d="M440 1490v-1490h-344v1490h344zM-41 451v256l618 357v-256z" />
    <glyph glyph-name="Nacute" unicode="&#x143;" horiz-adv-x="1498" 
d="M96 0v1490h372l423 -677q27 -42 70 -118.5t86 -156.5q-2 88 -3.5 172t-1.5 134v646h360v-1490h-373l-388 620q-33 52 -83 139t-108 192q4 -109 5 -196t1 -134v-621h-360zM616 1618l187 319h326l-278 -319h-235z" />
    <glyph glyph-name="nacute" unicode="&#x144;" horiz-adv-x="1231" 
d="M440 574v-574h-344v1056h340v-171q53 90 135 142t201 52q172 0 267.5 -110t95.5 -305v-664h-344v592q0 94 -45 143.5t-127 49.5q-81 0 -130 -51.5t-49 -159.5zM480 1184l187 319h326l-278 -319h-235z" />
    <glyph glyph-name="uni0145" unicode="&#x145;" horiz-adv-x="1498" 
d="M96 0v1490h372l423 -677q27 -42 70 -118.5t86 -156.5q-2 88 -3.5 172t-1.5 134v646h360v-1490h-373l-388 620q-33 52 -83 139t-108 192q4 -109 5 -196t1 -134v-621h-360zM503 -473l92 355h316l-170 -355h-238z" />
    <glyph glyph-name="uni0146" unicode="&#x146;" horiz-adv-x="1231" 
d="M440 574v-574h-344v1056h340v-171q53 90 135 142t201 52q172 0 267.5 -110t95.5 -305v-664h-344v592q0 94 -45 143.5t-127 49.5q-81 0 -130 -51.5t-49 -159.5zM368 -473l92 355h316l-170 -355h-238z" />
    <glyph glyph-name="Ncaron" unicode="&#x147;" horiz-adv-x="1498" 
d="M96 0v1490h372l423 -677q27 -42 70 -118.5t86 -156.5q-2 88 -3.5 172t-1.5 134v646h360v-1490h-373l-388 620q-33 52 -83 139t-108 192q4 -109 5 -196t1 -134v-621h-360zM623 1937l124 -164l130 164h257v-1l-255 -313h-264l-249 313v1h257z" />
    <glyph glyph-name="ncaron" unicode="&#x148;" horiz-adv-x="1231" 
d="M440 574v-574h-344v1056h340v-171q53 90 135 142t201 52q172 0 267.5 -110t95.5 -305v-664h-344v592q0 94 -45 143.5t-127 49.5q-81 0 -130 -51.5t-49 -159.5zM487 1503l124 -164l130 164h257v-1l-255 -313h-264l-249 313v1h257z" />
    <glyph glyph-name="Eng" unicode="&#x14a;" horiz-adv-x="1498" 
d="M824 -418v281h127q91 0 91 86v51h-13l-388 620q-33 52 -83 139t-108 192q4 -109 5 -196t1 -134v-621h-360v1490h372l423 -677q27 -42 70 -118.5t86 -156.5q-2 88 -3.5 172t-1.5 134v646h360v-1560q0 -348 -388 -348h-190z" />
    <glyph glyph-name="eng" unicode="&#x14b;" horiz-adv-x="1231" 
d="M600 -418v276h99q92 0 92 91v643q0 94 -45 143.5t-127 49.5q-81 0 -130 -51.5t-49 -159.5v-574h-344v1056h340v-171q53 90 135 142t201 52q172 0 267.5 -110t95.5 -305v-734q0 -174 -90.5 -261t-284.5 -87h-160z" />
    <glyph glyph-name="Omacron" unicode="&#x14c;" horiz-adv-x="1529" 
d="M765 -24q-202 0 -363.5 91.5t-255.5 263.5t-94 413q0 243 94 415.5t255.5 263.5t363.5 91q201 0 362.5 -91t255.5 -263.5t94 -415.5q0 -242 -94 -414t-255.5 -263t-362.5 -91zM765 290q160 0 255 119t95 335q0 217 -95 336.5t-255 119.5t-255.5 -119.5t-95.5 -336.5
q0 -216 95.5 -335t255.5 -119zM1059 1865v-210h-589v210h589z" />
    <glyph glyph-name="omacron" unicode="&#x14d;" horiz-adv-x="1215" 
d="M608 -24q-166 0 -291 68t-195 192t-70 292q0 166 70 290.5t195 193t291 68.5q165 0 290.5 -68.5t195 -193t69.5 -290.5q0 -168 -69.5 -291.5t-195 -192t-290.5 -68.5zM608 250q90 0 148.5 72t58.5 206t-58.5 206t-148.5 72t-148.5 -72t-58.5 -206t58 -206t149 -72z
M902 1431v-210h-589v210h589z" />
    <glyph glyph-name="Obreve" unicode="&#x14e;" horiz-adv-x="1529" 
d="M765 -24q-202 0 -363.5 91.5t-255.5 263.5t-94 413q0 243 94 415.5t255.5 263.5t363.5 91q201 0 362.5 -91t255.5 -263.5t94 -415.5q0 -242 -94 -414t-255.5 -263t-362.5 -91zM765 290q160 0 255 119t95 335q0 217 -95 336.5t-255 119.5t-255.5 -119.5t-95.5 -336.5
q0 -216 95.5 -335t255.5 -119zM765 1610q-105 0 -187.5 42.5t-131 115.5t-48.5 163h198q0 -65 47.5 -105.5t121.5 -40.5q73 0 120 40.5t47 105.5h199q0 -90 -48 -163t-131 -115.5t-187 -42.5z" />
    <glyph glyph-name="obreve" unicode="&#x14f;" horiz-adv-x="1215" 
d="M608 -24q-166 0 -291 68t-195 192t-70 292q0 166 70 290.5t195 193t291 68.5q165 0 290.5 -68.5t195 -193t69.5 -290.5q0 -168 -69.5 -291.5t-195 -192t-290.5 -68.5zM608 250q90 0 148.5 72t58.5 206t-58.5 206t-148.5 72t-148.5 -72t-58.5 -206t58 -206t149 -72z
M608 1176q-105 0 -187.5 42.5t-131 115.5t-48.5 163h198q0 -65 47.5 -105.5t121.5 -40.5q73 0 120 40.5t47 105.5h199q0 -90 -48 -163t-131 -115.5t-187 -42.5z" />
    <glyph glyph-name="Ohungarumlaut" unicode="&#x150;" horiz-adv-x="1529" 
d="M765 -24q-202 0 -363.5 91.5t-255.5 263.5t-94 413q0 243 94 415.5t255.5 263.5t363.5 91q201 0 362.5 -91t255.5 -263.5t94 -415.5q0 -242 -94 -414t-255.5 -263t-362.5 -91zM765 290q160 0 255 119t95 335q0 217 -95 336.5t-255 119.5t-255.5 -119.5t-95.5 -336.5
q0 -216 95.5 -335t255.5 -119zM1039 1618h-242l206 319h320zM670 1618h-235l140 319h294z" />
    <glyph glyph-name="ohungarumlaut" unicode="&#x151;" horiz-adv-x="1215" 
d="M608 -24q-166 0 -291 68t-195 192t-70 292q0 166 70 290.5t195 193t291 68.5q165 0 290.5 -68.5t195 -193t69.5 -290.5q0 -168 -69.5 -291.5t-195 -192t-290.5 -68.5zM608 250q90 0 148.5 72t58.5 206t-58.5 206t-148.5 72t-148.5 -72t-58.5 -206t58 -206t149 -72z
M882 1184h-242l206 319h320zM513 1184h-235l140 319h294z" />
    <glyph glyph-name="OE" unicode="&#x152;" horiz-adv-x="2138" 
d="M795 0q-228 0 -395 91.5t-257.5 258.5t-90.5 395t91.5 395t258 258.5t393.5 91.5h1280v-306h-750v-287h693v-297h-693v-294h750v-306h-1280zM966 300v890h-148q-206 0 -305.5 -112.5t-99.5 -332.5t97.5 -332.5t303.5 -112.5h152z" />
    <glyph glyph-name="oe" unicode="&#x153;" horiz-adv-x="1943" 
d="M608 -24q-166 0 -291 68t-195 192t-70 292q0 166 70 290.5t195 193t291 68.5q165 0 290.5 -68.5t195 -193t69.5 -290.5q0 -168 -69.5 -291.5t-195 -192t-290.5 -68.5zM608 250q90 0 148.5 72t58.5 206t-58.5 206t-148.5 72t-148.5 -72t-58.5 -206t58 -206t149 -72z
M1368 -24q-162 0 -284.5 71t-191 195.5t-68.5 285.5t68.5 285.5t189.5 195.5t277 71q159 0 279.5 -69.5t188.5 -192t68 -282.5v-93h-735q3 -101 60.5 -160t159.5 -59q76 0 127.5 31t70.5 83h309q-19 -106 -92 -188t-183.5 -128t-243.5 -46zM1162 649h412q-12 83 -66 130
t-140 47q-87 0 -141 -47t-65 -130z" />
    <glyph glyph-name="Racute" unicode="&#x154;" horiz-adv-x="1347" 
d="M96 0v1490h614q173 0 299 -61.5t194.5 -174.5t68.5 -268q0 -143 -65 -250t-182 -168l286 -568h-380l-243 495h-232v-495h-360zM456 778h230q108 0 171 57t63 151q0 95 -63 152t-172 57h-229v-417zM536 1618l187 319h326l-278 -319h-235z" />
    <glyph glyph-name="racute" unicode="&#x155;" horiz-adv-x="806" 
d="M96 0v1056h333v-186h3q29 101 90.5 145.5t167.5 44.5q28 0 50.5 -0.5t43.5 -1.5v-284q-19 1 -59 2t-77 1q-93 0 -150.5 -62t-57.5 -174v-541h-344zM307 1184l187 319h326l-278 -319h-235z" />
    <glyph glyph-name="uni0156" unicode="&#x156;" horiz-adv-x="1347" 
d="M96 0v1490h614q173 0 299 -61.5t194.5 -174.5t68.5 -268q0 -143 -65 -250t-182 -168l286 -568h-380l-243 495h-232v-495h-360zM456 778h230q108 0 171 57t63 151q0 95 -63 152t-172 57h-229v-417zM432 -473l92 355h316l-170 -355h-238z" />
    <glyph glyph-name="uni0157" unicode="&#x157;" horiz-adv-x="806" 
d="M96 0v1056h333v-186h3q29 101 90.5 145.5t167.5 44.5q28 0 50.5 -0.5t43.5 -1.5v-284q-19 1 -59 2t-77 1q-93 0 -150.5 -62t-57.5 -174v-541h-344zM21 -473l92 355h316l-170 -355h-238z" />
    <glyph glyph-name="Rcaron" unicode="&#x158;" horiz-adv-x="1347" 
d="M96 0v1490h614q173 0 299 -61.5t194.5 -174.5t68.5 -268q0 -143 -65 -250t-182 -168l286 -568h-380l-243 495h-232v-495h-360zM456 778h230q108 0 171 57t63 151q0 95 -63 152t-172 57h-229v-417zM544 1937l124 -164l130 164h257v-1l-255 -313h-264l-249 313v1h257z" />
    <glyph glyph-name="rcaron" unicode="&#x159;" horiz-adv-x="806" 
d="M96 0v1056h333v-186h3q29 101 90.5 145.5t167.5 44.5q28 0 50.5 -0.5t43.5 -1.5v-284q-19 1 -59 2t-77 1q-93 0 -150.5 -62t-57.5 -174v-541h-344zM315 1503l124 -164l130 164h257v-1l-255 -313h-264l-249 313v1h257z" />
    <glyph glyph-name="Sacute" unicode="&#x15a;" horiz-adv-x="1368" 
d="M689 -24q-298 0 -460 134.5t-162 381.5h343q4 -107 78.5 -167t203.5 -60q114 0 183.5 44.5t69.5 117.5q0 63 -60.5 103t-195.5 68l-153 31q-440 90 -440 421q0 138 73.5 242.5t205.5 163t307 58.5q268 0 423 -129.5t162 -358.5h-333q-8 92 -74 145.5t-173 53.5
q-102 0 -166.5 -44t-64.5 -114q0 -61 56.5 -98t184.5 -63l131 -26q248 -49 360.5 -151.5t112.5 -275.5q0 -225 -162 -351t-450 -126zM547 1618l187 319h326l-278 -319h-235z" />
    <glyph glyph-name="sacute" unicode="&#x15b;" horiz-adv-x="1103" 
d="M562 -26q-146 0 -259 44t-180.5 126t-76.5 194h339q8 -59 52 -93t120 -34q71 0 111 25t40 65q0 66 -128 89l-191 34q-156 28 -237.5 107t-81.5 204q0 156 126 249.5t347 93.5t352 -98t136 -267h-317q-1 55 -45.5 92t-113.5 37q-67 0 -104.5 -26t-37.5 -65q0 -65 114 -87
l212 -39q163 -30 241 -100t78 -188q0 -108 -62.5 -190t-174 -127.5t-259.5 -45.5zM420 1184l187 319h326l-278 -319h-235z" />
    <glyph glyph-name="Scircumflex" unicode="&#x15c;" horiz-adv-x="1368" 
d="M689 -24q-298 0 -460 134.5t-162 381.5h343q4 -107 78.5 -167t203.5 -60q114 0 183.5 44.5t69.5 117.5q0 63 -60.5 103t-195.5 68l-153 31q-440 90 -440 421q0 138 73.5 242.5t205.5 163t307 58.5q268 0 423 -129.5t162 -358.5h-333q-8 92 -74 145.5t-173 53.5
q-102 0 -166.5 -44t-64.5 -114q0 -61 56.5 -98t184.5 -63l131 -26q248 -49 360.5 -151.5t112.5 -275.5q0 -225 -162 -351t-450 -126zM555 1623h-257v1l249 313h264l255 -313v-1h-257l-130 164z" />
    <glyph glyph-name="scircumflex" unicode="&#x15d;" horiz-adv-x="1103" 
d="M562 -26q-146 0 -259 44t-180.5 126t-76.5 194h339q8 -59 52 -93t120 -34q71 0 111 25t40 65q0 66 -128 89l-191 34q-156 28 -237.5 107t-81.5 204q0 156 126 249.5t347 93.5t352 -98t136 -267h-317q-1 55 -45.5 92t-113.5 37q-67 0 -104.5 -26t-37.5 -65q0 -65 114 -87
l212 -39q163 -30 241 -100t78 -188q0 -108 -62.5 -190t-174 -127.5t-259.5 -45.5zM427 1189h-257v1l249 313h264l255 -313v-1h-257l-130 164z" />
    <glyph glyph-name="Scedilla" unicode="&#x15e;" horiz-adv-x="1368" 
d="M689 -24q-298 0 -460 134.5t-162 381.5h343q4 -107 78.5 -167t203.5 -60q114 0 183.5 44.5t69.5 117.5q0 63 -60.5 103t-195.5 68l-153 31q-440 90 -440 421q0 138 73.5 242.5t205.5 163t307 58.5q268 0 423 -129.5t162 -358.5h-333q-8 92 -74 145.5t-173 53.5
q-102 0 -166.5 -44t-64.5 -114q0 -61 56.5 -98t184.5 -63l131 -26q248 -49 360.5 -151.5t112.5 -275.5q0 -225 -162 -351t-450 -126zM549 -418v131h119q84 0 84 56q0 57 -84 57h-84l40 216h127v-119q91 -1 139.5 -48t48.5 -118q0 -86 -63.5 -130.5t-178.5 -44.5h-148z" />
    <glyph glyph-name="scedilla" unicode="&#x15f;" horiz-adv-x="1103" 
d="M562 -26q-146 0 -259 44t-180.5 126t-76.5 194h339q8 -59 52 -93t120 -34q71 0 111 25t40 65q0 66 -128 89l-191 34q-156 28 -237.5 107t-81.5 204q0 156 126 249.5t347 93.5t352 -98t136 -267h-317q-1 55 -45.5 92t-113.5 37q-67 0 -104.5 -26t-37.5 -65q0 -65 114 -87
l212 -39q163 -30 241 -100t78 -188q0 -108 -62.5 -190t-174 -127.5t-259.5 -45.5zM419 -418v131h119q84 0 84 56q0 57 -84 57h-84l40 216h127v-119q91 -1 139.5 -48t48.5 -118q0 -86 -63.5 -130.5t-178.5 -44.5h-148z" />
    <glyph glyph-name="Scaron" unicode="&#x160;" horiz-adv-x="1368" 
d="M689 -24q-298 0 -460 134.5t-162 381.5h343q4 -107 78.5 -167t203.5 -60q114 0 183.5 44.5t69.5 117.5q0 63 -60.5 103t-195.5 68l-153 31q-440 90 -440 421q0 138 73.5 242.5t205.5 163t307 58.5q268 0 423 -129.5t162 -358.5h-333q-8 92 -74 145.5t-173 53.5
q-102 0 -166.5 -44t-64.5 -114q0 -61 56.5 -98t184.5 -63l131 -26q248 -49 360.5 -151.5t112.5 -275.5q0 -225 -162 -351t-450 -126zM555 1937l124 -164l130 164h257v-1l-255 -313h-264l-249 313v1h257z" />
    <glyph glyph-name="scaron" unicode="&#x161;" horiz-adv-x="1103" 
d="M562 -26q-146 0 -259 44t-180.5 126t-76.5 194h339q8 -59 52 -93t120 -34q71 0 111 25t40 65q0 66 -128 89l-191 34q-156 28 -237.5 107t-81.5 204q0 156 126 249.5t347 93.5t352 -98t136 -267h-317q-1 55 -45.5 92t-113.5 37q-67 0 -104.5 -26t-37.5 -65q0 -65 114 -87
l212 -39q163 -30 241 -100t78 -188q0 -108 -62.5 -190t-174 -127.5t-259.5 -45.5zM427 1503l124 -164l130 164h257v-1l-255 -313h-264l-249 313v1h257z" />
    <glyph glyph-name="uni021A" unicode="&#x162;" horiz-adv-x="1321" 
d="M42 1184v306h1237v-306h-438v-1184h-360v1184h-439zM526 -418v131h119q84 0 84 56q0 57 -84 57h-84l40 216h127v-119q91 -1 139.5 -48t48.5 -118q0 -86 -63.5 -130.5t-178.5 -44.5h-148z" />
    <glyph glyph-name="uni0163" unicode="&#x163;" horiz-adv-x="803" 
d="M761 1056v-266h-217v-435q0 -51 20 -70t78 -19h119v-266h-195q-190 0 -278.5 71.5t-88.5 225.5v493h-180v266h180v288h345v-288h217zM371 -418v131h119q84 0 84 56q0 57 -84 57h-84l40 216h127v-119q91 -1 139.5 -48t48.5 -118q0 -86 -63.5 -130.5t-178.5 -44.5h-148z
" />
    <glyph glyph-name="Tcaron" unicode="&#x164;" horiz-adv-x="1321" 
d="M42 1184v306h1237v-306h-438v-1184h-360v1184h-439zM534 1937l124 -164l130 164h257v-1l-255 -313h-264l-249 313v1h257z" />
    <glyph glyph-name="tcaron" unicode="&#x165;" horiz-adv-x="979" 
d="M761 1056v-266h-217v-435q0 -51 20 -70t78 -19h119v-266h-195q-190 0 -278.5 71.5t-88.5 225.5v493h-180v266h180v288h345v-288h217zM674 1182v386h249l-53 -386h-196z" />
    <glyph glyph-name="Tbar" unicode="&#x166;" horiz-adv-x="1321" 
d="M42 1184v306h1237v-306h-438v-1184h-360v1184h-439zM198 574v232h924v-232h-924z" />
    <glyph glyph-name="tbar" unicode="&#x167;" horiz-adv-x="803" 
d="M761 686v-199h-217v-132q0 -51 20 -70t78 -19h119v-266h-195q-190 0 -278.5 71.5t-88.5 225.5v190h-180v199h180v104h-180v266h180v288h345v-288h217v-266h-217v-104h217z" />
    <glyph glyph-name="Utilde" unicode="&#x168;" horiz-adv-x="1443" 
d="M722 -24q-191 0 -332 68.5t-218.5 191.5t-77.5 288v966h351v-937q0 -117 76.5 -194t200.5 -77t200 76.5t76 194.5v937h351v-966q0 -164 -78 -287.5t-219 -192t-330 -68.5zM865 1636q-69 0 -115 27.5t-80 55.5t-68 28q-33 0 -50.5 -28t-19.5 -76h-180q3 141 66 213.5
t160 72.5q70 0 115.5 -27t79.5 -54t68 -27q38 0 54 26t19 76h177q-2 -139 -66.5 -213t-159.5 -74z" />
    <glyph glyph-name="utilde" unicode="&#x169;" horiz-adv-x="1231" 
d="M459 -23q-172 0 -267.5 110t-95.5 305v664h344v-592q0 -94 45 -143.5t127 -49.5q81 0 130 51.5t49 159.5v574h344v-1056h-340v171q-53 -90 -135 -142t-201 -52zM759 1202q-69 0 -115 27.5t-80 55.5t-68 28q-33 0 -50.5 -28t-19.5 -76h-180q3 141 66 213.5t160 72.5
q70 0 115.5 -27t79.5 -54t68 -27q38 0 54 26t19 76h177q-2 -139 -66.5 -213t-159.5 -74z" />
    <glyph glyph-name="Umacron" unicode="&#x16a;" horiz-adv-x="1443" 
d="M722 -24q-191 0 -332 68.5t-218.5 191.5t-77.5 288v966h351v-937q0 -117 76.5 -194t200.5 -77t200 76.5t76 194.5v937h351v-966q0 -164 -78 -287.5t-219 -192t-330 -68.5zM1016 1865v-210h-589v210h589z" />
    <glyph glyph-name="umacron" unicode="&#x16b;" horiz-adv-x="1231" 
d="M459 -23q-172 0 -267.5 110t-95.5 305v664h344v-592q0 -94 45 -143.5t127 -49.5q81 0 130 51.5t49 159.5v574h344v-1056h-340v171q-53 -90 -135 -142t-201 -52zM910 1431v-210h-589v210h589z" />
    <glyph glyph-name="Ubreve" unicode="&#x16c;" horiz-adv-x="1443" 
d="M722 -24q-191 0 -332 68.5t-218.5 191.5t-77.5 288v966h351v-937q0 -117 76.5 -194t200.5 -77t200 76.5t76 194.5v937h351v-966q0 -164 -78 -287.5t-219 -192t-330 -68.5zM722 1610q-105 0 -187.5 42.5t-131 115.5t-48.5 163h198q0 -65 47.5 -105.5t121.5 -40.5
q73 0 120 40.5t47 105.5h199q0 -90 -48 -163t-131 -115.5t-187 -42.5z" />
    <glyph glyph-name="ubreve" unicode="&#x16d;" horiz-adv-x="1231" 
d="M459 -23q-172 0 -267.5 110t-95.5 305v664h344v-592q0 -94 45 -143.5t127 -49.5q81 0 130 51.5t49 159.5v574h344v-1056h-340v171q-53 -90 -135 -142t-201 -52zM616 1176q-105 0 -187.5 42.5t-131 115.5t-48.5 163h198q0 -65 47.5 -105.5t121.5 -40.5q73 0 120 40.5
t47 105.5h199q0 -90 -48 -163t-131 -115.5t-187 -42.5z" />
    <glyph glyph-name="Uring" unicode="&#x16e;" horiz-adv-x="1443" 
d="M722 -24q-191 0 -332 68.5t-218.5 191.5t-77.5 288v966h351v-937q0 -117 76.5 -194t200.5 -77t200 76.5t76 194.5v937h351v-966q0 -164 -78 -287.5t-219 -192t-330 -68.5zM721 1573q-111 0 -184 67.5t-73 171.5t73 171.5t184 67.5q112 0 185 -67.5t73 -171.5t-73 -171.5
t-185 -67.5zM721 1714q43 0 71 27.5t28 70.5t-28 70.5t-71 27.5q-42 0 -70 -27.5t-28 -70.5t28 -70.5t70 -27.5z" />
    <glyph glyph-name="uring" unicode="&#x16f;" horiz-adv-x="1231" 
d="M459 -23q-172 0 -267.5 110t-95.5 305v664h344v-592q0 -94 45 -143.5t127 -49.5q81 0 130 51.5t49 159.5v574h344v-1056h-340v171q-53 -90 -135 -142t-201 -52zM615 1139q-111 0 -184 67.5t-73 171.5t73 171.5t184 67.5q112 0 185 -67.5t73 -171.5t-73 -171.5t-185 -67.5
zM615 1280q43 0 71 27.5t28 70.5t-28 70.5t-71 27.5q-42 0 -70 -27.5t-28 -70.5t28 -70.5t70 -27.5z" />
    <glyph glyph-name="Uhungarumlaut" unicode="&#x170;" horiz-adv-x="1443" 
d="M722 -24q-191 0 -332 68.5t-218.5 191.5t-77.5 288v966h351v-937q0 -117 76.5 -194t200.5 -77t200 76.5t76 194.5v937h351v-966q0 -164 -78 -287.5t-219 -192t-330 -68.5zM996 1618h-242l206 319h320zM627 1618h-235l140 319h294z" />
    <glyph glyph-name="uhungarumlaut" unicode="&#x171;" horiz-adv-x="1231" 
d="M459 -23q-172 0 -267.5 110t-95.5 305v664h344v-592q0 -94 45 -143.5t127 -49.5q81 0 130 51.5t49 159.5v574h344v-1056h-340v171q-53 -90 -135 -142t-201 -52zM890 1184h-242l206 319h320zM521 1184h-235l140 319h294z" />
    <glyph glyph-name="Uogonek" unicode="&#x172;" horiz-adv-x="1443" 
d="M722 -24q-191 0 -332 68.5t-218.5 191.5t-77.5 288v966h351v-937q0 -117 76.5 -194t200.5 -77t200 76.5t76 194.5v937h351v-966q0 -164 -78 -287.5t-219 -192t-330 -68.5zM805 -418q-145 0 -225 54.5t-80 154.5q0 74 41 124t108.5 86t148.5 67t162 67t148.5 86t109 123
t41.5 180h90q0 -128 -37.5 -216t-96 -147t-124 -98.5t-124 -70.5t-95.5 -63.5t-37 -78.5q0 -61 80 -61h57v-207h-167z" />
    <glyph glyph-name="uogonek" unicode="&#x173;" horiz-adv-x="1231" 
d="M459 -23q-172 0 -267.5 110t-95.5 305v664h344v-592q0 -94 45 -143.5t127 -49.5q81 0 130 51.5t49 159.5v574h344v-1056h-340v171q-53 -90 -135 -142t-201 -52zM967 -418q-145 0 -224 54.5t-79 154.5q0 69 37.5 127.5t108.5 115.5l325 -34q-78 -48 -108 -81t-30 -69
q0 -61 80 -61h58v-207h-168z" />
    <glyph glyph-name="Wcircumflex" unicode="&#x174;" horiz-adv-x="2081" 
d="M402 0l-397 1490h387l148 -662q21 -99 40.5 -197.5t37.5 -196.5q20 98 40.5 196.5t44.5 197.5l159 662h357l159 -662q23 -98 43.5 -196t40.5 -196q18 98 37.5 196t40.5 196l148 662h388l-398 -1490h-398l-191 753q-12 47 -23.5 102.5t-25.5 120.5q-13 -65 -25 -120.5
t-24 -102.5l-190 -753h-399zM913 1623h-257v1l249 313h264l255 -313v-1h-257l-130 164z" />
    <glyph glyph-name="wcircumflex" unicode="&#x175;" horiz-adv-x="1732" 
d="M329 0l-325 1056h362l82 -330q22 -92 42.5 -190.5t41.5 -196.5q23 98 46.5 196.5t47.5 190.5l87 330h305l87 -330q24 -92 47.5 -190.5t46.5 -196.5q20 98 39.5 196t41.5 191l79 330h368l-325 -1056h-355l-117 395q-17 59 -33 120.5t-31 123.5q-16 -62 -32 -123.5
t-33 -120.5l-117 -395h-355zM738 1189h-257v1l249 313h264l255 -313v-1h-257l-130 164z" />
    <glyph glyph-name="Ycircumflex" unicode="&#x176;" horiz-adv-x="1453" 
d="M558 0v533l-553 957h411l235 -433q22 -41 42.5 -81.5t41.5 -80.5q19 40 39 80.5t41 81.5l224 433h409l-541 -957v-533h-349zM599 1623h-257v1l249 313h264l255 -313v-1h-257l-130 164z" />
    <glyph glyph-name="ycircumflex" unicode="&#x177;" horiz-adv-x="1170" 
d="M129 -418v267h146q54 0 76 23.5t41 81.5l18 48l-406 1054h360l156 -486q17 -55 33 -110t32 -111q15 56 31.5 111t33.5 110l159 486h356l-455 -1205q-54 -143 -135.5 -206t-214.5 -63h-231zM433 1189h-257v1l249 313h264l255 -313v-1h-257l-130 164z" />
    <glyph glyph-name="Ydieresis" unicode="&#x178;" horiz-adv-x="1453" 
d="M558 0v533l-553 957h411l235 -433q22 -41 42.5 -81.5t41.5 -80.5q19 40 39 80.5t41 81.5l224 433h409l-541 -957v-533h-349zM954 1597q-78 0 -129 48.5t-51 123.5q0 74 51 122.5t129 48.5q79 0 130 -48.5t51 -122.5q0 -75 -51 -123.5t-130 -48.5zM498 1597
q-78 0 -129 48.5t-51 123.5q0 74 51 122.5t129 48.5q79 0 130 -48.5t51 -122.5q0 -75 -51 -123.5t-130 -48.5z" />
    <glyph glyph-name="Zacute" unicode="&#x179;" horiz-adv-x="1317" 
d="M52 0v274l610 732q38 44 77 88.5t79 89.5h-748v306h1188v-274l-600 -729q-38 -45 -77.5 -90.5t-80.5 -90.5h765v-306h-1213zM523 1618l187 319h326l-278 -319h-235z" />
    <glyph glyph-name="zacute" unicode="&#x17a;" horiz-adv-x="1108" 
d="M97 0v226l501 560v2h-501v268h905v-239l-490 -549v-2h499v-266h-914zM417 1184l187 319h326l-278 -319h-235z" />
    <glyph glyph-name="Zdotaccent" unicode="&#x17b;" horiz-adv-x="1317" 
d="M52 0v274l610 732q38 44 77 88.5t79 89.5h-748v306h1188v-274l-600 -729q-38 -45 -77.5 -90.5t-80.5 -90.5h765v-306h-1213zM657 1593q-82 0 -135.5 49t-53.5 125t53.5 124.5t135.5 48.5q83 0 136.5 -48.5t53.5 -124.5t-53.5 -125t-136.5 -49z" />
    <glyph glyph-name="zdotaccent" unicode="&#x17c;" horiz-adv-x="1108" 
d="M97 0v226l501 560v2h-501v268h905v-239l-490 -549v-2h499v-266h-914zM551 1159q-82 0 -135.5 49t-53.5 125t53.5 124.5t135.5 48.5q83 0 136.5 -48.5t53.5 -124.5t-53.5 -125t-136.5 -49z" />
    <glyph glyph-name="Zcaron" unicode="&#x17d;" horiz-adv-x="1317" 
d="M52 0v274l610 732q38 44 77 88.5t79 89.5h-748v306h1188v-274l-600 -729q-38 -45 -77.5 -90.5t-80.5 -90.5h765v-306h-1213zM531 1937l124 -164l130 164h257v-1l-255 -313h-264l-249 313v1h257z" />
    <glyph glyph-name="zcaron" unicode="&#x17e;" horiz-adv-x="1108" 
d="M97 0v226l501 560v2h-501v268h905v-239l-490 -549v-2h499v-266h-914zM425 1503l124 -164l130 164h257v-1l-255 -313h-264l-249 313v1h257z" />
    <glyph glyph-name="longs" unicode="&#x17f;" horiz-adv-x="658" 
d="M96 0v1173q0 161 90.5 239t278.5 78h193v-266h-106q-61 0 -86.5 -25.5t-25.5 -85.5v-1113h-344z" />
    <glyph glyph-name="bbar" unicode="&#x180;" horiz-adv-x="1251" 
d="M742 -23q-104 0 -183.5 46.5t-120.5 139.5h-2v-163h-340v1490h344v-576h2q98 165 303 165q134 0 236 -70t159.5 -194t57.5 -285q0 -167 -56.5 -291.5t-159 -193t-240.5 -68.5zM645 252q95 0 150 74t55 204q0 129 -55 202t-150 73q-97 0 -158 -75t-61 -200
q0 -127 61 -202.5t158 -75.5zM-44 1162v200h809v-200h-809z" />
    <glyph glyph-name="uni0181" unicode="&#x181;" horiz-adv-x="1757" 
d="M26 1026v135q0 147 79 238t228 91h815q248 0 379.5 -105t131.5 -273q0 -129 -75.5 -215.5t-201.5 -114.5v-2q93 -6 167.5 -51.5t118 -124t43.5 -183.5q0 -123 -60.5 -218t-176 -149t-281.5 -54h-665v1193h-81q-79 0 -79 -74v-93h-342zM879 276h255q98 0 154 45.5
t56 125.5q0 81 -55.5 128.5t-152.5 47.5h-257v-347zM879 885h235q86 0 136 44.5t50 120.5q0 75 -50 119.5t-136 44.5h-235v-329z" />
    <glyph glyph-name="uni0182" unicode="&#x182;" horiz-adv-x="1300" 
d="M96 0v1490h1013v-286h-662v-244h206q181 -1 314.5 -59.5t207 -165t73.5 -249.5q0 -144 -73.5 -253.5t-207 -171t-314.5 -61.5h-557zM447 280h206q119 -1 182.5 60t63.5 149q0 83 -63.5 140t-182.5 57h-206v-406z" />
    <glyph glyph-name="uni0183" unicode="&#x183;" horiz-adv-x="1251" 
d="M742 -23q-104 0 -183.5 46.5t-120.5 139.5h-2v-163h-340v1490h880v-268h-536v-308h2q98 165 303 165q134 0 236 -70t159.5 -194t57.5 -285q0 -167 -56.5 -291.5t-159 -193t-240.5 -68.5zM645 252q95 0 150 74t55 204q0 129 -55 202t-150 73q-97 0 -158 -75t-61 -200
q0 -127 61 -202.5t158 -75.5z" />
    <glyph glyph-name="uni0184" unicode="&#x184;" horiz-adv-x="1605" 
d="M720 960h206q181 -1 314.5 -59.5t206 -165t72.5 -249.5q0 -144 -72.5 -253.5t-206 -171t-314.5 -61.5h-556v1204h-362v286h712v-530zM720 686v-406h206q120 -1 183.5 60t63.5 149q0 83 -63.5 140t-183.5 57h-206z" />
    <glyph glyph-name="uni0185" unicode="&#x185;" horiz-adv-x="1350" 
d="M258 1536h54v-46h285v-488h13q29 67 101 98.5t157 31.5q117 0 219 -62t166 -189t64 -323q0 -191 -61.5 -318.5t-163.5 -191.5t-223 -64q-97 0 -164.5 31.5t-94.5 94.5h-17v-110h-342v1053l-190 153v166zM990 558q0 142 -56 222.5t-168 80.5q-81 0 -126 -41.5t-63 -110.5
t-18 -151q0 -81 17.5 -150t62.5 -111t127 -42q111 0 167.5 80.5t56.5 222.5z" />
    <glyph glyph-name="uni0186" unicode="&#x186;" horiz-adv-x="1490" 
d="M723 1514q204 0 366 -91.5t255.5 -263.5t93.5 -413q0 -243 -93.5 -415.5t-255.5 -263.5t-366 -91q-182 0 -326 70.5t-234.5 198t-112.5 298.5h362q23 -120 103.5 -186.5t201.5 -66.5q171 0 265 121.5t94 334.5q0 212 -93.5 333t-265.5 121q-120 0 -200.5 -66t-104.5 -185
h-362q22 171 112.5 298t234.5 197t326 70z" />
    <glyph glyph-name="uni0187" unicode="&#x187;" horiz-adv-x="1490" 
d="M768 -24q-205 0 -366.5 91.5t-255.5 263.5t-94 413q0 243 94 415.5t255.5 263.5t366.5 91q189 0 341 -78q50 240 365 240h188v-274h-127q-94 0 -94 -91v-364h-363q-23 120 -103.5 186.5t-200.5 66.5q-172 0 -266 -121.5t-94 -334.5q0 -212 93.5 -333t266.5 -121
q120 0 200.5 66t104.5 185h362q-23 -171 -113.5 -298t-234 -197t-325.5 -70z" />
    <glyph glyph-name="uni0188" unicode="&#x188;" horiz-adv-x="1379" 
d="M598 -24q-164 0 -286.5 69.5t-191 193.5t-68.5 289q0 164 68.5 288.5t191.5 194t286 69.5q115 0 212 -35q22 108 104 162.5t235 54.5h188v-274h-128q-93 0 -93 -91v-256h-332q-8 75 -55.5 120.5t-123.5 45.5q-97 0 -150.5 -74.5t-53.5 -204.5t54 -204.5t150 -74.5
q76 0 122 46t56 123h333q-4 -129 -70.5 -228.5t-182 -156.5t-265.5 -57z" />
    <glyph glyph-name="Dbar1" unicode="&#x189;" horiz-adv-x="1555" 
d="M759 0h-553v1490h553q227 0 394 -91.5t258.5 -258.5t91.5 -395t-90.5 -395t-257.5 -258.5t-396 -91.5zM566 300h175q205 0 302.5 112.5t97.5 332.5t-99 332.5t-305 112.5h-171v-890zM19 629v232h924v-232h-924z" />
    <glyph glyph-name="uni018A" unicode="&#x18a;" horiz-adv-x="1877" 
d="M26 1026v135q0 147 79 238t228 91h748q227 0 394 -91.5t258.5 -258.5t91.5 -395t-90.5 -395t-257.5 -258.5t-396 -91.5h-553v1193h-81q-79 0 -79 -74v-93h-342zM888 300h175q205 0 302.5 112.5t97.5 332.5t-99 332.5t-305 112.5h-171v-890z" />
    <glyph glyph-name="uni018B" unicode="&#x18b;" horiz-adv-x="1356" 
d="M1254 0h-556q-181 0 -314 62t-206 171.5t-73 252.5q0 142 73 249t206 166.5t314 59.5h210v248h-666v282h1012v-1491zM908 277v408h-210q-121 1 -184.5 -56t-63.5 -140q0 -88 63.5 -150t184.5 -62h210z" />
    <glyph glyph-name="uni018C" unicode="&#x18c;" horiz-adv-x="1251" 
d="M509 -23q-139 0 -241.5 68.5t-159 193t-56.5 291.5q0 161 58 285t160 194t236 70q204 0 303 -165h1v308h-535v268h880v-1490h-341v163h-1q-41 -93 -120.5 -139.5t-183.5 -46.5zM605 252q98 0 158.5 75.5t60.5 202.5q0 125 -60.5 200t-158.5 75q-95 0 -149.5 -73
t-54.5 -202q0 -130 54.5 -204t149.5 -74z" />
    <glyph glyph-name="deltaturn" unicode="&#x18d;" horiz-adv-x="1364" 
d="M1096 -376h-845v265h414q-24 18 -69.5 44.5t-110.5 76.5q-150 116 -245.5 247.5t-95.5 292.5v20q1 167 63 293.5t182 197.5t294 71q172 0 292.5 -65t183.5 -181.5t63 -271.5v-20q0 -141 -54.5 -249.5t-144.5 -176t-198 -86.5q-4 0 -15.5 -0.5t-21.5 -0.5q42 -34 103 -90
t118 -111.5t87 -86.5v-169zM888 550v20q0 79 -15.5 146t-60 108.5t-129.5 41.5q-120 0 -162.5 -84.5t-42.5 -211.5v-20q0 -111 46 -186.5t109 -109.5q12 -5 24 -6t25 -1q77 0 122 40.5t64.5 109.5t19.5 153z" />
    <glyph glyph-name="Eturn" unicode="&#x18e;" horiz-adv-x="1268" 
d="M1172 1490v-1490h-1110v306h751v287h-693v297h693v294h-751v306h1110z" />
    <glyph glyph-name="uni018F" unicode="&#x18f;" horiz-adv-x="1505" 
d="M747 -24q-199 0 -353 79.5t-241 222t-87 331.5v202h1023q-13 185 -99 287t-250 102q-125 0 -201.5 -58.5t-96.5 -157.5h-366q17 159 109.5 278t238.5 185.5t322 66.5q202 0 362 -91t252.5 -263.5t92.5 -415.5q0 -233 -86.5 -405.5t-244.5 -267.5t-375 -95zM1069 547h-652
q3 -115 93.5 -186t231.5 -71q260 0 327 257z" />
    <glyph glyph-name="Epsilon1" unicode="&#x190;" horiz-adv-x="1287" 
d="M641 -24q-174 0 -307 57.5t-207.5 158t-74.5 228.5q0 133 87.5 235t249.5 121v3q-126 21 -208.5 105t-82.5 215q0 122 69.5 215.5t192 146.5t281.5 53q172 0 296.5 -62.5t192 -170t67.5 -243.5h-337q0 95 -61 152.5t-158 57.5q-93 0 -152 -52.5t-59 -136.5
q0 -82 64 -128.5t175 -46.5h138v-252h-138q-119 0 -190.5 -51.5t-71.5 -136.5q0 -87 66 -140.5t170 -53.5q114 0 178.5 66.5t64.5 184.5h340q0 -140 -63.5 -259.5t-193 -192.5t-328.5 -73z" />
    <glyph glyph-name="uni0191" unicode="&#x191;" horiz-adv-x="1214" 
d="M-122 -418v281h127q91 0 91 86v1541h1076v-306h-716v-317h671v-296h-671v-641q0 -348 -388 -348h-190z" />
    <glyph glyph-name="florin" unicode="&#x192;" horiz-adv-x="967" 
d="M845 1082v-239h-221v-856q0 -198 -104.5 -301.5t-290.5 -103.5q-40 0 -78 2.5t-82 11.5l14 262q18 -4 46.5 -7.5t48.5 -3.5q72 0 92.5 38t20.5 102v856h-166v239h166v86q0 190 115 289t318 99q49 0 91.5 -6t81.5 -14l-26 -253q-21 4 -44 6t-61 2q-65 0 -103.5 -30.5
t-38.5 -92.5v-86h221z" />
    <glyph glyph-name="uni0193" unicode="&#x193;" horiz-adv-x="1511" 
d="M772 -24q-216 0 -378 95t-252 267.5t-90 405.5q0 243 94 415.5t255.5 263.5t364.5 91q184 0 338 -74q52 236 364 236h188v-274h-127q-94 0 -94 -91v-327h-366q-20 99 -94.5 157.5t-195.5 58.5q-174 0 -269.5 -120.5t-95.5 -335.5t96.5 -334.5t272.5 -119.5
q142 0 225.5 71t85.5 186h-298v264h650v-202q0 -189 -85.5 -331.5t-237.5 -222t-351 -79.5z" />
    <glyph glyph-name="Gamma1" unicode="&#x194;" horiz-adv-x="1549" 
d="M59 1490h402l313 -683l311 683h403l-538 -1064q104 -226 158 -370t54 -219q0 -121 -106.5 -200t-281.5 -79q-178 0 -288 76.5t-110 211.5q0 30 9 67.5t32.5 98.5t67.5 160.5t115 253.5zM775 72q-25 -60 -39 -113.5t-14 -95.5q0 -72 52 -72q53 0 53 73q0 42 -14 95.5
t-38 112.5z" />
    <glyph glyph-name="uni0195" unicode="&#x195;" horiz-adv-x="1990" 
d="M1290 -23q-231 0 -351 123t-120 333v165q0 95 -50.5 147t-136.5 52q-83 0 -137.5 -52.5t-54.5 -152.5v-592h-344v1490h344v-627h3q37 98 121 157t206 59q115 0 203.5 -52t139.5 -145t51 -218v-231q0 -91 40.5 -129.5t97.5 -38.5q127 0 187.5 187t60.5 549v55h345v-55
q0 -521 -142 -772.5t-463 -251.5z" />
    <glyph glyph-name="Iota" unicode="&#x196;" horiz-adv-x="595" 
d="M466 0q-195 0 -282.5 71t-87.5 234v1185h344v-1152q0 -80 83 -80h43v-258h-100z" />
    <glyph glyph-name="uni0197" unicode="&#x197;" horiz-adv-x="727" 
d="M544 1490v-1490h-360v1490h360zM18 711v144h692v-144h-692z" />
    <glyph glyph-name="uni0198" unicode="&#x198;" horiz-adv-x="1484" 
d="M96 0v1490h351v-615h19l462 481q123 125 266 147.5t298 -65.5l-109 -246q-64 32 -107 14.5t-92 -67.5l-332 -341l612 -798h-420l-416 549l-181 -192v-357h-351z" />
    <glyph glyph-name="uni0199" unicode="&#x199;" horiz-adv-x="1163" 
d="M96 0v1142q0 174 92 261t285 87h188v-274h-127q-94 0 -94 -91v-444h4l321 375h397l-393 -461l410 -595h-397l-269 399l-73 -85v-314h-344z" />
    <glyph glyph-name="uni019A" unicode="&#x19a;" horiz-adv-x="536" 
d="M440 1490v-1490h-344v1490h344zM-138 668v200h809v-200h-809z" />
    <glyph glyph-name="lambdabar" unicode="&#x19b;" horiz-adv-x="1238" 
d="M253 994l-39 135l147 47q-32 47 -99 47h-135v267h232q118 0 195.5 -49.5t129.5 -161.5l160 52l44 -132l-153 -49l290 -778q21 -57 42 -81t75 -24h67v-267h-152q-133 0 -209.5 62t-123.5 207l-74 217q-17 55 -33.5 110t-31.5 110l-32 -110t-33 -110l-156 -486h-360
l407 1046z" />
    <glyph glyph-name="mcapturn" unicode="&#x19c;" horiz-adv-x="1941" 
d="M856 152q-54 -81 -140 -126.5t-202 -45.5q-190 0 -282 100.5t-92 340.5v1069h331v-1069q-1 -88 38.5 -130.5t109.5 -42.5q71 0 117 24.5t72 66.5q-3 39 -3 82v1069h330v-1069q0 -88 39.5 -130.5t109.5 -42.5q68 0 113.5 23t71.5 64v1155h335v-1490h-299l-16 120
q-54 -66 -132 -103t-178 -37q-111 0 -194 40t-129 132z" />
    <glyph glyph-name="Nhook" unicode="&#x19d;" horiz-adv-x="1498" 
d="M-122 -418v281h127q91 0 91 86v1541h372l423 -677q27 -42 70 -118.5t86 -156.5q-2 88 -3.5 172t-1.5 134v646h360v-1490h-373l-388 620q-33 52 -83 139t-108 192q4 -109 5 -196t1 -134v-691q0 -348 -388 -348h-190z" />
    <glyph glyph-name="uni019E" unicode="&#x19e;" horiz-adv-x="1231" 
d="M440 574v-574h-344v1056h340v-171q53 90 135 142t201 52q172 0 267.5 -110t95.5 -305v-1082h-344v1010q0 94 -45 143.5t-127 49.5q-81 0 -130 -51.5t-49 -159.5z" />
    <glyph glyph-name="Obar" unicode="&#x19f;" horiz-adv-x="1529" 
d="M765 -24q-202 0 -363.5 91.5t-255.5 263.5t-94 413q0 243 94 415.5t255.5 263.5t363.5 91q201 0 362.5 -91t255.5 -263.5t94 -415.5q0 -242 -94 -414t-255.5 -263t-362.5 -91zM422 853h686q-23 166 -113.5 256.5t-229.5 90.5t-229.5 -90.5t-113.5 -256.5zM765 290
q139 0 229.5 90.5t113.5 256.5h-687q23 -166 114 -256.5t230 -90.5z" />
    <glyph glyph-name="Ohorn" unicode="&#x1a0;" horiz-adv-x="1529" 
d="M765 -24q-202 0 -363.5 91.5t-255.5 263.5t-94 413q0 243 94 415.5t255.5 263.5t363.5 91q63 0 111.5 -6t108.5 -12t159 -6q28 0 28 29v211h305v-248q0 -91 -50 -139t-130 -59q85 -98 132.5 -234t47.5 -306q0 -242 -94 -414t-255.5 -263t-362.5 -91zM765 290
q160 0 255 119t95 335q0 217 -95 336.5t-255 119.5t-255.5 -119.5t-95.5 -336.5q0 -216 95.5 -335t255.5 -119z" />
    <glyph glyph-name="ohorn" unicode="&#x1a1;" horiz-adv-x="1215" 
d="M608 -24q-166 0 -291 68t-195 192t-70 292q0 166 70 290.5t195 193t291 68.5q62 0 105 -5.5t82.5 -10.5t90.5 -5q45 0 45 43v194h266v-192q0 -79 -41.5 -132t-117.5 -73q60 -71 92.5 -165t32.5 -206q0 -168 -69.5 -291.5t-195 -192t-290.5 -68.5zM608 250q90 0 148.5 72
t58.5 206t-58.5 206t-148.5 72t-148.5 -72t-58.5 -206t58 -206t149 -72z" />
    <glyph glyph-name="OI" unicode="&#x1a2;" horiz-adv-x="1912" 
d="M1816 1490v-1908h-331v1500l-159 -74v-825q-41 -48 -122.5 -94.5t-195 -77.5t-252.5 -31q-321 0 -499.5 187t-178.5 520v116q0 336 180 521.5t502 185.5q174 0 307 -47.5t209 -107.5l290 135h250zM430 783v-96q1 -197 76 -314.5t264 -117.5q75 0 132.5 19t89.5 44v854
q-37 32 -96.5 46.5t-123.5 14.5q-197 0 -269.5 -111.5t-72.5 -318.5v-20z" />
    <glyph glyph-name="uni01A3" unicode="&#x1a3;" horiz-adv-x="1544" 
d="M1480 1118v-1536h-334v1170l-100 -35v-496q-37 -65 -94.5 -120t-146 -88t-218.5 -33q-174 0 -290 72t-174 196t-58 281v24q0 171 58 301.5t174 204t292 73.5q116 0 206.5 -43t152.5 -102l309 131h223zM582 248q88 0 131 45v314v197q-23 30 -55.5 46t-81.5 16
q-78 0 -116.5 -42.5t-51 -113.5t-12.5 -157v-24q0 -73 13.5 -137t53 -104t119.5 -40z" />
    <glyph glyph-name="uni01A4" unicode="&#x1a4;" horiz-adv-x="1741" 
d="M29 1026v135q0 147 79 238t228 91h802q172 0 298 -61.5t194.5 -174.5t68.5 -268q0 -154 -69 -267t-195.5 -175t-298.5 -62h-248v-482h-360v1193h-78q-79 0 -79 -74v-93h-342zM888 781h225q108 0 171.5 55.5t63.5 149.5q0 95 -63.5 150.5t-171.5 55.5h-225v-411z" />
    <glyph glyph-name="uni01A5" unicode="&#x1a5;" horiz-adv-x="1251" 
d="M96 -418v1560q0 174 92 261t285 87h188v-274h-127q-94 0 -94 -91v-207h1q95 161 304 161q134 0 236 -70t159.5 -194t57.5 -285q0 -167 -56.5 -291.5t-159 -193t-240.5 -68.5q-214 0 -298 180h-4v-575h-344zM645 252q95 0 150 74t55 204q0 129 -55 202t-150 73
q-97 0 -158 -75t-61 -200q0 -127 61 -202.5t158 -75.5z" />
    <glyph glyph-name="YR" unicode="&#x1a6;" horiz-adv-x="1545" 
d="M1096 -348l-469 891h-201v-543h-348v1592h345v-102h240q260 0 413.5 -113t153.5 -328q0 -176 -76.5 -272t-203.5 -150l517 -960v-15h-371zM426 819h237q108 0 164.5 52t56.5 141q0 93 -56 146t-165 53h-237v-392z" />
    <glyph glyph-name="uni01A7" unicode="&#x1a7;" horiz-adv-x="1368" 
d="M680 -24q-289 0 -451 126t-162 351q0 173 113 275.5t360 151.5l131 26q128 26 184.5 63t56.5 98q0 70 -64.5 114t-165.5 44q-108 0 -174 -53.5t-74 -145.5h-333q7 229 162 358.5t423 129.5q175 0 307 -58.5t205.5 -163t73.5 -242.5q0 -331 -440 -421l-153 -31
q-134 -28 -195 -68t-61 -103q0 -73 69.5 -117.5t183.5 -44.5q129 0 204 60t78 167h343q0 -247 -162 -381.5t-459 -134.5z" />
    <glyph glyph-name="uni01A8" unicode="&#x1a8;" horiz-adv-x="1102" 
d="M72 713q4 169 135 266.5t352 97.5t347.5 -93t126.5 -249q0 -125 -82 -204.5t-238 -107.5l-191 -34q-128 -23 -128 -88q0 -40 40 -64t111 -24q76 0 120.5 33t51.5 92h340q-15 -168 -156.5 -265.5t-360.5 -97.5q-148 0 -259.5 45.5t-173.5 127t-62 189.5q0 116 77.5 187
t240.5 101l213 38q114 23 114 88q0 39 -38 64t-105 25q-69 0 -113 -36t-46 -91h-316z" />
    <glyph glyph-name="uni01A9" unicode="&#x1a9;" horiz-adv-x="1342" 
d="M59 0v256l373 376q59 59 135 129q-75 69 -135 127l-339 337v265h1180v-306h-465q-59 0 -118.5 0.5t-118.5 0.5q36 -32 69.5 -63t63.5 -60l236 -238v-124l-227 -232q-39 -38 -82 -80t-86 -82h744v-306h-1230z" />
    <glyph glyph-name="eshlooprev" unicode="&#x1aa;" horiz-adv-x="1358" 
d="M120 1128q0 117 58.5 214.5t158 155.5t220.5 58t221 -58t160 -155.5t60 -214.5v-1139q0 -79 37.5 -118.5t105.5 -39.5q41 0 97 9v-262q-38 -8 -78 -11t-83 -3q-192 0 -302.5 109.5t-110.5 315.5v723q-53 -13 -107 -13q-120 0 -219 58t-158 155.5t-60 215.5zM560 980
q59 0 102.5 38t42.5 113q0 74 -43.5 111t-101.5 37q-66 0 -107.5 -38t-41.5 -110q-1 -75 41 -113t108 -38z" />
    <glyph glyph-name="uni01AB" unicode="&#x1ab;" horiz-adv-x="803" 
d="M198 -418v274h129q103 0 103 91v64q-119 23 -175 93t-56 193v493h-180v266h180v288h345v-288h217v-266h-217v-435q0 -51 20 -70t78 -19h119v-336q0 -174 -91 -261t-284 -87h-188z" />
    <glyph glyph-name="uni01AC" unicode="&#x1ac;" horiz-adv-x="1483" 
d="M101 1026v135q0 147 79 238t228 91h1032v-306h-452v-1184h-360v1184h-25v9h-81q-79 0 -79 -74v-93h-342z" />
    <glyph glyph-name="uni01AD" unicode="&#x1ad;" horiz-adv-x="787" 
d="M741 1056v-266h-217v-413q0 -60 25 -85.5t87 -25.5h105v-266h-193q-188 0 -278.5 78t-90.5 239v473h-160v266h160v86q0 174 92 261t286 87h188v-274h-128q-93 0 -93 -91v-69h217z" />
    <glyph glyph-name="Trthook" unicode="&#x1ae;" horiz-adv-x="1321" 
d="M856 -418q-193 0 -284 87t-91 261v1254h-439v306h1237v-306h-438v-1231q0 -91 91 -91h127v-280h-203z" />
    <glyph glyph-name="Uhorn" unicode="&#x1af;" horiz-adv-x="1443" 
d="M722 -24q-191 0 -332 68.5t-218.5 191.5t-77.5 288v966h351v-937q0 -117 76.5 -194t200.5 -77t200 76.5t76 194.5v937h178q29 0 29 29v211h305v-248q0 -85 -44.5 -132.5t-116.5 -62.5v-763q0 -164 -78 -287.5t-219 -192t-330 -68.5z" />
    <glyph glyph-name="uhorn" unicode="&#x1b0;" horiz-adv-x="1365" 
d="M459 -23q-172 0 -267.5 110t-95.5 305v664h344v-592q0 -94 45 -143.5t127 -49.5q81 0 130 51.5t49 159.5v574h233q32 0 32 32v208h267v-243q0 -93 -52.5 -141t-135.5 -58v-854h-340v171q-53 -90 -135 -142t-201 -52z" />
    <glyph glyph-name="Upsilon2" unicode="&#x1b1;" horiz-adv-x="1564" 
d="M64 675q1 180 73.5 309t196.5 208v12h-270v286h608v-359q-111 -44 -181 -160t-70 -265q0 -120 46 -214t127.5 -148.5t186.5 -54.5q106 0 188 54.5t128 148.5t46 214q0 149 -70 265t-180 160v359h606v-286h-270v-12q125 -79 197.5 -208t72.5 -309q0 -203 -92 -360
t-254 -246t-372 -89q-209 0 -370.5 89t-253.5 246t-93 360z" />
    <glyph glyph-name="Vcursive" unicode="&#x1b2;" horiz-adv-x="1350" 
d="M676 -20q-173 0 -306.5 61t-208.5 179t-75 288v982h345v-982q1 -121 59.5 -187t185.5 -66t183.5 66t56.5 187v574q0 83 -27.5 113.5t-102.5 30.5q-42 0 -95 -8v274q40 9 76.5 13.5t77.5 4.5q200 0 310.5 -110.5t110.5 -317.5v-574q0 -169 -74 -287t-207 -179.5
t-309 -61.5z" />
    <glyph glyph-name="uni01B3" unicode="&#x1b3;" horiz-adv-x="1622" 
d="M33 1490h379l376 -628h17l260 433q67 110 158.5 160t193 51t199.5 -34l-74 -262q-80 24 -124 4t-88 -89l-360 -560v-565h-347v565z" />
    <glyph glyph-name="uni01B4" unicode="&#x1b4;" horiz-adv-x="1453" 
d="M809 1056l30 86q36 110 74 188t107 119t198 41h195v-274h-127q-47 0 -63 -25t-34 -72l-24 -63l-455 -1205q-54 -143 -135.5 -206t-214.5 -63h-231v267h146q54 0 76 23.5t41 81.5l18 48l-406 1054h360l156 -486q17 -55 33 -110t32 -111q15 56 31.5 111t33.5 110z" />
    <glyph glyph-name="Zbar" unicode="&#x1b5;" horiz-adv-x="1317" 
d="M52 0v274l610 732q38 44 77 88.5t79 89.5h-748v306h1188v-274l-600 -729q-38 -45 -77.5 -90.5t-80.5 -90.5h765v-306h-1213zM197 629v232h924v-232h-924z" />
    <glyph glyph-name="zbar" unicode="&#x1b6;" horiz-adv-x="1108" 
d="M97 0v226l501 560v2h-501v268h905v-239l-490 -549v-2h499v-266h-914zM214 463v144h692v-144h-692z" />
    <glyph glyph-name="uni01B7" unicode="&#x1b7;" horiz-adv-x="1366" 
d="M42 119h353q6 -119 85 -193.5t192 -74.5q134 0 208.5 100.5t74.5 253.5q0 173 -90.5 272t-230.5 99h-174v249l393 361v12h-729v292h1158v-254l-473 -430v-14q154 -14 269 -91t178.5 -202.5t63.5 -286.5q0 -190 -82.5 -337.5t-228 -232t-333.5 -84.5q-179 0 -321 72.5
t-225.5 199t-87.5 289.5z" />
    <glyph glyph-name="uni01B8" unicode="&#x1b8;" horiz-adv-x="1367" 
d="M1325 119q-4 -163 -87.5 -289.5t-225.5 -199t-322 -72.5q-188 0 -333.5 84.5t-228 232t-82.5 337.5q0 161 64 286.5t179 202.5t269 91v14l-474 430v254h1159v-292h-730v-12l393 -361v-249h-174q-139 1 -229.5 -98.5t-90.5 -272.5q0 -153 74 -253.5t208 -100.5
q114 0 192.5 74.5t84.5 193.5h354z" />
    <glyph glyph-name="uni01B9" unicode="&#x1b9;" horiz-adv-x="1287" 
d="M641 -458q-175 0 -307.5 58t-207 159t-74.5 229q0 93 45 183t145 155t266 83v2l-410 391v254h1049v-295h-623v-2l315 -312v-239h-171q-114 0 -187.5 -53t-73.5 -144q0 -87 65.5 -141t170.5 -54q114 0 178.5 66.5t64.5 184.5h340q0 -140 -63.5 -259.5t-193 -192.5
t-328.5 -73z" />
    <glyph glyph-name="uni01BA" unicode="&#x1ba;" horiz-adv-x="1159" 
d="M146 1056h911v-191l-289 -224q128 -35 197 -114.5t69 -184.5q0 -86 -43 -145t-109 -97t-139 -61t-132 -37q-91 -22 -144.5 -49.5t-53.5 -74.5t44.5 -69.5t109.5 -22.5q68 0 126 29t63 110h312q-2 -91 -58.5 -175.5t-167.5 -138t-275 -53.5q-141 0 -249 43t-168.5 121
t-60.5 183q0 91 42.5 150.5t108.5 95.5t138.5 56t132.5 32q84 17 144 36.5t60 80.5q0 45 -36 65.5t-102 20.5h-260v189l236 159h-407v266z" />
    <glyph glyph-name="uni01BB" unicode="&#x1bb;" horiz-adv-x="1257" 
d="M77 0v257l553 459q54 47 103 92t79 97.5t30 120.5q0 93 -58 149.5t-155 56.5q-106 0 -169 -70t-63 -197h-330q0 168 68.5 291t195 190.5t298.5 67.5q159 0 282.5 -57t194.5 -162.5t71 -249.5q0 -108 -41 -194.5t-115.5 -165t-176.5 -163.5l-279 -237v-2h617v-283h-1105z
M258 523v232h924v-232h-924z" />
    <glyph glyph-name="uni01BC" unicode="&#x1bc;" horiz-adv-x="1323" 
d="M697 -23q-165 0 -290.5 60t-199.5 170.5t-83 260.5h336q3 -95 70.5 -157.5t169.5 -62.5q104 0 168.5 69.5t64.5 179.5q0 111 -64.5 182t-165.5 71q-89 0 -150.5 -37.5t-82.5 -102.5h-324l29 595h-133v285h1140v-285h-677l-23 -299h2q104 106 285 106q133 0 247.5 -67
t184.5 -181t70 -257q0 -155 -71 -274.5t-200 -187.5t-303 -68z" />
    <glyph glyph-name="uni01BD" unicode="&#x1bd;" horiz-adv-x="1364" 
d="M567 458l-304 13l49 354h-169v257h997v-257h-522l-27 -166q35 17 93.5 31.5t133.5 15.5q191 1 297.5 -94t106.5 -264q0 -105 -51 -188t-160 -130.5t-284 -47.5q-134 0 -250.5 36t-189 112t-72.5 197l332 13q6 -47 53.5 -67.5t126.5 -20.5q82 0 122.5 32.5t40.5 89.5
q0 53 -45 85.5t-124 32.5q-61 0 -98.5 -9.5t-55.5 -24.5z" />
    <glyph glyph-name="glottalstopbarinv" unicode="&#x1be;" horiz-adv-x="1159" 
d="M747 306q0 45 -36.5 73t-88.5 57q-55 31 -114.5 75t-101 119.5t-41.5 200.5v12h-149v239h149v272h335v-272h188v-239h-188v-17q1 -73 27.5 -117t68.5 -71.5t89 -51t89 -55t68.5 -82t26.5 -134.5q0 -96 -59.5 -172t-168 -119.5t-256.5 -43.5q-160 0 -270.5 56.5t-167 141
t-56.5 170.5h313q5 -79 63.5 -109.5t124.5 -30.5q71 0 113 24.5t42 73.5z" />
    <glyph glyph-name="uni01BF" unicode="&#x1bf;" horiz-adv-x="1365" 
d="M491 1010q48 57 114.5 89.5t155.5 32.5q141 0 239 -68.5t148.5 -191.5t50.5 -286v-54q0 -197 -81 -332.5t-237 -225.5t-380 -150v-240h-335v1534h314zM501 83q165 44 264 157t99 292v54q0 75 -17 139t-58 102.5t-114 38.5q-129 0 -174 -90v-693z" />
    <glyph glyph-name="pipe" unicode="&#x1c0;" horiz-adv-x="592" 
d="M390 1457v-1457h-187v1457h187z" />
    <glyph glyph-name="pipedbl" unicode="&#x1c1;" horiz-adv-x="787" 
d="M363 1457v-1457h-187v1457h187zM632 1457v-1457h-187v1457h187z" />
    <glyph glyph-name="pipedblbar" unicode="&#x1c2;" horiz-adv-x="536" 
d="M367 1457v-1457h-187v1457h187zM-138 1050v200h809v-200h-809zM-138 581v200h809v-200h-809z" />
    <glyph glyph-name="exclam1" unicode="&#x1c3;" horiz-adv-x="528" 
d="M112 455l-32 1035h367l-32 -1035h-303zM264 -19q-78 0 -133 55t-55 134q0 78 55 133t133 55t133 -55t55 -133q0 -79 -55 -134t-133 -55z" />
    <glyph glyph-name="Dzcaron_" unicode="&#x1c5;" horiz-adv-x="2553" 
d="M649 0h-553v1490h553q227 0 394 -91.5t258.5 -258.5t91.5 -395t-90.5 -395t-257.5 -258.5t-396 -91.5zM456 300h175q205 0 302.5 112.5t97.5 332.5t-99 332.5t-305 112.5h-171v-890zM1542 0v226l501 560v2h-501v268h905v-239l-490 -549v-2h499v-266h-914zM1870 1503
l124 -164l130 164h257v-1l-255 -313h-264l-249 313v1h257z" />
    <glyph glyph-name="uni01C6" unicode="&#x1c6;" horiz-adv-x="2358" 
d="M509 -23q-139 0 -241.5 68.5t-159 193t-56.5 291.5q0 161 58 285t160 194t236 70q204 0 303 -165h1v576h345v-1490h-341v163h-1q-41 -93 -120.5 -139.5t-183.5 -46.5zM605 252q98 0 158.5 75.5t60.5 202.5q0 125 -60.5 200t-158.5 75q-95 0 -149.5 -73t-54.5 -202
q0 -130 54.5 -204t149.5 -74zM1348 0v226l501 560v2h-501v268h905v-239l-490 -549v-2h499v-266h-914zM1675 1503l124 -164l130 164h257v-1l-255 -313h-264l-249 313v1h257z" />
    <glyph glyph-name="uni01C7" unicode="&#x1c7;" horiz-adv-x="2332" 
d="M96 0v1490h360v-1184h660v-306h-1020zM1717 -23q-240 0 -373.5 125.5t-133.5 359.5v109h335v-112q0 -88 44.5 -135t122.5 -47t122 47t44 135v1031h360v-1037q0 -229 -137 -352.5t-384 -123.5z" />
    <glyph glyph-name="uni01C8" unicode="&#x1c8;" horiz-adv-x="1696" 
d="M96 0v1490h360v-1184h660v-306h-1020zM1255 1056h345v-1120q0 -173 -97 -263.5t-289 -90.5h-135v267h70q56 0 81 28.5t25 93.5v1085zM1427 1159q-82 0 -135.5 49t-53.5 125t53.5 124.5t135.5 48.5q83 0 136.5 -48.5t53.5 -124.5t-53.5 -125t-136.5 -49z" />
    <glyph glyph-name="uni01C9" unicode="&#x1c9;" horiz-adv-x="1074" 
d="M440 1490v-1490h-344v1490h344zM633 1056h345v-1120q0 -173 -97 -263.5t-289 -90.5h-135v267h70q56 0 81 28.5t25 93.5v1085zM804 1159q-82 0 -135.5 49t-53.5 125t53.5 124.5t135.5 48.5q83 0 136.5 -48.5t53.5 -124.5t-53.5 -125t-136.5 -49z" />
    <glyph glyph-name="uni01CA" unicode="&#x1ca;" horiz-adv-x="2672" 
d="M96 0v1490h372l423 -677q27 -42 70 -118.5t86 -156.5q-2 88 -3.5 172t-1.5 134v646h360v-1490h-373l-388 620q-33 52 -83 139t-108 192q4 -109 5 -196t1 -134v-621h-360zM2057 -23q-240 0 -373.5 125.5t-133.5 359.5v109h335v-112q0 -88 44.5 -135t122.5 -47t122 47
t44 135v1031h360v-1037q0 -229 -137 -352.5t-384 -123.5z" />
    <glyph glyph-name="uni01CB" unicode="&#x1cb;" horiz-adv-x="2036" 
d="M96 0v1490h372l423 -677q27 -42 70 -118.5t86 -156.5q-2 88 -3.5 172t-1.5 134v646h360v-1490h-373l-388 620q-33 52 -83 139t-108 192q4 -109 5 -196t1 -134v-621h-360zM1595 1056h345v-1120q0 -173 -97 -263.5t-289 -90.5h-135v267h70q56 0 81 28.5t25 93.5v1085z
M1767 1159q-82 0 -135.5 49t-53.5 125t53.5 124.5t135.5 48.5q83 0 136.5 -48.5t53.5 -124.5t-53.5 -125t-136.5 -49z" />
    <glyph glyph-name="uni01CC" unicode="&#x1cc;" horiz-adv-x="1768" 
d="M440 574v-574h-344v1056h340v-171q53 90 135 142t201 52q172 0 267.5 -110t95.5 -305v-664h-344v592q0 94 -45 143.5t-127 49.5q-81 0 -130 -51.5t-49 -159.5zM1328 1056h345v-1120q0 -173 -97 -263.5t-289 -90.5h-135v267h70q56 0 81 28.5t25 93.5v1085zM1499 1159
q-82 0 -135.5 49t-53.5 125t53.5 124.5t135.5 48.5q83 0 136.5 -48.5t53.5 -124.5t-53.5 -125t-136.5 -49z" />
    <glyph glyph-name="uni01CD" unicode="&#x1cd;" horiz-adv-x="1511" 
d="M5 0l512 1490h474l515 -1490h-402l-88 287h-529l-91 -287h-391zM577 568h352l-27 87q-37 125 -73.5 250t-73.5 262q-38 -137 -75 -262t-76 -250zM629 1937l124 -164l130 164h257v-1l-255 -313h-264l-249 313v1h257z" />
    <glyph glyph-name="uni01CE" unicode="&#x1ce;" horiz-adv-x="1162" 
d="M419 -18q-159 0 -260.5 77.5t-101.5 235.5q0 119 55.5 188t148.5 102t206 42q142 12 200 29t58 65v5q0 47 -39.5 76.5t-107.5 29.5q-72 0 -114.5 -32t-47.5 -86h-320q11 172 137.5 268.5t356.5 96.5t353 -96.5t123 -271.5v-711h-336v148h-4q-47 -85 -121 -125.5
t-186 -40.5zM524 207q86 0 145 47.5t59 125.5v96q-27 -13 -75 -23t-112 -21q-69 -11 -113.5 -40t-44.5 -81q0 -49 39 -76.5t102 -27.5zM448 1503l124 -164l130 164h257v-1l-255 -313h-264l-249 313v1h257z" />
    <glyph glyph-name="uni01CF" unicode="&#x1cf;" horiz-adv-x="552" 
d="M456 1490v-1490h-360v1490h360zM149 1937l124 -164l130 164h257v-1l-255 -313h-264l-249 313v1h257z" />
    <glyph glyph-name="uni01D0" unicode="&#x1d0;" horiz-adv-x="536" 
d="M96 0v1056h344v-1056h-344zM141 1503l124 -164l130 164h257v-1l-255 -313h-264l-249 313v1h257z" />
    <glyph glyph-name="uni01D1" unicode="&#x1d1;" horiz-adv-x="1529" 
d="M765 -24q-202 0 -363.5 91.5t-255.5 263.5t-94 413q0 243 94 415.5t255.5 263.5t363.5 91q201 0 362.5 -91t255.5 -263.5t94 -415.5q0 -242 -94 -414t-255.5 -263t-362.5 -91zM765 290q160 0 255 119t95 335q0 217 -95 336.5t-255 119.5t-255.5 -119.5t-95.5 -336.5
q0 -216 95.5 -335t255.5 -119zM637 1937l124 -164l130 164h257v-1l-255 -313h-264l-249 313v1h257z" />
    <glyph glyph-name="uni01D2" unicode="&#x1d2;" horiz-adv-x="1215" 
d="M608 -24q-166 0 -291 68t-195 192t-70 292q0 166 70 290.5t195 193t291 68.5q165 0 290.5 -68.5t195 -193t69.5 -290.5q0 -168 -69.5 -291.5t-195 -192t-290.5 -68.5zM608 250q90 0 148.5 72t58.5 206t-58.5 206t-148.5 72t-148.5 -72t-58.5 -206t58 -206t149 -72z
M480 1503l124 -164l130 164h257v-1l-255 -313h-264l-249 313v1h257z" />
    <glyph glyph-name="uni01D3" unicode="&#x1d3;" horiz-adv-x="1443" 
d="M722 -24q-191 0 -332 68.5t-218.5 191.5t-77.5 288v966h351v-937q0 -117 76.5 -194t200.5 -77t200 76.5t76 194.5v937h351v-966q0 -164 -78 -287.5t-219 -192t-330 -68.5zM594 1937l124 -164l130 164h257v-1l-255 -313h-264l-249 313v1h257z" />
    <glyph glyph-name="uni01D4" unicode="&#x1d4;" horiz-adv-x="1231" 
d="M459 -23q-172 0 -267.5 110t-95.5 305v664h344v-592q0 -94 45 -143.5t127 -49.5q81 0 130 51.5t49 159.5v574h344v-1056h-340v171q-53 -90 -135 -142t-201 -52zM488 1503l124 -164l130 164h257v-1l-255 -313h-264l-249 313v1h257z" />
    <glyph glyph-name="uni01D5" unicode="&#x1d5;" horiz-adv-x="1443" 
d="M722 -24q-191 0 -332 68.5t-218.5 191.5t-77.5 288v966h351v-937q0 -117 76.5 -194t200.5 -77t200 76.5t76 194.5v937h351v-966q0 -164 -78 -287.5t-219 -192t-330 -68.5zM1016 2213v-189h-589v189h589zM479 1585q-78 0 -129 48.5t-51 123.5q0 74 51 122.5t129 48.5
q79 0 130 -48.5t51 -122.5q0 -75 -51 -123.5t-130 -48.5zM935 1585q-78 0 -129 48.5t-51 123.5q0 74 51 122.5t129 48.5q79 0 130 -48.5t51 -122.5q0 -75 -51 -123.5t-130 -48.5z" />
    <glyph glyph-name="uni01D6" unicode="&#x1d6;" horiz-adv-x="1231" 
d="M459 -23q-172 0 -267.5 110t-95.5 305v664h344v-592q0 -94 45 -143.5t127 -49.5q81 0 130 51.5t49 159.5v574h344v-1056h-340v171q-53 -90 -135 -142t-201 -52zM910 1779v-189h-589v189h589zM373 1151q-78 0 -129 48.5t-51 123.5q0 74 51 122.5t129 48.5q79 0 130 -48.5
t51 -122.5q0 -75 -51 -123.5t-130 -48.5zM829 1151q-78 0 -129 48.5t-51 123.5q0 74 51 122.5t129 48.5q79 0 130 -48.5t51 -122.5q0 -75 -51 -123.5t-130 -48.5z" />
    <glyph glyph-name="uni01D7" unicode="&#x1d7;" horiz-adv-x="1443" 
d="M722 -24q-191 0 -332 68.5t-218.5 191.5t-77.5 288v966h351v-937q0 -117 76.5 -194t200.5 -77t200 76.5t76 194.5v937h351v-966q0 -164 -78 -287.5t-219 -192t-330 -68.5zM479 1585q-78 0 -129 48.5t-51 123.5q0 74 51 122.5t129 48.5q79 0 130 -48.5t51 -122.5
q0 -75 -51 -123.5t-130 -48.5zM935 1585q-78 0 -129 48.5t-51 123.5q0 74 51 122.5t129 48.5q79 0 130 -48.5t51 -122.5q0 -75 -51 -123.5t-130 -48.5zM609 1978l172 289h298l-255 -289h-215z" />
    <glyph glyph-name="uni01D8" unicode="&#x1d8;" horiz-adv-x="1231" 
d="M459 -23q-172 0 -267.5 110t-95.5 305v664h344v-592q0 -94 45 -143.5t127 -49.5q81 0 130 51.5t49 159.5v574h344v-1056h-340v171q-53 -90 -135 -142t-201 -52zM373 1151q-78 0 -129 48.5t-51 123.5q0 74 51 122.5t129 48.5q79 0 130 -48.5t51 -122.5q0 -75 -51 -123.5
t-130 -48.5zM829 1151q-78 0 -129 48.5t-51 123.5q0 74 51 122.5t129 48.5q79 0 130 -48.5t51 -122.5q0 -75 -51 -123.5t-130 -48.5zM503 1544l172 289h298l-255 -289h-215z" />
    <glyph glyph-name="uni01D9" unicode="&#x1d9;" horiz-adv-x="1443" 
d="M722 -24q-191 0 -332 68.5t-218.5 191.5t-77.5 288v966h351v-937q0 -117 76.5 -194t200.5 -77t200 76.5t76 194.5v937h351v-966q0 -164 -78 -287.5t-219 -192t-330 -68.5zM601 2261l115 -152l121 152h235v-1l-235 -288h-242l-229 288v1h235zM479 1585q-78 0 -129 48.5
t-51 123.5q0 74 51 122.5t129 48.5q79 0 130 -48.5t51 -122.5q0 -75 -51 -123.5t-130 -48.5zM935 1585q-78 0 -129 48.5t-51 123.5q0 74 51 122.5t129 48.5q79 0 130 -48.5t51 -122.5q0 -75 -51 -123.5t-130 -48.5z" />
    <glyph glyph-name="uni01DA" unicode="&#x1da;" horiz-adv-x="1231" 
d="M459 -23q-172 0 -267.5 110t-95.5 305v664h344v-592q0 -94 45 -143.5t127 -49.5q81 0 130 51.5t49 159.5v574h344v-1056h-340v171q-53 -90 -135 -142t-201 -52zM495 1827l115 -152l121 152h235v-1l-235 -288h-242l-229 288v1h235zM373 1151q-78 0 -129 48.5t-51 123.5
q0 74 51 122.5t129 48.5q79 0 130 -48.5t51 -122.5q0 -75 -51 -123.5t-130 -48.5zM829 1151q-78 0 -129 48.5t-51 123.5q0 74 51 122.5t129 48.5q79 0 130 -48.5t51 -122.5q0 -75 -51 -123.5t-130 -48.5z" />
    <glyph glyph-name="uni01DB" unicode="&#x1db;" horiz-adv-x="1443" 
d="M722 -24q-191 0 -332 68.5t-218.5 191.5t-77.5 288v966h351v-937q0 -117 76.5 -194t200.5 -77t200 76.5t76 194.5v937h351v-966q0 -164 -78 -287.5t-219 -192t-330 -68.5zM479 1586q-78 0 -129 48.5t-51 122.5q0 75 51 123.5t129 48.5q79 0 130 -48.5t51 -123.5
q0 -74 -51 -122.5t-130 -48.5zM935 1586q-78 0 -129 48.5t-51 122.5q0 75 51 123.5t129 48.5q79 0 130 -48.5t51 -123.5q0 -74 -51 -122.5t-130 -48.5zM611 1978l-256 289h299l171 -289h-214z" />
    <glyph glyph-name="uni01DC" unicode="&#x1dc;" horiz-adv-x="1231" 
d="M459 -23q-172 0 -267.5 110t-95.5 305v664h344v-592q0 -94 45 -143.5t127 -49.5q81 0 130 51.5t49 159.5v574h344v-1056h-340v171q-53 -90 -135 -142t-201 -52zM373 1152q-78 0 -129 48.5t-51 122.5q0 75 51 123.5t129 48.5q79 0 130 -48.5t51 -123.5q0 -74 -51 -122.5
t-130 -48.5zM829 1152q-78 0 -129 48.5t-51 122.5q0 75 51 123.5t129 48.5q79 0 130 -48.5t51 -123.5q0 -74 -51 -122.5t-130 -48.5zM505 1544l-256 289h299l171 -289h-214z" />
    <glyph glyph-name="eturn" unicode="&#x1dd;" horiz-adv-x="1171" 
d="M575 1080q162 0 284.5 -71t191 -195.5t68.5 -285.5t-68.5 -285.5t-189.5 -195.5t-277 -71q-159 0 -279.5 69.5t-188.5 192t-68 282.5v93h735q-3 101 -60.5 160t-159.5 59q-76 0 -127.5 -31t-70.5 -83h-309q19 106 91.5 188t183.5 128t244 46zM781 407h-412
q12 -83 65.5 -130t140.5 -47t141 47t65 130z" />
    <glyph glyph-name="uni01DE" unicode="&#x1de;" horiz-adv-x="1511" 
d="M5 0l512 1490h474l515 -1490h-402l-88 287h-529l-91 -287h-391zM577 568h352l-27 87q-37 125 -73.5 250t-73.5 262q-38 -137 -75 -262t-76 -250zM1051 2213v-189h-589v189h589zM514 1585q-78 0 -129 48.5t-51 123.5q0 74 51 122.5t129 48.5q79 0 130 -48.5t51 -122.5
q0 -75 -51 -123.5t-130 -48.5zM970 1585q-78 0 -129 48.5t-51 123.5q0 74 51 122.5t129 48.5q79 0 130 -48.5t51 -122.5q0 -75 -51 -123.5t-130 -48.5z" />
    <glyph glyph-name="uni01DF" unicode="&#x1df;" horiz-adv-x="1162" 
d="M419 -18q-159 0 -260.5 77.5t-101.5 235.5q0 119 55.5 188t148.5 102t206 42q142 12 200 29t58 65v5q0 47 -39.5 76.5t-107.5 29.5q-72 0 -114.5 -32t-47.5 -86h-320q11 172 137.5 268.5t356.5 96.5t353 -96.5t123 -271.5v-711h-336v148h-4q-47 -85 -121 -125.5
t-186 -40.5zM524 207q86 0 145 47.5t59 125.5v96q-27 -13 -75 -23t-112 -21q-69 -11 -113.5 -40t-44.5 -81q0 -49 39 -76.5t102 -27.5zM870 1779v-189h-589v189h589zM333 1151q-78 0 -129 48.5t-51 123.5q0 74 51 122.5t129 48.5q79 0 130 -48.5t51 -122.5q0 -75 -51 -123.5
t-130 -48.5zM789 1151q-78 0 -129 48.5t-51 123.5q0 74 51 122.5t129 48.5q79 0 130 -48.5t51 -122.5q0 -75 -51 -123.5t-130 -48.5z" />
    <glyph glyph-name="uni01E0" unicode="&#x1e0;" horiz-adv-x="1511" 
d="M5 0l512 1490h474l515 -1490h-402l-88 287h-529l-91 -287h-391zM577 568h352l-27 87q-37 125 -73.5 250t-73.5 262q-38 -137 -75 -262t-76 -250zM1050 2213v-189h-589v189h589zM755 1581q-82 0 -135.5 49t-53.5 125t53.5 124.5t135.5 48.5q83 0 136.5 -48.5t53.5 -124.5
t-53.5 -125t-136.5 -49z" />
    <glyph glyph-name="uni01E1" unicode="&#x1e1;" horiz-adv-x="1162" 
d="M419 -18q-159 0 -260.5 77.5t-101.5 235.5q0 119 55.5 188t148.5 102t206 42q142 12 200 29t58 65v5q0 47 -39.5 76.5t-107.5 29.5q-72 0 -114.5 -32t-47.5 -86h-320q11 172 137.5 268.5t356.5 96.5t353 -96.5t123 -271.5v-711h-336v148h-4q-47 -85 -121 -125.5
t-186 -40.5zM524 207q86 0 145 47.5t59 125.5v96q-27 -13 -75 -23t-112 -21q-69 -11 -113.5 -40t-44.5 -81q0 -49 39 -76.5t102 -27.5zM870 1779v-189h-589v189h589zM575 1147q-82 0 -135.5 49t-53.5 125t53.5 124.5t135.5 48.5q83 0 136.5 -48.5t53.5 -124.5t-53.5 -125
t-136.5 -49z" />
    <glyph glyph-name="uni01E2" unicode="&#x1e2;" horiz-adv-x="2122" 
d="M5 0l603 1490h1452v-306h-750v-290h693v-296h-693v-292h750v-306h-1096v319h-464l-125 -319h-370zM605 587h359v597h-126zM1644 1865v-210h-589v210h589z" />
    <glyph glyph-name="uni01E3" unicode="&#x1e3;" horiz-adv-x="1822" 
d="M455 -18q-188 0 -293 80t-105 233q0 128 75 206t209 113t310 35h75v77q0 47 -40 76.5t-108 29.5q-72 0 -114.5 -32t-47.5 -86h-320q6 99 63 182t161 133t252 50q113 0 197 -36t135 -101q62 65 144 101.5t191 36.5q158 0 278.5 -69.5t188.5 -192t68 -282.5v-93h-735
q3 -101 60.5 -160t160.5 -59q75 0 127 31t70 83h310q-20 -106 -92.5 -188t-183 -128t-244.5 -46q-123 0 -224 50.5t-158 133.5q-75 -106 -187 -142t-223 -36zM726 443h-141q-93 0 -147.5 -35.5t-54.5 -94.5q0 -51 39 -78t102 -27q86 0 144 47t58 125v63zM1041 649h412
q-11 83 -65 130t-141 47t-141 -47t-65 -130zM1188 1431v-210h-589v210h589z" />
    <glyph glyph-name="Gbar" unicode="&#x1e4;" horiz-adv-x="1511" 
d="M772 -24q-216 0 -378 95t-252 267.5t-90 405.5q0 243 94 415.5t255.5 263.5t364.5 91q176 0 321.5 -66.5t238.5 -185.5t109 -278h-366q-20 99 -94.5 157.5t-195.5 58.5q-174 0 -269.5 -120.5t-95.5 -335.5t96.5 -334.5t272.5 -119.5q142 0 225.5 71t85.5 186h-298v264
h650v-202q0 -189 -85.5 -331.5t-237.5 -222t-351 -79.5zM796 368v108h748v-108h-748z" />
    <glyph glyph-name="gbar" unicode="&#x1e5;" horiz-adv-x="1368" 
d="M617 -432q-244 0 -366.5 99t-146.5 251h329q14 -49 62 -77.5t122 -28.5q196 0 196 212v163h-1q-42 -94 -121 -137t-182 -43q-139 0 -241.5 68.5t-159 188.5t-56.5 275q0 157 58 279t160 191.5t236 69.5q205 0 306 -171h1v148h342v-998q0 -258 -145.5 -374t-392.5 -116z
M605 277q98 0 158.5 72.5t60.5 195.5q0 121 -60.5 194t-158.5 73q-95 0 -149.5 -71t-54.5 -196q0 -126 54.5 -197t149.5 -71zM634 495v144h692v-144h-692z" />
    <glyph glyph-name="Gcaron" unicode="&#x1e6;" horiz-adv-x="1511" 
d="M772 -24q-216 0 -378 95t-252 267.5t-90 405.5q0 243 94 415.5t255.5 263.5t364.5 91q176 0 321.5 -66.5t238.5 -185.5t109 -278h-366q-20 99 -94.5 157.5t-195.5 58.5q-174 0 -269.5 -120.5t-95.5 -335.5t96.5 -334.5t272.5 -119.5q142 0 225.5 71t85.5 186h-298v264
h650v-202q0 -189 -85.5 -331.5t-237.5 -222t-351 -79.5zM629 1937l124 -164l130 164h257v-1l-255 -313h-264l-249 313v1h257z" />
    <glyph glyph-name="gcaron" unicode="&#x1e7;" horiz-adv-x="1251" 
d="M617 -432q-244 0 -366.5 99t-146.5 251h329q14 -49 62 -77.5t122 -28.5q196 0 196 212v163h-1q-42 -94 -121 -137t-182 -43q-139 0 -241.5 68.5t-159 188.5t-56.5 275q0 157 58 279t160 191.5t236 69.5q205 0 306 -171h1v148h342v-998q0 -258 -145.5 -374t-392.5 -116z
M605 277q98 0 158.5 72.5t60.5 195.5q0 121 -60.5 194t-158.5 73q-95 0 -149.5 -71t-54.5 -196q0 -126 54.5 -197t149.5 -71zM477 1503l124 -164l130 164h257v-1l-255 -313h-264l-249 313v1h257z" />
    <glyph glyph-name="uni01E8" unicode="&#x1e8;" horiz-adv-x="1446" 
d="M96 0v1490h360v-665q51 64 103 128.5t104 128.5l333 408h423l-539 -642l560 -848h-412l-383 605l-189 -226v-379h-360zM590 1937l124 -164l130 164h257v-1l-255 -313h-264l-249 313v1h257z" />
    <glyph glyph-name="uni01E9" unicode="&#x1e9;" horiz-adv-x="1163" 
d="M96 0v1490h344v-809h4l321 375h397l-393 -461l410 -595h-397l-269 399l-73 -85v-314h-344zM141 1937l124 -164l130 164h257v-1l-255 -313h-264l-249 313v1h257z" />
    <glyph glyph-name="uni01EA" unicode="&#x1ea;" horiz-adv-x="1529" 
d="M765 -24q-202 0 -363.5 91.5t-255.5 263.5t-94 413q0 243 94 415.5t255.5 263.5t363.5 91q201 0 362.5 -91t255.5 -263.5t94 -415.5q0 -242 -94 -414t-255.5 -263t-362.5 -91zM765 290q160 0 255 119t95 335q0 217 -95 336.5t-255 119.5t-255.5 -119.5t-95.5 -336.5
q0 -216 95.5 -335t255.5 -119zM845 -418q-145 0 -225 54.5t-80 154.5q0 80 45.5 133t121.5 93.5t166 79t180.5 88t166 121.5t121.5 178t46 260h90q0 -183 -43.5 -308t-112 -206.5t-145.5 -134t-145.5 -89t-112 -72t-43.5 -84.5q0 -61 80 -61h57v-207h-167z" />
    <glyph glyph-name="uni01EB" unicode="&#x1eb;" horiz-adv-x="1215" 
d="M608 -24q-166 0 -291 68t-195 192t-70 292q0 166 70 290.5t195 193t291 68.5q165 0 290.5 -68.5t195 -193t69.5 -290.5q0 -168 -69.5 -291.5t-195 -192t-290.5 -68.5zM608 250q90 0 148.5 72t58.5 206t-58.5 206t-148.5 72t-148.5 -72t-58.5 -206t58 -206t149 -72z
M677 -418q-149 0 -228 54t-79 154q0 85 51 141t132 96.5t171.5 80.5t171.5 92t132 130.5t51 197.5h84q0 -129 -34 -218t-87 -149t-112.5 -100.5t-112.5 -72t-86.5 -63.5t-33.5 -75q0 -61 84 -61h52v-207h-156z" />
    <glyph glyph-name="uni01EC" unicode="&#x1ec;" horiz-adv-x="1529" 
d="M765 -24q-202 0 -363.5 91.5t-255.5 263.5t-94 413q0 243 94 415.5t255.5 263.5t363.5 91q201 0 362.5 -91t255.5 -263.5t94 -415.5q0 -242 -94 -414t-255.5 -263t-362.5 -91zM765 290q160 0 255 119t95 335q0 217 -95 336.5t-255 119.5t-255.5 -119.5t-95.5 -336.5
q0 -216 95.5 -335t255.5 -119zM845 -418q-145 0 -225 54.5t-80 154.5q0 80 45.5 133t121.5 93.5t166 79t180.5 88t166 121.5t121.5 178t46 260h90q0 -183 -43.5 -308t-112 -206.5t-145.5 -134t-145.5 -89t-112 -72t-43.5 -84.5q0 -61 80 -61h57v-207h-167zM1059 1865v-210
h-589v210h589z" />
    <glyph glyph-name="uni01ED" unicode="&#x1ed;" horiz-adv-x="1215" 
d="M608 -24q-166 0 -291 68t-195 192t-70 292q0 166 70 290.5t195 193t291 68.5q165 0 290.5 -68.5t195 -193t69.5 -290.5q0 -168 -69.5 -291.5t-195 -192t-290.5 -68.5zM608 250q90 0 148.5 72t58.5 206t-58.5 206t-148.5 72t-148.5 -72t-58.5 -206t58 -206t149 -72z
M677 -418q-149 0 -228 54t-79 154q0 85 51 141t132 96.5t171.5 80.5t171.5 92t132 130.5t51 197.5h84q0 -129 -34 -218t-87 -149t-112.5 -100.5t-112.5 -72t-86.5 -63.5t-33.5 -75q0 -61 84 -61h52v-207h-156zM902 1431v-210h-589v210h589z" />
    <glyph glyph-name="uni01EE" unicode="&#x1ee;" horiz-adv-x="1366" 
d="M42 119h353q6 -119 85 -193.5t192 -74.5q134 0 208.5 100.5t74.5 253.5q0 173 -90.5 272t-230.5 99h-174v249l393 361v12h-729v292h1158v-254l-473 -430v-14q154 -14 269 -91t178.5 -202.5t63.5 -286.5q0 -190 -82.5 -337.5t-228 -232t-333.5 -84.5q-179 0 -321 72.5
t-225.5 199t-87.5 289.5zM553 1937l124 -164l130 164h257v-1l-255 -313h-264l-249 313v1h257z" />
    <glyph glyph-name="uni01EF" unicode="&#x1ef;" horiz-adv-x="1275" 
d="M645 -458q-192 0 -322 73t-196 192.5t-66 259.5h340q0 -112 67 -181.5t175 -69.5q103 0 168 64.5t65 164.5q0 99 -69 155.5t-189 56.5h-210v203l328 310v1h-597v285h1012v-271l-380 -349q228 -1 340 -115.5t112 -288.5q0 -143 -71.5 -253.5t-201.5 -173.5t-305 -63z
M520 1503l124 -164l130 164h257v-1l-255 -313h-264l-249 313v1h257z" />
    <glyph glyph-name="uni01F0" unicode="&#x1f0;" horiz-adv-x="538" 
d="M97 1056h345v-1120q0 -173 -97 -263.5t-289 -90.5h-135v267h70q56 0 81 28.5t25 93.5v1085zM142 1503l124 -164l130 164h257v-1l-255 -313h-264l-249 313v1h257z" />
    <glyph glyph-name="uni01F1" unicode="&#x1f1;" horiz-adv-x="2762" 
d="M649 0h-553v1490h553q227 0 394 -91.5t258.5 -258.5t91.5 -395t-90.5 -395t-257.5 -258.5t-396 -91.5zM456 300h175q205 0 302.5 112.5t97.5 332.5t-99 332.5t-305 112.5h-171v-890zM1497 0v274l610 732q38 44 77 88.5t79 89.5h-748v306h1188v-274l-600 -729
q-38 -45 -77.5 -90.5t-80.5 -90.5h765v-306h-1213z" />
    <glyph glyph-name="uni01F2" unicode="&#x1f2;" horiz-adv-x="2553" 
d="M649 0h-553v1490h553q227 0 394 -91.5t258.5 -258.5t91.5 -395t-90.5 -395t-257.5 -258.5t-396 -91.5zM456 300h175q205 0 302.5 112.5t97.5 332.5t-99 332.5t-305 112.5h-171v-890zM1542 0v226l501 560v2h-501v268h905v-239l-490 -549v-2h499v-266h-914z" />
    <glyph glyph-name="uni01F3" unicode="&#x1f3;" horiz-adv-x="2358" 
d="M509 -23q-139 0 -241.5 68.5t-159 193t-56.5 291.5q0 161 58 285t160 194t236 70q204 0 303 -165h1v576h345v-1490h-341v163h-1q-41 -93 -120.5 -139.5t-183.5 -46.5zM605 252q98 0 158.5 75.5t60.5 202.5q0 125 -60.5 200t-158.5 75q-95 0 -149.5 -73t-54.5 -202
q0 -130 54.5 -204t149.5 -74zM1348 0v226l501 560v2h-501v268h905v-239l-490 -549v-2h499v-266h-914z" />
    <glyph glyph-name="uni01F4" unicode="&#x1f4;" horiz-adv-x="1511" 
d="M772 -24q-216 0 -378 95t-252 267.5t-90 405.5q0 243 94 415.5t255.5 263.5t364.5 91q176 0 321.5 -66.5t238.5 -185.5t109 -278h-366q-20 99 -94.5 157.5t-195.5 58.5q-174 0 -269.5 -120.5t-95.5 -335.5t96.5 -334.5t272.5 -119.5q142 0 225.5 71t85.5 186h-298v264
h650v-202q0 -189 -85.5 -331.5t-237.5 -222t-351 -79.5zM621 1618l187 319h326l-278 -319h-235z" />
    <glyph glyph-name="uni01F5" unicode="&#x1f5;" horiz-adv-x="1251" 
d="M617 -432q-244 0 -366.5 99t-146.5 251h329q14 -49 62 -77.5t122 -28.5q196 0 196 212v163h-1q-42 -94 -121 -137t-182 -43q-139 0 -241.5 68.5t-159 188.5t-56.5 275q0 157 58 279t160 191.5t236 69.5q205 0 306 -171h1v148h342v-998q0 -258 -145.5 -374t-392.5 -116z
M605 277q98 0 158.5 72.5t60.5 195.5q0 121 -60.5 194t-158.5 73q-95 0 -149.5 -71t-54.5 -196q0 -126 54.5 -197t149.5 -71zM469 1184l187 319h326l-278 -319h-235z" />
    <glyph glyph-name="uni01F6" unicode="&#x1f6;" horiz-adv-x="2196" 
d="M1564 -23q-160 0 -282 58t-190.5 161t-68.5 239v170h-567v-605h-360v1490h360v-579h567v579h360v-1033q0 -93 49 -145.5t136 -52.5q88 0 138 52.5t50 145.5v599h345v-621q0 -136 -68 -239t-189 -161t-280 -58z" />
    <glyph glyph-name="uni01F7" unicode="&#x1f7;" horiz-adv-x="1558" 
d="M510 1490v-32q50 24 115 38t143 14q183 0 324.5 -77t222 -226.5t80.5 -366.5v-52q-1 -306 -227 -546.5t-658 -385.5v-274h-343v1908h343zM510 145q265 107 397.5 270t132.5 373v56q0 95 -19 184.5t-76.5 147t-172.5 57.5q-78 0 -145 -27t-117 -73v-988z" />
    <glyph glyph-name="uni01F8" unicode="&#x1f8;" horiz-adv-x="1498" 
d="M96 0v1490h372l423 -677q27 -42 70 -118.5t86 -156.5q-2 88 -3.5 172t-1.5 134v646h360v-1490h-373l-388 620q-33 52 -83 139t-108 192q4 -109 5 -196t1 -134v-621h-360zM651 1618l-279 319h327l187 -319h-235z" />
    <glyph glyph-name="uni01F9" unicode="&#x1f9;" horiz-adv-x="1231" 
d="M440 574v-574h-344v1056h340v-171q53 90 135 142t201 52q172 0 267.5 -110t95.5 -305v-664h-344v592q0 94 -45 143.5t-127 49.5q-81 0 -130 -51.5t-49 -159.5zM515 1184l-279 319h327l187 -319h-235z" />
    <glyph glyph-name="Aringacute" unicode="&#x1fa;" horiz-adv-x="1511" 
d="M5 0l512 1490h474l515 -1490h-402l-88 287h-529l-91 -287h-391zM577 568h352l-27 87q-37 125 -73.5 250t-73.5 262q-38 -137 -75 -262t-76 -250zM756 1570q-111 0 -184 65t-73 165t73 165t184 65q112 0 185 -65t73 -165t-73 -165t-185 -65zM651 2089l146 218h278
l-211 -218h-213zM756 1705q43 0 71 27t28 68t-28 68t-71 27q-42 0 -70 -27t-28 -68t28 -68t70 -27z" />
    <glyph glyph-name="aringacute" unicode="&#x1fb;" horiz-adv-x="1162" 
d="M419 -18q-159 0 -260.5 77.5t-101.5 235.5q0 119 55.5 188t148.5 102t206 42q142 12 200 29t58 65v5q0 47 -39.5 76.5t-107.5 29.5q-72 0 -114.5 -32t-47.5 -86h-320q11 172 137.5 268.5t356.5 96.5t353 -96.5t123 -271.5v-711h-336v148h-4q-47 -85 -121 -125.5
t-186 -40.5zM524 207q86 0 145 47.5t59 125.5v96q-27 -13 -75 -23t-112 -21q-69 -11 -113.5 -40t-44.5 -81q0 -49 39 -76.5t102 -27.5zM575 1139q-111 0 -184 67.5t-73 171.5t73 171.5t184 67.5q112 0 185 -67.5t73 -171.5t-73 -171.5t-185 -67.5zM471 1684l146 218h278
l-211 -218h-213zM575 1280q43 0 71 27.5t28 70.5t-28 70.5t-71 27.5q-42 0 -70 -27.5t-28 -70.5t28 -70.5t70 -27.5z" />
    <glyph glyph-name="AEacute" unicode="&#x1fc;" horiz-adv-x="2122" 
d="M5 0l603 1490h1452v-306h-750v-290h693v-296h-693v-292h750v-306h-1096v319h-464l-125 -319h-370zM605 587h359v597h-126zM1215 1618l187 319h326l-278 -319h-235z" />
    <glyph glyph-name="aeacute" unicode="&#x1fd;" horiz-adv-x="1822" 
d="M455 -18q-188 0 -293 80t-105 233q0 128 75 206t209 113t310 35h75v77q0 47 -40 76.5t-108 29.5q-72 0 -114.5 -32t-47.5 -86h-320q6 99 63 182t161 133t252 50q113 0 197 -36t135 -101q62 65 144 101.5t191 36.5q158 0 278.5 -69.5t188.5 -192t68 -282.5v-93h-735
q3 -101 60.5 -160t160.5 -59q75 0 127 31t70 83h310q-20 -106 -92.5 -188t-183 -128t-244.5 -46q-123 0 -224 50.5t-158 133.5q-75 -106 -187 -142t-223 -36zM726 443h-141q-93 0 -147.5 -35.5t-54.5 -94.5q0 -51 39 -78t102 -27q86 0 144 47t58 125v63zM1041 649h412
q-11 83 -65 130t-141 47t-141 -47t-65 -130zM758 1184l187 319h326l-278 -319h-235z" />
    <glyph glyph-name="Oslashacute" unicode="&#x1fe;" horiz-adv-x="1529" 
d="M765 -24q-202 0 -363.5 91.5t-255.5 263.5t-94 413q0 243 94 415.5t255.5 263.5t363.5 91q201 0 362.5 -91t255.5 -263.5t94 -415.5q0 -242 -94 -414t-255.5 -263t-362.5 -91zM765 290q160 0 255 119t95 335q0 217 -95 336.5t-255 119.5t-255.5 -119.5t-95.5 -336.5
q0 -216 95.5 -335t255.5 -119zM209 -81l-185 162l1297 1490l186 -162zM630 1618l187 319h326l-278 -319h-235z" />
    <glyph glyph-name="oslashacute" unicode="&#x1ff;" horiz-adv-x="1215" 
d="M608 -24q-166 0 -291 68t-195 192t-70 292q0 166 70 290.5t195 193t291 68.5q165 0 290.5 -68.5t195 -193t69.5 -290.5q0 -168 -69.5 -291.5t-195 -192t-290.5 -68.5zM608 250q90 0 148.5 72t58.5 206t-58.5 206t-148.5 72t-148.5 -72t-58.5 -206t58 -206t149 -72z
M163 -51l-108 102l997 1056l107 -102zM473 1184l187 319h326l-278 -319h-235z" />
    <glyph glyph-name="uni0200" unicode="&#x200;" horiz-adv-x="1511" 
d="M5 0l512 1490h474l515 -1490h-402l-88 287h-529l-91 -287h-391zM577 568h352l-27 87q-37 125 -73.5 250t-73.5 262q-38 -137 -75 -262t-76 -250zM482 1618l-285 319h321l206 -319h-242zM851 1618l-199 319h294l140 -319h-235z" />
    <glyph glyph-name="uni0201" unicode="&#x201;" horiz-adv-x="1162" 
d="M419 -18q-159 0 -260.5 77.5t-101.5 235.5q0 119 55.5 188t148.5 102t206 42q142 12 200 29t58 65v5q0 47 -39.5 76.5t-107.5 29.5q-72 0 -114.5 -32t-47.5 -86h-320q11 172 137.5 268.5t356.5 96.5t353 -96.5t123 -271.5v-711h-336v148h-4q-47 -85 -121 -125.5
t-186 -40.5zM524 207q86 0 145 47.5t59 125.5v96q-27 -13 -75 -23t-112 -21q-69 -11 -113.5 -40t-44.5 -81q0 -49 39 -76.5t102 -27.5zM302 1184l-285 319h321l206 -319h-242zM671 1184l-199 319h294l140 -319h-235z" />
    <glyph glyph-name="uni0202" unicode="&#x202;" horiz-adv-x="1511" 
d="M5 0l512 1490h474l515 -1490h-402l-88 287h-529l-91 -287h-391zM577 568h352l-27 87q-37 125 -73.5 250t-73.5 262q-38 -137 -75 -262t-76 -250zM756 1943q106 0 188.5 -43t130.5 -115t48 -162h-200q0 64 -46.5 104.5t-120.5 40.5t-121 -40.5t-47 -104.5h-198
q0 90 47.5 162t130.5 115t188 43z" />
    <glyph glyph-name="uni0203" unicode="&#x203;" horiz-adv-x="1162" 
d="M419 -18q-159 0 -260.5 77.5t-101.5 235.5q0 119 55.5 188t148.5 102t206 42q142 12 200 29t58 65v5q0 47 -39.5 76.5t-107.5 29.5q-72 0 -114.5 -32t-47.5 -86h-320q11 172 137.5 268.5t356.5 96.5t353 -96.5t123 -271.5v-711h-336v148h-4q-47 -85 -121 -125.5
t-186 -40.5zM524 207q86 0 145 47.5t59 125.5v96q-27 -13 -75 -23t-112 -21q-69 -11 -113.5 -40t-44.5 -81q0 -49 39 -76.5t102 -27.5zM575 1509q106 0 188.5 -43t130.5 -115t48 -162h-200q0 64 -46.5 104.5t-120.5 40.5t-121 -40.5t-47 -104.5h-198q0 90 47.5 162
t130.5 115t188 43z" />
    <glyph glyph-name="uni0204" unicode="&#x204;" horiz-adv-x="1268" 
d="M96 0v1490h1110v-306h-750v-287h693v-297h-693v-294h750v-306h-1110zM377 1618l-285 319h321l206 -319h-242zM746 1618l-199 319h294l140 -319h-235z" />
    <glyph glyph-name="uni0205" unicode="&#x205;" horiz-adv-x="1171" 
d="M596 -24q-162 0 -284.5 71t-191 195.5t-68.5 285.5t68.5 285.5t189.5 195.5t277 71q159 0 279.5 -69.5t188.5 -192t68 -282.5v-93h-735q3 -101 60.5 -160t159.5 -59q76 0 127.5 31t70.5 83h309q-19 -106 -92 -188t-183.5 -128t-243.5 -46zM390 649h412q-12 83 -66 130
t-140 47q-87 0 -141 -47t-65 -130zM313 1184l-285 319h321l206 -319h-242zM682 1184l-199 319h294l140 -319h-235z" />
    <glyph glyph-name="uni0206" unicode="&#x206;" horiz-adv-x="1268" 
d="M96 0v1490h1110v-306h-750v-287h693v-297h-693v-294h750v-306h-1110zM651 1943q106 0 188.5 -43t130.5 -115t48 -162h-200q0 64 -46.5 104.5t-120.5 40.5t-121 -40.5t-47 -104.5h-198q0 90 47.5 162t130.5 115t188 43z" />
    <glyph glyph-name="uni0207" unicode="&#x207;" horiz-adv-x="1171" 
d="M596 -24q-162 0 -284.5 71t-191 195.5t-68.5 285.5t68.5 285.5t189.5 195.5t277 71q159 0 279.5 -69.5t188.5 -192t68 -282.5v-93h-735q3 -101 60.5 -160t159.5 -59q76 0 127.5 31t70.5 83h309q-19 -106 -92 -188t-183.5 -128t-243.5 -46zM390 649h412q-12 83 -66 130
t-140 47q-87 0 -141 -47t-65 -130zM587 1509q106 0 188.5 -43t130.5 -115t48 -162h-200q0 64 -46.5 104.5t-120.5 40.5t-121 -40.5t-47 -104.5h-198q0 90 47.5 162t130.5 115t188 43z" />
    <glyph glyph-name="uni0208" unicode="&#x208;" horiz-adv-x="552" 
d="M456 1490v-1490h-360v1490h360zM2 1618l-285 319h321l206 -319h-242zM371 1618l-199 319h294l140 -319h-235z" />
    <glyph glyph-name="uni0209" unicode="&#x209;" horiz-adv-x="536" 
d="M96 0v1056h344v-1056h-344zM-6 1184l-285 319h321l206 -319h-242zM363 1184l-199 319h294l140 -319h-235z" />
    <glyph glyph-name="uni020A" unicode="&#x20a;" horiz-adv-x="552" 
d="M456 1490v-1490h-360v1490h360zM276 1943q106 0 188.5 -43t130.5 -115t48 -162h-200q0 64 -46.5 104.5t-120.5 40.5t-121 -40.5t-47 -104.5h-198q0 90 47.5 162t130.5 115t188 43z" />
    <glyph glyph-name="uni020B" unicode="&#x20b;" horiz-adv-x="536" 
d="M96 0v1056h344v-1056h-344zM268 1509q106 0 188.5 -43t130.5 -115t48 -162h-200q0 64 -46.5 104.5t-120.5 40.5t-121 -40.5t-47 -104.5h-198q0 90 47.5 162t130.5 115t188 43z" />
    <glyph glyph-name="uni020C" unicode="&#x20c;" horiz-adv-x="1529" 
d="M765 -24q-202 0 -363.5 91.5t-255.5 263.5t-94 413q0 243 94 415.5t255.5 263.5t363.5 91q201 0 362.5 -91t255.5 -263.5t94 -415.5q0 -242 -94 -414t-255.5 -263t-362.5 -91zM765 290q160 0 255 119t95 335q0 217 -95 336.5t-255 119.5t-255.5 -119.5t-95.5 -336.5
q0 -216 95.5 -335t255.5 -119zM491 1618l-285 319h321l206 -319h-242zM860 1618l-199 319h294l140 -319h-235z" />
    <glyph glyph-name="uni020D" unicode="&#x20d;" horiz-adv-x="1215" 
d="M608 -24q-166 0 -291 68t-195 192t-70 292q0 166 70 290.5t195 193t291 68.5q165 0 290.5 -68.5t195 -193t69.5 -290.5q0 -168 -69.5 -291.5t-195 -192t-290.5 -68.5zM608 250q90 0 148.5 72t58.5 206t-58.5 206t-148.5 72t-148.5 -72t-58.5 -206t58 -206t149 -72z
M333 1184l-285 319h321l206 -319h-242zM702 1184l-199 319h294l140 -319h-235z" />
    <glyph glyph-name="uni020E" unicode="&#x20e;" horiz-adv-x="1529" 
d="M765 -24q-202 0 -363.5 91.5t-255.5 263.5t-94 413q0 243 94 415.5t255.5 263.5t363.5 91q201 0 362.5 -91t255.5 -263.5t94 -415.5q0 -242 -94 -414t-255.5 -263t-362.5 -91zM765 290q160 0 255 119t95 335q0 217 -95 336.5t-255 119.5t-255.5 -119.5t-95.5 -336.5
q0 -216 95.5 -335t255.5 -119zM764 1943q106 0 188.5 -43t130.5 -115t48 -162h-200q0 64 -46.5 104.5t-120.5 40.5t-121 -40.5t-47 -104.5h-198q0 90 47.5 162t130.5 115t188 43z" />
    <glyph glyph-name="uni020F" unicode="&#x20f;" horiz-adv-x="1215" 
d="M608 -24q-166 0 -291 68t-195 192t-70 292q0 166 70 290.5t195 193t291 68.5q165 0 290.5 -68.5t195 -193t69.5 -290.5q0 -168 -69.5 -291.5t-195 -192t-290.5 -68.5zM608 250q90 0 148.5 72t58.5 206t-58.5 206t-148.5 72t-148.5 -72t-58.5 -206t58 -206t149 -72z
M607 1509q106 0 188.5 -43t130.5 -115t48 -162h-200q0 64 -46.5 104.5t-120.5 40.5t-121 -40.5t-47 -104.5h-198q0 90 47.5 162t130.5 115t188 43z" />
    <glyph glyph-name="uni0210" unicode="&#x210;" horiz-adv-x="1347" 
d="M96 0v1490h614q173 0 299 -61.5t194.5 -174.5t68.5 -268q0 -143 -65 -250t-182 -168l286 -568h-380l-243 495h-232v-495h-360zM456 778h230q108 0 171 57t63 151q0 95 -63 152t-172 57h-229v-417zM397 1618l-285 319h321l206 -319h-242zM766 1618l-199 319h294l140 -319
h-235z" />
    <glyph glyph-name="uni0211" unicode="&#x211;" horiz-adv-x="806" 
d="M96 0v1056h333v-186h3q29 101 90.5 145.5t167.5 44.5q28 0 50.5 -0.5t43.5 -1.5v-284q-19 1 -59 2t-77 1q-93 0 -150.5 -62t-57.5 -174v-541h-344zM168 1184l-285 319h321l206 -319h-242zM537 1184l-199 319h294l140 -319h-235z" />
    <glyph glyph-name="uni0212" unicode="&#x212;" horiz-adv-x="1347" 
d="M96 0v1490h614q173 0 299 -61.5t194.5 -174.5t68.5 -268q0 -143 -65 -250t-182 -168l286 -568h-380l-243 495h-232v-495h-360zM456 778h230q108 0 171 57t63 151q0 95 -63 152t-172 57h-229v-417zM671 1943q106 0 188.5 -43t130.5 -115t48 -162h-200q0 64 -46.5 104.5
t-120.5 40.5t-121 -40.5t-47 -104.5h-198q0 90 47.5 162t130.5 115t188 43z" />
    <glyph glyph-name="uni0213" unicode="&#x213;" horiz-adv-x="806" 
d="M96 0v1056h333v-186h3q29 101 90.5 145.5t167.5 44.5q28 0 50.5 -0.5t43.5 -1.5v-284q-19 1 -59 2t-77 1q-93 0 -150.5 -62t-57.5 -174v-541h-344zM442 1509q106 0 188.5 -43t130.5 -115t48 -162h-200q0 64 -46.5 104.5t-120.5 40.5t-121 -40.5t-47 -104.5h-198
q0 90 47.5 162t130.5 115t188 43z" />
    <glyph glyph-name="uni0214" unicode="&#x214;" horiz-adv-x="1443" 
d="M722 -24q-191 0 -332 68.5t-218.5 191.5t-77.5 288v966h351v-937q0 -117 76.5 -194t200.5 -77t200 76.5t76 194.5v937h351v-966q0 -164 -78 -287.5t-219 -192t-330 -68.5zM447 1618l-285 319h321l206 -319h-242zM816 1618l-199 319h294l140 -319h-235z" />
    <glyph glyph-name="uni0215" unicode="&#x215;" horiz-adv-x="1231" 
d="M459 -23q-172 0 -267.5 110t-95.5 305v664h344v-592q0 -94 45 -143.5t127 -49.5q81 0 130 51.5t49 159.5v574h344v-1056h-340v171q-53 -90 -135 -142t-201 -52zM341 1184l-285 319h321l206 -319h-242zM710 1184l-199 319h294l140 -319h-235z" />
    <glyph glyph-name="uni0216" unicode="&#x216;" horiz-adv-x="1443" 
d="M722 -24q-191 0 -332 68.5t-218.5 191.5t-77.5 288v966h351v-937q0 -117 76.5 -194t200.5 -77t200 76.5t76 194.5v937h351v-966q0 -164 -78 -287.5t-219 -192t-330 -68.5zM721 1943q106 0 188.5 -43t130.5 -115t48 -162h-200q0 64 -46.5 104.5t-120.5 40.5t-121 -40.5
t-47 -104.5h-198q0 90 47.5 162t130.5 115t188 43z" />
    <glyph glyph-name="uni0217" unicode="&#x217;" horiz-adv-x="1231" 
d="M459 -23q-172 0 -267.5 110t-95.5 305v664h344v-592q0 -94 45 -143.5t127 -49.5q81 0 130 51.5t49 159.5v574h344v-1056h-340v171q-53 -90 -135 -142t-201 -52zM615 1509q106 0 188.5 -43t130.5 -115t48 -162h-200q0 64 -46.5 104.5t-120.5 40.5t-121 -40.5t-47 -104.5
h-198q0 90 47.5 162t130.5 115t188 43z" />
    <glyph glyph-name="uni0218" unicode="&#x218;" horiz-adv-x="1368" 
d="M689 -24q-298 0 -460 134.5t-162 381.5h343q4 -107 78.5 -167t203.5 -60q114 0 183.5 44.5t69.5 117.5q0 63 -60.5 103t-195.5 68l-153 31q-440 90 -440 421q0 138 73.5 242.5t205.5 163t307 58.5q268 0 423 -129.5t162 -358.5h-333q-8 92 -74 145.5t-173 53.5
q-102 0 -166.5 -44t-64.5 -114q0 -61 56.5 -98t184.5 -63l131 -26q248 -49 360.5 -151.5t112.5 -275.5q0 -225 -162 -351t-450 -126zM440 -473l92 355h316l-170 -355h-238z" />
    <glyph glyph-name="uni0219" unicode="&#x219;" horiz-adv-x="1103" 
d="M562 -26q-146 0 -259 44t-180.5 126t-76.5 194h339q8 -59 52 -93t120 -34q71 0 111 25t40 65q0 66 -128 89l-191 34q-156 28 -237.5 107t-81.5 204q0 156 126 249.5t347 93.5t352 -98t136 -267h-317q-1 55 -45.5 92t-113.5 37q-67 0 -104.5 -26t-37.5 -65q0 -65 114 -87
l212 -39q163 -30 241 -100t78 -188q0 -108 -62.5 -190t-174 -127.5t-259.5 -45.5zM307 -473l92 355h316l-170 -355h-238z" />
    <glyph glyph-name="uni021A.1" unicode="&#x21a;" horiz-adv-x="1321" 
d="M42 1184v306h1237v-306h-438v-1184h-360v1184h-439zM413 -473l92 355h316l-170 -355h-238z" />
    <glyph glyph-name="uni021B" unicode="&#x21b;" horiz-adv-x="803" 
d="M761 1056v-266h-217v-435q0 -51 20 -70t78 -19h119v-266h-195q-190 0 -278.5 71.5t-88.5 225.5v493h-180v266h180v288h345v-288h217zM217 -473l92 355h316l-170 -355h-238z" />
    <glyph glyph-name="uni021C" unicode="&#x21c;" horiz-adv-x="1354" 
d="M222 314v259q192 57 320 105.5t203 98.5t107 108.5t32 134.5q0 111 -55 162t-166 51q-98 0 -154.5 -38t-56.5 -103h-345q0 124 71 218t196.5 147t288.5 53q260 0 412 -109t152 -334q0 -228 -167 -388q88 -48 138 -131.5t50 -197.5q0 -214 -129.5 -377t-360 -267.5
t-536.5 -141.5v274q320 60 499.5 190.5t179.5 331.5q0 131 -68 163q-226 -117 -611 -209z" />
    <glyph glyph-name="uni021D" unicode="&#x21d;" horiz-adv-x="1161" 
d="M233 142v237q258 85 366 169t108 201q0 136 -133 136q-66 0 -102.5 -31.5t-36.5 -87.5h-335q0 171 127.5 268.5t352.5 97.5q226 0 342.5 -90t116.5 -263q0 -177 -136 -314q156 -81 156 -273q0 -452 -826 -628v243q185 67 292 128t153 127t46 148q0 64 -25 108
q-181 -99 -466 -176z" />
    <glyph glyph-name="uni021E" unicode="&#x21e;" horiz-adv-x="1479" 
d="M96 0v1490h360v-579h567v579h360v-1490h-360v605h-567v-605h-360zM612 1937l124 -164l130 164h257v-1l-255 -313h-264l-249 313v1h257z" />
    <glyph glyph-name="uni021F" unicode="&#x21f;" horiz-adv-x="1231" 
d="M440 574v-574h-344v1490h344v-597q53 87 134 136.5t198 49.5q172 0 267.5 -110t95.5 -305v-664h-344v592q0 94 -45 143.5t-127 49.5q-81 0 -130 -51.5t-49 -159.5zM141 1937l124 -164l130 164h257v-1l-255 -313h-264l-249 313v1h257z" />
    <glyph glyph-name="uni0220" unicode="&#x220;" horiz-adv-x="1359" 
d="M1237 -416h-338v1487q1 90 -52.5 132t-151.5 42q-121 0 -236 -69v-1176h-335v1490h335v-45q134 65 284 65q139 0 251 -53.5t177.5 -152t65.5 -233.5v-1487z" />
    <glyph glyph-name="uni0221" unicode="&#x221;" horiz-adv-x="1571" 
d="M1244 -418q-138 0 -229.5 37t-140.5 108l-192 -145l-153 196l281 209v170q-41 -90 -120 -135t-181 -45q-139 0 -241.5 68.5t-159 193t-56.5 291.5q0 161 58 285t160 194t236 70q204 0 303 -165h1v576h345v-1345q37 5 73 5q188 0 295.5 -88t107.5 -222q0 -124 -99.5 -191
t-287.5 -67zM605 252q98 0 158.5 75.5t60.5 202.5q0 125 -60.5 200t-158.5 75q-95 0 -149.5 -73t-54.5 -202q0 -130 54.5 -204t149.5 -74zM1155 -86v-36q0 -47 28 -71.5t71 -24.5q37 0 62 19t25 53q0 33 -24.5 54.5t-73.5 22.5q-43 2 -88 -17z" />
    <glyph glyph-name="uni0222" unicode="&#x222;" horiz-adv-x="1356" 
d="M665 974h25q109 0 167.5 27t58.5 116q0 103 -104 126v267q212 1 334 -102.5t122 -290.5q0 -101 -43 -175t-121 -121q77 -59 118 -146.5t41 -200.5q0 -154 -72 -264.5t-200.5 -170t-299.5 -59.5h-22q-172 0 -301.5 59t-202 169t-72.5 262q0 115 41.5 203t118.5 148
q-77 47 -118.5 120.5t-41.5 175.5q0 189 120.5 291.5t332.5 101.5v-267q-54 -12 -78 -41t-24 -85q0 -91 57 -117t164 -26zM691 694h-22q-102 0 -163.5 -59t-61.5 -165q0 -102 61.5 -159t163.5 -57h22q101 -1 160.5 56t59.5 164q0 105 -59.5 162.5t-160.5 57.5z" />
    <glyph glyph-name="uni0223" unicode="&#x223;" horiz-adv-x="1354" 
d="M689 947q115 0 174 44t59 145q0 73 -33 111.5t-80 52.5v256q198 0 321.5 -102.5t123.5 -309.5q0 -119 -42.5 -201t-118.5 -133q76 -55 118.5 -140.5t42.5 -204.5q0 -158 -73 -266t-200.5 -163.5t-292.5 -55.5h-21q-165 0 -293.5 55.5t-201.5 163.5t-73 265
q0 120 42.5 206t118.5 141q-75 51 -118 132.5t-43 200.5q0 204 123 308t321 104v-256q-45 -14 -76 -52.5t-31 -111.5q0 -102 57.5 -145.5t171.5 -43.5h24zM688 681h-21q-110 0 -170.5 -60t-60.5 -157q0 -96 60.5 -156t170.5 -60h21q114 0 172 60t58 157t-58 156.5t-172 59.5
z" />
    <glyph glyph-name="uni0224" unicode="&#x224;" horiz-adv-x="1317" 
d="M687 -418v281h127q92 0 92 86v51h-854v274l610 732q38 44 77 88.5t79 89.5h-748v306h1188v-274l-600 -729q-38 -45 -77.5 -90.5t-80.5 -90.5h765v-376q0 -348 -387 -348h-191z" />
    <glyph glyph-name="uni0225" unicode="&#x225;" horiz-adv-x="1108" 
d="M855 -208v70q0 67 -25 102.5t-87 35.5h-646v226l501 560v2h-501v268h905v-239l-490 -549v-2h268q173 0 266.5 -106.5t93.5 -299.5v-68h-285z" />
    <glyph glyph-name="uni0226" unicode="&#x226;" horiz-adv-x="1511" 
d="M5 0l512 1490h474l515 -1490h-402l-88 287h-529l-91 -287h-391zM577 568h352l-27 87q-37 125 -73.5 250t-73.5 262q-38 -137 -75 -262t-76 -250zM755 1593q-82 0 -135.5 49t-53.5 125t53.5 124.5t135.5 48.5q83 0 136.5 -48.5t53.5 -124.5t-53.5 -125t-136.5 -49z" />
    <glyph glyph-name="uni0227" unicode="&#x227;" horiz-adv-x="1162" 
d="M419 -18q-159 0 -260.5 77.5t-101.5 235.5q0 119 55.5 188t148.5 102t206 42q142 12 200 29t58 65v5q0 47 -39.5 76.5t-107.5 29.5q-72 0 -114.5 -32t-47.5 -86h-320q11 172 137.5 268.5t356.5 96.5t353 -96.5t123 -271.5v-711h-336v148h-4q-47 -85 -121 -125.5
t-186 -40.5zM524 207q86 0 145 47.5t59 125.5v96q-27 -13 -75 -23t-112 -21q-69 -11 -113.5 -40t-44.5 -81q0 -49 39 -76.5t102 -27.5zM575 1159q-82 0 -135.5 49t-53.5 125t53.5 124.5t135.5 48.5q83 0 136.5 -48.5t53.5 -124.5t-53.5 -125t-136.5 -49z" />
    <glyph glyph-name="uni0228" unicode="&#x228;" horiz-adv-x="1268" 
d="M96 0v1490h1110v-306h-750v-287h693v-297h-693v-294h750v-306h-1110zM517 -418v131h119q84 0 84 56q0 57 -84 57h-84l40 216h127v-119q91 -1 139.5 -48t48.5 -118q0 -86 -63.5 -130.5t-178.5 -44.5h-148z" />
    <glyph glyph-name="uni0229" unicode="&#x229;" horiz-adv-x="1171" 
d="M596 -24q-162 0 -284.5 71t-191 195.5t-68.5 285.5t68.5 285.5t189.5 195.5t277 71q159 0 279.5 -69.5t188.5 -192t68 -282.5v-93h-735q3 -101 60.5 -160t159.5 -59q76 0 127.5 31t70.5 83h309q-19 -106 -92 -188t-183.5 -128t-243.5 -46zM390 649h412q-12 83 -66 130
t-140 47q-87 0 -141 -47t-65 -130zM460 -418v131h119q84 0 84 56q0 57 -84 57h-84l40 216h127v-119q91 -1 139.5 -48t48.5 -118q0 -86 -63.5 -130.5t-178.5 -44.5h-148z" />
    <glyph glyph-name="uni022A" unicode="&#x22a;" horiz-adv-x="1529" 
d="M765 -24q-202 0 -363.5 91.5t-255.5 263.5t-94 413q0 243 94 415.5t255.5 263.5t363.5 91q201 0 362.5 -91t255.5 -263.5t94 -415.5q0 -242 -94 -414t-255.5 -263t-362.5 -91zM765 290q160 0 255 119t95 335q0 217 -95 336.5t-255 119.5t-255.5 -119.5t-95.5 -336.5
q0 -216 95.5 -335t255.5 -119zM1059 2213v-189h-589v189h589zM522 1585q-78 0 -129 48.5t-51 123.5q0 74 51 122.5t129 48.5q79 0 130 -48.5t51 -122.5q0 -75 -51 -123.5t-130 -48.5zM978 1585q-78 0 -129 48.5t-51 123.5q0 74 51 122.5t129 48.5q79 0 130 -48.5t51 -122.5
q0 -75 -51 -123.5t-130 -48.5z" />
    <glyph glyph-name="uni022B" unicode="&#x22b;" horiz-adv-x="1215" 
d="M608 -24q-166 0 -291 68t-195 192t-70 292q0 166 70 290.5t195 193t291 68.5q165 0 290.5 -68.5t195 -193t69.5 -290.5q0 -168 -69.5 -291.5t-195 -192t-290.5 -68.5zM608 250q90 0 148.5 72t58.5 206t-58.5 206t-148.5 72t-148.5 -72t-58.5 -206t58 -206t149 -72z
M902 1779v-189h-589v189h589zM365 1151q-78 0 -129 48.5t-51 123.5q0 74 51 122.5t129 48.5q79 0 130 -48.5t51 -122.5q0 -75 -51 -123.5t-130 -48.5zM821 1151q-78 0 -129 48.5t-51 123.5q0 74 51 122.5t129 48.5q79 0 130 -48.5t51 -122.5q0 -75 -51 -123.5t-130 -48.5z
" />
    <glyph glyph-name="uni022C" unicode="&#x22c;" horiz-adv-x="1529" 
d="M765 -24q-202 0 -363.5 91.5t-255.5 263.5t-94 413q0 243 94 415.5t255.5 263.5t363.5 91q201 0 362.5 -91t255.5 -263.5t94 -415.5q0 -242 -94 -414t-255.5 -263t-362.5 -91zM765 290q160 0 255 119t95 335q0 217 -95 336.5t-255 119.5t-255.5 -119.5t-95.5 -336.5
q0 -216 95.5 -335t255.5 -119zM908 1624q-69 0 -115 28t-80 55.5t-68 27.5q-33 0 -50.5 -28t-19.5 -76h-180q3 141 66 213.5t160 72.5q70 0 115.5 -27t79.5 -53.5t68 -26.5q38 0 54 26t19 76h177q-2 -140 -66.5 -214t-159.5 -74zM1060 2213v-189h-588v189h588z" />
    <glyph glyph-name="uni022D" unicode="&#x22d;" horiz-adv-x="1215" 
d="M608 -24q-166 0 -291 68t-195 192t-70 292q0 166 70 290.5t195 193t291 68.5q165 0 290.5 -68.5t195 -193t69.5 -290.5q0 -168 -69.5 -291.5t-195 -192t-290.5 -68.5zM608 250q90 0 148.5 72t58.5 206t-58.5 206t-148.5 72t-148.5 -72t-58.5 -206t58 -206t149 -72z
M751 1190q-69 0 -115 28t-80 55.5t-68 27.5q-33 0 -50.5 -28t-19.5 -76h-180q3 141 66 213.5t160 72.5q70 0 115.5 -27t79.5 -53.5t68 -26.5q38 0 54 26t19 76h177q-2 -140 -66.5 -214t-159.5 -74zM903 1779v-189h-588v189h588z" />
    <glyph glyph-name="uni022E" unicode="&#x22e;" horiz-adv-x="1529" 
d="M765 -24q-202 0 -363.5 91.5t-255.5 263.5t-94 413q0 243 94 415.5t255.5 263.5t363.5 91q201 0 362.5 -91t255.5 -263.5t94 -415.5q0 -242 -94 -414t-255.5 -263t-362.5 -91zM765 290q160 0 255 119t95 335q0 217 -95 336.5t-255 119.5t-255.5 -119.5t-95.5 -336.5
q0 -216 95.5 -335t255.5 -119zM764 1593q-82 0 -135.5 49t-53.5 125t53.5 124.5t135.5 48.5q83 0 136.5 -48.5t53.5 -124.5t-53.5 -125t-136.5 -49z" />
    <glyph glyph-name="uni022F" unicode="&#x22f;" horiz-adv-x="1215" 
d="M608 -24q-166 0 -291 68t-195 192t-70 292q0 166 70 290.5t195 193t291 68.5q165 0 290.5 -68.5t195 -193t69.5 -290.5q0 -168 -69.5 -291.5t-195 -192t-290.5 -68.5zM608 250q90 0 148.5 72t58.5 206t-58.5 206t-148.5 72t-148.5 -72t-58.5 -206t58 -206t149 -72z
M607 1159q-82 0 -135.5 49t-53.5 125t53.5 124.5t135.5 48.5q83 0 136.5 -48.5t53.5 -124.5t-53.5 -125t-136.5 -49z" />
    <glyph glyph-name="uni0230" unicode="&#x230;" horiz-adv-x="1529" 
d="M765 -24q-202 0 -363.5 91.5t-255.5 263.5t-94 413q0 243 94 415.5t255.5 263.5t363.5 91q201 0 362.5 -91t255.5 -263.5t94 -415.5q0 -242 -94 -414t-255.5 -263t-362.5 -91zM765 290q160 0 255 119t95 335q0 217 -95 336.5t-255 119.5t-255.5 -119.5t-95.5 -336.5
q0 -216 95.5 -335t255.5 -119zM1059 2213v-189h-589v189h589zM764 1581q-82 0 -135.5 49t-53.5 125t53.5 124.5t135.5 48.5q83 0 136.5 -48.5t53.5 -124.5t-53.5 -125t-136.5 -49z" />
    <glyph glyph-name="uni0231" unicode="&#x231;" horiz-adv-x="1215" 
d="M608 -24q-166 0 -291 68t-195 192t-70 292q0 166 70 290.5t195 193t291 68.5q165 0 290.5 -68.5t195 -193t69.5 -290.5q0 -168 -69.5 -291.5t-195 -192t-290.5 -68.5zM608 250q90 0 148.5 72t58.5 206t-58.5 206t-148.5 72t-148.5 -72t-58.5 -206t58 -206t149 -72z
M902 1779v-189h-589v189h589zM607 1147q-82 0 -135.5 49t-53.5 125t53.5 124.5t135.5 48.5q83 0 136.5 -48.5t53.5 -124.5t-53.5 -125t-136.5 -49z" />
    <glyph glyph-name="uni0232" unicode="&#x232;" horiz-adv-x="1453" 
d="M558 0v533l-553 957h411l235 -433q22 -41 42.5 -81.5t41.5 -80.5q19 40 39 80.5t41 81.5l224 433h409l-541 -957v-533h-349zM1021 1865v-210h-589v210h589z" />
    <glyph glyph-name="uni0233" unicode="&#x233;" horiz-adv-x="1170" 
d="M129 -418v267h146q54 0 76 23.5t41 81.5l18 48l-406 1054h360l156 -486q17 -55 33 -110t32 -111q15 56 31.5 111t33.5 110l159 486h356l-455 -1205q-54 -143 -135.5 -206t-214.5 -63h-231zM855 1431v-210h-589v210h589z" />
    <glyph glyph-name="uni0234" unicode="&#x234;" horiz-adv-x="856" 
d="M530 -418q-138 0 -229.5 37t-141.5 108l-192 -145l-153 196l282 209v1503h344v-1345q37 5 73 5q188 0 295.5 -88t107.5 -222q0 -124 -99 -191t-287 -67zM440 -86v-36q0 -47 28.5 -71.5t70.5 -24.5q37 0 62 19t25 53q0 33 -24.5 54.5t-73.5 22.5q-42 2 -88 -17z" />
    <glyph glyph-name="uni0235" unicode="&#x235;" horiz-adv-x="1551" 
d="M1225 -418q-138 0 -229.5 37t-141.5 108l-192 -145l-153 196l282 209v605q0 94 -45 143.5t-127 49.5q-81 0 -130 -51.5t-49 -159.5v-574h-344v1056h340v-171q53 90 135 142t201 52q172 0 267.5 -110t95.5 -305v-519q37 5 73 5q188 0 295.5 -88t107.5 -222
q0 -124 -99 -191t-287 -67zM1135 -86v-36q0 -47 28.5 -71.5t70.5 -24.5q37 0 62 19t25 53q0 33 -24.5 54.5t-73.5 22.5q-42 2 -88 -17z" />
    <glyph glyph-name="uni0236" unicode="&#x236;" horiz-adv-x="1029" 
d="M613 -20q-138 0 -229.5 37t-141.5 108l-192 -145l-152 196l281 210v404h-160v266h160v288h345v-288h217v-266h-217v-247q36 5 73 5q187 0 295 -88t108 -222q0 -124 -99.5 -191t-287.5 -67zM524 313v-36q0 -48 28 -72.5t70 -24.5q38 0 62.5 19.5t24.5 52.5t-24.5 54.5
t-73.5 23.5q-42 1 -87 -17z" />
    <glyph glyph-name="uni0237" unicode="&#x237;" horiz-adv-x="538" 
d="M97 1056h345v-1120q0 -173 -97 -263.5t-289 -90.5h-135v267h70q56 0 81 28.5t25 93.5v1085z" />
    <glyph glyph-name="uni0238" unicode="&#x238;" horiz-adv-x="1938" 
d="M1834 564v-20q0 -166 -52 -293t-147.5 -199t-227.5 -72q-87 0 -154 31t-117 86v-97h-302l-15 117q-51 -64 -122.5 -100.5t-166.5 -36.5q-131 0 -226.5 72t-147.5 199t-53 293v20q1 171 53 298.5t148 198.5t228 71q87 0 153.5 -30.5t115.5 -85.5v474h335v-475
q50 56 117 86.5t154 30.5q132 0 227.5 -71t147.5 -198.5t52 -298.5zM1498 544v20q1 137 -40.5 219.5t-147.5 82.5q-121 0 -174 -111v-399q53 -108 175 -108q77 0 117.5 40t55 107t14.5 149zM440 564v-20q0 -82 14.5 -149t55 -107t118.5 -40q121 0 173 108v399
q-52 111 -172 111q-106 0 -147.5 -82.5t-41.5 -219.5z" />
    <glyph glyph-name="uni0239" unicode="&#x239;" horiz-adv-x="1938" 
d="M801 -416v512q-50 -54 -117 -85t-154 -31q-131 0 -226.5 72t-147.5 199t-53 293v20q1 171 53 298.5t148 198.5t228 71q95 0 166 -36.5t122 -102.5l23 125h269l14 -115q50 61 119.5 95t161.5 34q132 0 227.5 -71t147.5 -198.5t52 -298.5v-20q0 -166 -52 -293t-147.5 -199
t-227.5 -72q-87 0 -154 31t-117 86v-513h-335zM1498 544v20q1 137 -40.5 219.5t-147.5 82.5q-121 0 -174 -111v-399q53 -108 175 -108q77 0 117.5 40t55 107t14.5 149zM440 564v-20q0 -82 14.5 -149t55 -107t118.5 -40q121 0 173 108v399q-52 111 -172 111
q-106 0 -147.5 -82.5t-41.5 -219.5z" />
    <glyph glyph-name="uni023A" unicode="&#x23a;" horiz-adv-x="1511" 
d="M1112 1678l-88 -281l482 -1397h-402l-88 287h-342l-150 -477h-99l150 477h-88l-91 -287h-391l512 1490h437l59 188h99zM664 568l137 435q-12 40 -23.5 81t-22.5 83q-38 -137 -75 -262t-76 -250l-27 -87h87zM848 839l-85 -271h166l-27 87q-14 46 -27.5 92t-26.5 92z" />
    <glyph glyph-name="uni023B" unicode="&#x23b;" horiz-adv-x="1490" 
d="M368 -190l75 236q-177 84 -284 262.5t-107 435.5q0 243 94 415.5t255.5 263.5t366.5 91q68 0 133 -11l55 175h198l-72 -229q147 -68 241.5 -197.5t117.5 -304.5h-363q-22 115 -98 182l-263 -835q27 -4 57 -4q120 0 200.5 66t104.5 185h362q-23 -171 -113.5 -298
t-234 -197t-325.5 -70q-76 0 -147 13l-56 -179h-197zM545 371l260 828q-15 1 -31 1q-172 0 -266 -121.5t-94 -334.5q0 -255 131 -373z" />
    <glyph glyph-name="uni023C" unicode="&#x23c;" horiz-adv-x="1164" 
d="M238 -418l124 439q-144 61 -227 193t-83 314q0 164 68.5 288.5t191.5 194t286 69.5q32 0 63 -3l117 413h190l-129 -457q121 -52 195 -154.5t82 -237.5h-332q-6 52 -31 91l-136 -483q71 4 114 49.5t52 119.5h333q-4 -129 -70.5 -228.5t-182 -156.5t-265.5 -57q-29 0 -58 2
l-112 -396h-190zM450 330l135 477q-88 -8 -136 -82t-48 -197q0 -124 49 -198z" />
    <glyph glyph-name="uni023D" unicode="&#x23d;" horiz-adv-x="1268" 
d="M206 0v1490h360v-1184h660v-306h-1020zM22 629v232h924v-232h-924z" />
    <glyph glyph-name="uni023E" unicode="&#x23e;" horiz-adv-x="1321" 
d="M199 -209l282 734v659h-439v306h811l80 209h191l-81 -209h236v-306h-354l-84 -220v-964h-360v31l-92 -240h-190z" />
    <glyph glyph-name="uni023F" unicode="&#x23f;" horiz-adv-x="1103" 
d="M562 -26q-35 0 -68 2q63 -105 101.5 -135t84.5 -30q68 0 117 26.5t85 55.5l99 -173q-55 -47 -132 -92.5t-181 -45.5q-98 0 -169 43.5t-122.5 110.5t-91.5 137l-148 254q-81 89 -91 211h339q8 -59 52 -93t120 -34q71 0 111 25t40 65q0 66 -128 89l-191 34
q-156 28 -237.5 107t-81.5 204q0 156 126 249.5t347 93.5t352 -98t136 -267h-317q-1 55 -45.5 92t-113.5 37q-67 0 -104.5 -26t-37.5 -65q0 -65 114 -87l212 -39q163 -30 241 -100t78 -188q0 -108 -62.5 -190t-174 -127.5t-259.5 -45.5z" />
    <glyph glyph-name="uni0240" unicode="&#x240;" horiz-adv-x="1108" 
d="M97 0v226l501 560v2h-501v268h905v-239l-490 -549v-2h141q111 0 172.5 -44t109.5 -156q44 -109 89.5 -163.5t110.5 -54.5q64 0 144 44l113 -236q-61 -36 -124 -56t-133 -20q-150 0 -260 88t-176 269q-23 39 -41.5 51t-55.5 12h-505z" />
    <glyph glyph-name="uni0241" unicode="&#x241;" horiz-adv-x="1159" 
d="M436 528h126q111 1 146.5 75.5t35.5 192.5v160q0 55 -11 118t-49.5 108t-121.5 45q-85 0 -126.5 -49.5t-41.5 -119.5h-330q-1 138 64 239.5t176.5 157t250.5 55.5q172 0 293 -72.5t184 -198t63 -283.5v-160q0 -186 -88.5 -325t-255.5 -194v-277h-350v528h35z" />
    <glyph glyph-name="uni0242" unicode="&#x242;" horiz-adv-x="1161" 
d="M106 685q0 136 59.5 236.5t166 155.5t247.5 55q218 0 346.5 -114t128.5 -314q0 -152 -77.5 -250t-226.5 -124v-330h-336v501h120q185 0 185 196q0 80 -32 124.5t-104 44.5q-141 0 -141 -181h-336z" />
    <glyph glyph-name="uni0243" unicode="&#x243;" horiz-adv-x="1378" 
d="M149 0v1490h620q248 0 379.5 -105t131.5 -273q0 -129 -75.5 -215.5t-201.5 -114.5v-2q93 -6 167.5 -51.5t118 -124t43.5 -183.5q0 -123 -60.5 -218t-176 -149t-281.5 -54h-665zM500 276h255q98 0 154 45.5t56 125.5q0 81 -55.5 128.5t-152.5 47.5h-257v-347zM500 885h235
q86 0 136 44.5t50 120.5q0 75 -50 119.5t-136 44.5h-235v-329zM9 377v144h692v-144h-692z" />
    <glyph glyph-name="uni0244" unicode="&#x244;" horiz-adv-x="1527" 
d="M1557 841v-196h-161v-121q0 -164 -78 -287.5t-218.5 -192t-330.5 -68.5q-191 0 -332 68.5t-218 191.5t-77 288v121h-172v196h172v649h350v-649h554v649h350v-649h161zM1046 645h-554v-92q0 -117 76.5 -194t200.5 -77t200.5 76.5t76.5 194.5v92z" />
    <glyph glyph-name="uni0245" unicode="&#x245;" horiz-adv-x="1545" 
d="M1086 0l-314 1086l-316 -1086h-386l514 1490h374l514 -1490h-386z" />
    <glyph glyph-name="uni0246" unicode="&#x246;" horiz-adv-x="1268" 
d="M302 -190l55 190h-261v1490h692l54 188h164l-54 -188h254v-306h-342l-83 -287h368v-297h-453l-85 -294h595v-306h-683l-55 -190h-166zM616 897l83 287h-243v-287h160zM456 341l75 259h-75v-259z" />
    <glyph glyph-name="uni0247" unicode="&#x247;" horiz-adv-x="1171" 
d="M224 -418l143 438q-146 61 -230.5 195t-84.5 313q0 161 68.5 285.5t189.5 195.5t277 71q64 0 124 -12l138 422h123l-150 -457q139 -62 220 -192.5t81 -304.5v-93h-495l-70 -214q24 -5 50 -5q76 0 127.5 31t70.5 83h309q-19 -106 -92 -188t-183.5 -128t-243.5 -46
q-61 0 -118 11l-133 -405h-121zM573 649l58 175q-17 2 -35 2q-87 0 -141 -47t-65 -130h183zM452 280l54 163h-118q3 -105 64 -163zM738 778l-42 -129h106q-11 82 -64 129z" />
    <glyph glyph-name="uni0248" unicode="&#x248;" horiz-adv-x="1262" 
d="M559 -23q-240 0 -373.5 125.5t-133.5 359.5v109h335v-112q0 -88 44.5 -135t122.5 -47t122 47t44 135v1031h360v-1037q0 -229 -137 -352.5t-384 -123.5zM554 812v144h692v-144h-692z" />
    <glyph glyph-name="uni0249" unicode="&#x249;" horiz-adv-x="538" 
d="M97 1056h345v-1120q0 -173 -97 -263.5t-289 -90.5h-135v267h70q56 0 81 28.5t25 93.5v1085zM-136 577v200h809v-200h-809zM268 1159q-82 0 -135.5 49t-53.5 125t53.5 124.5t135.5 48.5q83 0 136.5 -48.5t53.5 -124.5t-53.5 -125t-136.5 -49z" />
    <glyph glyph-name="Q_rthook" unicode="&#x24a;" horiz-adv-x="1543" 
d="M1447 1490v-1543q0 -91 91 -91h127v-274h-188q-193 0 -284 87t-91 261v280h-2q-61 -112 -169.5 -171.5t-249.5 -59.5q-184 0 -326 98t-222.5 270.5t-80.5 396.5q0 223 81 396t223 272t325 99q138 0 247 -60t172 -170h2v209h345zM754 287q163 0 255 121.5t92 335.5
q0 217 -91.5 338t-254.5 121q-162 0 -253 -121.5t-91 -337.5q0 -215 90.5 -336t252.5 -121z" />
    <glyph glyph-name="qrthook" unicode="&#x24b;" horiz-adv-x="1247" 
d="M1181 -418q-193 0 -282 87t-89 261v225q-42 -87 -119.5 -132.5t-181.5 -45.5q-139 0 -241.5 68.5t-159 193t-56.5 291.5q0 161 58 285t160 194t236 70q208 0 304 -161h4v138h337v-1109q0 -91 91 -91h128v-274h-189zM605 252q98 0 158.5 75.5t60.5 202.5q0 125 -60.5 200
t-158.5 75q-95 0 -149.5 -73t-54.5 -202q0 -130 54.5 -204t149.5 -74z" />
    <glyph glyph-name="uni024C" unicode="&#x24c;" horiz-adv-x="1359" 
d="M134 0v539h-139v257h139v694h614q172 0 298 -61.5t194.5 -174.5t68.5 -268q0 -143 -64.5 -250t-182.5 -168l287 -568h-380l-244 495h-232v-495h-359zM493 778h230q109 0 172 57t63 151q0 95 -63.5 152t-171.5 57h-230v-417z" />
    <glyph glyph-name="uni024D" unicode="&#x24d;" horiz-adv-x="806" 
d="M96 0v1056h333v-186h3q29 101 90.5 145.5t167.5 44.5q28 0 50.5 -0.5t43.5 -1.5v-284q-19 1 -59 2t-77 1q-93 0 -150.5 -62t-57.5 -174v-541h-344zM-137 430v200h809v-200h-809z" />
    <glyph glyph-name="uni024E" unicode="&#x24e;" horiz-adv-x="1479" 
d="M1476 1178v-173h-303l-266 -472v-533h-349v533l-272 472h-285v173h184l-180 312h411l169 -312h292l162 312h409l-177 -312h205zM788 1005h-109q14 -28 28 -55.5t28 -54.5q13 27 26 54.5t27 55.5z" />
    <glyph glyph-name="uni024F" unicode="&#x24f;" horiz-adv-x="1185" 
d="M1179 742v-163h-186l-276 -728q-54 -143 -135.5 -206t-213.5 -63h-232v267h147q54 0 76 23.5t41 81.5l18 48l-222 577h-191v163h128l-121 314h360l101 -314h241l102 314h357l-119 -314h125zM661 579h-136l3 -9q17 -55 33 -110t32 -111q15 56 31 111t34 110z" />
    <glyph glyph-name="aturn" unicode="&#x250;" horiz-adv-x="1162" 
d="M743 1074q158 0 260 -77.5t102 -235.5q0 -119 -56 -188t-149 -102t-205 -42q-142 -12 -200 -29t-58 -65v-5q0 -47 39.5 -76.5t107.5 -29.5q72 0 114.5 32t47.5 86h320q-11 -172 -137.5 -268.5t-356.5 -96.5t-353 96.5t-123 271.5v711h336v-148h4q47 85 121 125.5
t186 40.5zM638 849q-86 0 -145 -47.5t-59 -125.5v-96q27 13 75 23t112 21q69 11 113.5 40t44.5 81q0 49 -39 76.5t-102 27.5z" />
    <glyph glyph-name="ascript" unicode="&#x251;" horiz-adv-x="1247" 
d="M509 -23q-139 0 -241.5 68.5t-159 193t-56.5 291.5q0 161 58 285t160 194t236 70q208 0 304 -161h4v138h337v-1056h-337v157h-3q-41 -88 -119.5 -134t-182.5 -46zM605 252q98 0 158.5 75.5t60.5 202.5q0 125 -60.5 200t-158.5 75q-95 0 -149.5 -73t-54.5 -202
q0 -130 54.5 -204t149.5 -74z" />
    <glyph glyph-name="ascriptturn" unicode="&#x252;" horiz-adv-x="1247" 
d="M738 -23q-105 0 -183 46t-119 134h-4v-157h-336v1056h336v-138h5q95 161 304 161q134 0 236 -70t159.5 -194t57.5 -285q0 -167 -56.5 -291.5t-159 -193t-240.5 -68.5zM641 252q95 0 150 74t55 204q0 129 -55 202t-150 73q-97 0 -158 -75t-61 -200q0 -127 61 -202.5
t158 -75.5z" />
    <glyph glyph-name="uni0253" unicode="&#x253;" horiz-adv-x="1251" 
d="M742 -23q-104 0 -182.5 46t-119.5 134h-4v-157h-340v1142q0 174 92 261t285 87h188v-274h-127q-94 0 -94 -91v-228l5 7q95 157 300 157q134 0 236 -68.5t159.5 -189.5t57.5 -279q0 -164 -56.5 -287t-159 -191.5t-240.5 -68.5zM645 252q95 0 150 72.5t55 199.5t-55 198.5
t-150 71.5q-97 0 -158 -73.5t-61 -196.5q0 -124 61 -198t158 -74z" />
    <glyph glyph-name="uni0254" unicode="&#x254;" horiz-adv-x="1156" 
d="M80 390h313q1 -69 46 -105.5t123 -36.5q80 0 118 40.5t49.5 107t11.5 144.5v27q0 69 -10.5 138t-49 115t-121.5 46q-85 0 -125.5 -54t-41.5 -146h-313q1 153 61.5 257t167 156.5t245.5 52.5q173 0 289 -73t174.5 -200.5t58.5 -291.5v-27q1 -163 -58.5 -289.5t-176 -198.5
t-288.5 -72q-135 0 -242 50.5t-168.5 142.5t-62.5 217z" />
    <glyph glyph-name="drthook" unicode="&#x256;" horiz-adv-x="1251" 
d="M1186 -418q-194 0 -283 87t-89 261v233h-1q-41 -93 -120.5 -139.5t-183.5 -46.5q-139 0 -241.5 68.5t-159 193t-56.5 291.5q0 161 58 285t160 194t236 70q204 0 303 -165h1v576h345v-1543q0 -91 91 -91h128v-274h-188zM605 252q98 0 158.5 75.5t60.5 202.5
q0 125 -60.5 200t-158.5 75q-95 0 -149.5 -73t-54.5 -202q0 -130 54.5 -204t149.5 -74z" />
    <glyph glyph-name="uni0257" unicode="&#x257;" horiz-adv-x="1247" 
d="M509 -23q-139 0 -241.5 68.5t-159 193t-56.5 291.5q0 161 58 285t160 194t236 70q204 0 300 -155v218q0 174 92 261t286 87h188v-274h-127q-94 0 -94 -91v-1125h-337v157h-3q-41 -88 -119.5 -134t-182.5 -46zM605 252q98 0 158.5 75.5t60.5 202.5q0 125 -60.5 200
t-158.5 75q-95 0 -149.5 -73t-54.5 -202q0 -130 54.5 -204t149.5 -74z" />
    <glyph glyph-name="erev" unicode="&#x258;" horiz-adv-x="1154" 
d="M531 -20q-160 0 -274 56.5t-173 132.5l158 187q52 -60 121 -84t135 -24q108 0 175 52t85 148h-702v140q1 258 136 401t367 143q178 0 298.5 -77t181.5 -207t61 -290v-38q0 -149 -68 -271.5t-195.5 -195.5t-305.5 -73zM757 662q-12 79 -54.5 141.5t-142.5 62.5
q-78 0 -127 -47.5t-52 -142.5v-14h376z" />
    <glyph glyph-name="uni0259" unicode="&#x259;" horiz-adv-x="1171" 
d="M575 1080q162 0 284.5 -71t191 -195.5t68.5 -285.5t-68.5 -285.5t-189.5 -195.5t-277 -71q-159 0 -279.5 69.5t-188.5 192t-68 282.5v93h735q-3 101 -60.5 160t-159.5 59q-76 0 -127.5 -31t-70.5 -83h-309q19 106 91.5 188t183.5 128t244 46zM781 407h-412
q12 -83 65.5 -130t140.5 -47t141 47t65 130z" />
    <glyph glyph-name="uni025A" unicode="&#x25a;" horiz-adv-x="1675" 
d="M584 -24q-159 0 -279.5 69.5t-188.5 192t-68 282.5v42l727 113q-18 74 -72.5 115.5t-139.5 41.5q-76 0 -127.5 -31t-70.5 -83h-309q19 106 91.5 188t183.5 128t244 46q190 0 325.5 -97t188.5 -259l303 50q22 -141 40.5 -215.5t42 -101.5t60.5 -27q26 0 70 12l51 -208
q-90 -34 -179 -34q-123 0 -191 75.5t-105 254.5l-62 -10q-2 -159 -71 -281.5t-189 -192.5t-275 -70zM784 469l-414 -65q12 -82 65.5 -128t139.5 -46q97 0 153 58.5t56 160.5v20z" />
    <glyph glyph-name="epsilon1" unicode="&#x25b;" horiz-adv-x="1098" 
d="M539 -24q-137 0 -249 38.5t-178 113.5t-66 182q0 94 49.5 150t129.5 86q-72 23 -111.5 68.5t-39.5 125.5q0 103 63 179.5t171.5 118.5t243.5 42q130 0 237 -40t173 -118t73 -193h-326q-4 57 -44.5 86t-107.5 29q-64 0 -107.5 -25.5t-43.5 -73.5q0 -41 36 -68t104 -27h138
v-212h-140q-68 0 -110.5 -28.5t-42.5 -82.5t41.5 -84.5t113.5 -30.5q75 0 118 33t50 93h339q-5 -107 -69.5 -188.5t-178 -127.5t-266.5 -46z" />
    <glyph glyph-name="epsilon1rev" unicode="&#x25c;" horiz-adv-x="1098" 
d="M559 -24q-153 0 -266.5 46t-178 127.5t-69.5 188.5h339q7 -60 50 -93t118 -33q72 0 114 30.5t42 84.5t-42.5 82.5t-111.5 28.5h-140v212h138q68 0 104 27t36 68q0 48 -43.5 73.5t-106.5 25.5q-68 0 -108.5 -29t-44.5 -86h-326q8 115 74 193t172.5 118t236.5 40
q135 0 243.5 -42t171.5 -118.5t63 -179.5q0 -80 -39.5 -125.5t-111.5 -68.5q80 -30 130 -86t50 -150q0 -107 -66.5 -182t-178.5 -113.5t-249 -38.5z" />
    <glyph glyph-name="epsilon1revhook" unicode="&#x25d;" horiz-adv-x="1588" 
d="M1390 346q-123 0 -189.5 70.5t-100.5 236.5l-146 -68q-32 -24 -81 -39q80 -30 130 -86t50 -150q0 -107 -66.5 -182t-178.5 -113.5t-249 -38.5q-153 0 -266.5 46t-178 127.5t-69.5 188.5h339q7 -60 50 -93t118 -33q72 0 114 30.5t42 84.5t-42.5 82.5t-111.5 28.5h-140v212
h138q68 0 104 27t36 68q0 48 -43.5 73.5t-106.5 25.5q-68 0 -108.5 -29t-44.5 -86h-326q8 115 74 193t172.5 118t236.5 40q175 0 303.5 -69.5t163.5 -189.5l278 119q22 -141 44.5 -220t49 -111t63.5 -32q26 0 70 12l51 -209q-90 -34 -179 -34z" />
    <glyph glyph-name="epsilon1revclosed" unicode="&#x25e;" horiz-adv-x="1143" 
d="M603 -24q-161 0 -285 58t-195 180t-71 314q0 156 45.5 262t122 170t173 92t197.5 28q136 0 244 -42t171.5 -118.5t63.5 -179.5q0 -80 -40 -125.5t-111 -68.5q79 -30 129 -86t50 -150q0 -107 -66 -182t-178 -113.5t-250 -38.5zM519 590v60h77q68 0 104 27t36 68
q0 48 -43.5 73.5t-106.5 25.5q-50 0 -93.5 -24t-70 -92t-26.5 -200q0 -128 27.5 -196.5t73 -94t99.5 -25.5q72 0 114 30.5t42 84.5t-42.5 82.5t-111.5 28.5h-79v152z" />
    <glyph glyph-name="jdotlessbar" unicode="&#x25f;" horiz-adv-x="538" 
d="M97 1056h345v-1120q0 -173 -97 -263.5t-289 -90.5h-135v267h70q56 0 81 28.5t25 93.5v1085zM-136 577v200h809v-200h-809z" />
    <glyph glyph-name="uni0260" unicode="&#x260;" horiz-adv-x="1251" 
d="M617 -432q-244 0 -366.5 99t-146.5 251h329q14 -49 62 -77.5t122 -28.5q196 0 196 212v163h-1q-42 -94 -121 -137t-182 -43q-139 0 -241.5 68.5t-159 188.5t-56.5 275q0 157 58 279t160 191.5t236 69.5q204 0 304 -168v231q0 174 92.5 261t285.5 87h188v-274h-127
q-94 0 -94 -91v-1067q0 -258 -145.5 -374t-392.5 -116zM605 277q98 0 158.5 72.5t60.5 195.5q0 121 -60.5 194t-158.5 73q-95 0 -149.5 -71t-54.5 -196q0 -126 54.5 -197t149.5 -71z" />
    <glyph glyph-name="gcursive" unicode="&#x261;" horiz-adv-x="1251" 
d="M617 -432q-244 0 -366.5 99t-146.5 251h329q14 -49 62 -77.5t122 -28.5q196 0 196 212v163h-1q-42 -94 -121 -137t-182 -43q-139 0 -241.5 68.5t-159 188.5t-56.5 275q0 157 58 279t160 191.5t236 69.5q205 0 306 -171h1v148h342v-998q0 -258 -145.5 -374t-392.5 -116z
M605 277q98 0 158.5 72.5t60.5 195.5q0 121 -60.5 194t-158.5 73q-95 0 -149.5 -71t-54.5 -196q0 -126 54.5 -197t149.5 -71z" />
    <glyph glyph-name="g.sc" unicode="&#x262;" horiz-adv-x="1096" 
d="M561 -17q-160 0 -279 66.5t-185.5 188.5t-66.5 289q0 177 71 298.5t190.5 184.5t265.5 63q128 0 236 -46.5t176 -131.5t78 -202h-328q-21 101 -151 101q-104 0 -157 -68.5t-53 -196.5q0 -129 52.5 -197.5t159.5 -68.5q83 0 126.5 30.5t46.5 80.5h-173v229h487v-164
q0 -140 -62.5 -242t-174.5 -158t-259 -56z" />
    <glyph glyph-name="gamma1" unicode="&#x263;" horiz-adv-x="1352" 
d="M679 -442q-181 0 -287.5 70t-107.5 213q-1 57 18.5 126.5t60.5 141.5l144 258l-423 751h349l244 -447l249 447h350l-425 -766l127 -232q46 -82 65.5 -153.5t20.5 -128.5q0 -141 -102.5 -210.5t-282.5 -69.5zM682 40q-27 -57 -41.5 -104.5t-14.5 -86.5q0 -31 11.5 -47
t41.5 -16q50 0 50 63q0 42 -12.5 90.5t-34.5 100.5z" />
    <glyph glyph-name="babygamma" unicode="&#x264;" horiz-adv-x="1346" 
d="M177 785l-154 193q51 61 124 107.5t179 46.5q98 0 177 -53t169 -174q88 120 168.5 173.5t179.5 53.5q107 0 179 -46.5t126 -107.5l-158 -193q-23 23 -52 40.5t-57 17.5q-48 0 -90.5 -48.5t-118.5 -162.5q4 -6 8 -13q60 -103 105 -199.5t45 -187.5q0 -129 -94 -190.5
t-240 -61.5q-149 0 -242.5 62.5t-93.5 189.5q0 91 46.5 188.5t113.5 212.5q1 2 2 3q-83 120 -128 163.5t-86 43.5q-27 0 -57 -17.5t-51 -40.5zM671 361q-42 -75 -42 -111q0 -12 8.5 -26t35.5 -14q23 0 31.5 14t9.5 26q-1 35 -43 111z" />
    <glyph glyph-name="hturn" unicode="&#x265;" horiz-adv-x="1231" 
d="M791 482v574h344v-1490h-344v597q-53 -87 -134.5 -136.5t-197.5 -49.5q-172 0 -267.5 110t-95.5 305v664h344v-592q0 -94 45 -143.5t127 -49.5q81 0 130 51.5t49 159.5z" />
    <glyph glyph-name="uni0266" unicode="&#x266;" horiz-adv-x="1231" 
d="M440 574v-574h-344v1142q0 174 92 261t285 87h188v-274h-127q-94 0 -94 -91v-232q53 87 134 136.5t198 49.5q172 0 267.5 -110t95.5 -305v-664h-344v592q0 94 -45 143.5t-127 49.5q-81 0 -130 -51.5t-49 -159.5z" />
    <glyph glyph-name="uni0267" unicode="&#x267;" horiz-adv-x="1231" 
d="M764 -418h-192v274h127q92 0 92 91v645q0 94 -45 143.5t-127 49.5q-81 0 -130 -51.5t-49 -159.5v-574h-344v1142q0 174 92 261t285 87h188v-274h-127q-94 0 -94 -91v-232q53 87 134 136.5t198 49.5q172 0 267.5 -110t95.5 -305v-734q0 -174 -89 -261t-282 -87z" />
    <glyph glyph-name="ibar" unicode="&#x268;" horiz-adv-x="536" 
d="M96 0v1056h344v-1056h-344zM267 1159q-82 0 -135.5 49t-53.5 125t53.5 124.5t135.5 48.5q83 0 136.5 -48.5t53.5 -124.5t-53.5 -125t-136.5 -49zM-137 494v200h809v-200h-809z" />
    <glyph glyph-name="iota" unicode="&#x3b9;" horiz-adv-x="595" 
d="M466 0q-195 0 -282.5 71t-87.5 234v751h344v-718q0 -80 83 -80h43v-258h-100z" />
    <glyph glyph-name="iota" unicode="&#x269;" horiz-adv-x="595" 
d="M466 0q-195 0 -282.5 71t-87.5 234v751h344v-718q0 -80 83 -80h43v-258h-100z" />
    <glyph glyph-name="lmidtilde" unicode="&#x26b;" horiz-adv-x="536" 
d="M440 1490v-1490h-344v1490h344zM455 576q-84 0 -138.5 27.5t-95 55t-81.5 27.5q-39 0 -60.5 -27.5t-23.5 -76.5h-218q4 141 80 213.5t194 72.5q83 0 137.5 -26.5t95 -53.5t81.5 -27q46 0 65 26t22 76h215q-3 -140 -81 -213.5t-192 -73.5z" />
    <glyph glyph-name="uni026C" unicode="&#x26c;" horiz-adv-x="1025" 
d="M1006 492h-217v-492h-347v492h-115q-154 0 -248.5 77t-94.5 209q0 138 97.5 221.5t264.5 83.5q51 0 96 -17v424h347v-770h217v-228zM442 745q0 48 -23 78.5t-65 30.5q-36 0 -58.5 -19t-22.5 -48t24.5 -48t65.5 -19h79v25z" />
    <glyph glyph-name="lrthook" unicode="&#x26d;" horiz-adv-x="536" 
d="M471 -418q-194 0 -284.5 87t-90.5 261v1560h344v-1543q0 -91 92 -91h127v-274h-188z" />
    <glyph glyph-name="lyogh" unicode="&#x26e;" horiz-adv-x="1461" 
d="M96 1490h324v-372h949l1 -234l-412 -403v-12q164 -19 265 -84.5t147 -158.5t45 -197q-2 -142 -77.5 -248t-208 -164.5t-306.5 -58.5q-137 0 -250.5 39.5t-190.5 110.5l253 209q65 -73 190 -73q99 0 160.5 56.5t61.5 159.5q0 98 -61 154t-177 56h-191v239l328 320v10h-526
v-777h-324v1428z" />
    <glyph glyph-name="mturn" unicode="&#x26f;" horiz-adv-x="1847" 
d="M1752 1056v-1056h-332v198q-46 -113 -133 -167t-190 -54q-105 0 -189 54.5t-116 158.5q-41 -103 -134 -158t-206 -55q-156 0 -256 100t-100 276v703h344v-627q0 -84 45 -128.5t114 -44.5q73 0 116.5 49t43.5 129v622h329v-631q0 -77 43 -123t114 -46q70 0 116 48.5
t46 136.5v615h345z" />
    <glyph glyph-name="mturndescend" unicode="&#x270;" horiz-adv-x="1847" 
d="M1420 -418v616q-46 -113 -133 -167t-190 -54q-105 0 -189 54.5t-116 158.5q-41 -103 -134 -158t-206 -55q-156 0 -256 100t-100 276v703h344v-627q0 -84 45 -128.5t114 -44.5q73 0 116.5 49t43.5 129v622h329v-631q0 -77 43 -123t114 -46q70 0 116 48.5t46 136.5v615h345
v-1474h-332z" />
    <glyph glyph-name="uni0271" unicode="&#x271;" horiz-adv-x="1847" 
d="M1380 -418h-192v274h128q91 0 91 91v680q0 84 -44.5 128.5t-114.5 44.5q-73 0 -116.5 -49t-43.5 -129v-622h-329v631q0 77 -43 123t-113 46t-116.5 -48.5t-46.5 -136.5v-615h-344v1056h331v-198q46 113 133 167t190 54q106 0 189.5 -54.5t116.5 -158.5q40 103 133 158
t206 55q156 0 256.5 -100t100.5 -276v-773q0 -174 -89.5 -261t-282.5 -87z" />
    <glyph glyph-name="nlfthook" unicode="&#x272;" horiz-adv-x="1231" 
d="M69 -418h-192v274h127q92 0 92 91v1109h340v-171q53 90 135 142t201 52q172 0 267.5 -110t95.5 -305v-664h-344v592q0 94 -45 143.5t-127 49.5q-81 0 -130 -51.5t-49 -159.5v-644q0 -174 -89 -261t-282 -87z" />
    <glyph glyph-name="nrthook" unicode="&#x273;" horiz-adv-x="1231" 
d="M1166 -418q-194 0 -284.5 87t-90.5 261v662q0 94 -45 143.5t-127 49.5q-81 0 -130 -51.5t-49 -159.5v-574h-344v1056h340v-171q53 90 135 142t201 52q172 0 267.5 -110t95.5 -305v-717q0 -91 92 -91h127v-274h-188z" />
    <glyph glyph-name="obar" unicode="&#x275;" horiz-adv-x="1215" 
d="M608 -24q-166 0 -291 68t-195 192t-70 292q0 166 70 290.5t195 193t291 68.5q165 0 290.5 -68.5t195 -193t69.5 -290.5q0 -168 -69.5 -291.5t-195 -192t-290.5 -68.5zM608 250q76 0 130 51.5t71 148.5h-402q16 -97 70 -148.5t131 -51.5zM407 606h401q-16 97 -70.5 148.5
t-129.5 51.5q-76 0 -130.5 -51.5t-70.5 -148.5z" />
    <glyph glyph-name="omegaclosed" unicode="&#x277;" horiz-adv-x="1945" 
d="M973 1132q244 0 424.5 -77.5t279 -223.5t97.5 -351q0 -130 -44 -244t-141.5 -185t-258.5 -71q-249 0 -357 207q-107 -207 -357 -207q-160 0 -257 71t-141.5 185t-45.5 244q0 205 99 351t279 223.5t423 77.5zM973 866q-171 0 -274 -54.5t-149.5 -142.5t-46.5 -190
q2 -108 36 -169.5t105 -61.5q66 0 108.5 57.5t42.5 196.5v191h357v-191q0 -139 42.5 -196.5t107.5 -57.5q72 0 106.5 61.5t34.5 169.5q0 102 -46 190t-149 142.5t-275 54.5z" />
    <glyph glyph-name="philatin" unicode="&#x278;" horiz-adv-x="1553" 
d="M134 544v24q0 263 130 392.5t347 160.5v369h331v-369q217 -30 347.5 -160t130.5 -393v-24q-1 -264 -131 -393.5t-347 -159.5v-387h-331v387q-136 19 -244 80t-171 175.5t-62 297.5zM469 568v-24q0 -121 40 -183t102 -88v565q-62 -27 -102 -89.5t-40 -180.5zM942 838v-564
q61 25 101 87t40 183v24q0 117 -38.5 180t-102.5 90z" />
    <glyph glyph-name="rturn" unicode="&#x279;" horiz-adv-x="806" 
d="M710 1056v-1056h-333v186h-3q-29 -101 -90.5 -145.5t-167.5 -44.5q-28 0 -50.5 0.5t-43.5 1.5v284q19 -1 59 -2t77 -1q92 0 150 62t58 174v541h344z" />
    <glyph glyph-name="rturnascend" unicode="&#x27a;" horiz-adv-x="767" 
d="M52 -8l1 323q23 -3 58.5 -6t56.5 -3q168 0 216 101v1129h333v-1536h-315l-8 135q-42 -73 -105 -114t-144 -41q-25 0 -50.5 2.5t-42.5 9.5z" />
    <glyph glyph-name="rturnrthook" unicode="&#x27b;" horiz-adv-x="806" 
d="M681 -418q-147 0 -225.5 77.5t-78.5 222.5v304h-3q-29 -101 -90.5 -145.5t-167.5 -44.5q-28 0 -50.5 0.5t-43.5 1.5v284q19 -1 59 -2t77 -1q92 0 150 62t58 174v541h344v-1133q0 -74 76 -74h143v-267h-248z" />
    <glyph glyph-name="uni027E" unicode="&#x27e;" horiz-adv-x="806" 
d="M96 0v562q0 241 135.5 369t394.5 128q33 0 85 -0.5t73 -0.5v-282q-20 0 -59.5 0.5t-76.5 0.5q-93 0 -150.5 -51t-57.5 -164v-562h-344z" />
    <glyph glyph-name="rfishhookrev" unicode="&#x27f;" horiz-adv-x="806" 
d="M710 0h-344v562q0 113 -58 164t-150 51q-37 0 -76.5 -0.5t-59.5 -0.5v282q21 0 73 0.5t85 0.5q259 0 394.5 -128t135.5 -369v-562z" />
    <glyph glyph-name="srthook" unicode="&#x282;" horiz-adv-x="1103" 
d="M352 -418q-148 0 -227 77.5t-79 222.5v456h339q8 -59 52 -93t120 -34q71 0 111 25t40 65q0 66 -128 89l-191 34q-156 28 -237.5 107t-81.5 204q0 156 126 249.5t347 93.5t352 -98t136 -267h-317q-1 55 -45.5 92t-113.5 37q-67 0 -104.5 -26t-37.5 -65q0 -65 114 -87
l212 -39q163 -30 241 -100t78 -188q0 -108 -62.5 -190t-174 -127.5t-259.5 -45.5q-114 0 -210 28v-79q0 -74 77 -74h179v-267h-256z" />
    <glyph glyph-name="uni0283" unicode="&#x283;" horiz-adv-x="700" 
d="M64 -483h-143v269h82q58 0 84.5 29.5t26.5 97.5v1270q0 375 398 375h148v-269h-87q-60 0 -87.5 -32t-27.5 -103v-1270q0 -367 -394 -367z" />
    <glyph glyph-name="jhookdblbar" unicode="&#x284;" horiz-adv-x="700" 
d="M64 -483h-143v269h82q58 0 84.5 29.5t26.5 97.5v1270q0 375 398 375h148v-269h-87q-60 0 -87.5 -32t-27.5 -103v-1270q0 -367 -394 -367zM-119 0v200h809v-200h-809z" />
    <glyph glyph-name="uni0286" unicode="&#x286;" horiz-adv-x="1209" 
d="M810 -273q-50 -71 -141.5 -108t-229.5 -37q-188 0 -287.5 67t-99.5 191q0 134 108 222t295 88q37 0 73 -5v1038q0 375 398 375h149v-269h-88q-60 0 -87 -32t-27 -103v-1167l281 -209l-152 -196zM528 -86q-45 19 -87 17q-49 -1 -73.5 -22.5t-24.5 -54.5q0 -34 24.5 -53
t62.5 -19q42 0 70 24.5t28 71.5v36z" />
    <glyph glyph-name="tturn" unicode="&#x287;" horiz-adv-x="803" 
d="M604 -288h-345v288h-217v266h217v435q0 51 -20 70t-77 19h-120v266h195q190 0 278.5 -71.5t88.5 -225.5v-493h181v-266h-181v-288z" />
    <glyph glyph-name="trthook" unicode="&#x288;" horiz-adv-x="783" 
d="M548 -418q-188 0 -278.5 78t-90.5 239v891h-160v266h160v288h345v-288h217v-266h-217v-831q0 -60 25 -85.5t87 -25.5h105v-266h-193z" />
    <glyph glyph-name="uni0289" unicode="&#x289;" horiz-adv-x="1380" 
d="M1361 704v-193h-151v-511h-340v171q-53 -90 -135.5 -142t-200.5 -52q-173 0 -268.5 110t-95.5 305v119h-151v193h151v352h345v-352h350v352h345v-352h151zM865 511h-350v-47q0 -94 44.5 -143.5t126.5 -49.5t130.5 51.5t48.5 159.5v29z" />
    <glyph glyph-name="upsilonlatin" unicode="&#x28a;" horiz-adv-x="1356" 
d="M679 246q95 0 147.5 29t72.5 74t20 95q0 76 -25 147t-50.5 147.5t-25.5 166.5q0 115 91 171t316 56v-251q-32 0 -49.5 -16.5t-17.5 -42.5q0 -61 24.5 -125.5t49.5 -147t25 -197.5q0 -55 -26 -119.5t-89.5 -122t-176 -94t-286.5 -36.5t-286 36.5t-175 94t-88 122
t-25 119.5q0 115 23.5 197.5t46.5 147t23 125.5q0 26 -17 42.5t-50 16.5v251q230 0 320.5 -56t90.5 -171q0 -90 -26.5 -166.5t-53 -147.5t-26.5 -147q0 -50 21.5 -95t74.5 -74t147 -29z" />
    <glyph glyph-name="vscript" unicode="&#x28b;" horiz-adv-x="1159" 
d="M576 248q171 -2 171 173v297q-1 143 -122 143q-24 0 -52 -5l-35 232q71 22 130.5 33t112.5 11q156 0 227.5 -92t71.5 -254v-365q0 -157 -64 -254t-177.5 -142t-262.5 -45q-148 0 -260.5 45t-175.5 142t-63 254v697h334v-697q0 -175 165 -173z" />
    <glyph glyph-name="vturn" unicode="&#x28c;" horiz-adv-x="1170" 
d="M780 1056l385 -1056h-360l-153 486q-18 63 -36 125.5t-36 124.5q-16 -62 -33.5 -124.5t-36.5 -125.5l-149 -486h-357l385 1056h391z" />
    <glyph glyph-name="wturn" unicode="&#x28d;" horiz-adv-x="1732" 
d="M1402 1056l325 -1056h-362l-82 330q-22 92 -42.5 190.5t-40.5 196.5q-24 -98 -47 -196.5t-47 -190.5l-88 -330h-305l-87 330q-24 92 -47 190.5t-46 196.5l-40 -196t-41 -191l-80 -330h-368l325 1056h356l116 -395q17 -59 33 -120.5t32 -123.5q15 62 31 123.5t34 120.5
l117 395h354z" />
    <glyph glyph-name="yturn" unicode="&#x28e;" horiz-adv-x="1170" 
d="M1041 1474v-267h-147q-54 0 -76 -23.5t-41 -81.5l-18 -48l406 -1054h-360l-156 486q-17 55 -33 110t-31 111q-16 -56 -32 -111t-34 -110l-158 -486h-357l456 1205q54 143 135.5 206t213.5 63h232z" />
    <glyph glyph-name="zrthook" unicode="&#x290;" horiz-adv-x="1108" 
d="M1041 -418q-193 0 -284 87t-91 261v70h-569v226l501 560v2h-501v268h905v-239l-490 -549v-2h499v-319q0 -91 91 -91h127v-274h-188z" />
    <glyph glyph-name="uni0292" unicode="&#x292;" horiz-adv-x="1275" 
d="M645 -458q-192 0 -322 73t-196 192.5t-66 259.5h340q0 -112 67 -181.5t175 -69.5q103 0 168 64.5t65 164.5q0 99 -69 155.5t-189 56.5h-210v203l328 310v1h-597v285h1012v-271l-380 -349q228 -1 340 -115.5t112 -288.5q0 -143 -71.5 -253.5t-201.5 -173.5t-305 -63z" />
    <glyph glyph-name="uni0293" unicode="&#x293;" horiz-adv-x="1345" 
d="M571 -436q-82 0 -169 18.5t-162 58.5t-121.5 103t-46.5 151q0 134 109.5 211.5t289.5 77.5q121 0 222.5 -35.5t179.5 -88.5q1 9 1 18q0 81 -70.5 138t-180.5 57h-172v228l312 258v2h-620v295h1050v-241l-409 -346v-2q124 -12 201.5 -58.5t119 -112t57.5 -137.5t16 -134
q0 -88 -31 -165l157 -115l-136 -171l-155 114q-76 -58 -186.5 -91t-255.5 -33zM767 -130q-60 43 -134.5 72t-149.5 29q-50 0 -78.5 -17.5t-28.5 -46.5q0 -37 64.5 -57t165.5 -20q51 0 90.5 10.5t70.5 29.5z" />
    <glyph glyph-name="uni0294" unicode="&#x294;" horiz-adv-x="1156" 
d="M437 568h125q109 1 144 80t35 206v109q0 73 -11 137t-50 104t-121 40q-75 0 -120 -37.5t-46 -103.5h-313q1 124 63.5 215.5t168.5 141.5t238 50q175 0 292 -71.5t175.5 -195.5t58.5 -280v-109q0 -187 -81.5 -327t-242.5 -194v-333h-333v568h18z" />
    <glyph glyph-name="glottalstoprevinv" unicode="&#x295;" horiz-adv-x="1156" 
d="M425 0v327q-172 51 -258.5 192t-86.5 331v108q0 159 59 283.5t175.5 196.5t289.5 72q139 0 246 -50.5t167 -148.5t59 -239h-313q0 72 -41 122t-126 50q-82 0 -120.5 -45t-49 -111t-10.5 -130v-108q0 -61 9.5 -123t43.5 -106.5t108 -50.5h183v-570h-335z" />
    <glyph glyph-name="glottalstopinv" unicode="&#x296;" horiz-adv-x="1156" 
d="M732 1490v-279q172 -51 258.5 -192.5t85.5 -332.5v-157q1 -156 -57.5 -280t-175 -196.5t-290.5 -72.5q-137 0 -244 51.5t-167.5 148.5t-61.5 236h313q1 -70 42 -119t124 -49q84 0 122.5 45t49 110t10.5 126v157q0 66 -10 131t-48 108.5t-121 43.5h-166v521h336z" />
    <glyph glyph-name="cstretch" unicode="&#x297;" horiz-adv-x="1156" 
d="M599 -176q75 0 119.5 37t44.5 106h313q1 -123 -62 -215t-170 -143t-239 -51q-174 0 -290.5 72t-175.5 196t-59 281v474q0 157 59 281.5t175.5 197t289.5 72.5q139 0 246 -51.5t167 -149.5t59 -237h-313q0 71 -41 121.5t-126 50.5q-82 0 -120.5 -45t-49 -111t-10.5 -129
v-474q0 -63 10.5 -128.5t49.5 -110t123 -44.5z" />
    <glyph glyph-name="uni25CE" unicode="&#x298;" horiz-adv-x="1529" 
d="M765 -24q-202 0 -363.5 91.5t-255.5 263.5t-94 413q0 243 94 415.5t255.5 263.5t363.5 91q201 0 362.5 -91t255.5 -263.5t94 -415.5q0 -242 -94 -414t-255.5 -263t-362.5 -91zM765 290q160 0 255 119t95 335q0 217 -95 336.5t-255 119.5t-255.5 -119.5t-95.5 -336.5
q0 -216 95.5 -335t255.5 -119zM766 557q-78 0 -133 55t-55 134q0 78 55 133t133 55t133 -55t55 -133q0 -79 -55 -134t-133 -55z" />
    <glyph glyph-name="uni0299" unicode="&#x299;" horiz-adv-x="1117" 
d="M96 0v1056h476q214 0 338 -64.5t124 -212.5q0 -88 -52.5 -150t-177.5 -75q152 -9 209.5 -83t57.5 -171q0 -143 -102.5 -221.5t-321.5 -78.5h-551zM417 252h211q125 0 125 96q0 102 -125 102h-211v-198zM417 628h166q60 0 93.5 25.5t33.5 70.5q0 46 -36.5 70.5
t-101.5 24.5h-155v-191z" />
    <glyph glyph-name="epsilonclosed" unicode="&#x29a;" horiz-adv-x="1143" 
d="M539 -24q-137 0 -249 38.5t-178 113.5t-66 182q0 94 49.5 150t129.5 86q-72 23 -111.5 68.5t-39.5 125.5q0 103 63 179.5t171.5 118.5t243.5 42q102 0 198 -28t173 -92t122 -170t45 -262q0 -192 -70.5 -314t-195 -180t-285.5 -58zM624 514v-76h-80q-68 0 -110.5 -28.5
t-42.5 -82.5t41.5 -84.5t113.5 -30.5q55 0 100.5 25.5t72.5 94t27 196.5q0 132 -26.5 200t-69.5 92t-93 24q-64 0 -107.5 -25.5t-43.5 -73.5q0 -41 36 -68t104 -27h78v-136z" />
    <glyph glyph-name="h.sc" unicode="&#x29c;" horiz-adv-x="1258" 
d="M440 1056v-375h377v375h345v-1056h-345v399h-377v-399h-344v1056h344z" />
    <glyph glyph-name="jcrosstail" unicode="&#x29d;" horiz-adv-x="996" 
d="M413 -436q-197 0 -290.5 79t-94.5 205q0 126 91 204t266 78h106v926h345v-804h1v-122h284v-225h-287q-8 -90 -48.5 -167.5t-129.5 -125.5t-243 -48zM492 -95h-72q-38 0 -70 -14t-32 -55q-1 -38 26.5 -53t63.5 -15q55 0 69.5 31.5t14.5 76.5v29zM663 1159q-82 0 -135.5 49
t-53.5 125t53.5 124.5t135.5 48.5q83 0 136.5 -48.5t53.5 -124.5t-53.5 -125t-136.5 -49z" />
    <glyph glyph-name="kturn" unicode="&#x29e;" horiz-adv-x="1163" 
d="M1067 1056v-1490h-345v809h-3l-322 -375h-396l393 461l-410 595h397l269 -399l72 85v314h345z" />
    <glyph glyph-name="uni02A0" unicode="&#x2a0;" horiz-adv-x="1251" 
d="M1155 -418h-345v575h-3q-84 -180 -298 -180q-139 0 -241.5 68.5t-159 193t-56.5 291.5q0 161 58 285t160 194t236 70q208 0 304 -161v0v224q0 174 92.5 261t285.5 87h188v-274h-127q-94 0 -94 -91v-289v-1254zM605 252q98 0 158.5 75.5t60.5 202.5q0 125 -60.5 200
t-158.5 75q-95 0 -149.5 -73t-54.5 -202q0 -130 54.5 -204t149.5 -74z" />
    <glyph glyph-name="glottalstopbar" unicode="&#x2a1;" horiz-adv-x="1156" 
d="M958 323v-192h-206v-131h-333v131h-205v192h205v245h143q109 1 144 80t35 206v109q0 73 -11 137t-50 104t-121 40q-75 0 -120 -37.5t-46 -103.5h-313q1 124 63.5 215.5t168.5 141.5t238 50q175 0 292 -71.5t175.5 -195.5t58.5 -280v-109q0 -187 -81.5 -327t-242.5 -194
v-10h206z" />
    <glyph glyph-name="glottalstopbarrev" unicode="&#x2a2;" horiz-adv-x="1156" 
d="M425 0v327q-172 51 -258.5 192t-86.5 331v108q0 159 59 283.5t175.5 196.5t289.5 72q139 0 246 -50.5t167 -148.5t59 -239h-313q0 72 -41 122t-126 50q-82 0 -120.5 -45t-49 -111t-10.5 -130v-108q0 -61 9.5 -123t43.5 -106.5t108 -50.5h183v-570h-335zM187 77v200h809
v-200h-809z" />
    <glyph glyph-name="uni02A3" unicode="&#x2a3;" horiz-adv-x="2283" 
d="M1273 0v226l501 560v2h-619v-788h-341v163h-1q-41 -93 -120.5 -139.5t-183.5 -46.5q-139 0 -241.5 68.5t-159 193t-56.5 291.5q0 161 58 285t160 194t236 70q204 0 303 -165h1v576h345v-434h1023v-239l-490 -549v-2h498v-266h-913zM605 252q98 0 158.5 75.5t60.5 202.5
q0 125 -60.5 200t-158.5 75q-95 0 -149.5 -73t-54.5 -202q0 -130 54.5 -204t149.5 -74z" />
    <glyph glyph-name="dyogh" unicode="&#x2a4;" horiz-adv-x="2041" 
d="M1169 -68q12 -44 73 -71.5t139 -27.5q111 0 181.5 56.5t70.5 145.5t-71 143t-189 54h-123v283l266 244v2h-361v-761h-341v163h-1q-41 -93 -120.5 -139.5t-183.5 -46.5q-139 0 -241.5 68.5t-159 193t-56.5 291.5q0 161 58 285t160 194t236 70q204 0 303 -165h1v576h345
v-434h788v-254l-411 -367v-2q167 -18 267 -83t145 -155t45 -183q0 -135 -79 -235t-216.5 -155.5t-311.5 -55.5q-249 0 -393 104.5t-171 261.5h351zM605 252q98 0 158.5 75.5t60.5 202.5q0 125 -60.5 200t-158.5 75q-95 0 -149.5 -73t-54.5 -202q0 -130 54.5 -204t149.5 -74z
" />
    </font>
</defs>
</svg>
