<?xml version="1.0" standalone="no"?>
<!DOCTYPE svg PUBLIC "-//W3C//DTD SVG 1.1//EN" "http://www.w3.org/Graphics/SVG/1.1/DTD/svg11.dtd" >
<svg xmlns="http://www.w3.org/2000/svg" xmlns:xlink="http://www.w3.org/1999/xlink" version="1.1">
<metadata>
Created by FontForge 20201107 at Mon Nov 20 03:07:38 2023
 By 
Copyright 2016 The Inter Project Authors
</metadata>
<defs>
<font id="InterDisplay-ExtraBoldItalic" horiz-adv-x="0" >
  <font-face 
    font-family="Inter Display ExtraBold"
    font-weight="800"
    font-style="italic"
    font-stretch="normal"
    units-per-em="2048"
    panose-1="2 0 9 3 0 0 0 2 0 4"
    ascent="1638"
    descent="-410"
    x-height="1056"
    cap-height="1490"
    bbox="-1685 -693 5306 2307"
    underline-thickness="231"
    underline-position="-231"
    slope="-9.39999"
    unicode-range="U+0020-1F852"
  />
<missing-glyph horiz-adv-x="1344" 
d="M860 -416h-688l376 2272h688zM478 320l-42 -256h320l42 256h-320zM542 704l-43 -256h320l43 256h-192l-22 -128h64l11 64h64l-21 -128h-192l32 192h-64zM393 -192l-10 -64h320l10 64h-215l236 127l11 65h-320l-11 -64h216zM658 1408l-37 -224h320l11 64h-128l26 160h-192
zM679 1536l-10 -64h320l10 64h-144l16 96h144l11 64h-320l-11 -64h112l-16 -96h-112zM584 960l-11 -64h192l27 160h128l10 64h-320l-10 -64h128l-16 -96h-128zM563 832l-11 -64h320l37 224h-64l-26 -160h-256zM702 128h-192l21 128h192zM760 1248h-64l15 96h64z" />
    <glyph glyph-name=".notdef" horiz-adv-x="1344" 
d="M860 -416h-688l376 2272h688zM478 320l-42 -256h320l42 256h-320zM542 704l-43 -256h320l43 256h-192l-22 -128h64l11 64h64l-21 -128h-192l32 192h-64zM393 -192l-10 -64h320l10 64h-215l236 127l11 65h-320l-11 -64h216zM658 1408l-37 -224h320l11 64h-128l26 160h-192
zM679 1536l-10 -64h320l10 64h-144l16 96h144l11 64h-320l-11 -64h112l-16 -96h-112zM584 960l-11 -64h192l27 160h128l10 64h-320l-10 -64h128l-16 -96h-128zM563 832l-11 -64h320l37 224h-64l-26 -160h-256zM702 128h-192l21 128h192zM760 1248h-64l15 96h64z" />
    <glyph glyph-name=".null" horiz-adv-x="912" 
 />
    <glyph glyph-name="nonmarkingreturn" horiz-adv-x="682" 
 />
    <glyph glyph-name="space" unicode=" " horiz-adv-x="409" 
 />
    <glyph glyph-name="exclam" unicode="!" horiz-adv-x="528" 
d="M99 455l140 1035h367l-204 -1035h-303zM188 -19q-84 0 -134.5 62.5t-36.5 148.5q11 70 68.5 118t129.5 48q84 0 134.5 -62t36.5 -149q-12 -70 -69 -118t-129 -48z" />
    <glyph glyph-name="quotedbl" unicode="&#x22;" horiz-adv-x="1025" 
d="M224 905l66 585h309l-128 -585h-247zM679 905l66 585h309l-128 -585h-247z" />
    <glyph glyph-name="numbersign" unicode="#" horiz-adv-x="1301" 
d="M574 0l118 358h-267l-118 -358h-256l118 358h-200l86 256h198l86 261h-199l86 257h198l117 358h257l-118 -358h268l117 358h257l-118 -358h199l-86 -257h-198l-86 -261h200l-86 -256h-199l-118 -358h-256zM510 614h267l86 261h-267z" />
    <glyph glyph-name="dollar" unicode="$" horiz-adv-x="1368" 
d="M469 -219l33 200q-247 26 -361.5 159.5t-78.5 351.5h342q-11 -85 27.5 -141t119.5 -76l57 347l-46 10q-211 44 -307.5 157t-68.5 283q21 124 98 218.5t198 152t274 68.5l32 198h201l-33 -204q209 -29 315 -154t78 -325h-332q11 141 -110 184l-54 -327l25 -5
q239 -49 337.5 -157.5t68.5 -290.5q-32 -199 -184 -316t-397 -135l-33 -198h-201zM752 276q73 18 120.5 58t56.5 96q9 50 -20.5 85t-106.5 61zM659 928l47 285q-65 -18 -108.5 -57t-52.5 -91q-8 -48 18 -80.5t96 -56.5z" />
    <glyph glyph-name="percent" unicode="%" horiz-adv-x="2000" 
d="M1421 -24q-157 0 -241.5 103t-56.5 275l5 30q19 115 79.5 200t150 132.5t194.5 47.5q157 0 241.5 -104t56.5 -276l-5 -30q-19 -114 -79.5 -199t-150 -132t-194.5 -47zM518 726q-157 0 -241 103.5t-56 274.5l5 30q19 115 79.5 200.5t149.5 132.5t194 47q157 0 242 -103.5
t56 -276.5l-5 -30q-19 -114 -79.5 -199t-149.5 -132t-195 -47zM281 0l1271 1490h237l-1271 -1490h-237zM553 931q56 0 97 42.5t55 130.5l5 30q15 90 -12 133.5t-83 43.5q-55 0 -96 -43.5t-56 -133.5l-5 -30q-14 -88 12.5 -130.5t82.5 -42.5zM1455 180q56 0 97 43t56 131
l5 30q14 89 -13 133t-83 44q-55 0 -96 -44t-56 -133l-5 -30q-14 -88 12.5 -131t82.5 -43z" />
    <glyph glyph-name="ampersand" unicode="&#x26;" horiz-adv-x="1373" 
d="M486 -23q-161 0 -269.5 59t-156 159t-27.5 224q19 113 97 195t223 174l11 6q-45 76 -70 160t-9 185q18 105 81.5 189t161.5 133t218 49q126 0 210 -52t120.5 -139t18.5 -194q-15 -96 -75 -179t-167 -152l-105 -66l176 -238q44 57 75 122.5t43 133.5h282
q-23 -144 -76.5 -273t-143.5 -227l182 -246h-348l-64 88q-93 -58 -195.5 -84.5t-192.5 -26.5zM713 308l-199 271l-5 -4q-74 -47 -108.5 -90.5t-37.5 -94.5q-4 -62 37 -100t114 -38q95 0 199 56zM605 933l97 55q126 73 130 147q3 43 -29.5 71t-87.5 28q-62 0 -109.5 -38
t-51.5 -108q-1 -32 10 -68.5t41 -86.5z" />
    <glyph glyph-name="quotesingle" unicode="'" horiz-adv-x="570" 
d="M224 905l66 585h309l-128 -585h-247z" />
    <glyph glyph-name="parenleft" unicode="(" horiz-adv-x="706" 
d="M119 592q29 177 88.5 359t137.5 342.5t165 272.5h330q-83 -139 -158 -302t-131 -335t-84 -337q-24 -146 -22.5 -285t24.5 -286t63 -315h-330q-81 191 -102 417t19 469z" />
    <glyph glyph-name="parenright" unicode=")" horiz-adv-x="706" 
d="M-98 -294q96 168 167.5 315t119 286t71.5 285q27 165 28 337t-20 335t-58 302h330q49 -112 74.5 -272.5t24.5 -342.5t-31 -359q-40 -243 -136 -469t-240 -417h-330z" />
    <glyph glyph-name="asterisk" unicode="*" horiz-adv-x="1153" 
d="M491 652l66 271l-251 -153l-76 182l265 118l-226 118l137 184l200 -153l24 271h210l-65 -271l252 153l74 -184l-264 -118l225 -118l-135 -182l-200 153l-26 -271h-210z" />
    <glyph glyph-name="plus" unicode="+" horiz-adv-x="1364" 
d="M464 75l63 381h-381l48 287h380l63 381h287l-63 -381h381l-48 -287h-380l-63 -381h-287z" />
    <glyph glyph-name="comma" unicode="," horiz-adv-x="521" 
d="M-97 -324l164 581h324l-249 -581h-239z" />
    <glyph glyph-name="hyphen" unicode="-" horiz-adv-x="925" 
d="M837 712l-45 -268h-687l45 268h687z" />
    <glyph glyph-name="period" unicode="." horiz-adv-x="521" 
d="M188 -19q-84 0 -134.5 62.5t-36.5 148.5q11 70 68.5 118t129.5 48q84 0 134.5 -62t36.5 -149q-12 -70 -69 -118t-129 -48z" />
    <glyph glyph-name="slash" unicode="/" horiz-adv-x="777" 
d="M947 1560l-775 -1784h-296l775 1784h296z" />
    <glyph glyph-name="zero" unicode="0" horiz-adv-x="1362" 
d="M590 -24q-196 0 -321.5 93t-172.5 265.5t-8 409.5q39 238 143.5 410.5t261 266t352.5 93.5q197 0 322 -93.5t172 -266t7 -410.5q-39 -238 -143 -410t-260 -265t-353 -93zM637 258q135 0 234 130t137 356q37 227 -18.5 357.5t-191.5 130.5q-135 0 -234.5 -130.5
t-136.5 -357.5q-38 -226 18.5 -356t191.5 -130z" />
    <glyph glyph-name="one" unicode="1" horiz-adv-x="821" 
d="M884 1490l-247 -1490h-346l193 1168h-1l-377 -213l51 305l406 230h321z" />
    <glyph glyph-name="two" unicode="2" horiz-adv-x="1255" 
d="M-12 0l43 257l629 459q60 45 117.5 90.5t99 98t52.5 117.5q16 98 -31 154t-147 56q-103 0 -182.5 -70t-99.5 -197h-330q27 167 112.5 290.5t218 191t299.5 67.5q166 0 285 -57t174.5 -163t31.5 -252q-17 -106 -68.5 -191t-135.5 -162.5t-198 -163.5l-319 -240l-1 -2h601
l-46 -283h-1105z" />
    <glyph glyph-name="three" unicode="3" horiz-adv-x="1287" 
d="M560 -24q-199 0 -318 73t-164 192.5t-22 259.5h340q-19 -118 33 -184.5t166 -66.5q104 0 180 53t90 137q14 87 -49 139.5t-181 52.5h-139l42 252h138q111 0 183.5 47.5t85.5 130.5q14 82 -35.5 134t-142.5 52q-97 0 -168.5 -57.5t-87.5 -152.5h-337q23 136 106.5 243.5
t217 170t305.5 62.5q159 0 274 -53t170.5 -146t36.5 -212q-22 -132 -118.5 -217.5t-226.5 -106.5v-3q158 -19 228.5 -122t48.5 -238q-21 -126 -110.5 -225.5t-230.5 -157t-315 -57.5z" />
    <glyph glyph-name="four" unicode="4" horiz-adv-x="1378" 
d="M24 305l46 274l783 911h441l-152 -914h181l-44 -271h-181l-51 -305h-338l51 305h-736zM804 576l97 583h-1l-497 -581l-1 -2h402z" />
    <glyph glyph-name="five" unicode="5" horiz-adv-x="1245" 
d="M544 -23q-165 0 -285 60t-179.5 170.5t-43.5 260.5h336q-13 -95 40.5 -157.5t154.5 -62.5q104 0 184 69.5t99 179.5q18 111 -30.5 182t-150.5 71q-88 0 -160 -37.5t-104 -102.5h-324l190 880h992l-48 -285h-676l-73 -299h2q61 53 129.5 79.5t156.5 26.5
q143 0 250.5 -61.5t159 -175t26.5 -268.5q-26 -155 -113 -274.5t-223.5 -187.5t-309.5 -68z" />
    <glyph glyph-name="six" unicode="6" horiz-adv-x="1291" 
d="M597 -24q-194 0 -322 91t-178.5 260t-11.5 403q40 243 136.5 419t245.5 270.5t348 94.5q157 0 271 -58.5t173.5 -159t51.5 -225.5h-332q-2 79 -46 126.5t-135 47.5q-147 0 -242 -114.5t-127 -306.5h2q71 85 155 127t198 42q155 0 264.5 -64.5t159.5 -177t25 -258.5
q-25 -154 -112 -270.5t-221.5 -181.5t-302.5 -65zM610 252q103 0 184.5 68.5t98.5 172.5q18 103 -34 171t-152 68q-107 0 -186.5 -67t-97.5 -173q-16 -103 36.5 -171.5t150.5 -68.5z" />
    <glyph glyph-name="seven" unicode="7" horiz-adv-x="1155" 
d="M49 0l802 1193l1 2h-699l49 295h1070l-48 -287l-806 -1203h-369z" />
    <glyph glyph-name="eight" unicode="8" horiz-adv-x="1285" 
d="M564 -24q-177 0 -304.5 53.5t-189 149.5t-39.5 223q15 94 69 172t136 130t181 68l1 2q-122 24 -182.5 115.5t-40.5 218.5q20 120 100 211.5t207.5 143t288.5 51.5q163 0 280 -50.5t173 -142t36 -213.5q-21 -127 -113 -219t-221 -116l-1 -2q142 -25 216 -126.5t50 -242.5
q-21 -127 -107.5 -223t-224.5 -149.5t-315 -53.5zM589 226q101 0 175.5 56.5t89.5 145.5q15 90 -39 148t-154 58q-101 0 -175 -57.5t-90 -148.5q-14 -89 39 -145.5t154 -56.5zM699 892q91 0 154.5 50t77.5 133q14 82 -31.5 131.5t-135.5 49.5q-91 0 -154.5 -49.5
t-77.5 -131.5q-14 -83 31.5 -133t135.5 -50z" />
    <glyph glyph-name="nine" unicode="9" horiz-adv-x="1292" 
d="M577 -24q-156 0 -278 58.5t-189 159t-59 225.5h332q1 -79 49 -126.5t140 -47.5q146 0 238 114.5t123 306.5h-2q-140 -167 -363 -167q-148 0 -255 64.5t-157 177.5t-26 257q25 154 112.5 270t222 181t301.5 65q194 0 323 -87.5t179.5 -253.5t11.5 -400
q-40 -243 -129.5 -422t-231.5 -277t-342 -98zM664 759q101 0 179.5 68.5t95.5 171.5t-38.5 171t-155.5 68q-101 0 -179.5 -68t-95.5 -172q-18 -103 37.5 -171t156.5 -68z" />
    <glyph glyph-name="colon" unicode=":" horiz-adv-x="522" 
d="M189 -19q-84 0 -134.5 62.5t-36.5 148.5q11 70 68.5 118t129.5 48q84 0 134.5 -62t36.5 -149q-12 -70 -69 -118t-129 -48zM298 646q-84 0 -134.5 62.5t-36.5 148.5q11 70 68.5 118t129.5 48q84 0 134.5 -62t36.5 -149q-12 -70 -69 -118t-129 -48z" />
    <glyph glyph-name="semicolon" unicode=";" horiz-adv-x="525" 
d="M-97 -324l164 581h324l-249 -581h-239zM301 646q-84 0 -134.5 62.5t-36.5 148.5q11 70 68.5 118t129.5 48q84 0 134.5 -62t36.5 -149q-12 -70 -69 -118t-129 -48z" />
    <glyph glyph-name="less" unicode="&#x3c;" horiz-adv-x="1364" 
d="M133 453l49 293l1121 445l-54 -325l-728 -260l-3 -14l642 -260l-53 -322z" />
    <glyph glyph-name="equal" unicode="=" horiz-adv-x="1364" 
d="M112 209l48 286h1032l-47 -286h-1033zM195 706l47 284h1032l-47 -284h-1032z" />
    <glyph glyph-name="greater" unicode="&#x3e;" horiz-adv-x="1364" 
d="M1206 453l-1121 -443l54 322l729 260l2 14l-643 260l54 325l974 -445z" />
    <glyph glyph-name="question" unicode="?" horiz-adv-x="1197" 
d="M409 481l7 45q17 95 49.5 155.5t89.5 104t147 88.5q79 40 120.5 90t50.5 106q12 74 -32 120t-129 46q-95 0 -160 -57t-80 -153h-326q24 141 99.5 250.5t197.5 172t283 62.5q152 0 268.5 -52t176.5 -143t40 -210q-38 -231 -254 -358q-101 -60 -165 -110.5t-78 -132.5
l-4 -24h-301zM482 -19q-79 0 -125 55t-33 134q13 78 77.5 133t142.5 55t123.5 -55t33.5 -133q-13 -79 -77 -134t-142 -55z" />
    <glyph glyph-name="at" unicode="@" horiz-adv-x="2091" 
d="M920 -444q-310 0 -521.5 119.5t-303.5 337.5t-43 513t205.5 514t399 339.5t548.5 120.5q298 0 502.5 -114t295 -319.5t45.5 -480.5q-47 -280 -190.5 -433.5t-359.5 -153.5q-125 0 -192.5 48t-68.5 114h-2q-34 -61 -116.5 -107.5t-204.5 -46.5q-143 0 -237.5 66.5
t-133 184t-13.5 270.5q27 166 111 279t199.5 170.5t237.5 57.5q100 0 168.5 -34.5t87.5 -84.5h2l16 97h233l-113 -681q-8 -50 7 -69t46 -19q80 0 145 92t91 247q51 306 -100.5 478t-464.5 172q-224 0 -404 -86t-297.5 -245t-153.5 -375q-36 -217 22.5 -375t203 -243.5
t367.5 -85.5q132 0 246.5 23t184.5 49l77 -239q-74 -30 -205.5 -65t-316.5 -35zM976 268q108 0 181.5 67.5t94.5 192.5t-20.5 193t-148.5 68q-112 0 -189.5 -67.5t-98.5 -193.5q-21 -125 24 -192.5t157 -67.5z" />
    <glyph glyph-name="A" unicode="A" horiz-adv-x="1511" 
d="M-82 0l759 1490h474l268 -1490h-390l-41 287h-529l-138 -287h-403zM596 568h352l-13 87q-16 125 -31.5 250t-30.5 262q-61 -137 -118.5 -262t-116.5 -250z" />
    <glyph glyph-name="B" unicode="B" horiz-adv-x="1325" 
d="M9 0l246 1490h612q247 0 364.5 -112t88.5 -288q-20 -121 -113 -201t-223 -108v-1q92 -9 160.5 -57.5t100 -130.5t13.5 -193q-29 -177 -178 -288t-397 -111h-674zM405 276h253q98 0 162.5 46.5t78.5 127.5q13 80 -34 126.5t-144 46.5h-259zM506 885h235q85 0 143 45.5
t71 121.5q12 75 -30 118.5t-127 43.5h-237z" />
    <glyph glyph-name="C" unicode="C" horiz-adv-x="1502" 
d="M695 -24q-183 0 -322 73.5t-217 212t-78 333.5q0 184 58.5 349.5t168.5 293.5t264 202t345 74q183 0 319.5 -69t210 -196t67.5 -302h-362q-4 120 -67.5 186.5t-177.5 66.5q-117 0 -204.5 -53.5t-146 -142t-88 -195t-29.5 -211.5q0 -147 71 -227.5t210 -80.5
q127 0 223.5 66t140.5 185h363q-51 -171 -160 -298t-260 -197t-329 -70z" />
    <glyph glyph-name="D" unicode="D" horiz-adv-x="1446" 
d="M629 0h-620l247 1490h533q227 0 384 -91.5t225.5 -258.5t31.5 -395q-38 -228 -140 -395t-267 -258.5t-394 -91.5zM418 300h176q205 0 321 112.5t152 332.5q37 220 -38.5 332.5t-282.5 112.5h-180z" />
    <glyph glyph-name="E" unicode="E" horiz-adv-x="1264" 
d="M9 0l247 1490h1109l-50 -306h-751l-47 -287h693l-49 -297h-693l-49 -294h750l-50 -306h-1110z" />
    <glyph glyph-name="F" unicode="F" horiz-adv-x="1215" 
d="M9 0l247 1490h1076l-52 -306h-716l-52 -317h672l-49 -296h-672l-94 -571h-360z" />
    <glyph glyph-name="G" unicode="G" horiz-adv-x="1512" 
d="M699 -24q-193 0 -332 76t-214 215t-75 329q0 185 59.5 351t170 293.5t263.5 200.5t341 73q174 0 313.5 -64.5t217.5 -183.5t68 -282h-366q-2 99 -61.5 157.5t-174.5 58.5q-120 0 -209 -53.5t-147.5 -142t-87.5 -194.5t-29 -210q0 -149 74 -229.5t217 -80.5
q144 0 244.5 73t126.5 184h-299l44 264h650l-35 -213q-31 -189 -136.5 -329t-266.5 -216.5t-356 -76.5z" />
    <glyph glyph-name="H" unicode="H" horiz-adv-x="1480" 
d="M9 0l247 1490h360l-97 -579h568l96 579h360l-247 -1490h-360l100 605h-567l-100 -605h-360z" />
    <glyph glyph-name="I" unicode="I" horiz-adv-x="553" 
d="M616 1490l-247 -1490h-360l247 1490h360z" />
    <glyph glyph-name="J" unicode="J" horiz-adv-x="1175" 
d="M484 -23q-212 0 -332 98.5t-120 283.5q0 24 5 63.5t23 148.5h335q-11 -64 -15.5 -95.5t-5.5 -44t-1 -19.5q0 -135 138 -135q79 0 131.5 47t66.5 135l171 1031h360l-173 -1037q-38 -229 -187 -352.5t-396 -123.5z" />
    <glyph glyph-name="K" unicode="K" horiz-adv-x="1447" 
d="M9 0l247 1490h360l-61 -368l-47 -280q58 60 116.5 120t117.5 120l401 408h436l-646 -642l420 -848h-391l-289 619l-242 -240l-62 -379h-360z" />
    <glyph glyph-name="L" unicode="L" horiz-adv-x="1158" 
d="M9 0l247 1490h360l-197 -1184h660l-50 -306h-1020z" />
    <glyph glyph-name="M" unicode="M" horiz-adv-x="1862" 
d="M9 0l247 1490h531l95 -586q10 -71 22.5 -182.5t23.5 -216.5q45 106 94.5 218t81.5 183l288 584h532l-246 -1490h-353l107 647q12 75 37.5 202.5t50.5 259.5q-59 -135 -116 -263t-93 -202l-321 -644h-291l-111 646q-11 73 -26 196t-30 254q-18 -129 -34.5 -253.5
t-29.5 -198.5l-106 -644h-353z" />
    <glyph glyph-name="N" unicode="N" horiz-adv-x="1499" 
d="M9 0l247 1490h369l313 -677q19 -43 49.5 -120t61.5 -158q12 89 25 174t21 135l107 646h360l-247 -1490h-369l-286 620q-25 52 -61.5 140t-77.5 195q-14 -110 -28 -198.5t-22 -135.5l-102 -621h-360z" />
    <glyph glyph-name="O" unicode="O" horiz-adv-x="1531" 
d="M692 -24q-181 0 -319.5 73.5t-216.5 212t-78 334.5q0 182 58.5 347.5t168 294t263 202.5t343.5 74q181 0 319 -73t216.5 -212t78.5 -335q0 -186 -60 -352t-170 -293t-263 -200t-340 -73zM708 290q113 0 199 54t143.5 142.5t87 194.5t29.5 211q0 149 -72 228.5t-200 79.5
q-112 0 -197.5 -53.5t-143.5 -141.5t-88 -194.5t-30 -211.5q0 -150 71.5 -229.5t200.5 -79.5z" />
    <glyph glyph-name="P" unicode="P" horiz-adv-x="1308" 
d="M9 0l247 1490h608q172 0 288 -62t166.5 -175.5t25.5 -268.5q-26 -154 -114 -266.5t-224.5 -174t-309.5 -61.5h-247l-80 -482h-360zM498 781h225q108 0 180.5 55.5t88.5 149.5q16 95 -38.5 150.5t-162.5 55.5h-225z" />
    <glyph glyph-name="Q" unicode="Q" horiz-adv-x="1531" 
d="M692 -24q-181 0 -319.5 73.5t-216.5 212t-78 334.5q0 182 58.5 347.5t168 294t263 202.5t343.5 74q181 0 319 -73t216.5 -212t78.5 -335q0 -237 -96 -440t-266 -327l161 -244h-289l-86 134q-122 -41 -257 -41zM631 531h262l84 -133q94 88 142 223.5t48 270.5
q0 149 -72 228.5t-200 79.5q-112 0 -197.5 -53.5t-143.5 -141.5t-88 -194.5t-30 -211.5q0 -150 71.5 -229.5t200.5 -79.5q33 0 64 5z" />
    <glyph glyph-name="R" unicode="R" horiz-adv-x="1347" 
d="M9 0l247 1490h612q172 0 288.5 -61.5t167 -174.5t24.5 -268q-24 -143 -107 -250.5t-211 -168.5l192 -567h-367l-162 495h-8h-234l-82 -495h-360zM498 778h229q108 0 181 58t89 152q16 95 -38 151t-163 56h-229z" />
    <glyph glyph-name="S" unicode="S" horiz-adv-x="1368" 
d="M615 -24q-304 0 -448.5 137t-104.5 379h342q-14 -107 50 -167t192 -60q115 0 193 45.5t90 119.5q11 62 -39 102.5t-180 67.5l-148 32q-211 44 -307.5 157t-68.5 283q22 133 109.5 232.5t224.5 154.5t307 55q270 0 412 -129.5t110 -358.5h-332q7 95 -48.5 147t-163.5 52
q-103 0 -175.5 -45t-84.5 -115q-10 -61 36 -98t169 -62l128 -27q239 -49 337.5 -157.5t68.5 -290.5q-35 -216 -211 -335t-458 -119z" />
    <glyph glyph-name="T" unicode="T" horiz-adv-x="1322" 
d="M151 1184l51 306h1237l-51 -306h-439l-195 -1184h-360l196 1184h-439z" />
    <glyph glyph-name="U" unicode="U" horiz-adv-x="1443" 
d="M648 -24q-195 0 -328 71t-192.5 197.5t-32.5 291.5l158 954h351l-157 -948q-19 -118 40 -189t176 -71q87 0 160 38t120.5 102t60.5 143l153 925h351l-162 -977q-27 -164 -122 -285t-242.5 -186.5t-333.5 -65.5z" />
    <glyph glyph-name="V" unicode="V" horiz-adv-x="1488" 
d="M429 0l-265 1490h382l100 -655q17 -119 32.5 -244.5t30.5 -258.5q58 133 113.5 258.5t109.5 244.5l311 655h400l-746 -1490h-468z" />
    <glyph glyph-name="W" unicode="W" horiz-adv-x="2081" 
d="M314 0l-150 1490h385l38 -662q5 -99 8 -197.5t5 -196.5q36 98 73 196.5t77 197.5l269 662h357l49 -662q7 -98 11.5 -195.5t7.5 -195.5q35 98 70 195.5t73 195.5l258 662h390l-645 -1490h-398l-66 753q-4 47 -7 102.5t-5 120.5q-25 -65 -45.5 -120.5t-40.5 -102.5
l-315 -753h-399z" />
    <glyph glyph-name="X" unicode="X" horiz-adv-x="1471" 
d="M-81 0l662 762l-362 728h397l103 -225q49 -108 96 -215q41 54 83 108t85 107l185 225h406l-595 -718l399 -772h-408l-139 287q-24 49 -47.5 98.5t-46.5 98.5q-39 -49 -79 -98.5t-82 -98.5l-242 -287h-415z" />
    <glyph glyph-name="Y" unicode="Y" horiz-adv-x="1453" 
d="M470 0l88 533l-394 957h396l162 -433q16 -41 30 -81.5t27 -80.5q26 40 52.5 80.5t54.5 81.5l297 433h424l-700 -957l-88 -533h-349z" />
    <glyph glyph-name="Z" unicode="Z" horiz-adv-x="1349" 
d="M2 0l33 201l892 1003h-726l47 286h1171l-33 -202l-892 -1002h726l-47 -286h-1171z" />
    <glyph glyph-name="bracketleft" unicode="[" horiz-adv-x="706" 
d="M-16 -294l308 1860h522l-45 -266h-176l-220 -1328h177l-44 -266h-522z" />
    <glyph glyph-name="backslash" unicode="\" horiz-adv-x="777" 
d="M356 -224l-185 1784h296l185 -1784h-296z" />
    <glyph glyph-name="bracketright" unicode="]" horiz-adv-x="706" 
d="M-72 -294l45 266h176l220 1328h-177l44 266h522l-308 -1860h-522z" />
    <glyph glyph-name="asciicircum" unicode="^" horiz-adv-x="969" 
d="M91 814l416 646h263l202 -646h-251l-113 424h-12l-253 -424h-252z" />
    <glyph glyph-name="underscore" unicode="_" horiz-adv-x="992" 
d="M904 0l-42 -256h-991l42 256h991z" />
    <glyph glyph-name="grave" unicode="`" horiz-adv-x="650" 
d="M453 1184l-226 319h326l135 -319h-235z" />
    <glyph glyph-name="a" unicode="a" horiz-adv-x="1245" 
d="M416 -23q-138 0 -229.5 68.5t-127 193t-8.5 291.5q27 161 105.5 285t192 194t247.5 70q208 0 277 -161h5l23 138h336l-175 -1056h-336l26 157h-4q-55 -88 -141 -134t-191 -46zM558 252q98 0 171.5 75.5t93.5 202.5q21 125 -27.5 200t-145.5 75q-95 0 -162 -73t-88 -202
q-22 -130 20.5 -204t137.5 -74z" />
    <glyph glyph-name="b" unicode="b" horiz-adv-x="1252" 
d="M675 -23q-115 0 -191 50.5t-105 147.5h-1l-29 -175h-340l246 1490h344l-90 -566h1q44 78 128.5 116.5t179.5 38.5q179 0 283.5 -125t104.5 -329q0 -117 -35 -232t-103 -209t-166.5 -150.5t-226.5 -56.5zM581 252q91 0 153.5 58.5t94.5 145t32 172.5q0 85 -39 131t-113 46
q-90 0 -155.5 -55.5t-101 -139.5t-35.5 -169q0 -88 43.5 -138.5t120.5 -50.5z" />
    <glyph glyph-name="c" unicode="c" horiz-adv-x="1163" 
d="M525 -24q-148 0 -255.5 57t-166 159.5t-58.5 240.5q0 129 44 245.5t126.5 207t198 142.5t258.5 52q142 0 252 -54.5t167.5 -153.5t42.5 -231h-331q3 66 -26 116t-108 50q-90 0 -152 -58t-94 -146t-32 -177q0 -85 37.5 -131t111.5 -46q83 0 144 49t82 120h332
q-25 -132 -105.5 -231.5t-201 -155t-266.5 -55.5z" />
    <glyph glyph-name="d" unicode="d" horiz-adv-x="1250" 
d="M435 -23q-184 0 -287.5 118.5t-103.5 318.5q0 124 36.5 242.5t105.5 214t168 152t224 56.5q215 0 292 -181h1l97 592h345l-246 -1490h-341l25 155h-1q-55 -96 -136.5 -137t-178.5 -41zM541 252q89 0 155 56t102 140t36 169q0 89 -44.5 138.5t-121.5 49.5
q-90 0 -152.5 -57.5t-94.5 -144t-32 -173.5q0 -86 39 -132t113 -46z" />
    <glyph glyph-name="e" unicode="e" horiz-adv-x="1171" 
d="M533 -24q-248 0 -382.5 132.5t-100.5 395.5q22 178 109.5 307.5t224.5 199t309 69.5q122 0 221.5 -37t157.5 -111.5t58 -189.5q0 -137 -89.5 -207t-257.5 -95t-403 -28q-1 -85 35.5 -136t145.5 -51q90 0 142 34t72 90h319q-57 -168 -198.5 -270.5t-362.5 -102.5zM405 624
q169 5 257 19t119.5 38t31.5 57q0 91 -156 91q-124 0 -178 -60t-74 -145z" />
    <glyph glyph-name="f" unicode="f" horiz-adv-x="803" 
d="M850 1056l-44 -266h-218l-146 -879q-27 -169 -127.5 -249t-293.5 -80h-188l45 269h98q62 0 91 25.5t40 87.5l137 826h-182l45 266h181l19 117q27 161 130.5 239t291.5 78h193l-44 -266h-106q-61 0 -90.5 -25.5t-39.5 -85.5l-9 -57h217z" />
    <glyph glyph-name="g" unicode="g" horiz-adv-x="1249" 
d="M474 -432q-249 0 -360 99t-109 251h322q4 -49 42 -77.5t109 -28.5q103 0 169.5 59t82.5 165l23 151h-1q-58 -94 -134.5 -137t-178.5 -43q-185 0 -289 119.5t-104 310.5q0 121 38 236t108 206.5t167.5 145.5t217.5 54q109 0 184 -48t111 -131h1l25 156h342l-166 -1010
q-43 -258 -201 -368t-399 -110zM544 277q88 0 153.5 53t101 134t35.5 165q0 86 -44 134.5t-121 48.5q-89 0 -151 -55.5t-94 -138.5t-32 -168q0 -83 39 -128t113 -45z" />
    <glyph glyph-name="h" unicode="h" horiz-adv-x="1231" 
d="M449 574l-96 -574h-344l247 1490h344l-98 -593q64 85 148 133.5t199 48.5q173 0 257.5 -110t51.5 -305l-110 -664h-344l97 592q16 94 -20.5 143.5t-118.5 49.5q-81 0 -138.5 -51.5t-74.5 -159.5z" />
    <glyph glyph-name="i" unicode="i" horiz-adv-x="537" 
d="M9 0l175 1056h344l-175 -1056h-344zM374 1172q-77 0 -121.5 51t-32.5 125q13 73 74.5 124.5t138.5 51.5t122 -51.5t33 -124.5q-13 -74 -75 -125t-139 -51z" />
    <glyph glyph-name="j" unicode="j" horiz-adv-x="538" 
d="M185 1056h345l-186 -1120q-28 -173 -140 -263.5t-304 -90.5h-135l44 267h70q56 0 85.5 28.5t40.5 93.5zM375 1172q-77 0 -121.5 51t-32.5 125q13 73 74.5 124.5t138.5 51.5t122 -51.5t33 -124.5q-13 -74 -75 -125t-139 -51z" />
    <glyph glyph-name="k" unicode="k" horiz-adv-x="1163" 
d="M9 0l247 1490h344l-134 -809h4l383 375h397l-470 -461l312 -595h-397l-203 399l-87 -85l-52 -314h-344z" />
    <glyph glyph-name="l" unicode="l" horiz-adv-x="537" 
d="M600 1490l-247 -1490h-344l247 1490h344z" />
    <glyph glyph-name="m" unicode="m" horiz-adv-x="1847" 
d="M9 0l174 1056h331l-27 -178q63 107 152.5 154t183.5 47q108 0 185.5 -55.5t98.5 -154.5q55 106 153.5 158t207.5 52t185.5 -48t110.5 -135t14 -205l-113 -691h-345l105 638q14 84 -18.5 123t-95.5 39q-80 0 -137.5 -54.5t-71.5 -134.5l-101 -611h-329l106 642
q13 78 -18 118t-94 40q-77 0 -137.5 -54.5t-75.5 -141.5l-100 -604h-344z" />
    <glyph glyph-name="n" unicode="n" horiz-adv-x="1231" 
d="M446 563l-93 -563h-344l174 1056h340l-26 -155q66 85 151 131.5t197 46.5q179 0 261.5 -115.5t49.5 -311.5l-108 -652h-344l99 604q15 93 -22.5 137t-113.5 44q-88 0 -145.5 -57.5t-75.5 -164.5z" />
    <glyph glyph-name="o" unicode="o" horiz-adv-x="1215" 
d="M534 -24q-225 0 -356.5 124t-131.5 334q0 182 81 328.5t224.5 232t329.5 85.5q226 0 357 -124.5t131 -334.5q0 -130 -44 -246.5t-127 -206t-200.5 -141t-263.5 -51.5zM556 250q88 0 148 57t90.5 143.5t30.5 172.5q0 90 -48 136.5t-118 46.5q-87 0 -147 -57t-91 -143
t-31 -174q0 -90 48 -136t118 -46z" />
    <glyph glyph-name="p" unicode="p" horiz-adv-x="1250" 
d="M-61 -418l244 1474h340l-21 -137h1q59 88 139 124t176 36q179 0 283.5 -122t104.5 -320q0 -122 -36 -239.5t-105 -212.5t-168.5 -151.5t-227.5 -56.5q-111 0 -186 51t-102 140h-1l-97 -586h-344zM581 252q91 0 153.5 58.5t94.5 145t32 172.5q0 85 -39 131t-113 46
q-90 0 -155.5 -55.5t-101 -139.5t-35.5 -169q0 -88 43.5 -138.5t120.5 -50.5z" />
    <glyph glyph-name="q" unicode="q" horiz-adv-x="1250" 
d="M997 -418h-345l94 564h-1q-56 -88 -134.5 -128.5t-175.5 -40.5q-184 0 -287.5 118.5t-103.5 318.5q0 124 36.5 242.5t105.5 214t168 152t224 56.5q216 0 296 -179h1l25 156h341zM541 252q89 0 155 56t102 140t36 169q0 89 -44.5 138.5t-121.5 49.5q-90 0 -152.5 -57.5
t-94.5 -144t-32 -173.5q0 -86 39 -132t113 -46z" />
    <glyph glyph-name="r" unicode="r" horiz-adv-x="807" 
d="M9 0l175 1056h333l-31 -186h3q45 101 114 145.5t176 44.5q27 0 49.5 -0.5t43.5 -1.5l-47 -284q-18 1 -58 2t-78 1q-92 0 -160 -62t-86 -174l-90 -541h-344z" />
    <glyph glyph-name="s" unicode="s" horiz-adv-x="1103" 
d="M485 -26q-139 0 -245 41.5t-166 119t-60 186.5v17h338q-5 -127 146 -127q72 0 123 30t51 77q0 53 -101 72l-186 34q-285 53 -285 275q0 113 67 198t184.5 133t267.5 48q205 0 325.5 -83.5t120.5 -227.5q0 -28 -4 -54h-316q6 61 -30.5 95t-104.5 34q-70 0 -116 -31.5
t-46 -76.5q0 -55 88 -71l206 -39q146 -27 215.5 -89.5t69.5 -166.5q0 -114 -71 -203t-193.5 -140t-277.5 -51z" />
    <glyph glyph-name="t" unicode="t" horiz-adv-x="804" 
d="M849 1056l-45 -266h-216l-72 -435q-8 -51 9 -70t74 -19h120l-44 -266h-195q-190 0 -266.5 71.5t-51.5 225.5l81 493h-181l45 266h180l48 288h345l-48 -288h217z" />
    <glyph glyph-name="u" unicode="u" horiz-adv-x="1231" 
d="M368 -23q-173 0 -250 110t-45 305l110 664h345l-99 -592q-15 -94 21.5 -143.5t118.5 -49.5t139 51.5t75 159.5l95 574h345l-175 -1056h-340l28 171q-68 -91 -158.5 -142.5t-209.5 -51.5z" />
    <glyph glyph-name="v" unicode="v" horiz-adv-x="1170" 
d="M301 0l-210 1056h346l72 -486q9 -62 16.5 -124t14.5 -124q27 62 55 124l56 124l230 486h371l-560 -1056h-391z" />
    <glyph glyph-name="w" unicode="w" horiz-adv-x="1732" 
d="M241 0l-150 1056h360l27 -330q7 -92 11.5 -190.5t8.5 -196.5q40 98 79.5 196.5t78.5 190.5l142 330h305l32 -330q9 -92 16 -190.5t14 -195.5q36 97 72 195t73 191l134 330h370l-500 -1056h-355l-51 395q-8 58 -13.5 119.5t-10.5 124.5q-26 -63 -52.5 -124.5t-53.5 -119.5
l-182 -395h-355z" />
    <glyph glyph-name="x" unicode="x" horiz-adv-x="1125" 
d="M-83 0l461 538l-258 518h360l52 -123q18 -45 33 -86.5t29 -81.5q28 41 57 82.5t63 85.5l94 123h384l-434 -508l275 -548h-360l-58 131q-20 48 -37 92.5t-33 88.5q-32 -44 -65 -88.5t-70 -92.5l-104 -131h-389z" />
    <glyph glyph-name="y" unicode="y" horiz-adv-x="1170" 
d="M-28 -418l44 267h146q54 0 79.5 24t55.5 81l25 48l-231 1054h346l76 -486q8 -55 15 -109.5t13 -109.5q51 113 102 219l239 486h370l-655 -1205q-77 -142 -169.5 -205.5t-224.5 -63.5h-231z" />
    <glyph glyph-name="z" unicode="z" horiz-adv-x="1108" 
d="M10 0l37 226l586 560l1 2h-494l45 268h905l-40 -239l-573 -549v-2h491l-44 -266h-914z" />
    <glyph glyph-name="braceleft" unicode="{" horiz-adv-x="945" 
d="M745 -294q-111 0 -206.5 11.5t-163 51.5t-95.5 123t-5 227l26 153q17 106 -20.5 157t-152.5 54h-16v0l19 116l12 74l19 116v0h18q116 3 170 54t71 157l26 153q23 144 79 227t136.5 123t179.5 51.5t211 11.5l-43 -260q-120 0 -168 -41t-66 -151l-34 -204
q-8 -52 -36.5 -104.5t-88 -97t-161.5 -72.5q92 -29 137 -73.5t56 -96.5t2 -104l-33 -204q-18 -110 16 -151t154 -41z" />
    <glyph glyph-name="bar" unicode="|" horiz-adv-x="752" 
d="M780 1970l-405 -2450h-333l405 2450h333z" />
    <glyph glyph-name="braceright" unicode="}" horiz-adv-x="945" 
d="M-71 -294l43 260q119 0 167 41t66 151l34 204q8 52 36.5 104t88 96.5t161.5 73.5q-92 28 -137 72.5t-56 97t-2 104.5l34 204q18 110 -16.5 151t-154.5 41l44 260q111 0 206.5 -11.5t162.5 -51.5t95 -123t4 -227l-25 -153q-18 -110 23 -160.5t166 -50.5h1l-20 -116h1
l-32 -190q-126 0 -183.5 -50.5t-75.5 -160.5l-26 -153q-24 -144 -79.5 -227t-136 -123t-179.5 -51.5t-210 -11.5z" />
    <glyph glyph-name="asciitilde" unicode="~" horiz-adv-x="1364" 
d="M110 392q28 213 133.5 332t263.5 119q67 0 125 -27t126 -98q33 -34 58 -53.5t63 -19.5q48 0 87.5 39t50.5 126h260q-28 -212 -135.5 -331.5t-260.5 -119.5q-72 0 -130.5 29.5t-123.5 95.5q-37 39 -59 56.5t-59 17.5q-49 0 -88 -38.5t-51 -127.5h-260z" />
    <glyph glyph-name="uni00A0" unicode="&#xa0;" horiz-adv-x="409" 
 />
    <glyph glyph-name="exclamdown" unicode="&#xa1;" horiz-adv-x="530" 
d="M-76 -418l201 1023h305l-137 -1023h-369zM293 701q-78 0 -124.5 55.5t-33.5 133.5q13 79 78 134.5t143 55.5q79 0 125 -55.5t33 -134.5q-13 -78 -77.5 -133.5t-143.5 -55.5z" />
    <glyph glyph-name="cent" unicode="&#xa2;" horiz-adv-x="1163" 
d="M458 0l32 196q-191 20 -300 142t-109 312q0 166 72.5 310t205.5 235.5t314 100.5l32 194h114l-33 -198q121 -14 212.5 -71.5t138.5 -150.5t33 -213h-332q3 59 -18.5 105.5t-78.5 58.5l-90 -543q55 18 95 60.5t55 96.5h333q-24 -125 -98 -221.5t-185.5 -154t-246.5 -65.5
l-32 -194h-114zM536 469l89 541q-65 -25 -109 -83.5t-67 -133.5t-23 -150q0 -150 110 -174z" />
    <glyph glyph-name="sterling" unicode="&#xa3;" horiz-adv-x="1285" 
d="M-30 0l47 288h1q162 0 177 139l17 166h-144l44 266h128l13 127q17 169 103 286.5t216 179t280 61.5q149 0 258.5 -63.5t160.5 -180t25 -274.5h-330q20 121 -19 175.5t-122 54.5q-86 0 -145.5 -53.5t-74.5 -166.5l-18 -146h299l-44 -266h-289l-14 -107
q-9 -75 -47.5 -122.5t-96.5 -75.5h422q44 0 51 43l9 54h324l-11 -59q-27 -158 -129.5 -242t-273.5 -84h-817z" />
    <glyph glyph-name="currency" unicode="&#xa4;" horiz-adv-x="1550" 
d="M685 -20q-105 0 -195 33t-158 92l-158 -133l-120 150l162 136q-36 74 -48.5 163t4.5 187q17 103 61.5 195t109.5 168l-124 147l170 150l125 -149q85 55 181.5 85t196.5 30q101 0 187.5 -31t153.5 -86l175 151l125 -150l-179 -150q40 -76 54 -167t-2 -193
q-17 -97 -58 -185t-102 -162l122 -139l-174 -150l-113 136q-89 -60 -190 -94t-206 -34zM717 178q117 0 222.5 56.5t179 154t94.5 219.5q20 123 -21.5 220.5t-128 153.5t-203.5 56q-120 0 -225.5 -56t-178 -153.5t-92.5 -220.5q-21 -122 19.5 -219.5t127.5 -154t206 -56.5z
" />
    <glyph glyph-name="yen" unicode="&#xa5;" horiz-adv-x="1145" 
d="M524 1490l121 -528l294 528h357l-441 -715h213l-32 -192h-287l-16 -96h287l-32 -192h-287l-48 -295h-346l49 295h-316l32 192h316l15 96h-315l32 192h250l-201 715h355z" />
    <glyph glyph-name="brokenbar" unicode="&#xa6;" horiz-adv-x="710" 
d="M183 419h307l-115 -699h-308zM668 1490l-116 -696h-307l115 696h308z" />
    <glyph glyph-name="section" unicode="&#xa7;" horiz-adv-x="1198" 
d="M1125 1115h-302q7 46 -23 77t-98 32q-48 -1 -93.5 -20t-54.5 -70q-8 -49 33 -82.5t80 -47.5l257 -119q27 -12 66 -36t73 -63.5t48 -98.5t-8 -142q-18 -62 -57 -100.5t-82 -58.5t-70 -28l-5 -2q54 -56 76 -125t8 -155q-19 -117 -91.5 -201.5t-180.5 -130t-238 -44.5
q-139 -1 -236 49.5t-140.5 142t-22.5 213.5h300q-10 -58 30 -89.5t122 -26.5q49 2 96.5 21.5t56.5 65.5q7 49 -33 80.5t-74 49.5l-258 117q-29 12 -68.5 36t-73 63.5t-47.5 99t9 143.5q16 63 53.5 101t80 58t75.5 29v1q-48 56 -72 124t-10 156q18 108 87.5 193t176 134
t234.5 49q131 0 221.5 -51.5t131.5 -140.5t23 -203zM820 526q11 30 -10.5 60t-82.5 55l-217 96q-34 15 -64 -2t-42 -51q-12 -30 11 -60.5t82 -55.5l220 -95q28 -13 59 2.5t44 50.5z" />
    <glyph glyph-name="dieresis" unicode="&#xa8;" horiz-adv-x="1231" 
d="M948 1163q-79 0 -121.5 48.5t-30.5 123.5q13 74 71.5 122.5t137.5 48.5q78 0 121.5 -48.5t30.5 -122.5q-12 -75 -71.5 -123.5t-137.5 -48.5zM491 1163q-78 0 -120.5 48.5t-30.5 123.5q13 74 71.5 122.5t136.5 48.5q79 0 122.5 -48.5t30.5 -122.5q-12 -75 -71.5 -123.5
t-138.5 -48.5z" />
    <glyph glyph-name="copyright" unicode="&#xa9;" horiz-adv-x="1832" 
d="M844 -23q-162 0 -294.5 61.5t-223 170.5t-128 252t-10.5 307q25 154 105.5 289.5t200.5 237.5t265.5 160t300.5 58q163 0 295 -61.5t222.5 -170.5t128.5 -252t11 -307q-26 -154 -106.5 -289.5t-200.5 -237.5t-265 -160t-301 -58zM848 238q109 0 211.5 41t187 114
t141.5 169t75 206q22 134 -25 244t-147 175t-236 65q-108 0 -210.5 -41t-187 -114t-141.5 -169t-75 -206q-22 -134 25.5 -244t147.5 -175t234 -65zM554 744q18 112 87.5 204t171 146.5t212.5 54.5q99 0 174.5 -43.5t117 -118t36.5 -167.5h-226q-2 50 -41.5 81t-95.5 31
q-78 0 -142 -54.5t-77 -131.5q-13 -78 33 -133t124 -55q56 0 104 31t66 80h226q-26 -93 -91 -167.5t-154 -117.5t-187 -43q-112 0 -195 54.5t-122.5 146t-20.5 202.5z" />
    <glyph glyph-name="ordfeminine" unicode="&#xaa;" horiz-adv-x="980" 
d="M665 773q-38 -33 -93.5 -57t-130.5 -24q-123 0 -179.5 62.5t-39.5 165.5q19 111 116 170.5t276 59.5h105l8 52q10 60 -13.5 93.5t-85.5 34.5q-68 -1 -109.5 -26t-49.5 -74l-178 13q17 102 116.5 168.5t245.5 66.5q135 0 206.5 -69.5t47.5 -206.5l-52 -314
q-6 -42 -8.5 -88.5t7.5 -95.5h-183q-6 34 -6 69zM700 1033h-105q-89 1 -136.5 -33t-54.5 -77q-7 -40 18.5 -63.5t87.5 -24.5q42 0 88.5 19t78.5 45z" />
    <glyph glyph-name="guillemotleft" unicode="&#xab;" horiz-adv-x="1343" 
d="M365 144l-296 440l442 440h380l-435 -440l289 -440h-380zM859 144l-296 440l442 440h380l-435 -440l289 -440h-380z" />
    <glyph glyph-name="logicalnot" unicode="&#xac;" horiz-adv-x="1364" 
d="M819 315l34 209h-646l45 273h934l-80 -482h-287z" />
    <glyph glyph-name="registered" unicode="&#xae;" horiz-adv-x="1316" 
d="M626 346q-160 0 -279 78.5t-175.5 211t-28.5 292.5q19 120 81.5 225.5t155.5 185.5t206 125.5t233 45.5q161 0 280.5 -78.5t176 -210.5t29.5 -293q-20 -120 -82.5 -225.5t-156 -185.5t-206.5 -125.5t-234 -45.5zM652 504q118 0 224 57t179.5 153.5t92.5 213.5
q20 117 -21.5 213.5t-128.5 153.5t-205 57q-117 0 -222.5 -57t-178.5 -153.5t-93 -213.5q-19 -117 22 -213.5t127.5 -153.5t203.5 -57zM467 666l89 536h260q84 1 130 -46.5t33 -131.5q-10 -53 -39 -91.5t-71 -60.5l66 -206h-160l-50 180h-82l-30 -180h-146zM660 951h81
q33 0 56.5 18.5t29.5 54.5q6 37 -12 54.5t-49 17.5h-82z" />
    <glyph glyph-name="macron" unicode="&#xaf;" horiz-adv-x="784" 
d="M836 1431l-35 -210h-589l35 210h589z" />
    <glyph glyph-name="degree" unicode="&#xb0;" horiz-adv-x="904" 
d="M493 773q-100 -1 -174.5 48t-110 131.5t-18.5 183.5q17 100 79.5 182.5t153 131.5t190.5 49q101 0 175.5 -49t109.5 -131.5t18 -182.5q-16 -101 -78.5 -183.5t-153 -131.5t-191.5 -48zM530 995q58 0 106 41.5t58 99.5q9 58 -25.5 99t-92.5 40q-58 1 -106 -40t-57 -99
q-10 -58 24.5 -99.5t92.5 -41.5z" />
    <glyph glyph-name="plusminus" unicode="&#xb1;" horiz-adv-x="1364" 
d="M180 663l42 259h381l40 240h286l-39 -240h380l-43 -259h-380l-40 -241h-287l40 241h-380zM78 52l45 270h1048l-45 -270h-1048z" />
    <glyph glyph-name="two.sups" unicode="&#xb2;" horiz-adv-x="822" 
d="M122 859l29 175l378 249q38 25 83.5 57.5t54.5 83.5q7 40 -19 65t-75 25q-54 0 -92.5 -33t-48.5 -96h-232q26 150 134.5 236t271.5 86q149 0 233.5 -71t64.5 -198q-17 -97 -83 -161.5t-167 -125.5l-157 -96v-1h346l-33 -195h-688z" />
    <glyph glyph-name="three.sups" unicode="&#xb3;" horiz-adv-x="840" 
d="M478 845q-128 0 -201 44t-99 114t-13 149h237q-9 -56 19 -88t87 -32q52 0 89.5 23t43.5 60t-27 59.5t-94 22.5h-89l28 169h89q125 0 138 77q6 36 -20.5 59.5t-72.5 23.5q-49 0 -85.5 -26t-42.5 -67h-237q20 116 125 195t269 79q149 0 233 -65t67 -168q-13 -77 -71.5 -123
t-134.5 -53v-2q98 -9 141 -67.5t31 -133.5q-12 -71 -68 -128t-144 -89.5t-198 -32.5z" />
    <glyph glyph-name="acute" unicode="&#xb4;" horiz-adv-x="593" 
d="M150 1195l239 314h326l-330 -314h-235z" />
    <glyph glyph-name="uni00B5" unicode="&#xb5;" horiz-adv-x="1260" 
d="M-61 -418l244 1474h344l-98 -592q-17 -100 21 -152.5t121 -52.5t137.5 52.5t70.5 152.5l99 592h344l-118 -715q-13 -74 62 -74h51l-44 -267h-162q-219 0 -246 172q-47 -86 -106.5 -119t-115.5 -33q-51 0 -97.5 25.5t-70.5 90.5l-92 -554h-344z" />
    <glyph glyph-name="paragraph" unicode="&#xb6;" horiz-adv-x="1177" 
d="M728 0l204 1230h-180l-113 -678h-87q-164 0 -267.5 61t-144.5 167.5t-18 241.5q21 134 97 239.5t200 167t289 61.5h532l-247 -1490h-265z" />
    <glyph glyph-name="periodcentered" unicode="&#xb7;" horiz-adv-x="521" 
d="M276 517q-84 0 -134.5 62.5t-36.5 148.5q11 70 68.5 118t129.5 48q84 0 134.5 -62t36.5 -149q-12 -70 -69 -118t-129 -48z" />
    <glyph glyph-name="cedilla" unicode="&#xb8;" horiz-adv-x="785" 
d="M100 -418l22 131h118q85 0 95 56q9 57 -76 57h-83l75 216h127l-7 -42l-13 -77q91 -1 132 -48t29 -118q-14 -86 -85 -130.5t-185 -44.5h-149z" />
    <glyph glyph-name="one.sups" unicode="&#xb9;" horiz-adv-x="556" 
d="M678 1694l-138 -835h-243l102 613h-1l-219 -112l34 208l242 126h223z" />
    <glyph glyph-name="ordmasculine" unicode="&#xba;" horiz-adv-x="974" 
d="M213 1044l13 76q16 105 74 185.5t146 126.5t198 46q166 0 246 -100.5t53 -257.5l-12 -76q-17 -103 -73 -183t-143.5 -125.5t-198.5 -45.5q-168 0 -248.5 100t-54.5 254zM406 1120l-13 -76q-15 -89 21 -147.5t127 -58.5q88 0 141 58.5t69 147.5l12 76q14 88 -19.5 148.5
t-124.5 61.5q-89 -1 -143.5 -61.5t-69.5 -148.5z" />
    <glyph glyph-name="guillemotright" unicode="&#xbb;" horiz-adv-x="1343" 
d="M-24 144l435 440l-289 440h380l296 -440l-442 -440h-380zM470 144l435 440l-289 440h380l296 -440l-442 -440h-380z" />
    <glyph glyph-name="onequarter" unicode="&#xbc;" horiz-adv-x="1672" 
d="M599 1490l-138 -835h-216l106 637h-1l-204 -116l31 187l224 127h198zM51 0l1271 1490h237l-1271 -1490h-237zM849 164l29 169l419 502h274l-83 -505h93l-28 -166h-93l-27 -164h-209l27 164h-402zM1278 330l50 303h-1l-247 -302l-1 -1h199z" />
    <glyph glyph-name="onehalf" unicode="&#xbd;" horiz-adv-x="1733" 
d="M599 1490l-138 -835h-216l106 637h-1l-204 -116l31 187l224 127h198zM51 0l1271 1490h237l-1271 -1490h-237zM959 0l26 157l349 255q39 28 83.5 64.5t54.5 89.5q10 52 -14 80.5t-72 28.5q-49 0 -89.5 -36t-51.5 -104h-205q24 145 120 229t238 84q140 0 221 -71t59 -197
q-15 -89 -71.5 -152t-150.5 -135l-156 -118v-1h313l-29 -174h-625z" />
    <glyph glyph-name="threequarters" unicode="&#xbe;" horiz-adv-x="1859" 
d="M412 641q-116 0 -183 42.5t-91 110.5t-11 147h210q-10 -61 15 -96.5t82 -35.5q50 0 87 27t44 70q7 45 -24.5 71t-88.5 26h-79l25 152h79q54 0 90.5 23t44.5 68q7 41 -17.5 67.5t-69.5 26.5t-81 -29t-44 -78h-209q19 115 113.5 192.5t243.5 77.5q136 0 212.5 -65
t60.5 -165q-11 -75 -65 -123t-127 -58v-1q89 -10 128 -67.5t26 -132.5q-17 -107 -118.5 -178.5t-252.5 -71.5zM238 0l1271 1490h237l-1271 -1490h-237zM1036 164l29 169l419 502h274l-83 -505h93l-28 -166h-93l-27 -164h-209l27 164h-402zM1465 330l50 303h-1l-247 -302
l-1 -1h199z" />
    <glyph glyph-name="questiondown" unicode="&#xbf;" horiz-adv-x="1143" 
d="M731 618l-8 -45q-16 -95 -49 -155.5t-90 -104.5t-146 -88q-79 -40 -120.5 -90t-50.5 -106q-12 -75 32 -120.5t129 -45.5q94 0 159 57t81 153h325q-23 -141 -99 -250.5t-197.5 -172t-282.5 -62.5q-152 0 -269 51.5t-176.5 143t-39.5 210.5q38 231 254 358
q100 59 164.5 110t77.5 133l4 24h302zM658 1117q78 0 124 -55t33 -133t-77 -133t-142 -55q-79 0 -124.5 55t-32.5 133t77 133t142 55z" />
    <glyph glyph-name="Agrave" unicode="&#xc0;" horiz-adv-x="1511" 
d="M-82 0l759 1490h474l268 -1490h-390l-41 287h-529l-138 -287h-403zM596 568h352l-13 87q-16 125 -31.5 250t-30.5 262q-61 -137 -118.5 -262t-116.5 -250zM838 1618l-226 319h326l135 -319h-235z" />
    <glyph glyph-name="Aacute" unicode="&#xc1;" horiz-adv-x="1511" 
d="M-82 0l759 1490h474l268 -1490h-390l-41 287h-529l-138 -287h-403zM596 568h352l-13 87q-16 125 -31.5 250t-30.5 262q-61 -137 -118.5 -262t-116.5 -250zM802 1629l239 314h326l-330 -314h-235z" />
    <glyph glyph-name="Acircumflex" unicode="&#xc2;" horiz-adv-x="1511" 
d="M-82 0l759 1490h474l268 -1490h-390l-41 287h-529l-138 -287h-403zM596 568h352l-13 87q-16 125 -31.5 250t-30.5 262q-61 -137 -118.5 -262t-116.5 -250zM811 1623h-256v1l299 313h265l204 -313v-1h-257l-104 164z" />
    <glyph glyph-name="Atilde" unicode="&#xc3;" horiz-adv-x="1511" 
d="M-82 0l759 1490h474l268 -1490h-390l-41 287h-529l-138 -287h-403zM596 568h352l-13 87q-16 125 -31.5 250t-30.5 262q-61 -137 -118.5 -262t-116.5 -250zM1084 1636q-69 0 -110.5 27.5t-70.5 55.5t-63 28q-33 0 -55.5 -28t-32.5 -76h-180q26 141 101 213.5t173 72.5
q69 0 110.5 -27t71 -54t63.5 -27q38 0 58 26t31 76h178q-26 -139 -102.5 -213t-171.5 -74z" />
    <glyph glyph-name="Adieresis" unicode="&#xc4;" horiz-adv-x="1511" 
d="M-82 0l759 1490h474l268 -1490h-390l-41 287h-529l-138 -287h-403zM596 568h352l-13 87q-16 125 -31.5 250t-30.5 262q-61 -137 -118.5 -262t-116.5 -250zM1162 1597q-79 0 -121.5 48.5t-30.5 123.5q13 74 71.5 122.5t137.5 48.5q78 0 121.5 -48.5t30.5 -122.5
q-12 -75 -71.5 -123.5t-137.5 -48.5zM705 1597q-78 0 -120.5 48.5t-30.5 123.5q13 74 71.5 122.5t136.5 48.5q79 0 122.5 -48.5t30.5 -122.5q-12 -75 -71.5 -123.5t-138.5 -48.5z" />
    <glyph glyph-name="Aring" unicode="&#xc5;" horiz-adv-x="1511" 
d="M-82 0l759 1490h474l268 -1490h-390l-41 287h-529l-138 -287h-403zM596 568h352l-13 87q-16 125 -31.5 250t-30.5 262q-61 -137 -118.5 -262t-116.5 -250zM949 1573q-120 0 -185.5 74t-46.5 187q15 94 92.5 155.5t181.5 61.5q120 0 185.5 -74t46.5 -187
q-15 -94 -93 -155.5t-181 -61.5zM954 1714q42 0 74.5 27.5t40.5 70.5q7 43 -16.5 70.5t-66.5 27.5q-42 0 -74.5 -27.5t-39.5 -70.5q-8 -43 15.5 -70.5t66.5 -27.5z" />
    <glyph glyph-name="AE" unicode="&#xc6;" horiz-adv-x="2057" 
d="M-82 0l850 1490h1388l-50 -300h-686l-50 -303h599l-46 -277h-599l-52 -310h686l-49 -300h-1032l56 337h-457l-188 -337h-370zM625 605h352l97 585h-124z" />
    <glyph glyph-name="Ccedilla" unicode="&#xc7;" horiz-adv-x="1502" 
d="M695 -24q-183 0 -322 73.5t-217 212t-78 333.5q0 184 58.5 349.5t168.5 293.5t264 202t345 74q183 0 319.5 -69t210 -196t67.5 -302h-362q-4 120 -67.5 186.5t-177.5 66.5q-117 0 -204.5 -53.5t-146 -142t-88 -195t-29.5 -211.5q0 -147 71 -227.5t210 -80.5
q127 0 223.5 66t140.5 185h363q-51 -171 -160 -298t-260 -197t-329 -70zM462 -413l22 131h118q85 0 95 56q9 57 -76 57h-83l75 216h127l-7 -42l-13 -77q91 -1 132 -48t29 -118q-14 -86 -85 -130.5t-185 -44.5h-149z" />
    <glyph glyph-name="Egrave" unicode="&#xc8;" horiz-adv-x="1264" 
d="M9 0l247 1490h1109l-50 -306h-751l-47 -287h693l-49 -297h-693l-49 -294h750l-50 -306h-1110zM732 1618l-226 319h326l135 -319h-235z" />
    <glyph glyph-name="Eacute" unicode="&#xc9;" horiz-adv-x="1264" 
d="M9 0l247 1490h1109l-50 -306h-751l-47 -287h693l-49 -297h-693l-49 -294h750l-50 -306h-1110zM697 1629l239 314h326l-330 -314h-235z" />
    <glyph glyph-name="Ecircumflex" unicode="&#xca;" horiz-adv-x="1264" 
d="M9 0l247 1490h1109l-50 -306h-751l-47 -287h693l-49 -297h-693l-49 -294h750l-50 -306h-1110zM705 1623h-256v1l299 313h265l204 -313v-1h-257l-104 164z" />
    <glyph glyph-name="Edieresis" unicode="&#xcb;" horiz-adv-x="1264" 
d="M9 0l247 1490h1109l-50 -306h-751l-47 -287h693l-49 -297h-693l-49 -294h750l-50 -306h-1110zM1056 1597q-79 0 -121.5 48.5t-30.5 123.5q13 74 71.5 122.5t137.5 48.5q78 0 121.5 -48.5t30.5 -122.5q-12 -75 -71.5 -123.5t-137.5 -48.5zM599 1597q-78 0 -120.5 48.5
t-30.5 123.5q13 74 71.5 122.5t136.5 48.5q79 0 122.5 -48.5t30.5 -122.5q-12 -75 -71.5 -123.5t-138.5 -48.5z" />
    <glyph glyph-name="Igrave" unicode="&#xcc;" horiz-adv-x="553" 
d="M616 1490l-247 -1490h-360l247 1490h360zM357 1618l-226 319h326l135 -319h-235z" />
    <glyph glyph-name="Iacute" unicode="&#xcd;" horiz-adv-x="553" 
d="M616 1490l-247 -1490h-360l247 1490h360zM322 1629l239 314h326l-330 -314h-235z" />
    <glyph glyph-name="Icircumflex" unicode="&#xce;" horiz-adv-x="553" 
d="M616 1490l-247 -1490h-360l247 1490h360zM330 1623h-256v1l299 313h265l204 -313v-1h-257l-104 164z" />
    <glyph glyph-name="Idieresis" unicode="&#xcf;" horiz-adv-x="553" 
d="M616 1490l-247 -1490h-360l247 1490h360zM681 1597q-79 0 -121.5 48.5t-30.5 123.5q13 74 71.5 122.5t137.5 48.5q78 0 121.5 -48.5t30.5 -122.5q-12 -75 -71.5 -123.5t-137.5 -48.5zM224 1597q-78 0 -120.5 48.5t-30.5 123.5q13 74 71.5 122.5t136.5 48.5
q79 0 122.5 -48.5t30.5 -122.5q-12 -75 -71.5 -123.5t-138.5 -48.5z" />
    <glyph glyph-name="Eth" unicode="&#xd0;" horiz-adv-x="1556" 
d="M739 0h-620l247 1490h533q227 0 384 -91.5t225.5 -258.5t31.5 -395q-38 -228 -140 -395t-267 -258.5t-394 -91.5zM528 300h176q205 0 321 112.5t152 332.5q37 220 -38.5 332.5t-282.5 112.5h-180zM-58 635l39 232h924l-40 -232h-923z" />
    <glyph glyph-name="Ntilde" unicode="&#xd1;" horiz-adv-x="1499" 
d="M9 0l247 1490h369l313 -677q19 -43 49.5 -120t61.5 -158q12 89 25 174t21 135l107 646h360l-247 -1490h-369l-286 620q-25 52 -61.5 140t-77.5 195q-14 -110 -28 -198.5t-22 -135.5l-102 -621h-360zM1078 1636q-69 0 -110.5 27.5t-70.5 55.5t-63 28q-33 0 -55.5 -28
t-32.5 -76h-180q26 141 101 213.5t173 72.5q69 0 110.5 -27t71 -54t63.5 -27q38 0 58 26t31 76h178q-26 -139 -102.5 -213t-171.5 -74z" />
    <glyph glyph-name="Ograve" unicode="&#xd2;" horiz-adv-x="1531" 
d="M692 -24q-181 0 -319.5 73.5t-216.5 212t-78 334.5q0 182 58.5 347.5t168 294t263 202.5t343.5 74q181 0 319 -73t216.5 -212t78.5 -335q0 -186 -60 -352t-170 -293t-263 -200t-340 -73zM708 290q113 0 199 54t143.5 142.5t87 194.5t29.5 211q0 149 -72 228.5t-200 79.5
q-112 0 -197.5 -53.5t-143.5 -141.5t-88 -194.5t-30 -211.5q0 -150 71.5 -229.5t200.5 -79.5zM846 1618l-226 319h326l135 -319h-235z" />
    <glyph glyph-name="Oacute" unicode="&#xd3;" horiz-adv-x="1531" 
d="M692 -24q-181 0 -319.5 73.5t-216.5 212t-78 334.5q0 182 58.5 347.5t168 294t263 202.5t343.5 74q181 0 319 -73t216.5 -212t78.5 -335q0 -186 -60 -352t-170 -293t-263 -200t-340 -73zM708 290q113 0 199 54t143.5 142.5t87 194.5t29.5 211q0 149 -72 228.5t-200 79.5
q-112 0 -197.5 -53.5t-143.5 -141.5t-88 -194.5t-30 -211.5q0 -150 71.5 -229.5t200.5 -79.5zM810 1629l239 314h326l-330 -314h-235z" />
    <glyph glyph-name="Ocircumflex" unicode="&#xd4;" horiz-adv-x="1531" 
d="M692 -24q-181 0 -319.5 73.5t-216.5 212t-78 334.5q0 182 58.5 347.5t168 294t263 202.5t343.5 74q181 0 319 -73t216.5 -212t78.5 -335q0 -186 -60 -352t-170 -293t-263 -200t-340 -73zM708 290q113 0 199 54t143.5 142.5t87 194.5t29.5 211q0 149 -72 228.5t-200 79.5
q-112 0 -197.5 -53.5t-143.5 -141.5t-88 -194.5t-30 -211.5q0 -150 71.5 -229.5t200.5 -79.5zM819 1623h-256v1l299 313h265l204 -313v-1h-257l-104 164z" />
    <glyph glyph-name="Otilde" unicode="&#xd5;" horiz-adv-x="1531" 
d="M692 -24q-181 0 -319.5 73.5t-216.5 212t-78 334.5q0 182 58.5 347.5t168 294t263 202.5t343.5 74q181 0 319 -73t216.5 -212t78.5 -335q0 -186 -60 -352t-170 -293t-263 -200t-340 -73zM708 290q113 0 199 54t143.5 142.5t87 194.5t29.5 211q0 149 -72 228.5t-200 79.5
q-112 0 -197.5 -53.5t-143.5 -141.5t-88 -194.5t-30 -211.5q0 -150 71.5 -229.5t200.5 -79.5zM1092 1636q-69 0 -110.5 27.5t-70.5 55.5t-63 28q-33 0 -55.5 -28t-32.5 -76h-180q26 141 101 213.5t173 72.5q69 0 110.5 -27t71 -54t63.5 -27q38 0 58 26t31 76h178
q-26 -139 -102.5 -213t-171.5 -74z" />
    <glyph glyph-name="Odieresis" unicode="&#xd6;" horiz-adv-x="1531" 
d="M692 -24q-181 0 -319.5 73.5t-216.5 212t-78 334.5q0 182 58.5 347.5t168 294t263 202.5t343.5 74q181 0 319 -73t216.5 -212t78.5 -335q0 -186 -60 -352t-170 -293t-263 -200t-340 -73zM708 290q113 0 199 54t143.5 142.5t87 194.5t29.5 211q0 149 -72 228.5t-200 79.5
q-112 0 -197.5 -53.5t-143.5 -141.5t-88 -194.5t-30 -211.5q0 -150 71.5 -229.5t200.5 -79.5zM1170 1597q-79 0 -121.5 48.5t-30.5 123.5q13 74 71.5 122.5t137.5 48.5q78 0 121.5 -48.5t30.5 -122.5q-12 -75 -71.5 -123.5t-137.5 -48.5zM713 1597q-78 0 -120.5 48.5
t-30.5 123.5q13 74 71.5 122.5t136.5 48.5q79 0 122.5 -48.5t30.5 -122.5q-12 -75 -71.5 -123.5t-138.5 -48.5z" />
    <glyph glyph-name="multiply" unicode="&#xd7;" horiz-adv-x="1364" 
d="M939 51l-278 332l-387 -331l-183 215l388 333l-277 330l249 215l277 -333l387 332l180 -218l-387 -331l277 -332z" />
    <glyph glyph-name="Oslash" unicode="&#xd8;" horiz-adv-x="1531" 
d="M692 -24q-181 0 -319.5 73.5t-216.5 212t-78 334.5q0 182 58.5 347.5t168 294t263 202.5t343.5 74q181 0 319 -73t216.5 -212t78.5 -335q0 -186 -60 -352t-170 -293t-263 -200t-340 -73zM708 290q113 0 199 54t143.5 142.5t87 194.5t29.5 211q0 149 -72 228.5t-200 79.5
q-112 0 -197.5 -53.5t-143.5 -141.5t-88 -194.5t-30 -211.5q0 -150 71.5 -229.5t200.5 -79.5zM109 -81l-159 162l1545 1490l158 -162z" />
    <glyph glyph-name="Ugrave" unicode="&#xd9;" horiz-adv-x="1443" 
d="M648 -24q-195 0 -328 71t-192.5 197.5t-32.5 291.5l158 954h351l-157 -948q-19 -118 40 -189t176 -71q87 0 160 38t120.5 102t60.5 143l153 925h351l-162 -977q-27 -164 -122 -285t-242.5 -186.5t-333.5 -65.5zM802 1618l-226 319h326l135 -319h-235z" />
    <glyph glyph-name="Uacute" unicode="&#xda;" horiz-adv-x="1443" 
d="M648 -24q-195 0 -328 71t-192.5 197.5t-32.5 291.5l158 954h351l-157 -948q-19 -118 40 -189t176 -71q87 0 160 38t120.5 102t60.5 143l153 925h351l-162 -977q-27 -164 -122 -285t-242.5 -186.5t-333.5 -65.5zM766 1629l239 314h326l-330 -314h-235z" />
    <glyph glyph-name="Ucircumflex" unicode="&#xdb;" horiz-adv-x="1443" 
d="M648 -24q-195 0 -328 71t-192.5 197.5t-32.5 291.5l158 954h351l-157 -948q-19 -118 40 -189t176 -71q87 0 160 38t120.5 102t60.5 143l153 925h351l-162 -977q-27 -164 -122 -285t-242.5 -186.5t-333.5 -65.5zM775 1623h-256v1l299 313h265l204 -313v-1h-257l-104 164z
" />
    <glyph glyph-name="Udieresis" unicode="&#xdc;" horiz-adv-x="1443" 
d="M648 -24q-195 0 -328 71t-192.5 197.5t-32.5 291.5l158 954h351l-157 -948q-19 -118 40 -189t176 -71q87 0 160 38t120.5 102t60.5 143l153 925h351l-162 -977q-27 -164 -122 -285t-242.5 -186.5t-333.5 -65.5zM1126 1597q-79 0 -121.5 48.5t-30.5 123.5
q13 74 71.5 122.5t137.5 48.5q78 0 121.5 -48.5t30.5 -122.5q-12 -75 -71.5 -123.5t-137.5 -48.5zM669 1597q-78 0 -120.5 48.5t-30.5 123.5q13 74 71.5 122.5t136.5 48.5q79 0 122.5 -48.5t30.5 -122.5q-12 -75 -71.5 -123.5t-138.5 -48.5z" />
    <glyph glyph-name="Yacute" unicode="&#xdd;" horiz-adv-x="1453" 
d="M470 0l88 533l-394 957h396l162 -433q16 -41 30 -81.5t27 -80.5q26 40 52.5 80.5t54.5 81.5l297 433h424l-700 -957l-88 -533h-349zM771 1629l239 314h326l-330 -314h-235z" />
    <glyph glyph-name="Thorn" unicode="&#xde;" horiz-adv-x="1356" 
d="M254 1490h352l-43 -264h198q185 0 303.5 -60t167 -164.5t26.5 -238.5q-22 -135 -105.5 -239t-221.5 -163t-323 -59h-198l-50 -302h-352zM453 565h199q129 1 193.5 60t77.5 134q12 77 -32.5 139t-173.5 62h-198z" />
    <glyph glyph-name="germandbls" unicode="&#xdf;" horiz-adv-x="1339" 
d="M9 0l181 1093q21 130 102.5 223.5t210 143.5t291.5 50q150 0 269 -45.5t181 -136t39 -226.5q-18 -112 -87 -193t-173 -107l-2 -17q145 -9 211.5 -113.5t41.5 -261.5q-23 -134 -100.5 -225.5t-196 -138t-262.5 -46.5h-206l46 277h142q93 0 155.5 46.5t75.5 124.5
q14 80 -39.5 127t-158.5 47h-112l44 262h73q71 0 121.5 48.5t62.5 118.5q12 76 -29.5 124.5t-131.5 48.5q-91 0 -154 -51t-77 -138l-171 -1035h-347z" />
    <glyph glyph-name="agrave" unicode="&#xe0;" horiz-adv-x="1245" 
d="M416 -23q-138 0 -229.5 68.5t-127 193t-8.5 291.5q27 161 105.5 285t192 194t247.5 70q208 0 277 -161h5l23 138h336l-175 -1056h-336l26 157h-4q-55 -88 -141 -134t-191 -46zM558 252q98 0 171.5 75.5t93.5 202.5q21 125 -27.5 200t-145.5 75q-95 0 -162 -73t-88 -202
q-22 -130 20.5 -204t137.5 -74zM640 1184l-226 319h326l135 -319h-235z" />
    <glyph glyph-name="aacute" unicode="&#xe1;" horiz-adv-x="1245" 
d="M416 -23q-138 0 -229.5 68.5t-127 193t-8.5 291.5q27 161 105.5 285t192 194t247.5 70q208 0 277 -161h5l23 138h336l-175 -1056h-336l26 157h-4q-55 -88 -141 -134t-191 -46zM558 252q98 0 171.5 75.5t93.5 202.5q21 125 -27.5 200t-145.5 75q-95 0 -162 -73t-88 -202
q-22 -130 20.5 -204t137.5 -74zM604 1195l239 314h326l-330 -314h-235z" />
    <glyph glyph-name="acircumflex" unicode="&#xe2;" horiz-adv-x="1245" 
d="M416 -23q-138 0 -229.5 68.5t-127 193t-8.5 291.5q27 161 105.5 285t192 194t247.5 70q208 0 277 -161h5l23 138h336l-175 -1056h-336l26 157h-4q-55 -88 -141 -134t-191 -46zM558 252q98 0 171.5 75.5t93.5 202.5q21 125 -27.5 200t-145.5 75q-95 0 -162 -73t-88 -202
q-22 -130 20.5 -204t137.5 -74zM613 1189h-256v1l299 313h265l204 -313v-1h-257l-104 164z" />
    <glyph glyph-name="atilde" unicode="&#xe3;" horiz-adv-x="1245" 
d="M416 -23q-138 0 -229.5 68.5t-127 193t-8.5 291.5q27 161 105.5 285t192 194t247.5 70q208 0 277 -161h5l23 138h336l-175 -1056h-336l26 157h-4q-55 -88 -141 -134t-191 -46zM558 252q98 0 171.5 75.5t93.5 202.5q21 125 -27.5 200t-145.5 75q-95 0 -162 -73t-88 -202
q-22 -130 20.5 -204t137.5 -74zM887 1202q-69 0 -110.5 27.5t-70.5 55.5t-63 28q-33 0 -55.5 -28t-32.5 -76h-180q26 141 101 213.5t173 72.5q69 0 110.5 -27t71 -54t63.5 -27q38 0 58 26t31 76h178q-26 -139 -102.5 -213t-171.5 -74z" />
    <glyph glyph-name="adieresis" unicode="&#xe4;" horiz-adv-x="1245" 
d="M416 -23q-138 0 -229.5 68.5t-127 193t-8.5 291.5q27 161 105.5 285t192 194t247.5 70q208 0 277 -161h5l23 138h336l-175 -1056h-336l26 157h-4q-55 -88 -141 -134t-191 -46zM558 252q98 0 171.5 75.5t93.5 202.5q21 125 -27.5 200t-145.5 75q-95 0 -162 -73t-88 -202
q-22 -130 20.5 -204t137.5 -74zM964 1163q-79 0 -121.5 48.5t-30.5 123.5q13 74 71.5 122.5t137.5 48.5q78 0 121.5 -48.5t30.5 -122.5q-12 -75 -71.5 -123.5t-137.5 -48.5zM507 1163q-78 0 -120.5 48.5t-30.5 123.5q13 74 71.5 122.5t136.5 48.5q79 0 122.5 -48.5
t30.5 -122.5q-12 -75 -71.5 -123.5t-138.5 -48.5z" />
    <glyph glyph-name="aring" unicode="&#xe5;" horiz-adv-x="1245" 
d="M416 -23q-138 0 -229.5 68.5t-127 193t-8.5 291.5q27 161 105.5 285t192 194t247.5 70q208 0 277 -161h5l23 138h336l-175 -1056h-336l26 157h-4q-55 -88 -141 -134t-191 -46zM558 252q98 0 171.5 75.5t93.5 202.5q21 125 -27.5 200t-145.5 75q-95 0 -162 -73t-88 -202
q-22 -130 20.5 -204t137.5 -74zM732 1139q-112 0 -173.5 67.5t-44.5 171.5q18 104 102 171.5t195 67.5q112 0 173.5 -67.5t44.5 -171.5t-101 -171.5t-196 -67.5zM754 1280q44 0 76.5 27.5t39.5 70.5t-15.5 70.5t-64.5 27.5q-44 0 -77 -27.5t-40 -70.5t15.5 -70.5t65.5 -27.5
z" />
    <glyph glyph-name="ae" unicode="&#xe6;" horiz-adv-x="1843" 
d="M374 -18q-190 0 -287.5 85t-73.5 231q25 149 146 232t312 86q36 1 71 0.5t71 -0.5h61h63l16 97q20 119 -138 119q-73 0 -122 -31t-64 -87h-320q23 100 93 183t184 132.5t269 49.5q124 0 201.5 -32t117.5 -87q162 120 388 120q123 0 222.5 -35t158 -106t58.5 -177
q0 -125 -90 -195.5t-258.5 -101.5t-403.5 -38q-1 -13 -1 -22q0 -101 50 -140.5t132 -39.5q90 0 143 35t73 90h321q-58 -172 -199.5 -273t-360.5 -101q-266 0 -392 144q-68 -67 -176.5 -102.5t-264.5 -35.5zM1078 622q168 5 255.5 20t119.5 40t32 61q0 41 -40 63.5t-112 22.5
q-107 0 -169 -48.5t-86 -158.5zM705 425q-46 0 -91.5 -0.5t-90.5 -1.5q-74 -1 -124 -28.5t-58 -80.5q-9 -51 24 -79t97 -28q88 0 155.5 48t80.5 127z" />
    <glyph glyph-name="ccedilla" unicode="&#xe7;" horiz-adv-x="1163" 
d="M525 -24q-148 0 -255.5 57t-166 159.5t-58.5 240.5q0 129 44 245.5t126.5 207t198 142.5t258.5 52q142 0 252 -54.5t167.5 -153.5t42.5 -231h-331q3 66 -26 116t-108 50q-90 0 -152 -58t-94 -146t-32 -177q0 -85 37.5 -131t111.5 -46q83 0 144 49t82 120h332
q-25 -132 -105.5 -231.5t-201 -155t-266.5 -55.5zM306 -418l22 131h118q85 0 95 56q9 57 -76 57h-83l75 216h127l-7 -42l-13 -77q91 -1 132 -48t29 -118q-14 -86 -85 -130.5t-185 -44.5h-149z" />
    <glyph glyph-name="egrave" unicode="&#xe8;" horiz-adv-x="1171" 
d="M533 -24q-248 0 -382.5 132.5t-100.5 395.5q22 178 109.5 307.5t224.5 199t309 69.5q122 0 221.5 -37t157.5 -111.5t58 -189.5q0 -137 -89.5 -207t-257.5 -95t-403 -28q-1 -85 35.5 -136t145.5 -51q90 0 142 34t72 90h319q-57 -168 -198.5 -270.5t-362.5 -102.5zM405 624
q169 5 257 19t119.5 38t31.5 57q0 91 -156 91q-124 0 -178 -60t-74 -145zM621 1184l-226 319h326l135 -319h-235z" />
    <glyph glyph-name="eacute" unicode="&#xe9;" horiz-adv-x="1171" 
d="M533 -24q-248 0 -382.5 132.5t-100.5 395.5q22 178 109.5 307.5t224.5 199t309 69.5q122 0 221.5 -37t157.5 -111.5t58 -189.5q0 -137 -89.5 -207t-257.5 -95t-403 -28q-1 -85 35.5 -136t145.5 -51q90 0 142 34t72 90h319q-57 -168 -198.5 -270.5t-362.5 -102.5zM405 624
q169 5 257 19t119.5 38t31.5 57q0 91 -156 91q-124 0 -178 -60t-74 -145zM586 1195l239 314h326l-330 -314h-235z" />
    <glyph glyph-name="ecircumflex" unicode="&#xea;" horiz-adv-x="1171" 
d="M533 -24q-248 0 -382.5 132.5t-100.5 395.5q22 178 109.5 307.5t224.5 199t309 69.5q122 0 221.5 -37t157.5 -111.5t58 -189.5q0 -137 -89.5 -207t-257.5 -95t-403 -28q-1 -85 35.5 -136t145.5 -51q90 0 142 34t72 90h319q-57 -168 -198.5 -270.5t-362.5 -102.5zM405 624
q169 5 257 19t119.5 38t31.5 57q0 91 -156 91q-124 0 -178 -60t-74 -145zM595 1189h-256v1l299 313h265l204 -313v-1h-257l-104 164z" />
    <glyph glyph-name="edieresis" unicode="&#xeb;" horiz-adv-x="1171" 
d="M533 -24q-248 0 -382.5 132.5t-100.5 395.5q22 178 109.5 307.5t224.5 199t309 69.5q122 0 221.5 -37t157.5 -111.5t58 -189.5q0 -137 -89.5 -207t-257.5 -95t-403 -28q-1 -85 35.5 -136t145.5 -51q90 0 142 34t72 90h319q-57 -168 -198.5 -270.5t-362.5 -102.5zM405 624
q169 5 257 19t119.5 38t31.5 57q0 91 -156 91q-124 0 -178 -60t-74 -145zM946 1163q-79 0 -121.5 48.5t-30.5 123.5q13 74 71.5 122.5t137.5 48.5q78 0 121.5 -48.5t30.5 -122.5q-12 -75 -71.5 -123.5t-137.5 -48.5zM489 1163q-78 0 -120.5 48.5t-30.5 123.5
q13 74 71.5 122.5t136.5 48.5q79 0 122.5 -48.5t30.5 -122.5q-12 -75 -71.5 -123.5t-138.5 -48.5z" />
    <glyph glyph-name="igrave" unicode="&#xec;" horiz-adv-x="537" 
d="M9 0l175 1056h344l-175 -1056h-344zM277 1184l-226 319h326l135 -319h-235z" />
    <glyph glyph-name="iacute" unicode="&#xed;" horiz-adv-x="537" 
d="M9 0l175 1056h344l-175 -1056h-344zM242 1195l239 314h326l-330 -314h-235z" />
    <glyph glyph-name="icircumflex" unicode="&#xee;" horiz-adv-x="537" 
d="M9 0l175 1056h344l-175 -1056h-344zM250 1189h-256v1l299 313h265l204 -313v-1h-257l-104 164z" />
    <glyph glyph-name="idieresis" unicode="&#xef;" horiz-adv-x="537" 
d="M9 0l175 1056h344l-175 -1056h-344zM601 1163q-79 0 -121.5 48.5t-30.5 123.5q13 74 71.5 122.5t137.5 48.5q78 0 121.5 -48.5t30.5 -122.5q-12 -75 -71.5 -123.5t-137.5 -48.5zM144 1163q-78 0 -120.5 48.5t-30.5 123.5q13 74 71.5 122.5t136.5 48.5q79 0 122.5 -48.5
t30.5 -122.5q-12 -75 -71.5 -123.5t-138.5 -48.5z" />
    <glyph glyph-name="eth" unicode="&#xf0;" horiz-adv-x="1198" 
d="M1071 1399l-164 -78q143 -131 214.5 -318.5t33.5 -423.5q-30 -181 -119.5 -316.5t-225.5 -210.5t-308 -76q-163 1 -273.5 68t-158.5 187.5t-22 280.5q24 145 100 262.5t190 187t251 69.5q96 0 160.5 -34.5t101.5 -83.5h16q-26 82 -79 156t-124 136l-357 -170l13 151
l227 108q-91 59 -191 98l49 176q216 -43 388 -158l291 138zM554 236q104 0 177.5 80t95.5 216q21 126 -20.5 208.5t-155.5 82.5q-111 0 -180 -79.5t-90 -208.5q-23 -133 21 -216t152 -83z" />
    <glyph glyph-name="ntilde" unicode="&#xf1;" horiz-adv-x="1231" 
d="M446 563l-93 -563h-344l174 1056h340l-26 -155q66 85 151 131.5t197 46.5q179 0 261.5 -115.5t49.5 -311.5l-108 -652h-344l99 604q15 93 -22.5 137t-113.5 44q-88 0 -145.5 -57.5t-75.5 -164.5zM869 1202q-69 0 -110.5 27.5t-70.5 55.5t-63 28q-33 0 -55.5 -28
t-32.5 -76h-180q26 141 101 213.5t173 72.5q69 0 110.5 -27t71 -54t63.5 -27q38 0 58 26t31 76h178q-26 -139 -102.5 -213t-171.5 -74z" />
    <glyph glyph-name="ograve" unicode="&#xf2;" horiz-adv-x="1215" 
d="M534 -24q-225 0 -356.5 124t-131.5 334q0 182 81 328.5t224.5 232t329.5 85.5q226 0 357 -124.5t131 -334.5q0 -130 -44 -246.5t-127 -206t-200.5 -141t-263.5 -51.5zM556 250q88 0 148 57t90.5 143.5t30.5 172.5q0 90 -48 136.5t-118 46.5q-87 0 -147 -57t-91 -143
t-31 -174q0 -90 48 -136t118 -46zM616 1184l-226 319h326l135 -319h-235z" />
    <glyph glyph-name="oacute" unicode="&#xf3;" horiz-adv-x="1215" 
d="M534 -24q-225 0 -356.5 124t-131.5 334q0 182 81 328.5t224.5 232t329.5 85.5q226 0 357 -124.5t131 -334.5q0 -130 -44 -246.5t-127 -206t-200.5 -141t-263.5 -51.5zM556 250q88 0 148 57t90.5 143.5t30.5 172.5q0 90 -48 136.5t-118 46.5q-87 0 -147 -57t-91 -143
t-31 -174q0 -90 48 -136t118 -46zM580 1195l239 314h326l-330 -314h-235z" />
    <glyph glyph-name="ocircumflex" unicode="&#xf4;" horiz-adv-x="1215" 
d="M534 -24q-225 0 -356.5 124t-131.5 334q0 182 81 328.5t224.5 232t329.5 85.5q226 0 357 -124.5t131 -334.5q0 -130 -44 -246.5t-127 -206t-200.5 -141t-263.5 -51.5zM556 250q88 0 148 57t90.5 143.5t30.5 172.5q0 90 -48 136.5t-118 46.5q-87 0 -147 -57t-91 -143
t-31 -174q0 -90 48 -136t118 -46zM589 1189h-256v1l299 313h265l204 -313v-1h-257l-104 164z" />
    <glyph glyph-name="otilde" unicode="&#xf5;" horiz-adv-x="1215" 
d="M534 -24q-225 0 -356.5 124t-131.5 334q0 182 81 328.5t224.5 232t329.5 85.5q226 0 357 -124.5t131 -334.5q0 -130 -44 -246.5t-127 -206t-200.5 -141t-263.5 -51.5zM556 250q88 0 148 57t90.5 143.5t30.5 172.5q0 90 -48 136.5t-118 46.5q-87 0 -147 -57t-91 -143
t-31 -174q0 -90 48 -136t118 -46zM862 1202q-69 0 -110.5 27.5t-70.5 55.5t-63 28q-33 0 -55.5 -28t-32.5 -76h-180q26 141 101 213.5t173 72.5q69 0 110.5 -27t71 -54t63.5 -27q38 0 58 26t31 76h178q-26 -139 -102.5 -213t-171.5 -74z" />
    <glyph glyph-name="odieresis" unicode="&#xf6;" horiz-adv-x="1215" 
d="M534 -24q-225 0 -356.5 124t-131.5 334q0 182 81 328.5t224.5 232t329.5 85.5q226 0 357 -124.5t131 -334.5q0 -130 -44 -246.5t-127 -206t-200.5 -141t-263.5 -51.5zM556 250q88 0 148 57t90.5 143.5t30.5 172.5q0 90 -48 136.5t-118 46.5q-87 0 -147 -57t-91 -143
t-31 -174q0 -90 48 -136t118 -46zM940 1163q-79 0 -121.5 48.5t-30.5 123.5q13 74 71.5 122.5t137.5 48.5q78 0 121.5 -48.5t30.5 -122.5q-12 -75 -71.5 -123.5t-137.5 -48.5zM483 1163q-78 0 -120.5 48.5t-30.5 123.5q13 74 71.5 122.5t136.5 48.5q79 0 122.5 -48.5
t30.5 -122.5q-12 -75 -71.5 -123.5t-138.5 -48.5z" />
    <glyph glyph-name="divide" unicode="&#xf7;" horiz-adv-x="1364" 
d="M1236 734l-44 -269h-1041l44 269h1041zM731 825q-78 0 -124 55t-33 133q12 77 76.5 131t142.5 55q77 -1 122 -55t33 -131q-14 -78 -77 -133t-140 -55zM811 189q-13 -79 -76.5 -133.5t-140.5 -55.5q-78 1 -124 55.5t-32 133.5q12 76 76 130.5t142 54.5q77 0 122 -54.5
t33 -130.5z" />
    <glyph glyph-name="oslash" unicode="&#xf8;" horiz-adv-x="1215" 
d="M534 -24q-225 0 -356.5 124t-131.5 334q0 182 81 328.5t224.5 232t329.5 85.5q226 0 357 -124.5t131 -334.5q0 -130 -44 -246.5t-127 -206t-200.5 -141t-263.5 -51.5zM556 250q88 0 148 57t90.5 143.5t30.5 172.5q0 90 -48 136.5t-118 46.5q-87 0 -147 -57t-91 -143
t-31 -174q0 -90 48 -136t118 -46zM66 -51l-90 102l1172 1056l90 -102z" />
    <glyph glyph-name="ugrave" unicode="&#xf9;" horiz-adv-x="1231" 
d="M368 -23q-173 0 -250 110t-45 305l110 664h345l-99 -592q-15 -94 21.5 -143.5t118.5 -49.5t139 51.5t75 159.5l95 574h345l-175 -1056h-340l28 171q-68 -91 -158.5 -142.5t-209.5 -51.5zM624 1184l-226 319h326l135 -319h-235z" />
    <glyph glyph-name="uacute" unicode="&#xfa;" horiz-adv-x="1231" 
d="M368 -23q-173 0 -250 110t-45 305l110 664h345l-99 -592q-15 -94 21.5 -143.5t118.5 -49.5t139 51.5t75 159.5l95 574h345l-175 -1056h-340l28 171q-68 -91 -158.5 -142.5t-209.5 -51.5zM588 1195l239 314h326l-330 -314h-235z" />
    <glyph glyph-name="ucircumflex" unicode="&#xfb;" horiz-adv-x="1231" 
d="M368 -23q-173 0 -250 110t-45 305l110 664h345l-99 -592q-15 -94 21.5 -143.5t118.5 -49.5t139 51.5t75 159.5l95 574h345l-175 -1056h-340l28 171q-68 -91 -158.5 -142.5t-209.5 -51.5zM597 1189h-256v1l299 313h265l204 -313v-1h-257l-104 164z" />
    <glyph glyph-name="udieresis" unicode="&#xfc;" horiz-adv-x="1231" 
d="M368 -23q-173 0 -250 110t-45 305l110 664h345l-99 -592q-15 -94 21.5 -143.5t118.5 -49.5t139 51.5t75 159.5l95 574h345l-175 -1056h-340l28 171q-68 -91 -158.5 -142.5t-209.5 -51.5zM948 1163q-79 0 -121.5 48.5t-30.5 123.5q13 74 71.5 122.5t137.5 48.5
q78 0 121.5 -48.5t30.5 -122.5q-12 -75 -71.5 -123.5t-137.5 -48.5zM491 1163q-78 0 -120.5 48.5t-30.5 123.5q13 74 71.5 122.5t136.5 48.5q79 0 122.5 -48.5t30.5 -122.5q-12 -75 -71.5 -123.5t-138.5 -48.5z" />
    <glyph glyph-name="yacute" unicode="&#xfd;" horiz-adv-x="1170" 
d="M-28 -418l44 267h146q54 0 79.5 24t55.5 81l25 48l-231 1054h346l76 -486q8 -55 15 -109.5t13 -109.5q51 113 102 219l239 486h370l-655 -1205q-77 -142 -169.5 -205.5t-224.5 -63.5h-231zM531 1195l239 314h326l-330 -314h-235z" />
    <glyph glyph-name="thorn" unicode="&#xfe;" horiz-adv-x="1251" 
d="M652 -23q-214 0 -268 180h-4l-95 -575h-346l316 1908h346l-94 -572h4q122 161 327 161q134 0 224.5 -70t127.5 -194t10 -285q-27 -167 -104.5 -291.5t-191.5 -193t-252 -68.5zM601 252q95 0 162 74t89 204q21 129 -21.5 202t-137.5 73q-98 0 -171 -75t-94 -200
q-21 -127 27.5 -202.5t145.5 -75.5z" />
    <glyph glyph-name="ydieresis" unicode="&#xff;" horiz-adv-x="1170" 
d="M-28 -418l44 267h146q54 0 79.5 24t55.5 81l25 48l-231 1054h346l76 -486q8 -55 15 -109.5t13 -109.5q51 113 102 219l239 486h370l-655 -1205q-77 -142 -169.5 -205.5t-224.5 -63.5h-231zM891 1163q-79 0 -121.5 48.5t-30.5 123.5q13 74 71.5 122.5t137.5 48.5
q78 0 121.5 -48.5t30.5 -122.5q-12 -75 -71.5 -123.5t-137.5 -48.5zM434 1163q-78 0 -120.5 48.5t-30.5 123.5q13 74 71.5 122.5t136.5 48.5q79 0 122.5 -48.5t30.5 -122.5q-12 -75 -71.5 -123.5t-138.5 -48.5z" />
    <glyph glyph-name="Amacron" unicode="&#x100;" horiz-adv-x="1511" 
d="M-82 0l759 1490h474l268 -1490h-390l-41 287h-529l-138 -287h-403zM596 568h352l-13 87q-16 125 -31.5 250t-30.5 262q-61 -137 -118.5 -262t-116.5 -250zM1273 1865l-35 -210h-589l35 210h589z" />
    <glyph glyph-name="amacron" unicode="&#x101;" horiz-adv-x="1245" 
d="M416 -23q-138 0 -229.5 68.5t-127 193t-8.5 291.5q27 161 105.5 285t192 194t247.5 70q208 0 277 -161h5l23 138h336l-175 -1056h-336l26 157h-4q-55 -88 -141 -134t-191 -46zM558 252q98 0 171.5 75.5t93.5 202.5q21 125 -27.5 200t-145.5 75q-95 0 -162 -73t-88 -202
q-22 -130 20.5 -204t137.5 -74zM1075 1431l-35 -210h-589l35 210h589z" />
    <glyph glyph-name="Abreve" unicode="&#x102;" horiz-adv-x="1511" 
d="M-82 0l759 1490h474l268 -1490h-390l-41 287h-529l-138 -287h-403zM596 568h352l-13 87q-16 125 -31.5 250t-30.5 262q-61 -137 -118.5 -262t-116.5 -250zM936 1610q-104 0 -180 42.5t-112 115.5t-21 163h198q-11 -65 29.5 -105.5t114.5 -40.5q73 0 126.5 40.5
t64.5 105.5h200q-15 -90 -75.5 -163t-150 -115.5t-194.5 -42.5z" />
    <glyph glyph-name="abreve" unicode="&#x103;" horiz-adv-x="1245" 
d="M416 -23q-138 0 -229.5 68.5t-127 193t-8.5 291.5q27 161 105.5 285t192 194t247.5 70q208 0 277 -161h5l23 138h336l-175 -1056h-336l26 157h-4q-55 -88 -141 -134t-191 -46zM558 252q98 0 171.5 75.5t93.5 202.5q21 125 -27.5 200t-145.5 75q-95 0 -162 -73t-88 -202
q-22 -130 20.5 -204t137.5 -74zM738 1176q-104 0 -180 42.5t-112 115.5t-21 163h198q-11 -65 29.5 -105.5t114.5 -40.5q73 0 126.5 40.5t64.5 105.5h200q-15 -90 -75.5 -163t-150 -115.5t-194.5 -42.5z" />
    <glyph glyph-name="Aogonek" unicode="&#x104;" horiz-adv-x="1511" 
d="M-82 0l759 1490h474l268 -1490h-390l-41 287h-529l-138 -287h-403zM596 568h352l-13 87q-16 125 -31.5 250t-30.5 262q-61 -137 -118.5 -262t-116.5 -250zM1171 -418q-146 0 -219.5 52t-55.5 157q11 72 54.5 125t107.5 106l361 -22q-86 -48 -121 -81t-41 -69
q-11 -61 70 -61h57l-34 -207h-179z" />
    <glyph glyph-name="aogonek" unicode="&#x105;" horiz-adv-x="1245" 
d="M416 -23q-138 0 -229.5 68.5t-127 193t-8.5 291.5q27 161 105.5 285t192 194t247.5 70q208 0 277 -161h5l23 138h336l-175 -1056h-336l26 157h-4q-55 -88 -141 -134t-191 -46zM558 252q98 0 171.5 75.5t93.5 202.5q21 125 -27.5 200t-145.5 75q-95 0 -162 -73t-88 -202
q-22 -130 20.5 -204t137.5 -74zM826 -418q-146 0 -216 54.5t-53 154.5q11 67 54.5 119.5t116.5 105.5l334 -16q-86 -49 -121 -81.5t-41 -68.5q-11 -61 70 -61h57l-34 -207h-167z" />
    <glyph glyph-name="Cacute" unicode="&#x106;" horiz-adv-x="1502" 
d="M695 -24q-183 0 -322 73.5t-217 212t-78 333.5q0 184 58.5 349.5t168.5 293.5t264 202t345 74q183 0 319.5 -69t210 -196t67.5 -302h-362q-4 120 -67.5 186.5t-177.5 66.5q-117 0 -204.5 -53.5t-146 -142t-88 -195t-29.5 -211.5q0 -147 71 -227.5t210 -80.5
q127 0 223.5 66t140.5 185h363q-51 -171 -160 -298t-260 -197t-329 -70zM803 1629l239 314h326l-330 -314h-235z" />
    <glyph glyph-name="cacute" unicode="&#x107;" horiz-adv-x="1163" 
d="M525 -24q-148 0 -255.5 57t-166 159.5t-58.5 240.5q0 129 44 245.5t126.5 207t198 142.5t258.5 52q142 0 252 -54.5t167.5 -153.5t42.5 -231h-331q3 66 -26 116t-108 50q-90 0 -152 -58t-94 -146t-32 -177q0 -85 37.5 -131t111.5 -46q83 0 144 49t82 120h332
q-25 -132 -105.5 -231.5t-201 -155t-266.5 -55.5zM569 1195l239 314h326l-330 -314h-235z" />
    <glyph glyph-name="Ccircumflex" unicode="&#x108;" horiz-adv-x="1502" 
d="M695 -24q-183 0 -322 73.5t-217 212t-78 333.5q0 184 58.5 349.5t168.5 293.5t264 202t345 74q183 0 319.5 -69t210 -196t67.5 -302h-362q-4 120 -67.5 186.5t-177.5 66.5q-117 0 -204.5 -53.5t-146 -142t-88 -195t-29.5 -211.5q0 -147 71 -227.5t210 -80.5
q127 0 223.5 66t140.5 185h363q-51 -171 -160 -298t-260 -197t-329 -70zM812 1623h-256v1l299 313h265l204 -313v-1h-257l-104 164z" />
    <glyph glyph-name="ccircumflex" unicode="&#x109;" horiz-adv-x="1163" 
d="M525 -24q-148 0 -255.5 57t-166 159.5t-58.5 240.5q0 129 44 245.5t126.5 207t198 142.5t258.5 52q142 0 252 -54.5t167.5 -153.5t42.5 -231h-331q3 66 -26 116t-108 50q-90 0 -152 -58t-94 -146t-32 -177q0 -85 37.5 -131t111.5 -46q83 0 144 49t82 120h332
q-25 -132 -105.5 -231.5t-201 -155t-266.5 -55.5zM578 1189h-256v1l299 313h265l204 -313v-1h-257l-104 164z" />
    <glyph glyph-name="Cdotaccent" unicode="&#x10a;" horiz-adv-x="1502" 
d="M695 -24q-183 0 -322 73.5t-217 212t-78 333.5q0 184 58.5 349.5t168.5 293.5t264 202t345 74q183 0 319.5 -69t210 -196t67.5 -302h-362q-4 120 -67.5 186.5t-177.5 66.5q-117 0 -204.5 -53.5t-146 -142t-88 -195t-29.5 -211.5q0 -147 71 -227.5t210 -80.5
q127 0 223.5 66t140.5 185h363q-51 -171 -160 -298t-260 -197t-329 -70zM935 1606q-77 0 -121.5 51t-32.5 125q13 73 74.5 124.5t138.5 51.5t122 -51.5t33 -124.5q-13 -74 -75 -125t-139 -51z" />
    <glyph glyph-name="cdotaccent" unicode="&#x10b;" horiz-adv-x="1163" 
d="M525 -24q-148 0 -255.5 57t-166 159.5t-58.5 240.5q0 129 44 245.5t126.5 207t198 142.5t258.5 52q142 0 252 -54.5t167.5 -153.5t42.5 -231h-331q3 66 -26 116t-108 50q-90 0 -152 -58t-94 -146t-32 -177q0 -85 37.5 -131t111.5 -46q83 0 144 49t82 120h332
q-25 -132 -105.5 -231.5t-201 -155t-266.5 -55.5zM701 1172q-77 0 -121.5 51t-32.5 125q13 73 74.5 124.5t138.5 51.5t122 -51.5t33 -124.5q-13 -74 -75 -125t-139 -51z" />
    <glyph glyph-name="Ccaron" unicode="&#x10c;" horiz-adv-x="1502" 
d="M695 -24q-183 0 -322 73.5t-217 212t-78 333.5q0 184 58.5 349.5t168.5 293.5t264 202t345 74q183 0 319.5 -69t210 -196t67.5 -302h-362q-4 120 -67.5 186.5t-177.5 66.5q-117 0 -204.5 -53.5t-146 -142t-88 -195t-29.5 -211.5q0 -147 71 -227.5t210 -80.5
q127 0 223.5 66t140.5 185h363q-51 -171 -160 -298t-260 -197t-329 -70zM864 1937l98 -164l156 164h258v-1l-307 -313h-264l-197 313v1h256z" />
    <glyph glyph-name="ccaron" unicode="&#x10d;" horiz-adv-x="1163" 
d="M525 -24q-148 0 -255.5 57t-166 159.5t-58.5 240.5q0 129 44 245.5t126.5 207t198 142.5t258.5 52q142 0 252 -54.5t167.5 -153.5t42.5 -231h-331q3 66 -26 116t-108 50q-90 0 -152 -58t-94 -146t-32 -177q0 -85 37.5 -131t111.5 -46q83 0 144 49t82 120h332
q-25 -132 -105.5 -231.5t-201 -155t-266.5 -55.5zM629 1503l98 -164l156 164h258v-1l-307 -313h-264l-197 313v1h256z" />
    <glyph glyph-name="Dcaron" unicode="&#x10e;" horiz-adv-x="1446" 
d="M629 0h-620l247 1490h533q227 0 384 -91.5t225.5 -258.5t31.5 -395q-38 -228 -140 -395t-267 -258.5t-394 -91.5zM418 300h176q205 0 321 112.5t152 332.5q37 220 -38.5 332.5t-282.5 112.5h-180zM691 1937l98 -164l156 164h258v-1l-307 -313h-264l-197 313v1h256z" />
    <glyph glyph-name="dcaron" unicode="&#x10f;" horiz-adv-x="1504" 
d="M435 -23q-184 0 -287.5 118.5t-103.5 318.5q0 124 36.5 242.5t105.5 214t168 152t224 56.5q215 0 292 -181h1l97 592h345l-246 -1490h-341l25 155h-1q-55 -96 -136.5 -137t-178.5 -41zM541 252q89 0 155 56t102 140t36 169q0 89 -44.5 138.5t-121.5 49.5
q-90 0 -152.5 -57.5t-94.5 -144t-32 -173.5q0 -86 39 -132t113 -46zM1387 1182l64 386h247l-117 -386h-194z" />
    <glyph glyph-name="Dcroat" unicode="&#x110;" horiz-adv-x="1556" 
d="M739 0h-620l247 1490h533q227 0 384 -91.5t225.5 -258.5t31.5 -395q-38 -228 -140 -395t-267 -258.5t-394 -91.5zM528 300h176q205 0 321 112.5t152 332.5q37 220 -38.5 332.5t-282.5 112.5h-180zM-58 635l39 232h924l-40 -232h-923z" />
    <glyph glyph-name="dcroat" unicode="&#x111;" horiz-adv-x="1250" 
d="M435 -23q-184 0 -287.5 118.5t-103.5 318.5q0 124 36.5 242.5t105.5 214t168 152t224 56.5q215 0 292 -181h1l97 592h345l-246 -1490h-341l25 155h-1q-55 -96 -136.5 -137t-178.5 -41zM541 252q89 0 155 56t102 140t36 169q0 89 -44.5 138.5t-121.5 49.5
q-90 0 -152.5 -57.5t-94.5 -144t-32 -173.5q0 -86 39 -132t113 -46zM589 1162l33 200h809l-33 -200h-809z" />
    <glyph glyph-name="Emacron" unicode="&#x112;" horiz-adv-x="1264" 
d="M9 0l247 1490h1109l-50 -306h-751l-47 -287h693l-49 -297h-693l-49 -294h750l-50 -306h-1110zM1167 1865l-35 -210h-589l35 210h589z" />
    <glyph glyph-name="emacron" unicode="&#x113;" horiz-adv-x="1171" 
d="M533 -24q-248 0 -382.5 132.5t-100.5 395.5q22 178 109.5 307.5t224.5 199t309 69.5q122 0 221.5 -37t157.5 -111.5t58 -189.5q0 -137 -89.5 -207t-257.5 -95t-403 -28q-1 -85 35.5 -136t145.5 -51q90 0 142 34t72 90h319q-57 -168 -198.5 -270.5t-362.5 -102.5zM405 624
q169 5 257 19t119.5 38t31.5 57q0 91 -156 91q-124 0 -178 -60t-74 -145zM1057 1431l-35 -210h-589l35 210h589z" />
    <glyph glyph-name="Ebreve" unicode="&#x114;" horiz-adv-x="1264" 
d="M9 0l247 1490h1109l-50 -306h-751l-47 -287h693l-49 -297h-693l-49 -294h750l-50 -306h-1110zM830 1610q-104 0 -180 42.5t-112 115.5t-21 163h198q-11 -65 29.5 -105.5t114.5 -40.5q73 0 126.5 40.5t64.5 105.5h200q-15 -90 -75.5 -163t-150 -115.5t-194.5 -42.5z" />
    <glyph glyph-name="ebreve" unicode="&#x115;" horiz-adv-x="1171" 
d="M533 -24q-248 0 -382.5 132.5t-100.5 395.5q22 178 109.5 307.5t224.5 199t309 69.5q122 0 221.5 -37t157.5 -111.5t58 -189.5q0 -137 -89.5 -207t-257.5 -95t-403 -28q-1 -85 35.5 -136t145.5 -51q90 0 142 34t72 90h319q-57 -168 -198.5 -270.5t-362.5 -102.5zM405 624
q169 5 257 19t119.5 38t31.5 57q0 91 -156 91q-124 0 -178 -60t-74 -145zM720 1176q-104 0 -180 42.5t-112 115.5t-21 163h198q-11 -65 29.5 -105.5t114.5 -40.5q73 0 126.5 40.5t64.5 105.5h200q-15 -90 -75.5 -163t-150 -115.5t-194.5 -42.5z" />
    <glyph glyph-name="Edotaccent" unicode="&#x116;" horiz-adv-x="1264" 
d="M9 0l247 1490h1109l-50 -306h-751l-47 -287h693l-49 -297h-693l-49 -294h750l-50 -306h-1110zM829 1606q-77 0 -121.5 51t-32.5 125q13 73 74.5 124.5t138.5 51.5t122 -51.5t33 -124.5q-13 -74 -75 -125t-139 -51z" />
    <glyph glyph-name="edotaccent" unicode="&#x117;" horiz-adv-x="1171" 
d="M533 -24q-248 0 -382.5 132.5t-100.5 395.5q22 178 109.5 307.5t224.5 199t309 69.5q122 0 221.5 -37t157.5 -111.5t58 -189.5q0 -137 -89.5 -207t-257.5 -95t-403 -28q-1 -85 35.5 -136t145.5 -51q90 0 142 34t72 90h319q-57 -168 -198.5 -270.5t-362.5 -102.5zM405 624
q169 5 257 19t119.5 38t31.5 57q0 91 -156 91q-124 0 -178 -60t-74 -145zM718 1172q-77 0 -121.5 51t-32.5 125q13 73 74.5 124.5t138.5 51.5t122 -51.5t33 -124.5q-13 -74 -75 -125t-139 -51z" />
    <glyph glyph-name="Eogonek" unicode="&#x118;" horiz-adv-x="1264" 
d="M9 0l247 1490h1109l-50 -306h-751l-47 -287h693l-49 -297h-693l-49 -294h750l-50 -306h-1110zM883 -418q-146 0 -216 54.5t-53 154.5q11 69 58 127.5t128 115.5l319 -34q-86 -48 -121 -81t-41 -69q-11 -61 70 -61h57l-34 -207h-167z" />
    <glyph glyph-name="eogonek" unicode="&#x119;" horiz-adv-x="1171" 
d="M533 -24q-248 0 -382.5 132.5t-100.5 395.5q22 178 109.5 307.5t224.5 199t309 69.5q122 0 221.5 -37t157.5 -111.5t58 -189.5q0 -137 -89.5 -207t-257.5 -95t-403 -28q-1 -85 35.5 -136t145.5 -51q90 0 142 34t72 90h319q-57 -168 -198.5 -270.5t-362.5 -102.5zM405 624
q169 5 257 19t119.5 38t31.5 57q0 91 -156 91q-124 0 -178 -60t-74 -145zM745 -407q-149 0 -219 54t-54 154q12 69 53.5 120.5t101.5 110.5l467 317q-26 -79 -70.5 -149t-91.5 -131.5t-81.5 -113.5t-41.5 -94q-10 -61 74 -61h57l-34 -207h-161z" />
    <glyph glyph-name="Ecaron" unicode="&#x11a;" horiz-adv-x="1264" 
d="M9 0l247 1490h1109l-50 -306h-751l-47 -287h693l-49 -297h-693l-49 -294h750l-50 -306h-1110zM757 1937l98 -164l156 164h258v-1l-307 -313h-264l-197 313v1h256z" />
    <glyph glyph-name="ecaron" unicode="&#x11b;" horiz-adv-x="1171" 
d="M533 -24q-248 0 -382.5 132.5t-100.5 395.5q22 178 109.5 307.5t224.5 199t309 69.5q122 0 221.5 -37t157.5 -111.5t58 -189.5q0 -137 -89.5 -207t-257.5 -95t-403 -28q-1 -85 35.5 -136t145.5 -51q90 0 142 34t72 90h319q-57 -168 -198.5 -270.5t-362.5 -102.5zM405 624
q169 5 257 19t119.5 38t31.5 57q0 91 -156 91q-124 0 -178 -60t-74 -145zM646 1503l98 -164l156 164h258v-1l-307 -313h-264l-197 313v1h256z" />
    <glyph glyph-name="Gcircumflex" unicode="&#x11c;" horiz-adv-x="1512" 
d="M699 -24q-193 0 -332 76t-214 215t-75 329q0 185 59.5 351t170 293.5t263.5 200.5t341 73q174 0 313.5 -64.5t217.5 -183.5t68 -282h-366q-2 99 -61.5 157.5t-174.5 58.5q-120 0 -209 -53.5t-147.5 -142t-87.5 -194.5t-29 -210q0 -149 74 -229.5t217 -80.5
q144 0 244.5 73t126.5 184h-299l44 264h650l-35 -213q-31 -189 -136.5 -329t-266.5 -216.5t-356 -76.5zM817 1623h-256v1l299 313h265l204 -313v-1h-257l-104 164z" />
    <glyph glyph-name="gcircumflex" unicode="&#x11d;" horiz-adv-x="1249" 
d="M474 -432q-249 0 -360 99t-109 251h322q4 -49 42 -77.5t109 -28.5q103 0 169.5 59t82.5 165l23 151h-1q-58 -94 -134.5 -137t-178.5 -43q-185 0 -289 119.5t-104 310.5q0 121 38 236t108 206.5t167.5 145.5t217.5 54q109 0 184 -48t111 -131h1l25 156h342l-166 -1010
q-43 -258 -201 -368t-399 -110zM544 277q88 0 153.5 53t101 134t35.5 165q0 86 -44 134.5t-121 48.5q-89 0 -151 -55.5t-94 -138.5t-32 -168q0 -83 39 -128t113 -45zM584 1189h-256v1l299 313h265l204 -313v-1h-257l-104 164z" />
    <glyph glyph-name="Gbreve" unicode="&#x11e;" horiz-adv-x="1512" 
d="M699 -24q-193 0 -332 76t-214 215t-75 329q0 185 59.5 351t170 293.5t263.5 200.5t341 73q174 0 313.5 -64.5t217.5 -183.5t68 -282h-366q-2 99 -61.5 157.5t-174.5 58.5q-120 0 -209 -53.5t-147.5 -142t-87.5 -194.5t-29 -210q0 -149 74 -229.5t217 -80.5
q144 0 244.5 73t126.5 184h-299l44 264h650l-35 -213q-31 -189 -136.5 -329t-266.5 -216.5t-356 -76.5zM942 1610q-104 0 -180 42.5t-112 115.5t-21 163h198q-11 -65 29.5 -105.5t114.5 -40.5q73 0 126.5 40.5t64.5 105.5h200q-15 -90 -75.5 -163t-150 -115.5t-194.5 -42.5z
" />
    <glyph glyph-name="gbreve" unicode="&#x11f;" horiz-adv-x="1249" 
d="M474 -432q-249 0 -360 99t-109 251h322q4 -49 42 -77.5t109 -28.5q103 0 169.5 59t82.5 165l23 151h-1q-58 -94 -134.5 -137t-178.5 -43q-185 0 -289 119.5t-104 310.5q0 121 38 236t108 206.5t167.5 145.5t217.5 54q109 0 184 -48t111 -131h1l25 156h342l-166 -1010
q-43 -258 -201 -368t-399 -110zM544 277q88 0 153.5 53t101 134t35.5 165q0 86 -44 134.5t-121 48.5q-89 0 -151 -55.5t-94 -138.5t-32 -168q0 -83 39 -128t113 -45zM709 1176q-104 0 -180 42.5t-112 115.5t-21 163h198q-11 -65 29.5 -105.5t114.5 -40.5q73 0 126.5 40.5
t64.5 105.5h200q-15 -90 -75.5 -163t-150 -115.5t-194.5 -42.5z" />
    <glyph glyph-name="Gdotaccent" unicode="&#x120;" horiz-adv-x="1512" 
d="M699 -24q-193 0 -332 76t-214 215t-75 329q0 185 59.5 351t170 293.5t263.5 200.5t341 73q174 0 313.5 -64.5t217.5 -183.5t68 -282h-366q-2 99 -61.5 157.5t-174.5 58.5q-120 0 -209 -53.5t-147.5 -142t-87.5 -194.5t-29 -210q0 -149 74 -229.5t217 -80.5
q144 0 244.5 73t126.5 184h-299l44 264h650l-35 -213q-31 -189 -136.5 -329t-266.5 -216.5t-356 -76.5zM940 1606q-77 0 -121.5 51t-32.5 125q13 73 74.5 124.5t138.5 51.5t122 -51.5t33 -124.5q-13 -74 -75 -125t-139 -51z" />
    <glyph glyph-name="gdotaccent" unicode="&#x121;" horiz-adv-x="1249" 
d="M474 -432q-249 0 -360 99t-109 251h322q4 -49 42 -77.5t109 -28.5q103 0 169.5 59t82.5 165l23 151h-1q-58 -94 -134.5 -137t-178.5 -43q-185 0 -289 119.5t-104 310.5q0 121 38 236t108 206.5t167.5 145.5t217.5 54q109 0 184 -48t111 -131h1l25 156h342l-166 -1010
q-43 -258 -201 -368t-399 -110zM544 277q88 0 153.5 53t101 134t35.5 165q0 86 -44 134.5t-121 48.5q-89 0 -151 -55.5t-94 -138.5t-32 -168q0 -83 39 -128t113 -45zM707 1172q-77 0 -121.5 51t-32.5 125q13 73 74.5 124.5t138.5 51.5t122 -51.5t33 -124.5q-13 -74 -75 -125
t-139 -51z" />
    <glyph glyph-name="uni0122" unicode="&#x122;" horiz-adv-x="1512" 
d="M699 -24q-193 0 -332 76t-214 215t-75 329q0 185 59.5 351t170 293.5t263.5 200.5t341 73q174 0 313.5 -64.5t217.5 -183.5t68 -282h-366q-2 99 -61.5 157.5t-174.5 58.5q-120 0 -209 -53.5t-147.5 -142t-87.5 -194.5t-29 -210q0 -149 74 -229.5t217 -80.5
q144 0 244.5 73t126.5 184h-299l44 264h650l-35 -213q-31 -189 -136.5 -329t-266.5 -216.5t-356 -76.5zM348 -473l152 355h316l-229 -355h-239z" />
    <glyph glyph-name="uni0123" unicode="&#x123;" horiz-adv-x="1249" 
d="M474 -432q-249 0 -360 99t-109 251h322q4 -49 42 -77.5t109 -28.5q103 0 169.5 59t82.5 165l23 151h-1q-58 -94 -134.5 -137t-178.5 -43q-185 0 -289 119.5t-104 310.5q0 121 38 236t108 206.5t167.5 145.5t217.5 54q109 0 184 -48t111 -131h1l25 156h342l-166 -1010
q-43 -258 -201 -368t-399 -110zM544 277q88 0 153.5 53t101 134t35.5 165q0 86 -44 134.5t-121 48.5q-89 0 -151 -55.5t-94 -138.5t-32 -168q0 -83 39 -128t113 -45zM591 1174l23 142q22 127 76 208.5t122 123.5l156 -75q-31 -39 -70.5 -108.5t-54.5 -161.5l-21 -129h-231z
" />
    <glyph glyph-name="Hcircumflex" unicode="&#x124;" horiz-adv-x="1480" 
d="M9 0l247 1490h360l-97 -579h568l96 579h360l-247 -1490h-360l100 605h-567l-100 -605h-360zM794 1623h-256v1l299 313h265l204 -313v-1h-257l-104 164z" />
    <glyph glyph-name="hcircumflex" unicode="&#x125;" horiz-adv-x="1231" 
d="M449 574l-96 -574h-344l247 1490h344l-98 -593q64 85 148 133.5t199 48.5q173 0 257.5 -110t51.5 -305l-110 -664h-344l97 592q16 94 -20.5 143.5t-118.5 49.5q-81 0 -138.5 -51.5t-74.5 -159.5zM322 1623h-256v1l299 313h265l204 -313v-1h-257l-104 164z" />
    <glyph glyph-name="Hbar" unicode="&#x126;" horiz-adv-x="1631" 
d="M1707 1246l-30 -182h-136l-176 -1064h-360l100 605h-567l-100 -605h-360l177 1064h-124l30 182h124l40 244h360l-41 -244h568l40 244h360l-41 -244h136zM1181 1064h-567l-26 -153h568z" />
    <glyph glyph-name="hbar" unicode="&#x127;" horiz-adv-x="1231" 
d="M449 574l-96 -574h-344l247 1490h344l-98 -593q64 85 148 133.5t199 48.5q173 0 257.5 -110t51.5 -305l-110 -664h-344l97 592q16 94 -20.5 143.5t-118.5 49.5q-81 0 -138.5 -51.5t-74.5 -159.5zM62 1162l33 200h809l-33 -200h-809z" />
    <glyph glyph-name="Itilde" unicode="&#x128;" horiz-adv-x="553" 
d="M616 1490l-247 -1490h-360l247 1490h360zM604 1636q-69 0 -110.5 27.5t-70.5 55.5t-63 28q-33 0 -55.5 -28t-32.5 -76h-180q26 141 101 213.5t173 72.5q69 0 110.5 -27t71 -54t63.5 -27q38 0 58 26t31 76h178q-26 -139 -102.5 -213t-171.5 -74z" />
    <glyph glyph-name="itilde" unicode="&#x129;" horiz-adv-x="537" 
d="M9 0l175 1056h344l-175 -1056h-344zM524 1202q-69 0 -110.5 27.5t-70.5 55.5t-63 28q-33 0 -55.5 -28t-32.5 -76h-180q26 141 101 213.5t173 72.5q69 0 110.5 -27t71 -54t63.5 -27q38 0 58 26t31 76h178q-26 -139 -102.5 -213t-171.5 -74z" />
    <glyph glyph-name="Imacron" unicode="&#x12a;" horiz-adv-x="553" 
d="M616 1490l-247 -1490h-360l247 1490h360zM792 1865l-35 -210h-589l35 210h589z" />
    <glyph glyph-name="imacron" unicode="&#x12b;" horiz-adv-x="537" 
d="M9 0l175 1056h344l-175 -1056h-344zM712 1431l-35 -210h-589l35 210h589z" />
    <glyph glyph-name="Ibreve" unicode="&#x12c;" horiz-adv-x="553" 
d="M616 1490l-247 -1490h-360l247 1490h360zM455 1610q-104 0 -180 42.5t-112 115.5t-21 163h198q-11 -65 29.5 -105.5t114.5 -40.5q73 0 126.5 40.5t64.5 105.5h200q-15 -90 -75.5 -163t-150 -115.5t-194.5 -42.5z" />
    <glyph glyph-name="ibreve" unicode="&#x12d;" horiz-adv-x="537" 
d="M9 0l175 1056h344l-175 -1056h-344zM375 1176q-104 0 -180 42.5t-112 115.5t-21 163h198q-11 -65 29.5 -105.5t114.5 -40.5q73 0 126.5 40.5t64.5 105.5h200q-15 -90 -75.5 -163t-150 -115.5t-194.5 -42.5z" />
    <glyph glyph-name="Iogonek" unicode="&#x12e;" horiz-adv-x="553" 
d="M616 1490l-247 -1490h-360l247 1490h360zM133 -418q-146 0 -216 54.5t-53 154.5q11 69 58 127.5t128 115.5l319 -34q-86 -48 -121 -81t-41 -69q-11 -61 70 -61h57l-34 -207h-167z" />
    <glyph glyph-name="iogonek" unicode="&#x12f;" horiz-adv-x="537" 
d="M9 0l175 1056h344l-175 -1056h-344zM117 -418q-146 0 -216 54.5t-53 154.5q11 69 58 127.5t128 115.5l319 -34q-86 -48 -121 -81t-41 -69q-11 -61 70 -61h57l-34 -207h-167zM374 1172q-77 0 -121.5 51t-32.5 125q13 73 74.5 124.5t138.5 51.5t122 -51.5t33 -124.5
q-13 -74 -75 -125t-139 -51z" />
    <glyph glyph-name="Idotaccent" unicode="&#x130;" horiz-adv-x="553" 
d="M616 1490l-247 -1490h-360l247 1490h360zM454 1606q-77 0 -121.5 51t-32.5 125q13 73 74.5 124.5t138.5 51.5t122 -51.5t33 -124.5q-13 -74 -75 -125t-139 -51z" />
    <glyph glyph-name="dotlessi" unicode="&#x131;" horiz-adv-x="537" 
d="M9 0l175 1056h344l-175 -1056h-344z" />
    <glyph glyph-name="IJ" unicode="&#x132;" horiz-adv-x="1728" 
d="M616 1490l-247 -1490h-360l247 1490h360zM1037 -23q-212 0 -332 98.5t-120 283.5q0 24 5 63.5t23 148.5h335q-11 -64 -15.5 -95.5t-5.5 -44t-1 -19.5q0 -135 138 -135q79 0 131.5 47t66.5 135l171 1031h360l-173 -1037q-38 -229 -187 -352.5t-396 -123.5z" />
    <glyph glyph-name="ij" unicode="&#x133;" horiz-adv-x="1075" 
d="M9 0l175 1056h344l-175 -1056h-344zM374 1172q-77 0 -121.5 51t-32.5 125q13 73 74.5 124.5t138.5 51.5t122 -51.5t33 -124.5q-13 -74 -75 -125t-139 -51zM722 1056h345l-186 -1120q-28 -173 -140 -263.5t-304 -90.5h-135l44 267h70q56 0 85.5 28.5t40.5 93.5zM912 1172
q-77 0 -121.5 51t-32.5 125q13 73 74.5 124.5t138.5 51.5t122 -51.5t33 -124.5q-13 -74 -75 -125t-139 -51z" />
    <glyph glyph-name="Jcircumflex" unicode="&#x134;" horiz-adv-x="1175" 
d="M484 -23q-212 0 -332 98.5t-120 283.5q0 24 5 63.5t23 148.5h335q-11 -64 -15.5 -95.5t-5.5 -44t-1 -19.5q0 -135 138 -135q79 0 131.5 47t66.5 135l171 1031h360l-173 -1037q-38 -229 -187 -352.5t-396 -123.5zM954 1623h-256v1l299 313h265l204 -313v-1h-257l-104 164z
" />
    <glyph glyph-name="jcircumflex" unicode="&#x135;" horiz-adv-x="538" 
d="M185 1056h345l-186 -1120q-28 -173 -140 -263.5t-304 -90.5h-135l44 267h70q56 0 85.5 28.5t40.5 93.5zM252 1189h-256v1l299 313h265l204 -313v-1h-257l-104 164z" />
    <glyph glyph-name="uni0136" unicode="&#x136;" horiz-adv-x="1447" 
d="M9 0l247 1490h360l-61 -368l-47 -280q58 60 116.5 120t117.5 120l401 408h436l-646 -642l420 -848h-391l-289 619l-242 -240l-62 -379h-360zM305 -473l152 355h316l-229 -355h-239z" />
    <glyph glyph-name="uni0137" unicode="&#x137;" horiz-adv-x="1163" 
d="M9 0l247 1490h344l-134 -809h4l383 375h397l-470 -461l312 -595h-397l-203 399l-87 -85l-52 -314h-344zM184 -473l152 355h316l-229 -355h-239z" />
    <glyph glyph-name="kgreenlandic" unicode="&#x138;" horiz-adv-x="1199" 
d="M530 1056l-66 -400h95l344 400h400l-469 -521l292 -535h-417l-187 388h-103l-64 -388h-346l175 1056h346z" />
    <glyph glyph-name="Lacute" unicode="&#x139;" horiz-adv-x="1158" 
d="M9 0l247 1490h360l-197 -1184h660l-50 -306h-1020zM322 1629l239 314h326l-330 -314h-235z" />
    <glyph glyph-name="lacute" unicode="&#x13a;" horiz-adv-x="537" 
d="M600 1490l-247 -1490h-344l247 1490h344zM314 1629l239 314h326l-330 -314h-235z" />
    <glyph glyph-name="uni013B" unicode="&#x13b;" horiz-adv-x="1158" 
d="M9 0l247 1490h360l-197 -1184h660l-50 -306h-1020zM175 -473l152 355h316l-229 -355h-239z" />
    <glyph glyph-name="uni013C" unicode="&#x13c;" horiz-adv-x="537" 
d="M600 1490l-247 -1490h-344l247 1490h344zM-145 -473l152 355h316l-229 -355h-239z" />
    <glyph glyph-name="Lcaron" unicode="&#x13d;" horiz-adv-x="1158" 
d="M9 0l247 1490h360l-197 -1184h660l-50 -306h-1020zM775 1182l64 386h247l-117 -386h-194z" />
    <glyph glyph-name="lcaron" unicode="&#x13e;" horiz-adv-x="768" 
d="M600 1490l-247 -1490h-344l247 1490h344zM673 1182l64 386h247l-117 -386h-194z" />
    <glyph glyph-name="Ldot" unicode="&#x13f;" horiz-adv-x="1156" 
d="M15 0l247 1490h360l-197 -1184h660l-50 -306h-1020zM780 671q-77 0 -121.5 51t-32.5 125q13 73 74.5 124.5t138.5 51.5t122 -51.5t33 -124.5q-13 -74 -75 -125t-139 -51z" />
    <glyph glyph-name="ldot" unicode="&#x140;" horiz-adv-x="931" 
d="M600 1490l-247 -1490h-344l247 1490h344zM727 556q-84 0 -134.5 62.5t-36.5 148.5q11 70 68.5 118t129.5 48q84 0 134.5 -62t36.5 -149q-12 -70 -69 -118t-129 -48z" />
    <glyph glyph-name="Lslash" unicode="&#x141;" horiz-adv-x="1158" 
d="M9 0l247 1490h360l-197 -1184h660l-50 -306h-1020zM32 331l49 293l972 512l-48 -292z" />
    <glyph glyph-name="lslash" unicode="&#x142;" horiz-adv-x="537" 
d="M600 1490l-247 -1490h-344l247 1490h344zM-53 451l42 256l678 357l-43 -256z" />
    <glyph glyph-name="Nacute" unicode="&#x143;" horiz-adv-x="1499" 
d="M9 0l247 1490h369l313 -677q19 -43 49.5 -120t61.5 -158q12 89 25 174t21 135l107 646h360l-247 -1490h-369l-286 620q-25 52 -61.5 140t-77.5 195q-14 -110 -28 -198.5t-22 -135.5l-102 -621h-360zM796 1629l239 314h326l-330 -314h-235z" />
    <glyph glyph-name="nacute" unicode="&#x144;" horiz-adv-x="1231" 
d="M446 563l-93 -563h-344l174 1056h340l-26 -155q66 85 151 131.5t197 46.5q179 0 261.5 -115.5t49.5 -311.5l-108 -652h-344l99 604q15 93 -22.5 137t-113.5 44q-88 0 -145.5 -57.5t-75.5 -164.5zM587 1195l239 314h326l-330 -314h-235z" />
    <glyph glyph-name="uni0145" unicode="&#x145;" horiz-adv-x="1499" 
d="M9 0l247 1490h369l313 -677q19 -43 49.5 -120t61.5 -158q12 89 25 174t21 135l107 646h360l-247 -1490h-369l-286 620q-25 52 -61.5 140t-77.5 195q-14 -110 -28 -198.5t-22 -135.5l-102 -621h-360zM338 -473l152 355h316l-229 -355h-239z" />
    <glyph glyph-name="uni0146" unicode="&#x146;" horiz-adv-x="1231" 
d="M446 563l-93 -563h-344l174 1056h340l-26 -155q66 85 151 131.5t197 46.5q179 0 261.5 -115.5t49.5 -311.5l-108 -652h-344l99 604q15 93 -22.5 137t-113.5 44q-88 0 -145.5 -57.5t-75.5 -164.5zM203 -473l152 355h316l-229 -355h-239z" />
    <glyph glyph-name="Ncaron" unicode="&#x147;" horiz-adv-x="1499" 
d="M9 0l247 1490h369l313 -677q19 -43 49.5 -120t61.5 -158q12 89 25 174t21 135l107 646h360l-247 -1490h-369l-286 620q-25 52 -61.5 140t-77.5 195q-14 -110 -28 -198.5t-22 -135.5l-102 -621h-360zM856 1937l98 -164l156 164h258v-1l-307 -313h-264l-197 313v1h256z" />
    <glyph glyph-name="ncaron" unicode="&#x148;" horiz-adv-x="1231" 
d="M446 563l-93 -563h-344l174 1056h340l-26 -155q66 85 151 131.5t197 46.5q179 0 261.5 -115.5t49.5 -311.5l-108 -652h-344l99 604q15 93 -22.5 137t-113.5 44q-88 0 -145.5 -57.5t-75.5 -164.5zM648 1503l98 -164l156 164h258v-1l-307 -313h-264l-197 313v1h256z" />
    <glyph glyph-name="Eng" unicode="&#x14a;" horiz-adv-x="1499" 
d="M668 -418l46 281h128q90 0 105 86l8 51h-9l-286 620q-25 52 -61.5 140t-77.5 195q-14 -110 -28 -198.5t-22 -135.5l-102 -621h-360l247 1490h369l313 -677q19 -43 49.5 -120t61.5 -158q12 89 25 174t21 135l107 646h360l-228 -1374v0l-31 -186q-57 -348 -445 -348h-190z
" />
    <glyph glyph-name="eng" unicode="&#x14b;" horiz-adv-x="1231" 
d="M444 -418l46 276h99q92 0 106 91l9 51l99 604q15 93 -22.5 137t-113.5 44q-88 0 -145.5 -57.5t-75.5 -164.5l-93 -563h-344l174 1056h340l-26 -155q66 85 151 131.5t197 46.5q179 0 261.5 -115.5t49.5 -311.5l-108 -652l-11 -70q-29 -174 -134 -261t-299 -87h-160z" />
    <glyph glyph-name="Omacron" unicode="&#x14c;" horiz-adv-x="1531" 
d="M692 -24q-181 0 -319.5 73.5t-216.5 212t-78 334.5q0 182 58.5 347.5t168 294t263 202.5t343.5 74q181 0 319 -73t216.5 -212t78.5 -335q0 -186 -60 -352t-170 -293t-263 -200t-340 -73zM708 290q113 0 199 54t143.5 142.5t87 194.5t29.5 211q0 149 -72 228.5t-200 79.5
q-112 0 -197.5 -53.5t-143.5 -141.5t-88 -194.5t-30 -211.5q0 -150 71.5 -229.5t200.5 -79.5zM1281 1865l-35 -210h-589l35 210h589z" />
    <glyph glyph-name="omacron" unicode="&#x14d;" horiz-adv-x="1215" 
d="M534 -24q-225 0 -356.5 124t-131.5 334q0 182 81 328.5t224.5 232t329.5 85.5q226 0 357 -124.5t131 -334.5q0 -130 -44 -246.5t-127 -206t-200.5 -141t-263.5 -51.5zM556 250q88 0 148 57t90.5 143.5t30.5 172.5q0 90 -48 136.5t-118 46.5q-87 0 -147 -57t-91 -143
t-31 -174q0 -90 48 -136t118 -46zM1051 1431l-35 -210h-589l35 210h589z" />
    <glyph glyph-name="Obreve" unicode="&#x14e;" horiz-adv-x="1531" 
d="M692 -24q-181 0 -319.5 73.5t-216.5 212t-78 334.5q0 182 58.5 347.5t168 294t263 202.5t343.5 74q181 0 319 -73t216.5 -212t78.5 -335q0 -186 -60 -352t-170 -293t-263 -200t-340 -73zM708 290q113 0 199 54t143.5 142.5t87 194.5t29.5 211q0 149 -72 228.5t-200 79.5
q-112 0 -197.5 -53.5t-143.5 -141.5t-88 -194.5t-30 -211.5q0 -150 71.5 -229.5t200.5 -79.5zM944 1610q-104 0 -180 42.5t-112 115.5t-21 163h198q-11 -65 29.5 -105.5t114.5 -40.5q73 0 126.5 40.5t64.5 105.5h200q-15 -90 -75.5 -163t-150 -115.5t-194.5 -42.5z" />
    <glyph glyph-name="obreve" unicode="&#x14f;" horiz-adv-x="1215" 
d="M534 -24q-225 0 -356.5 124t-131.5 334q0 182 81 328.5t224.5 232t329.5 85.5q226 0 357 -124.5t131 -334.5q0 -130 -44 -246.5t-127 -206t-200.5 -141t-263.5 -51.5zM556 250q88 0 148 57t90.5 143.5t30.5 172.5q0 90 -48 136.5t-118 46.5q-87 0 -147 -57t-91 -143
t-31 -174q0 -90 48 -136t118 -46zM714 1176q-104 0 -180 42.5t-112 115.5t-21 163h198q-11 -65 29.5 -105.5t114.5 -40.5q73 0 126.5 40.5t64.5 105.5h200q-15 -90 -75.5 -163t-150 -115.5t-194.5 -42.5z" />
    <glyph glyph-name="Ohungarumlaut" unicode="&#x150;" horiz-adv-x="1531" 
d="M692 -24q-181 0 -319.5 73.5t-216.5 212t-78 334.5q0 182 58.5 347.5t168 294t263 202.5t343.5 74q181 0 319 -73t216.5 -212t78.5 -335q0 -186 -60 -352t-170 -293t-263 -200t-340 -73zM708 290q113 0 199 54t143.5 142.5t87 194.5t29.5 211q0 149 -72 228.5t-200 79.5
q-112 0 -197.5 -53.5t-143.5 -141.5t-88 -194.5t-30 -211.5q0 -150 71.5 -229.5t200.5 -79.5zM1220 1618h-241l258 319h320zM851 1618h-234l192 319h294z" />
    <glyph glyph-name="ohungarumlaut" unicode="&#x151;" horiz-adv-x="1215" 
d="M534 -24q-225 0 -356.5 124t-131.5 334q0 182 81 328.5t224.5 232t329.5 85.5q226 0 357 -124.5t131 -334.5q0 -130 -44 -246.5t-127 -206t-200.5 -141t-263.5 -51.5zM556 250q88 0 148 57t90.5 143.5t30.5 172.5q0 90 -48 136.5t-118 46.5q-87 0 -147 -57t-91 -143
t-31 -174q0 -90 48 -136t118 -46zM990 1184h-241l258 319h320zM621 1184h-234l192 319h294z" />
    <glyph glyph-name="OE" unicode="&#x152;" horiz-adv-x="2133" 
d="M708 0q-229 0 -381 91.5t-214.5 258.5t-24.5 395t157 395t301 258.5t408 91.5h1281l-51 -306h-750l-48 -287h693l-49 -297h-693l-49 -294h751l-51 -306h-1280zM928 300l148 890h-149q-206 0 -323.5 -112.5t-154.5 -332.5q-36 -220 43 -332.5t284 -112.5h152z" />
    <glyph glyph-name="oe" unicode="&#x153;" horiz-adv-x="1958" 
d="M534 -24q-225 0 -356.5 124t-131.5 334q0 182 81 328.5t224.5 232t329.5 85.5q226 0 357 -124.5t131 -334.5q0 -130 -44 -246.5t-127 -206t-200.5 -141t-263.5 -51.5zM556 250q88 0 148 57t90.5 143.5t30.5 172.5q0 90 -48 136.5t-118 46.5q-87 0 -147 -57t-91 -143
t-31 -174q0 -90 48 -136t118 -46zM1320 -24q-248 0 -382.5 132.5t-100.5 395.5q22 178 109.5 307.5t224.5 199t309 69.5q122 0 221.5 -37t157.5 -111.5t58 -189.5q0 -137 -89.5 -207t-257.5 -95t-403 -28q-1 -85 35.5 -136t145.5 -51q90 0 142 34t72 90h319
q-57 -168 -198.5 -270.5t-362.5 -102.5zM1192 624q169 5 257 19t119.5 38t31.5 57q0 91 -156 91q-124 0 -178 -60t-74 -145z" />
    <glyph glyph-name="Racute" unicode="&#x154;" horiz-adv-x="1347" 
d="M9 0l247 1490h612q172 0 288.5 -61.5t167 -174.5t24.5 -268q-24 -143 -107 -250.5t-211 -168.5l192 -567h-367l-162 495h-8h-234l-82 -495h-360zM498 778h229q108 0 181 58t89 152q16 95 -38 151t-163 56h-229zM708 1629l239 314h326l-330 -314h-235z" />
    <glyph glyph-name="racute" unicode="&#x155;" horiz-adv-x="807" 
d="M9 0l175 1056h333l-31 -186h3q45 101 114 145.5t176 44.5q27 0 49.5 -0.5t43.5 -1.5l-47 -284q-18 1 -58 2t-78 1q-92 0 -160 -62t-86 -174l-90 -541h-344zM416 1195l239 314h326l-330 -314h-235z" />
    <glyph glyph-name="uni0156" unicode="&#x156;" horiz-adv-x="1347" 
d="M9 0l247 1490h612q172 0 288.5 -61.5t167 -174.5t24.5 -268q-24 -143 -107 -250.5t-211 -168.5l192 -567h-367l-162 495h-8h-234l-82 -495h-360zM498 778h229q108 0 181 58t89 152q16 95 -38 151t-163 56h-229zM267 -473l152 355h316l-229 -355h-239z" />
    <glyph glyph-name="uni0157" unicode="&#x157;" horiz-adv-x="807" 
d="M9 0l175 1056h333l-31 -186h3q45 101 114 145.5t176 44.5q27 0 49.5 -0.5t43.5 -1.5l-47 -284q-18 1 -58 2t-78 1q-92 0 -160 -62t-86 -174l-90 -541h-344zM-144 -473l152 355h316l-229 -355h-239z" />
    <glyph glyph-name="Rcaron" unicode="&#x158;" horiz-adv-x="1347" 
d="M9 0l247 1490h612q172 0 288.5 -61.5t167 -174.5t24.5 -268q-24 -143 -107 -250.5t-211 -168.5l192 -567h-367l-162 495h-8h-234l-82 -495h-360zM498 778h229q108 0 181 58t89 152q16 95 -38 151t-163 56h-229zM769 1937l98 -164l156 164h258v-1l-307 -313h-264l-197 313
v1h256z" />
    <glyph glyph-name="rcaron" unicode="&#x159;" horiz-adv-x="807" 
d="M9 0l175 1056h333l-31 -186h3q45 101 114 145.5t176 44.5q27 0 49.5 -0.5t43.5 -1.5l-47 -284q-18 1 -58 2t-78 1q-92 0 -160 -62t-86 -174l-90 -541h-344zM476 1503l98 -164l156 164h258v-1l-307 -313h-264l-197 313v1h256z" />
    <glyph glyph-name="Sacute" unicode="&#x15a;" horiz-adv-x="1368" 
d="M615 -24q-304 0 -448.5 137t-104.5 379h342q-14 -107 50 -167t192 -60q115 0 193 45.5t90 119.5q11 62 -39 102.5t-180 67.5l-148 32q-211 44 -307.5 157t-68.5 283q22 133 109.5 232.5t224.5 154.5t307 55q270 0 412 -129.5t110 -358.5h-332q7 95 -48.5 147t-163.5 52
q-103 0 -175.5 -45t-84.5 -115q-10 -61 36 -98t169 -62l128 -27q239 -49 337.5 -157.5t68.5 -290.5q-35 -216 -211 -335t-458 -119zM727 1629l239 314h326l-330 -314h-235z" />
    <glyph glyph-name="sacute" unicode="&#x15b;" horiz-adv-x="1103" 
d="M485 -26q-139 0 -245 41.5t-166 119t-60 186.5v17h338q-5 -127 146 -127q72 0 123 30t51 77q0 53 -101 72l-186 34q-285 53 -285 275q0 113 67 198t184.5 133t267.5 48q205 0 325.5 -83.5t120.5 -227.5q0 -28 -4 -54h-316q6 61 -30.5 95t-104.5 34q-70 0 -116 -31.5
t-46 -76.5q0 -55 88 -71l206 -39q146 -27 215.5 -89.5t69.5 -166.5q0 -114 -71 -203t-193.5 -140t-277.5 -51zM527 1195l239 314h326l-330 -314h-235z" />
    <glyph glyph-name="Scircumflex" unicode="&#x15c;" horiz-adv-x="1368" 
d="M615 -24q-304 0 -448.5 137t-104.5 379h342q-14 -107 50 -167t192 -60q115 0 193 45.5t90 119.5q11 62 -39 102.5t-180 67.5l-148 32q-211 44 -307.5 157t-68.5 283q22 133 109.5 232.5t224.5 154.5t307 55q270 0 412 -129.5t110 -358.5h-332q7 95 -48.5 147t-163.5 52
q-103 0 -175.5 -45t-84.5 -115q-10 -61 36 -98t169 -62l128 -27q239 -49 337.5 -157.5t68.5 -290.5q-35 -216 -211 -335t-458 -119zM736 1623h-256v1l299 313h265l204 -313v-1h-257l-104 164z" />
    <glyph glyph-name="scircumflex" unicode="&#x15d;" horiz-adv-x="1103" 
d="M485 -26q-139 0 -245 41.5t-166 119t-60 186.5v17h338q-5 -127 146 -127q72 0 123 30t51 77q0 53 -101 72l-186 34q-285 53 -285 275q0 113 67 198t184.5 133t267.5 48q205 0 325.5 -83.5t120.5 -227.5q0 -28 -4 -54h-316q6 61 -30.5 95t-104.5 34q-70 0 -116 -31.5
t-46 -76.5q0 -55 88 -71l206 -39q146 -27 215.5 -89.5t69.5 -166.5q0 -114 -71 -203t-193.5 -140t-277.5 -51zM536 1189h-256v1l299 313h265l204 -313v-1h-257l-104 164z" />
    <glyph glyph-name="Scedilla" unicode="&#x15e;" horiz-adv-x="1368" 
d="M615 -24q-304 0 -448.5 137t-104.5 379h342q-14 -107 50 -167t192 -60q115 0 193 45.5t90 119.5q11 62 -39 102.5t-180 67.5l-148 32q-211 44 -307.5 157t-68.5 283q22 133 109.5 232.5t224.5 154.5t307 55q270 0 412 -129.5t110 -358.5h-332q7 95 -48.5 147t-163.5 52
q-103 0 -175.5 -45t-84.5 -115q-10 -61 36 -98t169 -62l128 -27q239 -49 337.5 -157.5t68.5 -290.5q-35 -216 -211 -335t-458 -119zM393 -418l22 131h118q85 0 95 56q9 57 -76 57h-83l75 216h127l-7 -42l-13 -77q91 -1 132 -48t29 -118q-14 -86 -85 -130.5t-185 -44.5h-149z
" />
    <glyph glyph-name="scedilla" unicode="&#x15f;" horiz-adv-x="1103" 
d="M485 -26q-139 0 -245 41.5t-166 119t-60 186.5v17h338q-5 -127 146 -127q72 0 123 30t51 77q0 53 -101 72l-186 34q-285 53 -285 275q0 113 67 198t184.5 133t267.5 48q205 0 325.5 -83.5t120.5 -227.5q0 -28 -4 -54h-316q6 61 -30.5 95t-104.5 34q-70 0 -116 -31.5
t-46 -76.5q0 -55 88 -71l206 -39q146 -27 215.5 -89.5t69.5 -166.5q0 -114 -71 -203t-193.5 -140t-277.5 -51zM262 -418l22 131h118q85 0 95 56q9 57 -76 57h-83l75 216h127l-7 -42l-13 -77q91 -1 132 -48t29 -118q-14 -86 -85 -130.5t-185 -44.5h-149z" />
    <glyph glyph-name="Scaron" unicode="&#x160;" horiz-adv-x="1368" 
d="M615 -24q-304 0 -448.5 137t-104.5 379h342q-14 -107 50 -167t192 -60q115 0 193 45.5t90 119.5q11 62 -39 102.5t-180 67.5l-148 32q-211 44 -307.5 157t-68.5 283q22 133 109.5 232.5t224.5 154.5t307 55q270 0 412 -129.5t110 -358.5h-332q7 95 -48.5 147t-163.5 52
q-103 0 -175.5 -45t-84.5 -115q-10 -61 36 -98t169 -62l128 -27q239 -49 337.5 -157.5t68.5 -290.5q-35 -216 -211 -335t-458 -119zM788 1937l98 -164l156 164h258v-1l-307 -313h-264l-197 313v1h256z" />
    <glyph glyph-name="scaron" unicode="&#x161;" horiz-adv-x="1103" 
d="M485 -26q-139 0 -245 41.5t-166 119t-60 186.5v17h338q-5 -127 146 -127q72 0 123 30t51 77q0 53 -101 72l-186 34q-285 53 -285 275q0 113 67 198t184.5 133t267.5 48q205 0 325.5 -83.5t120.5 -227.5q0 -28 -4 -54h-316q6 61 -30.5 95t-104.5 34q-70 0 -116 -31.5
t-46 -76.5q0 -55 88 -71l206 -39q146 -27 215.5 -89.5t69.5 -166.5q0 -114 -71 -203t-193.5 -140t-277.5 -51zM588 1503l98 -164l156 164h258v-1l-307 -313h-264l-197 313v1h256z" />
    <glyph glyph-name="uni021A" unicode="&#x162;" horiz-adv-x="1322" 
d="M151 1184l51 306h1237l-51 -306h-439l-195 -1184h-360l196 1184h-439zM364 -418l22 131h118q85 0 95 56q9 57 -76 57h-83l75 216h127l-7 -42l-13 -77q91 -1 132 -48t29 -118q-14 -86 -85 -130.5t-185 -44.5h-149z" />
    <glyph glyph-name="uni0163" unicode="&#x163;" horiz-adv-x="804" 
d="M849 1056l-45 -266h-216l-72 -435q-8 -51 9 -70t74 -19h120l-44 -266h-195q-190 0 -266.5 71.5t-51.5 225.5l81 493h-181l45 266h180l48 288h345l-48 -288h217zM216 -418l22 131h118q85 0 95 56q9 57 -76 57h-83l75 216h127l-7 -42l-13 -77q91 -1 132 -48t29 -118
q-14 -86 -85 -130.5t-185 -44.5h-149z" />
    <glyph glyph-name="Tcaron" unicode="&#x164;" horiz-adv-x="1322" 
d="M151 1184l51 306h1237l-51 -306h-439l-195 -1184h-360l196 1184h-439zM768 1937l98 -164l156 164h258v-1l-307 -313h-264l-197 313v1h256z" />
    <glyph glyph-name="tcaron" unicode="&#x165;" horiz-adv-x="852" 
d="M849 1056l-45 -266h-216l-72 -435q-8 -51 9 -70t74 -19h120l-44 -266h-195q-190 0 -266.5 71.5t-51.5 225.5l81 493h-181l45 266h180l48 288h345l-48 -288h217zM784 1182l64 386h247l-117 -386h-194z" />
    <glyph glyph-name="Tbar" unicode="&#x166;" horiz-adv-x="1322" 
d="M151 1184l51 306h1237l-51 -306h-439l-195 -1184h-360l196 1184h-439zM207 574l39 232h924l-40 -232h-923z" />
    <glyph glyph-name="tbar" unicode="&#x167;" horiz-adv-x="805" 
d="M787 686l-32 -199h-216l-22 -132q-8 -51 9 -70t74 -19h120l-44 -266h-195q-190 0 -266.5 71.5t-51.5 225.5l31 190h-181l32 199h182l17 104h-181l45 266h180l48 288h345l-48 -288h217l-45 -266h-216l-17 -104h215z" />
    <glyph glyph-name="Utilde" unicode="&#x168;" horiz-adv-x="1443" 
d="M648 -24q-195 0 -328 71t-192.5 197.5t-32.5 291.5l158 954h351l-157 -948q-19 -118 40 -189t176 -71q87 0 160 38t120.5 102t60.5 143l153 925h351l-162 -977q-27 -164 -122 -285t-242.5 -186.5t-333.5 -65.5zM1048 1636q-69 0 -110.5 27.5t-70.5 55.5t-63 28
q-33 0 -55.5 -28t-32.5 -76h-180q26 141 101 213.5t173 72.5q69 0 110.5 -27t71 -54t63.5 -27q38 0 58 26t31 76h178q-26 -139 -102.5 -213t-171.5 -74z" />
    <glyph glyph-name="utilde" unicode="&#x169;" horiz-adv-x="1231" 
d="M368 -23q-173 0 -250 110t-45 305l110 664h345l-99 -592q-15 -94 21.5 -143.5t118.5 -49.5t139 51.5t75 159.5l95 574h345l-175 -1056h-340l28 171q-68 -91 -158.5 -142.5t-209.5 -51.5zM870 1202q-69 0 -110.5 27.5t-70.5 55.5t-63 28q-33 0 -55.5 -28t-32.5 -76h-180
q26 141 101 213.5t173 72.5q69 0 110.5 -27t71 -54t63.5 -27q38 0 58 26t31 76h178q-26 -139 -102.5 -213t-171.5 -74z" />
    <glyph glyph-name="Umacron" unicode="&#x16a;" horiz-adv-x="1443" 
d="M648 -24q-195 0 -328 71t-192.5 197.5t-32.5 291.5l158 954h351l-157 -948q-19 -118 40 -189t176 -71q87 0 160 38t120.5 102t60.5 143l153 925h351l-162 -977q-27 -164 -122 -285t-242.5 -186.5t-333.5 -65.5zM1237 1865l-35 -210h-589l35 210h589z" />
    <glyph glyph-name="umacron" unicode="&#x16b;" horiz-adv-x="1231" 
d="M368 -23q-173 0 -250 110t-45 305l110 664h345l-99 -592q-15 -94 21.5 -143.5t118.5 -49.5t139 51.5t75 159.5l95 574h345l-175 -1056h-340l28 171q-68 -91 -158.5 -142.5t-209.5 -51.5zM1059 1431l-35 -210h-589l35 210h589z" />
    <glyph glyph-name="Ubreve" unicode="&#x16c;" horiz-adv-x="1443" 
d="M648 -24q-195 0 -328 71t-192.5 197.5t-32.5 291.5l158 954h351l-157 -948q-19 -118 40 -189t176 -71q87 0 160 38t120.5 102t60.5 143l153 925h351l-162 -977q-27 -164 -122 -285t-242.5 -186.5t-333.5 -65.5zM900 1610q-104 0 -180 42.5t-112 115.5t-21 163h198
q-11 -65 29.5 -105.5t114.5 -40.5q73 0 126.5 40.5t64.5 105.5h200q-15 -90 -75.5 -163t-150 -115.5t-194.5 -42.5z" />
    <glyph glyph-name="ubreve" unicode="&#x16d;" horiz-adv-x="1231" 
d="M368 -23q-173 0 -250 110t-45 305l110 664h345l-99 -592q-15 -94 21.5 -143.5t118.5 -49.5t139 51.5t75 159.5l95 574h345l-175 -1056h-340l28 171q-68 -91 -158.5 -142.5t-209.5 -51.5zM722 1176q-104 0 -180 42.5t-112 115.5t-21 163h198q-11 -65 29.5 -105.5
t114.5 -40.5q73 0 126.5 40.5t64.5 105.5h200q-15 -90 -75.5 -163t-150 -115.5t-194.5 -42.5z" />
    <glyph glyph-name="Uring" unicode="&#x16e;" horiz-adv-x="1443" 
d="M648 -24q-195 0 -328 71t-192.5 197.5t-32.5 291.5l158 954h351l-157 -948q-19 -118 40 -189t176 -71q87 0 160 38t120.5 102t60.5 143l153 925h351l-162 -977q-27 -164 -122 -285t-242.5 -186.5t-333.5 -65.5zM913 1573q-120 0 -185.5 74t-46.5 187q15 94 92.5 155.5
t181.5 61.5q120 0 185.5 -74t46.5 -187q-15 -94 -93 -155.5t-181 -61.5zM918 1714q42 0 74.5 27.5t40.5 70.5q7 43 -16.5 70.5t-66.5 27.5q-42 0 -74.5 -27.5t-39.5 -70.5q-8 -43 15.5 -70.5t66.5 -27.5z" />
    <glyph glyph-name="uring" unicode="&#x16f;" horiz-adv-x="1231" 
d="M368 -23q-173 0 -250 110t-45 305l110 664h345l-99 -592q-15 -94 21.5 -143.5t118.5 -49.5t139 51.5t75 159.5l95 574h345l-175 -1056h-340l28 171q-68 -91 -158.5 -142.5t-209.5 -51.5zM716 1139q-112 0 -173.5 67.5t-44.5 171.5q18 104 102 171.5t195 67.5
q112 0 173.5 -67.5t44.5 -171.5t-101 -171.5t-196 -67.5zM738 1280q44 0 76.5 27.5t39.5 70.5t-15.5 70.5t-64.5 27.5q-44 0 -77 -27.5t-40 -70.5t15.5 -70.5t65.5 -27.5z" />
    <glyph glyph-name="Uhungarumlaut" unicode="&#x170;" horiz-adv-x="1443" 
d="M648 -24q-195 0 -328 71t-192.5 197.5t-32.5 291.5l158 954h351l-157 -948q-19 -118 40 -189t176 -71q87 0 160 38t120.5 102t60.5 143l153 925h351l-162 -977q-27 -164 -122 -285t-242.5 -186.5t-333.5 -65.5zM1176 1618h-241l258 319h320zM807 1618h-234l192 319h294z
" />
    <glyph glyph-name="uhungarumlaut" unicode="&#x171;" horiz-adv-x="1231" 
d="M368 -23q-173 0 -250 110t-45 305l110 664h345l-99 -592q-15 -94 21.5 -143.5t118.5 -49.5t139 51.5t75 159.5l95 574h345l-175 -1056h-340l28 171q-68 -91 -158.5 -142.5t-209.5 -51.5zM998 1184h-241l258 319h320zM629 1184h-234l192 319h294z" />
    <glyph glyph-name="Uogonek" unicode="&#x172;" horiz-adv-x="1443" 
d="M648 -24q-195 0 -328 71t-192.5 197.5t-32.5 291.5l158 954h351l-157 -948q-19 -118 40 -189t176 -71q87 0 160 38t120.5 102t60.5 143l153 925h351l-162 -977q-27 -164 -122 -285t-242.5 -186.5t-333.5 -65.5zM648 -418q-146 0 -217 54.5t-54 154.5q14 87 78 141
t157 92.5t196 76t198 88.5t163 131t88 204l89 -11q-23 -130 -75.5 -218.5t-120.5 -146t-139.5 -95t-134.5 -67t-105 -60.5t-49 -76q-11 -61 69 -61h58l-34 -207h-167z" />
    <glyph glyph-name="uogonek" unicode="&#x173;" horiz-adv-x="1231" 
d="M368 -23q-173 0 -250 110t-45 305l110 664h345l-99 -592q-15 -94 21.5 -143.5t118.5 -49.5t139 51.5t75 159.5l95 574h345l-175 -1056h-340l28 171q-68 -91 -158.5 -142.5t-209.5 -51.5zM811 -418q-146 0 -216 54.5t-53 154.5q11 69 58 127.5t128 115.5l319 -34
q-86 -48 -121 -81t-41 -69q-11 -61 70 -61h57l-34 -207h-167z" />
    <glyph glyph-name="Wcircumflex" unicode="&#x174;" horiz-adv-x="2081" 
d="M314 0l-150 1490h385l38 -662q5 -99 8 -197.5t5 -196.5q36 98 73 196.5t77 197.5l269 662h357l49 -662q7 -98 11.5 -195.5t7.5 -195.5q35 98 70 195.5t73 195.5l258 662h390l-645 -1490h-398l-66 753q-4 47 -7 102.5t-5 120.5q-25 -65 -45.5 -120.5t-40.5 -102.5
l-315 -753h-399zM1094 1623h-256v1l299 313h265l204 -313v-1h-257l-104 164z" />
    <glyph glyph-name="wcircumflex" unicode="&#x175;" horiz-adv-x="1732" 
d="M241 0l-150 1056h360l27 -330q7 -92 11.5 -190.5t8.5 -196.5q40 98 79.5 196.5t78.5 190.5l142 330h305l32 -330q9 -92 16 -190.5t14 -195.5q36 97 72 195t73 191l134 330h370l-500 -1056h-355l-51 395q-8 58 -13.5 119.5t-10.5 124.5q-26 -63 -52.5 -124.5t-53.5 -119.5
l-182 -395h-355zM847 1189h-256v1l299 313h265l204 -313v-1h-257l-104 164z" />
    <glyph glyph-name="Ycircumflex" unicode="&#x176;" horiz-adv-x="1453" 
d="M470 0l88 533l-394 957h396l162 -433q16 -41 30 -81.5t27 -80.5q26 40 52.5 80.5t54.5 81.5l297 433h424l-700 -957l-88 -533h-349zM780 1623h-256v1l299 313h265l204 -313v-1h-257l-104 164z" />
    <glyph glyph-name="ycircumflex" unicode="&#x177;" horiz-adv-x="1170" 
d="M-28 -418l44 267h146q54 0 79.5 24t55.5 81l25 48l-231 1054h346l76 -486q8 -55 15 -109.5t13 -109.5q51 113 102 219l239 486h370l-655 -1205q-77 -142 -169.5 -205.5t-224.5 -63.5h-231zM540 1189h-256v1l299 313h265l204 -313v-1h-257l-104 164z" />
    <glyph glyph-name="Ydieresis" unicode="&#x178;" horiz-adv-x="1453" 
d="M470 0l88 533l-394 957h396l162 -433q16 -41 30 -81.5t27 -80.5q26 40 52.5 80.5t54.5 81.5l297 433h424l-700 -957l-88 -533h-349zM1131 1597q-79 0 -121.5 48.5t-30.5 123.5q13 74 71.5 122.5t137.5 48.5q78 0 121.5 -48.5t30.5 -122.5q-12 -75 -71.5 -123.5
t-137.5 -48.5zM674 1597q-78 0 -120.5 48.5t-30.5 123.5q13 74 71.5 122.5t136.5 48.5q79 0 122.5 -48.5t30.5 -122.5q-12 -75 -71.5 -123.5t-138.5 -48.5z" />
    <glyph glyph-name="Zacute" unicode="&#x179;" horiz-adv-x="1349" 
d="M2 0l33 201l892 1003h-726l47 286h1171l-33 -202l-892 -1002h726l-47 -286h-1171zM723 1629l239 314h326l-330 -314h-235z" />
    <glyph glyph-name="zacute" unicode="&#x17a;" horiz-adv-x="1108" 
d="M10 0l37 226l586 560l1 2h-494l45 268h905l-40 -239l-573 -549v-2h491l-44 -266h-914zM525 1195l239 314h326l-330 -314h-235z" />
    <glyph glyph-name="Zdotaccent" unicode="&#x17b;" horiz-adv-x="1349" 
d="M2 0l33 201l892 1003h-726l47 286h1171l-33 -202l-892 -1002h726l-47 -286h-1171zM856 1606q-77 0 -121.5 51t-32.5 125q13 73 74.5 124.5t138.5 51.5t122 -51.5t33 -124.5q-13 -74 -75 -125t-139 -51z" />
    <glyph glyph-name="zdotaccent" unicode="&#x17c;" horiz-adv-x="1108" 
d="M10 0l37 226l586 560l1 2h-494l45 268h905l-40 -239l-573 -549v-2h491l-44 -266h-914zM658 1172q-77 0 -121.5 51t-32.5 125q13 73 74.5 124.5t138.5 51.5t122 -51.5t33 -124.5q-13 -74 -75 -125t-139 -51z" />
    <glyph glyph-name="Zcaron" unicode="&#x17d;" horiz-adv-x="1349" 
d="M2 0l33 201l892 1003h-726l47 286h1171l-33 -202l-892 -1002h726l-47 -286h-1171zM784 1937l98 -164l156 164h258v-1l-307 -313h-264l-197 313v1h256z" />
    <glyph glyph-name="zcaron" unicode="&#x17e;" horiz-adv-x="1108" 
d="M10 0l37 226l586 560l1 2h-494l45 268h905l-40 -239l-573 -549v-2h491l-44 -266h-914zM586 1503l98 -164l156 164h258v-1l-307 -313h-264l-197 313v1h256z" />
    <glyph glyph-name="longs" unicode="&#x17f;" horiz-adv-x="659" 
d="M-84 -418h-187l45 269h98q62 0 91 25.5t40 87.5l200 1209q27 161 130.5 239t291.5 78h193l-44 -266h-106q-61 0 -90.5 -25.5t-39.5 -85.5l-200 -1202q-27 -169 -127.5 -249t-294.5 -80z" />
    <glyph glyph-name="bbar" unicode="&#x180;" horiz-adv-x="1252" 
d="M675 -23q-115 0 -191 50.5t-105 147.5h-1l-29 -175h-340l246 1490h344l-90 -566h1q44 78 128.5 116.5t179.5 38.5q179 0 283.5 -125t104.5 -329q0 -117 -35 -232t-103 -209t-166.5 -150.5t-226.5 -56.5zM581 252q91 0 153.5 58.5t94.5 145t32 172.5q0 85 -39 131t-113 46
q-90 0 -155.5 -55.5t-101 -139.5t-35.5 -169q0 -88 43.5 -138.5t120.5 -50.5zM62 1162l33 200h809l-33 -200h-809z" />
    <glyph glyph-name="uni0181" unicode="&#x181;" horiz-adv-x="1757" 
d="M108 1026l22 135q24 147 118.5 238t243.5 91h807q247 0 364.5 -112t88.5 -288q-20 -121 -113 -201t-223 -108v-1q92 -9 160.5 -57.5t100 -130.5t13.5 -193q-29 -177 -178 -288t-397 -111h-674l246 1490l-49 -297h-82q-79 0 -91 -74l-15 -93h-342zM837 276h253
q98 0 162.5 46.5t78.5 127.5q13 80 -34 126.5t-144 46.5h-259zM938 885h235q85 0 143 45.5t71 121.5q12 75 -30 118.5t-127 43.5h-237z" />
    <glyph glyph-name="uni0182" unicode="&#x182;" horiz-adv-x="1300" 
d="M9 0l248 1490h1012l-48 -286h-661l-39 -244h205q181 -1 304.5 -59.5t179 -165t32.5 -249.5q-24 -144 -115.5 -253.5t-235 -171t-325.5 -61.5h-557zM407 280h205q120 -1 193.5 60t87.5 149q15 83 -39 140t-174 57h-206z" />
    <glyph glyph-name="uni0183" unicode="&#x183;" horiz-adv-x="1252" 
d="M675 -23q-115 0 -191 50.5t-105 147.5h-1l-29 -175h-340l246 1490h880l-44 -268h-534l-48 -298h1q44 78 128.5 116.5t179.5 38.5q179 0 283.5 -125t104.5 -329q0 -117 -35 -232t-103 -209t-166.5 -150.5t-226.5 -56.5zM581 252q91 0 153.5 58.5t94.5 145t32 172.5
q0 85 -39 131t-113 46q-90 0 -155.5 -55.5t-101 -139.5t-35.5 -169q0 -88 43.5 -138.5t120.5 -50.5z" />
    <glyph glyph-name="uni0184" unicode="&#x184;" horiz-adv-x="1605" 
d="M786 960h207q181 -1 304.5 -59.5t179 -165t31.5 -249.5q-24 -144 -115.5 -253.5t-235.5 -171t-325 -61.5h-556l200 1204h-363l49 286h712zM741 686l-68 -406h206q119 -1 193 60t88 149q14 83 -40 140t-173 57h-206z" />
    <glyph glyph-name="uni0185" unicode="&#x185;" horiz-adv-x="1350" 
d="M422 1536h53l-7 -46h283l-80 -488h12q40 67 118 98.5t163 31.5q117 0 208.5 -62t134 -189t10.5 -323q-32 -191 -114.5 -318.5t-195.5 -192t-234 -63.5q-202 -1 -239 126h-15l-18 -110h-343l175 1054l-166 152l28 166zM990 558q23 142 -19.5 222t-154.5 81
q-81 -1 -133 -42t-81.5 -110t-42.5 -151q-14 -81 -7.5 -150t45 -111t119.5 -42q111 0 180 80.5t94 222.5z" />
    <glyph glyph-name="uni0186" unicode="&#x186;" horiz-adv-x="1502" 
d="M879 1514q183 0 322 -73.5t217 -212t78 -333.5q0 -184 -58.5 -349.5t-168.5 -293.5t-264 -202t-345 -74q-183 0 -319.5 69t-210 196t-67.5 302h362q3 -120 67 -186.5t178 -66.5q117 0 204.5 53.5t146 142t87.5 195t29 211.5q0 147 -70.5 227.5t-209.5 80.5
q-127 0 -223.5 -66t-140.5 -185h-363q51 171 160 298t260 197t329 70z" />
    <glyph glyph-name="uni0187" unicode="&#x187;" horiz-adv-x="1502" 
d="M695 -24q-183 0 -322 73.5t-217 212t-78 333.5q0 184 58.5 349.5t168.5 293.5t264 202t345 74q200 0 345 -83q44 123 144 184t262 61h188l-46 -274h-127q-93 0 -108 -91l-60 -364h-363q-4 120 -67.5 186.5t-177.5 66.5q-117 0 -204.5 -53.5t-146 -142t-88 -195
t-29.5 -211.5q0 -147 71 -227.5t210 -80.5q127 0 223.5 66t140.5 185h363q-51 -171 -160 -298t-260 -197t-329 -70z" />
    <glyph glyph-name="uni0188" unicode="&#x188;" horiz-adv-x="1163" 
d="M525 -24q-148 0 -255.5 57t-166 159.5t-58.5 240.5q0 129 44 245.5t126.5 207t198 142.5t258.5 52q122 0 222 -41q39 111 130 167t246 56h188l-45 -274h-127q-94 0 -109 -91l-43 -256h-331q3 66 -26 116t-108 50q-90 0 -152 -58t-94 -146t-32 -177q0 -85 37.5 -131
t111.5 -46q83 0 144 49t82 120h332q-25 -132 -105.5 -231.5t-201 -155t-266.5 -55.5z" />
    <glyph glyph-name="Dbar1" unicode="&#x189;" horiz-adv-x="1556" 
d="M739 0h-620l247 1490h533q227 0 384 -91.5t225.5 -258.5t31.5 -395q-38 -228 -140 -395t-267 -258.5t-394 -91.5zM528 300h176q205 0 321 112.5t152 332.5q37 220 -38.5 332.5t-282.5 112.5h-180zM-58 635l39 232h924l-40 -232h-923z" />
    <glyph glyph-name="uni018A" unicode="&#x18a;" horiz-adv-x="1878" 
d="M109 1026l22 135q24 147 118.5 238t243.5 91h728q227 0 384 -91.5t225.5 -258.5t31.5 -395q-38 -228 -140 -395t-267 -258.5t-394 -91.5h-620l247 1490l-49 -297h-82q-79 0 -91 -74l-15 -93h-342zM850 300h176q205 0 321 112.5t152 332.5q37 220 -38.5 332.5
t-282.5 112.5h-180z" />
    <glyph glyph-name="uni018B" unicode="&#x18b;" horiz-adv-x="1356" 
d="M1162 0h-556q-181 0 -304.5 62t-178.5 171.5t-31 252.5q23 142 114.5 249t235.5 166.5t325 59.5h210l41 248h-666l46 282h1012zM862 277l67 408h-210q-121 1 -193.5 -56t-86.5 -140q-14 -88 38.5 -150.5t174.5 -61.5h210z" />
    <glyph glyph-name="uni018C" unicode="&#x18c;" horiz-adv-x="1250" 
d="M435 -23q-184 0 -287.5 118.5t-103.5 318.5q0 124 36.5 242.5t105.5 214t168 152t224 56.5q215 0 292 -181h1l53 324h-535l44 268h880l-246 -1490h-341l25 155h-1q-55 -96 -136.5 -137t-178.5 -41zM541 252q89 0 155 56t102 140t36 169q0 89 -44.5 138.5t-121.5 49.5
q-90 0 -152.5 -57.5t-94.5 -144t-32 -173.5q0 -86 39 -132t113 -46z" />
    <glyph glyph-name="deltaturn" unicode="&#x18d;" horiz-adv-x="1364" 
d="M942 -376h-846l45 265h413q-21 18 -61.5 44.5t-96.5 76.5q-131 116 -203 247.5t-49 292.5l4 20q24 167 107 293.5t215.5 197.5t306.5 71q259 0 374 -142.5t81 -375.5l-4 -20q-20 -141 -92.5 -249.5t-175.5 -176t-214 -86.5q-4 0 -15.5 -0.5t-22.5 -0.5q37 -34 89 -90
t99.5 -111.5t71.5 -86.5zM888 550l4 20q11 79 6 146.5t-42.5 108.5t-122.5 41q-120 0 -176.5 -84.5t-75.5 -211.5l-3 -20q-17 -112 16 -187t89 -109q11 -5 22 -6t24 -1q116 0 177 88.5t82 214.5z" />
    <glyph glyph-name="Eturn" unicode="&#x18e;" horiz-adv-x="1264" 
d="M1326 1490l-247 -1490h-1109l51 306h750l48 287h-693l49 297h693l49 294h-751l51 306h1109z" />
    <glyph glyph-name="uni018F" unicode="&#x18f;" horiz-adv-x="1505" 
d="M656 -24q-199 0 -339.5 79.5t-204.5 222t-33 331.5l34 202h1023q18 185 -51 287t-233 102q-126 0 -211.5 -58.5t-122.5 -157.5h-366q43 159 155.5 278t269.5 185.5t333 66.5q202 0 347 -91t209 -263.5t23 -415.5q-38 -233 -153 -405.5t-289 -267.5t-391 -95zM1072 547
h-651q-17 -115 62 -186t220 -71q261 0 369 257z" />
    <glyph glyph-name="Epsilon1" unicode="&#x190;" horiz-adv-x="1287" 
d="M563 -24q-174 0 -301 57.5t-188.5 158t-39.5 228.5q15 89 66.5 165.5t135 127.5t193.5 63v3q-122 21 -190.5 105t-46.5 215q20 122 101.5 215.5t209.5 146.5t286 53q173 0 290.5 -62.5t170.5 -170t31 -243.5h-337q16 95 -32 152.5t-145 57.5q-93 0 -164.5 -52.5
t-85.5 -136.5q-13 -82 43 -128.5t167 -46.5h138l-41 -252h-138q-119 0 -199 -51.5t-94 -136.5q-14 -87 38.5 -140.5t156.5 -53.5q114 0 193.5 66.5t99.5 184.5h340q-23 -140 -103 -259.5t-218 -192.5t-337 -73z" />
    <glyph glyph-name="uni0191" unicode="&#x191;" horiz-adv-x="1215" 
d="M-278 -418l46 281h128q90 0 105 86l14 87l241 1454h1076l-52 -306h-716l-52 -317h672l-49 -296h-672l-75 -455v0l-31 -186q-57 -348 -445 -348h-190z" />
    <glyph glyph-name="florin" unicode="&#x192;" horiz-adv-x="967" 
d="M937 1082l-40 -239h-221l-141 -856q-34 -198 -155.5 -302t-307.5 -103q-40 -1 -77.5 2t-79.5 12l58 262q42 -10 93 -11q71 0 97.5 38t37.5 102l142 856h-166l40 239h165l14 86q32 190 163.5 289t334.5 99q49 0 90.5 -6t79.5 -14l-68 -253q-20 4 -42.5 6.5t-61.5 1.5
q-65 1 -108 -30t-54 -93l-14 -86h221z" />
    <glyph glyph-name="uni0193" unicode="&#x193;" horiz-adv-x="1512" 
d="M699 -24q-193 0 -332 76t-214 215t-75 329q0 185 59.5 351t170 293.5t263.5 200.5t341 73q198 0 349 -82q27 128 128.5 186t269.5 58h188l-45 -274h-128q-93 0 -108 -91l-54 -327h-1v0v0h-366q-2 99 -61.5 157.5t-174.5 58.5q-120 0 -209 -53.5t-147.5 -142t-87.5 -194.5
t-29 -210q0 -149 74 -229.5t217 -80.5q144 0 244.5 73t126.5 184h-299l44 264h650l-35 -213q-31 -189 -136.5 -329t-266.5 -216.5t-356 -76.5z" />
    <glyph glyph-name="Gamma1" unicode="&#x194;" horiz-adv-x="1549" 
d="M219 1490h401l201 -683l423 683h403l-714 -1064q67 -226 97 -370t18 -219q-14 -81 -72.5 -144t-152 -99t-210.5 -36q-178 0 -275.5 76.5t-74.5 211.5q5 30 19.5 67.5t48.5 98.5t95 160.5t157 253.5zM700 72q-35 -60 -58 -113.5t-30 -95.5q-11 -71 40 -72q51 1 65 73
q13 84 -17 208z" />
    <glyph glyph-name="uni0195" unicode="&#x195;" horiz-adv-x="1993" 
d="M8 0l247 1490h334l-95 -577h13q55 103 150.5 161t220.5 58q176 0 263 -114.5t56 -305.5l-26 -154l-20 -125q-16 -91 18.5 -130.5t90.5 -38.5q127 -1 218.5 187t151.5 550l19 117h346l-20 -117q-83 -509 -267.5 -765t-506.5 -256q-230 0 -331 121.5t-66 331.5l21 125
l14 87q16 95 -23.5 148.5t-127.5 53.5q-86 0 -148.5 -55t-79.5 -153l-105 -639h-347z" />
    <glyph glyph-name="Iota" unicode="&#x196;" horiz-adv-x="595" 
d="M379 0q-195 0 -271 71t-49 234l197 1185h344l-191 -1152q-12 -80 70 -80h43l-43 -258h-100z" />
    <glyph glyph-name="uni0197" unicode="&#x197;" horiz-adv-x="728" 
d="M704 1490l-247 -1490h-360l247 1490h360zM49 711l24 144h692l-24 -144h-692z" />
    <glyph glyph-name="uni0198" unicode="&#x198;" horiz-adv-x="1484" 
d="M9 0l247 1490h350l-102 -615h19l543 481q143 125 290 147.5t286 -65.5l-149 -246q-59 32 -105 14.5t-103 -67.5l-388 -341l480 -798h-420l-326 549l-213 -192l-59 -357h-350z" />
    <glyph glyph-name="uni0199" unicode="&#x199;" horiz-adv-x="1163" 
d="M147 836l37 220l14 86q28 174 135 261t300 87h188l-45 -274h-127q-94 0 -109 -91l-12 -69l-62 -375h4l383 375h397l-470 -461l312 -595h-397l-203 399l-87 -85l-52 -314h-344l138 836v0z" />
    <glyph glyph-name="uni019A" unicode="&#x19a;" horiz-adv-x="537" 
d="M600 1490l-247 -1490h-344l247 1490h344zM-114 668l33 200h809l-33 -200h-809z" />
    <glyph glyph-name="lambdabar" unicode="&#x19b;" horiz-adv-x="1350" 
d="M997 1382l-35 -202l-83 -26l200 -787q10 -40 30 -80t64 -40h34l-43 -262q-20 -3 -44.5 -3.5t-54.5 -0.5h-12.5t-12.5 -1q-137 1 -204 67t-88 167l-83 411l-312 -625h-358l563 1058l-296 -89l33 206l212 63q-33 39 -105 39q-12 0 -27.5 -0.5t-37.5 -3.5l33 249
q40 12 99 17.5t95 5.5q113 0 176 -45.5t84 -129.5l9 -36z" />
    <glyph glyph-name="mcapturn" unicode="&#x19c;" horiz-adv-x="1941" 
d="M789 153q-68 -81 -161.5 -127t-209.5 -46q-190 0 -265.5 100.5t-35.5 340.5l177 1069h331l-177 -1069q-15 -88 17 -131t102 -42q71 -1 121.5 24t83.5 68q3 38 10 81l177 1069h330l-177 -1069q-15 -88 17.5 -131t102.5 -42q67 -1 115.5 21.5t81.5 61.5l194 1159h335
l-248 -1490h-299l3 117q-65 -64 -148.5 -100.5t-182.5 -36.5q-111 0 -187 40t-107 133z" />
    <glyph glyph-name="Nhook" unicode="&#x19d;" horiz-adv-x="1499" 
d="M-278 -418l46 281h128q90 0 105 86l14 87l241 1454h369l313 -677q19 -43 49.5 -120t61.5 -158q12 89 25 174t21 135l107 646h360l-247 -1490h-369l-286 620q-25 52 -61.5 140t-77.5 195q-14 -110 -28 -198.5t-22 -135.5l-83 -505v0l-31 -186q-57 -348 -445 -348h-190z
" />
    <glyph glyph-name="uni019E" unicode="&#x19e;" horiz-adv-x="1232" 
d="M449 574l-96 -574h-344l175 1056h340l-26 -156q65 85 150 132t197 47q178 0 261 -115t51 -310l-178 -1072h-344l166 1010q33 193 -132 193q-82 0 -142.5 -51.5t-77.5 -159.5z" />
    <glyph glyph-name="Obar" unicode="&#x19f;" horiz-adv-x="1531" 
d="M692 -24q-181 0 -319.5 73.5t-216.5 212t-78 334.5q0 182 58.5 347.5t168 294t263 202.5t343.5 74q181 0 319 -73t216.5 -212t78.5 -335q0 -186 -60 -352t-170 -293t-263 -200t-340 -73zM479 853h687q1 19 1 39q0 149 -72 228.5t-200 79.5q-105 0 -186.5 -47t-139 -126
t-90.5 -174zM708 290q105 0 187 47t139 126t90 174h-687q-1 -19 -1 -38q0 -150 71.5 -229.5t200.5 -79.5z" />
    <glyph glyph-name="Ohorn" unicode="&#x1a0;" horiz-adv-x="1529" 
d="M692 -24q-181 0 -319.5 73.5t-216.5 212t-78 334.5q0 182 58.5 347.5t168 294t263 202.5t343.5 74h17v0q63 0 110 -6t106.5 -12t158.5 -6q27 0 33 29l34 211h305l-40 -248q-15 -93 -76 -141t-147 -58q54 -75 83.5 -173t29.5 -216q0 -186 -60 -352t-170 -293t-263 -200
t-340 -73zM708 290q113 0 199 54t143.5 142.5t87 194.5t29.5 211q0 149 -72 228.5t-200 79.5q-112 0 -197.5 -53.5t-143.5 -141.5t-88 -194.5t-30 -211.5q0 -150 71.5 -229.5t200.5 -79.5z" />
    <glyph glyph-name="ohorn" unicode="&#x1a1;" horiz-adv-x="1215" 
d="M534 -24q-225 0 -356.5 124t-131.5 334q0 182 81 328.5t224.5 232t329.5 85.5h18v0q62 0 100.5 -5.5l73.5 -10.5t86 -5q29 0 33 28l35 209h297l-40 -243q-13 -76 -61.5 -121t-114.5 -64q61 -106 61 -247q0 -130 -44 -246.5t-127 -206t-200.5 -141t-263.5 -51.5zM556 250
q88 0 148 57t90.5 143.5t30.5 172.5q0 90 -48 136.5t-118 46.5q-87 0 -147 -57t-91 -143t-31 -174q0 -90 48 -136t118 -46z" />
    <glyph glyph-name="OI" unicode="&#x1a2;" horiz-adv-x="1916" 
d="M1387 917l-51 -307l-4 -25v0l-67 -402q-50 -48 -139 -94.5t-207.5 -77.5t-258.5 -31q-320 0 -468 187t-93 520l16 94v0l3 22q37 224 144.5 382t274 241.5t381.5 83.5q175 0 299.5 -47.5t191.5 -107.5l313 135h248l-316 -1908h-331l249 1500l-170 -73l-15 -92v0zM463 749
l-9 -53h-1l-1 -9q-22 -131 -6 -228t81.5 -150t192.5 -54q75 1 135.5 19.5t96.5 43.5l44 263v0l99 591q-33 32 -90 46.5t-120 14.5q-198 0 -288.5 -111.5t-124.5 -318.5l-4 -20h1z" />
    <glyph glyph-name="uni01A3" unicode="&#x1a3;" horiz-adv-x="1544" 
d="M1574 1118l-254 -1536h-334l193 1170l-106 -35l-23 -137h-1l-59 -359q-48 -65 -114.5 -120t-160 -88t-224.5 -33q-174 0 -277.5 71.5t-140 196t-11.5 281.5l3 24q28 171 107.5 301.5t208 204t304.5 73.5q115 0 198.5 -43.5t136.5 -101.5l330 131h224zM532 248
q87 0 138 45l51 314v0l32 197q-16 30 -45.5 46t-78.5 16q-79 0 -125 -42.5t-70 -113.5t-38 -157l-3 -24q-12 -73 -9.5 -137t35.5 -104t113 -40z" />
    <glyph glyph-name="uni01A4" unicode="&#x1a4;" horiz-adv-x="1740" 
d="M112 1026l22 135q24 147 118.5 238t243.5 91h800q172 0 288 -62t166.5 -175.5t25.5 -268.5q-26 -154 -114 -266.5t-224.5 -174t-309.5 -61.5h-247l-80 -482h-360l198 1193h-79q-79 0 -91 -74l-15 -93h-342zM930 781h225q108 0 180.5 55.5t88.5 149.5q16 95 -38.5 150.5
t-162.5 55.5h-225z" />
    <glyph glyph-name="uni01A5" unicode="&#x1a5;" horiz-adv-x="1250" 
d="M146 836l37 220l14 86q28 174 135 261t300 87h188l-45 -274h-127q-94 0 -109 -91l-12 -69l-22 -133q60 86 139 121t174 35q179 0 283.5 -122t104.5 -320q0 -122 -36 -239.5t-105 -212.5t-168.5 -151.5t-227.5 -56.5q-111 0 -186 51t-102 140h-1l-97 -586h-344l207 1254v0
zM581 252q91 0 153.5 58.5t94.5 145t32 172.5q0 85 -39 131t-113 46q-90 0 -155.5 -55.5t-101 -139.5t-35.5 -169q0 -88 43.5 -138.5t120.5 -50.5z" />
    <glyph glyph-name="YR" unicode="&#x1a6;" horiz-adv-x="1545" 
d="M214 1388l34 204h347l-17 -102h239q260 0 394.5 -113t98.5 -328q-29 -177 -121 -273t-228 -150l359 -959l-4 -15h-371l-320 891h-202l-90 -543h-349l232 1388h-2zM469 819h236q109 0 174.5 52t80.5 141q15 93 -33 145.5t-156 53.5h-237z" />
    <glyph glyph-name="uni01A7" unicode="&#x1a7;" horiz-adv-x="1368" 
d="M609 -24q-193 0 -325.5 57t-193 163.5t-35.5 256.5q29 173 158.5 275.5t384.5 151.5l136 26q132 27 194.5 63.5t73.5 97.5q11 70 -42.5 114t-154.5 44q-107 0 -186 -53.5t-102 -145.5h-333q45 229 211.5 358.5t434.5 129.5q175 0 302.5 -58.5t188.5 -163t38 -242.5
q-27 -163 -155.5 -270t-354.5 -151l-158 -31q-139 -28 -206.5 -68t-77.5 -103q-13 -73 45.5 -117.5t171.5 -44.5q129 0 218 60t110 167h343q-40 -247 -214.5 -381.5t-471.5 -134.5z" />
    <glyph glyph-name="uni01A8" unicode="&#x1a8;" horiz-adv-x="1101" 
d="M102 713q33 169 179.5 266.5t367.5 97.5t332.5 -93t85.5 -249q-43 -255 -371 -312l-198 -34q-131 -23 -141 -88q-7 -40 29 -64t107 -24q76 0 125.5 33t66.5 92h340q-29 -112 -109.5 -193.5t-200.5 -125.5t-267 -44t-251 45.5t-153 127t-31 189.5q20 116 109 187t257 101
l219 38q118 23 129 88q6 39 -27.5 64t-101.5 25t-118.5 -36t-60.5 -91h-317z" />
    <glyph glyph-name="uni01A9" unicode="&#x1a9;" horiz-adv-x="1334" 
d="M-33 0l43 256l436 377q34 29 74 62t81 67q-64 69 -114 127l-283 337l44 264h1180l-52 -306h-464q-65 0 -128.5 0.5t-127.5 1.5q37 -39 70 -75t62 -69l196 -238l-21 -125l-265 -231q-39 -34 -83 -70l-88 -72h720l-50 -306h-1230z" />
    <glyph glyph-name="eshlooprev" unicode="&#x1aa;" horiz-adv-x="1358" 
d="M215 1128q19 117 94 214.5t184 155.5t230 58t211 -58t134 -155.5t24 -214.5v-2l-189 -1137q-14 -80 18 -119.5t99 -39.5q23 0 46 2t52 6l-41 -261q-40 -9 -80 -12t-84 -3q-192 0 -285 110t-58 317l120 723q-54 -13 -108 -13q-120 0 -210 58t-133 155.5t-24 215.5z
M631 980q59 0 108 37.5t61 113.5q11 74 -26 110.5t-94 37.5q-67 -1 -114.5 -38.5t-59.5 -109.5q-14 -75 22.5 -113t102.5 -38z" />
    <glyph glyph-name="uni01AB" unicode="&#x1ab;" horiz-adv-x="804" 
d="M42 -418l46 274h129q103 0 118 91l10 64q-115 23 -159 93t-24 193l81 493h-181l45 266h180l48 288h345l-48 -288h217l-45 -266h-216l-72 -435q-8 -51 9 -70t74 -19h120l-44 -266v0l-12 -70q-28 -174 -133.5 -261t-298.5 -87h-189z" />
    <glyph glyph-name="uni01AC" unicode="&#x1ac;" horiz-adv-x="1484" 
d="M184 1026l22 135q24 147 118.5 238t243.5 91h1032l-51 -306h-453l-195 -1184h-360l196 1184h-25l51 306l-49 -297h-82q-79 0 -91 -74l-15 -93h-342z" />
    <glyph glyph-name="uni01AD" unicode="&#x1ad;" horiz-adv-x="799" 
d="M468 0q-188 0 -266 78t-51 239l79 473h-161l45 266h160l14 86q29 174 135.5 261t299.5 87h189l-46 -274h-127q-94 0 -109 -91l-11 -69h217l-45 -266h-216l-69 -413q-10 -60 11 -85.5t82 -25.5h105l-43 -266h-193z" />
    <glyph glyph-name="Trthook" unicode="&#x1ae;" horiz-adv-x="1322" 
d="M758 0l-9 -55q-10 -59 35.5 -78.5t102.5 -19.5h65l-44 -265h-158q-75 0 -145.5 13t-123 51t-75.5 110.5t-3 189.5l9 54h-18l196 1184h-439l51 306h1237l-51 -306h-439l-195 -1184h4z" />
    <glyph glyph-name="Uhorn" unicode="&#x1af;" horiz-adv-x="1442" 
d="M1122 1280l35 210h178q28 0 33 29l35 211h305l-41 -248q-13 -85 -65.5 -132.5t-127.5 -62.5l-128 -774q-27 -164 -122 -285t-242.5 -186.5t-333.5 -65.5q-195 0 -328 71t-192.5 197.5t-32.5 291.5l158 954h351l-157 -948q-19 -118 40 -189t176 -71q87 0 160 38t120.5 102
t60.5 143l119 715h-1z" />
    <glyph glyph-name="uhorn" unicode="&#x1b0;" horiz-adv-x="1365" 
d="M368 -23q-173 0 -250 110t-45 305l110 664h345l-99 -592q-15 -94 21.5 -143.5t118.5 -49.5t139 51.5t75 159.5l95 574h233q33 0 37 32l35 208h267l-41 -243q-15 -93 -75 -141t-145 -58l-141 -854h-340l28 171q-68 -91 -158.5 -142.5t-209.5 -51.5z" />
    <glyph glyph-name="Upsilon2" unicode="&#x1b1;" horiz-adv-x="1564" 
d="M89 675q30 180 124 309t230 208l2 12h-269l47 286h608l-60 -359q-118 -44 -207 -160t-114 -265q-20 -120 11 -214t103.5 -148t177.5 -55q106 1 196.5 55t152.5 148t82 214q25 149 -26 265t-154 160l59 359h606l-47 -286h-270l-2 -12q112 -79 163 -208t21 -309
q-25 -152 -98.5 -279.5t-185 -220.5t-251.5 -144t-297 -51q-210 0 -357 89t-213 246t-32 360z" />
    <glyph glyph-name="Vcursive" unicode="&#x1b2;" horiz-adv-x="1350" 
d="M580 -20q-173 0 -296 61t-179 179t-27 288l162 982h346l-163 -982q-19 -121 29 -186.5t176 -66.5q126 1 193 66.5t87 186.5l93 574q14 83 -7.5 113.5t-97.5 30.5q-21 0 -45 -2t-53 -6l47 274q84 18 156 18q199 0 292 -110t59 -318l-94 -574q-27 -169 -121 -287
t-237.5 -179.5t-319.5 -61.5z" />
    <glyph glyph-name="uni01B3" unicode="&#x1b3;" horiz-adv-x="1622" 
d="M192 1490h380l271 -628h17l332 433q85 110 185 160t201.5 51t193.5 -34l-117 -262q-76 24 -123.5 4t-102.5 -89l-453 -560l-93 -565h-348l94 565z" />
    <glyph glyph-name="uni01B4" unicode="&#x1b4;" horiz-adv-x="1444" 
d="M893 1056l50 96q56 110 104.5 185.5t120 114t195.5 38.5h200l-45 -274h-100q-53 0 -80.5 -31.5t-52.5 -75.5l-30 -53h-3l-655 -1205q-77 -142 -169.5 -205.5t-224.5 -63.5h-231l44 267h146q54 0 79.5 24t55.5 81l25 48l-231 1054h346l76 -486q8 -55 15 -109.5t13 -109.5
q51 113 102 219l239 486h11z" />
    <glyph glyph-name="Zbar" unicode="&#x1b5;" horiz-adv-x="1349" 
d="M2 0l33 201l892 1003h-726l47 286h1171l-33 -202l-892 -1002h726l-47 -286h-1171zM229 629l39 232h924l-40 -232h-923z" />
    <glyph glyph-name="zbar" unicode="&#x1b6;" horiz-adv-x="1108" 
d="M10 0l37 226l586 560l1 2h-494l45 268h905l-40 -239l-573 -549v-2h491l-44 -266h-914zM204 463l24 144h692l-24 -144h-692z" />
    <glyph glyph-name="uni01B7" unicode="&#x1b7;" horiz-adv-x="1367" 
d="M-25 119h353q-14 -119 52 -193.5t180 -74.5q134 0 225.5 100.5t116.5 253.5q28 173 -45.5 272.5t-214.5 98.5h-174l41 249l455 361v12h-729l49 292h1158l-42 -254l-545 -430l-3 -14q152 -14 254.5 -91t145.5 -202.5t17 -286.5q-31 -190 -138.5 -337.5t-267 -232
t-347.5 -84.5q-180 0 -310 72.5t-192.5 199t-38.5 289.5z" />
    <glyph glyph-name="uni01B8" unicode="&#x1b8;" horiz-adv-x="1367" 
d="M1257 119q-32 -163 -136.5 -289.5t-258.5 -199t-333 -72.5q-188 0 -319 84.5t-189.5 232t-27.5 337.5q27 161 111.5 286.5t212 202.5t283.5 91l3 14l-402 430l42 254h1158l-49 -292h-729v-12l333 -361l-43 -249h-173q-140 1 -247 -98.5t-135 -272.5q-26 -153 32 -253.5
t192 -100.5q114 0 204.5 74.5t116.5 193.5h354z" />
    <glyph glyph-name="uni01B9" unicode="&#x1b9;" horiz-adv-x="1286" 
d="M477 -458q-174 0 -297.5 58t-181 159t-36.5 229q16 93 75.5 183t171 155t280.5 83v2l-346 391l42 254h1049l-49 -295h-622v-2l262 -312l-39 -239h-172q-114 0 -196 -53t-96 -144q-15 -87 41.5 -141t161.5 -54q113 0 189 66.5t95 184.5h340q-23 -140 -106 -259.5
t-225 -192.5t-341 -73z" />
    <glyph glyph-name="uni01BA" unicode="&#x1ba;" horiz-adv-x="1159" 
d="M233 1056h911l-31 -191l-326 -223q122 -36 177.5 -115.5t38.5 -184.5q-15 -86 -67.5 -145t-125 -97t-149 -61t-138.5 -37q-94 -22 -152 -49.5t-66 -74.5t32.5 -69.5t105.5 -22.5q68 0 131.5 29t81.5 110h312q-17 -91 -88 -175.5t-190.5 -138t-283.5 -53.5
q-141 0 -241.5 43t-148 121t-30.5 183q15 91 67 150.5t124 95.5t147.5 56t138.5 32q87 17 150 36.5t73 80.5q8 45 -25 65.5t-99 20.5h-260l31 189l262 159h-406z" />
    <glyph glyph-name="uni01BB" unicode="&#x1bb;" horiz-adv-x="1255" 
d="M-12 0l43 257l629 459q60 45 117.5 90.5t99 98t52.5 117.5q16 98 -31 154t-147 56q-103 0 -182.5 -70t-99.5 -197h-330q27 167 112.5 290.5t218 191t299.5 67.5q166 0 285 -57t174.5 -163t31.5 -252q-17 -106 -68.5 -191t-135.5 -162.5t-198 -163.5l-319 -240l-1 -2h601
l-46 -283h-1105zM257 523l39 232h924l-40 -232h-923z" />
    <glyph glyph-name="uni01BC" unicode="&#x1bc;" horiz-adv-x="1325" 
d="M623 -23q-165 0 -285 60t-179.5 170.5t-43.5 260.5h336q-12 -95 41 -157.5t155 -62.5q104 0 184 69.5t98 179.5q18 111 -30 182t-150 71q-88 0 -160 -37.5t-105 -102.5h-324l129 595h-134l47 285h1140l-47 -285h-677l-72 -299h2q60 53 129 79.5t157 26.5
q143 0 250.5 -61.5t159 -175t25.5 -268.5t-113 -274.5t-223 -187.5t-310 -68z" />
    <glyph glyph-name="uni01BD" unicode="&#x1bd;" horiz-adv-x="1364" 
d="M550 458l-302 13l108 354h-169l42 257h999l-42 -257h-524l-55 -166q38 17 99.5 31t136.5 16q191 0 281 -94.5t64 -263.5q-27 -158 -160.5 -261.5t-396.5 -104.5q-134 1 -244.5 36.5t-170.5 111.5t-39 197l333 13q-1 -47 42 -67.5t122 -20.5q83 0 129 32.5t56 89.5
q9 53 -30 85.5t-118 32.5q-61 0 -100.5 -9.5t-60.5 -24.5z" />
    <glyph glyph-name="glottalstopbarinv" unicode="&#x1be;" horiz-adv-x="1159" 
d="M704 306q8 45 -23.5 73t-78.5 57q-51 31 -103 75t-81 119.5t-9 200.5l2 12h-147l40 239h148l46 272h335l-45 -272h187l-39 -239h-187l-3 -17q-11 -70 7 -113t53.5 -70.5t75.5 -50.5q43 -26 82.5 -57t59 -82t4.5 -138q-15 -96 -87 -172t-188 -119.5t-264 -43.5
q-160 0 -260.5 56.5t-143.5 141t-30 170.5h315q-8 -79 44.5 -109.5t118.5 -30.5q71 0 118 24.5t53 73.5z" />
    <glyph glyph-name="uni01BF" unicode="&#x1bf;" horiz-adv-x="1365" 
d="M559 1010q57 57 128 89.5t160 32.5q142 0 228.5 -68.5t119 -191.5t10.5 -286l-8 -54q-27 -197 -128 -332.5t-271.5 -225.5t-403.5 -150l-36 -240h-335l226 1534h315zM432 82q172 45 288.5 157.5t140.5 292.5l8 54q10 76 2.5 139.5t-42 102t-107.5 38.5q-129 0 -187 -89z
" />
    <glyph glyph-name="pipe" unicode="&#x1c0;" horiz-adv-x="592" 
d="M538 1457l-242 -1457h-186l240 1457h188z" />
    <glyph glyph-name="pipedbl" unicode="&#x1c1;" horiz-adv-x="787" 
d="M515 1457l-242 -1457h-186l240 1457h188zM783 1457l-242 -1457h-186l240 1457h188z" />
    <glyph glyph-name="pipedblbar" unicode="&#x1c2;" horiz-adv-x="538" 
d="M516 1457l-242 -1457h-186l240 1457h188zM-50 1050l33 200h809l-33 -200h-809zM-128 581l33 200h809l-33 -200h-809z" />
    <glyph glyph-name="exclam1" unicode="&#x1c3;" horiz-adv-x="528" 
d="M99 455l140 1035h367l-204 -1035h-303zM188 -19q-84 0 -134.5 62.5t-36.5 148.5q11 70 68.5 118t129.5 48q84 0 134.5 -62t36.5 -149q-12 -70 -69 -118t-129 -48z" />
    <glyph glyph-name="Dzcaron_" unicode="&#x1c5;" horiz-adv-x="2553" 
d="M629 0h-620l247 1490h533q227 0 384 -91.5t225.5 -258.5t31.5 -395q-38 -228 -140 -395t-267 -258.5t-394 -91.5zM418 300h176q205 0 321 112.5t152 332.5q37 220 -38.5 332.5t-282.5 112.5h-180zM1456 0l37 226l586 560l1 2h-494l45 268h905l-40 -239l-573 -549v-2h491
l-44 -266h-914zM2031 1503l98 -164l156 164h258v-1l-307 -313h-264l-197 313v1h256z" />
    <glyph glyph-name="uni01C6" unicode="&#x1c6;" horiz-adv-x="2239" 
d="M435 -23q-184 0 -287.5 118.5t-103.5 318.5q0 124 36.5 242.5t105.5 214t168 152t224 56.5q215 0 292 -181h1l97 592h345l-246 -1490h-341l25 155h-1q-55 -96 -136.5 -137t-178.5 -41zM541 252q89 0 155 56t102 140t36 169q0 89 -44.5 138.5t-121.5 49.5
q-90 0 -152.5 -57.5t-94.5 -144t-32 -173.5q0 -86 39 -132t113 -46zM1141 0l37 226l586 560l1 2h-494l45 268h905l-40 -239l-573 -549v-2h491l-44 -266h-914zM1717 1503l98 -164l156 164h258v-1l-307 -313h-264l-197 313v1h256z" />
    <glyph glyph-name="uni01C7" unicode="&#x1c7;" horiz-adv-x="2333" 
d="M9 0l247 1490h360l-197 -1184h660l-50 -306h-1020zM1642 -23q-212 0 -332 98.5t-120 283.5q0 24 5 63.5t23 148.5h335q-11 -64 -15.5 -95.5t-5.5 -44t-1 -19.5q0 -135 138 -135q79 0 131.5 47t66.5 135l171 1031h360l-173 -1037q-38 -229 -187 -352.5t-396 -123.5z" />
    <glyph glyph-name="uni01C8" unicode="&#x1c8;" horiz-adv-x="1697" 
d="M9 0l247 1490h360l-197 -1184h660l-50 -306h-1020zM1343 1056h345l-186 -1120q-28 -173 -140 -263.5t-304 -90.5h-135l44 267h70q56 0 85.5 28.5t40.5 93.5zM1533 1172q-77 0 -121.5 51t-32.5 125q13 73 74.5 124.5t138.5 51.5t122 -51.5t33 -124.5q-13 -74 -75 -125
t-139 -51z" />
    <glyph glyph-name="uni01C9" unicode="&#x1c9;" horiz-adv-x="1075" 
d="M600 1490l-247 -1490h-344l247 1490h344zM722 1056h345l-186 -1120q-28 -173 -140 -263.5t-304 -90.5h-135l44 267h70q56 0 85.5 28.5t40.5 93.5zM912 1172q-77 0 -121.5 51t-32.5 125q13 73 74.5 124.5t138.5 51.5t122 -51.5t33 -124.5q-13 -74 -75 -125t-139 -51z" />
    <glyph glyph-name="uni01CA" unicode="&#x1ca;" horiz-adv-x="2674" 
d="M9 0l247 1490h369l313 -677q19 -43 49.5 -120t61.5 -158q12 89 25 174t21 135l107 646h360l-247 -1490h-369l-286 620q-25 52 -61.5 140t-77.5 195q-14 -110 -28 -198.5t-22 -135.5l-102 -621h-360zM1983 -23q-212 0 -332 98.5t-120 283.5q0 24 5 63.5t23 148.5h335
q-11 -64 -15.5 -95.5t-5.5 -44t-1 -19.5q0 -135 138 -135q79 0 131.5 47t66.5 135l171 1031h360l-173 -1037q-38 -229 -187 -352.5t-396 -123.5z" />
    <glyph glyph-name="uni01CB" unicode="&#x1cb;" horiz-adv-x="2037" 
d="M9 0l247 1490h369l313 -677q19 -43 49.5 -120t61.5 -158q12 89 25 174t21 135l107 646h360l-247 -1490h-369l-286 620q-25 52 -61.5 140t-77.5 195q-14 -110 -28 -198.5t-22 -135.5l-102 -621h-360zM1684 1056h345l-186 -1120q-28 -173 -140 -263.5t-304 -90.5h-135
l44 267h70q56 0 85.5 28.5t40.5 93.5zM1874 1172q-77 0 -121.5 51t-32.5 125q13 73 74.5 124.5t138.5 51.5t122 -51.5t33 -124.5q-13 -74 -75 -125t-139 -51z" />
    <glyph glyph-name="uni01CC" unicode="&#x1cc;" horiz-adv-x="1769" 
d="M446 563l-93 -563h-344l174 1056h340l-26 -155q66 85 151 131.5t197 46.5q179 0 261.5 -115.5t49.5 -311.5l-108 -652h-344l99 604q15 93 -22.5 137t-113.5 44q-88 0 -145.5 -57.5t-75.5 -164.5zM1416 1056h345l-186 -1120q-28 -173 -140 -263.5t-304 -90.5h-135l44 267
h70q56 0 85.5 28.5t40.5 93.5zM1606 1172q-77 0 -121.5 51t-32.5 125q13 73 74.5 124.5t138.5 51.5t122 -51.5t33 -124.5q-13 -74 -75 -125t-139 -51z" />
    <glyph glyph-name="uni01CD" unicode="&#x1cd;" horiz-adv-x="1511" 
d="M-82 0l759 1490h474l268 -1490h-390l-41 287h-529l-138 -287h-403zM596 568h352l-13 87q-16 125 -31.5 250t-30.5 262q-61 -137 -118.5 -262t-116.5 -250zM862 1937l98 -164l156 164h258v-1l-307 -313h-264l-197 313v1h256z" />
    <glyph glyph-name="uni01CE" unicode="&#x1ce;" horiz-adv-x="1245" 
d="M416 -23q-138 0 -229.5 68.5t-127 193t-8.5 291.5q27 161 105.5 285t192 194t247.5 70q208 0 277 -161h5l23 138h336l-175 -1056h-336l26 157h-4q-55 -88 -141 -134t-191 -46zM558 252q98 0 171.5 75.5t93.5 202.5q21 125 -27.5 200t-145.5 75q-95 0 -162 -73t-88 -202
q-22 -130 20.5 -204t137.5 -74zM665 1503l98 -164l156 164h258v-1l-307 -313h-264l-197 313v1h256z" />
    <glyph glyph-name="uni01CF" unicode="&#x1cf;" horiz-adv-x="553" 
d="M616 1490l-247 -1490h-360l247 1490h360zM382 1937l98 -164l156 164h258v-1l-307 -313h-264l-197 313v1h256z" />
    <glyph glyph-name="uni01D0" unicode="&#x1d0;" horiz-adv-x="537" 
d="M9 0l175 1056h344l-175 -1056h-344zM302 1503l98 -164l156 164h258v-1l-307 -313h-264l-197 313v1h256z" />
    <glyph glyph-name="uni01D1" unicode="&#x1d1;" horiz-adv-x="1531" 
d="M692 -24q-181 0 -319.5 73.5t-216.5 212t-78 334.5q0 182 58.5 347.5t168 294t263 202.5t343.5 74q181 0 319 -73t216.5 -212t78.5 -335q0 -186 -60 -352t-170 -293t-263 -200t-340 -73zM708 290q113 0 199 54t143.5 142.5t87 194.5t29.5 211q0 149 -72 228.5t-200 79.5
q-112 0 -197.5 -53.5t-143.5 -141.5t-88 -194.5t-30 -211.5q0 -150 71.5 -229.5t200.5 -79.5zM870 1937l98 -164l156 164h258v-1l-307 -313h-264l-197 313v1h256z" />
    <glyph glyph-name="uni01D2" unicode="&#x1d2;" horiz-adv-x="1215" 
d="M534 -24q-225 0 -356.5 124t-131.5 334q0 182 81 328.5t224.5 232t329.5 85.5q226 0 357 -124.5t131 -334.5q0 -130 -44 -246.5t-127 -206t-200.5 -141t-263.5 -51.5zM556 250q88 0 148 57t90.5 143.5t30.5 172.5q0 90 -48 136.5t-118 46.5q-87 0 -147 -57t-91 -143
t-31 -174q0 -90 48 -136t118 -46zM641 1503l98 -164l156 164h258v-1l-307 -313h-264l-197 313v1h256z" />
    <glyph glyph-name="uni01D3" unicode="&#x1d3;" horiz-adv-x="1443" 
d="M648 -24q-195 0 -328 71t-192.5 197.5t-32.5 291.5l158 954h351l-157 -948q-19 -118 40 -189t176 -71q87 0 160 38t120.5 102t60.5 143l153 925h351l-162 -977q-27 -164 -122 -285t-242.5 -186.5t-333.5 -65.5zM826 1937l98 -164l156 164h258v-1l-307 -313h-264l-197 313
v1h256z" />
    <glyph glyph-name="uni01D4" unicode="&#x1d4;" horiz-adv-x="1231" 
d="M368 -23q-173 0 -250 110t-45 305l110 664h345l-99 -592q-15 -94 21.5 -143.5t118.5 -49.5t139 51.5t75 159.5l95 574h345l-175 -1056h-340l28 171q-68 -91 -158.5 -142.5t-209.5 -51.5zM649 1503l98 -164l156 164h258v-1l-307 -313h-264l-197 313v1h256z" />
    <glyph glyph-name="uni01D5" unicode="&#x1d5;" horiz-adv-x="1443" 
d="M648 -24q-195 0 -328 71t-192.5 197.5t-32.5 291.5l158 954h351l-157 -948q-19 -118 40 -189t176 -71q87 0 160 38t120.5 102t60.5 143l153 925h351l-162 -977q-27 -164 -122 -285t-242.5 -186.5t-333.5 -65.5zM1319 2213l-35 -189h-589l35 189h589zM653 1585
q-78 0 -121 48.5t-30 123.5q12 74 71 122.5t137 48.5q79 0 122.5 -48.5t30.5 -122.5q-12 -75 -71.5 -123.5t-138.5 -48.5zM1110 1585q-79 0 -122 48.5t-30 123.5q12 74 71 122.5t138 48.5q78 0 121.5 -48.5t30.5 -122.5q-12 -75 -71.5 -123.5t-137.5 -48.5z" />
    <glyph glyph-name="uni01D6" unicode="&#x1d6;" horiz-adv-x="1231" 
d="M368 -23q-173 0 -250 110t-45 305l110 664h345l-99 -592q-15 -94 21.5 -143.5t118.5 -49.5t139 51.5t75 159.5l95 574h345l-175 -1056h-340l28 171q-68 -91 -158.5 -142.5t-209.5 -51.5zM1141 1779l-35 -189h-589l35 189h589zM475 1151q-78 0 -121 48.5t-30 123.5
q12 74 71 122.5t137 48.5q79 0 122.5 -48.5t30.5 -122.5q-12 -75 -71.5 -123.5t-138.5 -48.5zM932 1151q-79 0 -122 48.5t-30 123.5q12 74 71 122.5t138 48.5q78 0 121.5 -48.5t30.5 -122.5q-12 -75 -71.5 -123.5t-137.5 -48.5z" />
    <glyph glyph-name="uni01D7" unicode="&#x1d7;" horiz-adv-x="1443" 
d="M648 -24q-195 0 -328 71t-192.5 197.5t-32.5 291.5l158 954h351l-157 -948q-19 -118 40 -189t176 -71q87 0 160 38t120.5 102t60.5 143l153 925h351l-162 -977q-27 -164 -122 -285t-242.5 -186.5t-333.5 -65.5zM653 1585q-78 0 -121 48.5t-30 123.5q12 74 71 122.5
t137 48.5q79 0 122.5 -48.5t30.5 -122.5q-12 -75 -71.5 -123.5t-138.5 -48.5zM1110 1585q-79 0 -122 48.5t-30 123.5q12 74 71 122.5t138 48.5q78 0 121.5 -48.5t30.5 -122.5q-12 -75 -71.5 -123.5t-137.5 -48.5zM855 1978l219 289h298l-302 -289h-215z" />
    <glyph glyph-name="uni01D8" unicode="&#x1d8;" horiz-adv-x="1231" 
d="M368 -23q-173 0 -250 110t-45 305l110 664h345l-99 -592q-15 -94 21.5 -143.5t118.5 -49.5t139 51.5t75 159.5l95 574h345l-175 -1056h-340l28 171q-68 -91 -158.5 -142.5t-209.5 -51.5zM475 1151q-78 0 -121 48.5t-30 123.5q12 74 71 122.5t137 48.5q79 0 122.5 -48.5
t30.5 -122.5q-12 -75 -71.5 -123.5t-138.5 -48.5zM932 1151q-79 0 -122 48.5t-30 123.5q12 74 71 122.5t138 48.5q78 0 121.5 -48.5t30.5 -122.5q-12 -75 -71.5 -123.5t-137.5 -48.5zM677 1544l219 289h298l-302 -289h-215z" />
    <glyph glyph-name="uni01D9" unicode="&#x1d9;" horiz-adv-x="1443" 
d="M648 -24q-195 0 -328 71t-192.5 197.5t-32.5 291.5l158 954h351l-157 -948q-19 -118 40 -189t176 -71q87 0 160 38t120.5 102t60.5 143l153 925h351l-162 -977q-27 -164 -122 -285t-242.5 -186.5t-333.5 -65.5zM894 2261l90 -152l145 152h236v-1l-282 -288h-242l-182 288
v1h235zM653 1585q-78 0 -121 48.5t-30 123.5q12 74 71 122.5t137 48.5q79 0 122.5 -48.5t30.5 -122.5q-12 -75 -71.5 -123.5t-138.5 -48.5zM1110 1585q-79 0 -122 48.5t-30 123.5q12 74 71 122.5t138 48.5q78 0 121.5 -48.5t30.5 -122.5q-12 -75 -71.5 -123.5t-137.5 -48.5z
" />
    <glyph glyph-name="uni01DA" unicode="&#x1da;" horiz-adv-x="1231" 
d="M368 -23q-173 0 -250 110t-45 305l110 664h345l-99 -592q-15 -94 21.5 -143.5t118.5 -49.5t139 51.5t75 159.5l95 574h345l-175 -1056h-340l28 171q-68 -91 -158.5 -142.5t-209.5 -51.5zM716 1827l90 -152l145 152h236v-1l-282 -288h-242l-182 288v1h235zM475 1151
q-78 0 -121 48.5t-30 123.5q12 74 71 122.5t137 48.5q79 0 122.5 -48.5t30.5 -122.5q-12 -75 -71.5 -123.5t-138.5 -48.5zM932 1151q-79 0 -122 48.5t-30 123.5q12 74 71 122.5t138 48.5q78 0 121.5 -48.5t30.5 -122.5q-12 -75 -71.5 -123.5t-137.5 -48.5z" />
    <glyph glyph-name="uni01DB" unicode="&#x1db;" horiz-adv-x="1443" 
d="M648 -24q-195 0 -328 71t-192.5 197.5t-32.5 291.5l158 954h351l-157 -948q-19 -118 40 -189t176 -71q87 0 160 38t120.5 102t60.5 143l153 925h351l-162 -977q-27 -164 -122 -285t-242.5 -186.5t-333.5 -65.5zM1110 1586q-79 0 -122 48.5t-30 122.5q12 75 71 123.5
t138 48.5q78 0 121.5 -48.5t30.5 -123.5q-12 -74 -71.5 -122.5t-137.5 -48.5zM653 1586q-78 0 -121 48.5t-30 122.5q12 75 71 123.5t137 48.5q79 0 122.5 -48.5t30.5 -123.5q-12 -74 -71.5 -122.5t-138.5 -48.5zM857 1978l-208 289h298l125 -289h-215z" />
    <glyph glyph-name="uni01DC" unicode="&#x1dc;" horiz-adv-x="1231" 
d="M368 -23q-173 0 -250 110t-45 305l110 664h345l-99 -592q-15 -94 21.5 -143.5t118.5 -49.5t139 51.5t75 159.5l95 574h345l-175 -1056h-340l28 171q-68 -91 -158.5 -142.5t-209.5 -51.5zM932 1152q-79 0 -122 48.5t-30 122.5q12 75 71 123.5t138 48.5q78 0 121.5 -48.5
t30.5 -123.5q-12 -74 -71.5 -122.5t-137.5 -48.5zM475 1152q-78 0 -121 48.5t-30 122.5q12 75 71 123.5t137 48.5q79 0 122.5 -48.5t30.5 -123.5q-12 -74 -71.5 -122.5t-138.5 -48.5zM679 1544l-208 289h298l125 -289h-215z" />
    <glyph glyph-name="eturn" unicode="&#x1dd;" horiz-adv-x="1171" 
d="M638 1080q249 0 383 -132.5t100 -395.5q-21 -178 -108.5 -307.5t-225 -199t-309.5 -69.5q-122 0 -221 37t-157.5 111.5t-58.5 189.5q0 137 89.5 207t257.5 95t403 28q1 85 -35.5 136t-145.5 51q-90 0 -142 -34t-72 -90h-319q57 168 199 270.5t362 102.5zM767 432
q-169 -5 -257.5 -19t-120 -38t-31.5 -57q0 -91 156 -91q124 0 178.5 60t74.5 145z" />
    <glyph glyph-name="uni01DE" unicode="&#x1de;" horiz-adv-x="1511" 
d="M-82 0l759 1490h474l268 -1490h-390l-41 287h-529l-138 -287h-403zM596 568h352l-13 87q-16 125 -31.5 250t-30.5 262q-61 -137 -118.5 -262t-116.5 -250zM1355 2213l-35 -189h-589l35 189h589zM689 1585q-78 0 -121 48.5t-30 123.5q12 74 71 122.5t137 48.5
q79 0 122.5 -48.5t30.5 -122.5q-12 -75 -71.5 -123.5t-138.5 -48.5zM1146 1585q-79 0 -122 48.5t-30 123.5q12 74 71 122.5t138 48.5q78 0 121.5 -48.5t30.5 -122.5q-12 -75 -71.5 -123.5t-137.5 -48.5z" />
    <glyph glyph-name="uni01DF" unicode="&#x1df;" horiz-adv-x="1245" 
d="M416 -23q-138 0 -229.5 68.5t-127 193t-8.5 291.5q27 161 105.5 285t192 194t247.5 70q208 0 277 -161h5l23 138h336l-175 -1056h-336l26 157h-4q-55 -88 -141 -134t-191 -46zM558 252q98 0 171.5 75.5t93.5 202.5q21 125 -27.5 200t-145.5 75q-95 0 -162 -73t-88 -202
q-22 -130 20.5 -204t137.5 -74zM1157 1779l-35 -189h-589l35 189h589zM491 1151q-78 0 -121 48.5t-30 123.5q12 74 71 122.5t137 48.5q79 0 122.5 -48.5t30.5 -122.5q-12 -75 -71.5 -123.5t-138.5 -48.5zM948 1151q-79 0 -122 48.5t-30 123.5q12 74 71 122.5t138 48.5
q78 0 121.5 -48.5t30.5 -122.5q-12 -75 -71.5 -123.5t-137.5 -48.5z" />
    <glyph glyph-name="uni01E0" unicode="&#x1e0;" horiz-adv-x="1511" 
d="M-82 0l759 1490h474l268 -1490h-390l-41 287h-529l-138 -287h-403zM596 568h352l-13 87q-16 125 -31.5 250t-30.5 262q-61 -137 -118.5 -262t-116.5 -250zM1354 2213l-35 -189h-588l35 189h588zM933 1594q-77 0 -122 51t-32 125q12 73 73.5 124.5t138.5 51.5
q78 0 122.5 -51.5t32.5 -124.5q-12 -74 -74 -125t-139 -51z" />
    <glyph glyph-name="uni01E1" unicode="&#x1e1;" horiz-adv-x="1245" 
d="M416 -23q-138 0 -229.5 68.5t-127 193t-8.5 291.5q27 161 105.5 285t192 194t247.5 70q208 0 277 -161h5l23 138h336l-175 -1056h-336l26 157h-4q-55 -88 -141 -134t-191 -46zM558 252q98 0 171.5 75.5t93.5 202.5q21 125 -27.5 200t-145.5 75q-95 0 -162 -73t-88 -202
q-22 -130 20.5 -204t137.5 -74zM1156 1779l-35 -189h-588l35 189h588zM735 1160q-77 0 -122 51t-32 125q12 73 73.5 124.5t138.5 51.5q78 0 122.5 -51.5t32.5 -124.5q-12 -74 -74 -125t-139 -51z" />
    <glyph glyph-name="uni01E2" unicode="&#x1e2;" horiz-adv-x="2057" 
d="M-82 0l850 1490h1388l-50 -300h-686l-50 -303h599l-46 -277h-599l-52 -310h686l-49 -300h-1032l56 337h-457l-188 -337h-370zM625 605h352l97 585h-124zM1824 1865l-35 -210h-589l35 210h589z" />
    <glyph glyph-name="uni01E3" unicode="&#x1e3;" horiz-adv-x="1843" 
d="M374 -18q-190 0 -287.5 85t-73.5 231q25 149 146 232t312 86q36 1 71 0.5t71 -0.5h61h63l16 97q20 119 -138 119q-73 0 -122 -31t-64 -87h-320q23 100 93 183t184 132.5t269 49.5q124 0 201.5 -32t117.5 -87q162 120 388 120q123 0 222.5 -35t158 -106t58.5 -177
q0 -125 -90 -195.5t-258.5 -101.5t-403.5 -38q-1 -13 -1 -22q0 -101 50 -140.5t132 -39.5q90 0 143 35t73 90h321q-58 -172 -199.5 -273t-360.5 -101q-266 0 -392 144q-68 -67 -176.5 -102.5t-264.5 -35.5zM1078 622q168 5 255.5 20t119.5 40t32 61q0 41 -40 63.5t-112 22.5
q-107 0 -169 -48.5t-86 -158.5zM705 425q-46 0 -91.5 -0.5t-90.5 -1.5q-74 -1 -124 -28.5t-58 -80.5q-9 -51 24 -79t97 -28q88 0 155.5 48t80.5 127zM1339 1431l-35 -210h-589l35 210h589z" />
    <glyph glyph-name="Gbar" unicode="&#x1e4;" horiz-adv-x="1512" 
d="M699 -24q-193 0 -332 76t-214 215t-75 329q0 185 59.5 351t170 293.5t263.5 200.5t341 73q174 0 313.5 -64.5t217.5 -183.5t68 -282h-366q-2 99 -61.5 157.5t-174.5 58.5q-120 0 -209 -53.5t-147.5 -142t-87.5 -194.5t-29 -210q0 -149 74 -229.5t217 -80.5
q144 0 244.5 73t126.5 184h-299l44 264h650l-35 -213q-31 -189 -136.5 -329t-266.5 -216.5t-356 -76.5zM770 368l18 108h748l-18 -108h-748z" />
    <glyph glyph-name="gbar" unicode="&#x1e5;" horiz-adv-x="1249" 
d="M474 -432q-249 0 -360 99t-109 251h322q4 -49 42 -77.5t109 -28.5q103 0 169.5 59t82.5 165l23 151h-1q-58 -94 -134.5 -137t-178.5 -43q-185 0 -289 119.5t-104 310.5q0 121 38 236t108 206.5t167.5 145.5t217.5 54q109 0 184 -48t111 -131h1l25 156h342l-166 -1010
q-43 -258 -201 -368t-399 -110zM544 277q88 0 153.5 53t101 134t35.5 165q0 86 -44 134.5t-121 48.5q-89 0 -151 -55.5t-94 -138.5t-32 -168q0 -83 39 -128t113 -45zM627 495l24 144h692l-24 -144h-692z" />
    <glyph glyph-name="Gcaron" unicode="&#x1e6;" horiz-adv-x="1512" 
d="M699 -24q-193 0 -332 76t-214 215t-75 329q0 185 59.5 351t170 293.5t263.5 200.5t341 73q174 0 313.5 -64.5t217.5 -183.5t68 -282h-366q-2 99 -61.5 157.5t-174.5 58.5q-120 0 -209 -53.5t-147.5 -142t-87.5 -194.5t-29 -210q0 -149 74 -229.5t217 -80.5
q144 0 244.5 73t126.5 184h-299l44 264h650l-35 -213q-31 -189 -136.5 -329t-266.5 -216.5t-356 -76.5zM868 1937l98 -164l156 164h258v-1l-307 -313h-264l-197 313v1h256z" />
    <glyph glyph-name="gcaron" unicode="&#x1e7;" horiz-adv-x="1249" 
d="M474 -432q-249 0 -360 99t-109 251h322q4 -49 42 -77.5t109 -28.5q103 0 169.5 59t82.5 165l23 151h-1q-58 -94 -134.5 -137t-178.5 -43q-185 0 -289 119.5t-104 310.5q0 121 38 236t108 206.5t167.5 145.5t217.5 54q109 0 184 -48t111 -131h1l25 156h342l-166 -1010
q-43 -258 -201 -368t-399 -110zM544 277q88 0 153.5 53t101 134t35.5 165q0 86 -44 134.5t-121 48.5q-89 0 -151 -55.5t-94 -138.5t-32 -168q0 -83 39 -128t113 -45zM635 1503l98 -164l156 164h258v-1l-307 -313h-264l-197 313v1h256z" />
    <glyph glyph-name="uni01E8" unicode="&#x1e8;" horiz-adv-x="1447" 
d="M9 0l247 1490h360l-61 -368l-47 -280q58 60 116.5 120t117.5 120l401 408h436l-646 -642l420 -848h-391l-289 619l-242 -240l-62 -379h-360zM823 1937l98 -164l156 164h258v-1l-307 -313h-264l-197 313v1h256z" />
    <glyph glyph-name="uni01E9" unicode="&#x1e9;" horiz-adv-x="1163" 
d="M9 0l247 1490h344l-134 -809h4l383 375h397l-470 -461l312 -595h-397l-203 399l-87 -85l-52 -314h-344zM374 1937l98 -164l156 164h258v-1l-307 -313h-264l-197 313v1h256z" />
    <glyph glyph-name="uni01EA" unicode="&#x1ea;" horiz-adv-x="1531" 
d="M692 -24q-181 0 -319.5 73.5t-216.5 212t-78 334.5q0 182 58.5 347.5t168 294t263 202.5t343.5 74q181 0 319 -73t216.5 -212t78.5 -335q0 -186 -60 -352t-170 -293t-263 -200t-340 -73zM708 290q113 0 199 54t143.5 142.5t87 194.5t29.5 211q0 149 -72 228.5t-200 79.5
q-112 0 -197.5 -53.5t-143.5 -141.5t-88 -194.5t-30 -211.5q0 -150 71.5 -229.5t200.5 -79.5zM689 -418q-145 0 -216 54.5t-54 154.5q13 80 70 134t142.5 96.5t185.5 87t200.5 104.5t188.5 148t148 217.5t78 315.5h93q-13 -222 -71 -373.5t-142 -250t-175.5 -160
t-173.5 -101.5t-137 -75.5t-63 -83.5q-10 -61 70 -61h57l-34 -207h-167z" />
    <glyph glyph-name="uni01EB" unicode="&#x1eb;" horiz-adv-x="1215" 
d="M534 -24q-225 0 -356.5 124t-131.5 334q0 182 81 328.5t224.5 232t329.5 85.5q226 0 357 -124.5t131 -334.5q0 -130 -44 -246.5t-127 -206t-200.5 -141t-263.5 -51.5zM556 250q88 0 148 57t90.5 143.5t30.5 172.5q0 90 -48 136.5t-118 46.5q-87 0 -147 -57t-91 -143
t-31 -174q0 -90 48 -136t118 -46zM520 -418q-149 0 -219 54t-53 154q14 85 74.5 141t148 96.5t184.5 80.5t186.5 92t154 130.5t83.5 197.5h83q-21 -129 -69.5 -218t-111.5 -149t-129 -100.5t-124.5 -72t-97 -63.5t-45.5 -75q-11 -61 73 -61h52l-34 -207h-156z" />
    <glyph glyph-name="uni01EC" unicode="&#x1ec;" horiz-adv-x="1531" 
d="M692 -24q-181 0 -319.5 73.5t-216.5 212t-78 334.5q0 182 58.5 347.5t168 294t263 202.5t343.5 74q181 0 319 -73t216.5 -212t78.5 -335q0 -186 -60 -352t-170 -293t-263 -200t-340 -73zM708 290q113 0 199 54t143.5 142.5t87 194.5t29.5 211q0 149 -72 228.5t-200 79.5
q-112 0 -197.5 -53.5t-143.5 -141.5t-88 -194.5t-30 -211.5q0 -150 71.5 -229.5t200.5 -79.5zM689 -418q-145 0 -216 54.5t-54 154.5q13 80 70 134t142.5 96.5t185.5 87t200.5 104.5t188.5 148t148 217.5t78 315.5h93q-13 -222 -71 -373.5t-142 -250t-175.5 -160
t-173.5 -101.5t-137 -75.5t-63 -83.5q-10 -61 70 -61h57l-34 -207h-167zM1281 1865l-35 -210h-589l35 210h589z" />
    <glyph glyph-name="uni01ED" unicode="&#x1ed;" horiz-adv-x="1215" 
d="M534 -24q-225 0 -356.5 124t-131.5 334q0 182 81 328.5t224.5 232t329.5 85.5q226 0 357 -124.5t131 -334.5q0 -130 -44 -246.5t-127 -206t-200.5 -141t-263.5 -51.5zM556 250q88 0 148 57t90.5 143.5t30.5 172.5q0 90 -48 136.5t-118 46.5q-87 0 -147 -57t-91 -143
t-31 -174q0 -90 48 -136t118 -46zM520 -418q-149 0 -219 54t-53 154q14 85 74.5 141t148 96.5t184.5 80.5t186.5 92t154 130.5t83.5 197.5h83q-21 -129 -69.5 -218t-111.5 -149t-129 -100.5t-124.5 -72t-97 -63.5t-45.5 -75q-11 -61 73 -61h52l-34 -207h-156zM1051 1431
l-35 -210h-589l35 210h589z" />
    <glyph glyph-name="uni01EE" unicode="&#x1ee;" horiz-adv-x="1367" 
d="M-25 119h353q-14 -119 52 -193.5t180 -74.5q134 0 225.5 100.5t116.5 253.5q28 173 -45.5 272.5t-214.5 98.5h-174l41 249l455 361v12h-729l49 292h1158l-42 -254l-545 -430l-3 -14q152 -14 254.5 -91t145.5 -202.5t17 -286.5q-31 -190 -138.5 -337.5t-267 -232
t-347.5 -84.5q-180 0 -310 72.5t-192.5 199t-38.5 289.5zM818 2123l98 -164l156 164h258v-1l-307 -313h-264l-197 313v1h256z" />
    <glyph glyph-name="uni01EF" unicode="&#x1ef;" horiz-adv-x="1275" 
d="M512 -458q-193 0 -318.5 73t-179 192.5t-30.5 259.5h340q-19 -112 36.5 -181.5t163.5 -69.5q106 0 180 62.5t92 166.5q16 98 -40 155t-177 57h-222l33 203l380 310v1h-599l48 285h1019l-45 -271l-437 -348q212 -9 312.5 -122t72.5 -283q-24 -143 -106.5 -253.5
t-215 -173.5t-307.5 -63zM675 1503l98 -164l156 164h258v-1l-307 -313h-264l-197 313v1h256z" />
    <glyph glyph-name="uni01F0" unicode="&#x1f0;" horiz-adv-x="538" 
d="M185 1056h345l-186 -1120q-28 -173 -140 -263.5t-304 -90.5h-135l44 267h70q56 0 85.5 28.5t40.5 93.5zM303 1503l98 -164l156 164h258v-1l-307 -313h-264l-197 313v1h256z" />
    <glyph glyph-name="uni01F1" unicode="&#x1f1;" horiz-adv-x="2795" 
d="M629 0h-620l247 1490h533q227 0 384 -91.5t225.5 -258.5t31.5 -395q-38 -228 -140 -395t-267 -258.5t-394 -91.5zM418 300h176q205 0 321 112.5t152 332.5q37 220 -38.5 332.5t-282.5 112.5h-180zM1448 0l33 201l892 1003h-726l47 286h1171l-33 -202l-892 -1002h726
l-47 -286h-1171z" />
    <glyph glyph-name="uni01F2" unicode="&#x1f2;" horiz-adv-x="2553" 
d="M629 0h-620l247 1490h533q227 0 384 -91.5t225.5 -258.5t31.5 -395q-38 -228 -140 -395t-267 -258.5t-394 -91.5zM418 300h176q205 0 321 112.5t152 332.5q37 220 -38.5 332.5t-282.5 112.5h-180zM1456 0l37 226l586 560l1 2h-494l45 268h905l-40 -239l-573 -549v-2h491
l-44 -266h-914z" />
    <glyph glyph-name="uni01F3" unicode="&#x1f3;" horiz-adv-x="2239" 
d="M435 -23q-184 0 -287.5 118.5t-103.5 318.5q0 124 36.5 242.5t105.5 214t168 152t224 56.5q215 0 292 -181h1l97 592h345l-246 -1490h-341l25 155h-1q-55 -96 -136.5 -137t-178.5 -41zM541 252q89 0 155 56t102 140t36 169q0 89 -44.5 138.5t-121.5 49.5
q-90 0 -152.5 -57.5t-94.5 -144t-32 -173.5q0 -86 39 -132t113 -46zM1141 0l37 226l586 560l1 2h-494l45 268h905l-40 -239l-573 -549v-2h491l-44 -266h-914z" />
    <glyph glyph-name="uni01F4" unicode="&#x1f4;" horiz-adv-x="1512" 
d="M699 -24q-193 0 -332 76t-214 215t-75 329q0 185 59.5 351t170 293.5t263.5 200.5t341 73q174 0 313.5 -64.5t217.5 -183.5t68 -282h-366q-2 99 -61.5 157.5t-174.5 58.5q-120 0 -209 -53.5t-147.5 -142t-87.5 -194.5t-29 -210q0 -149 74 -229.5t217 -80.5
q144 0 244.5 73t126.5 184h-299l44 264h650l-35 -213q-31 -189 -136.5 -329t-266.5 -216.5t-356 -76.5zM808 1629l239 314h326l-330 -314h-235z" />
    <glyph glyph-name="uni01F5" unicode="&#x1f5;" horiz-adv-x="1249" 
d="M474 -432q-249 0 -360 99t-109 251h322q4 -49 42 -77.5t109 -28.5q103 0 169.5 59t82.5 165l23 151h-1q-58 -94 -134.5 -137t-178.5 -43q-185 0 -289 119.5t-104 310.5q0 121 38 236t108 206.5t167.5 145.5t217.5 54q109 0 184 -48t111 -131h1l25 156h342l-166 -1010
q-43 -258 -201 -368t-399 -110zM544 277q88 0 153.5 53t101 134t35.5 165q0 86 -44 134.5t-121 48.5q-89 0 -151 -55.5t-94 -138.5t-32 -168q0 -83 39 -128t113 -45zM575 1195l239 314h326l-330 -314h-235z" />
    <glyph glyph-name="uni01F6" unicode="&#x1f6;" horiz-adv-x="2196" 
d="M1493 -23q-165 0 -281.5 60.5t-170.5 166.5t-31 242l26 159h-567l-100 -605h-360l246 1490h360l-96 -579h568l95 579h360l-173 -1045q-31 -186 136 -186q94 0 160 58.5t81 150.5l97 588h345l-105 -632q-22 -136 -103.5 -236.5t-207.5 -155.5t-279 -55z" />
    <glyph glyph-name="uni01F7" unicode="&#x1f7;" horiz-adv-x="1555" 
d="M659 1487l-5 -32q54 25 122 38.5t149 13.5q182 0 314 -78t188.5 -226.5t13.5 -359.5l-12 -55q-61 -302 -320.5 -544t-714.5 -387l-45 -275h-345l312 1905h343zM441 147q270 103 430 262t203 379l12 59q13 69 14.5 137t-17.5 124t-67 89.5t-134 33.5q-77 0 -149 -26.5
t-132 -72.5z" />
    <glyph glyph-name="uni01F8" unicode="&#x1f8;" horiz-adv-x="1499" 
d="M9 0l247 1490h369l313 -677q19 -43 49.5 -120t61.5 -158q12 89 25 174t21 135l107 646h360l-247 -1490h-369l-286 620q-25 52 -61.5 140t-77.5 195q-14 -110 -28 -198.5t-22 -135.5l-102 -621h-360zM832 1618l-226 319h326l135 -319h-235z" />
    <glyph glyph-name="uni01F9" unicode="&#x1f9;" horiz-adv-x="1231" 
d="M446 563l-93 -563h-344l174 1056h340l-26 -155q66 85 151 131.5t197 46.5q179 0 261.5 -115.5t49.5 -311.5l-108 -652h-344l99 604q15 93 -22.5 137t-113.5 44q-88 0 -145.5 -57.5t-75.5 -164.5zM623 1184l-226 319h326l135 -319h-235z" />
    <glyph glyph-name="Aringacute" unicode="&#x1fa;" horiz-adv-x="1511" 
d="M-82 0l759 1490h474l268 -1490h-390l-41 287h-529l-138 -287h-403zM596 568h352l-13 87q-16 125 -31.5 250t-30.5 262q-61 -137 -118.5 -262t-116.5 -250zM949 1570q-120 0 -185.5 71.5t-46.5 180.5q16 90 93.5 149t181.5 59q120 0 185.5 -71t46.5 -180
q-16 -91 -93.5 -150t-181.5 -59zM901 2089l183 218h277l-247 -218h-213zM954 1705q43 0 75 27t40 68q7 41 -16.5 68t-65.5 27q-43 0 -75.5 -27t-38.5 -68q-8 -41 15.5 -68t65.5 -27z" />
    <glyph glyph-name="aringacute" unicode="&#x1fb;" horiz-adv-x="1245" 
d="M416 -23q-138 0 -229.5 68.5t-127 193t-8.5 291.5q27 161 105.5 285t192 194t247.5 70q208 0 277 -161h5l23 138h336l-175 -1056h-336l26 157h-4q-55 -88 -141 -134t-191 -46zM558 252q98 0 171.5 75.5t93.5 202.5q21 125 -27.5 200t-145.5 75q-95 0 -162 -73t-88 -202
q-22 -130 20.5 -204t137.5 -74zM751 1136q-120 0 -185.5 71.5t-46.5 180.5q16 90 93.5 149t181.5 59q120 0 185.5 -71t46.5 -180q-16 -91 -93.5 -150t-181.5 -59zM703 1655l183 218h277l-247 -218h-213zM756 1271q43 0 75 27t40 68q7 41 -16.5 68t-65.5 27q-43 0 -75.5 -27
t-38.5 -68q-8 -41 15.5 -68t65.5 -27z" />
    <glyph glyph-name="AEacute" unicode="&#x1fc;" horiz-adv-x="2057" 
d="M-82 0l850 1490h1388l-50 -300h-686l-50 -303h599l-46 -277h-599l-52 -310h686l-49 -300h-1032l56 337h-457l-188 -337h-370zM625 605h352l97 585h-124zM1353 1629l239 314h326l-330 -314h-235z" />
    <glyph glyph-name="aeacute" unicode="&#x1fd;" horiz-adv-x="1843" 
d="M374 -18q-190 0 -287.5 85t-73.5 231q25 149 146 232t312 86q36 1 71 0.5t71 -0.5h61h63l16 97q20 119 -138 119q-73 0 -122 -31t-64 -87h-320q23 100 93 183t184 132.5t269 49.5q124 0 201.5 -32t117.5 -87q162 120 388 120q123 0 222.5 -35t158 -106t58.5 -177
q0 -125 -90 -195.5t-258.5 -101.5t-403.5 -38q-1 -13 -1 -22q0 -101 50 -140.5t132 -39.5q90 0 143 35t73 90h321q-58 -172 -199.5 -273t-360.5 -101q-266 0 -392 144q-68 -67 -176.5 -102.5t-264.5 -35.5zM1078 622q168 5 255.5 20t119.5 40t32 61q0 41 -40 63.5t-112 22.5
q-107 0 -169 -48.5t-86 -158.5zM705 425q-46 0 -91.5 -0.5t-90.5 -1.5q-74 -1 -124 -28.5t-58 -80.5q-9 -51 24 -79t97 -28q88 0 155.5 48t80.5 127zM868 1195l239 314h326l-330 -314h-235z" />
    <glyph glyph-name="Oslashacute" unicode="&#x1fe;" horiz-adv-x="1531" 
d="M692 -24q-181 0 -319.5 73.5t-216.5 212t-78 334.5q0 182 58.5 347.5t168 294t263 202.5t343.5 74q181 0 319 -73t216.5 -212t78.5 -335q0 -186 -60 -352t-170 -293t-263 -200t-340 -73zM708 290q113 0 199 54t143.5 142.5t87 194.5t29.5 211q0 149 -72 228.5t-200 79.5
q-112 0 -197.5 -53.5t-143.5 -141.5t-88 -194.5t-30 -211.5q0 -150 71.5 -229.5t200.5 -79.5zM109 -81l-159 162l1545 1490l158 -162zM810 1629l239 314h326l-330 -314h-235z" />
    <glyph glyph-name="oslashacute" unicode="&#x1ff;" horiz-adv-x="1215" 
d="M534 -24q-225 0 -356.5 124t-131.5 334q0 182 81 328.5t224.5 232t329.5 85.5q226 0 357 -124.5t131 -334.5q0 -130 -44 -246.5t-127 -206t-200.5 -141t-263.5 -51.5zM556 250q88 0 148 57t90.5 143.5t30.5 172.5q0 90 -48 136.5t-118 46.5q-87 0 -147 -57t-91 -143
t-31 -174q0 -90 48 -136t118 -46zM66 -51l-90 102l1172 1056l90 -102zM580 1195l239 314h326l-330 -314h-235z" />
    <glyph glyph-name="uni0200" unicode="&#x200;" horiz-adv-x="1511" 
d="M-82 0l759 1490h474l268 -1490h-390l-41 287h-529l-138 -287h-403zM596 568h352l-13 87q-16 125 -31.5 250t-30.5 262q-61 -137 -118.5 -262t-116.5 -250zM663 1618l-232 319h320l154 -319h-242zM1032 1618l-147 319h294l88 -319h-235z" />
    <glyph glyph-name="uni0201" unicode="&#x201;" horiz-adv-x="1245" 
d="M416 -23q-138 0 -229.5 68.5t-127 193t-8.5 291.5q27 161 105.5 285t192 194t247.5 70q208 0 277 -161h5l23 138h336l-175 -1056h-336l26 157h-4q-55 -88 -141 -134t-191 -46zM558 252q98 0 171.5 75.5t93.5 202.5q21 125 -27.5 200t-145.5 75q-95 0 -162 -73t-88 -202
q-22 -130 20.5 -204t137.5 -74zM466 1184l-232 319h320l154 -319h-242zM835 1184l-147 319h294l88 -319h-235z" />
    <glyph glyph-name="uni0202" unicode="&#x202;" horiz-adv-x="1511" 
d="M-82 0l759 1490h474l268 -1490h-390l-41 287h-529l-138 -287h-403zM596 568h352l-13 87q-16 125 -31.5 250t-30.5 262q-61 -137 -118.5 -262t-116.5 -250zM991 1943q106 0 181.5 -43t111 -115t21.5 -162h-199q10 64 -30 104.5t-114 40.5t-128 -40.5t-64 -104.5h-198
q15 90 74.5 162t149.5 115t195 43z" />
    <glyph glyph-name="uni0203" unicode="&#x203;" horiz-adv-x="1245" 
d="M416 -23q-138 0 -229.5 68.5t-127 193t-8.5 291.5q27 161 105.5 285t192 194t247.5 70q208 0 277 -161h5l23 138h336l-175 -1056h-336l26 157h-4q-55 -88 -141 -134t-191 -46zM558 252q98 0 171.5 75.5t93.5 202.5q21 125 -27.5 200t-145.5 75q-95 0 -162 -73t-88 -202
q-22 -130 20.5 -204t137.5 -74zM793 1509q106 0 181.5 -43t111 -115t21.5 -162h-199q10 64 -30 104.5t-114 40.5t-128 -40.5t-64 -104.5h-198q15 90 74.5 162t149.5 115t195 43z" />
    <glyph glyph-name="uni0204" unicode="&#x204;" horiz-adv-x="1264" 
d="M9 0l247 1490h1109l-50 -306h-751l-47 -287h693l-49 -297h-693l-49 -294h750l-50 -306h-1110zM558 1618l-232 319h320l154 -319h-242zM927 1618l-147 319h294l88 -319h-235z" />
    <glyph glyph-name="uni0205" unicode="&#x205;" horiz-adv-x="1171" 
d="M533 -24q-248 0 -382.5 132.5t-100.5 395.5q22 178 109.5 307.5t224.5 199t309 69.5q122 0 221.5 -37t157.5 -111.5t58 -189.5q0 -137 -89.5 -207t-257.5 -95t-403 -28q-1 -85 35.5 -136t145.5 -51q90 0 142 34t72 90h319q-57 -168 -198.5 -270.5t-362.5 -102.5zM405 624
q169 5 257 19t119.5 38t31.5 57q0 91 -156 91q-124 0 -178 -60t-74 -145zM447 1184l-232 319h320l154 -319h-242zM816 1184l-147 319h294l88 -319h-235z" />
    <glyph glyph-name="uni0206" unicode="&#x206;" horiz-adv-x="1264" 
d="M9 0l247 1490h1109l-50 -306h-751l-47 -287h693l-49 -297h-693l-49 -294h750l-50 -306h-1110zM885 1943q106 0 181.5 -43t111 -115t21.5 -162h-199q10 64 -30 104.5t-114 40.5t-128 -40.5t-64 -104.5h-198q15 90 74.5 162t149.5 115t195 43z" />
    <glyph glyph-name="uni0207" unicode="&#x207;" horiz-adv-x="1171" 
d="M533 -24q-248 0 -382.5 132.5t-100.5 395.5q22 178 109.5 307.5t224.5 199t309 69.5q122 0 221.5 -37t157.5 -111.5t58 -189.5q0 -137 -89.5 -207t-257.5 -95t-403 -28q-1 -85 35.5 -136t145.5 -51q90 0 142 34t72 90h319q-57 -168 -198.5 -270.5t-362.5 -102.5zM405 624
q169 5 257 19t119.5 38t31.5 57q0 91 -156 91q-124 0 -178 -60t-74 -145zM775 1509q106 0 181.5 -43t111 -115t21.5 -162h-199q10 64 -30 104.5t-114 40.5t-128 -40.5t-64 -104.5h-198q15 90 74.5 162t149.5 115t195 43z" />
    <glyph glyph-name="uni0208" unicode="&#x208;" horiz-adv-x="553" 
d="M616 1490l-247 -1490h-360l247 1490h360zM183 1618l-232 319h320l154 -319h-242zM552 1618l-147 319h294l88 -319h-235z" />
    <glyph glyph-name="uni0209" unicode="&#x209;" horiz-adv-x="537" 
d="M9 0l175 1056h344l-175 -1056h-344zM103 1184l-232 319h320l154 -319h-242zM472 1184l-147 319h294l88 -319h-235z" />
    <glyph glyph-name="uni020A" unicode="&#x20a;" horiz-adv-x="553" 
d="M616 1490l-247 -1490h-360l247 1490h360zM510 1943q106 0 181.5 -43t111 -115t21.5 -162h-199q10 64 -30 104.5t-114 40.5t-128 -40.5t-64 -104.5h-198q15 90 74.5 162t149.5 115t195 43z" />
    <glyph glyph-name="uni020B" unicode="&#x20b;" horiz-adv-x="537" 
d="M9 0l175 1056h344l-175 -1056h-344zM430 1509q106 0 181.5 -43t111 -115t21.5 -162h-199q10 64 -30 104.5t-114 40.5t-128 -40.5t-64 -104.5h-198q15 90 74.5 162t149.5 115t195 43z" />
    <glyph glyph-name="uni020C" unicode="&#x20c;" horiz-adv-x="1531" 
d="M692 -24q-181 0 -319.5 73.5t-216.5 212t-78 334.5q0 182 58.5 347.5t168 294t263 202.5t343.5 74q181 0 319 -73t216.5 -212t78.5 -335q0 -186 -60 -352t-170 -293t-263 -200t-340 -73zM708 290q113 0 199 54t143.5 142.5t87 194.5t29.5 211q0 149 -72 228.5t-200 79.5
q-112 0 -197.5 -53.5t-143.5 -141.5t-88 -194.5t-30 -211.5q0 -150 71.5 -229.5t200.5 -79.5zM672 1618l-232 319h320l154 -319h-242zM1041 1618l-147 319h294l88 -319h-235z" />
    <glyph glyph-name="uni020D" unicode="&#x20d;" horiz-adv-x="1215" 
d="M534 -24q-225 0 -356.5 124t-131.5 334q0 182 81 328.5t224.5 232t329.5 85.5q226 0 357 -124.5t131 -334.5q0 -130 -44 -246.5t-127 -206t-200.5 -141t-263.5 -51.5zM556 250q88 0 148 57t90.5 143.5t30.5 172.5q0 90 -48 136.5t-118 46.5q-87 0 -147 -57t-91 -143
t-31 -174q0 -90 48 -136t118 -46zM442 1184l-232 319h320l154 -319h-242zM811 1184l-147 319h294l88 -319h-235z" />
    <glyph glyph-name="uni020E" unicode="&#x20e;" horiz-adv-x="1531" 
d="M692 -24q-181 0 -319.5 73.5t-216.5 212t-78 334.5q0 182 58.5 347.5t168 294t263 202.5t343.5 74q181 0 319 -73t216.5 -212t78.5 -335q0 -186 -60 -352t-170 -293t-263 -200t-340 -73zM708 290q113 0 199 54t143.5 142.5t87 194.5t29.5 211q0 149 -72 228.5t-200 79.5
q-112 0 -197.5 -53.5t-143.5 -141.5t-88 -194.5t-30 -211.5q0 -150 71.5 -229.5t200.5 -79.5zM999 1943q106 0 181.5 -43t111 -115t21.5 -162h-199q10 64 -30 104.5t-114 40.5t-128 -40.5t-64 -104.5h-198q15 90 74.5 162t149.5 115t195 43z" />
    <glyph glyph-name="uni020F" unicode="&#x20f;" horiz-adv-x="1215" 
d="M534 -24q-225 0 -356.5 124t-131.5 334q0 182 81 328.5t224.5 232t329.5 85.5q226 0 357 -124.5t131 -334.5q0 -130 -44 -246.5t-127 -206t-200.5 -141t-263.5 -51.5zM556 250q88 0 148 57t90.5 143.5t30.5 172.5q0 90 -48 136.5t-118 46.5q-87 0 -147 -57t-91 -143
t-31 -174q0 -90 48 -136t118 -46zM769 1509q106 0 181.5 -43t111 -115t21.5 -162h-199q10 64 -30 104.5t-114 40.5t-128 -40.5t-64 -104.5h-198q15 90 74.5 162t149.5 115t195 43z" />
    <glyph glyph-name="uni0210" unicode="&#x210;" horiz-adv-x="1347" 
d="M9 0l247 1490h612q172 0 288.5 -61.5t167 -174.5t24.5 -268q-24 -143 -107 -250.5t-211 -168.5l192 -567h-367l-162 495h-8h-234l-82 -495h-360zM498 778h229q108 0 181 58t89 152q16 95 -38 151t-163 56h-229zM570 1618l-232 319h320l154 -319h-242zM939 1618l-147 319
h294l88 -319h-235z" />
    <glyph glyph-name="uni0211" unicode="&#x211;" horiz-adv-x="807" 
d="M9 0l175 1056h333l-31 -186h3q45 101 114 145.5t176 44.5q27 0 49.5 -0.5t43.5 -1.5l-47 -284q-18 1 -58 2t-78 1q-92 0 -160 -62t-86 -174l-90 -541h-344zM277 1184l-232 319h320l154 -319h-242zM646 1184l-147 319h294l88 -319h-235z" />
    <glyph glyph-name="uni0212" unicode="&#x212;" horiz-adv-x="1347" 
d="M9 0l247 1490h612q172 0 288.5 -61.5t167 -174.5t24.5 -268q-24 -143 -107 -250.5t-211 -168.5l192 -567h-367l-162 495h-8h-234l-82 -495h-360zM498 778h229q108 0 181 58t89 152q16 95 -38 151t-163 56h-229zM897 1943q106 0 181.5 -43t111 -115t21.5 -162h-199
q10 64 -30 104.5t-114 40.5t-128 -40.5t-64 -104.5h-198q15 90 74.5 162t149.5 115t195 43z" />
    <glyph glyph-name="uni0213" unicode="&#x213;" horiz-adv-x="807" 
d="M9 0l175 1056h333l-31 -186h3q45 101 114 145.5t176 44.5q27 0 49.5 -0.5t43.5 -1.5l-47 -284q-18 1 -58 2t-78 1q-92 0 -160 -62t-86 -174l-90 -541h-344zM605 1509q106 0 181.5 -43t111 -115t21.5 -162h-199q10 64 -30 104.5t-114 40.5t-128 -40.5t-64 -104.5h-198
q15 90 74.5 162t149.5 115t195 43z" />
    <glyph glyph-name="uni0214" unicode="&#x214;" horiz-adv-x="1443" 
d="M648 -24q-195 0 -328 71t-192.5 197.5t-32.5 291.5l158 954h351l-157 -948q-19 -118 40 -189t176 -71q87 0 160 38t120.5 102t60.5 143l153 925h351l-162 -977q-27 -164 -122 -285t-242.5 -186.5t-333.5 -65.5zM628 1618l-232 319h320l154 -319h-242zM997 1618l-147 319
h294l88 -319h-235z" />
    <glyph glyph-name="uni0215" unicode="&#x215;" horiz-adv-x="1231" 
d="M368 -23q-173 0 -250 110t-45 305l110 664h345l-99 -592q-15 -94 21.5 -143.5t118.5 -49.5t139 51.5t75 159.5l95 574h345l-175 -1056h-340l28 171q-68 -91 -158.5 -142.5t-209.5 -51.5zM450 1184l-232 319h320l154 -319h-242zM819 1184l-147 319h294l88 -319h-235z" />
    <glyph glyph-name="uni0216" unicode="&#x216;" horiz-adv-x="1443" 
d="M648 -24q-195 0 -328 71t-192.5 197.5t-32.5 291.5l158 954h351l-157 -948q-19 -118 40 -189t176 -71q87 0 160 38t120.5 102t60.5 143l153 925h351l-162 -977q-27 -164 -122 -285t-242.5 -186.5t-333.5 -65.5zM955 1943q106 0 181.5 -43t111 -115t21.5 -162h-199
q10 64 -30 104.5t-114 40.5t-128 -40.5t-64 -104.5h-198q15 90 74.5 162t149.5 115t195 43z" />
    <glyph glyph-name="uni0217" unicode="&#x217;" horiz-adv-x="1231" 
d="M368 -23q-173 0 -250 110t-45 305l110 664h345l-99 -592q-15 -94 21.5 -143.5t118.5 -49.5t139 51.5t75 159.5l95 574h345l-175 -1056h-340l28 171q-68 -91 -158.5 -142.5t-209.5 -51.5zM777 1509q106 0 181.5 -43t111 -115t21.5 -162h-199q10 64 -30 104.5t-114 40.5
t-128 -40.5t-64 -104.5h-198q15 90 74.5 162t149.5 115t195 43z" />
    <glyph glyph-name="uni0218" unicode="&#x218;" horiz-adv-x="1368" 
d="M615 -24q-304 0 -448.5 137t-104.5 379h342q-14 -107 50 -167t192 -60q115 0 193 45.5t90 119.5q11 62 -39 102.5t-180 67.5l-148 32q-211 44 -307.5 157t-68.5 283q22 133 109.5 232.5t224.5 154.5t307 55q270 0 412 -129.5t110 -358.5h-332q7 95 -48.5 147t-163.5 52
q-103 0 -175.5 -45t-84.5 -115q-10 -61 36 -98t169 -62l128 -27q239 -49 337.5 -157.5t68.5 -290.5q-35 -216 -211 -335t-458 -119zM275 -473l152 355h316l-229 -355h-239z" />
    <glyph glyph-name="uni0219" unicode="&#x219;" horiz-adv-x="1103" 
d="M485 -26q-139 0 -245 41.5t-166 119t-60 186.5v17h338q-5 -127 146 -127q72 0 123 30t51 77q0 53 -101 72l-186 34q-285 53 -285 275q0 113 67 198t184.5 133t267.5 48q205 0 325.5 -83.5t120.5 -227.5q0 -28 -4 -54h-316q6 61 -30.5 95t-104.5 34q-70 0 -116 -31.5
t-46 -76.5q0 -55 88 -71l206 -39q146 -27 215.5 -89.5t69.5 -166.5q0 -114 -71 -203t-193.5 -140t-277.5 -51zM142 -473l152 355h316l-229 -355h-239z" />
    <glyph glyph-name="uni021A.1" unicode="&#x21a;" horiz-adv-x="1322" 
d="M151 1184l51 306h1237l-51 -306h-439l-195 -1184h-360l196 1184h-439zM248 -473l152 355h316l-229 -355h-239z" />
    <glyph glyph-name="uni021B" unicode="&#x21b;" horiz-adv-x="804" 
d="M849 1056l-45 -266h-216l-72 -435q-8 -51 9 -70t74 -19h120l-44 -266h-195q-190 0 -266.5 71.5t-51.5 225.5l81 493h-181l45 266h180l48 288h345l-48 -288h217zM52 -473l152 355h316l-229 -355h-239z" />
    <glyph glyph-name="uni021C" unicode="&#x21c;" horiz-adv-x="1354" 
d="M182 314l43 259q202 57 338 105.5t218.5 98.5t124.5 108.5t55 134.5q18 111 -31 162t-160 51q-97 0 -157 -38t-70 -103h-346q20 124 105.5 218t218 147t295.5 53q260 0 396.5 -109t99.5 -334q-19 -113 -75.5 -209.5t-155.5 -178.5q81 -48 117 -131.5t17 -197.5
q-36 -214 -192 -377t-404.5 -267.5t-561.5 -141.5l46 274q330 60 532 190.5t235 331.5q22 131 -42 163q-246 -117 -646 -209z" />
    <glyph glyph-name="uni021D" unicode="&#x21d;" horiz-adv-x="1161" 
d="M164 142l40 237q181 57 293.5 112t169.5 117.5t70 140.5q23 136 -115 136q-66 0 -105 -31.5t-48 -87.5h-335q28 171 164 268.5t362 97.5q225 0 335 -90t81 -263q-30 -177 -189 -314q144 -81 113 -273q-76 -451 -931 -628l41 243q195 67 312 128t174 127t70 148
q11 64 -7 108q-197 -99 -495 -176z" />
    <glyph glyph-name="uni021E" unicode="&#x21e;" horiz-adv-x="1480" 
d="M9 0l247 1490h360l-97 -579h568l96 579h360l-247 -1490h-360l100 605h-567l-100 -605h-360zM845 1937l98 -164l156 164h258v-1l-307 -313h-264l-197 313v1h256z" />
    <glyph glyph-name="uni021F" unicode="&#x21f;" horiz-adv-x="1231" 
d="M449 574l-96 -574h-344l247 1490h344l-98 -593q64 85 148 133.5t199 48.5q173 0 257.5 -110t51.5 -305l-110 -664h-344l97 592q16 94 -20.5 143.5t-118.5 49.5q-81 0 -138.5 -51.5t-74.5 -159.5zM374 1937l98 -164l156 164h258v-1l-307 -313h-264l-197 313v1h256z" />
    <glyph glyph-name="uni0220" unicode="&#x220;" horiz-adv-x="1359" 
d="M1077 -416h-338l246 1487q11 78 -27 126t-151 48q-122 0 -246 -69l-196 -1176h-335l248 1490h335l-7 -45q65 30 138 47.5t154 17.5q137 0 241 -52t154.5 -150.5t27.5 -236.5z" />
    <glyph glyph-name="uni0221" unicode="&#x221;" horiz-adv-x="1570" 
d="M1087 -418q-138 0 -223.5 37t-123.5 108l-215 -145l-120 196l315 209l27 162q-55 -92 -135.5 -132t-176.5 -40q-184 0 -287.5 118.5t-103.5 318.5q0 124 36.5 242.5t105.5 214t168 152t224 56.5q215 0 292 -181h1l97 592h345l-212 -1286v0l-10 -59q38 5 74 5
q188 0 281 -88t71 -222q-21 -124 -131.5 -191t-298.5 -67zM541 252q89 0 155 56t102 140t36 169q0 89 -44.5 138.5t-121.5 49.5q-90 0 -152.5 -57.5t-94.5 -144t-32 -173.5q0 -86 39 -132t113 -46zM1053 -86l-6 -36q-8 -47 16.5 -71.5t66.5 -24.5q37 0 65 19t33 53
q6 33 -15 54.5t-70 22.5q-42 2 -90 -17z" />
    <glyph glyph-name="uni0222" unicode="&#x222;" horiz-adv-x="1356" 
d="M733 974h25q109 0 172 27t77 116q8 55 -11.5 84.5t-70.5 41.5l44 267q211 1 316 -102.5t74 -290.5q-17 -101 -71.5 -175t-141.5 -121q68 -59 95 -146.5t8 -200.5q-26 -154 -116.5 -264.5t-229 -170t-309.5 -59.5h-21q-172 0 -292 59t-174.5 169t-29.5 262q19 115 75 203
t143 148q-69 47 -98.5 120.5t-12.5 175.5q30 189 168 291.5t350 101.5l-44 -267q-56 -12 -84.5 -41t-38.5 -85q-14 -91 38 -117t160 -26zM712 694h-21q-103 0 -173.5 -59t-88.5 -165q-17 -102 35 -159.5t154 -56.5h21q100 -1 170 55.5t87 164.5q16 105 -34 162.5t-150 57.5z
" />
    <glyph glyph-name="uni0223" unicode="&#x223;" horiz-adv-x="1354" 
d="M752 947q116 0 182.5 44t83.5 145q12 73 -14.5 111.5t-70.5 52.5l42 256q197 0 303 -102.5t72 -309.5q-20 -119 -76 -200.5t-140 -132.5q67 -55 95.5 -140.5t8.5 -205.5q-26 -158 -116.5 -266t-227.5 -163.5t-302 -55.5h-21q-165 0 -284 55.5t-174 163.5t-29 265
q20 120 76.5 206t141.5 140q-67 51 -96.5 133t-10.5 201q35 204 175 308t339 104l-44 -256q-47 -14 -84.5 -52.5t-48.5 -111.5q-18 -102 32.5 -145.5t164.5 -43.5h23zM709 681h-21q-111 0 -182 -60t-87 -157q-15 -96 35 -156t162 -60h21q113 0 181 60t84 157t-32 156.5
t-161 59.5z" />
    <glyph glyph-name="uni0224" unicode="&#x224;" horiz-adv-x="1349" 
d="M526 -418l46 281h128q90 0 105 86l8 51h-811l33 201l892 1003h-726l47 286h1171l-33 -202l-892 -1002h726l-47 -286l-12 -70q-57 -348 -445 -348h-190z" />
    <glyph glyph-name="uni0225" unicode="&#x225;" horiz-adv-x="1108" 
d="M734 -208l11 70q11 67 -8 102.5t-81 35.5h-646l37 226l594 560l1 2h-502l45 268h905l-40 -239l-581 -549v-2h268q173 0 249 -106.5t43 -299.5l-10 -68h-285z" />
    <glyph glyph-name="uni0226" unicode="&#x226;" horiz-adv-x="1511" 
d="M-82 0l759 1490h474l268 -1490h-390l-41 287h-529l-138 -287h-403zM596 568h352l-13 87q-16 125 -31.5 250t-30.5 262q-61 -137 -118.5 -262t-116.5 -250zM934 1606q-77 0 -121.5 51t-32.5 125q13 73 74.5 124.5t138.5 51.5t122 -51.5t33 -124.5q-13 -74 -75 -125
t-139 -51z" />
    <glyph glyph-name="uni0227" unicode="&#x227;" horiz-adv-x="1245" 
d="M416 -23q-138 0 -229.5 68.5t-127 193t-8.5 291.5q27 161 105.5 285t192 194t247.5 70q208 0 277 -161h5l23 138h336l-175 -1056h-336l26 157h-4q-55 -88 -141 -134t-191 -46zM558 252q98 0 171.5 75.5t93.5 202.5q21 125 -27.5 200t-145.5 75q-95 0 -162 -73t-88 -202
q-22 -130 20.5 -204t137.5 -74zM737 1172q-77 0 -121.5 51t-32.5 125q13 73 74.5 124.5t138.5 51.5t122 -51.5t33 -124.5q-13 -74 -75 -125t-139 -51z" />
    <glyph glyph-name="uni0228" unicode="&#x228;" horiz-adv-x="1264" 
d="M9 0l247 1490h1109l-50 -306h-751l-47 -287h693l-49 -297h-693l-49 -294h750l-50 -306h-1110zM360 -418l22 131h118q85 0 95 56q9 57 -76 57h-83l75 216h127l-7 -42l-13 -77q91 -1 132 -48t29 -118q-14 -86 -85 -130.5t-185 -44.5h-149z" />
    <glyph glyph-name="uni0229" unicode="&#x229;" horiz-adv-x="1171" 
d="M533 -24q-248 0 -382.5 132.5t-100.5 395.5q22 178 109.5 307.5t224.5 199t309 69.5q122 0 221.5 -37t157.5 -111.5t58 -189.5q0 -137 -89.5 -207t-257.5 -95t-403 -28q-1 -85 35.5 -136t145.5 -51q90 0 142 34t72 90h319q-57 -168 -198.5 -270.5t-362.5 -102.5zM405 624
q169 5 257 19t119.5 38t31.5 57q0 91 -156 91q-124 0 -178 -60t-74 -145zM326 -418l22 131h118q85 0 95 56q9 57 -76 57h-83l75 216h127l-7 -42l-13 -77q91 -1 132 -48t29 -118q-14 -86 -85 -130.5t-185 -44.5h-149z" />
    <glyph glyph-name="uni022A" unicode="&#x22a;" horiz-adv-x="1531" 
d="M692 -24q-181 0 -319.5 73.5t-216.5 212t-78 334.5q0 182 58.5 347.5t168 294t263 202.5t343.5 74q181 0 319 -73t216.5 -212t78.5 -335q0 -186 -60 -352t-170 -293t-263 -200t-340 -73zM708 290q113 0 199 54t143.5 142.5t87 194.5t29.5 211q0 149 -72 228.5t-200 79.5
q-112 0 -197.5 -53.5t-143.5 -141.5t-88 -194.5t-30 -211.5q0 -150 71.5 -229.5t200.5 -79.5zM1363 2213l-35 -189h-589l35 189h589zM697 1585q-78 0 -121 48.5t-30 123.5q12 74 71 122.5t137 48.5q79 0 122.5 -48.5t30.5 -122.5q-12 -75 -71.5 -123.5t-138.5 -48.5z
M1154 1585q-79 0 -122 48.5t-30 123.5q12 74 71 122.5t138 48.5q78 0 121.5 -48.5t30.5 -122.5q-12 -75 -71.5 -123.5t-137.5 -48.5z" />
    <glyph glyph-name="uni022B" unicode="&#x22b;" horiz-adv-x="1215" 
d="M534 -24q-225 0 -356.5 124t-131.5 334q0 182 81 328.5t224.5 232t329.5 85.5q226 0 357 -124.5t131 -334.5q0 -130 -44 -246.5t-127 -206t-200.5 -141t-263.5 -51.5zM556 250q88 0 148 57t90.5 143.5t30.5 172.5q0 90 -48 136.5t-118 46.5q-87 0 -147 -57t-91 -143
t-31 -174q0 -90 48 -136t118 -46zM1133 1779l-35 -189h-589l35 189h589zM467 1151q-78 0 -121 48.5t-30 123.5q12 74 71 122.5t137 48.5q79 0 122.5 -48.5t30.5 -122.5q-12 -75 -71.5 -123.5t-138.5 -48.5zM924 1151q-79 0 -122 48.5t-30 123.5q12 74 71 122.5t138 48.5
q78 0 121.5 -48.5t30.5 -122.5q-12 -75 -71.5 -123.5t-137.5 -48.5z" />
    <glyph glyph-name="uni022C" unicode="&#x22c;" horiz-adv-x="1531" 
d="M692 -24q-181 0 -319.5 73.5t-216.5 212t-78 334.5q0 182 58.5 347.5t168 294t263 202.5t343.5 74q181 0 319 -73t216.5 -212t78.5 -335q0 -186 -60 -352t-170 -293t-263 -200t-340 -73zM708 290q113 0 199 54t143.5 142.5t87 194.5t29.5 211q0 149 -72 228.5t-200 79.5
q-112 0 -197.5 -53.5t-143.5 -141.5t-88 -194.5t-30 -211.5q0 -150 71.5 -229.5t200.5 -79.5zM1091 1624q-69 0 -110.5 28t-71 55.5t-63.5 27.5q-33 0 -55 -28t-32 -76h-180q26 141 101 213.5t173 72.5q69 0 110 -27t71 -53.5t64 -26.5q38 0 58 26t31 76h178
q-26 -140 -102.5 -214t-171.5 -74zM1364 2213l-35 -189h-589l36 189h588z" />
    <glyph glyph-name="uni022D" unicode="&#x22d;" horiz-adv-x="1215" 
d="M534 -24q-225 0 -356.5 124t-131.5 334q0 182 81 328.5t224.5 232t329.5 85.5q226 0 357 -124.5t131 -334.5q0 -130 -44 -246.5t-127 -206t-200.5 -141t-263.5 -51.5zM556 250q88 0 148 57t90.5 143.5t30.5 172.5q0 90 -48 136.5t-118 46.5q-87 0 -147 -57t-91 -143
t-31 -174q0 -90 48 -136t118 -46zM861 1190q-69 0 -110.5 28t-71 55.5t-63.5 27.5q-33 0 -55 -28t-32 -76h-180q26 141 101 213.5t173 72.5q69 0 110 -27t71 -53.5t64 -26.5q38 0 58 26t31 76h178q-26 -140 -102.5 -214t-171.5 -74zM1134 1779l-35 -189h-589l36 189h588z
" />
    <glyph glyph-name="uni022E" unicode="&#x22e;" horiz-adv-x="1531" 
d="M692 -24q-181 0 -319.5 73.5t-216.5 212t-78 334.5q0 182 58.5 347.5t168 294t263 202.5t343.5 74q181 0 319 -73t216.5 -212t78.5 -335q0 -186 -60 -352t-170 -293t-263 -200t-340 -73zM708 290q113 0 199 54t143.5 142.5t87 194.5t29.5 211q0 149 -72 228.5t-200 79.5
q-112 0 -197.5 -53.5t-143.5 -141.5t-88 -194.5t-30 -211.5q0 -150 71.5 -229.5t200.5 -79.5zM942 1606q-77 0 -121.5 51t-32.5 125q13 73 74.5 124.5t138.5 51.5t122 -51.5t33 -124.5q-13 -74 -75 -125t-139 -51z" />
    <glyph glyph-name="uni022F" unicode="&#x22f;" horiz-adv-x="1215" 
d="M534 -24q-225 0 -356.5 124t-131.5 334q0 182 81 328.5t224.5 232t329.5 85.5q226 0 357 -124.5t131 -334.5q0 -130 -44 -246.5t-127 -206t-200.5 -141t-263.5 -51.5zM556 250q88 0 148 57t90.5 143.5t30.5 172.5q0 90 -48 136.5t-118 46.5q-87 0 -147 -57t-91 -143
t-31 -174q0 -90 48 -136t118 -46zM712 1172q-77 0 -121.5 51t-32.5 125q13 73 74.5 124.5t138.5 51.5t122 -51.5t33 -124.5q-13 -74 -75 -125t-139 -51z" />
    <glyph glyph-name="uni0230" unicode="&#x230;" horiz-adv-x="1531" 
d="M692 -24q-181 0 -319.5 73.5t-216.5 212t-78 334.5q0 182 58.5 347.5t168 294t263 202.5t343.5 74q181 0 319 -73t216.5 -212t78.5 -335q0 -186 -60 -352t-170 -293t-263 -200t-340 -73zM708 290q113 0 199 54t143.5 142.5t87 194.5t29.5 211q0 149 -72 228.5t-200 79.5
q-112 0 -197.5 -53.5t-143.5 -141.5t-88 -194.5t-30 -211.5q0 -150 71.5 -229.5t200.5 -79.5zM1362 2213l-35 -189h-588l35 189h588zM941 1594q-77 0 -122 51t-32 125q12 73 73.5 124.5t138.5 51.5q78 0 122.5 -51.5t32.5 -124.5q-12 -74 -74 -125t-139 -51z" />
    <glyph glyph-name="uni0231" unicode="&#x231;" horiz-adv-x="1215" 
d="M534 -24q-225 0 -356.5 124t-131.5 334q0 182 81 328.5t224.5 232t329.5 85.5q226 0 357 -124.5t131 -334.5q0 -130 -44 -246.5t-127 -206t-200.5 -141t-263.5 -51.5zM556 250q88 0 148 57t90.5 143.5t30.5 172.5q0 90 -48 136.5t-118 46.5q-87 0 -147 -57t-91 -143
t-31 -174q0 -90 48 -136t118 -46zM1132 1779l-35 -189h-588l35 189h588zM711 1160q-77 0 -122 51t-32 125q12 73 73.5 124.5t138.5 51.5q78 0 122.5 -51.5t32.5 -124.5q-12 -74 -74 -125t-139 -51z" />
    <glyph glyph-name="uni0232" unicode="&#x232;" horiz-adv-x="1453" 
d="M470 0l88 533l-394 957h396l162 -433q16 -41 30 -81.5t27 -80.5q26 40 52.5 80.5t54.5 81.5l297 433h424l-700 -957l-88 -533h-349zM1242 1865l-35 -210h-589l35 210h589z" />
    <glyph glyph-name="uni0233" unicode="&#x233;" horiz-adv-x="1170" 
d="M-28 -418l44 267h146q54 0 79.5 24t55.5 81l25 48l-231 1054h346l76 -486q8 -55 15 -109.5t13 -109.5q51 113 102 219l239 486h370l-655 -1205q-77 -142 -169.5 -205.5t-224.5 -63.5h-231zM1002 1431l-35 -210h-589l35 210h589z" />
    <glyph glyph-name="uni0234" unicode="&#x234;" horiz-adv-x="857" 
d="M374 -418q-138 0 -223.5 37t-123.5 108l-216 -145l-120 196l315 209l3 13v0l247 1490h344l-213 -1286v0l-10 -59q38 5 74 5q188 0 281 -88t71 -222q-21 -124 -131 -191t-298 -67zM339 -86l-6 -36q-8 -47 16.5 -71.5t66.5 -24.5q38 0 65.5 19t33.5 53q6 33 -15.5 54.5
t-70.5 22.5q-42 2 -90 -17z" />
    <glyph glyph-name="uni0235" unicode="&#x235;" horiz-adv-x="1551" 
d="M1069 -418q-138 0 -223.5 37t-123.5 108l-216 -145l-120 196l315 209l3 13v0l99 604q15 93 -22.5 137t-113.5 44q-88 0 -145.5 -57.5t-75.5 -164.5l-93 -563h-344l174 1056h340l-26 -155q66 85 151 131.5t197 46.5q179 0 261.5 -115.5t49.5 -311.5l-74 -448v0l-10 -59
q38 5 74 5q188 0 281 -88t71 -222q-21 -124 -131 -191t-298 -67zM1034 -86l-6 -36q-8 -47 16.5 -71.5t66.5 -24.5q37 0 65 19t34 53q6 33 -15.5 54.5t-70.5 22.5q-42 2 -90 -17z" />
    <glyph glyph-name="uni0236" unicode="&#x236;" horiz-adv-x="1029" 
d="M523 -20q-138 0 -223.5 37t-123.5 108l-216 -145l-120 196l316 209l2 13v0l64 392h-160l45 266h159l48 288h344l-47 -288h217l-44 -266h-217l-31 -187v0l-10 -60q38 5 74 5q188 0 281 -88t71 -222q-21 -124 -131 -191t-298 -67zM488 313l-6 -36q-8 -48 16.5 -72.5
t66.5 -24.5q38 0 65.5 19.5t33.5 52.5t-15.5 54.5t-70.5 23.5q-41 1 -90 -17z" />
    <glyph glyph-name="uni0237" unicode="&#x237;" horiz-adv-x="538" 
d="M185 1056h345l-186 -1120q-28 -173 -140 -263.5t-304 -90.5h-135l44 267h70q56 0 85.5 28.5t40.5 93.5z" />
    <glyph glyph-name="uni0238" unicode="&#x238;" horiz-adv-x="1938" 
d="M1836 564l-4 -20q-27 -166 -100 -293t-181 -199t-240 -72q-87 0 -148.5 31t-102.5 85l-16 -96h-302l4 117q-61 -64 -138.5 -100.5t-173.5 -36.5q-131 0 -214 72t-114 199t-3 293l2 20q25 171 98 299t182.5 198.5t242.5 70.5q87 0 148.5 -30.5t101.5 -86.5l79 475h335
l-78 -473q58 54 130 84.5t159 30.5q197 0 283 -155.5t50 -412.5zM1497 544l3 20q22 137 -5 219.5t-134 82.5q-119 0 -190 -107l-67 -400q34 -112 156 -111q77 -1 125 39t74 107.5t38 149.5zM441 564l-2 -20q-12 -82 -9 -149.5t36 -107.5t111 -39q120 -1 191 105l66 399
q-33 114 -154 114q-106 0 -161.5 -82.5t-77.5 -219.5z" />
    <glyph glyph-name="uni0239" unicode="&#x239;" horiz-adv-x="1938" 
d="M641 -416l85 513q-59 -55 -131 -86t-160 -31q-131 0 -214.5 72t-114.5 199t-3 293l4 20q33 170 105 298t177.5 199t238.5 71q95 0 160 -36.5t105 -102.5l42 125h271l-5 -114q60 60 135 94t167 34q131 0 216 -71t116 -199t1 -298l-4 -22q-27 -166 -100 -292.5t-180.5 -198
t-238.5 -71.5q-88 0 -149.5 30.5t-102.5 85.5l-85 -512h-335zM442 564l-3 -20q-16 -82 -12.5 -149.5t38 -107.5t112.5 -39q64 -1 111.5 29.5t81.5 85.5l66 396q-37 107 -156 107q-106 0 -161 -82.5t-77 -219.5zM1497 544l3 20q22 137 -5 219.5t-134 82.5q-63 0 -110.5 -30.5
t-81.5 -88.5l-66 -397q37 -103 157 -102q77 -1 123.5 39t72 107.5t41.5 149.5z" />
    <glyph glyph-name="uni023A" unicode="&#x23a;" horiz-adv-x="1511" 
d="M1303 1678l-135 -281l251 -1397h-390l-41 287h-354l-228 -477h-100l229 477h-76l-138 -287h-403l759 1490h436l91 188h99zM671 568l218 455q-8 73 -16 144q-61 -137 -118.5 -262t-116.5 -250l-42 -87h75zM909 859l-139 -291h178l-13 87q-6 51 -12.5 101.5t-13.5 102.5z
" />
    <glyph glyph-name="uni023B" unicode="&#x23b;" horiz-adv-x="1502" 
d="M249 -190l117 243q-135 73 -211.5 211t-76.5 331q0 184 58.5 349.5t168.5 293.5t264 202t345 74q77 0 147 -13l85 177h198l-112 -232q135 -68 210 -195.5t69 -303.5h-362q-4 120 -67 186l-405 -841q20 -2 40 -2q127 0 223.5 66t140.5 185h363q-51 -171 -160 -298
t-260 -197t-329 -70q-85 0 -162 16l-87 -182h-197zM515 363l401 837h-12q-117 0 -204.5 -53.5t-146 -142t-88 -195t-29.5 -211.5q0 -156 79 -235z" />
    <glyph glyph-name="uni023C" unicode="&#x23c;" horiz-adv-x="1163" 
d="M81 -418l200 445q-112 55 -174 159.5t-62 246.5q0 129 44 245.5t126.5 207t198 142.5t258.5 52q40 0 79 -5l186 415h190l-208 -462q110 -53 170 -153t45 -234h-331q2 56 -15 96l-218 -487q72 9 124.5 56t71.5 112h332q-25 -132 -105.5 -231.5t-201 -155t-266.5 -55.5
q-39 0 -77 4l-179 -398h-188zM412 320l217 484q-77 -14 -130.5 -73t-80.5 -141t-27 -164q0 -64 21 -106z" />
    <glyph glyph-name="uni023D" unicode="&#x23d;" horiz-adv-x="1268" 
d="M119 0l247 1490h360l-197 -1184h660l-50 -306h-1020zM39 629l39 232h924l-40 -232h-923z" />
    <glyph glyph-name="uni023E" unicode="&#x23e;" horiz-adv-x="1322" 
d="M187 -190l268 558l135 816h-439l51 306h792l90 188h198l-91 -188h248l-51 -306h-344l-144 -301l-146 -883h-279l-91 -190h-197z" />
    <glyph glyph-name="uni023F" unicode="&#x23f;" horiz-adv-x="1137" 
d="M485 -26q-43 0 -83 4q45 -107 79 -137t80 -30q68 0 121.5 26.5t94.5 55.5l70 -173q-62 -47 -147 -93t-189 -45q-98 0 -161.5 43.5t-104 110.5t-69.5 137l-118 285q-44 72 -44 163v17h338q-5 -127 146 -127q72 0 123 30t51 77q0 53 -101 72l-186 34q-285 53 -285 275
q0 113 67 198t184.5 133t267.5 48q205 0 325.5 -83.5t120.5 -227.5q0 -28 -4 -54h-316q6 61 -30.5 95t-104.5 34q-70 0 -116 -31.5t-46 -76.5q0 -55 88 -71l206 -39q146 -27 215.5 -89.5t69.5 -166.5q0 -114 -71 -203t-193.5 -140t-277.5 -51z" />
    <glyph glyph-name="uni0240" unicode="&#x240;" horiz-adv-x="1108" 
d="M10 0l37 226l594 560l1 2h-502l45 268h905l-40 -239l-581 -549v-2h141q111 0 165 -44t84 -156q26 -109 62.5 -163.5t101.5 -54.5q64 0 151 44l74 -236q-67 -36 -133.5 -56t-136.5 -20q-149 0 -245 88t-132 269q-16 39 -32.5 51t-53.5 12h-505z" />
    <glyph glyph-name="uni0241" unicode="&#x241;" horiz-adv-x="1156" 
d="M432 528h127q110 1 157 75.5t67 192.5l27 160q7 41 8.5 88t-9.5 88.5t-43.5 68t-94.5 26.5q-85 0 -134.5 -49.5t-60.5 -119.5h-330q21 138 103 239.5t202.5 157t259.5 55.5q172 0 281.5 -73t153 -198.5t16.5 -282.5l-27 -160q-32 -185 -143.5 -324.5t-287.5 -194.5
l-47 -277h-348l88 528h35z" />
    <glyph glyph-name="uni0242" unicode="&#x242;" horiz-adv-x="1161" 
d="M127 685q22 136 94 236.5t184 155.5t254 55q145 0 246.5 -51.5t147.5 -147.5t24 -229q-25 -151 -118.5 -249t-246.5 -124l-54 -331h-336l83 501h120q182 0 216 196q14 80 -12.5 124.5t-98.5 44.5q-74 0 -113.5 -44.5t-54.5 -136.5h-335z" />
    <glyph glyph-name="uni0243" unicode="&#x243;" horiz-adv-x="1325" 
d="M9 0l246 1490h612q247 0 364.5 -112t88.5 -288q-20 -121 -113 -201t-223 -108v-1q92 -9 160.5 -57.5t100 -130.5t13.5 -193q-29 -177 -178 -288t-397 -111h-674zM405 276h253q98 0 162.5 46.5t78.5 127.5q13 80 -34 126.5t-144 46.5h-259zM506 885h235q85 0 143 45.5
t71 121.5q12 75 -30 118.5t-127 43.5h-237zM-68 377l24 144h692l-24 -144h-692z" />
    <glyph glyph-name="uni0244" unicode="&#x244;" horiz-adv-x="1527" 
d="M1609 841l-32 -196h-162l-22 -132q-27 -164 -122 -285t-242.5 -186.5t-333.5 -65.5q-194 0 -327.5 71t-193 197.5t-32.5 291.5l18 109h-171l32 196h172l108 649h350l-107 -649h553l108 649h350l-108 -649h162zM1065 645h-554l-17 -103q-19 -118 40 -189t176 -71
q87 0 160 38t121 102t61 143z" />
    <glyph glyph-name="uni0245" unicode="&#x245;" horiz-adv-x="1545" 
d="M992 0l-134 1086l-494 -1086h-386l760 1490h372l270 -1490h-388z" />
    <glyph glyph-name="uni0246" unicode="&#x246;" horiz-adv-x="1264" 
d="M183 -190l87 190h-261l247 1490h691l86 188h164l-86 -188h254l-50 -306h-342l-131 -287h368l-49 -297h-453l-134 -294h595l-50 -306h-684l-86 -190h-166zM677 897l131 287h-244l-47 -287h160zM425 341l118 259h-75z" />
    <glyph glyph-name="uni0247" unicode="&#x247;" horiz-adv-x="1171" 
d="M67 -418l216 438q-131 54 -194 175t-39 309q22 178 109.5 307.5t224.5 199t309 69.5q57 0 109 -8l207 418h122l-220 -445q99 -37 159 -112t60 -191q0 -114 -62 -180.5t-180 -98.5t-285 -43l-95 -191q24 -4 53 -4q90 0 142 34t72 90h319q-57 -168 -198.5 -270.5
t-362.5 -102.5q-77 0 -143 13l-201 -407h-122zM586 634l96 194q-12 1 -25 1q-124 0 -178 -60t-74 -145q106 3 181 10zM412 281l65 133q-45 -2 -97 -2q-1 -41 6 -74t26 -57zM788 794l-69 -139q55 14 74.5 35t19.5 48q0 34 -25 56z" />
    <glyph glyph-name="uni0248" unicode="&#x248;" horiz-adv-x="1263" 
d="M484 -23q-212 0 -332 98.5t-120 283.5q0 24 5 63.5t23 148.5h335q-11 -64 -15.5 -95.5t-5.5 -44t-1 -19.5q0 -135 138 -135q79 0 131.5 47t66.5 135l171 1031h360l-173 -1037q-38 -229 -187 -352.5t-396 -123.5zM601 812l24 144h692l-24 -144h-692z" />
    <glyph glyph-name="uni0249" unicode="&#x249;" horiz-adv-x="538" 
d="M187 1056h345l-186 -1120q-28 -173 -140 -263.5t-304 -90.5h-135l44 267h70q56 0 85.5 28.5t40.5 93.5zM-126 577l33 200h809l-33 -200h-809zM376 1172q-77 0 -121.5 51t-32.5 125q13 73 74.5 124.5t138.5 51.5t122 -51.5t33 -124.5q-13 -74 -75 -125t-139 -51z" />
    <glyph glyph-name="Q_rthook" unicode="&#x24a;" horiz-adv-x="1544" 
d="M1606 1490l-246 -1490l-9 -53q-14 -91 76 -91h128l-46 -274h-188q-193 0 -269.5 87t-47.5 261l11 70l35 210h-2q-80 -112 -198 -171.5t-259 -59.5q-184 0 -310 98t-178 270.5t-15 396.5q28 168 97.5 308t171 243t226 159.5t261.5 56.5q138 0 237.5 -59.5t143.5 -170.5h2
l35 209h344zM715 287q162 0 274.5 121.5t147.5 335.5q36 217 -35.5 338t-234.5 121q-161 0 -272.5 -121.5t-147.5 -337.5q-36 -215 35 -336t233 -121z" />
    <glyph glyph-name="qrthook" unicode="&#x24b;" horiz-adv-x="1245" 
d="M1023 -418q-193 0 -268 87t-46 261l37 224q-55 -87 -140.5 -132t-189.5 -45q-138 0 -229.5 68.5t-127 193t-8.5 291.5q27 161 105.5 285t192 194t247.5 70q208 0 277 -161h5l23 138h336l-144 -868v0l-12 -73l-19 -115v0l-9 -53q-14 -91 76 -91h128l-46 -274h-188z
M558 252q98 0 171.5 75.5t93.5 202.5q21 125 -27.5 200t-145.5 75q-95 0 -162 -73t-88 -202q-22 -130 20.5 -204t137.5 -74z" />
    <glyph glyph-name="uni024C" unicode="&#x24c;" horiz-adv-x="1359" 
d="M47 0l90 539h-140l42 257h140l115 694h612q172 0 288.5 -61.5t166.5 -174.5t25 -268q-24 -143 -107 -250.5t-211 -168.5l192 -567h-368l-162 495h-7h-235l-82 -495h-359zM535 778h230q108 0 181 58t89 152q15 95 -39 151t-162 56h-230z" />
    <glyph glyph-name="uni024D" unicode="&#x24d;" horiz-adv-x="807" 
d="M9 0l175 1056h333l-31 -186h3q45 101 114 145.5t176 44.5q27 0 49.5 -0.5t43.5 -1.5l-47 -284q-18 1 -58 2t-78 1q-92 0 -160 -62t-86 -174l-90 -541h-344zM-152 430l33 200h809l-33 -200h-809z" />
    <glyph glyph-name="uni024E" unicode="&#x24e;" horiz-adv-x="1479" 
d="M1584 1178l-29 -173h-303l-345 -472l-88 -533h-349l88 533l-194 472h-284l29 173h184l-129 312h396l117 -312h292l214 312h424l-228 -312h205zM851 1005h-110q10 -28 19.5 -55.5t18.5 -54.5q37 58 72 110z" />
    <glyph glyph-name="uni024F" unicode="&#x24f;" horiz-adv-x="1186" 
d="M1217 742l-26 -163h-184l-396 -728q-77 -142 -170 -205.5t-224 -63.5h-232l44 267h147q54 0 79.5 24t54.5 81l26 48l-126 577h-194l27 163h131l-69 314h346l49 -314h241l154 314h371l-171 -314h122zM661 579h-136l1 -9q8 -55 15 -109.5t14 -109.5q51 113 101 219z" />
    <glyph glyph-name="aturn" unicode="&#x250;" horiz-adv-x="1245" 
d="M829 1079q138 0 229.5 -68.5t127.5 -193t8 -291.5q-27 -161 -105 -285t-192 -194t-247 -70q-209 0 -278 161h-4l-23 -138h-336l175 1056h336l-26 -157h3q56 88 142 134t190 46zM687 804q-97 0 -170.5 -75.5t-94.5 -202.5q-21 -125 27.5 -200t146.5 -75q95 0 161.5 73
t88.5 202q21 130 -21.5 204t-137.5 74z" />
    <glyph glyph-name="ascript" unicode="&#x251;" horiz-adv-x="1245" 
d="M416 -23q-138 0 -229.5 68.5t-127 193t-8.5 291.5q27 161 105.5 285t192 194t247.5 70q208 0 277 -161h5l23 138h336l-175 -1056h-336l26 157h-4q-55 -88 -141 -134t-191 -46zM558 252q98 0 171.5 75.5t93.5 202.5q21 125 -27.5 200t-145.5 75q-95 0 -162 -73t-88 -202
q-22 -130 20.5 -204t137.5 -74z" />
    <glyph glyph-name="ascriptturn" unicode="&#x252;" horiz-adv-x="1246" 
d="M647 -23q-104 0 -175 46t-97 134h-4l-26 -157h-336l175 1056h336l-23 -138h5q122 161 331 161q133 0 224 -70t128 -194t10 -285q-27 -167 -104.5 -291.5t-191.5 -193t-252 -68.5zM596 252q95 0 162.5 74t88.5 204q21 129 -21.5 202t-138.5 73q-97 0 -170 -75t-94 -200
q-21 -127 27.5 -202.5t145.5 -75.5z" />
    <glyph glyph-name="uni0253" unicode="&#x253;" horiz-adv-x="1250" 
d="M659 -23q-104 0 -178.5 46t-101.5 134h-4l-26 -157h-340l138 836l37 220l14 86q29 174 135.5 261t300.5 87h188l-46 -274h-127q-94 0 -109 -91l-11 -69l-27 -158l5 6q121 157 319 157q133 0 226 -68.5t132.5 -189.5t13.5 -279q-27 -164 -102 -287t-186.5 -191.5
t-250.5 -68.5zM600 252q95 0 162 72.5t88 199.5t-22 198.5t-138 71.5q-97 0 -170 -73.5t-94 -196.5q-20 -124 28.5 -198t145.5 -74z" />
    <glyph glyph-name="uni0254" unicode="&#x254;" horiz-adv-x="1156" 
d="M53 390h313q-11 -69 28 -105.5t118 -36.5t124 40.5t67.5 107t36.5 144.5l3 27q12 69 12.5 138t-30.5 115t-113 46q-86 0 -135 -54t-66 -146h-312q25 153 103 257t193.5 156.5t254.5 52.5q173 0 277 -73t141.5 -200.5t9.5 -291.5l-4 -27q-27 -163 -107 -289.5t-209 -198.5
t-301 -72q-135 0 -233 50.5t-144.5 142.5t-26.5 217z" />
    <glyph glyph-name="drthook" unicode="&#x256;" horiz-adv-x="1250" 
d="M1029 -418q-194 0 -268.5 87t-45.5 261l23 144l13 81h-1q-55 -96 -136.5 -137t-178.5 -41q-184 0 -287.5 118.5t-103.5 318.5q0 124 36.5 242.5t105.5 214t168 152t224 56.5q215 0 292 -181h1l97 592h345l-215 -1302v0l-18 -110l-13 -78v0l-9 -53q-14 -91 77 -91h127
l-45 -274h-188zM541 252q89 0 155 56t102 140t36 169q0 89 -44.5 138.5t-121.5 49.5q-90 0 -152.5 -57.5t-94.5 -144t-32 -173.5q0 -86 39 -132t113 -46z" />
    <glyph glyph-name="uni0257" unicode="&#x257;" horiz-adv-x="1245" 
d="M416 -23q-138 0 -229.5 68.5t-127 193t-8.5 291.5q27 161 105.5 285t192 194t247.5 70q204 0 274 -154l22 131l14 86q29 174 135.5 261t300.5 87h188l-46 -274h-127q-94 0 -109 -91l-11 -69l-175 -1056h-336l26 157h-4q-55 -88 -141 -134t-191 -46zM558 252
q98 0 171.5 75.5t93.5 202.5q21 125 -27.5 200t-145.5 75q-95 0 -162 -73t-88 -202q-22 -130 20.5 -204t137.5 -74z" />
    <glyph glyph-name="erev" unicode="&#x258;" horiz-adv-x="1154" 
d="M430 -20q-163 0 -265.5 59.5t-145.5 129.5l189 187q40 -58 103 -83t130 -25q110 0 186.5 55t109.5 145h-700l23 140q42 253 198 398.5t394 145.5q175 0 282.5 -75.5t148 -205t14.5 -293.5l-6 -38q-23 -143 -110.5 -266t-228.5 -198.5t-322 -75.5zM770 662q0 51 -14.5 98
t-51.5 76.5t-104 29.5q-82 0 -130.5 -48.5t-64.5 -120.5l-10 -35h375z" />
    <glyph glyph-name="uni0259" unicode="&#x259;" horiz-adv-x="1171" 
d="M638 1080q249 0 383 -132.5t100 -395.5q-21 -178 -108.5 -307.5t-225 -199t-309.5 -69.5q-122 0 -221 37t-157.5 111.5t-58.5 189.5q0 137 89.5 207t257.5 95t403 28q1 85 -35.5 136t-145.5 51q-90 0 -142 -34t-72 -90h-319q57 168 199 270.5t362 102.5zM767 432
q-169 -5 -257.5 -19t-120 -38t-31.5 -57q0 -91 156 -91q124 0 178.5 60t74.5 145z" />
    <glyph glyph-name="uni025A" unicode="&#x25a;" horiz-adv-x="1663" 
d="M478 -24q-122 0 -221 37t-157.5 111.5t-58.5 189.5q0 102 51.5 164.5t149 99t236.5 58t313 39.5q-5 71 -43.5 113.5t-137.5 42.5q-90 0 -142 -34t-72 -90h-319q57 168 199 270.5t362 102.5q207 0 336.5 -92t149.5 -275l294 31q-1 -142 5 -211.5t25 -92t56 -22.5
q26 0 73 12l16 -208q-95 -35 -186 -35q-122 0 -177.5 74.5t-62.5 253.5l-52 -7q-30 -165 -118 -284.5t-221 -183.5t-298 -64zM772 464q-162 -23 -252.5 -44t-126 -46.5t-35.5 -61.5q0 -85 144 -85q91 0 145.5 32.5t83 86.5t41.5 118z" />
    <glyph glyph-name="epsilon1" unicode="&#x25b;" horiz-adv-x="1097" 
d="M448 -24q-137 0 -242.5 38.5t-159.5 113.5t-37 182q16 94 75.5 150t143.5 86q-68 23 -100 68.5t-19 125.5q17 103 93 179.5t191.5 118.5t250.5 42q130 0 230 -40t153 -118t42 -193h-326q5 57 -30.5 86t-103.5 29q-63 0 -111 -25.5t-55 -73.5q-7 -41 24 -68t100 -27h137
l-10 -60h1l-26 -152h-139q-69 0 -116.5 -28.5t-56.5 -82.5q-8 -54 28.5 -84.5t108.5 -30.5q153 0 189 126h339q-23 -107 -101 -188.5t-199 -127.5t-274 -46z" />
    <glyph glyph-name="epsilon1rev" unicode="&#x25c;" horiz-adv-x="1098" 
d="M467 -24q-229 0 -350.5 101t-103.5 261h339q-3 -60 35 -93t113 -33q71 0 118 30.5t56 84.5t-28.5 82.5t-106.5 28.5h-139l12 76v0l22 136h137q69 0 109.5 27t47.5 68q8 48 -31.5 73.5t-102.5 25.5q-68 0 -113 -29t-59 -86h-325q26 115 105 193t192.5 118t243.5 40
q135 0 236 -42t152 -118.5t34 -179.5q-14 -80 -61 -125.5t-123 -68.5q75 -30 115.5 -86t24.5 -150q-18 -107 -96 -182t-196.5 -113.5t-256.5 -38.5z" />
    <glyph glyph-name="epsilon1revhook" unicode="&#x25d;" horiz-adv-x="1587" 
d="M1359 346q-123 0 -178 70.5t-61 236.5l-156 -67q-37 -24 -88 -40q75 -30 115.5 -86t24.5 -150q-18 -107 -96 -182t-196.5 -113.5t-256.5 -38.5q-229 0 -350.5 101t-103.5 261h339q-3 -60 35 -93t113 -33q71 0 118 30.5t56 84.5t-28.5 82.5t-106.5 28.5h-139l12 76v0
l22 136h137q69 0 109.5 27t47.5 68q8 48 -31.5 73.5t-102.5 25.5q-68 0 -113 -29t-59 -86h-325q26 115 105 193t192.5 118t243.5 40q174 0 291 -69.5t132 -189.5l298 119q-1 -141 8 -220t30.5 -111t57.5 -32q26 0 73 12l16 -209q-96 -34 -185 -34z" />
    <glyph glyph-name="epsilon1revclosed" unicode="&#x25e;" horiz-adv-x="1142" 
d="M511 -24q-161 0 -275.5 58t-165 180t-19.5 314q26 156 89 262t150.5 170t188 92t202.5 28q136 0 237 -42t151.5 -118.5t34.5 -179.5q-14 -80 -61 -125.5t-123 -68.5q75 -30 115.5 -86t24.5 -150q-18 -107 -96.5 -182t-196.5 -113.5t-256 -38.5zM516 514h-1l23 136h77
q68 0 109 27t48 68q8 48 -30.5 73.5t-101.5 25.5q-51 0 -98.5 -24t-86 -92t-60.5 -200q-21 -128 -5.5 -196.5t56.5 -94t96 -25.5q71 0 119 30.5t57 84.5t-28.5 82.5t-106.5 28.5h-80z" />
    <glyph glyph-name="jdotlessbar" unicode="&#x25f;" horiz-adv-x="538" 
d="M185 1056h345l-186 -1120q-28 -173 -140 -263.5t-304 -90.5h-135l44 267h70q56 0 85.5 28.5t40.5 93.5zM-127 577l33 200h809l-33 -200h-809z" />
    <glyph glyph-name="uni0260" unicode="&#x260;" horiz-adv-x="1249" 
d="M474 -432q-249 0 -360 99t-109 251h322q4 -49 42 -77.5t109 -28.5q103 0 169.5 59t82.5 165l23 151h-1q-58 -94 -134.5 -137t-178.5 -43q-185 0 -289 119.5t-104 310.5q0 121 38 236t108 206.5t167.5 145.5t217.5 54q108 0 182.5 -47t110.5 -129l26 153l14 86
q28 174 135 261t300 87h188l-45 -274h-127q-94 0 -109 -91l-12 -69l-166 -1010q-43 -258 -201 -368t-399 -110zM544 277q88 0 153.5 53t101 134t35.5 165q0 86 -44 134.5t-121 48.5q-89 0 -151 -55.5t-94 -138.5t-32 -168q0 -83 39 -128t113 -45z" />
    <glyph glyph-name="gcursive" unicode="&#x261;" horiz-adv-x="1249" 
d="M474 -432q-249 0 -360 99t-109 251h322q4 -49 42 -77.5t109 -28.5q103 0 169.5 59t82.5 165l23 151h-1q-58 -94 -134.5 -137t-178.5 -43q-185 0 -289 119.5t-104 310.5q0 121 38 236t108 206.5t167.5 145.5t217.5 54q109 0 184 -48t111 -131h1l25 156h342l-166 -1010
q-43 -258 -201 -368t-399 -110zM544 277q88 0 153.5 53t101 134t35.5 165q0 86 -44 134.5t-121 48.5q-89 0 -151 -55.5t-94 -138.5t-32 -168q0 -83 39 -128t113 -45z" />
    <glyph glyph-name="g.sc" unicode="&#x262;" horiz-adv-x="1117" 
d="M509 -16q-216 0 -340 118.5t-124 325.5q0 179 76.5 325.5t214 233t318.5 86.5q123 0 227.5 -44t164.5 -128.5t50 -207.5h-328q-4 100 -118 100q-98 0 -160 -56t-91 -139.5t-29 -166.5q0 -168 162 -168q84 0 138 32t68 79h-172l38 229h487l-29 -175q-23 -139 -100 -238.5
t-194 -152.5t-259 -53z" />
    <glyph glyph-name="gamma1" unicode="&#x263;" horiz-adv-x="1352" 
d="M519 -442q-182 0 -276.5 70t-72.5 213q9 57 39.5 126.5t84.5 141.5l186 258l-299 751h349l171 -447l323 447h350l-552 -766l89 -232q32 -82 39.5 -153.5t-0.5 -128.5q-23 -141 -137.5 -210.5t-293.5 -69.5zM601 40q-36 -57 -58.5 -104.5t-28.5 -86.5q-6 -31 3 -47t40 -16
q48 -1 60 63q6 42 1.5 90.5t-17.5 100.5z" />
    <glyph glyph-name="babygamma" unicode="&#x264;" horiz-adv-x="1346" 
d="M215 785l-122 193q61 61 142 107.5t187 46.5q97 0 167.5 -53t139.5 -174q108 120 198 173.5t189 53.5q106 0 170.5 -46.5t108.5 -107.5l-190 -193q-19 23 -45.5 41t-54.5 17q-47 1 -98 -48t-146 -164l6 -12q44 -103 72.5 -199.5t12.5 -187.5q-21 -129 -125 -190.5
t-250 -61.5q-148 0 -231.5 62.5t-61.5 189.5q15 91 77.5 188.5t148.5 212.5l3 3q-64 120 -102 164t-79 43q-27 1 -59.5 -17t-57.5 -41zM641 358q-50 -71 -63 -108q-2 -12 4 -26t33 -14q24 0 35.5 13.5t13.5 26.5q5 34 -23 108z" />
    <glyph glyph-name="hturn" unicode="&#x265;" horiz-adv-x="1231" 
d="M783 482l95 574h345l-247 -1490h-345l98 593q-64 -85 -148 -133.5t-199 -48.5q-172 0 -256.5 110t-52.5 305l110 664h345l-98 -592q-15 -94 21 -143.5t118 -49.5t139 51.5t75 159.5z" />
    <glyph glyph-name="uni0266" unicode="&#x266;" horiz-adv-x="1231" 
d="M146 836l37 220l14 86q28 174 135 261t300 87h188l-45 -274h-127q-94 0 -109 -91l-12 -69l-24 -148q65 82 149 126.5t193 44.5q179 0 261.5 -115.5t49.5 -311.5l-108 -652h-344l99 604q15 93 -22.5 137t-113.5 44q-88 0 -145.5 -57.5t-75.5 -164.5l-93 -563h-344l137 836
v0z" />
    <glyph glyph-name="uni0267" unicode="&#x267;" horiz-adv-x="1231" 
d="M608 -418h-192l45 274h128q91 0 106 91l9 53l99 604q15 93 -22.5 137t-113.5 44q-88 0 -145.5 -57.5t-75.5 -164.5l-93 -563h-344l137 836v0l37 220l14 86q28 174 135 261t300 87h188l-45 -274h-127q-94 0 -109 -91l-12 -69l-24 -148q65 82 149 126.5t193 44.5
q179 0 261.5 -115.5t49.5 -311.5l-108 -652l-11 -70q-29 -174 -132.5 -261t-296.5 -87z" />
    <glyph glyph-name="ibar" unicode="&#x268;" horiz-adv-x="537" 
d="M9 0l175 1056h344l-175 -1056h-344zM374 1172q-77 0 -121.5 51t-32.5 125q13 73 74.5 124.5t138.5 51.5t122 -51.5t33 -124.5q-13 -74 -75 -125t-139 -51zM-142 494l33 200h809l-33 -200h-809z" />
    <glyph glyph-name="iota" unicode="&#x3b9;" horiz-adv-x="595" 
d="M379 0q-195 0 -271 71t-49 234l125 751h344l-119 -718q-12 -80 70 -80h43l-43 -258h-100z" />
    <glyph glyph-name="iota" unicode="&#x269;" horiz-adv-x="595" 
d="M379 0q-195 0 -271 71t-49 234l125 751h344l-119 -718q-12 -80 70 -80h43l-43 -258h-100z" />
    <glyph glyph-name="lmidtilde" unicode="&#x26b;" horiz-adv-x="537" 
d="M600 1490l-247 -1490h-344l247 1490h344zM461 574q-63 0 -105.5 16.5t-73 38.5t-57 39t-56.5 17q-40 0 -67 -28t-39 -76h-218q32 141 123 213.5t208 72.5q63 0 105.5 -16.5t73 -37.5t57 -37.5t57.5 -16.5q46 0 70.5 26t36.5 76h215q-31 -139 -123.5 -213t-206.5 -74z" />
    <glyph glyph-name="uni026C" unicode="&#x26c;" horiz-adv-x="1037" 
d="M1035 538h-217l-21 -123l-68 -415h-347l68 415l21 123h-115q-174 0 -246 78.5t-51 200.5q14 85 67.5 156.5t146.5 115t224 43.5q38 0 71 -4l60 362h347l-121 -730h217zM512 784q18 110 -60 109q-39 1 -69 -19.5t-33 -47.5q-5 -25 14 -46t64 -20h80z" />
    <glyph glyph-name="lrthook" unicode="&#x26d;" horiz-adv-x="537" 
d="M315 -418q-194 0 -270 87t-48 261l12 70l247 1490h344l-247 -1490l-9 -53q-14 -91 77 -91h127l-45 -274h-188z" />
    <glyph glyph-name="lyogh" unicode="&#x26e;" horiz-adv-x="1460" 
d="M255 1490h324l-61 -372h948l-39 -234l-477 -403l-4 -12q162 -19 252.5 -82.5t121.5 -155t14 -195.5q-25 -144 -117 -251.5t-234 -166t-315 -58.5q-138 -1 -244.5 39t-171.5 111l286 209q54 -74 177 -73q101 -1 170 57.5t84 160.5q14 99 -40 152.5t-164 53.5h-191l40 239
l382 320l2 10h-526l-129 -777h-323z" />
    <glyph glyph-name="mturn" unicode="&#x26f;" horiz-adv-x="1847" 
d="M1839 1056l-174 -1056h-332l27 178q-63 -107 -152 -154t-184 -47q-108 0 -185.5 55.5t-97.5 154.5q-56 -106 -154.5 -158t-207.5 -52q-108 0 -185 48t-111 135t-14 205l114 691h344l-105 -638q-14 -84 18.5 -123t95.5 -39q80 0 137.5 54.5t71.5 134.5l101 611h329
l-105 -642q-13 -78 17.5 -118t94.5 -40q76 0 137 54.5t75 141.5l100 604h345z" />
    <glyph glyph-name="mturndescend" unicode="&#x270;" horiz-adv-x="1847" 
d="M1264 -418l69 418l27 178q-63 -107 -152 -154t-184 -47q-108 0 -185.5 55.5t-97.5 154.5q-56 -106 -154.5 -158t-207.5 -52q-108 0 -185 48t-111 135t-14 205l114 691h344l-105 -638q-14 -84 18.5 -123t95.5 -39q80 0 137.5 54.5t71.5 134.5l101 611h329l-105 -642
q-13 -78 17.5 -118t94.5 -40q76 0 137 54.5t75 141.5l100 604h345l-174 -1056l-69 -418h-332z" />
    </font>
</defs>
</svg>
