<?xml version="1.0" standalone="no"?>
<!DOCTYPE svg PUBLIC "-//W3C//DTD SVG 1.1//EN" "http://www.w3.org/Graphics/SVG/1.1/DTD/svg11.dtd" >
<svg xmlns="http://www.w3.org/2000/svg" xmlns:xlink="http://www.w3.org/1999/xlink" version="1.1">
<metadata>
Created by FontForge 20201107 at Mon Nov 20 03:07:40 2023
 By 
Copyright 2016 The Inter Project Authors
</metadata>
<defs>
<font id="InterDisplay-ExtraLight" horiz-adv-x="0" >
  <font-face 
    font-family="Inter Display ExtraLight"
    font-weight="200"
    font-stretch="normal"
    units-per-em="2048"
    panose-1="2 0 3 3 0 0 0 2 0 4"
    ascent="1638"
    descent="-410"
    x-height="1056"
    cap-height="1490"
    bbox="-1523 -654 5237 2228"
    underline-thickness="77"
    underline-position="-339"
    unicode-range="U+0020-1F852"
  />
<missing-glyph horiz-adv-x="1344" 
d="M1016 -416h-688v2272h688v-2272zM512 320v-256h320v256h-320zM512 704v-256h320v256h-192v-128h64v64h64v-128h-192v192h-64zM512 -192v-64h320v64h-215l215 127v65h-320v-64h216zM512 1408v-224h320v64h-128v160h-192zM512 1536v-64h320v64h-144v96h144v64h-320v-64h112
v-96h-112zM512 960v-64h192v160h128v64h-320v-64h128v-96h-128zM512 832v-64h320v224h-64v-160h-256zM768 128h-192v128h192v-128zM640 1248h-64v96h64v-96z" />
    <glyph glyph-name=".notdef" horiz-adv-x="1344" 
d="M1016 -416h-688v2272h688v-2272zM512 320v-256h320v256h-320zM512 704v-256h320v256h-192v-128h64v64h64v-128h-192v192h-64zM512 -192v-64h320v64h-215l215 127v65h-320v-64h216zM512 1408v-224h320v64h-128v160h-192zM512 1536v-64h320v64h-144v96h144v64h-320v-64h112
v-96h-112zM512 960v-64h192v160h128v64h-320v-64h128v-96h-128zM512 832v-64h320v224h-64v-160h-256zM768 128h-192v128h192v-128zM640 1248h-64v96h64v-96z" />
    <glyph glyph-name=".null" horiz-adv-x="800" 
 />
    <glyph glyph-name="nonmarkingreturn" horiz-adv-x="682" 
 />
    <glyph glyph-name="space" unicode=" " horiz-adv-x="469" 
 />
    <glyph glyph-name="exclam" unicode="!" horiz-adv-x="417" 
d="M166 369l-4 1121h93l-5 -1121h-84zM208 -14q-32 0 -54.5 22.5t-22.5 55.5t22.5 55.5t54.5 22.5q33 0 55.5 -22.5t22.5 -55.5t-22.5 -55.5t-55.5 -22.5z" />
    <glyph glyph-name="quotedbl" unicode="&#x22;" horiz-adv-x="563" 
d="M135 1032l-10 458h88l-9 -458h-69zM360 1032l-10 458h88l-9 -458h-69z" />
    <glyph glyph-name="numbersign" unicode="#" horiz-adv-x="1189" 
d="M695 0l73 446h-445l-73 -446h-79l73 446h-255l14 80h254l72 437h-255l15 80h253l73 447h79l-73 -447h445l73 447h79l-73 -447h254l-13 -80h-254l-72 -437h254l-13 -80h-254l-73 -446h-79zM336 526h445l72 437h-445z" />
    <glyph glyph-name="dollar" unicode="$" horiz-adv-x="1170" 
d="M548 -198v176q-205 10 -329 123t-130 292h92q6 -142 103.5 -231t263.5 -98v661l-50 14q-193 56 -285 147.5t-92 228.5q0 110 54.5 197t150.5 139.5t222 60.5v176h84v-177q186 -13 300 -126.5t122 -289.5h-90q-10 138 -98 227.5t-234 102.5v-632l58 -16
q201 -58 296 -151.5t95 -236.5q0 -115 -55.5 -204t-156.5 -143.5t-237 -62.5v-177h-84zM632 64q163 12 261 99t98 223q0 111 -75.5 182.5t-249.5 122.5l-34 10v-637zM548 817v609q-147 -11 -242 -96t-95 -212q0 -105 74.5 -176t234.5 -117z" />
    <glyph glyph-name="percent" unicode="%" horiz-adv-x="1657" 
d="M1233 -19q-128 0 -208 91t-80 231v12q0 140 80 231t208 91t207.5 -91t79.5 -231v-12q0 -140 -79.5 -231t-207.5 -91zM425 853q-128 0 -208 91t-80 231v12q0 140 80 231t208 91t207.5 -91t79.5 -231v-12q0 -140 -79.5 -231t-207.5 -91zM1233 55q92 0 149 68.5t57 179.5v12
q0 111 -57 179.5t-149 68.5t-149 -68.5t-57 -179.5v-12q0 -111 57 -179.5t149 -68.5zM425 927q92 0 149 68.5t57 179.5v12q0 111 -57 179.5t-149 68.5t-149 -68.5t-57 -179.5v-12q0 -111 57 -179.5t149 -68.5zM269 0l1022 1490h95l-1023 -1490h-94z" />
    <glyph glyph-name="ampersand" unicode="&#x26;" horiz-adv-x="1145" 
d="M508 -17q-127 0 -226.5 51t-156.5 140.5t-57 202.5q0 119 70.5 204t211.5 191l41 31q-65 81 -112.5 142.5t-73 119t-25.5 125.5q0 92 42 163t115.5 111.5t167.5 40.5q93 0 166.5 -40t115.5 -109.5t42 -157.5q0 -78 -32 -138.5t-80.5 -107.5t-97.5 -84l-106 -79l390 -487
q44 73 69 161.5t25 185.5h86q0 -121 -32.5 -226.5t-92.5 -189.5l187 -233h-109l-131 164q-72 -85 -175.5 -133t-221.5 -48zM851 231l-406 506l-65 -49q-109 -83 -166 -151t-57 -160q0 -88 46.5 -159t126 -113t179.5 -42t188 45t154 123zM460 855l108 82q60 45 116 107
t56 152q0 98 -67 163.5t-168 65.5t-169 -66.5t-68 -169.5q0 -85 52 -155t140 -179z" />
    <glyph glyph-name="quotesingle" unicode="'" horiz-adv-x="339" 
d="M135 1032l-10 458h88l-9 -458h-69z" />
    <glyph glyph-name="parenleft" unicode="(" horiz-adv-x="549" 
d="M165 621q1 242 60 490.5t165 455.5h89q-109 -225 -166.5 -469t-57.5 -477q0 -454 224 -916h-89q-109 217 -166.5 450t-58.5 466z" />
    <glyph glyph-name="parenright" unicode=")" horiz-adv-x="549" 
d="M71 -294q224 462 224 915q0 233 -57.5 477.5t-166.5 468.5h88q106 -207 165.5 -455t59.5 -491q0 -233 -57.5 -465.5t-167.5 -449.5h-88z" />
    <glyph glyph-name="asterisk" unicode="*" horiz-adv-x="917" 
d="M419 652l4 359l-308 -184l-40 68l315 175l-315 176l40 68l308 -183l-4 359h79l-4 -359l309 183l39 -68l-315 -176l315 -175l-39 -68l-309 184l4 -359h-79z" />
    <glyph glyph-name="plus" unicode="+" horiz-adv-x="1213" 
d="M564 139v400h-399v82h399v400h85v-400h399v-82h-399v-400h-85z" />
    <glyph glyph-name="comma" unicode="," horiz-adv-x="417" 
d="M93 -276l87 452h94l-113 -452h-68z" />
    <glyph glyph-name="hyphen" unicode="-" horiz-adv-x="806" 
d="M698 649v-84h-588v84h588z" />
    <glyph glyph-name="period" unicode="." horiz-adv-x="417" 
d="M208 -14q-32 0 -54.5 22.5t-22.5 55.5t22.5 55.5t54.5 22.5q33 0 55.5 -22.5t22.5 -55.5t-22.5 -55.5t-55.5 -22.5z" />
    <glyph glyph-name="slash" unicode="/" horiz-adv-x="578" 
d="M572 1560l-480 -1784h-86l480 1784h86z" />
    <glyph glyph-name="zero" unicode="0" horiz-adv-x="1177" 
d="M589 -19q-154 0 -270 96t-181 267.5t-65 399.5q0 229 65 401t181 268t270 96t270 -96t181 -268t65 -401q0 -228 -65 -399.5t-181 -267.5t-270 -96zM589 65q128 0 224.5 85t150 237.5t53.5 356.5t-53.5 357.5t-150 238.5t-224.5 85t-224.5 -85t-150.5 -238.5t-54 -357.5
t54 -356.5t150.5 -237.5t224.5 -85z" />
    <glyph glyph-name="one" unicode="1" horiz-adv-x="663" 
d="M502 1490v-1490h-89v1399h-1l-341 -228v98l330 221h101z" />
    <glyph glyph-name="two" unicode="2" horiz-adv-x="1115" 
d="M90 0v81l525 511q109 106 175.5 186t97 150.5t30.5 148.5q0 103 -46 182t-128.5 123.5t-192.5 44.5q-113 0 -196.5 -46.5t-130 -129t-46.5 -190.5h-86q0 131 58 232.5t161 159.5t239 58q134 0 236.5 -55.5t160.5 -153t58 -222.5q0 -90 -33.5 -171t-105 -170t-187.5 -202
l-464 -452v-1h810v-84h-935z" />
    <glyph glyph-name="three" unicode="3" horiz-adv-x="1134" 
d="M571 -21q-141 0 -252.5 54.5t-175.5 150.5t-64 220h91q0 -102 51.5 -179t142 -120t206.5 -43q120 0 210.5 44t141 120t50.5 171q0 99 -57 172t-156.5 114t-228.5 41h-55v85h55q113 0 202.5 37.5t141 106t51.5 161.5q0 138 -99.5 226t-259.5 88q-161 0 -262 -91t-101 -240
h-89q0 122 58.5 215t160.5 146t233 53q130 0 231 -51t159 -140t58 -203q0 -124 -80 -218t-219 -129v-2q158 -28 252 -130t94 -241q0 -119 -62.5 -214t-173 -149.5t-254.5 -54.5z" />
    <glyph glyph-name="four" unicode="4" horiz-adv-x="1212" 
d="M60 401v72l745 1017h115v-1005h232v-84h-232v-401h-88v401h-772zM832 485v900h-1l-658 -898v-2h659z" />
    <glyph glyph-name="five" unicode="5" horiz-adv-x="1088" 
d="M526 -20q-133 0 -235.5 53.5t-161 146.5t-60.5 212h91q4 -143 104.5 -235.5t261.5 -92.5q119 0 209.5 53.5t141 145.5t50.5 208q0 117 -49.5 208.5t-136.5 143t-200 51.5q-124 0 -223.5 -53.5t-136.5 -148.5h-86l63 818h814v-84h-731l-51 -601h1q53 63 143.5 108.5
t212.5 45.5q137 0 243 -63t166 -173t60 -252t-62.5 -253t-173 -174.5t-254.5 -63.5z" />
    <glyph glyph-name="six" unicode="6" horiz-adv-x="1111" 
d="M567 -19q-220 0 -357 176.5t-137 521.5q0 164 27.5 313t88 265.5t158.5 184t238 67.5q174 0 290.5 -101.5t137.5 -266.5h-90q-20 128 -109.5 206t-224.5 78q-205 0 -319 -193.5t-110 -565.5h1q25 77 85 137t144 95t181 35q130 0 236 -62t168.5 -169.5t62.5 -242.5
q0 -132 -59.5 -240.5t-165.5 -173t-246 -64.5zM567 65q110 0 196 53.5t136 142.5t50 198t-51 197.5t-138.5 140.5t-196.5 52q-115 0 -206.5 -56.5t-139 -149t-30.5 -201.5q28 -178 131 -277.5t249 -99.5z" />
    <glyph glyph-name="seven" unicode="7" horiz-adv-x="1056" 
d="M198 0l707 1405v1h-848v84h942v-89l-704 -1401h-97z" />
    <glyph glyph-name="eight" unicode="8" horiz-adv-x="1105" 
d="M553 -19q-135 0 -244 53.5t-172.5 146t-63.5 207.5q0 97 44.5 179t121.5 136t173 70q-135 32 -211 130t-76 223q0 109 57 195.5t154 137t217 50.5q119 0 216 -50.5t154.5 -137t57.5 -195.5q0 -125 -76 -223t-212 -130q96 -16 173 -70.5t122 -136t45 -178.5
q0 -115 -63.5 -207.5t-172.5 -146t-244 -53.5zM553 65q112 0 200 42.5t139 116t51 167.5q0 96 -51.5 172t-140 120t-198.5 44q-111 0 -199.5 -44t-140 -120t-51.5 -172q0 -94 51 -167.5t139.5 -116t200.5 -42.5zM553 809q96 0 173 41t122 112t45 161q0 87 -45 155.5
t-121.5 107.5t-173.5 39t-174 -39t-121.5 -107.5t-44.5 -155.5q0 -90 45 -160.5t121.5 -112t173.5 -41.5z" />
    <glyph glyph-name="nine" unicode="9" horiz-adv-x="1111" 
d="M524 -19q-115 0 -207 46.5t-150 129t-72 192.5h90q20 -128 110 -206t225 -78q205 0 319 193.5t110 565.5h-1q-24 -77 -84 -136.5t-144 -93.5t-180 -34q-130 0 -236 61.5t-168.5 168.5t-62.5 243q0 131 59 239t165 172.5t246 64.5q221 0 358 -176.5t137 -521.5
q0 -164 -28 -313t-88.5 -265.5t-158.5 -184t-239 -67.5zM548 644q115 0 206.5 56t139 148.5t30.5 200.5q-28 179 -131 277.5t-250 98.5q-109 0 -195.5 -53t-136.5 -142t-50 -197q0 -110 51.5 -198t139 -139.5t196.5 -51.5z" />
    <glyph glyph-name="colon" unicode=":" horiz-adv-x="417" 
d="M208 -14q-32 0 -54.5 22.5t-22.5 55.5t22.5 55.5t54.5 22.5q33 0 55.5 -22.5t22.5 -55.5t-22.5 -55.5t-55.5 -22.5zM208 855q-32 0 -54.5 22.5t-22.5 55.5t22.5 55.5t54.5 22.5q33 0 55.5 -22.5t22.5 -55.5t-22.5 -55.5t-55.5 -22.5z" />
    <glyph glyph-name="semicolon" unicode=";" horiz-adv-x="416" 
d="M93 -276l87 452h94l-113 -452h-68zM207 855q-32 0 -54.5 22.5t-22.5 55.5t22.5 55.5t54.5 22.5q33 0 55.5 -22.5t22.5 -55.5t-22.5 -55.5t-55.5 -22.5z" />
    <glyph glyph-name="less" unicode="&#x3c;" horiz-adv-x="1213" 
d="M155 547v70l844 504v-99l-734 -437v-8l734 -436v-99z" />
    <glyph glyph-name="equal" unicode="=" horiz-adv-x="1213" 
d="M226 339v83h760v-83h-760zM226 742v83h760v-83h-760z" />
    <glyph glyph-name="greater" unicode="&#x3e;" horiz-adv-x="1213" 
d="M1057 547l-843 -505v99l734 437v6l-734 438v99l843 -504v-70z" />
    <glyph glyph-name="question" unicode="?" horiz-adv-x="970" 
d="M402 369v136q0 95 30 154t80 100t111 83q88 61 129.5 134.5t41.5 160.5q0 131 -85.5 209.5t-227.5 78.5q-147 0 -237 -91t-90 -241h-90q0 123 53 216.5t147 146.5t217 53q119 0 209.5 -47t141 -131t50.5 -194q0 -216 -204 -356q-58 -40 -99.5 -76t-64.5 -83.5t-23 -122.5
v-130h-89zM447 -14q-33 0 -55.5 22.5t-22.5 55.5t22.5 55.5t55.5 22.5q32 0 54.5 -22.5t22.5 -55.5t-22.5 -55.5t-54.5 -22.5z" />
    <glyph glyph-name="at" unicode="@" horiz-adv-x="1951" 
d="M982 -391q-194 0 -358 70t-284.5 195.5t-187 292.5t-66.5 361t66.5 361t187 292.5t284.5 195.5t358 70q191 0 352.5 -69t280.5 -192.5t184.5 -289.5t65.5 -360q0 -225 -94 -356t-263 -131q-118 0 -168.5 62t-53.5 159h-1q-37 -101 -118 -163.5t-207 -62.5
q-125 0 -219 65.5t-145.5 176t-51.5 242.5q0 137 54 247t149 174t217 64q119 0 198.5 -58.5t117.5 -150.5h1v188h84v-681q0 -95 35 -138.5t112 -43.5q126 0 197.5 107t71.5 297q0 182 -59.5 334t-167.5 263.5t-254 173t-318 61.5q-176 0 -323.5 -62.5t-256.5 -175
t-169 -265.5t-60 -334q0 -182 60 -334.5t169 -265.5t256.5 -175t323.5 -62q131 0 243.5 32t201.5 82l34 -73q-90 -52 -213.5 -87.5t-265.5 -35.5zM967 125q153 0 234.5 112t81.5 291t-81.5 291t-234.5 112q-101 0 -176.5 -51.5t-117.5 -142t-42 -209.5q0 -118 42 -209
t117.5 -142.5t176.5 -51.5z" />
    <glyph glyph-name="A" unicode="A" horiz-adv-x="1258" 
d="M20 0l555 1490h110l553 -1490h-97l-171 467h-683l-172 -467h-95zM318 551h621l-190 518q-28 75 -57 156.5t-63 181.5q-34 -100 -63 -181.5t-57 -156.5z" />
    <glyph glyph-name="B" unicode="B" horiz-adv-x="1260" 
d="M161 0v1490h489q208 0 332.5 -103t124.5 -281q0 -131 -73.5 -220t-182.5 -123v-1q82 -13 154 -58.5t116.5 -120.5t44.5 -180q0 -181 -125.5 -292t-354.5 -111h-525zM252 84h434q184 0 286.5 86t102.5 231q0 99 -52 169.5t-139.5 107.5t-194.5 37h-437v-631zM252 799h434
q98 0 173 40.5t116.5 109.5t41.5 153q0 144 -100 224t-265 80h-400v-607z" />
    <glyph glyph-name="C" unicode="C" horiz-adv-x="1394" 
d="M728 -19q-191 0 -335.5 96.5t-225.5 268t-81 398.5q0 228 81 400t225.5 268.5t335.5 96.5q168 0 291.5 -71.5t197.5 -184t95 -234.5h-92q-22 104 -85 196t-165.5 149.5t-241.5 57.5q-155 0 -279.5 -80.5t-198 -232t-73.5 -365.5q0 -215 73.5 -366t198 -230.5t279.5 -79.5
q138 0 240.5 57.5t166 149.5t85.5 196h92q-21 -122 -95 -234t-197.5 -184t-291.5 -72z" />
    <glyph glyph-name="D" unicode="D" horiz-adv-x="1360" 
d="M575 0h-414v1490h446q209 0 358.5 -88.5t229 -254.5t79.5 -398q0 -354 -183.5 -551.5t-515.5 -197.5zM252 84h319q299 0 455.5 177t156.5 488q0 308 -149.5 482.5t-430.5 174.5h-351v-1322z" />
    <glyph glyph-name="E" unicode="E" horiz-adv-x="1159" 
d="M161 0v1490h925v-84h-834v-602h763v-84h-763v-636h834v-84h-925z" />
    <glyph glyph-name="F" unicode="F" horiz-adv-x="1105" 
d="M161 0v1490h887v-84h-796v-602h714v-84h-714v-720h-91z" />
    <glyph glyph-name="G" unicode="G" horiz-adv-x="1421" 
d="M728 -19q-192 0 -336.5 96.5t-225 268.5t-80.5 398q0 228 81 400t225 268.5t333 96.5q168 0 292 -72.5t199 -185t96 -232.5h-92q-20 101 -84.5 193t-168.5 151t-242 59q-164 0 -287.5 -85t-192 -237.5t-68.5 -355.5q0 -201 68 -353t192 -237.5t291 -85.5q148 0 261 66.5
t177 189t65 288.5h-474v84h564v-83q0 -188 -75.5 -330.5t-209 -222t-308.5 -79.5z" />
    <glyph glyph-name="H" unicode="H" horiz-adv-x="1401" 
d="M161 0v1490h91v-686h897v686h90v-1490h-90v720h-897v-720h-91z" />
    <glyph glyph-name="I" unicode="I" horiz-adv-x="413" 
d="M252 1490v-1490h-91v1490h91z" />
    <glyph glyph-name="J" unicode="J" horiz-adv-x="1054" 
d="M506 -20q-185 0 -296.5 113t-111.5 312v72h91v-72q0 -160 85 -250.5t232 -90.5t232.5 90.5t85.5 250.5v1085h90v-1085q0 -199 -111 -312t-297 -113z" />
    <glyph glyph-name="K" unicode="K" horiz-adv-x="1179" 
d="M161 0v1490h91v-845q76 83 148 161.5t151 162.5l483 521h120l-602 -647l601 -843h-108l-556 780l-237 -256v-524h-91z" />
    <glyph glyph-name="L" unicode="L" horiz-adv-x="1061" 
d="M161 0v1490h92v-1406h752v-84h-844z" />
    <glyph glyph-name="M" unicode="M" horiz-adv-x="1721" 
d="M161 0v1490h125l469 -1111q24 -58 53 -128.5t54 -132.5q25 62 54 132.5t53 128.5l466 1111h125v-1490h-90v1045q0 75 1 156t2 161q-34 -88 -67 -168.5t-61 -148.5l-444 -1045h-80l-445 1045q-59 139 -127 310q1 -79 1.5 -158t0.5 -152v-1045h-90z" />
    <glyph glyph-name="N" unicode="N" horiz-adv-x="1453" 
d="M161 0v1490h99l753 -1077q43 -62 92.5 -135.5t98.5 -147.5q-1 72 -2 149t-1 136v1075h90v-1490h-99l-729 1040q-45 64 -99.5 145.5t-115.5 174.5q1 -96 2.5 -176t1.5 -143v-1041h-91z" />
    <glyph glyph-name="O" unicode="O" horiz-adv-x="1446" 
d="M724 -19q-189 0 -333 97t-224.5 269t-80.5 397q0 227 81 399t224.5 269t332.5 97q188 0 331 -97t224 -269t81 -399q0 -226 -81 -398t-224 -268.5t-331 -96.5zM724 68q157 0 280.5 83t194 234.5t70.5 358.5t-70.5 359.5t-194 235.5t-280.5 83q-158 0 -281.5 -82.5
t-194.5 -235t-71 -360.5q0 -206 70 -357.5t193.5 -235t283.5 -83.5z" />
    <glyph glyph-name="P" unicode="P" horiz-adv-x="1168" 
d="M161 0v1490h502q135 0 237 -54t159 -151.5t57 -229.5q0 -130 -57.5 -227.5t-160 -151t-237.5 -53.5h-409v-623h-91zM252 707h409q164 0 264.5 95t100.5 253q0 160 -100.5 255.5t-264.5 95.5h-409v-699z" />
    <glyph glyph-name="Q" unicode="Q" horiz-adv-x="1446" 
d="M724 -19q-189 0 -333 97t-224.5 269t-80.5 397q0 227 81 399t224.5 269t332.5 97q188 0 331 -97t224 -269t81 -399q0 -206 -67.5 -367.5t-187.5 -260.5l192 -256h-104l-155 207q-140 -86 -314 -86zM737 466h104l211 -279q101 86 159 228.5t58 328.5q0 207 -70.5 359.5
t-194 235.5t-280.5 83q-158 0 -281.5 -82.5t-194.5 -235t-71 -360.5q0 -206 70 -357.5t193.5 -235t283.5 -83.5q143 0 260 70z" />
    <glyph glyph-name="R" unicode="R" horiz-adv-x="1221" 
d="M161 0v1490h509q134 0 236 -54t159 -151.5t57 -229.5q0 -162 -88.5 -272t-236.5 -145l341 -638h-105l-331 624q-19 -1 -37 -1h-413v-623h-91zM252 707h416q163 0 263.5 95t100.5 253q0 160 -100.5 255.5t-263.5 95.5h-416v-699z" />
    <glyph glyph-name="S" unicode="S" horiz-adv-x="1170" 
d="M585 -23q-147 0 -257 52t-172.5 145.5t-66.5 218.5h92q7 -150 114.5 -240t289.5 -90q183 0 294.5 89t111.5 234q0 111 -75.5 182.5t-249.5 122.5l-168 48q-193 56 -285 147.5t-92 228.5q0 116 60 205.5t165 141t241 51.5q137 0 240 -53t162 -147t65 -218h-90
q-10 148 -111.5 240t-267.5 92q-108 0 -192.5 -40t-133 -109.5t-48.5 -159.5q0 -105 74.5 -176t234.5 -117l170 -48q201 -58 296 -151.5t95 -236.5q0 -121 -62 -214t-173.5 -145.5t-260.5 -52.5z" />
    <glyph glyph-name="T" unicode="T" horiz-adv-x="1221" 
d="M57 1406v84h1107v-84h-508v-1406h-91v1406h-508z" />
    <glyph glyph-name="U" unicode="U" horiz-adv-x="1381" 
d="M691 -19q-160 0 -284.5 69t-195.5 188t-71 271v981h91v-977q0 -128 58.5 -228.5t162.5 -158.5t239 -58t238.5 58t162.5 158.5t59 228.5v977h90v-981q0 -152 -70.5 -271.5t-195 -188t-284.5 -68.5z" />
    <glyph glyph-name="V" unicode="V" horiz-adv-x="1258" 
d="M575 0l-555 1490h96l395 -1069q26 -70 56 -154t65 -185q34 101 63.5 185t55.5 154l392 1069h95l-553 -1490h-110z" />
    <glyph glyph-name="W" unicode="W" horiz-adv-x="1855" 
d="M437 0l-417 1490h93l295 -1069q23 -83 44.5 -167t42.5 -168q20 84 41.5 168t44.5 167l288 1069h116l288 -1069q23 -83 44.5 -166.5t41.5 -166.5q21 83 43 166.5t45 166.5l294 1069h94l-418 -1490h-116l-288 1056q-23 84 -44 167.5t-42 166.5q-21 -83 -42 -166.5
t-44 -167.5l-287 -1056h-117z" />
    <glyph glyph-name="X" unicode="X" horiz-adv-x="1233" 
d="M25 0l538 759l-517 731h107l296 -418q43 -61 84.5 -121.5t83.5 -121.5q41 61 83 121.5t86 121.5l297 418h105l-517 -729l537 -761h-107l-324 459q-41 57 -81 115t-79 116q-40 -58 -80.5 -116t-81.5 -115l-325 -459h-105z" />
    <glyph glyph-name="Y" unicode="Y" horiz-adv-x="1252" 
d="M581 0v675l-561 815h107l340 -493q41 -59 80.5 -119t79.5 -119q40 59 79.5 119t80.5 119l339 493h106l-560 -815v-675h-91z" />
    <glyph glyph-name="Z" unicode="Z" horiz-adv-x="1231" 
d="M69 0v87l818 1102q40 54 81 108.5t82 108.5h-943v84h1046v-87l-814 -1097q-41 -56 -82.5 -111.5t-83.5 -110.5h988v-84h-1092z" />
    <glyph glyph-name="bracketleft" unicode="[" horiz-adv-x="549" 
d="M181 -295v1862h279v-80h-192v-1702h192v-80h-279z" />
    <glyph glyph-name="backslash" unicode="\" horiz-adv-x="577" 
d="M486 -224l-480 1784h85l480 -1784h-85z" />
    <glyph glyph-name="bracketright" unicode="]" horiz-adv-x="549" 
d="M89 -295v80h192v1702h-192v80h279v-1862h-279z" />
    <glyph glyph-name="asciicircum" unicode="^" horiz-adv-x="760" 
d="M38 814l297 628h90l297 -628h-92l-247 527h-6l-246 -527h-93z" />
    <glyph glyph-name="underscore" unicode="_" horiz-adv-x="899" 
d="M899 0v-84h-899v84h899z" />
    <glyph glyph-name="grave" unicode="`" horiz-adv-x="466" 
d="M291 1192l-152 298h103l126 -298h-77z" />
    <glyph glyph-name="a" unicode="a" horiz-adv-x="1023" 
d="M435 -16q-97 0 -179 33t-132.5 100t-50.5 170q0 146 110 210t322 92q145 19 222.5 40t77.5 85v22q0 110 -86 183.5t-218 73.5q-88 0 -158.5 -33.5t-112 -90.5t-42.5 -129h-89q2 95 55 170.5t143 119t204 43.5q113 0 201 -43.5t138.5 -119.5t50.5 -174v-736h-86v195h-3
q-40 -90 -133.5 -150.5t-233.5 -60.5zM443 65q159 0 260.5 95t101.5 265v164q-36 -31 -111 -47t-191 -33q-174 -24 -257.5 -74t-83.5 -152q0 -106 81 -162t200 -56z" />
    <glyph glyph-name="b" unicode="b" horiz-adv-x="1131" 
d="M601 -17q-134 0 -237.5 71.5t-144.5 185.5h-2v-240h-86v1490h88v-677h1q36 114 141.5 187t239.5 73t238 -68t164 -190.5t60 -286.5t-59.5 -287t-163.5 -190.5t-239 -67.5zM593 64q109 0 195.5 55.5t136.5 159.5t50 249t-50 249t-136.5 159.5t-195.5 55.5
q-171 0 -275 -125.5t-104 -338.5t104 -338.5t275 -125.5z" />
    <glyph glyph-name="c" unicode="c" horiz-adv-x="1036" 
d="M541 -19q-140 0 -246.5 70.5t-166.5 194t-60 281.5q0 159 60 282.5t166.5 194.5t246.5 71q167 0 284 -101t145 -262h-88q-27 127 -117.5 204t-223.5 77q-115 0 -201.5 -59t-135 -164t-48.5 -243q0 -137 48 -241.5t135 -163.5t202 -59q134 0 222.5 76.5t117.5 204.5h89
q-19 -107 -78.5 -188.5t-149.5 -128t-201 -46.5z" />
    <glyph glyph-name="d" unicode="d" horiz-adv-x="1131" 
d="M530 -17q-134 0 -238.5 67.5t-164 190.5t-59.5 287t60 286.5t164.5 190.5t237.5 68q135 0 240 -73t141 -187h2v677h87v-1490h-86v240h-1q-41 -114 -144.5 -185.5t-238.5 -71.5zM539 64q171 0 274.5 125.5t103.5 338.5t-103.5 338.5t-274.5 125.5q-110 0 -196.5 -55.5
t-136.5 -159.5t-50 -249t50 -249t136.5 -159.5t196.5 -55.5z" />
    <glyph glyph-name="e" unicode="e" horiz-adv-x="1065" 
d="M541 -19q-143 0 -249.5 71t-165 194t-58.5 281q0 159 60 282.5t165.5 194.5t243.5 71q139 0 243.5 -69.5t162.5 -189.5t58 -273v-31h-846q1 -132 49.5 -233t135 -158.5t201.5 -57.5q127 0 224.5 69t128.5 184h89q-23 -101 -87 -176t-156 -117t-199 -42zM156 591h757
q-5 119 -54.5 209.5t-132.5 141.5t-189 51t-189 -50.5t-133 -141t-59 -210.5z" />
    <glyph glyph-name="f" unicode="f" horiz-adv-x="533" 
d="M506 1056v-79h-226v-977h-87v977h-188v79h188v219q0 102 59 158.5t167 56.5h87v-79h-82q-75 0 -109.5 -35t-34.5 -110v-210h226z" />
    <glyph glyph-name="g" unicode="g" horiz-adv-x="1131" 
d="M548 -429q-184 0 -293 85.5t-134 231.5h89q25 -109 109.5 -172.5t228.5 -63.5q176 0 270.5 94t94.5 254v240h-1q-41 -114 -144 -185.5t-238 -71.5q-134 0 -238.5 67.5t-164 190.5t-59.5 287t60 286.5t164.5 190.5t237.5 68q135 0 240 -73t143 -190h1v246h86v-1056
q0 -207 -123.5 -318t-328.5 -111zM539 64q171 0 274.5 125.5t103.5 338.5t-103.5 338.5t-274.5 125.5q-110 0 -196.5 -55.5t-136.5 -159.5t-50 -249t50 -249t136.5 -159.5t196.5 -55.5z" />
    <glyph glyph-name="h" unicode="h" horiz-adv-x="1085" 
d="M219 665v-665h-88v1490h88v-616q50 101 142.5 150t203.5 49q112 0 200 -47.5t138.5 -136t50.5 -212.5v-677h-87v673q0 148 -86 233t-227 85q-95 0 -171 -39.5t-120 -112.5t-44 -174z" />
    <glyph glyph-name="i" unicode="i" horiz-adv-x="350" 
d="M131 0v1056h88v-1056h-88zM175 1308q-29 0 -49.5 20.5t-20.5 49.5t20.5 49.5t49.5 20.5t49.5 -20.5t20.5 -49.5t-20.5 -49.5t-49.5 -20.5z" />
    <glyph glyph-name="j" unicode="j" horiz-adv-x="354" 
d="M135 1056h88v-1213q0 -118 -75.5 -189.5t-188.5 -71.5h-36v81h31q77 0 129 48.5t52 139.5v1205zM179 1308q-29 0 -49.5 20.5t-20.5 49.5t20.5 49.5t49.5 20.5t49.5 -20.5t20.5 -49.5t-20.5 -49.5t-49.5 -20.5z" />
    <glyph glyph-name="k" unicode="k" horiz-adv-x="912" 
d="M131 0v1490h88v-942h4l518 508h117l-448 -440l498 -616h-112l-450 558l-127 -120v-438h-88z" />
    <glyph glyph-name="l" unicode="l" horiz-adv-x="350" 
d="M219 1490v-1490h-88v1490h88z" />
    <glyph glyph-name="m" unicode="m" horiz-adv-x="1670" 
d="M131 0v1056h86v-184q46 100 136.5 150.5t189.5 50.5q112 0 195 -60t115 -159q39 99 130 159t212 60q153 0 248.5 -100t95.5 -284v-689h-88v689q0 149 -76 225.5t-196 76.5q-129 0 -214.5 -82.5t-85.5 -225.5v-683h-88v695q0 140 -73.5 218t-192.5 78q-85 0 -154.5 -39.5
t-110.5 -111t-41 -167.5v-673h-88z" />
    <glyph glyph-name="n" unicode="n" horiz-adv-x="1085" 
d="M219 665v-665h-88v1056h86v-185q51 102 143.5 152t204.5 50t200 -47.5t138.5 -136t50.5 -212.5v-677h-87v673q0 148 -86 233t-227 85q-95 0 -171 -39.5t-120 -112.5t-44 -174z" />
    <glyph glyph-name="o" unicode="o" horiz-adv-x="1080" 
d="M541 -19q-140 0 -246.5 70.5t-166.5 194t-60 281.5q0 159 60 282.5t166.5 194.5t246.5 71q139 0 245.5 -71t166 -194.5t59.5 -282.5q0 -158 -59.5 -281.5t-166 -194t-245.5 -70.5zM541 63q114 0 200.5 59t134.5 163.5t48 241.5q0 138 -48 243t-134.5 164t-200.5 59
q-115 0 -201.5 -59t-135 -164t-48.5 -243q0 -137 48 -241.5t135 -163.5t202 -59z" />
    <glyph glyph-name="p" unicode="p" horiz-adv-x="1131" 
d="M131 -418v1474h86v-243h2q36 114 142 187t240 73t238 -68t164 -190.5t60 -286.5t-59.5 -287t-163.5 -190.5t-239 -67.5q-134 0 -237 71.5t-144 185.5h-1v-658h-88zM593 64q109 0 195.5 55.5t136.5 159.5t50 249t-50 249t-136.5 159.5t-195.5 55.5q-171 0 -275 -125.5
t-104 -338.5t104 -338.5t275 -125.5z" />
    <glyph glyph-name="q" unicode="q" horiz-adv-x="1131" 
d="M1000 -418h-87v658h-2q-41 -114 -143.5 -185.5t-237.5 -71.5q-134 0 -238.5 67.5t-164 190.5t-59.5 287t60 286.5t164.5 190.5t237.5 68q135 0 240.5 -73t142.5 -187h1v243h86v-1474zM539 64q171 0 274.5 125.5t103.5 338.5t-103.5 338.5t-274.5 125.5
q-110 0 -196.5 -55.5t-136.5 -159.5t-50 -249t50 -249t136.5 -159.5t196.5 -55.5z" />
    <glyph glyph-name="r" unicode="r" horiz-adv-x="579" 
d="M131 0v1056h85v-187h2q36 90 118.5 143t192.5 53q13 0 21.5 -0.5t18.5 -1.5v-87q-8 1 -20.5 2.5t-30.5 1.5q-128 0 -213.5 -84t-85.5 -226v-670h-88z" />
    <glyph glyph-name="s" unicode="s" horiz-adv-x="934" 
d="M471 -17q-172 0 -278.5 88.5t-113.5 244.5h86q7 -118 85.5 -186t219.5 -68q138 0 218 63t80 164q0 78 -53.5 116.5t-151.5 61.5l-179 42q-139 33 -211 95.5t-72 170.5q0 133 101.5 215.5t265.5 82.5q162 0 261.5 -88t108.5 -245h-86q-10 121 -82.5 187.5t-201.5 66.5
q-127 0 -203.5 -61t-76.5 -158q0 -78 55 -120.5t158 -66.5l180 -42q136 -32 205.5 -89.5t69.5 -165.5q0 -140 -106.5 -224t-278.5 -84z" />
    <glyph glyph-name="t" unicode="t" horiz-adv-x="527" 
d="M490 1056v-79h-226v-758q0 -73 33.5 -106.5t108.5 -33.5h84v-79h-90q-223 0 -223 213v764h-172v79h172v288h87v-288h226z" />
    <glyph glyph-name="u" unicode="u" horiz-adv-x="1085" 
d="M521 -17q-112 0 -200 47.5t-139 136t-51 212.5v677h88v-673q0 -148 85.5 -233t226.5 -85q95 0 171 39.5t120.5 113t44.5 173.5v665h87v-1056h-86v185q-50 -102 -143 -152t-204 -50z" />
    <glyph glyph-name="v" unicode="v" horiz-adv-x="1015" 
d="M460 0l-427 1056h94l274 -683q28 -68 54.5 -138t52.5 -139q27 69 53.5 139t53.5 138l273 683h93l-426 -1056h-95z" />
    <glyph glyph-name="w" unicode="w" horiz-adv-x="1495" 
d="M348 0l-315 1056h91l194 -667q21 -73 41 -147l40 -148q22 74 43.5 148t44.5 147l212 667h97l212 -667q23 -72 44 -146t43 -147q20 73 40.5 147t41.5 146l194 667h91l-315 -1056h-102l-235 736q-16 53 -31.5 108t-30.5 109q-16 -54 -31.5 -109t-31.5 -108l-236 -736h-101z
" />
    <glyph glyph-name="x" unicode="x" horiz-adv-x="995" 
d="M33 0l412 539l-391 517h105l189 -251q38 -50 75.5 -101t74.5 -102q38 51 75.5 102t75.5 101l190 251h104l-391 -516l410 -540h-105l-214 283q-37 49 -73 97t-72 97q-36 -49 -72.5 -97t-72.5 -97l-215 -283h-105z" />
    <glyph glyph-name="y" unicode="y" horiz-adv-x="1015" 
d="M121 -418v81h94q69 0 104.5 32t74.5 128l70 175l-431 1058h94l276 -683q27 -68 53.5 -136t53.5 -136q26 68 52.5 136t53.5 136l272 683h93l-509 -1262q-47 -118 -103.5 -165t-153.5 -47h-94z" />
    <glyph glyph-name="z" unicode="z" horiz-adv-x="936" 
d="M84 0v74l656 899v2h-649v81h756v-77l-653 -896v-2h658v-81h-768z" />
    <glyph glyph-name="braceleft" unicode="{" horiz-adv-x="717" 
d="M628 -295q-161 0 -231.5 83t-70.5 255v332q0 117 -41.5 165.5t-153.5 51.5h-21v89h22q111 4 152.5 51.5t41.5 164.5v332q0 173 70.5 255.5t231.5 82.5v-80q-118 0 -167 -61t-49 -197v-352q0 -92 -29 -152.5t-103 -88.5q74 -28 103 -88.5t29 -153.5v-351q0 -136 49 -197
t167 -61v-80z" />
    <glyph glyph-name="bar" unicode="|" horiz-adv-x="489" 
d="M284 1970v-2450h-79v2450h79z" />
    <glyph glyph-name="braceright" unicode="}" horiz-adv-x="717" 
d="M89 -295v80q118 0 167.5 61t49.5 197v351q0 93 28.5 153.5t102.5 88.5q-74 28 -102.5 88.5t-28.5 152.5v352q0 136 -49.5 197t-167.5 61v80q161 0 231.5 -82.5t70.5 -255.5v-332q0 -122 45.5 -169t167.5 -47h4v-88h-1q-124 -1 -170 -48.5t-46 -169.5v-332
q0 -172 -70.5 -255t-231.5 -83z" />
    <glyph glyph-name="asciitilde" unicode="~" horiz-adv-x="1213" 
d="M131 473q7 120 85.5 183t184.5 63q75 0 131 -30t113 -74q46 -34 84 -55t86 -21q72 0 121.5 44.5t60.5 119.5l85 -8q-15 -117 -91 -178.5t-174 -61.5q-68 1 -120.5 29t-108.5 71q-47 35 -88.5 57.5t-96.5 22.5q-78 1 -130 -43t-59 -123z" />
    <glyph glyph-name="uni00A0" unicode="&#xa0;" horiz-adv-x="469" 
 />
    <glyph glyph-name="exclamdown" unicode="&#xa1;" horiz-adv-x="421" 
d="M162 -418l5 1117h87l5 -1117h-97zM210 915q-33 0 -56 23.5t-23 56.5t23 56.5t56 23.5t56.5 -23.5t23.5 -56.5t-23.5 -56.5t-56.5 -23.5z" />
    <glyph glyph-name="cent" unicode="&#xa2;" horiz-adv-x="1036" 
d="M498 0v200q-128 11 -225 83.5t-151 191.5t-54 269q0 151 54 270t151 191.5t225 83.5v201h79v-200q154 -11 260 -110t133 -251h-88q-25 117 -105.5 192.5t-199.5 86.5v-926q119 10 198 85t106 194h89q-27 -152 -133.5 -251t-259.5 -111v-199h-79zM498 282v925
q-155 -17 -248.5 -143.5t-93.5 -319.5t93.5 -319t248.5 -143z" />
    <glyph glyph-name="sterling" unicode="&#xa3;" horiz-adv-x="1130" 
d="M73 0v84h6q91 0 139 62t42 185l-17 359h-170v79h167l-14 286q-6 133 45.5 235t147.5 159.5t225 57.5q121 0 212 -52.5t141.5 -145t50.5 -212.5h-87q0 146 -85.5 236t-231.5 90q-155 0 -247 -100t-84 -266l14 -288h438v-79h-434l17 -357q4 -93 -23.5 -154.5t-79.5 -94.5
h582q72 0 103.5 31.5t31.5 103.5v52h86v-47q0 -224 -221 -224h-754z" />
    <glyph glyph-name="currency" unicode="&#xa4;" horiz-adv-x="1316" 
d="M655 -20q-116 0 -217 43t-179 119l-143 -147l-60 64l146 148q-62 81 -96.5 183t-34.5 218q0 118 36 221t99 184l-150 154l60 63l148 -152q77 73 177 114.5t214 41.5q115 0 215.5 -41.5t177.5 -115.5l149 153l60 -63l-151 -155q63 -80 98.5 -183.5t35.5 -220.5
q0 -115 -34.5 -217t-95.5 -183l147 -149l-60 -64l-144 148q-77 -76 -179.5 -119.5t-218.5 -43.5zM655 64q140 0 253 72.5t179 196t67 275.5q0 153 -66.5 275.5t-180 194t-252.5 71.5t-252.5 -71.5t-180.5 -194t-67 -275.5q0 -152 67 -275.5t180.5 -196t252.5 -72.5z" />
    <glyph glyph-name="yen" unicode="&#xa5;" horiz-adv-x="981" 
d="M87 1490l397 -768h13l397 768h101l-422 -799h305v-74h-342v-140h342v-75h-342v-402h-91v402h-342v75h342v140h-342v74h305l-422 799h101z" />
    <glyph glyph-name="brokenbar" unicode="&#xa6;" horiz-adv-x="329" 
d="M123 391h84v-671h-84v671zM207 1490v-669h-84v669h84z" />
    <glyph glyph-name="section" unicode="&#xa7;" horiz-adv-x="993" 
d="M833 1173h-86q-5 106 -68.5 180.5t-181.5 74.5q-116 0 -182 -69.5t-66 -160.5q0 -93 62.5 -147.5t141.5 -100.5l175 -105q66 -39 134 -85t114.5 -108t46.5 -149q0 -93 -70.5 -160.5t-168.5 -76.5v-3q95 -68 130.5 -128t35.5 -131q0 -98 -48 -166.5t-129 -104t-181 -35.5
q-160 0 -264 93t-110 249h87q6 -119 84.5 -189.5t202.5 -70.5q113 0 192 58.5t79 165.5q0 75 -49.5 128t-165.5 121l-177 103q-144 84 -222 160t-78 186q0 93 64 165t170 76v6q-66 50 -104 109t-38 140q0 88 43 158.5t118 112t173 41.5q150 0 240 -95t96 -242zM837 503
q1 61 -36.5 108.5t-94 86.5t-115.5 74l-2 1l-196 114q-108 17 -173 -38.5t-65 -142.5q0 -83 64.5 -143t191.5 -134l178 -103q58 -10 115.5 8.5t95.5 61.5t37 107z" />
    <glyph glyph-name="dieresis" unicode="&#xa8;" horiz-adv-x="1085" 
d="M747 1308q-29 0 -49.5 20.5t-20.5 49.5t20.5 49.5t49.5 20.5t49.5 -20.5t20.5 -49.5t-20.5 -49.5t-49.5 -20.5zM338 1308q-29 0 -49.5 20.5t-20.5 49.5t20.5 49.5t49.5 20.5t49.5 -20.5t20.5 -49.5t-20.5 -49.5t-49.5 -20.5z" />
    <glyph glyph-name="copyright" unicode="&#xa9;" horiz-adv-x="1765" 
d="M883 -23q-159 0 -298.5 59.5t-245 165.5t-165 245t-59.5 298t59.5 298t165 245t245 165.5t298.5 59.5t298 -59.5t244.5 -165.5t165.5 -245t60 -298t-60 -298t-165.5 -245t-244.5 -165.5t-298 -59.5zM883 64q141 0 264.5 53t217 146.5t146.5 217t53 264.5t-53 264.5
t-146.5 217t-217 146.5t-264.5 53t-264.5 -53t-217.5 -146.5t-147 -217t-53 -264.5t53 -264.5t147 -217t217.5 -146.5t264.5 -53zM468 744q0 120 58 218t156.5 156t217.5 58q137 0 239.5 -77.5t136.5 -199.5h-93q-31 85 -106.5 137.5t-176.5 52.5q-95 0 -173.5 -46
t-125 -124.5t-46.5 -174.5q0 -95 46.5 -173t125 -124t173.5 -46q101 0 174 52t103 136h94q-35 -121 -134.5 -199t-236.5 -78q-119 0 -217.5 58.5t-156.5 156.5t-58 217z" />
    <glyph glyph-name="ordfeminine" unicode="&#xaa;" horiz-adv-x="692" 
d="M518 799q-50 -50 -105 -78.5t-126 -28.5q-103 0 -164.5 60t-61.5 157q2 226 312 226h142v67q-1 196 -158 196q-182 0 -192 -159l-88 8q3 104 78.5 167.5t201.5 63.5q246 0 248 -276v-314q-1 -104 24 -179h-91q-14 40 -20 90zM515 1067h-142q-111 0 -165.5 -41t-54.5 -115
q0 -64 39 -101.5t110 -38.5q59 0 116.5 27.5t96.5 71.5v197z" />
    <glyph glyph-name="guillemotleft" unicode="&#xab;" horiz-adv-x="902" 
d="M450 144l-390 461l390 462h104l-386 -462l386 -461h-104zM745 144l-390 461l390 462h104l-386 -462l386 -461h-104z" />
    <glyph glyph-name="logicalnot" unicode="&#xac;" horiz-adv-x="1213" 
d="M882 315v310h-682v83h767v-393h-85z" />
    <glyph glyph-name="registered" unicode="&#xae;" horiz-adv-x="1267" 
d="M633 346q-121 0 -226.5 45.5t-185.5 125.5t-125 185.5t-45 225.5t45 225.5t125 185.5t185.5 125.5t226.5 45.5q120 0 225.5 -45.5t185.5 -125.5t125.5 -185.5t45.5 -225.5t-45.5 -225.5t-125.5 -185.5t-185.5 -125.5t-225.5 -45.5zM633 423q140 1 254.5 69t182 182.5
t67.5 253.5t-67.5 253.5t-182 183t-254.5 68.5q-139 0 -253.5 -68.5t-182.5 -183t-68 -253.5t68 -253.5t182.5 -182.5t253.5 -69zM442 666v536h244q71 1 120.5 -43t49.5 -120q0 -55 -27 -95t-70 -59l119 -219h-79l-108 203h-8h-171v-203h-70zM512 929h158q50 1 80.5 29.5
t30.5 80.5t-30.5 78t-79.5 26h-159v-214z" />
    <glyph glyph-name="macron" unicode="&#xaf;" horiz-adv-x="789" 
d="M641 1406v-77h-493v77h493z" />
    <glyph glyph-name="degree" unicode="&#xb0;" horiz-adv-x="823" 
d="M413 880q-87 0 -158.5 42.5t-114 113.5t-42.5 158t42.5 158t114 113t158.5 42q86 0 157 -42t113 -113t42 -158t-42 -158t-113 -113.5t-157 -42.5zM413 961q64 -1 117 30.5t84.5 84.5t31.5 118t-31.5 118t-84.5 84.5t-117 31.5q-65 0 -118 -31.5t-84.5 -84.5t-31.5 -118
t31.5 -118t84.5 -84.5t118 -30.5z" />
    <glyph glyph-name="plusminus" unicode="&#xb1;" horiz-adv-x="1213" 
d="M169 685v84h394v349h85v-349h396v-84h-396v-348h-85v348h-394zM169 117v84h875v-84h-875z" />
    <glyph glyph-name="two.sups" unicode="&#xb2;" horiz-adv-x="760" 
d="M89 882v70l319 260q87 72 128 120.5t41 107.5q0 71 -55 115.5t-145 44.5q-92 0 -148 -48.5t-56 -128.5h-84q0 111 79.5 182t208.5 71q125 0 205 -65t80 -168q0 -75 -47 -137.5t-150 -143.5l-254 -203v-1h461v-76h-583z" />
    <glyph glyph-name="three.sups" unicode="&#xb3;" horiz-adv-x="776" 
d="M391 870q-138 0 -222.5 69t-84.5 172h87q0 -76 61 -121t159 -45t158.5 43.5t60.5 109.5q0 67 -68 108t-174 41h-44v72h44q95 0 156 37.5t61 100.5q0 65 -54.5 105.5t-141.5 40.5q-88 0 -143.5 -42.5t-55.5 -112.5h-86q0 99 79.5 163.5t205.5 64.5q122 0 201.5 -59.5
t79.5 -151.5q0 -65 -47.5 -112.5t-130.5 -64.5v-1q97 -14 151.5 -67.5t54.5 -124.5q0 -97 -85.5 -161t-221.5 -64z" />
    <glyph glyph-name="acute" unicode="&#xb4;" horiz-adv-x="466" 
d="M100 1192l126 298h99l-149 -298h-76z" />
    <glyph glyph-name="uni00B5" unicode="&#xb5;" horiz-adv-x="1108" 
d="M131 -418v1474h88v-665q0 -149 92.5 -237.5t232.5 -88.5t231.5 88.5t91.5 237.5v665h87v-841q0 -74 30 -104.5t99 -30.5h25v-80h-25q-197 0 -214 180q-33 -73 -88.5 -116t-118 -62t-119.5 -19q-56 0 -118.5 19t-117.5 61.5t-88 114.5v-596h-88z" />
    <glyph glyph-name="paragraph" unicode="&#xb6;" horiz-adv-x="1034" 
d="M781 0v1405h-153v-853h-84q-159 0 -269 61t-166.5 167.5t-56.5 241.5q0 134 56.5 239.5t166.5 167t269 61.5h328v-1490h-91z" />
    <glyph glyph-name="periodcentered" unicode="&#xb7;" horiz-adv-x="417" 
d="M208 622q-32 0 -54.5 22.5t-22.5 55.5t22.5 55.5t54.5 22.5q33 0 55.5 -22.5t22.5 -55.5t-22.5 -55.5t-55.5 -22.5z" />
    <glyph glyph-name="cedilla" unicode="&#xb8;" horiz-adv-x="354" 
d="M84 -418v65h105q123 0 123 96q0 97 -128 97h-66l36 188h60v-28l-17 -97q89 -3 139 -45.5t50 -114.5q0 -77 -53.5 -119t-143.5 -42h-105z" />
    <glyph glyph-name="one.sups" unicode="&#xb9;" horiz-adv-x="493" 
d="M367 1664v-782h-87v697h-1l-205 -118v85l204 118h89z" />
    <glyph glyph-name="ordmasculine" unicode="&#xba;" horiz-adv-x="733" 
d="M43 1045v82q0 162 86 256.5t239 94.5q152 0 237 -94.5t85 -256.5v-82q1 -163 -84.5 -256.5t-239.5 -93.5q-151 0 -237 94t-86 256zM129 1127v-82q1 -125 63 -199t174 -75q114 0 176 74t62 200v82q-1 124 -62.5 198t-173.5 74q-113 0 -175.5 -73.5t-63.5 -198.5z" />
    <glyph glyph-name="guillemotright" unicode="&#xbb;" horiz-adv-x="902" 
d="M53 144l386 461l-386 462h104l390 -462l-390 -461h-104zM348 144l386 461l-386 462h104l390 -462l-390 -461h-104z" />
    <glyph glyph-name="onequarter" unicode="&#xbc;" horiz-adv-x="1366" 
d="M343 1490v-782h-82v700l-191 -120v82l189 120h84zM61 0l1021 1490h95l-1022 -1490h-94zM673 196v67l396 519h105v-514h122v-72h-122v-196h-81v196h-420zM1093 268v425h-1l-327 -424v-1h328z" />
    <glyph glyph-name="onehalf" unicode="&#xbd;" horiz-adv-x="1459" 
d="M343 1490v-782h-82v700l-191 -120v82l189 120h84zM61 0l1021 1490h95l-1022 -1490h-94zM838 0v68l292 260q79 70 117 120t38 110q0 73 -49.5 118.5t-131.5 45.5q-85 0 -135.5 -49.5t-50.5 -130.5h-80q0 111 73 181.5t193 70.5q115 0 188 -65t73 -168q0 -74 -43 -136.5
t-136 -145.5l-231 -205v-1h419v-73h-536z" />
    <glyph glyph-name="threequarters" unicode="&#xbe;" horiz-adv-x="1574" 
d="M363 696q-126 0 -204.5 68.5t-78.5 172.5h84q0 -78 55 -124t143 -46q89 0 144 44t55 112q0 69 -61 110t-157 41h-44v70h44q85 0 140 38t55 102q0 66 -49 106.5t-128 40.5q-81 0 -131 -43t-50 -114h-81q0 100 73 164t189 64q111 0 184.5 -60t73.5 -151q0 -66 -43.5 -113
t-117.5 -64v-2q86 -13 136.5 -66t50.5 -125q0 -97 -79 -161t-203 -64zM269 0l1021 1490h95l-1022 -1490h-94zM881 196v67l396 519h105v-514h122v-72h-122v-196h-81v196h-420zM1301 268v425h-1l-327 -424v-1h328z" />
    <glyph glyph-name="questiondown" unicode="&#xbf;" horiz-adv-x="970" 
d="M568 687v-136q0 -95 -30 -154t-80 -100t-111 -83q-88 -61 -129 -134.5t-41 -160.5q0 -131 85 -209.5t227 -78.5q147 0 237 91t90 241h90q0 -123 -53 -216.5t-147 -146.5t-217 -53q-119 0 -209.5 47t-141 131t-50.5 194q0 216 205 356q57 40 99 76t64.5 84t22.5 122v130
h89zM524 1070q32 0 54.5 -22.5t22.5 -55.5q0 -32 -22.5 -55t-54.5 -23q-33 0 -55.5 23t-22.5 55q0 33 22.5 55.5t55.5 22.5z" />
    <glyph glyph-name="Agrave" unicode="&#xc0;" horiz-adv-x="1258" 
d="M20 0l555 1490h110l553 -1490h-97l-171 467h-683l-172 -467h-95zM318 551h621l-190 518q-28 75 -57 156.5t-63 181.5q-34 -100 -63 -181.5t-57 -156.5zM596 1626l-152 298h103l126 -298h-77z" />
    <glyph glyph-name="Aacute" unicode="&#xc1;" horiz-adv-x="1258" 
d="M20 0l555 1490h110l553 -1490h-97l-171 467h-683l-172 -467h-95zM318 551h621l-190 518q-28 75 -57 156.5t-63 181.5q-34 -100 -63 -181.5t-57 -156.5zM589 1626l126 298h99l-149 -298h-76z" />
    <glyph glyph-name="Acircumflex" unicode="&#xc2;" horiz-adv-x="1258" 
d="M20 0l555 1490h110l553 -1490h-97l-171 467h-683l-172 -467h-95zM318 551h621l-190 518q-28 75 -57 156.5t-63 181.5q-34 -100 -63 -181.5t-57 -156.5zM438 1667h-96v1l245 273h84l247 -273v-1h-96l-193 215z" />
    <glyph glyph-name="Atilde" unicode="&#xc3;" horiz-adv-x="1258" 
d="M20 0l555 1490h110l553 -1490h-97l-171 467h-683l-172 -467h-95zM318 551h621l-190 518q-28 75 -57 156.5t-63 181.5q-34 -100 -63 -181.5t-57 -156.5zM759 1718q-53 0 -93.5 26.5t-75.5 52.5t-74 26q-42 0 -66.5 -28t-28.5 -72h-72q5 75 46 124t110 49q58 0 98 -26.5
t73.5 -53.5t71.5 -27q73 0 92 98h71q-9 -78 -49.5 -123.5t-102.5 -45.5z" />
    <glyph glyph-name="Adieresis" unicode="&#xc4;" horiz-adv-x="1258" 
d="M20 0l555 1490h110l553 -1490h-97l-171 467h-683l-172 -467h-95zM318 551h621l-190 518q-28 75 -57 156.5t-63 181.5q-34 -100 -63 -181.5t-57 -156.5zM834 1742q-29 0 -49.5 20.5t-20.5 49.5t20.5 49.5t49.5 20.5t49.5 -20.5t20.5 -49.5t-20.5 -49.5t-49.5 -20.5z
M425 1742q-29 0 -49.5 20.5t-20.5 49.5t20.5 49.5t49.5 20.5t49.5 -20.5t20.5 -49.5t-20.5 -49.5t-49.5 -20.5z" />
    <glyph glyph-name="Aring" unicode="&#xc5;" horiz-adv-x="1258" 
d="M20 0l555 1490h110l553 -1490h-97l-171 467h-683l-172 -467h-95zM318 551h621l-190 518q-28 75 -57 156.5t-63 181.5q-34 -100 -63 -181.5t-57 -156.5zM630 1634q-76 0 -130.5 52.5t-54.5 125.5q0 74 54.5 126t130.5 52q77 0 131 -52t54 -126q0 -73 -54 -125.5
t-131 -52.5zM630 1705q46 0 78.5 31t32.5 76t-32.5 76t-78.5 31t-78.5 -31t-32.5 -76t32.5 -76t78.5 -31z" />
    <glyph glyph-name="AE" unicode="&#xc6;" horiz-adv-x="1889" 
d="M20 0l732 1490h1049v-84h-760v-617h713v-84h-713v-621h775v-84h-866v485h-595l-237 -485h-98zM396 569h554v837h-144z" />
    <glyph glyph-name="Ccedilla" unicode="&#xc7;" horiz-adv-x="1394" 
d="M728 -19q-191 0 -335.5 96.5t-225.5 268t-81 398.5q0 228 81 400t225.5 268.5t335.5 96.5q168 0 291.5 -71.5t197.5 -184t95 -234.5h-92q-22 104 -85 196t-165.5 149.5t-241.5 57.5q-155 0 -279.5 -80.5t-198 -232t-73.5 -365.5q0 -215 73.5 -366t198 -230.5t279.5 -79.5
q138 0 240.5 57.5t166 149.5t85.5 196h92q-21 -122 -95 -234t-197.5 -184t-291.5 -72zM622 -418v65h105q123 0 123 96q0 97 -128 97h-66l36 188h60v-28l-17 -97q89 -3 139 -45.5t50 -114.5q0 -77 -53.5 -119t-143.5 -42h-105z" />
    <glyph glyph-name="Egrave" unicode="&#xc8;" horiz-adv-x="1159" 
d="M161 0v1490h925v-84h-834v-602h763v-84h-763v-636h834v-84h-925zM590 1626l-152 298h103l126 -298h-77z" />
    <glyph glyph-name="Eacute" unicode="&#xc9;" horiz-adv-x="1159" 
d="M161 0v1490h925v-84h-834v-602h763v-84h-763v-636h834v-84h-925zM582 1626l126 298h99l-149 -298h-76z" />
    <glyph glyph-name="Ecircumflex" unicode="&#xca;" horiz-adv-x="1159" 
d="M161 0v1490h925v-84h-834v-602h763v-84h-763v-636h834v-84h-925zM431 1667h-96v1l245 273h84l247 -273v-1h-96l-193 215z" />
    <glyph glyph-name="Edieresis" unicode="&#xcb;" horiz-adv-x="1159" 
d="M161 0v1490h925v-84h-834v-602h763v-84h-763v-636h834v-84h-925zM828 1742q-29 0 -49.5 20.5t-20.5 49.5t20.5 49.5t49.5 20.5t49.5 -20.5t20.5 -49.5t-20.5 -49.5t-49.5 -20.5zM419 1742q-29 0 -49.5 20.5t-20.5 49.5t20.5 49.5t49.5 20.5t49.5 -20.5t20.5 -49.5
t-20.5 -49.5t-49.5 -20.5z" />
    <glyph glyph-name="Igrave" unicode="&#xcc;" horiz-adv-x="413" 
d="M252 1490v-1490h-91v1490h91zM173 1626l-152 298h103l126 -298h-77z" />
    <glyph glyph-name="Iacute" unicode="&#xcd;" horiz-adv-x="413" 
d="M252 1490v-1490h-91v1490h91zM165 1626l126 298h99l-149 -298h-76z" />
    <glyph glyph-name="Icircumflex" unicode="&#xce;" horiz-adv-x="413" 
d="M252 1490v-1490h-91v1490h91zM15 1667h-96v1l245 273h84l247 -273v-1h-96l-193 215z" />
    <glyph glyph-name="Idieresis" unicode="&#xcf;" horiz-adv-x="413" 
d="M252 1490v-1490h-91v1490h91zM411 1742q-29 0 -49.5 20.5t-20.5 49.5t20.5 49.5t49.5 20.5t49.5 -20.5t20.5 -49.5t-20.5 -49.5t-49.5 -20.5zM2 1742q-29 0 -49.5 20.5t-20.5 49.5t20.5 49.5t49.5 20.5t49.5 -20.5t20.5 -49.5t-20.5 -49.5t-49.5 -20.5z" />
    <glyph glyph-name="Eth" unicode="&#xd0;" horiz-adv-x="1395" 
d="M610 0h-414v1490h446q209 0 358.5 -88.5t229 -254.5t79.5 -398q0 -354 -183.5 -551.5t-515.5 -197.5zM287 84h319q299 0 455.5 177t156.5 488q0 308 -149.5 482.5t-430.5 174.5h-351v-1322zM5 703v84h745v-84h-745z" />
    <glyph glyph-name="Ntilde" unicode="&#xd1;" horiz-adv-x="1453" 
d="M161 0v1490h99l753 -1077q43 -62 92.5 -135.5t98.5 -147.5q-1 72 -2 149t-1 136v1075h90v-1490h-99l-729 1040q-45 64 -99.5 145.5t-115.5 174.5q1 -96 2.5 -176t1.5 -143v-1041h-91zM856 1718q-53 0 -93.5 26.5t-75.5 52.5t-74 26q-42 0 -66.5 -28t-28.5 -72h-72
q5 75 46 124t110 49q58 0 98 -26.5t73.5 -53.5t71.5 -27q73 0 92 98h71q-9 -78 -49.5 -123.5t-102.5 -45.5z" />
    <glyph glyph-name="Ograve" unicode="&#xd2;" horiz-adv-x="1446" 
d="M724 -19q-189 0 -333 97t-224.5 269t-80.5 397q0 227 81 399t224.5 269t332.5 97q188 0 331 -97t224 -269t81 -399q0 -226 -81 -398t-224 -268.5t-331 -96.5zM724 68q157 0 280.5 83t194 234.5t70.5 358.5t-70.5 359.5t-194 235.5t-280.5 83q-158 0 -281.5 -82.5
t-194.5 -235t-71 -360.5q0 -206 70 -357.5t193.5 -235t283.5 -83.5zM690 1626l-152 298h103l126 -298h-77z" />
    <glyph glyph-name="Oacute" unicode="&#xd3;" horiz-adv-x="1446" 
d="M724 -19q-189 0 -333 97t-224.5 269t-80.5 397q0 227 81 399t224.5 269t332.5 97q188 0 331 -97t224 -269t81 -399q0 -226 -81 -398t-224 -268.5t-331 -96.5zM724 68q157 0 280.5 83t194 234.5t70.5 358.5t-70.5 359.5t-194 235.5t-280.5 83q-158 0 -281.5 -82.5
t-194.5 -235t-71 -360.5q0 -206 70 -357.5t193.5 -235t283.5 -83.5zM682 1626l126 298h99l-149 -298h-76z" />
    <glyph glyph-name="Ocircumflex" unicode="&#xd4;" horiz-adv-x="1446" 
d="M724 -19q-189 0 -333 97t-224.5 269t-80.5 397q0 227 81 399t224.5 269t332.5 97q188 0 331 -97t224 -269t81 -399q0 -226 -81 -398t-224 -268.5t-331 -96.5zM724 68q157 0 280.5 83t194 234.5t70.5 358.5t-70.5 359.5t-194 235.5t-280.5 83q-158 0 -281.5 -82.5
t-194.5 -235t-71 -360.5q0 -206 70 -357.5t193.5 -235t283.5 -83.5zM532 1667h-96v1l245 273h84l247 -273v-1h-96l-193 215z" />
    <glyph glyph-name="Otilde" unicode="&#xd5;" horiz-adv-x="1446" 
d="M724 -19q-189 0 -333 97t-224.5 269t-80.5 397q0 227 81 399t224.5 269t332.5 97q188 0 331 -97t224 -269t81 -399q0 -226 -81 -398t-224 -268.5t-331 -96.5zM724 68q157 0 280.5 83t194 234.5t70.5 358.5t-70.5 359.5t-194 235.5t-280.5 83q-158 0 -281.5 -82.5
t-194.5 -235t-71 -360.5q0 -206 70 -357.5t193.5 -235t283.5 -83.5zM853 1718q-53 0 -93.5 26.5t-75.5 52.5t-74 26q-42 0 -66.5 -28t-28.5 -72h-72q5 75 46 124t110 49q58 0 98 -26.5t73.5 -53.5t71.5 -27q73 0 92 98h71q-9 -78 -49.5 -123.5t-102.5 -45.5z" />
    <glyph glyph-name="Odieresis" unicode="&#xd6;" horiz-adv-x="1446" 
d="M724 -19q-189 0 -333 97t-224.5 269t-80.5 397q0 227 81 399t224.5 269t332.5 97q188 0 331 -97t224 -269t81 -399q0 -226 -81 -398t-224 -268.5t-331 -96.5zM724 68q157 0 280.5 83t194 234.5t70.5 358.5t-70.5 359.5t-194 235.5t-280.5 83q-158 0 -281.5 -82.5
t-194.5 -235t-71 -360.5q0 -206 70 -357.5t193.5 -235t283.5 -83.5zM928 1742q-29 0 -49.5 20.5t-20.5 49.5t20.5 49.5t49.5 20.5t49.5 -20.5t20.5 -49.5t-20.5 -49.5t-49.5 -20.5zM519 1742q-29 0 -49.5 20.5t-20.5 49.5t20.5 49.5t49.5 20.5t49.5 -20.5t20.5 -49.5
t-20.5 -49.5t-49.5 -20.5z" />
    <glyph glyph-name="multiply" unicode="&#xd7;" horiz-adv-x="1213" 
d="M988 141l-381 382l-381 -382l-59 60l381 381l-381 381l59 58l381 -381l381 381l58 -58l-381 -381l381 -381z" />
    <glyph glyph-name="Oslash" unicode="&#xd8;" horiz-adv-x="1446" 
d="M724 -19q-189 0 -333 97t-224.5 269t-80.5 397q0 227 81 399t224.5 269t332.5 97q188 0 331 -97t224 -269t81 -399q0 -226 -81 -398t-224 -268.5t-331 -96.5zM724 68q157 0 280.5 83t194 234.5t70.5 358.5t-70.5 359.5t-194 235.5t-280.5 83q-158 0 -281.5 -82.5
t-194.5 -235t-71 -360.5q0 -206 70 -357.5t193.5 -235t283.5 -83.5zM244 -26l-69 52l1027 1490l69 -52z" />
    <glyph glyph-name="Ugrave" unicode="&#xd9;" horiz-adv-x="1381" 
d="M691 -19q-160 0 -284.5 69t-195.5 188t-71 271v981h91v-977q0 -128 58.5 -228.5t162.5 -158.5t239 -58t238.5 58t162.5 158.5t59 228.5v977h90v-981q0 -152 -70.5 -271.5t-195 -188t-284.5 -68.5zM657 1626l-152 298h103l126 -298h-77z" />
    <glyph glyph-name="Uacute" unicode="&#xda;" horiz-adv-x="1381" 
d="M691 -19q-160 0 -284.5 69t-195.5 188t-71 271v981h91v-977q0 -128 58.5 -228.5t162.5 -158.5t239 -58t238.5 58t162.5 158.5t59 228.5v977h90v-981q0 -152 -70.5 -271.5t-195 -188t-284.5 -68.5zM649 1626l126 298h99l-149 -298h-76z" />
    <glyph glyph-name="Ucircumflex" unicode="&#xdb;" horiz-adv-x="1381" 
d="M691 -19q-160 0 -284.5 69t-195.5 188t-71 271v981h91v-977q0 -128 58.5 -228.5t162.5 -158.5t239 -58t238.5 58t162.5 158.5t59 228.5v977h90v-981q0 -152 -70.5 -271.5t-195 -188t-284.5 -68.5zM499 1667h-96v1l245 273h84l247 -273v-1h-96l-193 215z" />
    <glyph glyph-name="Udieresis" unicode="&#xdc;" horiz-adv-x="1381" 
d="M691 -19q-160 0 -284.5 69t-195.5 188t-71 271v981h91v-977q0 -128 58.5 -228.5t162.5 -158.5t239 -58t238.5 58t162.5 158.5t59 228.5v977h90v-981q0 -152 -70.5 -271.5t-195 -188t-284.5 -68.5zM895 1742q-29 0 -49.5 20.5t-20.5 49.5t20.5 49.5t49.5 20.5t49.5 -20.5
t20.5 -49.5t-20.5 -49.5t-49.5 -20.5zM486 1742q-29 0 -49.5 20.5t-20.5 49.5t20.5 49.5t49.5 20.5t49.5 -20.5t20.5 -49.5t-20.5 -49.5t-49.5 -20.5z" />
    <glyph glyph-name="Yacute" unicode="&#xdd;" horiz-adv-x="1252" 
d="M581 0v675l-561 815h107l340 -493q41 -59 80.5 -119t79.5 -119q40 59 79.5 119t80.5 119l339 493h106l-560 -815v-675h-91zM585 1626l126 298h99l-149 -298h-76z" />
    <glyph glyph-name="Thorn" unicode="&#xde;" horiz-adv-x="1131" 
d="M143 1490h91v-341h335q212 -1 332 -112.5t120 -288.5q0 -180 -118.5 -289t-333.5 -109h-335v-350h-91v1490zM234 434h335q174 0 269.5 82t95.5 231t-96.5 233.5t-268.5 84.5h-335v-631z" />
    <glyph glyph-name="germandbls" unicode="&#xdf;" horiz-adv-x="1097" 
d="M161 0v1137q0 173 105 273t279 100q173 0 278.5 -98.5t105.5 -268.5q0 -138 -69.5 -232.5t-195.5 -131.5v-7q152 -22 246 -123t94 -255q0 -116 -54 -205t-151.5 -139t-227.5 -50h-122v84h124q155 0 249 85.5t94 224.5q0 149 -108.5 239.5t-294.5 90.5h-58v83h46
q158 0 249 91t91 237q0 132 -78 211.5t-217 79.5q-136 0 -216.5 -77.5t-80.5 -211.5v-1137h-88z" />
    <glyph glyph-name="agrave" unicode="&#xe0;" horiz-adv-x="1023" 
d="M435 -16q-97 0 -179 33t-132.5 100t-50.5 170q0 146 110 210t322 92q145 19 222.5 40t77.5 85v22q0 110 -86 183.5t-218 73.5q-88 0 -158.5 -33.5t-112 -90.5t-42.5 -129h-89q2 95 55 170.5t143 119t204 43.5q113 0 201 -43.5t138.5 -119.5t50.5 -174v-736h-86v195h-3
q-40 -90 -133.5 -150.5t-233.5 -60.5zM443 65q159 0 260.5 95t101.5 265v164q-36 -31 -111 -47t-191 -33q-174 -24 -257.5 -74t-83.5 -152q0 -106 81 -162t200 -56zM465 1192l-152 298h103l126 -298h-77z" />
    <glyph glyph-name="aacute" unicode="&#xe1;" horiz-adv-x="1023" 
d="M435 -16q-97 0 -179 33t-132.5 100t-50.5 170q0 146 110 210t322 92q145 19 222.5 40t77.5 85v22q0 110 -86 183.5t-218 73.5q-88 0 -158.5 -33.5t-112 -90.5t-42.5 -129h-89q2 95 55 170.5t143 119t204 43.5q113 0 201 -43.5t138.5 -119.5t50.5 -174v-736h-86v195h-3
q-40 -90 -133.5 -150.5t-233.5 -60.5zM443 65q159 0 260.5 95t101.5 265v164q-36 -31 -111 -47t-191 -33q-174 -24 -257.5 -74t-83.5 -152q0 -106 81 -162t200 -56zM457 1192l126 298h99l-149 -298h-76z" />
    <glyph glyph-name="acircumflex" unicode="&#xe2;" horiz-adv-x="1023" 
d="M435 -16q-97 0 -179 33t-132.5 100t-50.5 170q0 146 110 210t322 92q145 19 222.5 40t77.5 85v22q0 110 -86 183.5t-218 73.5q-88 0 -158.5 -33.5t-112 -90.5t-42.5 -129h-89q2 95 55 170.5t143 119t204 43.5q113 0 201 -43.5t138.5 -119.5t50.5 -174v-736h-86v195h-3
q-40 -90 -133.5 -150.5t-233.5 -60.5zM443 65q159 0 260.5 95t101.5 265v164q-36 -31 -111 -47t-191 -33q-174 -24 -257.5 -74t-83.5 -152q0 -106 81 -162t200 -56zM307 1233h-96v1l245 273h84l247 -273v-1h-96l-193 215z" />
    <glyph glyph-name="atilde" unicode="&#xe3;" horiz-adv-x="1023" 
d="M435 -16q-97 0 -179 33t-132.5 100t-50.5 170q0 146 110 210t322 92q145 19 222.5 40t77.5 85v22q0 110 -86 183.5t-218 73.5q-88 0 -158.5 -33.5t-112 -90.5t-42.5 -129h-89q2 95 55 170.5t143 119t204 43.5q113 0 201 -43.5t138.5 -119.5t50.5 -174v-736h-86v195h-3
q-40 -90 -133.5 -150.5t-233.5 -60.5zM443 65q159 0 260.5 95t101.5 265v164q-36 -31 -111 -47t-191 -33q-174 -24 -257.5 -74t-83.5 -152q0 -106 81 -162t200 -56zM628 1284q-53 0 -93.5 26.5t-75.5 52.5t-74 26q-42 0 -66.5 -28t-28.5 -72h-72q5 75 46 124t110 49
q58 0 98 -26.5t73.5 -53.5t71.5 -27q73 0 92 98h71q-9 -78 -49.5 -123.5t-102.5 -45.5z" />
    <glyph glyph-name="adieresis" unicode="&#xe4;" horiz-adv-x="1023" 
d="M435 -16q-97 0 -179 33t-132.5 100t-50.5 170q0 146 110 210t322 92q145 19 222.5 40t77.5 85v22q0 110 -86 183.5t-218 73.5q-88 0 -158.5 -33.5t-112 -90.5t-42.5 -129h-89q2 95 55 170.5t143 119t204 43.5q113 0 201 -43.5t138.5 -119.5t50.5 -174v-736h-86v195h-3
q-40 -90 -133.5 -150.5t-233.5 -60.5zM443 65q159 0 260.5 95t101.5 265v164q-36 -31 -111 -47t-191 -33q-174 -24 -257.5 -74t-83.5 -152q0 -106 81 -162t200 -56zM703 1308q-29 0 -49.5 20.5t-20.5 49.5t20.5 49.5t49.5 20.5t49.5 -20.5t20.5 -49.5t-20.5 -49.5
t-49.5 -20.5zM294 1308q-29 0 -49.5 20.5t-20.5 49.5t20.5 49.5t49.5 20.5t49.5 -20.5t20.5 -49.5t-20.5 -49.5t-49.5 -20.5z" />
    <glyph glyph-name="aring" unicode="&#xe5;" horiz-adv-x="1023" 
d="M435 -16q-97 0 -179 33t-132.5 100t-50.5 170q0 146 110 210t322 92q145 19 222.5 40t77.5 85v22q0 110 -86 183.5t-218 73.5q-88 0 -158.5 -33.5t-112 -90.5t-42.5 -129h-89q2 95 55 170.5t143 119t204 43.5q113 0 201 -43.5t138.5 -119.5t50.5 -174v-736h-86v195h-3
q-40 -90 -133.5 -150.5t-233.5 -60.5zM443 65q159 0 260.5 95t101.5 265v164q-36 -31 -111 -47t-191 -33q-174 -24 -257.5 -74t-83.5 -152q0 -106 81 -162t200 -56zM499 1200q-76 0 -130.5 52.5t-54.5 125.5q0 74 54.5 126t130.5 52q77 0 131 -52t54 -126q0 -73 -54 -125.5
t-131 -52.5zM499 1271q46 0 78.5 31t32.5 76t-32.5 76t-78.5 31t-78.5 -31t-32.5 -76t32.5 -76t78.5 -31z" />
    <glyph glyph-name="ae" unicode="&#xe6;" horiz-adv-x="1778" 
d="M432 -15q-154 0 -256.5 78t-102.5 229q0 107 63.5 173t170 96t237.5 30h239v145q0 110 -80.5 183.5t-211.5 73.5q-133 0 -217 -73t-86 -180h-89q2 95 52 170.5t138 119t202 43.5q143 0 237.5 -69t121.5 -182q59 116 162.5 184.5t237.5 68.5q139 0 243.5 -69.5
t162.5 -189.5t58 -273v-31h-846q1 -132 49.5 -233t135 -158.5t201.5 -57.5q127 0 224.5 69t128.5 184h89q-23 -101 -87 -176t-156 -117t-199 -42q-149 0 -259 79t-164 212q-26 -107 -88.5 -170t-144.5 -90t-166 -27zM869 591h757q-5 119 -54.5 209.5t-132.5 141.5t-189 51
t-189 -50.5t-133 -141t-59 -210.5zM783 512h-239q-382 0 -382 -221q0 -111 76.5 -168t193.5 -57q160 0 255.5 94.5t95.5 264.5v87z" />
    <glyph glyph-name="ccedilla" unicode="&#xe7;" horiz-adv-x="1036" 
d="M541 -19q-140 0 -246.5 70.5t-166.5 194t-60 281.5q0 159 60 282.5t166.5 194.5t246.5 71q167 0 284 -101t145 -262h-88q-27 127 -117.5 204t-223.5 77q-115 0 -201.5 -59t-135 -164t-48.5 -243q0 -137 48 -241.5t135 -163.5t202 -59q134 0 222.5 76.5t117.5 204.5h89
q-19 -107 -78.5 -188.5t-149.5 -128t-201 -46.5zM442 -418v65h105q123 0 123 96q0 97 -128 97h-66l36 188h60v-28l-17 -97q89 -3 139 -45.5t50 -114.5q0 -77 -53.5 -119t-143.5 -42h-105z" />
    <glyph glyph-name="egrave" unicode="&#xe8;" horiz-adv-x="1065" 
d="M541 -19q-143 0 -249.5 71t-165 194t-58.5 281q0 159 60 282.5t165.5 194.5t243.5 71q139 0 243.5 -69.5t162.5 -189.5t58 -273v-31h-846q1 -132 49.5 -233t135 -158.5t201.5 -57.5q127 0 224.5 69t128.5 184h89q-23 -101 -87 -176t-156 -117t-199 -42zM156 591h757
q-5 119 -54.5 209.5t-132.5 141.5t-189 51t-189 -50.5t-133 -141t-59 -210.5zM500 1192l-152 298h103l126 -298h-77z" />
    <glyph glyph-name="eacute" unicode="&#xe9;" horiz-adv-x="1065" 
d="M541 -19q-143 0 -249.5 71t-165 194t-58.5 281q0 159 60 282.5t165.5 194.5t243.5 71q139 0 243.5 -69.5t162.5 -189.5t58 -273v-31h-846q1 -132 49.5 -233t135 -158.5t201.5 -57.5q127 0 224.5 69t128.5 184h89q-23 -101 -87 -176t-156 -117t-199 -42zM156 591h757
q-5 119 -54.5 209.5t-132.5 141.5t-189 51t-189 -50.5t-133 -141t-59 -210.5zM493 1192l126 298h99l-149 -298h-76z" />
    <glyph glyph-name="ecircumflex" unicode="&#xea;" horiz-adv-x="1065" 
d="M541 -19q-143 0 -249.5 71t-165 194t-58.5 281q0 159 60 282.5t165.5 194.5t243.5 71q139 0 243.5 -69.5t162.5 -189.5t58 -273v-31h-846q1 -132 49.5 -233t135 -158.5t201.5 -57.5q127 0 224.5 69t128.5 184h89q-23 -101 -87 -176t-156 -117t-199 -42zM156 591h757
q-5 119 -54.5 209.5t-132.5 141.5t-189 51t-189 -50.5t-133 -141t-59 -210.5zM342 1233h-96v1l245 273h84l247 -273v-1h-96l-193 215z" />
    <glyph glyph-name="edieresis" unicode="&#xeb;" horiz-adv-x="1065" 
d="M541 -19q-143 0 -249.5 71t-165 194t-58.5 281q0 159 60 282.5t165.5 194.5t243.5 71q139 0 243.5 -69.5t162.5 -189.5t58 -273v-31h-846q1 -132 49.5 -233t135 -158.5t201.5 -57.5q127 0 224.5 69t128.5 184h89q-23 -101 -87 -176t-156 -117t-199 -42zM156 591h757
q-5 119 -54.5 209.5t-132.5 141.5t-189 51t-189 -50.5t-133 -141t-59 -210.5zM738 1308q-29 0 -49.5 20.5t-20.5 49.5t20.5 49.5t49.5 20.5t49.5 -20.5t20.5 -49.5t-20.5 -49.5t-49.5 -20.5zM329 1308q-29 0 -49.5 20.5t-20.5 49.5t20.5 49.5t49.5 20.5t49.5 -20.5
t20.5 -49.5t-20.5 -49.5t-49.5 -20.5z" />
    <glyph glyph-name="igrave" unicode="&#xec;" horiz-adv-x="350" 
d="M131 0v1056h88v-1056h-88zM141 1192l-152 298h103l126 -298h-77z" />
    <glyph glyph-name="iacute" unicode="&#xed;" horiz-adv-x="350" 
d="M131 0v1056h88v-1056h-88zM134 1192l126 298h99l-149 -298h-76z" />
    <glyph glyph-name="icircumflex" unicode="&#xee;" horiz-adv-x="350" 
d="M131 0v1056h88v-1056h-88zM-17 1233h-96v1l245 273h84l247 -273v-1h-96l-193 215z" />
    <glyph glyph-name="idieresis" unicode="&#xef;" horiz-adv-x="350" 
d="M131 0v1056h88v-1056h-88zM379 1308q-29 0 -49.5 20.5t-20.5 49.5t20.5 49.5t49.5 20.5t49.5 -20.5t20.5 -49.5t-20.5 -49.5t-49.5 -20.5zM-30 1308q-29 0 -49.5 20.5t-20.5 49.5t20.5 49.5t49.5 20.5t49.5 -20.5t20.5 -49.5t-20.5 -49.5t-49.5 -20.5z" />
    <glyph glyph-name="eth" unicode="&#xf0;" horiz-adv-x="1098" 
d="M922 1447l-229 -107q153 -157 244.5 -360.5t92.5 -432.5q0 -176 -62.5 -304t-171 -197t-246.5 -70q-139 1 -248 72t-171.5 193.5t-62.5 275.5q0 155 62.5 277t168.5 192.5t236 70.5q126 0 218 -61.5t150 -162.5h10q-40 125 -113.5 246t-181.5 226l-275 -128l-24 67
l242 112q-103 88 -228 155l36 71q147 -77 270 -190l258 120zM550 59q116 0 204.5 60.5t139 163.5t50.5 230q0 124 -49 230t-137.5 171t-207.5 65q-115 0 -204 -62.5t-139 -167.5t-50 -232q0 -126 49 -230t137.5 -166t206.5 -62z" />
    <glyph glyph-name="ntilde" unicode="&#xf1;" horiz-adv-x="1085" 
d="M219 665v-665h-88v1056h86v-185q51 102 143.5 152t204.5 50t200 -47.5t138.5 -136t50.5 -212.5v-677h-87v673q0 148 -86 233t-227 85q-95 0 -171 -39.5t-120 -112.5t-44 -174zM673 1284q-53 0 -93.5 26.5t-75.5 52.5t-74 26q-42 0 -66.5 -28t-28.5 -72h-72q5 75 46 124
t110 49q58 0 98 -26.5t73.5 -53.5t71.5 -27q73 0 92 98h71q-9 -78 -49.5 -123.5t-102.5 -45.5z" />
    <glyph glyph-name="ograve" unicode="&#xf2;" horiz-adv-x="1080" 
d="M541 -19q-140 0 -246.5 70.5t-166.5 194t-60 281.5q0 159 60 282.5t166.5 194.5t246.5 71q139 0 245.5 -71t166 -194.5t59.5 -282.5q0 -158 -59.5 -281.5t-166 -194t-245.5 -70.5zM541 63q114 0 200.5 59t134.5 163.5t48 241.5q0 138 -48 243t-134.5 164t-200.5 59
q-115 0 -201.5 -59t-135 -164t-48.5 -243q0 -137 48 -241.5t135 -163.5t202 -59zM507 1192l-152 298h103l126 -298h-77z" />
    <glyph glyph-name="oacute" unicode="&#xf3;" horiz-adv-x="1080" 
d="M541 -19q-140 0 -246.5 70.5t-166.5 194t-60 281.5q0 159 60 282.5t166.5 194.5t246.5 71q139 0 245.5 -71t166 -194.5t59.5 -282.5q0 -158 -59.5 -281.5t-166 -194t-245.5 -70.5zM541 63q114 0 200.5 59t134.5 163.5t48 241.5q0 138 -48 243t-134.5 164t-200.5 59
q-115 0 -201.5 -59t-135 -164t-48.5 -243q0 -137 48 -241.5t135 -163.5t202 -59zM499 1192l126 298h99l-149 -298h-76z" />
    <glyph glyph-name="ocircumflex" unicode="&#xf4;" horiz-adv-x="1080" 
d="M541 -19q-140 0 -246.5 70.5t-166.5 194t-60 281.5q0 159 60 282.5t166.5 194.5t246.5 71q139 0 245.5 -71t166 -194.5t59.5 -282.5q0 -158 -59.5 -281.5t-166 -194t-245.5 -70.5zM541 63q114 0 200.5 59t134.5 163.5t48 241.5q0 138 -48 243t-134.5 164t-200.5 59
q-115 0 -201.5 -59t-135 -164t-48.5 -243q0 -137 48 -241.5t135 -163.5t202 -59zM349 1233h-96v1l245 273h84l247 -273v-1h-96l-193 215z" />
    <glyph glyph-name="otilde" unicode="&#xf5;" horiz-adv-x="1080" 
d="M541 -19q-140 0 -246.5 70.5t-166.5 194t-60 281.5q0 159 60 282.5t166.5 194.5t246.5 71q139 0 245.5 -71t166 -194.5t59.5 -282.5q0 -158 -59.5 -281.5t-166 -194t-245.5 -70.5zM541 63q114 0 200.5 59t134.5 163.5t48 241.5q0 138 -48 243t-134.5 164t-200.5 59
q-115 0 -201.5 -59t-135 -164t-48.5 -243q0 -137 48 -241.5t135 -163.5t202 -59zM670 1284q-53 0 -93.5 26.5t-75.5 52.5t-74 26q-42 0 -66.5 -28t-28.5 -72h-72q5 75 46 124t110 49q58 0 98 -26.5t73.5 -53.5t71.5 -27q73 0 92 98h71q-9 -78 -49.5 -123.5t-102.5 -45.5z
" />
    <glyph glyph-name="odieresis" unicode="&#xf6;" horiz-adv-x="1080" 
d="M541 -19q-140 0 -246.5 70.5t-166.5 194t-60 281.5q0 159 60 282.5t166.5 194.5t246.5 71q139 0 245.5 -71t166 -194.5t59.5 -282.5q0 -158 -59.5 -281.5t-166 -194t-245.5 -70.5zM541 63q114 0 200.5 59t134.5 163.5t48 241.5q0 138 -48 243t-134.5 164t-200.5 59
q-115 0 -201.5 -59t-135 -164t-48.5 -243q0 -137 48 -241.5t135 -163.5t202 -59zM745 1308q-29 0 -49.5 20.5t-20.5 49.5t20.5 49.5t49.5 20.5t49.5 -20.5t20.5 -49.5t-20.5 -49.5t-49.5 -20.5zM336 1308q-29 0 -49.5 20.5t-20.5 49.5t20.5 49.5t49.5 20.5t49.5 -20.5
t20.5 -49.5t-20.5 -49.5t-49.5 -20.5z" />
    <glyph glyph-name="divide" unicode="&#xf7;" horiz-adv-x="1213" 
d="M1043 625v-86h-873v86h873zM606 851q-32 0 -55 22.5t-23 55.5q0 32 23 55t55 23t54.5 -23t22.5 -55q0 -33 -22.5 -55.5t-54.5 -22.5zM606 157q-32 0 -55 23t-23 55t23 55t55 23t54.5 -23t22.5 -55t-22.5 -55t-54.5 -23z" />
    <glyph glyph-name="oslash" unicode="&#xf8;" horiz-adv-x="1080" 
d="M541 -19q-140 0 -246.5 70.5t-166.5 194t-60 281.5q0 159 60 282.5t166.5 194.5t246.5 71q139 0 245.5 -71t166 -194.5t59.5 -282.5q0 -158 -59.5 -281.5t-166 -194t-245.5 -70.5zM541 63q114 0 200.5 59t134.5 163.5t48 241.5q0 138 -48 243t-134.5 164t-200.5 59
q-115 0 -201.5 -59t-135 -164t-48.5 -243q0 -137 48 -241.5t135 -163.5t202 -59zM130 -25l-59 50l881 1056l59 -50z" />
    <glyph glyph-name="ugrave" unicode="&#xf9;" horiz-adv-x="1085" 
d="M521 -17q-112 0 -200 47.5t-139 136t-51 212.5v677h88v-673q0 -148 85.5 -233t226.5 -85q95 0 171 39.5t120.5 113t44.5 173.5v665h87v-1056h-86v185q-50 -102 -143 -152t-204 -50zM509 1192l-152 298h103l126 -298h-77z" />
    <glyph glyph-name="uacute" unicode="&#xfa;" horiz-adv-x="1085" 
d="M521 -17q-112 0 -200 47.5t-139 136t-51 212.5v677h88v-673q0 -148 85.5 -233t226.5 -85q95 0 171 39.5t120.5 113t44.5 173.5v665h87v-1056h-86v185q-50 -102 -143 -152t-204 -50zM501 1192l126 298h99l-149 -298h-76z" />
    <glyph glyph-name="ucircumflex" unicode="&#xfb;" horiz-adv-x="1085" 
d="M521 -17q-112 0 -200 47.5t-139 136t-51 212.5v677h88v-673q0 -148 85.5 -233t226.5 -85q95 0 171 39.5t120.5 113t44.5 173.5v665h87v-1056h-86v185q-50 -102 -143 -152t-204 -50zM351 1233h-96v1l245 273h84l247 -273v-1h-96l-193 215z" />
    <glyph glyph-name="udieresis" unicode="&#xfc;" horiz-adv-x="1085" 
d="M521 -17q-112 0 -200 47.5t-139 136t-51 212.5v677h88v-673q0 -148 85.5 -233t226.5 -85q95 0 171 39.5t120.5 113t44.5 173.5v665h87v-1056h-86v185q-50 -102 -143 -152t-204 -50zM747 1308q-29 0 -49.5 20.5t-20.5 49.5t20.5 49.5t49.5 20.5t49.5 -20.5t20.5 -49.5
t-20.5 -49.5t-49.5 -20.5zM338 1308q-29 0 -49.5 20.5t-20.5 49.5t20.5 49.5t49.5 20.5t49.5 -20.5t20.5 -49.5t-20.5 -49.5t-49.5 -20.5z" />
    <glyph glyph-name="yacute" unicode="&#xfd;" horiz-adv-x="1015" 
d="M121 -418v81h94q69 0 104.5 32t74.5 128l70 175l-431 1058h94l276 -683q27 -68 53.5 -136t53.5 -136q26 68 52.5 136t53.5 136l272 683h93l-509 -1262q-47 -118 -103.5 -165t-153.5 -47h-94zM466 1192l126 298h99l-149 -298h-76z" />
    <glyph glyph-name="thorn" unicode="&#xfe;" horiz-adv-x="1131" 
d="M601 -17q-134 0 -237 71.5t-144 185.5h-1v-658h-88v1908h88v-677h1q36 114 141.5 187t239.5 73t238 -68t164 -190.5t60 -286.5t-59.5 -287t-163.5 -190.5t-239 -67.5zM593 64q109 0 195.5 55.5t136.5 159.5t50 249t-50 249t-136.5 159.5t-195.5 55.5q-171 0 -275 -125.5
t-104 -338.5t104 -338.5t275 -125.5z" />
    <glyph glyph-name="ydieresis" unicode="&#xff;" horiz-adv-x="1015" 
d="M121 -418v81h94q69 0 104.5 32t74.5 128l70 175l-431 1058h94l276 -683q27 -68 53.5 -136t53.5 -136q26 68 52.5 136t53.5 136l272 683h93l-509 -1262q-47 -118 -103.5 -165t-153.5 -47h-94zM712 1308q-29 0 -49.5 20.5t-20.5 49.5t20.5 49.5t49.5 20.5t49.5 -20.5
t20.5 -49.5t-20.5 -49.5t-49.5 -20.5zM303 1308q-29 0 -49.5 20.5t-20.5 49.5t20.5 49.5t49.5 20.5t49.5 -20.5t20.5 -49.5t-20.5 -49.5t-49.5 -20.5z" />
    <glyph glyph-name="Amacron" unicode="&#x100;" horiz-adv-x="1258" 
d="M20 0l555 1490h110l553 -1490h-97l-171 467h-683l-172 -467h-95zM318 551h621l-190 518q-28 75 -57 156.5t-63 181.5q-34 -100 -63 -181.5t-57 -156.5zM876 1840v-77h-493v77h493z" />
    <glyph glyph-name="amacron" unicode="&#x101;" horiz-adv-x="1023" 
d="M435 -16q-97 0 -179 33t-132.5 100t-50.5 170q0 146 110 210t322 92q145 19 222.5 40t77.5 85v22q0 110 -86 183.5t-218 73.5q-88 0 -158.5 -33.5t-112 -90.5t-42.5 -129h-89q2 95 55 170.5t143 119t204 43.5q113 0 201 -43.5t138.5 -119.5t50.5 -174v-736h-86v195h-3
q-40 -90 -133.5 -150.5t-233.5 -60.5zM443 65q159 0 260.5 95t101.5 265v164q-36 -31 -111 -47t-191 -33q-174 -24 -257.5 -74t-83.5 -152q0 -106 81 -162t200 -56zM745 1406v-77h-493v77h493z" />
    <glyph glyph-name="Abreve" unicode="&#x102;" horiz-adv-x="1258" 
d="M20 0l555 1490h110l553 -1490h-97l-171 467h-683l-172 -467h-95zM318 551h621l-190 518q-28 75 -57 156.5t-63 181.5q-34 -100 -63 -181.5t-57 -156.5zM630 1657q-76 0 -137 36t-97 97t-36 135h74q0 -83 57 -139.5t139 -56.5q83 0 139.5 56.5t56.5 139.5h74
q0 -74 -36 -135t-97 -97t-137 -36z" />
    <glyph glyph-name="abreve" unicode="&#x103;" horiz-adv-x="1023" 
d="M435 -16q-97 0 -179 33t-132.5 100t-50.5 170q0 146 110 210t322 92q145 19 222.5 40t77.5 85v22q0 110 -86 183.5t-218 73.5q-88 0 -158.5 -33.5t-112 -90.5t-42.5 -129h-89q2 95 55 170.5t143 119t204 43.5q113 0 201 -43.5t138.5 -119.5t50.5 -174v-736h-86v195h-3
q-40 -90 -133.5 -150.5t-233.5 -60.5zM443 65q159 0 260.5 95t101.5 265v164q-36 -31 -111 -47t-191 -33q-174 -24 -257.5 -74t-83.5 -152q0 -106 81 -162t200 -56zM499 1223q-76 0 -137 36t-97 97t-36 135h74q0 -83 57 -139.5t139 -56.5q83 0 139.5 56.5t56.5 139.5h74
q0 -74 -36 -135t-97 -97t-137 -36z" />
    <glyph glyph-name="Aogonek" unicode="&#x104;" horiz-adv-x="1258" 
d="M20 0l555 1490h110l553 -1490h-97l-171 467h-683l-172 -467h-95zM318 551h621l-190 518q-28 75 -57 156.5t-63 181.5q-34 -100 -63 -181.5t-57 -156.5zM1170 -418q-101 0 -148 45.5t-47 119.5q0 78 48.5 141.5t141.5 142.5l73 -31q-95 -82 -135.5 -135.5t-40.5 -107.5
q0 -41 26 -68.5t101 -27.5h44v-79h-63z" />
    <glyph glyph-name="aogonek" unicode="&#x105;" horiz-adv-x="1023" 
d="M435 -16q-97 0 -179 33t-132.5 100t-50.5 170q0 146 110 210t322 92q145 19 222.5 40t77.5 85v22q0 110 -86 183.5t-218 73.5q-88 0 -158.5 -33.5t-112 -90.5t-42.5 -129h-89q2 95 55 170.5t143 119t204 43.5q113 0 201 -43.5t138.5 -119.5t50.5 -174v-736h-86v195h-3
q-40 -90 -133.5 -150.5t-233.5 -60.5zM443 65q159 0 260.5 95t101.5 265v164q-36 -31 -111 -47t-191 -33q-174 -24 -257.5 -74t-83.5 -152q0 -106 81 -162t200 -56zM823 -418q-101 0 -148 45.5t-47 119.5q0 75 47 138t141 140l75 -25q-95 -83 -135.5 -136t-40.5 -107
q0 -41 26 -68.5t101 -27.5h44v-79h-63z" />
    <glyph glyph-name="Cacute" unicode="&#x106;" horiz-adv-x="1394" 
d="M728 -19q-191 0 -335.5 96.5t-225.5 268t-81 398.5q0 228 81 400t225.5 268.5t335.5 96.5q168 0 291.5 -71.5t197.5 -184t95 -234.5h-92q-22 104 -85 196t-165.5 149.5t-241.5 57.5q-155 0 -279.5 -80.5t-198 -232t-73.5 -365.5q0 -215 73.5 -366t198 -230.5t279.5 -79.5
q138 0 240.5 57.5t166 149.5t85.5 196h92q-21 -122 -95 -234t-197.5 -184t-291.5 -72zM679 1626l126 298h99l-149 -298h-76z" />
    <glyph glyph-name="cacute" unicode="&#x107;" horiz-adv-x="1036" 
d="M541 -19q-140 0 -246.5 70.5t-166.5 194t-60 281.5q0 159 60 282.5t166.5 194.5t246.5 71q167 0 284 -101t145 -262h-88q-27 127 -117.5 204t-223.5 77q-115 0 -201.5 -59t-135 -164t-48.5 -243q0 -137 48 -241.5t135 -163.5t202 -59q134 0 222.5 76.5t117.5 204.5h89
q-19 -107 -78.5 -188.5t-149.5 -128t-201 -46.5zM499 1192l126 298h99l-149 -298h-76z" />
    <glyph glyph-name="Ccircumflex" unicode="&#x108;" horiz-adv-x="1394" 
d="M728 -19q-191 0 -335.5 96.5t-225.5 268t-81 398.5q0 228 81 400t225.5 268.5t335.5 96.5q168 0 291.5 -71.5t197.5 -184t95 -234.5h-92q-22 104 -85 196t-165.5 149.5t-241.5 57.5q-155 0 -279.5 -80.5t-198 -232t-73.5 -365.5q0 -215 73.5 -366t198 -230.5t279.5 -79.5
q138 0 240.5 57.5t166 149.5t85.5 196h92q-21 -122 -95 -234t-197.5 -184t-291.5 -72zM529 1667h-96v1l245 273h84l247 -273v-1h-96l-193 215z" />
    <glyph glyph-name="ccircumflex" unicode="&#x109;" horiz-adv-x="1036" 
d="M541 -19q-140 0 -246.5 70.5t-166.5 194t-60 281.5q0 159 60 282.5t166.5 194.5t246.5 71q167 0 284 -101t145 -262h-88q-27 127 -117.5 204t-223.5 77q-115 0 -201.5 -59t-135 -164t-48.5 -243q0 -137 48 -241.5t135 -163.5t202 -59q134 0 222.5 76.5t117.5 204.5h89
q-19 -107 -78.5 -188.5t-149.5 -128t-201 -46.5zM349 1233h-96v1l245 273h84l247 -273v-1h-96l-193 215z" />
    <glyph glyph-name="Cdotaccent" unicode="&#x10a;" horiz-adv-x="1394" 
d="M728 -19q-191 0 -335.5 96.5t-225.5 268t-81 398.5q0 228 81 400t225.5 268.5t335.5 96.5q168 0 291.5 -71.5t197.5 -184t95 -234.5h-92q-22 104 -85 196t-165.5 149.5t-241.5 57.5q-155 0 -279.5 -80.5t-198 -232t-73.5 -365.5q0 -215 73.5 -366t198 -230.5t279.5 -79.5
q138 0 240.5 57.5t166 149.5t85.5 196h92q-21 -122 -95 -234t-197.5 -184t-291.5 -72zM721 1742q-29 0 -49.5 20.5t-20.5 49.5t20.5 49.5t49.5 20.5t49.5 -20.5t20.5 -49.5t-20.5 -49.5t-49.5 -20.5z" />
    <glyph glyph-name="cdotaccent" unicode="&#x10b;" horiz-adv-x="1036" 
d="M541 -19q-140 0 -246.5 70.5t-166.5 194t-60 281.5q0 159 60 282.5t166.5 194.5t246.5 71q167 0 284 -101t145 -262h-88q-27 127 -117.5 204t-223.5 77q-115 0 -201.5 -59t-135 -164t-48.5 -243q0 -137 48 -241.5t135 -163.5t202 -59q134 0 222.5 76.5t117.5 204.5h89
q-19 -107 -78.5 -188.5t-149.5 -128t-201 -46.5zM541 1308q-29 0 -49.5 20.5t-20.5 49.5t20.5 49.5t49.5 20.5t49.5 -20.5t20.5 -49.5t-20.5 -49.5t-49.5 -20.5z" />
    <glyph glyph-name="Ccaron" unicode="&#x10c;" horiz-adv-x="1394" 
d="M728 -19q-191 0 -335.5 96.5t-225.5 268t-81 398.5q0 228 81 400t225.5 268.5t335.5 96.5q168 0 291.5 -71.5t197.5 -184t95 -234.5h-92q-22 104 -85 196t-165.5 149.5t-241.5 57.5q-155 0 -279.5 -80.5t-198 -232t-73.5 -365.5q0 -215 73.5 -366t198 -230.5t279.5 -79.5
q138 0 240.5 57.5t166 149.5t85.5 196h92q-21 -122 -95 -234t-197.5 -184t-291.5 -72zM529 1941l191 -216l193 216h96v-1l-247 -273h-84l-245 273v1h96z" />
    <glyph glyph-name="ccaron" unicode="&#x10d;" horiz-adv-x="1036" 
d="M541 -19q-140 0 -246.5 70.5t-166.5 194t-60 281.5q0 159 60 282.5t166.5 194.5t246.5 71q167 0 284 -101t145 -262h-88q-27 127 -117.5 204t-223.5 77q-115 0 -201.5 -59t-135 -164t-48.5 -243q0 -137 48 -241.5t135 -163.5t202 -59q134 0 222.5 76.5t117.5 204.5h89
q-19 -107 -78.5 -188.5t-149.5 -128t-201 -46.5zM349 1507l191 -216l193 216h96v-1l-247 -273h-84l-245 273v1h96z" />
    <glyph glyph-name="Dcaron" unicode="&#x10e;" horiz-adv-x="1360" 
d="M575 0h-414v1490h446q209 0 358.5 -88.5t229 -254.5t79.5 -398q0 -354 -183.5 -551.5t-515.5 -197.5zM252 84h319q299 0 455.5 177t156.5 488q0 308 -149.5 482.5t-430.5 174.5h-351v-1322zM381 1941l191 -216l193 216h96v-1l-247 -273h-84l-245 273v1h96z" />
    <glyph glyph-name="dcaron" unicode="&#x10f;" horiz-adv-x="1265" 
d="M530 -17q-134 0 -238.5 67.5t-164 190.5t-59.5 287t60 286.5t164.5 190.5t237.5 68q135 0 240 -73t141 -187h2v677h87v-1490h-86v240h-1q-41 -114 -144.5 -185.5t-238.5 -71.5zM539 64q171 0 274.5 125.5t103.5 338.5t-103.5 338.5t-274.5 125.5q-110 0 -196.5 -55.5
t-136.5 -159.5t-50 -249t50 -249t136.5 -159.5t196.5 -55.5zM1120 1182v378h93l-26 -378h-67z" />
    <glyph glyph-name="Dcroat" unicode="&#x110;" horiz-adv-x="1360" 
d="M575 0h-414v1490h446q209 0 358.5 -88.5t229 -254.5t79.5 -398q0 -354 -183.5 -551.5t-515.5 -197.5zM252 84h319q299 0 455.5 177t156.5 488q0 308 -149.5 482.5t-430.5 174.5h-351v-1322zM52 705v80h857v-80h-857z" />
    <glyph glyph-name="dcroat" unicode="&#x111;" horiz-adv-x="1131" 
d="M530 -17q-134 0 -238.5 67.5t-164 190.5t-59.5 287t60 286.5t164.5 190.5t237.5 68q135 0 240 -73t141 -187h2v677h87v-1490h-86v240h-1q-41 -114 -144.5 -185.5t-238.5 -71.5zM539 64q171 0 274.5 125.5t103.5 338.5t-103.5 338.5t-274.5 125.5q-110 0 -196.5 -55.5
t-136.5 -159.5t-50 -249t50 -249t136.5 -159.5t196.5 -55.5zM622 1222v80h582v-80h-582z" />
    <glyph glyph-name="Emacron" unicode="&#x112;" horiz-adv-x="1159" 
d="M161 0v1490h925v-84h-834v-602h763v-84h-763v-636h834v-84h-925zM870 1840v-77h-493v77h493z" />
    <glyph glyph-name="emacron" unicode="&#x113;" horiz-adv-x="1065" 
d="M541 -19q-143 0 -249.5 71t-165 194t-58.5 281q0 159 60 282.5t165.5 194.5t243.5 71q139 0 243.5 -69.5t162.5 -189.5t58 -273v-31h-846q1 -132 49.5 -233t135 -158.5t201.5 -57.5q127 0 224.5 69t128.5 184h89q-23 -101 -87 -176t-156 -117t-199 -42zM156 591h757
q-5 119 -54.5 209.5t-132.5 141.5t-189 51t-189 -50.5t-133 -141t-59 -210.5zM780 1406v-77h-493v77h493z" />
    <glyph glyph-name="Ebreve" unicode="&#x114;" horiz-adv-x="1159" 
d="M161 0v1490h925v-84h-834v-602h763v-84h-763v-636h834v-84h-925zM623 1657q-76 0 -137 36t-97 97t-36 135h74q0 -83 57 -139.5t139 -56.5q83 0 139.5 56.5t56.5 139.5h74q0 -74 -36 -135t-97 -97t-137 -36z" />
    <glyph glyph-name="ebreve" unicode="&#x115;" horiz-adv-x="1065" 
d="M541 -19q-143 0 -249.5 71t-165 194t-58.5 281q0 159 60 282.5t165.5 194.5t243.5 71q139 0 243.5 -69.5t162.5 -189.5t58 -273v-31h-846q1 -132 49.5 -233t135 -158.5t201.5 -57.5q127 0 224.5 69t128.5 184h89q-23 -101 -87 -176t-156 -117t-199 -42zM156 591h757
q-5 119 -54.5 209.5t-132.5 141.5t-189 51t-189 -50.5t-133 -141t-59 -210.5zM534 1223q-76 0 -137 36t-97 97t-36 135h74q0 -83 57 -139.5t139 -56.5q83 0 139.5 56.5t56.5 139.5h74q0 -74 -36 -135t-97 -97t-137 -36z" />
    <glyph glyph-name="Edotaccent" unicode="&#x116;" horiz-adv-x="1159" 
d="M161 0v1490h925v-84h-834v-602h763v-84h-763v-636h834v-84h-925zM623 1742q-29 0 -49.5 20.5t-20.5 49.5t20.5 49.5t49.5 20.5t49.5 -20.5t20.5 -49.5t-20.5 -49.5t-49.5 -20.5z" />
    <glyph glyph-name="edotaccent" unicode="&#x117;" horiz-adv-x="1065" 
d="M541 -19q-143 0 -249.5 71t-165 194t-58.5 281q0 159 60 282.5t165.5 194.5t243.5 71q139 0 243.5 -69.5t162.5 -189.5t58 -273v-31h-846q1 -132 49.5 -233t135 -158.5t201.5 -57.5q127 0 224.5 69t128.5 184h89q-23 -101 -87 -176t-156 -117t-199 -42zM156 591h757
q-5 119 -54.5 209.5t-132.5 141.5t-189 51t-189 -50.5t-133 -141t-59 -210.5zM534 1308q-29 0 -49.5 20.5t-20.5 49.5t20.5 49.5t49.5 20.5t49.5 -20.5t20.5 -49.5t-20.5 -49.5t-49.5 -20.5z" />
    <glyph glyph-name="Eogonek" unicode="&#x118;" horiz-adv-x="1159" 
d="M161 0v1490h925v-84h-834v-602h763v-84h-763v-636h834v-84h-925zM1018 -418q-101 0 -148 45.5t-47 119.5q0 78 51.5 144.5t160.5 147.5l51 -39q-95 -82 -135.5 -135.5t-40.5 -107.5q0 -41 26 -68.5t101 -27.5h44v-79h-63z" />
    <glyph glyph-name="eogonek" unicode="&#x119;" horiz-adv-x="1065" 
d="M541 -19q-143 0 -249.5 71t-165 194t-58.5 281q0 159 60 282.5t165.5 194.5t243.5 71q139 0 243.5 -69.5t162.5 -189.5t58 -273v-31h-846q1 -132 49.5 -233t135 -158.5t201.5 -57.5q127 0 224.5 69t128.5 184h89q-23 -101 -87 -176t-156 -117t-199 -42zM156 591h757
q-5 119 -54.5 209.5t-132.5 141.5t-189 51t-189 -50.5t-133 -141t-59 -210.5zM807 -418q-106 0 -153 45t-47 119q0 61 36.5 130.5t87.5 135.5t95 115l156 189q-18 -79 -64 -155t-98 -147t-89 -135.5t-37 -121.5q0 -41 26.5 -68.5t105.5 -27.5h65v-79h-84z" />
    <glyph glyph-name="Ecaron" unicode="&#x11a;" horiz-adv-x="1159" 
d="M161 0v1490h925v-84h-834v-602h763v-84h-763v-636h834v-84h-925zM431 1941l191 -216l193 216h96v-1l-247 -273h-84l-245 273v1h96z" />
    <glyph glyph-name="ecaron" unicode="&#x11b;" horiz-adv-x="1065" 
d="M541 -19q-143 0 -249.5 71t-165 194t-58.5 281q0 159 60 282.5t165.5 194.5t243.5 71q139 0 243.5 -69.5t162.5 -189.5t58 -273v-31h-846q1 -132 49.5 -233t135 -158.5t201.5 -57.5q127 0 224.5 69t128.5 184h89q-23 -101 -87 -176t-156 -117t-199 -42zM156 591h757
q-5 119 -54.5 209.5t-132.5 141.5t-189 51t-189 -50.5t-133 -141t-59 -210.5zM342 1507l191 -216l193 216h96v-1l-247 -273h-84l-245 273v1h96z" />
    <glyph glyph-name="Gcircumflex" unicode="&#x11c;" horiz-adv-x="1421" 
d="M728 -19q-192 0 -336.5 96.5t-225 268.5t-80.5 398q0 228 81 400t225 268.5t333 96.5q168 0 292 -72.5t199 -185t96 -232.5h-92q-20 101 -84.5 193t-168.5 151t-242 59q-164 0 -287.5 -85t-192 -237.5t-68.5 -355.5q0 -201 68 -353t192 -237.5t291 -85.5q148 0 261 66.5
t177 189t65 288.5h-474v84h564v-83q0 -188 -75.5 -330.5t-209 -222t-308.5 -79.5zM522 1667h-96v1l245 273h84l247 -273v-1h-96l-193 215z" />
    <glyph glyph-name="gcircumflex" unicode="&#x11d;" horiz-adv-x="1131" 
d="M548 -429q-184 0 -293 85.5t-134 231.5h89q25 -109 109.5 -172.5t228.5 -63.5q176 0 270.5 94t94.5 254v240h-1q-41 -114 -144 -185.5t-238 -71.5q-134 0 -238.5 67.5t-164 190.5t-59.5 287t60 286.5t164.5 190.5t237.5 68q135 0 240 -73t143 -190h1v246h86v-1056
q0 -207 -123.5 -318t-328.5 -111zM539 64q171 0 274.5 125.5t103.5 338.5t-103.5 338.5t-274.5 125.5q-110 0 -196.5 -55.5t-136.5 -159.5t-50 -249t50 -249t136.5 -159.5t196.5 -55.5zM346 1233h-96v1l245 273h84l247 -273v-1h-96l-193 215z" />
    <glyph glyph-name="Gbreve" unicode="&#x11e;" horiz-adv-x="1421" 
d="M728 -19q-192 0 -336.5 96.5t-225 268.5t-80.5 398q0 228 81 400t225 268.5t333 96.5q168 0 292 -72.5t199 -185t96 -232.5h-92q-20 101 -84.5 193t-168.5 151t-242 59q-164 0 -287.5 -85t-192 -237.5t-68.5 -355.5q0 -201 68 -353t192 -237.5t291 -85.5q148 0 261 66.5
t177 189t65 288.5h-474v84h564v-83q0 -188 -75.5 -330.5t-209 -222t-308.5 -79.5zM714 1657q-76 0 -137 36t-97 97t-36 135h74q0 -83 57 -139.5t139 -56.5q83 0 139.5 56.5t56.5 139.5h74q0 -74 -36 -135t-97 -97t-137 -36z" />
    <glyph glyph-name="gbreve" unicode="&#x11f;" horiz-adv-x="1131" 
d="M548 -429q-184 0 -293 85.5t-134 231.5h89q25 -109 109.5 -172.5t228.5 -63.5q176 0 270.5 94t94.5 254v240h-1q-41 -114 -144 -185.5t-238 -71.5q-134 0 -238.5 67.5t-164 190.5t-59.5 287t60 286.5t164.5 190.5t237.5 68q135 0 240 -73t143 -190h1v246h86v-1056
q0 -207 -123.5 -318t-328.5 -111zM539 64q171 0 274.5 125.5t103.5 338.5t-103.5 338.5t-274.5 125.5q-110 0 -196.5 -55.5t-136.5 -159.5t-50 -249t50 -249t136.5 -159.5t196.5 -55.5zM538 1223q-76 0 -137 36t-97 97t-36 135h74q0 -83 57 -139.5t139 -56.5
q83 0 139.5 56.5t56.5 139.5h74q0 -74 -36 -135t-97 -97t-137 -36z" />
    <glyph glyph-name="Gdotaccent" unicode="&#x120;" horiz-adv-x="1421" 
d="M728 -19q-192 0 -336.5 96.5t-225 268.5t-80.5 398q0 228 81 400t225 268.5t333 96.5q168 0 292 -72.5t199 -185t96 -232.5h-92q-20 101 -84.5 193t-168.5 151t-242 59q-164 0 -287.5 -85t-192 -237.5t-68.5 -355.5q0 -201 68 -353t192 -237.5t291 -85.5q148 0 261 66.5
t177 189t65 288.5h-474v84h564v-83q0 -188 -75.5 -330.5t-209 -222t-308.5 -79.5zM714 1742q-29 0 -49.5 20.5t-20.5 49.5t20.5 49.5t49.5 20.5t49.5 -20.5t20.5 -49.5t-20.5 -49.5t-49.5 -20.5z" />
    <glyph glyph-name="gdotaccent" unicode="&#x121;" horiz-adv-x="1131" 
d="M548 -429q-184 0 -293 85.5t-134 231.5h89q25 -109 109.5 -172.5t228.5 -63.5q176 0 270.5 94t94.5 254v240h-1q-41 -114 -144 -185.5t-238 -71.5q-134 0 -238.5 67.5t-164 190.5t-59.5 287t60 286.5t164.5 190.5t237.5 68q135 0 240 -73t143 -190h1v246h86v-1056
q0 -207 -123.5 -318t-328.5 -111zM539 64q171 0 274.5 125.5t103.5 338.5t-103.5 338.5t-274.5 125.5q-110 0 -196.5 -55.5t-136.5 -159.5t-50 -249t50 -249t136.5 -159.5t196.5 -55.5zM538 1308q-29 0 -49.5 20.5t-20.5 49.5t20.5 49.5t49.5 20.5t49.5 -20.5t20.5 -49.5
t-20.5 -49.5t-49.5 -20.5z" />
    <glyph glyph-name="uni0122" unicode="&#x122;" horiz-adv-x="1421" 
d="M728 -19q-192 0 -336.5 96.5t-225 268.5t-80.5 398q0 228 81 400t225 268.5t333 96.5q168 0 292 -72.5t199 -185t96 -232.5h-92q-20 101 -84.5 193t-168.5 151t-242 59q-164 0 -287.5 -85t-192 -237.5t-68.5 -355.5q0 -201 68 -353t192 -237.5t291 -85.5q148 0 261 66.5
t177 189t65 288.5h-474v84h564v-83q0 -188 -75.5 -330.5t-209 -222t-308.5 -79.5zM574 -494l91 376h92l-113 -376h-70z" />
    <glyph glyph-name="uni0123" unicode="&#x123;" horiz-adv-x="1131" 
d="M548 -429q-184 0 -293 85.5t-134 231.5h89q25 -109 109.5 -172.5t228.5 -63.5q176 0 270.5 94t94.5 254v240h-1q-41 -114 -144 -185.5t-238 -71.5q-134 0 -238.5 67.5t-164 190.5t-59.5 287t60 286.5t164.5 190.5t237.5 68q135 0 240 -73t143 -190h1v246h86v-1056
q0 -207 -123.5 -318t-328.5 -111zM539 64q171 0 274.5 125.5t103.5 338.5t-103.5 338.5t-274.5 125.5q-110 0 -196.5 -55.5t-136.5 -159.5t-50 -249t50 -249t136.5 -159.5t196.5 -55.5zM495 1218v90q0 70 23 123t52 91t46 62l62 -49l-65 -97.5t-35 -132.5v-87h-83z" />
    <glyph glyph-name="Hcircumflex" unicode="&#x124;" horiz-adv-x="1401" 
d="M161 0v1490h91v-686h897v686h90v-1490h-90v720h-897v-720h-91zM508 1667h-96v1l245 273h84l247 -273v-1h-96l-193 215z" />
    <glyph glyph-name="hcircumflex" unicode="&#x125;" horiz-adv-x="1085" 
d="M219 665v-665h-88v1490h88v-616q50 101 142.5 150t203.5 49q112 0 200 -47.5t138.5 -136t50.5 -212.5v-677h-87v673q0 148 -86 233t-227 85q-95 0 -171 -39.5t-120 -112.5t-44 -174zM-17 1667h-96v1l245 273h84l247 -273v-1h-96l-193 215z" />
    <glyph glyph-name="Hbar" unicode="&#x126;" horiz-adv-x="1427" 
d="M1371 1112v-83h-118v-1029h-90v720h-897v-720h-91v1029h-118v83h118v378h91v-378h897v378h90v-378h118zM1163 1029h-897v-225h897v225z" />
    <glyph glyph-name="hbar" unicode="&#x127;" horiz-adv-x="1085" 
d="M219 665v-665h-88v1490h88v-616q50 101 142.5 150t203.5 49q112 0 200 -47.5t138.5 -136t50.5 -212.5v-677h-87v673q0 148 -86 233t-227 85q-95 0 -171 -39.5t-120 -112.5t-44 -174zM-72 1222v80h582v-80h-582z" />
    <glyph glyph-name="Itilde" unicode="&#x128;" horiz-adv-x="413" 
d="M252 1490v-1490h-91v1490h91zM336 1718q-53 0 -93.5 26.5t-75.5 52.5t-74 26q-42 0 -66.5 -28t-28.5 -72h-72q5 75 46 124t110 49q58 0 98 -26.5t73.5 -53.5t71.5 -27q73 0 92 98h71q-9 -78 -49.5 -123.5t-102.5 -45.5z" />
    <glyph glyph-name="itilde" unicode="&#x129;" horiz-adv-x="350" 
d="M131 0v1056h88v-1056h-88zM304 1284q-53 0 -93.5 26.5t-75.5 52.5t-74 26q-42 0 -66.5 -28t-28.5 -72h-72q5 75 46 124t110 49q58 0 98 -26.5t73.5 -53.5t71.5 -27q73 0 92 98h71q-9 -78 -49.5 -123.5t-102.5 -45.5z" />
    <glyph glyph-name="Imacron" unicode="&#x12a;" horiz-adv-x="413" 
d="M252 1490v-1490h-91v1490h91zM453 1840v-77h-493v77h493z" />
    <glyph glyph-name="imacron" unicode="&#x12b;" horiz-adv-x="350" 
d="M131 0v1056h88v-1056h-88zM421 1406v-77h-493v77h493z" />
    <glyph glyph-name="Ibreve" unicode="&#x12c;" horiz-adv-x="413" 
d="M252 1490v-1490h-91v1490h91zM207 1657q-76 0 -137 36t-97 97t-36 135h74q0 -83 57 -139.5t139 -56.5q83 0 139.5 56.5t56.5 139.5h74q0 -74 -36 -135t-97 -97t-137 -36z" />
    <glyph glyph-name="ibreve" unicode="&#x12d;" horiz-adv-x="350" 
d="M131 0v1056h88v-1056h-88zM175 1223q-76 0 -137 36t-97 97t-36 135h74q0 -83 57 -139.5t139 -56.5q83 0 139.5 56.5t56.5 139.5h74q0 -74 -36 -135t-97 -97t-137 -36z" />
    <glyph glyph-name="Iogonek" unicode="&#x12e;" horiz-adv-x="413" 
d="M252 1490v-1490h-91v1490h91zM184 -418q-101 0 -148 45.5t-47 119.5q0 78 51.5 144.5t160.5 147.5l51 -39q-95 -82 -135.5 -135.5t-40.5 -107.5q0 -41 26 -68.5t101 -27.5h44v-79h-63z" />
    <glyph glyph-name="iogonek" unicode="&#x12f;" horiz-adv-x="350" 
d="M131 0v1056h88v-1056h-88zM151 -418q-101 0 -148 45.5t-47 119.5q0 78 51.5 144.5t160.5 147.5l51 -39q-95 -82 -135.5 -135.5t-40.5 -107.5q0 -41 26 -68.5t101 -27.5h44v-79h-63zM175 1308q-29 0 -49.5 20.5t-20.5 49.5t20.5 49.5t49.5 20.5t49.5 -20.5t20.5 -49.5
t-20.5 -49.5t-49.5 -20.5z" />
    <glyph glyph-name="Idotaccent" unicode="&#x130;" horiz-adv-x="413" 
d="M252 1490v-1490h-91v1490h91zM207 1742q-29 0 -49.5 20.5t-20.5 49.5t20.5 49.5t49.5 20.5t49.5 -20.5t20.5 -49.5t-20.5 -49.5t-49.5 -20.5z" />
    <glyph glyph-name="dotlessi" unicode="&#x131;" horiz-adv-x="350" 
d="M131 0v1056h88v-1056h-88z" />
    <glyph glyph-name="IJ" unicode="&#x132;" horiz-adv-x="1468" 
d="M252 1490v-1490h-91v1490h91zM919 -20q-185 0 -296.5 113t-111.5 312v72h91v-72q0 -160 85 -250.5t232 -90.5t232.5 90.5t85.5 250.5v1085h90v-1085q0 -199 -111 -312t-297 -113z" />
    <glyph glyph-name="ij" unicode="&#x133;" horiz-adv-x="704" 
d="M131 0v1056h88v-1056h-88zM175 1308q-29 0 -49.5 20.5t-20.5 49.5t20.5 49.5t49.5 20.5t49.5 -20.5t20.5 -49.5t-20.5 -49.5t-49.5 -20.5zM485 1056h88v-1213q0 -118 -75.5 -189.5t-188.5 -71.5h-36v81h31q77 0 129 48.5t52 139.5v1205zM529 1308q-29 0 -49.5 20.5
t-20.5 49.5t20.5 49.5t49.5 20.5t49.5 -20.5t20.5 -49.5t-20.5 -49.5t-49.5 -20.5z" />
    <glyph glyph-name="Jcircumflex" unicode="&#x134;" horiz-adv-x="1054" 
d="M506 -20q-185 0 -296.5 113t-111.5 312v72h91v-72q0 -160 85 -250.5t232 -90.5t232.5 90.5t85.5 250.5v1085h90v-1085q0 -199 -111 -312t-297 -113zM676 1667h-96v1l245 273h84l247 -273v-1h-96l-193 215z" />
    <glyph glyph-name="jcircumflex" unicode="&#x135;" horiz-adv-x="354" 
d="M135 1056h88v-1213q0 -118 -75.5 -189.5t-188.5 -71.5h-36v81h31q77 0 129 48.5t52 139.5v1205zM-13 1233h-96v1l245 273h84l247 -273v-1h-96l-193 215z" />
    <glyph glyph-name="uni0136" unicode="&#x136;" horiz-adv-x="1179" 
d="M161 0v1490h91v-845q76 83 148 161.5t151 162.5l483 521h120l-602 -647l601 -843h-108l-556 780l-237 -256v-524h-91zM480 -494l91 376h92l-113 -376h-70z" />
    <glyph glyph-name="uni0137" unicode="&#x137;" horiz-adv-x="912" 
d="M131 0v1490h88v-942h4l518 508h117l-448 -440l498 -616h-112l-450 558l-127 -120v-438h-88zM358 -494l91 376h92l-113 -376h-70z" />
    <glyph glyph-name="kgreenlandic" unicode="&#x138;" horiz-adv-x="931" 
d="M219 1056v-484h109l483 484h112l-524 -528l526 -528h-114l-492 490h-100v-490h-88v1056h88z" />
    <glyph glyph-name="Lacute" unicode="&#x139;" horiz-adv-x="1061" 
d="M161 0v1490h92v-1406h752v-84h-844zM166 1626l126 298h99l-149 -298h-76z" />
    <glyph glyph-name="lacute" unicode="&#x13a;" horiz-adv-x="350" 
d="M219 1490v-1490h-88v1490h88zM134 1626l126 298h99l-149 -298h-76z" />
    <glyph glyph-name="uni013B" unicode="&#x13b;" horiz-adv-x="1061" 
d="M161 0v1490h92v-1406h752v-84h-844zM431 -494l91 376h92l-113 -376h-70z" />
    <glyph glyph-name="uni013C" unicode="&#x13c;" horiz-adv-x="350" 
d="M219 1490v-1490h-88v1490h88zM36 -494l91 376h92l-113 -376h-70z" />
    <glyph glyph-name="Lcaron" unicode="&#x13d;" horiz-adv-x="1061" 
d="M161 0v1490h92v-1406h752v-84h-844zM569 1182v378h93l-26 -378h-67z" />
    <glyph glyph-name="lcaron" unicode="&#x13e;" horiz-adv-x="483" 
d="M219 1490v-1490h-88v1490h88zM359 1182v378h93l-26 -378h-67z" />
    <glyph glyph-name="Ldot" unicode="&#x13f;" horiz-adv-x="1023" 
d="M157 0v1490h92v-1406h752v-84h-844zM621 705q-29 0 -49.5 20.5t-20.5 49.5t20.5 49.5t49.5 20.5t49.5 -20.5t20.5 -49.5t-20.5 -49.5t-49.5 -20.5z" />
    <glyph glyph-name="ldot" unicode="&#x140;" horiz-adv-x="500" 
d="M219 1490v-1490h-88v1490h88zM419 667q-32 0 -54.5 22.5t-22.5 55.5t22.5 55.5t54.5 22.5q33 0 55.5 -22.5t22.5 -55.5t-22.5 -55.5t-55.5 -22.5z" />
    <glyph glyph-name="Lslash" unicode="&#x141;" horiz-adv-x="1101" 
d="M201 0v1490h92v-1406h752v-84h-844zM7 587v96l718 415v-96z" />
    <glyph glyph-name="lslash" unicode="&#x142;" horiz-adv-x="350" 
d="M219 1490v-1490h-88v1490h88zM-37 731v86l425 247v-86z" />
    <glyph glyph-name="Nacute" unicode="&#x143;" horiz-adv-x="1453" 
d="M161 0v1490h99l753 -1077q43 -62 92.5 -135.5t98.5 -147.5q-1 72 -2 149t-1 136v1075h90v-1490h-99l-729 1040q-45 64 -99.5 145.5t-115.5 174.5q1 -96 2.5 -176t1.5 -143v-1041h-91zM685 1626l126 298h99l-149 -298h-76z" />
    <glyph glyph-name="nacute" unicode="&#x144;" horiz-adv-x="1085" 
d="M219 665v-665h-88v1056h86v-185q51 102 143.5 152t204.5 50t200 -47.5t138.5 -136t50.5 -212.5v-677h-87v673q0 148 -86 233t-227 85q-95 0 -171 -39.5t-120 -112.5t-44 -174zM503 1192l126 298h99l-149 -298h-76z" />
    <glyph glyph-name="uni0145" unicode="&#x145;" horiz-adv-x="1453" 
d="M161 0v1490h99l753 -1077q43 -62 92.5 -135.5t98.5 -147.5q-1 72 -2 149t-1 136v1075h90v-1490h-99l-729 1040q-45 64 -99.5 145.5t-115.5 174.5q1 -96 2.5 -176t1.5 -143v-1041h-91zM587 -494l91 376h92l-113 -376h-70z" />
    <glyph glyph-name="uni0146" unicode="&#x146;" horiz-adv-x="1085" 
d="M219 665v-665h-88v1056h86v-185q51 102 143.5 152t204.5 50t200 -47.5t138.5 -136t50.5 -212.5v-677h-87v673q0 148 -86 233t-227 85q-95 0 -171 -39.5t-120 -112.5t-44 -174zM403 -494l91 376h92l-113 -376h-70z" />
    <glyph glyph-name="Ncaron" unicode="&#x147;" horiz-adv-x="1453" 
d="M161 0v1490h99l753 -1077q43 -62 92.5 -135.5t98.5 -147.5q-1 72 -2 149t-1 136v1075h90v-1490h-99l-729 1040q-45 64 -99.5 145.5t-115.5 174.5q1 -96 2.5 -176t1.5 -143v-1041h-91zM534 1941l191 -216l193 216h96v-1l-247 -273h-84l-245 273v1h96z" />
    <glyph glyph-name="ncaron" unicode="&#x148;" horiz-adv-x="1085" 
d="M219 665v-665h-88v1056h86v-185q51 102 143.5 152t204.5 50t200 -47.5t138.5 -136t50.5 -212.5v-677h-87v673q0 148 -86 233t-227 85q-95 0 -171 -39.5t-120 -112.5t-44 -174zM352 1507l191 -216l193 216h96v-1l-247 -273h-84l-245 273v1h96z" />
    <glyph glyph-name="Eng" unicode="&#x14a;" horiz-adv-x="1453" 
d="M989 -418v83h82q69 0 99.5 31t30.5 103v201h-9l-729 1040q-45 64 -99.5 145.5t-115.5 174.5q1 -96 2.5 -176t1.5 -143v-1041h-91v1490h99l753 -1077q43 -62 92.5 -135.5t98.5 -147.5q-1 72 -2 149t-1 136v1075h90v-1693q0 -215 -217 -215h-85z" />
    <glyph glyph-name="eng" unicode="&#x14b;" horiz-adv-x="1085" 
d="M652 -418v83h85q69 0 99.5 31t30.5 103v874q0 148 -86 233t-227 85q-95 0 -171 -39.5t-120 -112.5t-44 -174v-665h-88v1056h86v-185q51 102 143.5 152t204.5 50t200 -47.5t138.5 -136t50.5 -212.5v-880q0 -215 -217 -215h-85z" />
    <glyph glyph-name="Omacron" unicode="&#x14c;" horiz-adv-x="1446" 
d="M724 -19q-189 0 -333 97t-224.5 269t-80.5 397q0 227 81 399t224.5 269t332.5 97q188 0 331 -97t224 -269t81 -399q0 -226 -81 -398t-224 -268.5t-331 -96.5zM724 68q157 0 280.5 83t194 234.5t70.5 358.5t-70.5 359.5t-194 235.5t-280.5 83q-158 0 -281.5 -82.5
t-194.5 -235t-71 -360.5q0 -206 70 -357.5t193.5 -235t283.5 -83.5zM970 1840v-77h-493v77h493z" />
    <glyph glyph-name="omacron" unicode="&#x14d;" horiz-adv-x="1080" 
d="M541 -19q-140 0 -246.5 70.5t-166.5 194t-60 281.5q0 159 60 282.5t166.5 194.5t246.5 71q139 0 245.5 -71t166 -194.5t59.5 -282.5q0 -158 -59.5 -281.5t-166 -194t-245.5 -70.5zM541 63q114 0 200.5 59t134.5 163.5t48 241.5q0 138 -48 243t-134.5 164t-200.5 59
q-115 0 -201.5 -59t-135 -164t-48.5 -243q0 -137 48 -241.5t135 -163.5t202 -59zM787 1406v-77h-493v77h493z" />
    <glyph glyph-name="Obreve" unicode="&#x14e;" horiz-adv-x="1446" 
d="M724 -19q-189 0 -333 97t-224.5 269t-80.5 397q0 227 81 399t224.5 269t332.5 97q188 0 331 -97t224 -269t81 -399q0 -226 -81 -398t-224 -268.5t-331 -96.5zM724 68q157 0 280.5 83t194 234.5t70.5 358.5t-70.5 359.5t-194 235.5t-280.5 83q-158 0 -281.5 -82.5
t-194.5 -235t-71 -360.5q0 -206 70 -357.5t193.5 -235t283.5 -83.5zM724 1657q-76 0 -137 36t-97 97t-36 135h74q0 -83 57 -139.5t139 -56.5q83 0 139.5 56.5t56.5 139.5h74q0 -74 -36 -135t-97 -97t-137 -36z" />
    <glyph glyph-name="obreve" unicode="&#x14f;" horiz-adv-x="1080" 
d="M541 -19q-140 0 -246.5 70.5t-166.5 194t-60 281.5q0 159 60 282.5t166.5 194.5t246.5 71q139 0 245.5 -71t166 -194.5t59.5 -282.5q0 -158 -59.5 -281.5t-166 -194t-245.5 -70.5zM541 63q114 0 200.5 59t134.5 163.5t48 241.5q0 138 -48 243t-134.5 164t-200.5 59
q-115 0 -201.5 -59t-135 -164t-48.5 -243q0 -137 48 -241.5t135 -163.5t202 -59zM541 1223q-76 0 -137 36t-97 97t-36 135h74q0 -83 57 -139.5t139 -56.5q83 0 139.5 56.5t56.5 139.5h74q0 -74 -36 -135t-97 -97t-137 -36z" />
    <glyph glyph-name="Ohungarumlaut" unicode="&#x150;" horiz-adv-x="1446" 
d="M724 -19q-189 0 -333 97t-224.5 269t-80.5 397q0 227 81 399t224.5 269t332.5 97q188 0 331 -97t224 -269t81 -399q0 -226 -81 -398t-224 -268.5t-331 -96.5zM724 68q157 0 280.5 83t194 234.5t70.5 358.5t-70.5 359.5t-194 235.5t-280.5 83q-158 0 -281.5 -82.5
t-194.5 -235t-71 -360.5q0 -206 70 -357.5t193.5 -235t283.5 -83.5zM876 1626h-79l145 298h102zM641 1626h-77l111 298h101z" />
    <glyph glyph-name="ohungarumlaut" unicode="&#x151;" horiz-adv-x="1080" 
d="M541 -19q-140 0 -246.5 70.5t-166.5 194t-60 281.5q0 159 60 282.5t166.5 194.5t246.5 71q139 0 245.5 -71t166 -194.5t59.5 -282.5q0 -158 -59.5 -281.5t-166 -194t-245.5 -70.5zM541 63q114 0 200.5 59t134.5 163.5t48 241.5q0 138 -48 243t-134.5 164t-200.5 59
q-115 0 -201.5 -59t-135 -164t-48.5 -243q0 -137 48 -241.5t135 -163.5t202 -59zM693 1192h-79l145 298h102zM458 1192h-77l111 298h101z" />
    <glyph glyph-name="OE" unicode="&#x152;" horiz-adv-x="1899" 
d="M735 0q-199 0 -344.5 92.5t-225 260.5t-79.5 392q0 225 79.5 392.5t223.5 260t339 92.5h1098v-84h-834v-602h763v-84h-763v-636h834v-84h-1091zM901 84v1321h-169q-171 0 -296 -81.5t-193 -230t-68 -348.5q0 -198 67.5 -346.5t194 -231.5t302.5 -83h162z" />
    <glyph glyph-name="oe" unicode="&#x153;" horiz-adv-x="1922" 
d="M541 -19q-140 0 -246.5 70.5t-166.5 194t-60 281.5q0 159 60 282.5t166.5 194.5t246.5 71q139 0 245.5 -71t166 -194.5t59.5 -282.5q0 -158 -59.5 -281.5t-166 -194t-245.5 -70.5zM541 63q114 0 200.5 59t134.5 163.5t48 241.5q0 138 -48 243t-134.5 164t-200.5 59
q-115 0 -201.5 -59t-135 -164t-48.5 -243q0 -137 48 -241.5t135 -163.5t202 -59zM1398 -19q-143 0 -249.5 71t-165 194t-58.5 281q0 159 60 282.5t165.5 194.5t243.5 71q139 0 243.5 -69.5t162.5 -189.5t58 -273v-31h-846q1 -132 49.5 -233t135 -158.5t201.5 -57.5
q127 0 224.5 69t128.5 184h89q-23 -101 -87 -176t-156 -117t-199 -42zM1013 591h757q-5 119 -54.5 209.5t-132.5 141.5t-189 51t-189 -50.5t-133 -141t-59 -210.5z" />
    <glyph glyph-name="Racute" unicode="&#x154;" horiz-adv-x="1221" 
d="M161 0v1490h509q134 0 236 -54t159 -151.5t57 -229.5q0 -162 -88.5 -272t-236.5 -145l341 -638h-105l-331 624q-19 -1 -37 -1h-413v-623h-91zM252 707h416q163 0 263.5 95t100.5 253q0 160 -100.5 255.5t-263.5 95.5h-416v-699zM570 1626l126 298h99l-149 -298h-76z" />
    <glyph glyph-name="racute" unicode="&#x155;" horiz-adv-x="579" 
d="M131 0v1056h85v-187h2q36 90 118.5 143t192.5 53q13 0 21.5 -0.5t18.5 -1.5v-87q-8 1 -20.5 2.5t-30.5 1.5q-128 0 -213.5 -84t-85.5 -226v-670h-88zM324 1192l126 298h99l-149 -298h-76z" />
    <glyph glyph-name="uni0156" unicode="&#x156;" horiz-adv-x="1221" 
d="M161 0v1490h509q134 0 236 -54t159 -151.5t57 -229.5q0 -162 -88.5 -272t-236.5 -145l341 -638h-105l-331 624q-19 -1 -37 -1h-413v-623h-91zM252 707h416q163 0 263.5 95t100.5 253q0 160 -100.5 255.5t-263.5 95.5h-416v-699zM475 -494l91 376h92l-113 -376h-70z" />
    <glyph glyph-name="uni0157" unicode="&#x157;" horiz-adv-x="579" 
d="M131 0v1056h85v-187h2q36 90 118.5 143t192.5 53q13 0 21.5 -0.5t18.5 -1.5v-87q-8 1 -20.5 2.5t-30.5 1.5q-128 0 -213.5 -84t-85.5 -226v-670h-88zM36 -494l91 376h92l-113 -376h-70z" />
    <glyph glyph-name="Rcaron" unicode="&#x158;" horiz-adv-x="1221" 
d="M161 0v1490h509q134 0 236 -54t159 -151.5t57 -229.5q0 -162 -88.5 -272t-236.5 -145l341 -638h-105l-331 624q-19 -1 -37 -1h-413v-623h-91zM252 707h416q163 0 263.5 95t100.5 253q0 160 -100.5 255.5t-263.5 95.5h-416v-699zM419 1941l191 -216l193 216h96v-1
l-247 -273h-84l-245 273v1h96z" />
    <glyph glyph-name="rcaron" unicode="&#x159;" horiz-adv-x="579" 
d="M131 0v1056h85v-187h2q36 90 118.5 143t192.5 53q13 0 21.5 -0.5t18.5 -1.5v-87q-8 1 -20.5 2.5t-30.5 1.5q-128 0 -213.5 -84t-85.5 -226v-670h-88zM173 1507l191 -216l193 216h96v-1l-247 -273h-84l-245 273v1h96z" />
    <glyph glyph-name="Sacute" unicode="&#x15a;" horiz-adv-x="1170" 
d="M585 -23q-147 0 -257 52t-172.5 145.5t-66.5 218.5h92q7 -150 114.5 -240t289.5 -90q183 0 294.5 89t111.5 234q0 111 -75.5 182.5t-249.5 122.5l-168 48q-193 56 -285 147.5t-92 228.5q0 116 60 205.5t165 141t241 51.5q137 0 240 -53t162 -147t65 -218h-90
q-10 148 -111.5 240t-267.5 92q-108 0 -192.5 -40t-133 -109.5t-48.5 -159.5q0 -105 74.5 -176t234.5 -117l170 -48q201 -58 296 -151.5t95 -236.5q0 -121 -62 -214t-173.5 -145.5t-260.5 -52.5zM543 1626l126 298h99l-149 -298h-76z" />
    <glyph glyph-name="sacute" unicode="&#x15b;" horiz-adv-x="934" 
d="M471 -17q-172 0 -278.5 88.5t-113.5 244.5h86q7 -118 85.5 -186t219.5 -68q138 0 218 63t80 164q0 78 -53.5 116.5t-151.5 61.5l-179 42q-139 33 -211 95.5t-72 170.5q0 133 101.5 215.5t265.5 82.5q162 0 261.5 -88t108.5 -245h-86q-10 121 -82.5 187.5t-201.5 66.5
q-127 0 -203.5 -61t-76.5 -158q0 -78 55 -120.5t158 -66.5l180 -42q136 -32 205.5 -89.5t69.5 -165.5q0 -140 -106.5 -224t-278.5 -84zM428 1192l126 298h99l-149 -298h-76z" />
    <glyph glyph-name="Scircumflex" unicode="&#x15c;" horiz-adv-x="1170" 
d="M585 -23q-147 0 -257 52t-172.5 145.5t-66.5 218.5h92q7 -150 114.5 -240t289.5 -90q183 0 294.5 89t111.5 234q0 111 -75.5 182.5t-249.5 122.5l-168 48q-193 56 -285 147.5t-92 228.5q0 116 60 205.5t165 141t241 51.5q137 0 240 -53t162 -147t65 -218h-90
q-10 148 -111.5 240t-267.5 92q-108 0 -192.5 -40t-133 -109.5t-48.5 -159.5q0 -105 74.5 -176t234.5 -117l170 -48q201 -58 296 -151.5t95 -236.5q0 -121 -62 -214t-173.5 -145.5t-260.5 -52.5zM392 1667h-96v1l245 273h84l247 -273v-1h-96l-193 215z" />
    <glyph glyph-name="scircumflex" unicode="&#x15d;" horiz-adv-x="934" 
d="M471 -17q-172 0 -278.5 88.5t-113.5 244.5h86q7 -118 85.5 -186t219.5 -68q138 0 218 63t80 164q0 78 -53.5 116.5t-151.5 61.5l-179 42q-139 33 -211 95.5t-72 170.5q0 133 101.5 215.5t265.5 82.5q162 0 261.5 -88t108.5 -245h-86q-10 121 -82.5 187.5t-201.5 66.5
q-127 0 -203.5 -61t-76.5 -158q0 -78 55 -120.5t158 -66.5l180 -42q136 -32 205.5 -89.5t69.5 -165.5q0 -140 -106.5 -224t-278.5 -84zM278 1233h-96v1l245 273h84l247 -273v-1h-96l-193 215z" />
    <glyph glyph-name="Scedilla" unicode="&#x15e;" horiz-adv-x="1170" 
d="M585 -23q-147 0 -257 52t-172.5 145.5t-66.5 218.5h92q7 -150 114.5 -240t289.5 -90q183 0 294.5 89t111.5 234q0 111 -75.5 182.5t-249.5 122.5l-168 48q-193 56 -285 147.5t-92 228.5q0 116 60 205.5t165 141t241 51.5q137 0 240 -53t162 -147t65 -218h-90
q-10 148 -111.5 240t-267.5 92q-108 0 -192.5 -40t-133 -109.5t-48.5 -159.5q0 -105 74.5 -176t234.5 -117l170 -48q201 -58 296 -151.5t95 -236.5q0 -121 -62 -214t-173.5 -145.5t-260.5 -52.5zM488 -418v65h105q123 0 123 96q0 97 -128 97h-66l36 188h60v-28l-17 -97
q89 -3 139 -45.5t50 -114.5q0 -77 -53.5 -119t-143.5 -42h-105z" />
    <glyph glyph-name="scedilla" unicode="&#x15f;" horiz-adv-x="934" 
d="M471 -17q-172 0 -278.5 88.5t-113.5 244.5h86q7 -118 85.5 -186t219.5 -68q138 0 218 63t80 164q0 78 -53.5 116.5t-151.5 61.5l-179 42q-139 33 -211 95.5t-72 170.5q0 133 101.5 215.5t265.5 82.5q162 0 261.5 -88t108.5 -245h-86q-10 121 -82.5 187.5t-201.5 66.5
q-127 0 -203.5 -61t-76.5 -158q0 -78 55 -120.5t158 -66.5l180 -42q136 -32 205.5 -89.5t69.5 -165.5q0 -140 -106.5 -224t-278.5 -84zM368 -418v65h105q123 0 123 96q0 97 -128 97h-66l36 188h60v-28l-17 -97q89 -3 139 -45.5t50 -114.5q0 -77 -53.5 -119t-143.5 -42h-105z
" />
    <glyph glyph-name="Scaron" unicode="&#x160;" horiz-adv-x="1170" 
d="M585 -23q-147 0 -257 52t-172.5 145.5t-66.5 218.5h92q7 -150 114.5 -240t289.5 -90q183 0 294.5 89t111.5 234q0 111 -75.5 182.5t-249.5 122.5l-168 48q-193 56 -285 147.5t-92 228.5q0 116 60 205.5t165 141t241 51.5q137 0 240 -53t162 -147t65 -218h-90
q-10 148 -111.5 240t-267.5 92q-108 0 -192.5 -40t-133 -109.5t-48.5 -159.5q0 -105 74.5 -176t234.5 -117l170 -48q201 -58 296 -151.5t95 -236.5q0 -121 -62 -214t-173.5 -145.5t-260.5 -52.5zM392 1941l191 -216l193 216h96v-1l-247 -273h-84l-245 273v1h96z" />
    <glyph glyph-name="scaron" unicode="&#x161;" horiz-adv-x="934" 
d="M471 -17q-172 0 -278.5 88.5t-113.5 244.5h86q7 -118 85.5 -186t219.5 -68q138 0 218 63t80 164q0 78 -53.5 116.5t-151.5 61.5l-179 42q-139 33 -211 95.5t-72 170.5q0 133 101.5 215.5t265.5 82.5q162 0 261.5 -88t108.5 -245h-86q-10 121 -82.5 187.5t-201.5 66.5
q-127 0 -203.5 -61t-76.5 -158q0 -78 55 -120.5t158 -66.5l180 -42q136 -32 205.5 -89.5t69.5 -165.5q0 -140 -106.5 -224t-278.5 -84zM278 1507l191 -216l193 216h96v-1l-247 -273h-84l-245 273v1h96z" />
    <glyph glyph-name="uni021A" unicode="&#x162;" horiz-adv-x="1221" 
d="M57 1406v84h1107v-84h-508v-1406h-91v1406h-508zM512 -418v65h105q123 0 123 96q0 97 -128 97h-66l36 188h60v-28l-17 -97q89 -3 139 -45.5t50 -114.5q0 -77 -53.5 -119t-143.5 -42h-105z" />
    <glyph glyph-name="uni0163" unicode="&#x163;" horiz-adv-x="527" 
d="M490 1056v-79h-226v-758q0 -73 33.5 -106.5t108.5 -33.5h84v-79h-90q-223 0 -223 213v764h-172v79h172v288h87v-288h226zM236 -418v65h105q123 0 123 96q0 97 -128 97h-66l36 188h60v-28l-17 -97q89 -3 139 -45.5t50 -114.5q0 -77 -53.5 -119t-143.5 -42h-105z" />
    <glyph glyph-name="Tcaron" unicode="&#x164;" horiz-adv-x="1221" 
d="M57 1406v84h1107v-84h-508v-1406h-91v1406h-508zM418 1941l191 -216l193 216h96v-1l-247 -273h-84l-245 273v1h96z" />
    <glyph glyph-name="tcaron" unicode="&#x165;" horiz-adv-x="560" 
d="M490 1056v-79h-226v-758q0 -73 33.5 -106.5t108.5 -33.5h84v-79h-90q-223 0 -223 213v764h-172v79h172v288h87v-288h226zM401 1182v378h93l-26 -378h-67z" />
    <glyph glyph-name="Tbar" unicode="&#x166;" horiz-adv-x="1221" 
d="M57 1406v84h1107v-84h-508v-1406h-91v1406h-508zM238 726v84h745v-84h-745z" />
    <glyph glyph-name="tbar" unicode="&#x167;" horiz-adv-x="527" 
d="M490 745v-79h-226v-447q0 -73 33.5 -106.5t108.5 -33.5h84v-79h-90q-223 0 -223 213v453h-172v79h172v232h-172v79h172v288h87v-288h226v-79h-226v-232h226z" />
    <glyph glyph-name="Utilde" unicode="&#x168;" horiz-adv-x="1381" 
d="M691 -19q-160 0 -284.5 69t-195.5 188t-71 271v981h91v-977q0 -128 58.5 -228.5t162.5 -158.5t239 -58t238.5 58t162.5 158.5t59 228.5v977h90v-981q0 -152 -70.5 -271.5t-195 -188t-284.5 -68.5zM820 1718q-53 0 -93.5 26.5t-75.5 52.5t-74 26q-42 0 -66.5 -28
t-28.5 -72h-72q5 75 46 124t110 49q58 0 98 -26.5t73.5 -53.5t71.5 -27q73 0 92 98h71q-9 -78 -49.5 -123.5t-102.5 -45.5z" />
    <glyph glyph-name="utilde" unicode="&#x169;" horiz-adv-x="1085" 
d="M521 -17q-112 0 -200 47.5t-139 136t-51 212.5v677h88v-673q0 -148 85.5 -233t226.5 -85q95 0 171 39.5t120.5 113t44.5 173.5v665h87v-1056h-86v185q-50 -102 -143 -152t-204 -50zM672 1284q-53 0 -93.5 26.5t-75.5 52.5t-74 26q-42 0 -66.5 -28t-28.5 -72h-72
q5 75 46 124t110 49q58 0 98 -26.5t73.5 -53.5t71.5 -27q73 0 92 98h71q-9 -78 -49.5 -123.5t-102.5 -45.5z" />
    <glyph glyph-name="Umacron" unicode="&#x16a;" horiz-adv-x="1381" 
d="M691 -19q-160 0 -284.5 69t-195.5 188t-71 271v981h91v-977q0 -128 58.5 -228.5t162.5 -158.5t239 -58t238.5 58t162.5 158.5t59 228.5v977h90v-981q0 -152 -70.5 -271.5t-195 -188t-284.5 -68.5zM937 1840v-77h-493v77h493z" />
    <glyph glyph-name="umacron" unicode="&#x16b;" horiz-adv-x="1085" 
d="M521 -17q-112 0 -200 47.5t-139 136t-51 212.5v677h88v-673q0 -148 85.5 -233t226.5 -85q95 0 171 39.5t120.5 113t44.5 173.5v665h87v-1056h-86v185q-50 -102 -143 -152t-204 -50zM789 1406v-77h-493v77h493z" />
    <glyph glyph-name="Ubreve" unicode="&#x16c;" horiz-adv-x="1381" 
d="M691 -19q-160 0 -284.5 69t-195.5 188t-71 271v981h91v-977q0 -128 58.5 -228.5t162.5 -158.5t239 -58t238.5 58t162.5 158.5t59 228.5v977h90v-981q0 -152 -70.5 -271.5t-195 -188t-284.5 -68.5zM691 1657q-76 0 -137 36t-97 97t-36 135h74q0 -83 57 -139.5t139 -56.5
q83 0 139.5 56.5t56.5 139.5h74q0 -74 -36 -135t-97 -97t-137 -36z" />
    <glyph glyph-name="ubreve" unicode="&#x16d;" horiz-adv-x="1085" 
d="M521 -17q-112 0 -200 47.5t-139 136t-51 212.5v677h88v-673q0 -148 85.5 -233t226.5 -85q95 0 171 39.5t120.5 113t44.5 173.5v665h87v-1056h-86v185q-50 -102 -143 -152t-204 -50zM543 1223q-76 0 -137 36t-97 97t-36 135h74q0 -83 57 -139.5t139 -56.5q83 0 139.5 56.5
t56.5 139.5h74q0 -74 -36 -135t-97 -97t-137 -36z" />
    <glyph glyph-name="Uring" unicode="&#x16e;" horiz-adv-x="1381" 
d="M691 -19q-160 0 -284.5 69t-195.5 188t-71 271v981h91v-977q0 -128 58.5 -228.5t162.5 -158.5t239 -58t238.5 58t162.5 158.5t59 228.5v977h90v-981q0 -152 -70.5 -271.5t-195 -188t-284.5 -68.5zM691 1634q-76 0 -130.5 52.5t-54.5 125.5q0 74 54.5 126t130.5 52
q77 0 131 -52t54 -126q0 -73 -54 -125.5t-131 -52.5zM691 1705q46 0 78.5 31t32.5 76t-32.5 76t-78.5 31t-78.5 -31t-32.5 -76t32.5 -76t78.5 -31z" />
    <glyph glyph-name="uring" unicode="&#x16f;" horiz-adv-x="1085" 
d="M521 -17q-112 0 -200 47.5t-139 136t-51 212.5v677h88v-673q0 -148 85.5 -233t226.5 -85q95 0 171 39.5t120.5 113t44.5 173.5v665h87v-1056h-86v185q-50 -102 -143 -152t-204 -50zM543 1200q-76 0 -130.5 52.5t-54.5 125.5q0 74 54.5 126t130.5 52q77 0 131 -52t54 -126
q0 -73 -54 -125.5t-131 -52.5zM543 1271q46 0 78.5 31t32.5 76t-32.5 76t-78.5 31t-78.5 -31t-32.5 -76t32.5 -76t78.5 -31z" />
    <glyph glyph-name="Uhungarumlaut" unicode="&#x170;" horiz-adv-x="1381" 
d="M691 -19q-160 0 -284.5 69t-195.5 188t-71 271v981h91v-977q0 -128 58.5 -228.5t162.5 -158.5t239 -58t238.5 58t162.5 158.5t59 228.5v977h90v-981q0 -152 -70.5 -271.5t-195 -188t-284.5 -68.5zM843 1626h-79l145 298h102zM608 1626h-77l111 298h101z" />
    <glyph glyph-name="uhungarumlaut" unicode="&#x171;" horiz-adv-x="1085" 
d="M521 -17q-112 0 -200 47.5t-139 136t-51 212.5v677h88v-673q0 -148 85.5 -233t226.5 -85q95 0 171 39.5t120.5 113t44.5 173.5v665h87v-1056h-86v185q-50 -102 -143 -152t-204 -50zM695 1192h-79l145 298h102zM460 1192h-77l111 298h101z" />
    <glyph glyph-name="Uogonek" unicode="&#x172;" horiz-adv-x="1381" 
d="M691 -19q-160 0 -284.5 69t-195.5 188t-71 271v981h91v-977q0 -128 58.5 -228.5t162.5 -158.5t239 -58t238.5 58t162.5 158.5t59 228.5v977h90v-981q0 -152 -70.5 -271.5t-195 -188t-284.5 -68.5zM779 -418q-102 0 -150 45.5t-48 119.5q0 76 44.5 128t114.5 93.5
t148 85.5t148 102t114.5 143t44.5 210h46q0 -129 -41 -219.5t-106 -154t-138 -110t-138 -86t-106 -82.5t-41 -100q0 -41 26 -68.5t100 -27.5h44v-79h-62z" />
    <glyph glyph-name="uogonek" unicode="&#x173;" horiz-adv-x="1085" 
d="M521 -17q-112 0 -200 47.5t-139 136t-51 212.5v677h88v-673q0 -148 85.5 -233t226.5 -85q95 0 171 39.5t120.5 113t44.5 173.5v665h87v-1056h-86v185q-50 -102 -143 -152t-204 -50zM886 -418q-101 0 -148 45.5t-47 119.5q0 78 51.5 144.5t160.5 147.5l51 -39
q-95 -82 -135.5 -135.5t-40.5 -107.5q0 -41 26 -68.5t101 -27.5h44v-79h-63z" />
    <glyph glyph-name="Wcircumflex" unicode="&#x174;" horiz-adv-x="1855" 
d="M437 0l-417 1490h93l295 -1069q23 -83 44.5 -167t42.5 -168q20 84 41.5 168t44.5 167l288 1069h116l288 -1069q23 -83 44.5 -166.5t41.5 -166.5q21 83 43 166.5t45 166.5l294 1069h94l-418 -1490h-116l-288 1056q-23 84 -44 167.5t-42 166.5q-21 -83 -42 -166.5
t-44 -167.5l-287 -1056h-117zM735 1667h-96v1l245 273h84l247 -273v-1h-96l-193 215z" />
    <glyph glyph-name="wcircumflex" unicode="&#x175;" horiz-adv-x="1495" 
d="M348 0l-315 1056h91l194 -667q21 -73 41 -147l40 -148q22 74 43.5 148t44.5 147l212 667h97l212 -667q23 -72 44 -146t43 -147q20 73 40.5 147t41.5 146l194 667h91l-315 -1056h-102l-235 736q-16 53 -31.5 108t-30.5 109q-16 -54 -31.5 -109t-31.5 -108l-236 -736h-101z
M557 1233h-96v1l245 273h84l247 -273v-1h-96l-193 215z" />
    <glyph glyph-name="Ycircumflex" unicode="&#x176;" horiz-adv-x="1252" 
d="M581 0v675l-561 815h107l340 -493q41 -59 80.5 -119t79.5 -119q40 59 79.5 119t80.5 119l339 493h106l-560 -815v-675h-91zM434 1667h-96v1l245 273h84l247 -273v-1h-96l-193 215z" />
    <glyph glyph-name="ycircumflex" unicode="&#x177;" horiz-adv-x="1015" 
d="M121 -418v81h94q69 0 104.5 32t74.5 128l70 175l-431 1058h94l276 -683q27 -68 53.5 -136t53.5 -136q26 68 52.5 136t53.5 136l272 683h93l-509 -1262q-47 -118 -103.5 -165t-153.5 -47h-94zM315 1233h-96v1l245 273h84l247 -273v-1h-96l-193 215z" />
    <glyph glyph-name="Ydieresis" unicode="&#x178;" horiz-adv-x="1252" 
d="M581 0v675l-561 815h107l340 -493q41 -59 80.5 -119t79.5 -119q40 59 79.5 119t80.5 119l339 493h106l-560 -815v-675h-91zM830 1742q-29 0 -49.5 20.5t-20.5 49.5t20.5 49.5t49.5 20.5t49.5 -20.5t20.5 -49.5t-20.5 -49.5t-49.5 -20.5zM421 1742q-29 0 -49.5 20.5
t-20.5 49.5t20.5 49.5t49.5 20.5t49.5 -20.5t20.5 -49.5t-20.5 -49.5t-49.5 -20.5z" />
    <glyph glyph-name="Zacute" unicode="&#x179;" horiz-adv-x="1231" 
d="M69 0v87l818 1102q40 54 81 108.5t82 108.5h-943v84h1046v-87l-814 -1097q-41 -56 -82.5 -111.5t-83.5 -110.5h988v-84h-1092zM574 1626l126 298h99l-149 -298h-76z" />
    <glyph glyph-name="zacute" unicode="&#x17a;" horiz-adv-x="936" 
d="M84 0v74l656 899v2h-649v81h756v-77l-653 -896v-2h658v-81h-768zM427 1192l126 298h99l-149 -298h-76z" />
    <glyph glyph-name="Zdotaccent" unicode="&#x17b;" horiz-adv-x="1231" 
d="M69 0v87l818 1102q40 54 81 108.5t82 108.5h-943v84h1046v-87l-814 -1097q-41 -56 -82.5 -111.5t-83.5 -110.5h988v-84h-1092zM615 1742q-29 0 -49.5 20.5t-20.5 49.5t20.5 49.5t49.5 20.5t49.5 -20.5t20.5 -49.5t-20.5 -49.5t-49.5 -20.5z" />
    <glyph glyph-name="zdotaccent" unicode="&#x17c;" horiz-adv-x="936" 
d="M84 0v74l656 899v2h-649v81h756v-77l-653 -896v-2h658v-81h-768zM469 1308q-29 0 -49.5 20.5t-20.5 49.5t20.5 49.5t49.5 20.5t49.5 -20.5t20.5 -49.5t-20.5 -49.5t-49.5 -20.5z" />
    <glyph glyph-name="Zcaron" unicode="&#x17d;" horiz-adv-x="1231" 
d="M69 0v87l818 1102q40 54 81 108.5t82 108.5h-943v84h1046v-87l-814 -1097q-41 -56 -82.5 -111.5t-83.5 -110.5h988v-84h-1092zM423 1941l191 -216l193 216h96v-1l-247 -273h-84l-245 273v1h96z" />
    <glyph glyph-name="zcaron" unicode="&#x17e;" horiz-adv-x="936" 
d="M84 0v74l656 899v2h-649v81h756v-77l-653 -896v-2h658v-81h-768zM277 1507l191 -216l193 216h96v-1l-247 -273h-84l-245 273v1h96z" />
    <glyph glyph-name="longs" unicode="&#x17f;" horiz-adv-x="445" 
d="M131 0v1275q0 102 59 158.5t167 56.5h87v-79h-82q-75 0 -109.5 -35t-34.5 -110v-1266h-87z" />
    <glyph glyph-name="bbar" unicode="&#x180;" horiz-adv-x="1131" 
d="M601 -17q-134 0 -237.5 71.5t-144.5 185.5h-2v-240h-86v1490h88v-677h1q36 114 141.5 187t239.5 73t238 -68t164 -190.5t60 -286.5t-59.5 -287t-163.5 -190.5t-239 -67.5zM593 64q109 0 195.5 55.5t136.5 159.5t50 249t-50 249t-136.5 159.5t-195.5 55.5
q-171 0 -275 -125.5t-104 -338.5t104 -338.5t275 -125.5zM-72 1222v80h582v-80h-582z" />
    <glyph glyph-name="uni0181" unicode="&#x181;" horiz-adv-x="1460" 
d="M29 1095v170q0 225 226 225h595q208 0 332.5 -103t124.5 -281q0 -131 -73.5 -220t-182.5 -123v-1q82 -13 154 -58.5t116.5 -120.5t44.5 -180q0 -181 -125.5 -292t-354.5 -111h-525v1406h-104q-142 0 -142 -143v-168h-86zM452 84h434q184 0 286.5 86t102.5 231
q0 99 -52 169.5t-139.5 107.5t-194.5 37h-437v-631zM452 799h434q98 0 173 40.5t116.5 109.5t41.5 153q0 144 -100 224t-265 80h-400v-607z" />
    <glyph glyph-name="uni0182" unicode="&#x182;" horiz-adv-x="1231" 
d="M161 0v1490h840v-85h-748v-600h468q206 1 324 -105t118 -284q0 -190 -117 -303t-325 -113h-560zM253 83h468q167 1 259 93.5t92 242.5q0 133 -94.5 217.5t-256.5 84.5h-468v-638z" />
    <glyph glyph-name="uni0183" unicode="&#x183;" horiz-adv-x="1131" 
d="M601 -17q-134 0 -237.5 71.5t-144.5 185.5h-2v-240h-86v1490h730v-81h-642v-596h1q36 114 141.5 187t239.5 73t238 -68t164 -190.5t60 -286.5t-59.5 -287t-163.5 -190.5t-239 -67.5zM593 64q109 0 195.5 55.5t136.5 159.5t50 249t-50 249t-136.5 159.5t-195.5 55.5
q-171 0 -275 -125.5t-104 -338.5t104 -338.5t275 -125.5z" />
    <glyph glyph-name="uni0184" unicode="&#x184;" horiz-adv-x="1241" 
d="M398 1490v-685h467q206 1 324 -105t118 -284q0 -190 -117 -303t-325 -113h-559v1405h-342v85h434zM398 721v-638h467q167 1 259.5 93.5t92.5 242.5q1 133 -94 217.5t-258 84.5h-467z" />
    <glyph glyph-name="uni0185" unicode="&#x185;" horiz-adv-x="1063" 
d="M145 1536h45v-46h59v-622h10q38 107 127 186t232 79q135 0 235.5 -74t156 -204.5t55.5 -298.5q0 -169 -55 -300t-155.5 -205.5t-235.5 -74.5q-143 0 -232 80t-128 188h-12v-244h-85v1048h-17l-125 226v37zM976 557q0 140 -43 252t-124.5 177t-197.5 65q-113 0 -194 -64
t-124.5 -176t-43.5 -254q0 -143 43.5 -255.5t124.5 -177.5t194 -65q116 0 197.5 66t124.5 178.5t43 253.5z" />
    <glyph glyph-name="uni0186" unicode="&#x186;" horiz-adv-x="1394" 
d="M667 1509q191 0 335.5 -96.5t225 -268t80.5 -398.5t-80.5 -399.5t-225 -269t-335.5 -96.5q-169 0 -292 71.5t-197 184t-96 234.5h93q21 -104 84 -196t166 -149.5t242 -57.5q154 0 279 80.5t198.5 232t73.5 365.5q0 215 -73.5 366t-198.5 230.5t-279 79.5
q-139 0 -241.5 -57.5t-166 -149.5t-85.5 -196h-92q21 122 95.5 234t197.5 184t292 72z" />
    <glyph glyph-name="uni0187" unicode="&#x187;" horiz-adv-x="1394" 
d="M728 -19q-191 0 -335.5 96.5t-225.5 268t-81 398.5q0 228 81 400t225.5 268.5t335.5 96.5q174 0 300 -77.5t198 -191.5v221q0 215 218 215h81v-80h-81q-70 0 -101 -31t-31 -104v-442h-92q-22 104 -85 196t-165.5 149.5t-241.5 57.5q-155 0 -279.5 -80.5t-198 -232
t-73.5 -365.5q0 -215 73.5 -366t198 -230.5t279.5 -79.5q138 0 240.5 57.5t166 149.5t85.5 196h92q-21 -122 -95 -234t-197.5 -184t-291.5 -72z" />
    <glyph glyph-name="uni0188" unicode="&#x188;" horiz-adv-x="1220" 
d="M541 -19q-140 0 -246.5 70.5t-166.5 194t-60 281.5q0 159 60 282.5t166.5 194.5t246.5 71q109 0 198.5 -45t147.5 -123l-1 87q-5 215 216 215h81v-80h-81q-70 0 -101 -31.5t-31 -103.5v-282h-88q-27 127 -117.5 204t-223.5 77q-115 0 -201.5 -59t-135 -164t-48.5 -243
q0 -137 48 -241.5t135 -163.5t202 -59q134 0 222.5 76.5t117.5 204.5h89q-19 -107 -78.5 -188.5t-149.5 -128t-201 -46.5z" />
    <glyph glyph-name="Dbar1" unicode="&#x189;" horiz-adv-x="1395" 
d="M610 0h-414v1490h446q209 0 358.5 -88.5t229 -254.5t79.5 -398q0 -354 -183.5 -551.5t-515.5 -197.5zM287 84h319q299 0 455.5 177t156.5 488q0 308 -149.5 482.5t-430.5 174.5h-351v-1322zM5 703v84h745v-84h-745z" />
    <glyph glyph-name="uni018A" unicode="&#x18a;" horiz-adv-x="1560" 
d="M29 1095v170q0 225 226 225h552q209 0 358.5 -88.5t229 -254.5t79.5 -398q0 -354 -183.5 -551.5t-515.5 -197.5h-414v1406h-104q-142 0 -142 -143v-168h-86zM452 84h319q299 0 455.5 177t156.5 488q0 308 -149.5 482.5t-430.5 174.5h-351v-1322z" />
    <glyph glyph-name="uni018B" unicode="&#x18b;" horiz-adv-x="1131" 
d="M1065 0h-557q-208 0 -325.5 113t-117.5 303q0 178 118.5 284.5t324.5 106.5h458v584h-738v88h837v-1479zM966 86v635h-458q-163 -1 -253 -85t-90 -217q0 -150 87.5 -241.5t255.5 -91.5h458z" />
    <glyph glyph-name="uni018C" unicode="&#x18c;" horiz-adv-x="1131" 
d="M530 -17q-134 0 -238.5 67.5t-164 190.5t-59.5 287t60 286.5t164.5 190.5t237.5 68q135 0 240 -73t141 -187h2v596h-643v81h730v-1490h-86v240h-1q-41 -114 -144.5 -185.5t-238.5 -71.5zM539 64q171 0 274.5 125.5t103.5 338.5t-103.5 338.5t-274.5 125.5
q-110 0 -196.5 -55.5t-136.5 -159.5t-50 -249t50 -249t136.5 -159.5t196.5 -55.5z" />
    <glyph glyph-name="deltaturn" unicode="&#x18d;" horiz-adv-x="898" 
d="M759 -376h-637v83l502 -1q-73 79 -162.5 171t-178.5 181q-139 133 -211.5 256.5t-72.5 263.5v12q0 166 55.5 288t156.5 188.5t238 66.5q138 0 239 -66.5t156 -188.5t55 -288v-13q1 -137 -54 -246t-153.5 -174.5t-230.5 -71.5q-23 0 -45 2t-51 6q91 -89 194.5 -194
t199.5 -214v-61zM802 577v13q0 211 -92.5 335t-260.5 124q-166 0 -259.5 -124.5t-93.5 -334.5v-12q0 -112 50.5 -208.5t145.5 -191.5q83 -21 147 -21q112 0 193.5 55t125.5 150t44 215z" />
    <glyph glyph-name="Eturn" unicode="&#x18e;" horiz-adv-x="1159" 
d="M998 1490v-1490h-925v84h834v602h-763v84h763v636h-834v84h925z" />
    <glyph glyph-name="uni018F" unicode="&#x18f;" horiz-adv-x="1421" 
d="M707 -21q-175 0 -312 80t-216 223t-79 331v83h1144q1 24 1 48q0 203 -69 356t-192.5 239t-287.5 86q-138 0 -242 -59.5t-168.5 -152.5t-83.5 -194h-92q15 90 61 177.5t121 158.5t176.5 113.5t227.5 42.5q190 0 334 -96.5t224.5 -269.5t80.5 -401q0 -226 -77 -398.5
t-218 -269.5t-333 -97zM1237 612h-1047q2 -166 69 -289t183 -190.5t265 -67.5q148 0 259.5 68.5t181 191.5t89.5 287z" />
    <glyph glyph-name="Epsilon1" unicode="&#x190;" horiz-adv-x="1134" 
d="M563 -21q-144 0 -254.5 54.5t-173 149.5t-62.5 214q0 139 94 241t252 130v2q-139 35 -219 129t-80 218q0 114 58 203t159 140t231 51q131 0 233 -53t160.5 -146t58.5 -215h-89q0 149 -101 240t-262 91q-160 0 -259.5 -88t-99.5 -226q0 -93 51.5 -161.5t141 -106
t202.5 -37.5h55v-85h-55q-129 0 -228.5 -41t-156.5 -114t-57 -172q0 -95 50.5 -171t141 -120t210.5 -44q117 0 207 43t141.5 120t51.5 179h91q0 -124 -64 -220t-175.5 -150.5t-252.5 -54.5z" />
    <glyph glyph-name="uni0191" unicode="&#x191;" horiz-adv-x="1105" 
d="M-50 -418v83h81q70 0 100 31t30 103v1691h887v-84h-796v-602h714v-84h-714v-923q0 -215 -217 -215h-85z" />
    <glyph glyph-name="florin" unicode="&#x192;" horiz-adv-x="563" 
d="M519 1077v-82h-200v-1127q-1 -135 -79.5 -210.5t-197.5 -75.5q-55 0 -97 15l14 80q17 -6 40.5 -8.5t42.5 -2.5q75 0 130 53.5t55 148.5v1127h-193v82h193v187q0 138 80.5 215t193.5 77q68 0 117 -19l-25 -82q-16 6 -34.5 9.5t-41.5 3.5q-85 0 -141.5 -53t-56.5 -151v-187
h200z" />
    <glyph glyph-name="uni0193" unicode="&#x193;" horiz-adv-x="1421" 
d="M728 -19q-192 0 -336.5 96.5t-225 268.5t-80.5 398q0 228 81 400t225 268.5t333 96.5q174 0 300.5 -78.5t200.5 -192.5v223q0 215 217 215h81v-80h-81q-69 0 -100 -31t-31 -104v-442h-92q-20 101 -84.5 193t-168.5 151t-242 59q-164 0 -287.5 -85t-192 -237.5
t-68.5 -355.5q0 -201 68 -353t192 -237.5t291 -85.5q148 0 261 66.5t177 189t65 288.5h-474v84h564v-83q0 -188 -75.5 -330.5t-209 -222t-308.5 -79.5z" />
    <glyph glyph-name="Gamma1" unicode="&#x194;" horiz-adv-x="1029" 
d="M-76 1490h100l491 -1204l493 1204h100l-545 -1322l10 -26q52 -126 83.5 -203t46 -122t14.5 -75q0 -82 -54 -133t-148 -51t-148.5 51t-54.5 133q0 31 13 73t43.5 115.5t81.5 196.5l18 45zM516 56q-60 -146 -86.5 -215.5t-26.5 -102.5q0 -40 31 -67.5t81 -27.5q49 0 80 28
t31 67q0 32 -24.5 99.5t-85.5 218.5z" />
    <glyph glyph-name="uni0195" unicode="&#x195;" horiz-adv-x="1836" 
d="M1217 -19q-155 0 -250 111.5t-95 348.5v232q0 148 -87.5 233t-228.5 85q-95 0 -171.5 -39.5t-121 -112.5t-44.5 -174v-665h-88v1490h88v-621h2q35 86 127.5 145t219.5 59q112 0 200.5 -47.5t139.5 -136t51 -212.5v-236q0 -140 34.5 -222.5t94 -119t133.5 -36.5
q189 0 292.5 226t103.5 721v46h88v-46q0 -534 -127.5 -781.5t-360.5 -247.5z" />
    <glyph glyph-name="Iota" unicode="&#x196;" horiz-adv-x="397" 
d="M339 0q-108 0 -158 47.5t-50 149.5v1293h88v-1287q0 -69 27 -96.5t95 -27.5h27v-79h-29z" />
    <glyph glyph-name="uni0197" unicode="&#x197;" horiz-adv-x="484" 
d="M287 1490v-1490h-91v1490h91zM4 729v78h476v-78h-476z" />
    <glyph glyph-name="uni0198" unicode="&#x198;" horiz-adv-x="1247" 
d="M161 0v1490h92v-865h10l716 789q65 75 153 84t150 -47l-45 -65q-102 70 -196 -36l-518 -565l688 -785h-115l-631 720l-212 -235v-485h-92z" />
    <glyph glyph-name="uni0199" unicode="&#x199;" horiz-adv-x="912" 
d="M131 0v1234q0 215 219 215h81v-80h-81q-69 0 -100 -31.5t-31 -103.5v-686h4l518 508h117l-448 -440l498 -616h-112l-450 558l-127 -120v-438h-88z" />
    <glyph glyph-name="uni019A" unicode="&#x19a;" horiz-adv-x="350" 
d="M219 1490v-1490h-88v1490h88zM-115 728v80h582v-80h-582z" />
    <glyph glyph-name="lambdabar" unicode="&#x19b;" horiz-adv-x="1185" 
d="M221 1118l-27 74l183 80q-35 82 -69.5 109.5t-99.5 27.5h-93v81h93q91 0 146 -41t100 -143l176 78l29 -75l-175 -77l400 -991q39 -96 74.5 -128t104.5 -32h93v-81h-93q-97 0 -153.5 47t-104.5 165l-189 471q-27 68 -53.5 136t-52.5 136q-27 -68 -53.5 -136t-53.5 -136
l-276 -683h-94l431 1058l-57 141z" />
    <glyph glyph-name="mcapturn" unicode="&#x19c;" horiz-adv-x="1646" 
d="M802 209q-41 -103 -127 -164t-206 -61q-165 0 -258.5 104.5t-93.5 302.5v1099h97v-1099q0 -158 72 -239.5t194 -81.5t200.5 77t96.5 199q-2 22 -2 45v1099h97v-1099q0 -158 72 -239.5t195 -81.5q120 0 197.5 75t96.5 195v1150h98v-1490h-91l-5 158q-46 -81 -124.5 -127.5
t-181.5 -46.5q-123 0 -207 57t-120 168z" />
    <glyph glyph-name="Nhook" unicode="&#x19d;" horiz-adv-x="1453" 
d="M-50 -418v83h81q70 0 100 31t30 103v1691h99l753 -1077q43 -62 92.5 -135.5t98.5 -147.5q-1 72 -2 149t-1 136v1075h90v-1490h-99l-729 1040q-45 64 -99.5 145.5t-115.5 174.5q1 -96 2.5 -176t1.5 -143v-1244q0 -215 -217 -215h-85z" />
    <glyph glyph-name="uni019E" unicode="&#x19e;" horiz-adv-x="1085" 
d="M219 665v-665h-88v1056h86v-185q51 102 143.5 152t204.5 50t200 -47.5t138.5 -136t50.5 -212.5v-1095h-87v1091q0 148 -86 233t-227 85q-95 0 -171 -39.5t-120 -112.5t-44 -174z" />
    <glyph glyph-name="Obar" unicode="&#x19f;" horiz-adv-x="1446" 
d="M724 -19q-189 0 -333 97t-224.5 269t-80.5 397q0 227 81 399t224.5 269t332.5 97q188 0 331 -97t224 -269t81 -399q0 -226 -81 -398t-224 -268.5t-331 -96.5zM177 787h1092q-8 195 -80 337.5t-192.5 220t-272.5 77.5q-153 0 -273.5 -77t-193 -219.5t-80.5 -338.5zM724 68
q152 0 272.5 77.5t192.5 220t80 337.5h-1092q8 -194 79.5 -336.5t192.5 -220.5t275 -78z" />
    <glyph glyph-name="Ohorn" unicode="&#x1a0;" horiz-adv-x="1446" 
d="M724 -19q-189 0 -333 97t-224.5 269t-80.5 397q0 226 81 398.5t224.5 269t331.5 97.5v2q62 0 104 -3t87.5 -7.5t115 -7.5t185.5 -3q58 0 58 57v183h87v-179q0 -138 -139 -138q-56 0 -98.5 1t-76.5 3q146 -92 230 -267t84 -406q0 -226 -81 -398t-224 -268.5t-331 -96.5z
M724 68q157 0 280.5 83t194 234.5t70.5 358.5t-70.5 359.5t-194 235.5t-280.5 83q-158 0 -281.5 -82.5t-194.5 -235t-71 -360.5q0 -206 70 -357.5t193.5 -235t283.5 -83.5z" />
    <glyph glyph-name="ohorn" unicode="&#x1a1;" horiz-adv-x="1080" 
d="M541 -19q-140 0 -246.5 70.5t-166.5 194t-60 281.5q0 159 60 282.5t166 194t246 71.5v0h1q16 0 31 -1q51 -2 93.5 -6t91.5 -6.5t119 -2.5q62 0 62 61v176h84v-172q0 -130 -138 -130q-39 0 -85 1q99 -70 156 -191.5t57 -276.5q0 -158 -59.5 -281.5t-166 -194t-245.5 -70.5
zM541 63q114 0 200.5 59t134.5 163.5t48 241.5q0 138 -48 243t-134.5 164t-200.5 59q-115 0 -201.5 -59t-135 -164t-48.5 -243q0 -137 48 -241.5t135 -163.5t202 -59z" />
    <glyph glyph-name="OI" unicode="&#x1a2;" horiz-adv-x="1537" 
d="M1375 1490v-1908h-98v1813l-164 -105v-1108q-64 -96 -178.5 -149t-249.5 -53q-172 0 -307.5 87.5t-213.5 244t-78 362.5v121q0 210 77 371.5t213 252.5t315 91q113 0 213.5 -39.5t170.5 -109.5l204 129h96zM185 745v-71q1 -182 66 -319t179 -213t261 -76q101 0 189 38
t136 102v1078q-51 65 -138.5 102t-186.5 37q-150 0 -264 -79t-178 -220.5t-64 -328.5v-50z" />
    <glyph glyph-name="uni01A3" unicode="&#x1a3;" horiz-adv-x="1032" 
d="M1023 1118v-1536h-96v1420l-178 -113v-805q-61 -51 -130.5 -79t-152.5 -28q-140 0 -242.5 73.5t-158.5 199t-56 282.5v17q0 172 55.5 303.5t159 206t245.5 74.5q83 0 152 -26t128 -73v-26l179 110h95zM469 63q53 -1 98 13t84 40v350v532q-38 24 -84.5 37.5t-99.5 13.5
q-114 0 -195 -64.5t-123.5 -177.5t-42.5 -258v-17q1 -140 46.5 -246t127.5 -165t189 -58z" />
    <glyph glyph-name="uni01A4" unicode="&#x1a4;" horiz-adv-x="1368" 
d="M29 1095v170q0 225 226 225h608q135 0 237 -54t159 -151.5t57 -229.5q0 -130 -57.5 -227.5t-160 -151t-237.5 -53.5h-409v-623h-91v1406h-104q-142 0 -142 -143v-168h-86zM452 707h409q164 0 264.5 95t100.5 253q0 160 -100.5 255.5t-264.5 95.5h-409v-699z" />
    <glyph glyph-name="uni01A5" unicode="&#x1a5;" horiz-adv-x="1131" 
d="M131 -418v1652q0 215 219 215h81v-80h-81q-69 0 -100 -31.5t-31 -103.5v-421q36 114 142 187t240 73t238 -68t164 -190.5t60 -286.5t-59.5 -287t-163.5 -190.5t-239 -67.5q-134 0 -237 71.5t-144 185.5h-1v-658h-88zM593 64q109 0 195.5 55.5t136.5 159.5t50 249t-50 249
t-136.5 159.5t-195.5 55.5q-171 0 -275 -125.5t-104 -338.5t104 -338.5t275 -125.5z" />
    <glyph glyph-name="YR" unicode="&#x1a6;" horiz-adv-x="1287" 
d="M1113 -368l-540 1003h-416v-635h-100v1589h100v-99h352q208 0 332 -115.5t124 -314.5q0 -149 -79.5 -256.5t-214.5 -149.5l548 -1015v-7h-106zM157 1402v-680h388q90 0 162.5 42.5t115 119t42.5 176.5q0 155 -95 248.5t-261 93.5h-352z" />
    <glyph glyph-name="uni01A7" unicode="&#x1a7;" horiz-adv-x="1170" 
d="M585 -23q-149 0 -260.5 52.5t-173.5 145.5t-62 214q0 143 95 236.5t296 151.5l170 48q160 46 234.5 117t74.5 176q0 90 -48.5 159.5t-133 109.5t-192.5 40q-166 0 -267.5 -92t-111.5 -240h-90q6 124 65 218t162 147t240 53q136 0 241 -51.5t165 -141t60 -205.5
q0 -137 -91.5 -228.5t-285.5 -147.5l-168 -48q-174 -51 -249.5 -122.5t-75.5 -182.5q0 -145 111.5 -234t294.5 -89q182 0 289.5 90t114.5 240h92q-4 -125 -66.5 -218.5t-172.5 -145.5t-257 -52z" />
    <glyph glyph-name="uni01A8" unicode="&#x1a8;" horiz-adv-x="933" 
d="M95 740q9 157 108.5 244.5t261.5 87.5q164 0 266 -82t102 -215q0 -108 -72 -171.5t-212 -96.5l-178 -42q-98 -23 -152 -60.5t-54 -115.5q0 -101 80 -162.5t218 -61.5q141 0 219.5 66.5t85.5 184.5h87q-8 -156 -114 -244t-279 -88q-172 0 -278 83.5t-106 223.5
q0 106 69 164.5t205 90.5l180 42q103 24 159 66.5t56 120.5q0 97 -77.5 156.5t-204.5 59.5q-129 0 -201.5 -65t-82.5 -186h-86z" />
    <glyph glyph-name="uni01A9" unicode="&#x1a9;" horiz-adv-x="1128" 
d="M56 0v77l535 568q29 30 57.5 61t57.5 62q-29 30 -57.5 60t-57.5 60l-501 525v77h1068v-84h-943l52 -54l52 -54l487 -511v-38l-487 -518q-35 -37 -69.5 -73.5t-68.5 -73.5h987v-84h-1112z" />
    <glyph glyph-name="eshlooprev" unicode="&#x1aa;" horiz-adv-x="869" 
d="M47 1266q0 81 39 147t105.5 105t146.5 39t145.5 -38.5t104.5 -104t41 -145.5v0v-1400q-1 -108 31 -155t97 -47q34 0 66 9v-83q-17 -6 -40 -8.5t-43 -2.5q-210 0 -210 287v1179q-38 -34 -87.5 -53.5t-104.5 -19.5q-80 0 -146.5 39.5t-105.5 105.5t-39 146zM338 1067
q83 1 140 57t56 143q0 88 -57 144t-139 56t-140 -56t-58 -144q0 -87 58 -143.5t140 -56.5z" />
    <glyph glyph-name="uni01AB" unicode="&#x1ab;" horiz-adv-x="527" 
d="M192 -417v80h83q70 0 100 31.5t30 103.5v202h-5q-223 0 -223 213v764h-172v79h172v288h87v-288h226v-79h-226v-758q0 -73 33.5 -106.5t108.5 -33.5h84v-281q0 -215 -217 -215h-81z" />
    <glyph glyph-name="uni01AC" unicode="&#x1ac;" horiz-adv-x="1189" 
d="M80 1095v170q0 225 225 225h827v-84h-476v-1406h-91v1406h-257q-142 0 -142 -143v-168h-86z" />
    <glyph glyph-name="uni01AD" unicode="&#x1ad;" horiz-adv-x="517" 
d="M479 1056v-79h-226v-753q0 -75 34.5 -110t109.5 -35h82v-79h-87q-108 0 -167 56.5t-59 158.5v762h-161v79h161v219q0 215 218 215h82v-80h-82q-69 0 -100 -31t-31 -104v-219h226z" />
    <glyph glyph-name="Trthook" unicode="&#x1ae;" horiz-adv-x="1221" 
d="M783 -418q-218 0 -218 215v1609h-508v84h1107v-84h-508v-1609q0 -73 30.5 -104t99.5 -31h81v-80h-84z" />
    <glyph glyph-name="Uhorn" unicode="&#x1af;" horiz-adv-x="1381" 
d="M691 -19q-160 0 -284.5 69t-195.5 188t-71 271v981h91v-977q0 -128 58.5 -228.5t162.5 -158.5t239 -58t238.5 58t162.5 158.5t59 228.5v977h130q58 0 58 57v183h87v-179q0 -138 -139 -138h-46v-904q0 -152 -70.5 -271.5t-195 -188t-284.5 -68.5z" />
    <glyph glyph-name="uhorn" unicode="&#x1b0;" horiz-adv-x="1173" 
d="M521 -17q-112 0 -200 47.5t-139 136t-51 212.5v677h88v-673q0 -148 85.5 -233t226.5 -85q95 0 171 39.5t120.5 113t44.5 173.5v665h123q63 0 63 63v177h84v-172q0 -139 -139 -139h-44v-985h-86v185q-50 -102 -143 -152t-204 -50z" />
    <glyph glyph-name="Upsilon2" unicode="&#x1b1;" horiz-adv-x="1429" 
d="M89 720q0 227 96 397.5t289 276.5v11h-385v85h488v-113q-111 -56 -202 -146t-144.5 -217t-53.5 -293q0 -183 68 -331.5t189.5 -235.5t280.5 -87t280 87.5t188.5 235.5t67.5 331q1 166 -52.5 293t-144.5 217t-202 146v113h490v-85h-385v-11q193 -105 288.5 -275.5
t96.5 -398.5q0 -215 -81.5 -382t-223 -262.5t-322.5 -95.5t-322.5 95.5t-223 263t-80.5 381.5z" />
    <glyph glyph-name="Vcursive" unicode="&#x1b2;" horiz-adv-x="1135" 
d="M562 -23q-146 1 -257.5 57.5t-174 167t-62.5 271.5v1017h99v-1017q1 -203 108 -305.5t287 -102.5q184 0 294.5 104t110.5 304v755q0 104 -40.5 149t-125.5 45q-42 0 -78 -11v84q47 15 99 15q116 0 180.5 -71.5t64.5 -210.5v-755q0 -159 -65.5 -270t-179.5 -168t-260 -58z
" />
    <glyph glyph-name="uni01B3" unicode="&#x1b3;" horiz-adv-x="1225" 
d="M-17 1490h107l469 -719h10l416 632q37 57 90 82.5t107.5 23t94.5 -31.5l-38 -69q-41 23 -91.5 12.5t-90.5 -69.5l-447 -676v-675h-91v675z" />
    <glyph glyph-name="uni01B4" unicode="&#x1b4;" horiz-adv-x="1308" 
d="M888 1056l89 219q28 72 55 119.5t67 71.5t110 24h72v-80h-71q-60 0 -86 -31.5t-62 -122.5l-81 -200l-509 -1262q-47 -118 -103.5 -165t-153.5 -47h-94v81h94q69 0 104.5 32t74.5 128l70 175l-431 1058h94l276 -683q27 -68 53.5 -136t53.5 -136q26 68 52.5 136t53.5 136z
" />
    <glyph glyph-name="Zbar" unicode="&#x1b5;" horiz-adv-x="1231" 
d="M69 0v87l818 1102q40 54 81 108.5t82 108.5h-943v84h1046v-87l-814 -1097q-41 -56 -82.5 -111.5t-83.5 -110.5h988v-84h-1092zM239 702v84h745v-84h-745z" />
    <glyph glyph-name="zbar" unicode="&#x1b6;" horiz-adv-x="936" 
d="M84 0v74l656 899v2h-649v81h756v-77l-653 -896v-2h658v-81h-768zM236 499v78h476v-78h-476z" />
    <glyph glyph-name="uni01B7" unicode="&#x1b7;" horiz-adv-x="1301" 
d="M57 69h92q2 -124 67 -220t173.5 -151t241.5 -55q143 0 253 67t172 182.5t62 262.5q0 158 -74.5 278t-206.5 190t-304 76h-83v80l584 624h-897v87h1026v-69l-592 -636v-8q189 -8 332.5 -90t224 -219t80.5 -312q0 -160 -69.5 -296t-199 -218.5t-309.5 -82.5q-158 0 -287 65
t-206.5 180t-79.5 265z" />
    <glyph glyph-name="uni01B8" unicode="&#x1b8;" horiz-adv-x="1301" 
d="M1245 69q-3 -150 -80.5 -265t-206.5 -180t-287 -65q-180 0 -309.5 82.5t-199 218.5t-69.5 296q0 175 81 312t224.5 219t332.5 90v8l-593 636v69h1027v-87h-898l584 -624v-80h-82q-172 -6 -304 -76t-207 -190t-75 -278q0 -147 62 -262.5t172 -182.5t253 -67
q134 0 242.5 55t173 151t67.5 220h92z" />
    <glyph glyph-name="uni01B9" unicode="&#x1b9;" horiz-adv-x="1089" 
d="M539 -414q-141 0 -245.5 59t-162.5 158.5t-58 222.5q0 130 63.5 227.5t176.5 152t260 56.5v1l-456 524v69h818v-84h-695v-1l441 -507v-79h-82q-196 0 -316.5 -94.5t-120.5 -264.5q0 -98 45.5 -179t130.5 -129.5t203 -48.5q110 0 195.5 43.5t134 120.5t48.5 178h91
q0 -124 -61 -220t-167.5 -150.5t-242.5 -54.5z" />
    <glyph glyph-name="uni01BA" unicode="&#x1ba;" horiz-adv-x="931" 
d="M65 1057l844 -1v-76l-483 -376q347 -17 347 -238q0 -111 -88 -172t-281 -108q-157 -38 -217 -95t-60 -143q0 -102 72.5 -154.5t206.5 -52.5q129 0 219 69t100 199h98q-7 -101 -58.5 -180.5t-142.5 -125.5t-214 -46q-176 0 -277 77t-101 218q0 135 97.5 207t257.5 111
q157 38 223.5 77.5t66.5 117.5q0 82 -73 119.5t-244 37.5h-82v74l494 376h-705v85z" />
    <glyph glyph-name="uni01BB" unicode="&#x1bb;" horiz-adv-x="1115" 
d="M90 0v81l525 511q109 106 175.5 186t97 150.5t30.5 148.5q0 103 -46 182t-128.5 123.5t-192.5 44.5q-113 0 -196.5 -46.5t-130 -129t-46.5 -190.5h-86q0 131 58 232.5t161 159.5t239 58q134 0 236.5 -55.5t160.5 -153t58 -222.5q0 -90 -33.5 -171t-105 -170t-187.5 -202
l-464 -452v-1h810v-84h-935zM257 547v84h745v-84h-745z" />
    <glyph glyph-name="uni01BC" unicode="&#x1bc;" horiz-adv-x="1139" 
d="M577 -20q-133 0 -235.5 53.5t-161 146.5t-60.5 212h91q4 -143 104 -235.5t262 -92.5q119 0 209 53.5t141 145.5t51 208q0 117 -49.5 208.5t-136.5 143t-201 51.5q-123 0 -222.5 -53.5t-137.5 -148.5h-85l56 734h-145v84h965v-84h-731l-50 -601h1q53 63 143.5 108.5
t212.5 45.5q137 0 242.5 -63t165.5 -173t60 -252t-62 -253t-172.5 -174.5t-254.5 -63.5z" />
    <glyph glyph-name="uni01BD" unicode="&#x1bd;" horiz-adv-x="817" 
d="M206 507l-88 7l52 480h-165v88h768v-88h-508l-40 -361q39 40 104 66t134 26q158 3 254 -97t96 -268q1 -169 -98 -273.5t-290 -104.5q-96 0 -178 37.5t-132 107.5t-50 167l95 13q-3 -107 70.5 -172.5t194.5 -65.5q140 0 216.5 77.5t76.5 208.5q0 128 -71 206.5t-194 79.5
q-85 0 -149.5 -37.5t-97.5 -96.5z" />
    <glyph glyph-name="glottalstopbarinv" unicode="&#x1be;" horiz-adv-x="950" 
d="M785 287q0 68 -38 109.5t-94 73t-112.5 70.5t-94.5 100.5t-38 164.5v188h-230v81h230v263h98v-263h231v-81h-231v-186q0 -74 27.5 -121.5t70.5 -80t91 -59t91 -58t70 -77.5t27 -118q0 -93 -51 -163t-142 -109.5t-210 -39.5q-130 0 -221 50.5t-139 131.5t-48 173h97
q2 -117 88 -194t224 -77q137 0 220.5 61.5t83.5 160.5z" />
    <glyph glyph-name="uni01BF" unicode="&#x1bf;" horiz-adv-x="1085" 
d="M200 951q63 89 146.5 135.5t190.5 46.5q197 0 308 -139.5t111 -372.5v-47q0 -190 -82.5 -325.5t-250 -233t-422.5 -172.5v-259h-98v1534h87zM201 -73q224 69 369.5 155.5t216 205.5t70.5 285v49q0 190 -88 307.5t-252 117.5q-100 0 -178 -50t-138 -136v-934z" />
    <glyph glyph-name="pipe" unicode="&#x1c0;" horiz-adv-x="329" 
d="M208 1507v-1507h-85v1507h85z" />
    <glyph glyph-name="pipedbl" unicode="&#x1c1;" horiz-adv-x="578" 
d="M137 1507v-1507h-85v1507h85zM409 1507v-1507h-85v1507h85z" />
    <glyph glyph-name="pipedblbar" unicode="&#x1c2;" horiz-adv-x="350" 
d="M219 1507v-1507h-85v1507h85zM-115 994v80h582v-80h-582zM-115 479v80h582v-80h-582z" />
    <glyph glyph-name="exclam1" unicode="&#x1c3;" horiz-adv-x="417" 
d="M166 369l-4 1121h93l-5 -1121h-84zM208 -14q-32 0 -54.5 22.5t-22.5 55.5t22.5 55.5t54.5 22.5q33 0 55.5 -22.5t22.5 -55.5t-22.5 -55.5t-55.5 -22.5z" />
    <glyph glyph-name="Dzcaron_" unicode="&#x1c5;" horiz-adv-x="2296" 
d="M575 0h-414v1490h446q209 0 358.5 -88.5t229 -254.5t79.5 -398q0 -354 -183.5 -551.5t-515.5 -197.5zM252 84h319q299 0 455.5 177t156.5 488q0 308 -149.5 482.5t-430.5 174.5h-351v-1322zM1444 0v74l656 899v2h-649v81h756v-77l-653 -896v-2h658v-81h-768zM1637 1507
l191 -216l193 216h96v-1l-247 -273h-84l-245 273v1h96z" />
    <glyph glyph-name="uni01C6" unicode="&#x1c6;" horiz-adv-x="2067" 
d="M530 -17q-134 0 -238.5 67.5t-164 190.5t-59.5 287t60 286.5t164.5 190.5t237.5 68q135 0 240 -73t141 -187h2v677h87v-1490h-86v240h-1q-41 -114 -144.5 -185.5t-238.5 -71.5zM539 64q171 0 274.5 125.5t103.5 338.5t-103.5 338.5t-274.5 125.5q-110 0 -196.5 -55.5
t-136.5 -159.5t-50 -249t50 -249t136.5 -159.5t196.5 -55.5zM1215 0v74l656 899v2h-649v81h756v-77l-653 -896v-2h658v-81h-768zM1408 1507l191 -216l193 216h96v-1l-247 -273h-84l-245 273v1h96z" />
    <glyph glyph-name="uni01C7" unicode="&#x1c7;" horiz-adv-x="2116" 
d="M161 0v1490h92v-1406h752v-84h-844zM1567 -20q-185 0 -296.5 113t-111.5 312v72h91v-72q0 -160 85 -250.5t232 -90.5t232.5 90.5t85.5 250.5v1085h90v-1085q0 -199 -111 -312t-297 -113z" />
    <glyph glyph-name="uni01C8" unicode="&#x1c8;" horiz-adv-x="1415" 
d="M161 0v1490h92v-1406h752v-84h-844zM1196 1056h88v-1213q0 -118 -75.5 -189.5t-188.5 -71.5h-36v81h31q77 0 129 48.5t52 139.5v1205zM1240 1308q-29 0 -49.5 20.5t-20.5 49.5t20.5 49.5t49.5 20.5t49.5 -20.5t20.5 -49.5t-20.5 -49.5t-49.5 -20.5z" />
    <glyph glyph-name="uni01C9" unicode="&#x1c9;" horiz-adv-x="704" 
d="M219 1490v-1490h-88v1490h88zM485 1056h88v-1213q0 -118 -75.5 -189.5t-188.5 -71.5h-36v81h31q77 0 129 48.5t52 139.5v1205zM529 1308q-29 0 -49.5 20.5t-20.5 49.5t20.5 49.5t49.5 20.5t49.5 -20.5t20.5 -49.5t-20.5 -49.5t-49.5 -20.5z" />
    <glyph glyph-name="uni01CA" unicode="&#x1ca;" horiz-adv-x="2507" 
d="M161 0v1490h99l753 -1077q43 -62 92.5 -135.5t98.5 -147.5q-1 72 -2 149t-1 136v1075h90v-1490h-99l-729 1040q-45 64 -99.5 145.5t-115.5 174.5q1 -96 2.5 -176t1.5 -143v-1041h-91zM1959 -20q-185 0 -296.5 113t-111.5 312v72h91v-72q0 -160 85 -250.5t232 -90.5
t232.5 90.5t85.5 250.5v1085h90v-1085q0 -199 -111 -312t-297 -113z" />
    <glyph glyph-name="uni01CB" unicode="&#x1cb;" horiz-adv-x="1807" 
d="M161 0v1490h99l753 -1077q43 -62 92.5 -135.5t98.5 -147.5q-1 72 -2 149t-1 136v1075h90v-1490h-99l-729 1040q-45 64 -99.5 145.5t-115.5 174.5q1 -96 2.5 -176t1.5 -143v-1041h-91zM1588 1056h88v-1213q0 -118 -75.5 -189.5t-188.5 -71.5h-36v81h31q77 0 129 48.5
t52 139.5v1205zM1632 1308q-29 0 -49.5 20.5t-20.5 49.5t20.5 49.5t49.5 20.5t49.5 -20.5t20.5 -49.5t-20.5 -49.5t-49.5 -20.5z" />
    <glyph glyph-name="uni01CC" unicode="&#x1cc;" horiz-adv-x="1439" 
d="M219 665v-665h-88v1056h86v-185q51 102 143.5 152t204.5 50t200 -47.5t138.5 -136t50.5 -212.5v-677h-87v673q0 148 -86 233t-227 85q-95 0 -171 -39.5t-120 -112.5t-44 -174zM1220 1056h88v-1213q0 -118 -75.5 -189.5t-188.5 -71.5h-36v81h31q77 0 129 48.5t52 139.5
v1205zM1264 1308q-29 0 -49.5 20.5t-20.5 49.5t20.5 49.5t49.5 20.5t49.5 -20.5t20.5 -49.5t-20.5 -49.5t-49.5 -20.5z" />
    <glyph glyph-name="uni01CD" unicode="&#x1cd;" horiz-adv-x="1258" 
d="M20 0l555 1490h110l553 -1490h-97l-171 467h-683l-172 -467h-95zM318 551h621l-190 518q-28 75 -57 156.5t-63 181.5q-34 -100 -63 -181.5t-57 -156.5zM438 1941l191 -216l193 216h96v-1l-247 -273h-84l-245 273v1h96z" />
    <glyph glyph-name="uni01CE" unicode="&#x1ce;" horiz-adv-x="1023" 
d="M435 -16q-97 0 -179 33t-132.5 100t-50.5 170q0 146 110 210t322 92q145 19 222.5 40t77.5 85v22q0 110 -86 183.5t-218 73.5q-88 0 -158.5 -33.5t-112 -90.5t-42.5 -129h-89q2 95 55 170.5t143 119t204 43.5q113 0 201 -43.5t138.5 -119.5t50.5 -174v-736h-86v195h-3
q-40 -90 -133.5 -150.5t-233.5 -60.5zM443 65q159 0 260.5 95t101.5 265v164q-36 -31 -111 -47t-191 -33q-174 -24 -257.5 -74t-83.5 -152q0 -106 81 -162t200 -56zM307 1507l191 -216l193 216h96v-1l-247 -273h-84l-245 273v1h96z" />
    <glyph glyph-name="uni01CF" unicode="&#x1cf;" horiz-adv-x="413" 
d="M252 1490v-1490h-91v1490h91zM15 1941l191 -216l193 216h96v-1l-247 -273h-84l-245 273v1h96z" />
    <glyph glyph-name="uni01D0" unicode="&#x1d0;" horiz-adv-x="350" 
d="M131 0v1056h88v-1056h-88zM-17 1507l191 -216l193 216h96v-1l-247 -273h-84l-245 273v1h96z" />
    <glyph glyph-name="uni01D1" unicode="&#x1d1;" horiz-adv-x="1446" 
d="M724 -19q-189 0 -333 97t-224.5 269t-80.5 397q0 227 81 399t224.5 269t332.5 97q188 0 331 -97t224 -269t81 -399q0 -226 -81 -398t-224 -268.5t-331 -96.5zM724 68q157 0 280.5 83t194 234.5t70.5 358.5t-70.5 359.5t-194 235.5t-280.5 83q-158 0 -281.5 -82.5
t-194.5 -235t-71 -360.5q0 -206 70 -357.5t193.5 -235t283.5 -83.5zM532 1941l191 -216l193 216h96v-1l-247 -273h-84l-245 273v1h96z" />
    <glyph glyph-name="uni01D2" unicode="&#x1d2;" horiz-adv-x="1080" 
d="M541 -19q-140 0 -246.5 70.5t-166.5 194t-60 281.5q0 159 60 282.5t166.5 194.5t246.5 71q139 0 245.5 -71t166 -194.5t59.5 -282.5q0 -158 -59.5 -281.5t-166 -194t-245.5 -70.5zM541 63q114 0 200.5 59t134.5 163.5t48 241.5q0 138 -48 243t-134.5 164t-200.5 59
q-115 0 -201.5 -59t-135 -164t-48.5 -243q0 -137 48 -241.5t135 -163.5t202 -59zM349 1507l191 -216l193 216h96v-1l-247 -273h-84l-245 273v1h96z" />
    <glyph glyph-name="uni01D3" unicode="&#x1d3;" horiz-adv-x="1381" 
d="M691 -19q-160 0 -284.5 69t-195.5 188t-71 271v981h91v-977q0 -128 58.5 -228.5t162.5 -158.5t239 -58t238.5 58t162.5 158.5t59 228.5v977h90v-981q0 -152 -70.5 -271.5t-195 -188t-284.5 -68.5zM499 1941l191 -216l193 216h96v-1l-247 -273h-84l-245 273v1h96z" />
    <glyph glyph-name="uni01D4" unicode="&#x1d4;" horiz-adv-x="1085" 
d="M521 -17q-112 0 -200 47.5t-139 136t-51 212.5v677h88v-673q0 -148 85.5 -233t226.5 -85q95 0 171 39.5t120.5 113t44.5 173.5v665h87v-1056h-86v185q-50 -102 -143 -152t-204 -50zM351 1507l191 -216l193 216h96v-1l-247 -273h-84l-245 273v1h96z" />
    <glyph glyph-name="uni01D5" unicode="&#x1d5;" horiz-adv-x="1381" 
d="M691 -19q-160 0 -284.5 69t-195.5 188t-71 271v981h91v-977q0 -128 58.5 -228.5t162.5 -158.5t239 -58t238.5 58t162.5 158.5t59 228.5v977h90v-981q0 -152 -70.5 -271.5t-195 -188t-284.5 -68.5zM937 2068v-73h-493v73h493zM892 1692q-29 0 -49.5 20.5t-20.5 49.5
t20.5 49.5t49.5 20.5t49.5 -20.5t20.5 -49.5t-20.5 -49.5t-49.5 -20.5zM483 1692q-29 0 -49.5 20.5t-20.5 49.5t20.5 49.5t49.5 20.5t49.5 -20.5t20.5 -49.5t-20.5 -49.5t-49.5 -20.5z" />
    <glyph glyph-name="uni01D6" unicode="&#x1d6;" horiz-adv-x="1085" 
d="M521 -17q-112 0 -200 47.5t-139 136t-51 212.5v677h88v-673q0 -148 85.5 -233t226.5 -85q95 0 171 39.5t120.5 113t44.5 173.5v665h87v-1056h-86v185q-50 -102 -143 -152t-204 -50zM789 1634v-73h-493v73h493zM744 1258q-29 0 -49.5 20.5t-20.5 49.5t20.5 49.5t49.5 20.5
t49.5 -20.5t20.5 -49.5t-20.5 -49.5t-49.5 -20.5zM335 1258q-29 0 -49.5 20.5t-20.5 49.5t20.5 49.5t49.5 20.5t49.5 -20.5t20.5 -49.5t-20.5 -49.5t-49.5 -20.5z" />
    <glyph glyph-name="uni01D7" unicode="&#x1d7;" horiz-adv-x="1381" 
d="M691 -19q-160 0 -284.5 69t-195.5 188t-71 271v981h91v-977q0 -128 58.5 -228.5t162.5 -158.5t239 -58t238.5 58t162.5 158.5t59 228.5v977h90v-981q0 -152 -70.5 -271.5t-195 -188t-284.5 -68.5zM647 1954l176 274h103l-198 -274h-81zM892 1692q-29 0 -49.5 20.5
t-20.5 49.5t20.5 49.5t49.5 20.5t49.5 -20.5t20.5 -49.5t-20.5 -49.5t-49.5 -20.5zM483 1692q-29 0 -49.5 20.5t-20.5 49.5t20.5 49.5t49.5 20.5t49.5 -20.5t20.5 -49.5t-20.5 -49.5t-49.5 -20.5z" />
    <glyph glyph-name="uni01D8" unicode="&#x1d8;" horiz-adv-x="1085" 
d="M521 -17q-112 0 -200 47.5t-139 136t-51 212.5v677h88v-673q0 -148 85.5 -233t226.5 -85q95 0 171 39.5t120.5 113t44.5 173.5v665h87v-1056h-86v185q-50 -102 -143 -152t-204 -50zM499 1520l176 274h103l-198 -274h-81zM744 1258q-29 0 -49.5 20.5t-20.5 49.5t20.5 49.5
t49.5 20.5t49.5 -20.5t20.5 -49.5t-20.5 -49.5t-49.5 -20.5zM335 1258q-29 0 -49.5 20.5t-20.5 49.5t20.5 49.5t49.5 20.5t49.5 -20.5t20.5 -49.5t-20.5 -49.5t-49.5 -20.5z" />
    <glyph glyph-name="uni01D9" unicode="&#x1d9;" horiz-adv-x="1381" 
d="M691 -19q-160 0 -284.5 69t-195.5 188t-71 271v981h91v-977q0 -128 58.5 -228.5t162.5 -158.5t239 -58t238.5 58t162.5 158.5t59 228.5v977h90v-981q0 -152 -70.5 -271.5t-195 -188t-284.5 -68.5zM498 2220l192 -216l192 216h96v-1l-246 -273h-85l-245 273v1h96z
M892 1692q-29 0 -49.5 20.5t-20.5 49.5t20.5 49.5t49.5 20.5t49.5 -20.5t20.5 -49.5t-20.5 -49.5t-49.5 -20.5zM483 1692q-29 0 -49.5 20.5t-20.5 49.5t20.5 49.5t49.5 20.5t49.5 -20.5t20.5 -49.5t-20.5 -49.5t-49.5 -20.5z" />
    <glyph glyph-name="uni01DA" unicode="&#x1da;" horiz-adv-x="1085" 
d="M521 -17q-112 0 -200 47.5t-139 136t-51 212.5v677h88v-673q0 -148 85.5 -233t226.5 -85q95 0 171 39.5t120.5 113t44.5 173.5v665h87v-1056h-86v185q-50 -102 -143 -152t-204 -50zM350 1786l192 -216l192 216h96v-1l-246 -273h-85l-245 273v1h96zM744 1258
q-29 0 -49.5 20.5t-20.5 49.5t20.5 49.5t49.5 20.5t49.5 -20.5t20.5 -49.5t-20.5 -49.5t-49.5 -20.5zM335 1258q-29 0 -49.5 20.5t-20.5 49.5t20.5 49.5t49.5 20.5t49.5 -20.5t20.5 -49.5t-20.5 -49.5t-49.5 -20.5z" />
    <glyph glyph-name="uni01DB" unicode="&#x1db;" horiz-adv-x="1381" 
d="M691 -19q-160 0 -284.5 69t-195.5 188t-71 271v981h91v-977q0 -128 58.5 -228.5t162.5 -158.5t239 -58t238.5 58t162.5 158.5t59 228.5v977h90v-981q0 -152 -70.5 -271.5t-195 -188t-284.5 -68.5zM641 1954l-198 274h103l176 -274h-81zM892 1692q-29 0 -49.5 20.5
t-20.5 49.5t20.5 49.5t49.5 20.5t49.5 -20.5t20.5 -49.5t-20.5 -49.5t-49.5 -20.5zM483 1692q-29 0 -49.5 20.5t-20.5 49.5t20.5 49.5t49.5 20.5t49.5 -20.5t20.5 -49.5t-20.5 -49.5t-49.5 -20.5z" />
    <glyph glyph-name="uni01DC" unicode="&#x1dc;" horiz-adv-x="1085" 
d="M521 -17q-112 0 -200 47.5t-139 136t-51 212.5v677h88v-673q0 -148 85.5 -233t226.5 -85q95 0 171 39.5t120.5 113t44.5 173.5v665h87v-1056h-86v185q-50 -102 -143 -152t-204 -50zM493 1520l-198 274h103l176 -274h-81zM744 1258q-29 0 -49.5 20.5t-20.5 49.5t20.5 49.5
t49.5 20.5t49.5 -20.5t20.5 -49.5t-20.5 -49.5t-49.5 -20.5zM335 1258q-29 0 -49.5 20.5t-20.5 49.5t20.5 49.5t49.5 20.5t49.5 -20.5t20.5 -49.5t-20.5 -49.5t-49.5 -20.5z" />
    <glyph glyph-name="eturn" unicode="&#x1dd;" horiz-adv-x="1065" 
d="M524 1075q143 0 249 -71t165 -194t59 -281q0 -159 -60 -282.5t-165.5 -194.5t-243.5 -71q-139 0 -243.5 69.5t-162.5 189.5t-58 273v31h846q-1 132 -49.5 233t-135 158.5t-201.5 57.5q-127 0 -224.5 -69t-128.5 -184h-89q23 101 87 176t156 117t199 42zM908 465h-756
q4 -119 53.5 -209.5t133 -141.5t189.5 -51t188.5 50.5t133 141t58.5 210.5z" />
    <glyph glyph-name="uni01DE" unicode="&#x1de;" horiz-adv-x="1258" 
d="M20 0l555 1490h110l553 -1490h-97l-171 467h-683l-172 -467h-95zM318 551h621l-190 518q-28 75 -57 156.5t-63 181.5q-34 -100 -63 -181.5t-57 -156.5zM877 2068v-73h-493v73h493zM832 1692q-29 0 -49.5 20.5t-20.5 49.5t20.5 49.5t49.5 20.5t49.5 -20.5t20.5 -49.5
t-20.5 -49.5t-49.5 -20.5zM423 1692q-29 0 -49.5 20.5t-20.5 49.5t20.5 49.5t49.5 20.5t49.5 -20.5t20.5 -49.5t-20.5 -49.5t-49.5 -20.5z" />
    <glyph glyph-name="uni01DF" unicode="&#x1df;" horiz-adv-x="1023" 
d="M435 -16q-97 0 -179 33t-132.5 100t-50.5 170q0 146 110 210t322 92q145 19 222.5 40t77.5 85v22q0 110 -86 183.5t-218 73.5q-88 0 -158.5 -33.5t-112 -90.5t-42.5 -129h-89q2 95 55 170.5t143 119t204 43.5q113 0 201 -43.5t138.5 -119.5t50.5 -174v-736h-86v195h-3
q-40 -90 -133.5 -150.5t-233.5 -60.5zM443 65q159 0 260.5 95t101.5 265v164q-36 -31 -111 -47t-191 -33q-174 -24 -257.5 -74t-83.5 -152q0 -106 81 -162t200 -56zM745 1634v-73h-493v73h493zM700 1258q-29 0 -49.5 20.5t-20.5 49.5t20.5 49.5t49.5 20.5t49.5 -20.5
t20.5 -49.5t-20.5 -49.5t-49.5 -20.5zM291 1258q-29 0 -49.5 20.5t-20.5 49.5t20.5 49.5t49.5 20.5t49.5 -20.5t20.5 -49.5t-20.5 -49.5t-49.5 -20.5z" />
    <glyph glyph-name="uni01E0" unicode="&#x1e0;" horiz-adv-x="1258" 
d="M20 0l555 1490h110l553 -1490h-97l-171 467h-683l-172 -467h-95zM318 551h621l-190 518q-28 75 -57 156.5t-63 181.5q-34 -100 -63 -181.5t-57 -156.5zM877 2068v-73h-494v73h494zM630 1692q-29 0 -49.5 20.5t-20.5 49.5t20.5 49.5t49.5 20.5t49.5 -20.5t20.5 -49.5
t-20.5 -49.5t-49.5 -20.5z" />
    <glyph glyph-name="uni01E1" unicode="&#x1e1;" horiz-adv-x="1023" 
d="M435 -16q-97 0 -179 33t-132.5 100t-50.5 170q0 146 110 210t322 92q145 19 222.5 40t77.5 85v22q0 110 -86 183.5t-218 73.5q-88 0 -158.5 -33.5t-112 -90.5t-42.5 -129h-89q2 95 55 170.5t143 119t204 43.5q113 0 201 -43.5t138.5 -119.5t50.5 -174v-736h-86v195h-3
q-40 -90 -133.5 -150.5t-233.5 -60.5zM443 65q159 0 260.5 95t101.5 265v164q-36 -31 -111 -47t-191 -33q-174 -24 -257.5 -74t-83.5 -152q0 -106 81 -162t200 -56zM746 1634v-73h-494v73h494zM499 1258q-29 0 -49.5 20.5t-20.5 49.5t20.5 49.5t49.5 20.5t49.5 -20.5
t20.5 -49.5t-20.5 -49.5t-49.5 -20.5z" />
    <glyph glyph-name="uni01E2" unicode="&#x1e2;" horiz-adv-x="1889" 
d="M20 0l732 1490h1049v-84h-760v-617h713v-84h-713v-621h775v-84h-866v485h-595l-237 -485h-98zM396 569h554v837h-144zM1489 1840v-77h-493v77h493z" />
    <glyph glyph-name="uni01E3" unicode="&#x1e3;" horiz-adv-x="1778" 
d="M432 -15q-154 0 -256.5 78t-102.5 229q0 107 63.5 173t170 96t237.5 30h239v145q0 110 -80.5 183.5t-211.5 73.5q-133 0 -217 -73t-86 -180h-89q2 95 52 170.5t138 119t202 43.5q143 0 237.5 -69t121.5 -182q59 116 162.5 184.5t237.5 68.5q139 0 243.5 -69.5
t162.5 -189.5t58 -273v-31h-846q1 -132 49.5 -233t135 -158.5t201.5 -57.5q127 0 224.5 69t128.5 184h89q-23 -101 -87 -176t-156 -117t-199 -42q-149 0 -259 79t-164 212q-26 -107 -88.5 -170t-144.5 -90t-166 -27zM869 591h757q-5 119 -54.5 209.5t-132.5 141.5t-189 51
t-189 -50.5t-133 -141t-59 -210.5zM783 512h-239q-382 0 -382 -221q0 -111 76.5 -168t193.5 -57q160 0 255.5 94.5t95.5 264.5v87zM1109 1406v-77h-493v77h493z" />
    <glyph glyph-name="Gbar" unicode="&#x1e4;" horiz-adv-x="1421" 
d="M728 -19q-192 0 -336.5 96.5t-225 268.5t-80.5 398q0 228 81 400t225 268.5t333 96.5q168 0 292 -72.5t199 -185t96 -232.5h-92q-20 101 -84.5 193t-168.5 151t-242 59q-164 0 -287.5 -85t-192 -237.5t-68.5 -355.5q0 -201 68 -353t192 -237.5t291 -85.5q148 0 261 66.5
t177 189t65 288.5h-474v84h564v-83q0 -188 -75.5 -330.5t-209 -222t-308.5 -79.5zM758 326v79h668v-79h-668z" />
    <glyph glyph-name="gbar" unicode="&#x1e5;" horiz-adv-x="1232" 
d="M548 -429q-184 0 -293 85.5t-134 231.5h89q25 -109 109.5 -172.5t228.5 -63.5q176 0 270.5 94t94.5 254v240h-1q-41 -114 -144 -185.5t-238 -71.5q-134 0 -238.5 67.5t-164 190.5t-59.5 287t60 286.5t164.5 190.5t237.5 68q135 0 240 -73t143 -190h1v246h86v-1056
q0 -207 -123.5 -318t-328.5 -111zM539 64q171 0 274.5 125.5t103.5 338.5t-103.5 338.5t-274.5 125.5q-110 0 -196.5 -55.5t-136.5 -159.5t-50 -249t50 -249t136.5 -159.5t196.5 -55.5zM719 501v78h476v-78h-476z" />
    <glyph glyph-name="Gcaron" unicode="&#x1e6;" horiz-adv-x="1421" 
d="M728 -19q-192 0 -336.5 96.5t-225 268.5t-80.5 398q0 228 81 400t225 268.5t333 96.5q168 0 292 -72.5t199 -185t96 -232.5h-92q-20 101 -84.5 193t-168.5 151t-242 59q-164 0 -287.5 -85t-192 -237.5t-68.5 -355.5q0 -201 68 -353t192 -237.5t291 -85.5q148 0 261 66.5
t177 189t65 288.5h-474v84h564v-83q0 -188 -75.5 -330.5t-209 -222t-308.5 -79.5zM522 1941l191 -216l193 216h96v-1l-247 -273h-84l-245 273v1h96z" />
    <glyph glyph-name="gcaron" unicode="&#x1e7;" horiz-adv-x="1131" 
d="M548 -429q-184 0 -293 85.5t-134 231.5h89q25 -109 109.5 -172.5t228.5 -63.5q176 0 270.5 94t94.5 254v240h-1q-41 -114 -144 -185.5t-238 -71.5q-134 0 -238.5 67.5t-164 190.5t-59.5 287t60 286.5t164.5 190.5t237.5 68q135 0 240 -73t143 -190h1v246h86v-1056
q0 -207 -123.5 -318t-328.5 -111zM539 64q171 0 274.5 125.5t103.5 338.5t-103.5 338.5t-274.5 125.5q-110 0 -196.5 -55.5t-136.5 -159.5t-50 -249t50 -249t136.5 -159.5t196.5 -55.5zM346 1507l191 -216l193 216h96v-1l-247 -273h-84l-245 273v1h96z" />
    <glyph glyph-name="uni01E8" unicode="&#x1e8;" horiz-adv-x="1179" 
d="M161 0v1490h91v-845q76 83 148 161.5t151 162.5l483 521h120l-602 -647l601 -843h-108l-556 780l-237 -256v-524h-91zM428 1941l191 -216l193 216h96v-1l-247 -273h-84l-245 273v1h96z" />
    <glyph glyph-name="uni01E9" unicode="&#x1e9;" horiz-adv-x="912" 
d="M131 0v1490h88v-942h4l518 508h117l-448 -440l498 -616h-112l-450 558l-127 -120v-438h-88zM-17 1941l191 -216l193 216h96v-1l-247 -273h-84l-245 273v1h96z" />
    <glyph glyph-name="uni01EA" unicode="&#x1ea;" horiz-adv-x="1446" 
d="M724 -19q-189 0 -333 97t-224.5 269t-80.5 397q0 227 81 399t224.5 269t332.5 97q188 0 331 -97t224 -269t81 -399q0 -226 -81 -398t-224 -268.5t-331 -96.5zM724 68q157 0 280.5 83t194 234.5t70.5 358.5t-70.5 359.5t-194 235.5t-280.5 83q-158 0 -281.5 -82.5
t-194.5 -235t-71 -360.5q0 -206 70 -357.5t193.5 -235t283.5 -83.5zM823 -418q-92 0 -145 44.5t-53 126.5q0 70 37.5 119.5t99 89.5t134.5 82t146.5 97t135 134t98.5 193t37 276h47q0 -192 -46.5 -323.5t-120 -218.5t-156 -144.5t-156 -101t-120 -88t-46.5 -106.5
q0 -101 126 -101h44v-79h-62z" />
    <glyph glyph-name="uni01EB" unicode="&#x1eb;" horiz-adv-x="1080" 
d="M541 -19q-140 0 -246.5 70.5t-166.5 194t-60 281.5q0 159 60 282.5t166.5 194.5t246.5 71q139 0 245.5 -71t166 -194.5t59.5 -282.5q0 -158 -59.5 -281.5t-166 -194t-245.5 -70.5zM541 63q114 0 200.5 59t134.5 163.5t48 241.5q0 138 -48 243t-134.5 164t-200.5 59
q-115 0 -201.5 -59t-135 -164t-48.5 -243q0 -137 48 -241.5t135 -163.5t202 -59zM616 -419q-103 0 -149 45t-46 119q0 82 39 136.5t100.5 96t131 84.5t131 101t100.5 145t39 219h50q0 -140 -36.5 -234.5t-94 -157t-121.5 -106.5t-121.5 -81.5t-94 -82t-36.5 -109.5
q0 -41 25.5 -68.5t100.5 -27.5h58v-79h-76z" />
    <glyph glyph-name="uni01EC" unicode="&#x1ec;" horiz-adv-x="1446" 
d="M724 -19q-189 0 -333 97t-224.5 269t-80.5 397q0 227 81 399t224.5 269t332.5 97q188 0 331 -97t224 -269t81 -399q0 -226 -81 -398t-224 -268.5t-331 -96.5zM724 68q157 0 280.5 83t194 234.5t70.5 358.5t-70.5 359.5t-194 235.5t-280.5 83q-158 0 -281.5 -82.5
t-194.5 -235t-71 -360.5q0 -206 70 -357.5t193.5 -235t283.5 -83.5zM823 -418q-92 0 -145 44.5t-53 126.5q0 70 37.5 119.5t99 89.5t134.5 82t146.5 97t135 134t98.5 193t37 276h47q0 -192 -46.5 -323.5t-120 -218.5t-156 -144.5t-156 -101t-120 -88t-46.5 -106.5
q0 -101 126 -101h44v-79h-62zM970 1840v-77h-493v77h493z" />
    <glyph glyph-name="uni01ED" unicode="&#x1ed;" horiz-adv-x="1080" 
d="M541 -19q-140 0 -246.5 70.5t-166.5 194t-60 281.5q0 159 60 282.5t166.5 194.5t246.5 71q139 0 245.5 -71t166 -194.5t59.5 -282.5q0 -158 -59.5 -281.5t-166 -194t-245.5 -70.5zM541 63q114 0 200.5 59t134.5 163.5t48 241.5q0 138 -48 243t-134.5 164t-200.5 59
q-115 0 -201.5 -59t-135 -164t-48.5 -243q0 -137 48 -241.5t135 -163.5t202 -59zM616 -419q-103 0 -149 45t-46 119q0 82 39 136.5t100.5 96t131 84.5t131 101t100.5 145t39 219h50q0 -140 -36.5 -234.5t-94 -157t-121.5 -106.5t-121.5 -81.5t-94 -82t-36.5 -109.5
q0 -41 25.5 -68.5t100.5 -27.5h58v-79h-76zM787 1406v-77h-493v77h493z" />
    <glyph glyph-name="uni01EE" unicode="&#x1ee;" horiz-adv-x="1301" 
d="M57 69h92q2 -124 67 -220t173.5 -151t241.5 -55q143 0 253 67t172 182.5t62 262.5q0 158 -74.5 278t-206.5 190t-304 76h-83v80l584 624h-897v87h1026v-69l-592 -636v-8q189 -8 332.5 -90t224 -219t80.5 -312q0 -160 -69.5 -296t-199 -218.5t-309.5 -82.5q-158 0 -287 65
t-206.5 180t-79.5 265zM454 1941l191 -216l193 216h96v-1l-247 -273h-84l-245 273v1h96z" />
    <glyph glyph-name="uni01EF" unicode="&#x1ef;" horiz-adv-x="1124" 
d="M569 -412q-144 0 -254.5 54.5t-173 150t-62.5 218.5h90q0 -101 50.5 -177.5t140 -119t207.5 -42.5q117 0 206 47t139 131t50 194q0 172 -125.5 270.5t-342.5 98.5h-101v79l484 520v1h-722v84h844v-79l-494 -532q257 -1 401.5 -121.5t144.5 -320.5q0 -134 -61.5 -236.5
t-170.5 -161t-250 -58.5zM370 1548l191 -216l193 216h96v-1l-247 -273h-84l-245 273v1h96z" />
    <glyph glyph-name="uni01F0" unicode="&#x1f0;" horiz-adv-x="354" 
d="M135 1056h88v-1213q0 -118 -75.5 -189.5t-188.5 -71.5h-36v81h31q77 0 129 48.5t52 139.5v1205zM-13 1507l191 -216l193 216h96v-1l-247 -273h-84l-245 273v1h96z" />
    <glyph glyph-name="uni01F1" unicode="&#x1f1;" horiz-adv-x="2591" 
d="M575 0h-414v1490h446q209 0 358.5 -88.5t229 -254.5t79.5 -398q0 -354 -183.5 -551.5t-515.5 -197.5zM252 84h319q299 0 455.5 177t156.5 488q0 308 -149.5 482.5t-430.5 174.5h-351v-1322zM1429 0v87l818 1102q40 54 81 108.5t82 108.5h-943v84h1046v-87l-814 -1097
q-41 -56 -82.5 -111.5t-83.5 -110.5h988v-84h-1092z" />
    <glyph glyph-name="uni01F2" unicode="&#x1f2;" horiz-adv-x="2296" 
d="M575 0h-414v1490h446q209 0 358.5 -88.5t229 -254.5t79.5 -398q0 -354 -183.5 -551.5t-515.5 -197.5zM252 84h319q299 0 455.5 177t156.5 488q0 308 -149.5 482.5t-430.5 174.5h-351v-1322zM1444 0v74l656 899v2h-649v81h756v-77l-653 -896v-2h658v-81h-768z" />
    <glyph glyph-name="uni01F3" unicode="&#x1f3;" horiz-adv-x="2067" 
d="M530 -17q-134 0 -238.5 67.5t-164 190.5t-59.5 287t60 286.5t164.5 190.5t237.5 68q135 0 240 -73t141 -187h2v677h87v-1490h-86v240h-1q-41 -114 -144.5 -185.5t-238.5 -71.5zM539 64q171 0 274.5 125.5t103.5 338.5t-103.5 338.5t-274.5 125.5q-110 0 -196.5 -55.5
t-136.5 -159.5t-50 -249t50 -249t136.5 -159.5t196.5 -55.5zM1215 0v74l656 899v2h-649v81h756v-77l-653 -896v-2h658v-81h-768z" />
    <glyph glyph-name="uni01F4" unicode="&#x1f4;" horiz-adv-x="1421" 
d="M728 -19q-192 0 -336.5 96.5t-225 268.5t-80.5 398q0 228 81 400t225 268.5t333 96.5q168 0 292 -72.5t199 -185t96 -232.5h-92q-20 101 -84.5 193t-168.5 151t-242 59q-164 0 -287.5 -85t-192 -237.5t-68.5 -355.5q0 -201 68 -353t192 -237.5t291 -85.5q148 0 261 66.5
t177 189t65 288.5h-474v84h564v-83q0 -188 -75.5 -330.5t-209 -222t-308.5 -79.5zM673 1626l126 298h99l-149 -298h-76z" />
    <glyph glyph-name="uni01F5" unicode="&#x1f5;" horiz-adv-x="1131" 
d="M548 -429q-184 0 -293 85.5t-134 231.5h89q25 -109 109.5 -172.5t228.5 -63.5q176 0 270.5 94t94.5 254v240h-1q-41 -114 -144 -185.5t-238 -71.5q-134 0 -238.5 67.5t-164 190.5t-59.5 287t60 286.5t164.5 190.5t237.5 68q135 0 240 -73t143 -190h1v246h86v-1056
q0 -207 -123.5 -318t-328.5 -111zM539 64q171 0 274.5 125.5t103.5 338.5t-103.5 338.5t-274.5 125.5q-110 0 -196.5 -55.5t-136.5 -159.5t-50 -249t50 -249t136.5 -159.5t196.5 -55.5zM497 1192l126 298h99l-149 -298h-76z" />
    <glyph glyph-name="uni01F6" unicode="&#x1f6;" horiz-adv-x="2105" 
d="M1561 -17q-121 0 -214 49t-145.5 138t-52.5 209v341h-897v-720h-91v1490h91v-686h897v686h90v-1109q0 -145 89 -230.5t233 -85.5t234.5 85.5t90.5 230.5v675h87v-677q0 -120 -52.5 -209t-145.5 -138t-214 -49z" />
    <glyph glyph-name="uni01F7" unicode="&#x1f7;" horiz-adv-x="977" 
d="M122 1490v-51q128 71 305 71q254 0 390.5 -155t136.5 -479v-28q0 -254 -101 -455t-287.5 -337t-443.5 -195v-279h-100v1908h100zM122 -51q243 62 405.5 190.5t244 309t81.5 398.5v33q0 284 -107.5 413.5t-318.5 129.5q-105 0 -179.5 -34t-125.5 -95v-1345z" />
    <glyph glyph-name="uni01F8" unicode="&#x1f8;" horiz-adv-x="1453" 
d="M161 0v1490h99l753 -1077q43 -62 92.5 -135.5t98.5 -147.5q-1 72 -2 149t-1 136v1075h90v-1490h-99l-729 1040q-45 64 -99.5 145.5t-115.5 174.5q1 -96 2.5 -176t1.5 -143v-1041h-91zM693 1626l-152 298h103l126 -298h-77z" />
    <glyph glyph-name="uni01F9" unicode="&#x1f9;" horiz-adv-x="1085" 
d="M219 665v-665h-88v1056h86v-185q51 102 143.5 152t204.5 50t200 -47.5t138.5 -136t50.5 -212.5v-677h-87v673q0 148 -86 233t-227 85q-95 0 -171 -39.5t-120 -112.5t-44 -174zM510 1192l-152 298h103l126 -298h-77z" />
    <glyph glyph-name="Aringacute" unicode="&#x1fa;" horiz-adv-x="1258" 
d="M20 0l555 1490h110l553 -1490h-97l-171 467h-683l-172 -467h-95zM318 551h621l-190 518q-28 75 -57 156.5t-63 181.5q-34 -100 -63 -181.5t-57 -156.5zM630 1634q-76 0 -130.5 52.5t-54.5 125.5q0 74 54.5 126t130.5 52q77 0 131 -52t54 -126q0 -73 -54 -125.5
t-131 -52.5zM630 1705q46 0 78.5 31t32.5 76t-32.5 76t-78.5 31t-78.5 -31t-32.5 -76t32.5 -76t78.5 -31zM594 2052l126 154h99l-148 -154h-77z" />
    <glyph glyph-name="aringacute" unicode="&#x1fb;" horiz-adv-x="1023" 
d="M435 -16q-97 0 -179 33t-132.5 100t-50.5 170q0 146 110 210t322 92q145 19 222.5 40t77.5 85v22q0 110 -86 183.5t-218 73.5q-88 0 -158.5 -33.5t-112 -90.5t-42.5 -129h-89q2 95 55 170.5t143 119t204 43.5q113 0 201 -43.5t138.5 -119.5t50.5 -174v-736h-86v195h-3
q-40 -90 -133.5 -150.5t-233.5 -60.5zM443 65q159 0 260.5 95t101.5 265v164q-36 -31 -111 -47t-191 -33q-174 -24 -257.5 -74t-83.5 -152q0 -106 81 -162t200 -56zM499 1200q-76 0 -130.5 52.5t-54.5 125.5q0 74 54.5 126t130.5 52q77 0 131 -52t54 -126q0 -73 -54 -125.5
t-131 -52.5zM499 1271q46 0 78.5 31t32.5 76t-32.5 76t-78.5 31t-78.5 -31t-32.5 -76t32.5 -76t78.5 -31zM460 1637l126 153h100l-148 -153h-78z" />
    <glyph glyph-name="AEacute" unicode="&#x1fc;" horiz-adv-x="1889" 
d="M20 0l732 1490h1049v-84h-760v-617h713v-84h-713v-621h775v-84h-866v485h-595l-237 -485h-98zM396 569h554v837h-144zM1201 1626l126 298h99l-149 -298h-76z" />
    <glyph glyph-name="aeacute" unicode="&#x1fd;" horiz-adv-x="1778" 
d="M432 -15q-154 0 -256.5 78t-102.5 229q0 107 63.5 173t170 96t237.5 30h239v145q0 110 -80.5 183.5t-211.5 73.5q-133 0 -217 -73t-86 -180h-89q2 95 52 170.5t138 119t202 43.5q143 0 237.5 -69t121.5 -182q59 116 162.5 184.5t237.5 68.5q139 0 243.5 -69.5
t162.5 -189.5t58 -273v-31h-846q1 -132 49.5 -233t135 -158.5t201.5 -57.5q127 0 224.5 69t128.5 184h89q-23 -101 -87 -176t-156 -117t-199 -42q-149 0 -259 79t-164 212q-26 -107 -88.5 -170t-144.5 -90t-166 -27zM869 591h757q-5 119 -54.5 209.5t-132.5 141.5t-189 51
t-189 -50.5t-133 -141t-59 -210.5zM783 512h-239q-382 0 -382 -221q0 -111 76.5 -168t193.5 -57q160 0 255.5 94.5t95.5 264.5v87zM821 1192l126 298h99l-149 -298h-76z" />
    <glyph glyph-name="Oslashacute" unicode="&#x1fe;" horiz-adv-x="1446" 
d="M724 -19q-189 0 -333 97t-224.5 269t-80.5 397q0 227 81 399t224.5 269t332.5 97q188 0 331 -97t224 -269t81 -399q0 -226 -81 -398t-224 -268.5t-331 -96.5zM724 68q157 0 280.5 83t194 234.5t70.5 358.5t-70.5 359.5t-194 235.5t-280.5 83q-158 0 -281.5 -82.5
t-194.5 -235t-71 -360.5q0 -206 70 -357.5t193.5 -235t283.5 -83.5zM244 -26l-69 52l1027 1490l69 -52zM682 1626l126 298h99l-149 -298h-76z" />
    <glyph glyph-name="oslashacute" unicode="&#x1ff;" horiz-adv-x="1080" 
d="M541 -19q-140 0 -246.5 70.5t-166.5 194t-60 281.5q0 159 60 282.5t166.5 194.5t246.5 71q139 0 245.5 -71t166 -194.5t59.5 -282.5q0 -158 -59.5 -281.5t-166 -194t-245.5 -70.5zM541 63q114 0 200.5 59t134.5 163.5t48 241.5q0 138 -48 243t-134.5 164t-200.5 59
q-115 0 -201.5 -59t-135 -164t-48.5 -243q0 -137 48 -241.5t135 -163.5t202 -59zM130 -25l-59 50l881 1056l59 -50zM499 1192l126 298h99l-149 -298h-76z" />
    <glyph glyph-name="uni0200" unicode="&#x200;" horiz-adv-x="1258" 
d="M20 0l555 1490h110l553 -1490h-97l-171 467h-683l-172 -467h-95zM318 551h621l-190 518q-28 75 -57 156.5t-63 181.5q-34 -100 -63 -181.5t-57 -156.5zM478 1626l-168 298h102l144 -298h-78zM712 1626l-134 298h101l111 -298h-78z" />
    <glyph glyph-name="uni0201" unicode="&#x201;" horiz-adv-x="1023" 
d="M435 -16q-97 0 -179 33t-132.5 100t-50.5 170q0 146 110 210t322 92q145 19 222.5 40t77.5 85v22q0 110 -86 183.5t-218 73.5q-88 0 -158.5 -33.5t-112 -90.5t-42.5 -129h-89q2 95 55 170.5t143 119t204 43.5q113 0 201 -43.5t138.5 -119.5t50.5 -174v-736h-86v195h-3
q-40 -90 -133.5 -150.5t-233.5 -60.5zM443 65q159 0 260.5 95t101.5 265v164q-36 -31 -111 -47t-191 -33q-174 -24 -257.5 -74t-83.5 -152q0 -106 81 -162t200 -56zM347 1192l-168 298h102l144 -298h-78zM581 1192l-134 298h101l111 -298h-78z" />
    <glyph glyph-name="uni0202" unicode="&#x202;" horiz-adv-x="1258" 
d="M20 0l555 1490h110l553 -1490h-97l-171 467h-683l-172 -467h-95zM318 551h621l-190 518q-28 75 -57 156.5t-63 181.5q-34 -100 -63 -181.5t-57 -156.5zM630 1917q77 0 138 -33t96.5 -90t35.5 -127h-74q0 76 -56.5 128t-139.5 52q-82 0 -139 -52t-57 -128h-74
q0 70 35.5 127t96.5 90t138 33z" />
    <glyph glyph-name="uni0203" unicode="&#x203;" horiz-adv-x="1023" 
d="M435 -16q-97 0 -179 33t-132.5 100t-50.5 170q0 146 110 210t322 92q145 19 222.5 40t77.5 85v22q0 110 -86 183.5t-218 73.5q-88 0 -158.5 -33.5t-112 -90.5t-42.5 -129h-89q2 95 55 170.5t143 119t204 43.5q113 0 201 -43.5t138.5 -119.5t50.5 -174v-736h-86v195h-3
q-40 -90 -133.5 -150.5t-233.5 -60.5zM443 65q159 0 260.5 95t101.5 265v164q-36 -31 -111 -47t-191 -33q-174 -24 -257.5 -74t-83.5 -152q0 -106 81 -162t200 -56zM499 1483q77 0 138 -33t96.5 -90t35.5 -127h-74q0 76 -56.5 128t-139.5 52q-82 0 -139 -52t-57 -128h-74
q0 70 35.5 127t96.5 90t138 33z" />
    <glyph glyph-name="uni0204" unicode="&#x204;" horiz-adv-x="1159" 
d="M161 0v1490h925v-84h-834v-602h763v-84h-763v-636h834v-84h-925zM471 1626l-168 298h102l144 -298h-78zM705 1626l-134 298h101l111 -298h-78z" />
    <glyph glyph-name="uni0205" unicode="&#x205;" horiz-adv-x="1065" 
d="M541 -19q-143 0 -249.5 71t-165 194t-58.5 281q0 159 60 282.5t165.5 194.5t243.5 71q139 0 243.5 -69.5t162.5 -189.5t58 -273v-31h-846q1 -132 49.5 -233t135 -158.5t201.5 -57.5q127 0 224.5 69t128.5 184h89q-23 -101 -87 -176t-156 -117t-199 -42zM156 591h757
q-5 119 -54.5 209.5t-132.5 141.5t-189 51t-189 -50.5t-133 -141t-59 -210.5zM382 1192l-168 298h102l144 -298h-78zM616 1192l-134 298h101l111 -298h-78z" />
    <glyph glyph-name="uni0206" unicode="&#x206;" horiz-adv-x="1159" 
d="M161 0v1490h925v-84h-834v-602h763v-84h-763v-636h834v-84h-925zM623 1917q77 0 138 -33t96.5 -90t35.5 -127h-74q0 76 -56.5 128t-139.5 52q-82 0 -139 -52t-57 -128h-74q0 70 35.5 127t96.5 90t138 33z" />
    <glyph glyph-name="uni0207" unicode="&#x207;" horiz-adv-x="1065" 
d="M541 -19q-143 0 -249.5 71t-165 194t-58.5 281q0 159 60 282.5t165.5 194.5t243.5 71q139 0 243.5 -69.5t162.5 -189.5t58 -273v-31h-846q1 -132 49.5 -233t135 -158.5t201.5 -57.5q127 0 224.5 69t128.5 184h89q-23 -101 -87 -176t-156 -117t-199 -42zM156 591h757
q-5 119 -54.5 209.5t-132.5 141.5t-189 51t-189 -50.5t-133 -141t-59 -210.5zM534 1483q77 0 138 -33t96.5 -90t35.5 -127h-74q0 76 -56.5 128t-139.5 52q-82 0 -139 -52t-57 -128h-74q0 70 35.5 127t96.5 90t138 33z" />
    <glyph glyph-name="uni0208" unicode="&#x208;" horiz-adv-x="413" 
d="M252 1490v-1490h-91v1490h91zM55 1626l-168 298h102l144 -298h-78zM289 1626l-134 298h101l111 -298h-78z" />
    <glyph glyph-name="uni0209" unicode="&#x209;" horiz-adv-x="350" 
d="M131 0v1056h88v-1056h-88zM23 1192l-168 298h102l144 -298h-78zM257 1192l-134 298h101l111 -298h-78z" />
    <glyph glyph-name="uni020A" unicode="&#x20a;" horiz-adv-x="413" 
d="M252 1490v-1490h-91v1490h91zM207 1917q77 0 138 -33t96.5 -90t35.5 -127h-74q0 76 -56.5 128t-139.5 52q-82 0 -139 -52t-57 -128h-74q0 70 35.5 127t96.5 90t138 33z" />
    <glyph glyph-name="uni020B" unicode="&#x20b;" horiz-adv-x="350" 
d="M131 0v1056h88v-1056h-88zM175 1483q77 0 138 -33t96.5 -90t35.5 -127h-74q0 76 -56.5 128t-139.5 52q-82 0 -139 -52t-57 -128h-74q0 70 35.5 127t96.5 90t138 33z" />
    <glyph glyph-name="uni020C" unicode="&#x20c;" horiz-adv-x="1446" 
d="M724 -19q-189 0 -333 97t-224.5 269t-80.5 397q0 227 81 399t224.5 269t332.5 97q188 0 331 -97t224 -269t81 -399q0 -226 -81 -398t-224 -268.5t-331 -96.5zM724 68q157 0 280.5 83t194 234.5t70.5 358.5t-70.5 359.5t-194 235.5t-280.5 83q-158 0 -281.5 -82.5
t-194.5 -235t-71 -360.5q0 -206 70 -357.5t193.5 -235t283.5 -83.5zM572 1626l-168 298h102l144 -298h-78zM806 1626l-134 298h101l111 -298h-78z" />
    <glyph glyph-name="uni020D" unicode="&#x20d;" horiz-adv-x="1080" 
d="M541 -19q-140 0 -246.5 70.5t-166.5 194t-60 281.5q0 159 60 282.5t166.5 194.5t246.5 71q139 0 245.5 -71t166 -194.5t59.5 -282.5q0 -158 -59.5 -281.5t-166 -194t-245.5 -70.5zM541 63q114 0 200.5 59t134.5 163.5t48 241.5q0 138 -48 243t-134.5 164t-200.5 59
q-115 0 -201.5 -59t-135 -164t-48.5 -243q0 -137 48 -241.5t135 -163.5t202 -59zM389 1192l-168 298h102l144 -298h-78zM623 1192l-134 298h101l111 -298h-78z" />
    <glyph glyph-name="uni020E" unicode="&#x20e;" horiz-adv-x="1446" 
d="M724 -19q-189 0 -333 97t-224.5 269t-80.5 397q0 227 81 399t224.5 269t332.5 97q188 0 331 -97t224 -269t81 -399q0 -226 -81 -398t-224 -268.5t-331 -96.5zM724 68q157 0 280.5 83t194 234.5t70.5 358.5t-70.5 359.5t-194 235.5t-280.5 83q-158 0 -281.5 -82.5
t-194.5 -235t-71 -360.5q0 -206 70 -357.5t193.5 -235t283.5 -83.5zM724 1917q77 0 138 -33t96.5 -90t35.5 -127h-74q0 76 -56.5 128t-139.5 52q-82 0 -139 -52t-57 -128h-74q0 70 35.5 127t96.5 90t138 33z" />
    <glyph glyph-name="uni020F" unicode="&#x20f;" horiz-adv-x="1080" 
d="M541 -19q-140 0 -246.5 70.5t-166.5 194t-60 281.5q0 159 60 282.5t166.5 194.5t246.5 71q139 0 245.5 -71t166 -194.5t59.5 -282.5q0 -158 -59.5 -281.5t-166 -194t-245.5 -70.5zM541 63q114 0 200.5 59t134.5 163.5t48 241.5q0 138 -48 243t-134.5 164t-200.5 59
q-115 0 -201.5 -59t-135 -164t-48.5 -243q0 -137 48 -241.5t135 -163.5t202 -59zM541 1483q77 0 138 -33t96.5 -90t35.5 -127h-74q0 76 -56.5 128t-139.5 52q-82 0 -139 -52t-57 -128h-74q0 70 35.5 127t96.5 90t138 33z" />
    <glyph glyph-name="uni0210" unicode="&#x210;" horiz-adv-x="1221" 
d="M161 0v1490h509q134 0 236 -54t159 -151.5t57 -229.5q0 -162 -88.5 -272t-236.5 -145l341 -638h-105l-331 624q-19 -1 -37 -1h-413v-623h-91zM252 707h416q163 0 263.5 95t100.5 253q0 160 -100.5 255.5t-263.5 95.5h-416v-699zM459 1626l-168 298h102l144 -298h-78z
M693 1626l-134 298h101l111 -298h-78z" />
    <glyph glyph-name="uni0211" unicode="&#x211;" horiz-adv-x="579" 
d="M131 0v1056h85v-187h2q36 90 118.5 143t192.5 53q13 0 21.5 -0.5t18.5 -1.5v-87q-8 1 -20.5 2.5t-30.5 1.5q-128 0 -213.5 -84t-85.5 -226v-670h-88zM213 1192l-168 298h102l144 -298h-78zM447 1192l-134 298h101l111 -298h-78z" />
    <glyph glyph-name="uni0212" unicode="&#x212;" horiz-adv-x="1221" 
d="M161 0v1490h509q134 0 236 -54t159 -151.5t57 -229.5q0 -162 -88.5 -272t-236.5 -145l341 -638h-105l-331 624q-19 -1 -37 -1h-413v-623h-91zM252 707h416q163 0 263.5 95t100.5 253q0 160 -100.5 255.5t-263.5 95.5h-416v-699zM611 1917q77 0 138 -33t96.5 -90
t35.5 -127h-74q0 76 -56.5 128t-139.5 52q-82 0 -139 -52t-57 -128h-74q0 70 35.5 127t96.5 90t138 33z" />
    <glyph glyph-name="uni0213" unicode="&#x213;" horiz-adv-x="579" 
d="M131 0v1056h85v-187h2q36 90 118.5 143t192.5 53q13 0 21.5 -0.5t18.5 -1.5v-87q-8 1 -20.5 2.5t-30.5 1.5q-128 0 -213.5 -84t-85.5 -226v-670h-88zM365 1483q77 0 138 -33t96.5 -90t35.5 -127h-74q0 76 -56.5 128t-139.5 52q-82 0 -139 -52t-57 -128h-74q0 70 35.5 127
t96.5 90t138 33z" />
    <glyph glyph-name="uni0214" unicode="&#x214;" horiz-adv-x="1381" 
d="M691 -19q-160 0 -284.5 69t-195.5 188t-71 271v981h91v-977q0 -128 58.5 -228.5t162.5 -158.5t239 -58t238.5 58t162.5 158.5t59 228.5v977h90v-981q0 -152 -70.5 -271.5t-195 -188t-284.5 -68.5zM539 1626l-168 298h102l144 -298h-78zM773 1626l-134 298h101l111 -298
h-78z" />
    <glyph glyph-name="uni0215" unicode="&#x215;" horiz-adv-x="1085" 
d="M521 -17q-112 0 -200 47.5t-139 136t-51 212.5v677h88v-673q0 -148 85.5 -233t226.5 -85q95 0 171 39.5t120.5 113t44.5 173.5v665h87v-1056h-86v185q-50 -102 -143 -152t-204 -50zM391 1192l-168 298h102l144 -298h-78zM625 1192l-134 298h101l111 -298h-78z" />
    <glyph glyph-name="uni0216" unicode="&#x216;" horiz-adv-x="1381" 
d="M691 -19q-160 0 -284.5 69t-195.5 188t-71 271v981h91v-977q0 -128 58.5 -228.5t162.5 -158.5t239 -58t238.5 58t162.5 158.5t59 228.5v977h90v-981q0 -152 -70.5 -271.5t-195 -188t-284.5 -68.5zM691 1917q77 0 138 -33t96.5 -90t35.5 -127h-74q0 76 -56.5 128
t-139.5 52q-82 0 -139 -52t-57 -128h-74q0 70 35.5 127t96.5 90t138 33z" />
    <glyph glyph-name="uni0217" unicode="&#x217;" horiz-adv-x="1085" 
d="M521 -17q-112 0 -200 47.5t-139 136t-51 212.5v677h88v-673q0 -148 85.5 -233t226.5 -85q95 0 171 39.5t120.5 113t44.5 173.5v665h87v-1056h-86v185q-50 -102 -143 -152t-204 -50zM543 1483q77 0 138 -33t96.5 -90t35.5 -127h-74q0 76 -56.5 128t-139.5 52
q-82 0 -139 -52t-57 -128h-74q0 70 35.5 127t96.5 90t138 33z" />
    <glyph glyph-name="uni0218" unicode="&#x218;" horiz-adv-x="1170" 
d="M585 -23q-147 0 -257 52t-172.5 145.5t-66.5 218.5h92q7 -150 114.5 -240t289.5 -90q183 0 294.5 89t111.5 234q0 111 -75.5 182.5t-249.5 122.5l-168 48q-193 56 -285 147.5t-92 228.5q0 116 60 205.5t165 141t241 51.5q137 0 240 -53t162 -147t65 -218h-90
q-10 148 -111.5 240t-267.5 92q-108 0 -192.5 -40t-133 -109.5t-48.5 -159.5q0 -105 74.5 -176t234.5 -117l170 -48q201 -58 296 -151.5t95 -236.5q0 -121 -62 -214t-173.5 -145.5t-260.5 -52.5zM447 -494l91 376h92l-113 -376h-70z" />
    <glyph glyph-name="uni0219" unicode="&#x219;" horiz-adv-x="934" 
d="M471 -17q-172 0 -278.5 88.5t-113.5 244.5h86q7 -118 85.5 -186t219.5 -68q138 0 218 63t80 164q0 78 -53.5 116.5t-151.5 61.5l-179 42q-139 33 -211 95.5t-72 170.5q0 133 101.5 215.5t265.5 82.5q162 0 261.5 -88t108.5 -245h-86q-10 121 -82.5 187.5t-201.5 66.5
q-127 0 -203.5 -61t-76.5 -158q0 -78 55 -120.5t158 -66.5l180 -42q136 -32 205.5 -89.5t69.5 -165.5q0 -140 -106.5 -224t-278.5 -84zM330 -494l91 376h92l-113 -376h-70z" />
    <glyph glyph-name="uni021A.1" unicode="&#x21a;" horiz-adv-x="1221" 
d="M57 1406v84h1107v-84h-508v-1406h-91v1406h-508zM471 -494l91 376h92l-113 -376h-70z" />
    <glyph glyph-name="uni021B" unicode="&#x21b;" horiz-adv-x="527" 
d="M490 1056v-79h-226v-758q0 -73 33.5 -106.5t108.5 -33.5h84v-79h-90q-223 0 -223 213v764h-172v79h172v288h87v-288h226zM195 -494l91 376h92l-113 -376h-70z" />
    <glyph glyph-name="uni021C" unicode="&#x21c;" horiz-adv-x="1131" 
d="M157 361v80q235 70 409 170.5t269.5 225.5t94.5 270q-1 144 -99.5 230t-263.5 86q-115 0 -203 -40.5t-137.5 -111t-48.5 -158.5h-101q1 116 64 205.5t173 140.5t253 51q136 0 240.5 -49t163 -139t58.5 -211q0 -103 -43.5 -198.5t-123.5 -180.5q94 -59 143.5 -160
t49.5 -251q0 -199 -95.5 -335.5t-294 -235.5t-508.5 -186v87q286 83 461 172t255 208.5t80 292.5q0 255 -152 351q-116 -103 -281.5 -183.5t-362.5 -130.5z" />
    <glyph glyph-name="uni021D" unicode="&#x21d;" horiz-adv-x="949" 
d="M149 246v81q177 28 312.5 96.5t211.5 168t74 219.5q-2 107 -68.5 172.5t-192.5 65.5q-128 0 -215 -70t-86 -191h-96q0 106 52 183.5t142 119.5t206 42q166 0 261 -88.5t95 -234.5q0 -83 -33 -159t-93 -141q146 -118 146 -356q1 -264 -175 -410.5t-541 -179.5v84
q321 35 469.5 158.5t148.5 350.5q0 197 -108 296q-93 -77 -224 -131t-286 -76z" />
    <glyph glyph-name="uni021E" unicode="&#x21e;" horiz-adv-x="1401" 
d="M161 0v1490h91v-686h897v686h90v-1490h-90v720h-897v-720h-91zM508 1941l191 -216l193 216h96v-1l-247 -273h-84l-245 273v1h96z" />
    <glyph glyph-name="uni021F" unicode="&#x21f;" horiz-adv-x="1085" 
d="M219 665v-665h-88v1490h88v-616q50 101 142.5 150t203.5 49q112 0 200 -47.5t138.5 -136t50.5 -212.5v-677h-87v673q0 148 -86 233t-227 85q-95 0 -171 -39.5t-120 -112.5t-44 -174zM-17 1941l191 -216l193 216h96v-1l-247 -273h-84l-245 273v1h96z" />
    <glyph glyph-name="uni0220" unicode="&#x220;" horiz-adv-x="1032" 
d="M984 -417h-99v1390q0 252 -103.5 351.5t-304.5 99.5q-190 0 -326 -82v-1342h-96v1490h96v-58q66 36 148.5 57t181.5 21q151 0 264 -53.5t176 -172.5t63 -314v-1387z" />
    <glyph glyph-name="uni0221" unicode="&#x221;" horiz-adv-x="1451" 
d="M1187 -413q-108 0 -177 56.5t-89 143.5q-6 -8 -12 -18l-134 -160l-64 54l120 147q42 60 82 105v206h1v119h-1q-41 -114 -144.5 -185.5t-238.5 -71.5q-134 0 -238.5 67.5t-164 190.5t-59.5 287t60 286.5t164.5 190.5t237.5 68q135 0 240 -73t141 -187h2v677h87v-1492
q90 68 189 68q112 0 188 -66t76 -174q0 -107 -75 -173t-191 -66zM539 64q171 0 274.5 125.5t103.5 338.5t-103.5 338.5t-274.5 125.5q-110 0 -196.5 -55.5t-136.5 -159.5t-50 -249t50 -249t136.5 -159.5t196.5 -55.5zM1000 -110v-37q0 -87 54 -136.5t133 -49.5
q76 0 126 43.5t50 115.5q0 70 -49.5 113.5t-122.5 45.5q-100 4 -191 -95z" />
    <glyph glyph-name="uni0222" unicode="&#x222;" horiz-adv-x="1096" 
d="M530 852h37q185 1 293.5 69.5t108.5 231.5q0 122 -60 190.5t-162 87.5v84q138 -16 230.5 -106t92.5 -256q0 -136 -66 -221.5t-181 -125.5q125 -47 192.5 -145.5t67.5 -244.5q0 -218 -142 -327t-384 -109h-16q-245 0 -386.5 109t-141.5 326q0 147 67 245.5t192 145.5
q-115 40 -180.5 125t-65.5 222q0 160 86.5 249t217.5 108v-86q-94 -21 -148.5 -87.5t-54.5 -183.5q0 -163 108 -231.5t295 -69.5zM563 764h-30q-421 0 -421 -349q0 -175 111 -261t316 -86h18q205 0 316 86t111 262q0 171 -106.5 259.5t-314.5 88.5z" />
    <glyph glyph-name="uni0223" unicode="&#x223;" horiz-adv-x="1132" 
d="M613 849q184 0 294 79.5t110 244.5q0 128 -57.5 202.5t-166.5 99.5v81q146 -16 234 -115.5t88 -267.5q0 -140 -69 -232t-189 -135q125 -46 193.5 -143t68.5 -243q0 -214 -142.5 -327t-383.5 -113h-52q-243 0 -385.5 112.5t-142.5 326.5q0 147 68.5 244t193.5 143
q-120 43 -189 134.5t-69 232.5q0 164 82.5 261t221.5 117v-83q-101 -27 -153.5 -99.5t-52.5 -195.5q0 -166 109.5 -245t294.5 -79h94zM599 764h-66q-205 0 -313.5 -86t-108.5 -259t113 -264t315 -91h54q202 0 314 91t112 265q0 171 -109 257.5t-311 86.5z" />
    <glyph glyph-name="uni0224" unicode="&#x224;" horiz-adv-x="1231" 
d="M859 -418v83h82q69 0 99.5 31t30.5 103v201h-1002v87l818 1102q40 54 81 108.5t82 108.5h-943v84h1046v-87l-814 -1097q-41 -56 -82.5 -111.5t-83.5 -110.5h988v-287q0 -215 -217 -215h-85z" />
    <glyph glyph-name="uni0225" unicode="&#x225;" horiz-adv-x="936" 
d="M856 -208v47q0 77 -32.5 119t-113.5 42h-626v74l656 899v2h-649v81h756v-77l-653 -896v-2h511q234 0 234 -232v-57h-83z" />
    <glyph glyph-name="uni0226" unicode="&#x226;" horiz-adv-x="1258" 
d="M20 0l555 1490h110l553 -1490h-97l-171 467h-683l-172 -467h-95zM318 551h621l-190 518q-28 75 -57 156.5t-63 181.5q-34 -100 -63 -181.5t-57 -156.5zM630 1742q-29 0 -49.5 20.5t-20.5 49.5t20.5 49.5t49.5 20.5t49.5 -20.5t20.5 -49.5t-20.5 -49.5t-49.5 -20.5z" />
    <glyph glyph-name="uni0227" unicode="&#x227;" horiz-adv-x="1023" 
d="M435 -16q-97 0 -179 33t-132.5 100t-50.5 170q0 146 110 210t322 92q145 19 222.5 40t77.5 85v22q0 110 -86 183.5t-218 73.5q-88 0 -158.5 -33.5t-112 -90.5t-42.5 -129h-89q2 95 55 170.5t143 119t204 43.5q113 0 201 -43.5t138.5 -119.5t50.5 -174v-736h-86v195h-3
q-40 -90 -133.5 -150.5t-233.5 -60.5zM443 65q159 0 260.5 95t101.5 265v164q-36 -31 -111 -47t-191 -33q-174 -24 -257.5 -74t-83.5 -152q0 -106 81 -162t200 -56zM499 1308q-29 0 -49.5 20.5t-20.5 49.5t20.5 49.5t49.5 20.5t49.5 -20.5t20.5 -49.5t-20.5 -49.5
t-49.5 -20.5z" />
    <glyph glyph-name="uni0228" unicode="&#x228;" horiz-adv-x="1159" 
d="M161 0v1490h925v-84h-834v-602h763v-84h-763v-636h834v-84h-925zM526 -418v65h105q123 0 123 96q0 97 -128 97h-66l36 188h60v-28l-17 -97q89 -3 139 -45.5t50 -114.5q0 -77 -53.5 -119t-143.5 -42h-105z" />
    <glyph glyph-name="uni0229" unicode="&#x229;" horiz-adv-x="1065" 
d="M541 -19q-143 0 -249.5 71t-165 194t-58.5 281q0 159 60 282.5t165.5 194.5t243.5 71q139 0 243.5 -69.5t162.5 -189.5t58 -273v-31h-846q1 -132 49.5 -233t135 -158.5t201.5 -57.5q127 0 224.5 69t128.5 184h89q-23 -101 -87 -176t-156 -117t-199 -42zM156 591h757
q-5 119 -54.5 209.5t-132.5 141.5t-189 51t-189 -50.5t-133 -141t-59 -210.5zM440 -418v65h105q123 0 123 96q0 97 -128 97h-66l36 188h60v-28l-17 -97q89 -3 139 -45.5t50 -114.5q0 -77 -53.5 -119t-143.5 -42h-105z" />
    <glyph glyph-name="uni022A" unicode="&#x22a;" horiz-adv-x="1446" 
d="M724 -19q-189 0 -333 97t-224.5 269t-80.5 397q0 227 81 399t224.5 269t332.5 97q188 0 331 -97t224 -269t81 -399q0 -226 -81 -398t-224 -268.5t-331 -96.5zM724 68q157 0 280.5 83t194 234.5t70.5 358.5t-70.5 359.5t-194 235.5t-280.5 83q-158 0 -281.5 -82.5
t-194.5 -235t-71 -360.5q0 -206 70 -357.5t193.5 -235t283.5 -83.5zM970 2068v-73h-493v73h493zM925 1692q-29 0 -49.5 20.5t-20.5 49.5t20.5 49.5t49.5 20.5t49.5 -20.5t20.5 -49.5t-20.5 -49.5t-49.5 -20.5zM516 1692q-29 0 -49.5 20.5t-20.5 49.5t20.5 49.5t49.5 20.5
t49.5 -20.5t20.5 -49.5t-20.5 -49.5t-49.5 -20.5z" />
    <glyph glyph-name="uni022B" unicode="&#x22b;" horiz-adv-x="1080" 
d="M541 -19q-140 0 -246.5 70.5t-166.5 194t-60 281.5q0 159 60 282.5t166.5 194.5t246.5 71q139 0 245.5 -71t166 -194.5t59.5 -282.5q0 -158 -59.5 -281.5t-166 -194t-245.5 -70.5zM541 63q114 0 200.5 59t134.5 163.5t48 241.5q0 138 -48 243t-134.5 164t-200.5 59
q-115 0 -201.5 -59t-135 -164t-48.5 -243q0 -137 48 -241.5t135 -163.5t202 -59zM787 1634v-73h-493v73h493zM742 1258q-29 0 -49.5 20.5t-20.5 49.5t20.5 49.5t49.5 20.5t49.5 -20.5t20.5 -49.5t-20.5 -49.5t-49.5 -20.5zM333 1258q-29 0 -49.5 20.5t-20.5 49.5t20.5 49.5
t49.5 20.5t49.5 -20.5t20.5 -49.5t-20.5 -49.5t-49.5 -20.5z" />
    <glyph glyph-name="uni022C" unicode="&#x22c;" horiz-adv-x="1446" 
d="M724 -19q-189 0 -333 97t-224.5 269t-80.5 397q0 227 81 399t224.5 269t332.5 97q188 0 331 -97t224 -269t81 -399q0 -226 -81 -398t-224 -268.5t-331 -96.5zM724 68q157 0 280.5 83t194 234.5t70.5 358.5t-70.5 359.5t-194 235.5t-280.5 83q-158 0 -281.5 -82.5
t-194.5 -235t-71 -360.5q0 -206 70 -357.5t193.5 -235t283.5 -83.5zM853 1668q-53 0 -93.5 26.5t-75.5 53t-74 26.5q-42 0 -66.5 -28.5t-28.5 -71.5h-72q5 74 46 123t110 49q58 0 98 -26.5t73.5 -53t71.5 -26.5q73 0 92 98h71q-9 -79 -49.5 -124.5t-102.5 -45.5zM970 2068
v-73h-493v73h493z" />
    <glyph glyph-name="uni022D" unicode="&#x22d;" horiz-adv-x="1080" 
d="M541 -19q-140 0 -246.5 70.5t-166.5 194t-60 281.5q0 159 60 282.5t166.5 194.5t246.5 71q139 0 245.5 -71t166 -194.5t59.5 -282.5q0 -158 -59.5 -281.5t-166 -194t-245.5 -70.5zM541 63q114 0 200.5 59t134.5 163.5t48 241.5q0 138 -48 243t-134.5 164t-200.5 59
q-115 0 -201.5 -59t-135 -164t-48.5 -243q0 -137 48 -241.5t135 -163.5t202 -59zM670 1234q-53 0 -93.5 26.5t-75.5 53t-74 26.5q-42 0 -66.5 -28.5t-28.5 -71.5h-72q5 74 46 123t110 49q58 0 98 -26.5t73.5 -53t71.5 -26.5q73 0 92 98h71q-9 -79 -49.5 -124.5t-102.5 -45.5
zM787 1634v-73h-493v73h493z" />
    <glyph glyph-name="uni022E" unicode="&#x22e;" horiz-adv-x="1446" 
d="M724 -19q-189 0 -333 97t-224.5 269t-80.5 397q0 227 81 399t224.5 269t332.5 97q188 0 331 -97t224 -269t81 -399q0 -226 -81 -398t-224 -268.5t-331 -96.5zM724 68q157 0 280.5 83t194 234.5t70.5 358.5t-70.5 359.5t-194 235.5t-280.5 83q-158 0 -281.5 -82.5
t-194.5 -235t-71 -360.5q0 -206 70 -357.5t193.5 -235t283.5 -83.5zM724 1742q-29 0 -49.5 20.5t-20.5 49.5t20.5 49.5t49.5 20.5t49.5 -20.5t20.5 -49.5t-20.5 -49.5t-49.5 -20.5z" />
    <glyph glyph-name="uni022F" unicode="&#x22f;" horiz-adv-x="1080" 
d="M541 -19q-140 0 -246.5 70.5t-166.5 194t-60 281.5q0 159 60 282.5t166.5 194.5t246.5 71q139 0 245.5 -71t166 -194.5t59.5 -282.5q0 -158 -59.5 -281.5t-166 -194t-245.5 -70.5zM541 63q114 0 200.5 59t134.5 163.5t48 241.5q0 138 -48 243t-134.5 164t-200.5 59
q-115 0 -201.5 -59t-135 -164t-48.5 -243q0 -137 48 -241.5t135 -163.5t202 -59zM541 1308q-29 0 -49.5 20.5t-20.5 49.5t20.5 49.5t49.5 20.5t49.5 -20.5t20.5 -49.5t-20.5 -49.5t-49.5 -20.5z" />
    <glyph glyph-name="uni0230" unicode="&#x230;" horiz-adv-x="1446" 
d="M724 -19q-189 0 -333 97t-224.5 269t-80.5 397q0 227 81 399t224.5 269t332.5 97q188 0 331 -97t224 -269t81 -399q0 -226 -81 -398t-224 -268.5t-331 -96.5zM724 68q157 0 280.5 83t194 234.5t70.5 358.5t-70.5 359.5t-194 235.5t-280.5 83q-158 0 -281.5 -82.5
t-194.5 -235t-71 -360.5q0 -206 70 -357.5t193.5 -235t283.5 -83.5zM971 2068v-73h-494v73h494zM724 1692q-29 0 -49.5 20.5t-20.5 49.5t20.5 49.5t49.5 20.5t49.5 -20.5t20.5 -49.5t-20.5 -49.5t-49.5 -20.5z" />
    <glyph glyph-name="uni0231" unicode="&#x231;" horiz-adv-x="1080" 
d="M541 -19q-140 0 -246.5 70.5t-166.5 194t-60 281.5q0 159 60 282.5t166.5 194.5t246.5 71q139 0 245.5 -71t166 -194.5t59.5 -282.5q0 -158 -59.5 -281.5t-166 -194t-245.5 -70.5zM541 63q114 0 200.5 59t134.5 163.5t48 241.5q0 138 -48 243t-134.5 164t-200.5 59
q-115 0 -201.5 -59t-135 -164t-48.5 -243q0 -137 48 -241.5t135 -163.5t202 -59zM788 1634v-73h-494v73h494zM541 1258q-29 0 -49.5 20.5t-20.5 49.5t20.5 49.5t49.5 20.5t49.5 -20.5t20.5 -49.5t-20.5 -49.5t-49.5 -20.5z" />
    <glyph glyph-name="uni0232" unicode="&#x232;" horiz-adv-x="1252" 
d="M581 0v675l-561 815h107l340 -493q41 -59 80.5 -119t79.5 -119q40 59 79.5 119t80.5 119l339 493h106l-560 -815v-675h-91zM872 1840v-77h-493v77h493z" />
    <glyph glyph-name="uni0233" unicode="&#x233;" horiz-adv-x="1015" 
d="M121 -418v81h94q69 0 104.5 32t74.5 128l70 175l-431 1058h94l276 -683q27 -68 53.5 -136t53.5 -136q26 68 52.5 136t53.5 136l272 683h93l-509 -1262q-47 -118 -103.5 -165t-153.5 -47h-94zM754 1406v-77h-493v77h493z" />
    <glyph glyph-name="uni0234" unicode="&#x234;" horiz-adv-x="670" 
d="M406 -413q-109 0 -177.5 56.5t-89.5 143.5q-6 -8 -12 -18l-134 -160l-63 54l120 147q42 60 81 105v1575h88v-1492q89 68 189 68q112 0 188 -66t76 -174q0 -107 -75 -173t-191 -66zM219 -110v-37q0 -87 53.5 -136.5t133.5 -49.5q76 0 126 43.5t50 115.5q0 70 -50 113.5
t-123 45.5q-99 4 -190 -95z" />
    <glyph glyph-name="uni0235" unicode="&#x235;" horiz-adv-x="1405" 
d="M1141 -413q-108 0 -177 56.5t-89 143.5q-6 -8 -12 -18l-134 -160l-64 54l120 147q42 60 82 105v758q0 148 -86 233t-227 85q-95 0 -171 -39.5t-120 -112.5t-44 -174v-665h-88v1056h86v-185q51 102 143.5 152t204.5 50t200 -47.5t138.5 -136t50.5 -212.5v-679
q90 68 189 68q112 0 188 -66t76 -174q0 -107 -75 -173t-191 -66zM954 -110v-37q0 -87 54 -136.5t133 -49.5q76 0 126 43.5t50 115.5q0 70 -49.5 113.5t-122.5 45.5q-100 4 -191 -95z" />
    <glyph glyph-name="uni0236" unicode="&#x236;" horiz-adv-x="742" 
d="M440 -17q-108 0 -177 56.5t-89 143.5q-6 -8 -12 -18l-134 -160l-64 54l120 147q42 60 82 105v666h-161v79h161v288h87v-288h226v-79h-226v-583q90 68 189 68q112 0 188 -66t76 -174q0 -107 -75 -173t-191 -66zM253 286v-37q0 -87 54 -136.5t133 -49.5q76 0 126 43.5
t50 115.5q0 70 -49.5 113.5t-122.5 45.5q-100 4 -191 -95z" />
    <glyph glyph-name="uni0237" unicode="&#x237;" horiz-adv-x="354" 
d="M135 1056h88v-1213q0 -118 -75.5 -189.5t-188.5 -71.5h-36v81h31q77 0 129 48.5t52 139.5v1205z" />
    <glyph glyph-name="uni0238" unicode="&#x238;" horiz-adv-x="1675" 
d="M1641 559v-10q0 -173 -52 -301.5t-146 -199.5t-219 -71q-107 0 -193 53t-144 148v-178h-88l-10 180q-58 -96 -144.5 -149.5t-194.5 -53.5q-125 0 -218.5 71t-145.5 199.5t-52 301.5v10q0 175 51.5 304t145 199.5t218.5 70.5q108 0 194.5 -52t144.5 -147v556h99v-556
q58 95 144.5 147t194.5 52q125 0 218 -70.5t145 -199.5t52 -304zM1543 549v10q0 219 -84.5 353.5t-241.5 134.5q-105 0 -191.5 -58.5t-138.5 -151.5v-561q54 -94 139.5 -152.5t190.5 -58.5q155 0 240.5 133t85.5 351zM131 559v-10q1 -218 86 -351t241 -133q105 0 190.5 58.5
t139.5 153.5v560q-52 93 -138.5 151.5t-190.5 58.5q-158 0 -242.5 -134.5t-85.5 -353.5z" />
    <glyph glyph-name="uni0239" unicode="&#x239;" horiz-adv-x="1675" 
d="M791 -416v599q-59 -98 -145.5 -152t-195.5 -54q-125 0 -218.5 71t-145.5 199.5t-52 301.5v10q0 175 51.5 304t145 199.5t218.5 70.5q109 0 196.5 -53.5t145.5 -151.5l10 190h77l9 -184q59 95 145.5 147t193.5 52q125 0 218 -70.5t145 -199.5t52 -304v-10
q0 -173 -52 -301.5t-146 -199.5t-219 -71q-106 0 -191.5 52.5t-144.5 146.5v-592h-97zM131 559v-10q1 -218 86 -351t241 -133q106 0 192 60t141 157v550q-52 95 -139.5 155t-192.5 60q-158 0 -242.5 -134.5t-85.5 -353.5zM1543 549v10q0 219 -84.5 353.5t-241.5 134.5
q-104 0 -190 -57.5t-139 -149.5v-566q55 -93 139.5 -151t189.5 -58q155 0 240.5 133t85.5 351z" />
    <glyph glyph-name="uni023A" unicode="&#x23a;" horiz-adv-x="1258" 
d="M988 1678l-182 -513l432 -1165h-97l-171 467h-413l-233 -657h-89l234 657h-182l-172 -467h-95l555 1490h110l75 -203l139 391h89zM499 551l217 610q-20 55 -41.5 115.5t-45.5 130.5q-34 -100 -63 -181.5t-57 -156.5l-191 -518h181zM760 1038l-173 -487h352z" />
    <glyph glyph-name="uni023B" unicode="&#x23b;" horiz-adv-x="1394" 
d="M303 -190l99 262q-147 92 -231.5 266.5t-84.5 405.5q0 228 81 400t225.5 268.5t335.5 96.5q107 0 203 -33l76 202h88l-88 -235q128 -67 205.5 -183t99.5 -241h-92q-21 102 -83 194t-161 147l-469 -1245q102 -47 221 -47q138 0 240.5 57.5t166 149.5t85.5 196h92
q-21 -122 -95 -234t-197.5 -184t-291.5 -72q-136 0 -252 51l-84 -222h-89zM434 157l466 1237q-81 28 -172 28q-155 0 -279.5 -80.5t-198 -232t-73.5 -365.5q0 -209 70 -358t187 -229z" />
    <glyph glyph-name="uni023C" unicode="&#x23c;" horiz-adv-x="1036" 
d="M135 -418l170 463q-110 67 -173.5 193t-63.5 289q0 159 60 282.5t166.5 194.5t246.5 71q71 0 135 -20l160 435h78l-170 -462q89 -45 148 -127t78 -189h-88q-35 164 -166 237l-316 -859q66 -27 141 -27q134 0 222.5 76.5t117.5 204.5h89q-19 -107 -78.5 -188.5
t-149.5 -128t-201 -46.5q-90 0 -169 31l-158 -430h-79zM335 125l313 853q-51 15 -107 15q-115 0 -201.5 -59t-135 -164t-48.5 -243q0 -135 47.5 -239.5t131.5 -162.5z" />
    <glyph glyph-name="uni023D" unicode="&#x23d;" horiz-adv-x="1096" 
d="M196 0v1490h92v-1406h752v-84h-844zM5 703v84h745v-84h-745z" />
    <glyph glyph-name="uni023E" unicode="&#x23e;" horiz-adv-x="1221" 
d="M207 -196l358 919v683h-508v84h808l76 195h78l-76 -195h221v-84h-254l-254 -652v-754h-91v521l-280 -717h-78zM656 955l176 451h-176v-451z" />
    <glyph glyph-name="uni023F" unicode="&#x23f;" horiz-adv-x="934" 
d="M471 -17q-101 0 -182 31q64 -113 105 -183t69 -107t51.5 -50t52.5 -13q31 0 64 16.5t68 45.5l37 -66q-43 -35 -85 -55t-83 -20q-68 0 -118.5 40.5t-96.5 122.5l-213 383q-56 78 -61 188h86q7 -118 85.5 -186t219.5 -68q138 0 218 63t80 164q0 78 -53.5 116.5t-151.5 61.5
l-179 42q-139 33 -211 95.5t-72 170.5q0 133 101.5 215.5t265.5 82.5q162 0 261.5 -88t108.5 -245h-86q-10 121 -82.5 187.5t-201.5 66.5q-127 0 -203.5 -61t-76.5 -158q0 -78 55 -120.5t158 -66.5l180 -42q136 -32 205.5 -89.5t69.5 -165.5q0 -140 -106.5 -224t-278.5 -84z
" />
    <glyph glyph-name="uni0240" unicode="&#x240;" horiz-adv-x="936" 
d="M84 0v74l656 899v2h-649v81h756v-77l-653 -896v-2h34q146 0 235 -56.5t166 -155.5q79 -97 126 -151.5t107 -54.5q40 0 79 20l37 -72q-58 -29 -116 -29q-86 0 -151.5 68.5t-146.5 169.5q-69 87 -141 133.5t-195 46.5h-144z" />
    <glyph glyph-name="uni0241" unicode="&#x241;" horiz-adv-x="950" 
d="M423 415h27q189 1 277 109.5t88 290.5v210q0 177 -83.5 286t-258.5 109q-151 0 -242.5 -80t-99.5 -214h-95q10 172 128 278t309 106q214 0 327.5 -134.5t113.5 -350.5v-210q0 -208 -105 -339.5t-308 -146.5v-329h-100v415h22z" />
    <glyph glyph-name="uni0242" unicode="&#x242;" horiz-adv-x="930" 
d="M95 709q3 208 106 316t272 108q171 0 267.5 -106.5t96.5 -300.5q0 -163 -75 -267.5t-227 -119.5v-339h-97v409h47q129 1 192 85t63 229q0 150 -67.5 238t-200.5 88q-129 0 -203.5 -87t-76.5 -253h-97z" />
    <glyph glyph-name="uni0243" unicode="&#x243;" horiz-adv-x="1270" 
d="M171 0v1490h489q208 0 332.5 -103t124.5 -281q0 -131 -73.5 -220t-182.5 -123v-1q82 -13 154 -58.5t116.5 -120.5t44.5 -180q0 -181 -125.5 -292t-354.5 -111h-525zM262 84h434q184 0 286.5 86t102.5 231q0 99 -52 169.5t-139.5 107.5t-194.5 37h-437v-631zM262 799h434
q98 0 173 40.5t116.5 109.5t41.5 153q0 144 -100 224t-265 80h-400v-607zM5 361v78h476v-78h-476z" />
    <glyph glyph-name="uni0244" unicode="&#x244;" horiz-adv-x="1386" 
d="M1444 872v-71h-228v-292q0 -152 -71 -271.5t-195 -188t-285 -68.5q-160 0 -284 69t-195 188t-71 271v292h-172v71h172v618h90v-618h920v618h91v-618h228zM1125 801h-920v-288q0 -128 59 -228.5t162.5 -158.5t238.5 -58q136 0 239.5 58t162 158.5t58.5 228.5v288z" />
    <glyph glyph-name="uni0245" unicode="&#x245;" horiz-adv-x="1299" 
d="M1128 0l-479 1365l-476 -1365h-110l536 1490h103l535 -1490h-109z" />
    <glyph glyph-name="uni0246" unicode="&#x246;" horiz-adv-x="1159" 
d="M298 -190l55 190h-192v1490h621l55 188h84l-55 -188h220v-84h-244l-174 -602h347v-84h-371l-184 -636h626v-84h-650l-55 -190h-83zM585 804l173 602h-506v-602h333zM377 84l183 636h-308v-636h125z" />
    <glyph glyph-name="uni0247" unicode="&#x247;" horiz-adv-x="1086" 
d="M78 -418l213 485q-95 71 -148.5 190.5t-53.5 269.5q0 159 60 282.5t165.5 194.5t243.5 71q87 0 163 -29l196 444h78l-208 -476q110 -65 172.5 -188.5t62.5 -282.5v-31h-455l-178 -408q78 -41 173 -41q127 0 224.5 69t128.5 184h89q-23 -101 -87 -176t-156 -117t-199 -42
q-113 0 -206 47l-195 -446h-83zM522 591l166 380q-61 22 -130 22q-106 0 -188.5 -50.5t-133 -141t-58.5 -210.5h344zM754 938l-152 -347h332q-4 117 -52.5 207t-127.5 140zM326 146l161 366h-311q1 -118 40.5 -212.5t109.5 -153.5z" />
    <glyph glyph-name="uni0248" unicode="&#x248;" horiz-adv-x="1090" 
d="M506 -20q-185 0 -296.5 113t-111.5 312v72h91v-72q0 -160 85 -250.5t232 -90.5t232.5 90.5t85.5 250.5v1085h90v-1085q0 -199 -111 -312t-297 -113zM630 845v78h476v-78h-476z" />
    <glyph glyph-name="uni0249" unicode="&#x249;" horiz-adv-x="354" 
d="M135 1056h88v-1213q0 -118 -75.5 -189.5t-188.5 -71.5h-36v81h31q77 0 129 48.5t52 139.5v1205zM-112 595v80h582v-80h-582zM179 1308q-29 0 -49.5 20.5t-20.5 49.5t20.5 49.5t49.5 20.5t49.5 -20.5t20.5 -49.5t-20.5 -49.5t-49.5 -20.5z" />
    <glyph glyph-name="Q_rthook" unicode="&#x24a;" horiz-adv-x="1442" 
d="M1281 1490v-1693q0 -73 30 -104t100 -31h81v-80h-81q-218 0 -218 215v536h-4q-61 -171 -184.5 -262.5t-292.5 -91.5q-183 0 -324.5 97.5t-221.5 270.5t-80 397q0 226 80.5 399t223 270.5t327.5 97.5q167 0 289.5 -90.5t182.5 -263.5h4v333h88zM717 65q148 0 255.5 82.5
t166 234.5t58.5 362t-58.5 362.5t-166 235.5t-254.5 83q-161 0 -283 -86.5t-190.5 -239.5t-68.5 -355t68.5 -354.5t190 -238.5t282.5 -86z" />
    <glyph glyph-name="qrthook" unicode="&#x24b;" horiz-adv-x="1132" 
d="M1131 -418q-217 0 -217 215v443h-1q-41 -114 -144.5 -185.5t-238.5 -71.5q-134 0 -238.5 67.5t-164 190.5t-59.5 287t60 286.5t164.5 190.5t237.5 68q135 0 240.5 -73t142.5 -187h1v243h87v-1259q0 -73 30 -104t100 -31h81v-80h-81zM539 64q171 0 274.5 125.5
t103.5 338.5t-103.5 338.5t-274.5 125.5q-110 0 -196.5 -55.5t-136.5 -159.5t-50 -249t50 -249t136.5 -159.5t196.5 -55.5z" />
    <glyph glyph-name="uni024C" unicode="&#x24c;" horiz-adv-x="1182" 
d="M169 0v622h-193v86h193v782h508q135 0 236.5 -54t159 -151.5t57.5 -229.5q0 -162 -89 -272t-237 -145l341 -638h-105l-331 624q-18 -1 -37 -1h-413v-623h-90zM259 707h417q163 0 263.5 95t100.5 253q0 160 -101 255.5t-264 95.5h-416v-699z" />
    <glyph glyph-name="uni024D" unicode="&#x24d;" horiz-adv-x="579" 
d="M131 0v1056h85v-187h2q36 90 118.5 143t192.5 53q13 0 21.5 -0.5t18.5 -1.5v-87q-8 1 -20.5 2.5t-30.5 1.5q-128 0 -213.5 -84t-85.5 -226v-670h-88zM-114 496v80h582v-80h-582z" />
    <glyph glyph-name="uni024E" unicode="&#x24e;" horiz-adv-x="1181" 
d="M1238 1177v-70h-270l-296 -432v-675h-91v675l-297 432h-339v70h290l-215 313h107l216 -313h568l215 313h106l-215 -313h221zM862 1107h-471l76 -110q41 -59 80.5 -119t79.5 -119q40 59 79.5 119t80.5 119z" />
    <glyph glyph-name="uni024F" unicode="&#x24f;" horiz-adv-x="1015" 
d="M969 805v-76h-119l-378 -935q-47 -118 -103.5 -165t-153.5 -47h-94v81h94q69 0 104.5 32t74.5 128l70 175l-298 731h-120v76h90l-103 251h94l102 -251h559l100 251h93l-101 -251h89zM758 729h-499l144 -356q27 -68 53.5 -136t53.5 -136q26 68 52.5 136t53.5 136z" />
    <glyph glyph-name="aturn" unicode="&#x250;" horiz-adv-x="1023" 
d="M588 1072q96 0 178.5 -33t132.5 -100t50 -170q0 -146 -109.5 -210t-322.5 -92q-144 -19 -221.5 -40t-77.5 -85v-22q0 -110 86 -183.5t217 -73.5q89 0 159.5 33.5t112 90.5t42.5 129h88q-1 -95 -54 -170.5t-143.5 -119t-204.5 -43.5q-112 0 -200.5 43.5t-139 119.5
t-50.5 174v736h87v-195h3q39 90 133 150.5t234 60.5zM580 991q-159 0 -260.5 -95t-101.5 -265v-164q36 31 110.5 47t191.5 33q174 24 257.5 74t83.5 152q0 106 -81 162t-200 56z" />
    <glyph glyph-name="ascript" unicode="&#x251;" horiz-adv-x="1132" 
d="M530 -17q-134 0 -238.5 67.5t-164 190.5t-59.5 287t60 286.5t164.5 190.5t237.5 68q135 0 240.5 -73t142.5 -187h1v243h87v-1056h-87v240h-1q-41 -114 -144.5 -185.5t-238.5 -71.5zM539 64q171 0 274.5 125.5t103.5 338.5t-103.5 338.5t-274.5 125.5q-110 0 -196.5 -55.5
t-136.5 -159.5t-50 -249t50 -249t136.5 -159.5t196.5 -55.5z" />
    <glyph glyph-name="ascriptturn" unicode="&#x252;" horiz-adv-x="1132" 
d="M602 -17q-135 0 -238.5 71.5t-144.5 185.5h-1v-240h-87v1056h87v-243h1q37 114 142.5 187t240.5 73q133 0 237.5 -68t164.5 -190.5t60 -286.5t-59.5 -287t-164 -190.5t-238.5 -67.5zM593 64q110 0 196.5 55.5t136.5 159.5t50 249t-50 249t-136.5 159.5t-196.5 55.5
q-171 0 -274.5 -125.5t-103.5 -338.5t103.5 -338.5t274.5 -125.5z" />
    <glyph glyph-name="uni0253" unicode="&#x253;" horiz-adv-x="1131" 
d="M601 -17q-134 0 -237.5 71.5t-144.5 185.5h-2v-240h-86v1275q0 215 219 215h81v-80h-81q-69 0 -100 -31t-31 -104v-462h1q36 114 141.5 187t239.5 73t238 -68t164 -190.5t60 -286.5t-59.5 -287t-163.5 -190.5t-239 -67.5zM593 64q109 0 195.5 55.5t136.5 159.5t50 249
t-50 249t-136.5 159.5t-195.5 55.5q-171 0 -275 -125.5t-104 -338.5t104 -338.5t275 -125.5z" />
    <glyph glyph-name="uni0254" unicode="&#x254;" horiz-adv-x="951" 
d="M37 320h94q22 -110 116 -183t218 -73q113 0 191.5 61.5t119.5 166t41 232.5v43q0 217 -92.5 349.5t-269.5 132.5q-271 0 -324 -316h-94q26 192 135 296t283 104q144 0 247 -70.5t158 -197.5t55 -298v-43q-1 -154 -56 -277.5t-155.5 -195t-238.5 -71.5q-109 0 -200.5 45
t-152 122t-75.5 173z" />
    <glyph glyph-name="drthook" unicode="&#x256;" horiz-adv-x="1131" 
d="M1130 -418q-217 0 -217 215v443v0q-41 -114 -144.5 -185.5t-238.5 -71.5q-134 0 -238.5 67.5t-164 190.5t-59.5 287t60 286.5t164.5 190.5t237.5 68q135 0 240 -73t141 -187h2v677h87v-1693q0 -73 30.5 -104t99.5 -31h81v-80h-81zM539 64q171 0 274.5 125.5t103.5 338.5
t-103.5 338.5t-274.5 125.5q-110 0 -196.5 -55.5t-136.5 -159.5t-50 -249t50 -249t136.5 -159.5t196.5 -55.5z" />
    <glyph glyph-name="uni0257" unicode="&#x257;" horiz-adv-x="1132" 
d="M530 -17q-134 0 -238.5 67.5t-164 190.5t-59.5 287t60 286.5t164.5 190.5t237.5 68q135 0 240.5 -73t142.5 -187v0v421q0 215 219 215h81v-80h-81q-69 0 -100 -31.5t-31 -103.5v-1234h-87v240h-1q-41 -114 -144.5 -185.5t-238.5 -71.5zM539 64q171 0 274.5 125.5
t103.5 338.5t-103.5 338.5t-274.5 125.5q-110 0 -196.5 -55.5t-136.5 -159.5t-50 -249t50 -249t136.5 -159.5t196.5 -55.5z" />
    <glyph glyph-name="erev" unicode="&#x258;" horiz-adv-x="953" 
d="M442 -20q-132 0 -233.5 59t-158.5 165l73 38q49 -85 131 -131.5t187 -46.5q168 0 267.5 121.5t101.5 341.5h-765v60q0 253 109.5 399.5t298.5 146.5q134 0 236.5 -74.5t160.5 -206.5t58 -305v-16q0 -172 -58 -295.5t-163 -189.5t-245 -66zM808 611q-13 198 -109 318
t-242 120q-145 0 -228 -113.5t-87 -316.5v-8h666z" />
    <glyph glyph-name="uni0259" unicode="&#x259;" horiz-adv-x="1065" 
d="M524 1075q143 0 249 -71t165 -194t59 -281q0 -159 -60 -282.5t-165.5 -194.5t-243.5 -71q-139 0 -243.5 69.5t-162.5 189.5t-58 273v31h846q-1 132 -49.5 233t-135 158.5t-201.5 57.5q-127 0 -224.5 -69t-128.5 -184h-89q23 101 87 176t156 117t199 42zM908 465h-756
q4 -119 53.5 -209.5t133 -141.5t189.5 -51t188.5 50.5t133 141t58.5 210.5z" />
    <glyph glyph-name="uni025A" unicode="&#x25a;" horiz-adv-x="1358" 
d="M528 -19q-139 0 -243.5 69.5t-162.5 189.5t-58 273v10l836 126q-27 155 -127 249.5t-249 94.5q-127 0 -224.5 -69t-128.5 -184h-89q23 101 87 176t156 117t199 42q183 0 305.5 -115t155.5 -300l135 21q17 -142 50 -200t97 -58q32 0 68 11l18 -69q-49 -18 -94 -18
q-86 0 -135 61.5t-70 183.5l-59 -9q2 -27 2 -54q0 -159 -60 -282.5t-165.5 -194.5t-243.5 -71zM909 571l-757 -114q6 -117 56 -206t132.5 -138.5t187.5 -49.5q113 0 199 56.5t134.5 158t48.5 233.5v26q0 17 -1 34z" />
    <glyph glyph-name="epsilon1" unicode="&#x25b;" horiz-adv-x="934" 
d="M463 -19q-172 0 -278 85t-106 225q0 99 55.5 162t155.5 92q-189 55 -189 230q0 133 102.5 216.5t268.5 83.5t262.5 -87.5t106.5 -235.5h-85q-10 114 -83 178.5t-201 64.5t-205.5 -61t-77.5 -159q0 -189 292 -189h82v-80h-88q-138 0 -223.5 -50.5t-85.5 -160.5
q0 -106 80.5 -170t218.5 -64q140 0 218.5 68.5t85.5 186.5h87q-7 -156 -113.5 -245.5t-279.5 -89.5z" />
    <glyph glyph-name="epsilon1rev" unicode="&#x25c;" horiz-adv-x="934" 
d="M471 -19q-173 0 -279 89.5t-114 245.5h87q7 -118 85.5 -186.5t218.5 -68.5q138 0 218.5 64t80.5 170q0 110 -85.5 160.5t-223.5 50.5h-88v80h82q292 0 292 189q0 98 -77.5 159t-205.5 61t-201 -64.5t-83 -178.5h-85q10 148 106.5 235.5t262.5 87.5t268.5 -83.5
t102.5 -216.5q0 -175 -189 -230q100 -29 155.5 -92t55.5 -162q0 -140 -106 -225t-278 -85z" />
    <glyph glyph-name="epsilon1revhook" unicode="&#x25d;" horiz-adv-x="1198" 
d="M1099 473q-86 0 -133 53.5t-68 174.5l-126 -85q-46 -47 -128 -71q100 -29 155.5 -92t55.5 -162q0 -140 -106 -225t-278 -85q-173 0 -279 89.5t-114 245.5h87q7 -118 85.5 -186.5t218.5 -68.5q138 0 218.5 64t80.5 170q0 110 -85.5 160.5t-223.5 50.5h-88v80h82
q292 0 292 189q0 98 -77.5 159t-205.5 61t-201 -64.5t-83 -178.5h-85q10 148 106.5 235.5t262.5 87.5t268.5 -83.5t102.5 -216.5q0 -18 -2 -35l124 82q20 -155 51.5 -214.5t95.5 -59.5q37 0 72 11l19 -68q-49 -18 -94 -18z" />
    <glyph glyph-name="epsilon1revclosed" unicode="&#x25e;" horiz-adv-x="962" 
d="M499 -19q-127 0 -224 54.5t-152 175t-55 317.5q0 201 55.5 321t151.5 173t216 53q166 0 268 -83.5t102 -216.5q0 -175 -189 -230q100 -29 156 -92t56 -162q0 -140 -106.5 -225t-278.5 -85zM418 568v18h64q292 0 292 189q0 98 -77.5 159t-205.5 61q-93 0 -169.5 -42
t-121.5 -144t-45 -281q0 -176 44 -278.5t121 -145.5t178 -43q138 0 218 64t80 170q0 110 -85.5 160.5t-223.5 50.5h-69v62z" />
    <glyph glyph-name="jdotlessbar" unicode="&#x25f;" horiz-adv-x="354" 
d="M135 1056h88v-1213q0 -118 -75.5 -189.5t-188.5 -71.5h-36v81h31q77 0 129 48.5t52 139.5v1205zM-112 595v80h582v-80h-582z" />
    <glyph glyph-name="uni0260" unicode="&#x260;" horiz-adv-x="1131" 
d="M548 -429q-184 0 -293 85.5t-134 231.5h89q25 -109 109.5 -172.5t228.5 -63.5q176 0 270.5 94t94.5 254v240h-1q-41 -114 -144 -185.5t-238 -71.5q-134 0 -238.5 67.5t-164 190.5t-59.5 287t60 286.5t164.5 190.5t237.5 68q134 0 239.5 -72.5t143.5 -189.5v423
q0 215 218 215h82v-80h-82q-69 0 -100 -31.5t-31 -103.5v-1234q0 -207 -123.5 -318t-328.5 -111zM539 64q171 0 274.5 125.5t103.5 338.5t-103.5 338.5t-274.5 125.5q-110 0 -196.5 -55.5t-136.5 -159.5t-50 -249t50 -249t136.5 -159.5t196.5 -55.5z" />
    <glyph glyph-name="gcursive" unicode="&#x261;" horiz-adv-x="1131" 
d="M548 -429q-184 0 -293 85.5t-134 231.5h89q25 -109 109.5 -172.5t228.5 -63.5q176 0 270.5 94t94.5 254v240h-1q-41 -114 -144 -185.5t-238 -71.5q-134 0 -238.5 67.5t-164 190.5t-59.5 287t60 286.5t164.5 190.5t237.5 68q135 0 240 -73t143 -190h1v246h86v-1056
q0 -207 -123.5 -318t-328.5 -111zM539 64q171 0 274.5 125.5t103.5 338.5t-103.5 338.5t-274.5 125.5q-110 0 -196.5 -55.5t-136.5 -159.5t-50 -249t50 -249t136.5 -159.5t196.5 -55.5z" />
    <glyph glyph-name="g.sc" unicode="&#x262;" horiz-adv-x="1057" 
d="M541 -14q-143 0 -251 68.5t-168.5 190.5t-60.5 282q0 163 61 285.5t168.5 190t248.5 67.5q125 0 218 -50.5t150 -131t71 -169.5h-88q-14 69 -59.5 130.5t-119 100.5t-171.5 39q-117 0 -205 -57.5t-137 -161.5t-49 -243q0 -137 48.5 -240.5t137 -161.5t207.5 -58
q158 0 256.5 98t100.5 264h-336v75h423v-70q0 -134 -56.5 -234.5t-157 -157t-231.5 -56.5z" />
    <glyph glyph-name="gamma1" unicode="&#x263;" horiz-adv-x="1021" 
d="M508 -442q-90 0 -147.5 48t-57.5 126q0 38 23.5 101.5t83.5 193.5l50 106l-461 985h96l415 -879l413 879h98l-461 -987l45 -94q61 -131 82.5 -198t21.5 -103q0 -81 -55.5 -129.5t-145.5 -48.5zM511 24q-60 -129 -87.5 -194t-27.5 -98q0 -37 33 -62.5t79 -25.5
q47 0 79 25.5t32 62.5q0 34 -27 103.5t-81 188.5z" />
    <glyph glyph-name="babygamma" unicode="&#x264;" horiz-adv-x="1389" 
d="M159 937l-62 64q41 61 98 96.5t127 35.5q67 0 122 -40t114 -127.5t136 -231.5q78 144 137 232t114.5 127.5t122.5 39.5q70 0 126.5 -35.5t98.5 -96.5l-63 -64q-62 100 -151 100q-50 0 -93 -34.5t-97.5 -123t-139.5 -248.5q99 -190 138 -292t39 -164q0 -88 -63 -141.5
t-169 -53.5q-105 0 -168 53.5t-63 141.5q0 62 39 163.5t137 291.5l-16 32q-76 145 -126.5 226.5t-93 115t-93.5 33.5q-88 0 -151 -100zM694 523q-78 -154 -105.5 -230.5t-27.5 -114.5q0 -49 35 -80.5t98 -31.5t98.5 31.5t35.5 80.5q0 36 -27.5 111t-106.5 234z" />
    <glyph glyph-name="hturn" unicode="&#x265;" horiz-adv-x="1085" 
d="M867 391v665h87v-1490h-87v616q-51 -101 -143.5 -150t-202.5 -49q-112 0 -200 47.5t-139 136t-51 212.5v677h88v-673q0 -148 85.5 -233t226.5 -85q95 0 171 39.5t120.5 113t44.5 173.5z" />
    <glyph glyph-name="uni0266" unicode="&#x266;" horiz-adv-x="1085" 
d="M219 665v-665h-88v1234q0 215 219 215h81v-80h-81q-69 0 -100 -31.5t-31 -103.5v-360q50 101 142.5 150t203.5 49q112 0 200 -47.5t138.5 -136t50.5 -212.5v-677h-87v673q0 148 -86 233t-227 85q-95 0 -171 -39.5t-120 -112.5t-44 -174z" />
    <glyph glyph-name="uni0267" unicode="&#x267;" horiz-adv-x="1085" 
d="M737 -418h-82v80h82q69 0 99.5 31t30.5 104v876q0 148 -86 233t-227 85q-95 0 -171 -39.5t-120 -112.5t-44 -174v-665h-88v1234q0 215 219 215h81v-80h-81q-69 0 -100 -31.5t-31 -103.5v-360q50 101 142.5 150t203.5 49q112 0 200 -47.5t138.5 -136t50.5 -212.5v-880
q0 -215 -217 -215z" />
    <glyph glyph-name="ibar" unicode="&#x268;" horiz-adv-x="350" 
d="M131 0v1056h88v-1056h-88zM175 1308q-29 0 -49.5 20.5t-20.5 49.5t20.5 49.5t49.5 20.5t49.5 -20.5t20.5 -49.5t-20.5 -49.5t-49.5 -20.5zM-115 546v80h582v-80h-582z" />
    <glyph glyph-name="iota" unicode="&#x3b9;" horiz-adv-x="397" 
d="M339 0q-108 0 -158 47.5t-50 149.5v859h88v-853q0 -69 27 -96.5t95 -27.5h27v-79h-29z" />
    <glyph glyph-name="iota" unicode="&#x269;" horiz-adv-x="397" 
d="M339 0q-108 0 -158 47.5t-50 149.5v859h88v-853q0 -69 27 -96.5t95 -27.5h27v-79h-29z" />
    <glyph glyph-name="lmidtilde" unicode="&#x26b;" horiz-adv-x="350" 
d="M219 1490v-1490h-88v1490h88zM308 656q-53 0 -93.5 26.5t-76 52.5t-74.5 26q-41 0 -66 -28t-28 -72h-72q5 75 46 124t109 49q59 0 99 -26.5t73 -53.5t72 -27q73 0 91 98h71q-9 -78 -49 -123.5t-102 -45.5z" />
    <glyph glyph-name="uni026C" unicode="&#x26c;" horiz-adv-x="667" 
d="M662 612h-162v-612h-88v612h-138q-112 0 -191 68t-79 173q0 66 33.5 120.5t89.5 86.5t124 32q96 0 161 -53v451h88v-794h162v-84zM412 835q0 74 -40.5 125t-122.5 51q-58 0 -105.5 -46.5t-47.5 -111.5t51.5 -111t127.5 -46h137v139z" />
    <glyph glyph-name="lrthook" unicode="&#x26d;" horiz-adv-x="350" 
d="M349 -418q-218 0 -218 215v1693h88v-1693q0 -73 30 -104t100 -31h81v-80h-81z" />
    <glyph glyph-name="lyogh" unicode="&#x26e;" horiz-adv-x="1103" 
d="M169 1490h88v-372h718v-69l-423 -541v-8q133 -9 236.5 -64t162.5 -154.5t59 -245.5q0 -142 -57 -250t-161 -169t-245 -61q-104 0 -193.5 34t-152.5 94l55 73q51 -54 126.5 -85.5t166.5 -31.5q172 0 271.5 111t99.5 285q0 183 -111.5 285.5t-289.5 102.5h-78v79l408 522v8
h-592v-1033h-88v1490z" />
    <glyph glyph-name="mturn" unicode="&#x26f;" horiz-adv-x="1670" 
d="M1539 1056v-1056h-86v184q-46 -100 -136.5 -150.5t-189.5 -50.5q-112 0 -195 60t-115 159q-39 -99 -130 -159t-212 -60q-153 0 -248.5 100t-95.5 284v689h88v-689q0 -149 76 -225.5t196 -76.5q129 0 214.5 82.5t85.5 225.5v683h88v-695q0 -140 73.5 -218t192.5 -78
q85 0 154.5 39.5t110.5 111t41 167.5v673h88z" />
    <glyph glyph-name="mturndescend" unicode="&#x270;" horiz-adv-x="1670" 
d="M1453 -418v602q-46 -100 -136.5 -150.5t-189.5 -50.5q-112 0 -195 60t-115 159q-39 -99 -130 -159t-212 -60q-153 0 -248.5 100t-95.5 284v689h88v-689q0 -149 76 -225.5t196 -76.5q129 0 214.5 82.5t85.5 225.5v683h88v-695q0 -140 73.5 -218t192.5 -78q85 0 154.5 39.5
t110.5 111t41 167.5v673h88v-1474h-86z" />
    <glyph glyph-name="uni0271" unicode="&#x271;" horiz-adv-x="1670" 
d="M1322 -418h-82v80h81q70 0 100 31t30 104v892q0 149 -76 225.5t-196 76.5q-129 0 -214.5 -82.5t-85.5 -225.5v-683h-88v695q0 140 -73.5 218t-192.5 78q-85 0 -154.5 -39.5t-110.5 -111t-41 -167.5v-673h-88v1056h86v-184q46 100 136.5 150.5t189.5 50.5q112 0 195 -60
t115 -159q39 99 130 159t212 60q153 0 248.5 -100t95.5 -284v-892q0 -215 -217 -215z" />
    <glyph glyph-name="nlfthook" unicode="&#x272;" horiz-adv-x="1085" 
d="M2 -418h-82v80h81q70 0 100 31t30 104v1259h86v-185q51 102 143.5 152t204.5 50t200 -47.5t138.5 -136t50.5 -212.5v-677h-87v673q0 148 -86 233t-227 85q-95 0 -171 -39.5t-120 -112.5t-44 -174v-868q0 -215 -217 -215z" />
    <glyph glyph-name="nrthook" unicode="&#x273;" horiz-adv-x="1085" 
d="M1084 -418q-217 0 -217 215v876q0 148 -86 233t-227 85q-95 0 -171 -39.5t-120 -112.5t-44 -174v-665h-88v1056h86v-185q51 102 143.5 152t204.5 50t200 -47.5t138.5 -136t50.5 -212.5v-880q0 -73 30 -104t100 -31h81v-80h-81z" />
    <glyph glyph-name="obar" unicode="&#x275;" horiz-adv-x="1080" 
d="M541 -19q-140 0 -246.5 70.5t-166.5 194t-60 281.5q0 159 60 282.5t166.5 194.5t246.5 71q139 0 245.5 -71t166 -194.5t59.5 -282.5q0 -158 -59.5 -281.5t-166 -194t-245.5 -70.5zM541 63q109 0 192.5 53.5t133 149.5t56.5 222h-766q7 -126 56.5 -222t133.5 -149.5
t194 -53.5zM157 568h766q-7 126 -57 222t-133.5 149.5t-191.5 53.5q-109 0 -193 -53.5t-134 -149.5t-57 -222z" />
    <glyph glyph-name="omegaclosed" unicode="&#x277;" horiz-adv-x="1391" 
d="M696 1133q226 0 377.5 -78t227.5 -217t76 -323q0 -148 -43 -269t-126.5 -193t-205.5 -73q-114 -1 -192.5 66.5t-114.5 192.5q-35 -125 -113.5 -192.5t-192.5 -66.5q-122 1 -205.5 73t-126.5 193t-43 269q0 184 76 323t227 217t378 78v0h0.5h0.5zM695 1049
q-294 0 -438 -140.5t-144 -391.5q0 -123 33.5 -226t96.5 -165t152 -62q109 0 180.5 102t71.5 290v192h96v-192q1 -188 72 -290t180 -102q89 0 152.5 62t97 165t32.5 226q0 251 -144 391.5t-438 140.5z" />
    <glyph glyph-name="philatin" unicode="&#x278;" horiz-adv-x="1027" 
d="M99 544v24q-1 148 46 269.5t130 198.5t190 93v361h96v-361q109 -16 192 -93t129.5 -198t46.5 -270v-24q1 -149 -46 -270.5t-130 -198t-192 -92.5v-379h-96v379q-107 16 -190 93.5t-130 198.5t-46 269zM561 1043v-974q81 17 142 83.5t95 168t34 223.5v24q0 121 -34 223
t-95 168.5t-142 83.5zM196 568v-24q0 -122 34 -223.5t94.5 -168t140.5 -83.5v974q-80 -17 -140.5 -84t-94.5 -168t-34 -223z" />
    <glyph glyph-name="rturn" unicode="&#x279;" horiz-adv-x="579" 
d="M447 1056v-1056h-84v187h-2q-36 -90 -118.5 -143t-192.5 -53q-14 0 -22.5 0.5t-17.5 1.5v87l20 -2.5t31 -1.5q127 0 213 84t86 226v670h87z" />
    <glyph glyph-name="rturnascend" unicode="&#x27a;" horiz-adv-x="577" 
d="M65 -7v92q38 -8 69 -8q108 0 180.5 62.5t96.5 164.5v1232h100v-1536h-92l-6 165q-40 -83 -111.5 -132t-168.5 -49q-39 0 -68 9z" />
    <glyph glyph-name="rturnrthook" unicode="&#x27b;" horiz-adv-x="579" 
d="M577 -418q-214 0 -214 215v390h-2q-36 -90 -118.5 -143t-192.5 -53q-14 0 -22.5 0.5t-17.5 1.5v87l20 -2.5t31 -1.5q127 0 213 84t86 226v670h87v-1259q0 -73 30.5 -104t99.5 -31h82v-80h-82z" />
    <glyph glyph-name="uni027E" unicode="&#x27e;" horiz-adv-x="579" 
d="M131 0v699q0 130 51.5 210.5t138 117.5t192.5 37q21 0 34.5 -0.5t21.5 -1.5v-84q-10 0 -21.5 0.5t-29.5 0.5q-131 0 -215 -62.5t-84 -217.5v-699h-88z" />
    <glyph glyph-name="rfishhookrev" unicode="&#x27f;" horiz-adv-x="579" 
d="M447 0h-87v699q0 155 -84 217.5t-215 62.5q-18 0 -30 -0.5t-21 -0.5v84q8 1 21 1.5t34 0.5q106 0 193 -37t138 -117.5t51 -210.5v-699z" />
    <glyph glyph-name="srthook" unicode="&#x282;" horiz-adv-x="934" 
d="M295 -418q-216 0 -216 215v519h86q7 -118 85.5 -186t219.5 -68q138 0 218 63t80 164q0 78 -53.5 116.5t-151.5 61.5l-179 42q-139 33 -211 95.5t-72 170.5q0 133 101.5 215.5t265.5 82.5q162 0 261.5 -88t108.5 -245h-86q-10 121 -82.5 187.5t-201.5 66.5
q-127 0 -203.5 -61t-76.5 -158q0 -78 55 -120.5t158 -66.5l180 -42q136 -32 205.5 -89.5t69.5 -165.5q0 -140 -106.5 -224t-278.5 -84q-201 0 -308 116v-302q0 -73 31.5 -104t100.5 -31h82v-80h-82z" />
    <glyph glyph-name="uni0283" unicode="&#x283;" horiz-adv-x="615" 
d="M19 -478q-52 0 -96 10l9 82q42 -8 87 -8q79 0 133 50.5t54 144.5v1484q0 136 79 213t200 77q56 0 104 -10l-11 -83q-45 9 -93 9q-82 0 -137 -53.5t-55 -152.5v-1484q0 -132 -78 -205.5t-196 -73.5z" />
    <glyph glyph-name="jhookdblbar" unicode="&#x284;" horiz-adv-x="615" 
d="M19 -478q-52 0 -96 10l9 82q42 -8 87 -8q79 0 133 50.5t54 144.5v1484q0 136 79 213t200 77q56 0 104 -10l-11 -83q-45 9 -93 9q-82 0 -137 -53.5t-55 -152.5v-1484q0 -132 -78 -205.5t-196 -73.5zM-41 0v80h582v-80h-582z" />
    <glyph glyph-name="uni0286" unicode="&#x286;" horiz-adv-x="931" 
d="M521 -2v1287q0 136 79.5 213t200.5 77q55 0 103 -10l-10 -83q-45 9 -93 9q-82 0 -137 -53.5t-55 -152.5v-1370q39 -45 81 -105l120 -147l-63 -54l-134 160q-6 10 -12 18q-21 -87 -89.5 -143.5t-177.5 -56.5q-116 0 -191 66t-75 173q0 108 76 174t188 66q100 0 189 -68z
M521 -110q-91 99 -190 95q-73 -2 -123 -45.5t-50 -113.5q0 -72 50 -115.5t126 -43.5q80 0 133.5 49.5t53.5 136.5v37z" />
    <glyph glyph-name="tturn" unicode="&#x287;" horiz-adv-x="527" 
d="M350 -288h-87v288h-226v79h226v758q0 73 -33.5 106.5t-108.5 33.5h-84v79h90q223 0 223 -213v-764h172v-79h-172v-288z" />
    <glyph glyph-name="trthook" unicode="&#x288;" horiz-adv-x="561" 
d="M429 -425q-111 0 -187 68.5t-76 184.5v1149h-161v79h161v288h87v-288h226v-79h-226v-1140q0 -88 51.5 -135t129.5 -47q22 0 41.5 3t39.5 7l9 -78q-46 -12 -95 -12z" />
    <glyph glyph-name="uni0289" unicode="&#x289;" horiz-adv-x="1194" 
d="M1189 600v-79h-181v-521h-86v185q-50 -102 -143 -152t-204 -50q-112 0 -200 47.5t-138.5 136t-50.5 212.5v142h-181v79h181v456h87v-456h648v456h87v-456h181zM921 521h-648v-138q0 -148 86 -233t227 -85q95 0 171 39.5t120 113t44 173.5v130z" />
    </font>
</defs>
</svg>
