<?xml version="1.0" standalone="no"?>
<!DOCTYPE svg PUBLIC "-//W3C//DTD SVG 1.1//EN" "http://www.w3.org/Graphics/SVG/1.1/DTD/svg11.dtd" >
<svg xmlns="http://www.w3.org/2000/svg" xmlns:xlink="http://www.w3.org/1999/xlink" version="1.1">
<metadata>
Created by FontForge 20201107 at Mon Nov 20 03:07:39 2023
 By 
Copyright 2016 The Inter Project Authors
</metadata>
<defs>
<font id="InterDisplay-MediumItalic" horiz-adv-x="0" >
  <font-face 
    font-family="Inter Display Medium"
    font-weight="500"
    font-style="italic"
    font-stretch="normal"
    units-per-em="2048"
    panose-1="2 0 6 3 0 0 0 2 0 4"
    ascent="1638"
    descent="-410"
    x-height="1056"
    cap-height="1490"
    bbox="-1587 -676 5296 2289"
    underline-thickness="162"
    underline-position="-267"
    slope="-9.39999"
    unicode-range="U+0020-1F852"
  />
<missing-glyph horiz-adv-x="1344" 
d="M860 -416h-688l376 2272h688zM478 320l-42 -256h320l42 256h-320zM542 704l-43 -256h320l43 256h-192l-22 -128h64l11 64h64l-21 -128h-192l32 192h-64zM393 -192l-10 -64h320l10 64h-215l236 127l11 65h-320l-11 -64h216zM658 1408l-37 -224h320l11 64h-128l26 160h-192
zM679 1536l-10 -64h320l10 64h-144l16 96h144l11 64h-320l-11 -64h112l-16 -96h-112zM584 960l-11 -64h192l27 160h128l10 64h-320l-10 -64h128l-16 -96h-128zM563 832l-11 -64h320l37 224h-64l-26 -160h-256zM702 128h-192l21 128h192zM760 1248h-64l15 96h64z" />
    <glyph glyph-name=".notdef" horiz-adv-x="1344" 
d="M860 -416h-688l376 2272h688zM478 320l-42 -256h320l42 256h-320zM542 704l-43 -256h320l43 256h-192l-22 -128h64l11 64h64l-21 -128h-192l32 192h-64zM393 -192l-10 -64h320l10 64h-215l236 127l11 65h-320l-11 -64h216zM658 1408l-37 -224h320l11 64h-128l26 160h-192
zM679 1536l-10 -64h320l10 64h-144l16 96h144l11 64h-320l-11 -64h112l-16 -96h-112zM584 960l-11 -64h192l27 160h128l10 64h-320l-10 -64h128l-16 -96h-128zM563 832l-11 -64h320l37 224h-64l-26 -160h-256zM702 128h-192l21 128h192zM760 1248h-64l15 96h64z" />
    <glyph glyph-name=".null" horiz-adv-x="216" 
 />
    <glyph glyph-name="nonmarkingreturn" horiz-adv-x="682" 
 />
    <glyph glyph-name="space" unicode=" " horiz-adv-x="488" 
 />
    <glyph glyph-name="exclam" unicode="!" horiz-adv-x="468" 
d="M117 413l162 1077h229l-197 -1077h-194zM155 -17q-63 0 -100 45t-27 108q9 54 52 90.5t98 36.5q63 0 100 -45.5t26 -108.5q-9 -54 -52 -90t-97 -36z" />
    <glyph glyph-name="quotedbl" unicode="&#x22;" horiz-adv-x="873" 
d="M260 965l64 525h202l-110 -525h-156zM601 965l64 525h202l-110 -525h-156z" />
    <glyph glyph-name="numbersign" unicode="#" horiz-adv-x="1245" 
d="M588 0l133 401h-353l-131 -401h-171l132 401h-218l57 170h217l114 346h-215l57 172h215l132 401h170l-132 -401h353l133 401h170l-132 -401h217l-56 -172h-218l-114 -346h216l-57 -170h-215l-132 -401h-172zM425 571h352l114 346h-352z" />
    <glyph glyph-name="dollar" unicode="$" horiz-adv-x="1285" 
d="M433 -221l34 203q-220 26 -326.5 158t-71.5 343h220q-20 -127 34.5 -206.5t175.5 -100.5l83 502l-14 4q-217 54 -306.5 152.5t-62.5 258.5q29 177 170 289.5t351 128.5l33 200h170l-34 -203q196 -26 294 -148t71 -316h-213q10 108 -38.5 177.5t-145.5 89.5l-78 -471
l37 -9q215 -54 307.5 -157t65.5 -268q-31 -183 -180 -298t-373 -130l-33 -199h-170zM669 175q122 18 203 82t97 160q13 80 -37 131.5t-187 88.5zM616 882l71 430q-107 -19 -181 -81.5t-88 -149.5q-12 -72 32.5 -118t165.5 -81z" />
    <glyph glyph-name="percent" unicode="%" horiz-adv-x="1793" 
d="M495 786q-145 0 -217 98.5t-47 250.5l5 30q17 101 70.5 180t133.5 124t176 45q144 0 215.5 -99t46.5 -250l-5 -30q-16 -101 -69 -180t-133 -124t-176 -45zM1251 -24q-145 0 -217.5 98.5t-47.5 250.5l5 30q17 101 70.5 180t133.5 124t177 45q143 0 215 -98.5t47 -250.5
l-5 -30q-17 -101 -70 -180t-132.5 -124t-175.5 -45zM200 0l1271 1490h189l-1271 -1490h-189zM1276 124q68 0 116.5 52.5t64.5 148.5l5 30q16 96 -15.5 149t-99.5 53q-69 0 -118 -53t-65 -149l-5 -30q-16 -96 16 -148.5t101 -52.5zM520 933q68 0 117 53t64 149l5 30
q16 96 -15 149t-100 53q-68 0 -117.5 -53t-65.5 -149l-5 -30q-15 -96 16.5 -149t100.5 -53z" />
    <glyph glyph-name="ampersand" unicode="&#x26;" horiz-adv-x="1342" 
d="M470 -21q-148 0 -250 55.5t-148 152.5t-25 224q12 72 48 132.5t110 124t199 144.5q-72 115 -98.5 192.5t-12.5 165.5q26 150 141 242.5t279 92.5q113 0 191.5 -43.5t114.5 -120t20 -174.5q-15 -90 -75 -171t-170 -153l-125 -82l236 -347q42 59 72 125t42 135h194
q-21 -126 -69 -234.5t-125 -193.5l168 -246h-238l-78 115q-82 -66 -189 -101t-212 -35zM767 270l-260 385l-51 -33q-95 -63 -143 -118t-57 -120q-13 -91 51.5 -158t173.5 -67q73 0 146.5 29.5t139.5 81.5zM566 915l128 81q135 85 150 188q9 60 -30.5 101.5t-109.5 41.5
q-79 0 -142.5 -52t-75.5 -137q-6 -46 11 -93.5t69 -129.5z" />
    <glyph glyph-name="quotesingle" unicode="'" horiz-adv-x="532" 
d="M260 965l64 525h202l-110 -525h-156z" />
    <glyph glyph-name="parenleft" unicode="(" horiz-adv-x="634" 
d="M149 592q29 171 89 352t141 343.5t171 278.5h204q-94 -145 -173 -311t-135.5 -336t-82.5 -327q-35 -211 -13.5 -424t97.5 -462h-205q-172 407 -93 886z" />
    <glyph glyph-name="parenright" unicode=")" horiz-adv-x="634" 
d="M-84 -294q158 249 250 462t127 424q25 157 25 327t-24 336t-70 311h204q52 -116 79 -278.5t27.5 -343.5t-28.5 -352q-39 -235 -137 -461t-249 -425h-204z" />
    <glyph glyph-name="asterisk" unicode="*" horiz-adv-x="1006" 
d="M445 652l65 308l-287 -167l-56 136l298 141l-252 141l102 138l232 -167l37 308h156l-65 -308l288 167l55 -138l-298 -141l251 -141l-100 -136l-232 167l-38 -308h-156z" />
    <glyph glyph-name="plus" unicode="+" horiz-adv-x="1305" 
d="M485 96l66 394h-395l32 193h395l65 394h191l-65 -394h395l-32 -193h-395l-65 -394h-192z" />
    <glyph glyph-name="comma" unicode="," horiz-adv-x="467" 
d="M-82 -291l168 511h215l-232 -511h-151z" />
    <glyph glyph-name="hyphen" unicode="-" horiz-adv-x="890" 
d="M803 694l-32 -186h-660l31 186h661z" />
    <glyph glyph-name="period" unicode="." horiz-adv-x="467" 
d="M155 -17q-63 0 -100 45t-27 108q9 54 52 90.5t98 36.5q63 0 100 -45.5t26 -108.5q-9 -54 -52 -90t-97 -36z" />
    <glyph glyph-name="slash" unicode="/" horiz-adv-x="692" 
d="M852 1560l-775 -1784h-191l776 1784h190z" />
    <glyph glyph-name="zero" unicode="0" horiz-adv-x="1281" 
d="M550 -24q-173 0 -283 94t-149.5 266.5t-0.5 407.5q39 236 136 409t238 267t314 94q172 0 282 -94t149 -267t0 -409q-38 -235 -135 -407.5t-238 -266.5t-313 -94zM581 165q163 0 282 154.5t163 424.5q45 271 -23 426t-230 155q-163 0 -282 -155t-164 -426
q-44 -270 24 -424.5t230 -154.5z" />
    <glyph glyph-name="one" unicode="1" horiz-adv-x="762" 
d="M785 1490l-247 -1490h-215l211 1272h-1l-404 -238l36 212l411 244h209z" />
    <glyph glyph-name="two" unicode="2" horiz-adv-x="1172" 
d="M-8 0l29 176l615 478q97 77 164.5 138.5t106.5 121.5t51 132q22 132 -36 205.5t-195 73.5q-134 0 -235 -88t-126 -239h-206q25 153 104.5 269t200.5 181.5t269 65.5q149 0 254.5 -57t153.5 -160t25 -241q-24 -146 -119 -266t-278 -263l-429 -336l-1 -2h691l-30 -189
h-1009z" />
    <glyph glyph-name="three" unicode="3" horiz-adv-x="1241" 
d="M536 -24q-164 0 -274.5 65t-158.5 178t-24 257h219q-24 -149 42 -232t215 -83q95 0 173.5 32t130 89t63.5 130q20 117 -63.5 188.5t-236.5 71.5h-124l30 181h124q137 0 230.5 66t111.5 174q18 106 -46 171.5t-192 65.5q-131 0 -223.5 -74t-113.5 -204h-213
q23 135 102.5 239.5t201.5 163.5t270 59q142 0 245.5 -53t153.5 -144.5t31 -206.5q-20 -123 -109.5 -213.5t-220.5 -124.5v-3q144 -23 213 -124t47 -238q-21 -124 -106 -221t-214 -153.5t-284 -56.5z" />
    <glyph glyph-name="four" unicode="4" horiz-adv-x="1293" 
d="M25 347l29 178l854 965h272l-158 -957h216l-30 -186h-217l-58 -347h-211l58 347h-755zM810 533l120 724h-2l-638 -722v-2h520z" />
    <glyph glyph-name="five" unicode="5" horiz-adv-x="1195" 
d="M524 -21q-149 0 -259.5 59.5t-167 164t-40.5 238.5h217q-10 -120 59.5 -197.5t197.5 -77.5q90 0 167 41.5t129.5 115t68.5 167.5q23 141 -39 232.5t-192 91.5q-115 0 -208.5 -46.5t-139.5 -134.5h-209l191 857h892l-32 -190h-692l-106 -439h2q78 70 159.5 104.5
t181.5 34.5q139 0 239 -64.5t145.5 -178.5t20.5 -263q-25 -151 -104.5 -267t-202.5 -182t-278 -66z" />
    <glyph glyph-name="six" unicode="6" horiz-adv-x="1218" 
d="M547 -24q-257 0 -376.5 188.5t-62.5 528.5q41 249 128.5 433.5t224.5 286t327 101.5q135 0 234.5 -51.5t151 -143.5t45.5 -212h-213q-2 101 -55 161t-161 60q-122 0 -215 -69t-154.5 -190t-87.5 -279h2q66 86 164.5 135.5t216.5 49.5q139 0 241 -64.5t149 -176t23 -254.5
q-24 -149 -104.5 -262.5t-203 -177.5t-274.5 -64zM553 163q88 0 165.5 42.5t130 114t67.5 160.5q15 88 -12.5 158.5t-86.5 112t-140 41.5q-92 0 -169.5 -40t-129.5 -111t-67 -163q-14 -87 14 -158.5t87.5 -114t140.5 -42.5z" />
    <glyph glyph-name="seven" unicode="7" horiz-adv-x="1080" 
d="M56 0l871 1297v1h-751l32 192h983l-33 -198l-864 -1292h-238z" />
    <glyph glyph-name="eight" unicode="8" horiz-adv-x="1214" 
d="M524 -24q-155 0 -267 54t-165.5 149t-32.5 218q16 95 67.5 175t127.5 134.5t165 69.5v2q-105 26 -157 119t-33 216q20 116 93.5 206.5t187 142.5t250.5 52q138 0 238 -51.5t148 -142.5t29 -207q-14 -82 -57.5 -152.5t-107 -119.5t-138.5 -67v-2q124 -27 193 -131t46 -244
q-21 -123 -101.5 -218t-205.5 -149t-280 -54zM539 157q137 0 235 69t117 184q20 117 -50 192.5t-203 75.5q-137 0 -237.5 -75t-119.5 -193q-19 -114 50 -183.5t208 -69.5zM654 857q115 0 200.5 65.5t103.5 173.5q18 106 -39 171t-173 65q-117 0 -202 -66t-104 -170
q-17 -107 40.5 -173t173.5 -66z" />
    <glyph glyph-name="nine" unicode="9" horiz-adv-x="1219" 
d="M506 -24q-136 0 -238 51.5t-156.5 143.5t-47.5 212h213q3 -101 61 -161t166 -60q122 0 213 69t150.5 190t86.5 279h-2q-67 -86 -164.5 -132.5t-215.5 -46.5q-138 0 -239 64t-148 175t-24 253q25 149 105 262t202.5 176t273.5 63q258 0 377.5 -187t62.5 -527
q-41 -249 -127.5 -434t-222.5 -287.5t-326 -102.5zM621 705q85 0 161.5 41t129 111.5t67.5 157.5q14 88 -14.5 158.5t-90 112t-145.5 41.5q-85 0 -160.5 -41.5t-127.5 -112.5t-66 -160q-15 -88 12.5 -157.5t88.5 -110t145 -40.5z" />
    <glyph glyph-name="colon" unicode=":" horiz-adv-x="468" 
d="M156 -17q-63 0 -100 45t-27 108q9 54 52 90.5t98 36.5q63 0 100 -45.5t26 -108.5q-9 -54 -52 -90t-97 -36zM280 739q-63 0 -100 45t-27 108q9 54 52 90.5t98 36.5q63 0 100 -45.5t26 -108.5q-9 -54 -52 -90t-97 -36z" />
    <glyph glyph-name="semicolon" unicode=";" horiz-adv-x="472" 
d="M-82 -291l168 511h215l-232 -511h-151zM285 739q-63 0 -100 45t-27 108q9 54 52 90.5t98 36.5q63 0 100 -45.5t26 -108.5q-9 -54 -52 -90t-97 -36z" />
    <glyph glyph-name="less" unicode="&#x3c;" horiz-adv-x="1305" 
d="M145 507l27 158l1041 470l-36 -220l-761 -323l-2 -13l654 -323l-36 -219z" />
    <glyph glyph-name="equal" unicode="=" horiz-adv-x="1305" 
d="M144 269l31 189h929l-31 -189h-929zM218 715l31 188h929l-31 -188h-929z" />
    <glyph glyph-name="greater" unicode="&#x3e;" horiz-adv-x="1305" 
d="M1153 507l-1042 -470l36 219l761 323l2 12l-653 324l36 220l886 -470z" />
    <glyph glyph-name="question" unicode="?" horiz-adv-x="1102" 
d="M406 444l12 71q17 107 55.5 166.5t98 100t138.5 88.5q91 57 135 118t54 125q17 99 -42 157t-176 58q-128 0 -212 -75t-106 -209h-214q23 140 96.5 245.5t187.5 164.5t260 59q136 0 237.5 -50t151 -138.5t30.5 -203.5q-36 -221 -270 -364q-73 -45 -118.5 -79.5t-70 -75
t-34.5 -104.5l-9 -54h-204zM432 -17q-58 0 -92 40.5t-24 99.5q9 58 57 99t106 41q59 0 92.5 -41t24.5 -99q-10 -59 -57.5 -99.5t-106.5 -40.5z" />
    <glyph glyph-name="at" unicode="@" horiz-adv-x="2017" 
d="M875 -412q-210 0 -373 68t-269 193t-146 297t-6 381q35 209 131.5 381.5t242 298t329.5 193.5t394 68q269 0 456.5 -113t270 -317t36.5 -478q-41 -252 -168.5 -392.5t-321.5 -140.5q-96 0 -147 30.5t-70.5 72.5t-20.5 76h-2q-37 -69 -118 -121t-200 -52q-134 0 -219.5 68
t-118.5 180.5t-11 246.5q24 148 101.5 258.5t187.5 172.5t230 62q101 0 162 -39.5t82 -86.5h1l17 102h178l-109 -657q-12 -70 5 -104.5t73 -34.5q99 0 174 91.5t103 260.5q38 230 -19.5 394.5t-200 252t-361.5 87.5q-230 0 -417 -92.5t-310 -263.5t-162 -404t20.5 -403
t208 -262.5t378.5 -92.5q138 0 255.5 26.5t188.5 51.5l40 -167q-68 -26 -198 -59t-297 -33zM930 210q124 0 209 82.5t110 235.5q26 153 -17.5 235.5t-166.5 82.5q-124 0 -213.5 -82t-115.5 -236q-25 -154 23 -236t171 -82z" />
    <glyph glyph-name="A" unicode="A" horiz-adv-x="1379" 
d="M-71 0l788 1490h268l290 -1490h-232l-68 387h-601l-200 -387h-245zM472 576h470l-47 264q-15 92 -31.5 197t-36.5 250q-69 -145 -120.5 -250t-97.5 -197z" />
    <glyph glyph-name="B" unicode="B" horiz-adv-x="1311" 
d="M49 0l246 1490h551q230 0 343.5 -111t83.5 -294q-21 -124 -101 -200.5t-202 -111.5v-1q126 -20 201 -111.5t48 -255.5q-30 -185 -178 -295t-412 -110h-580zM300 187h335q152 0 247 62.5t114 179.5q18 110 -49.5 173t-215.5 63h-352zM409 848h330q127 0 211 64t102 172
q17 102 -43 160.5t-186 58.5h-338z" />
    <glyph glyph-name="C" unicode="C" horiz-adv-x="1484" 
d="M697 -24q-182 0 -315 76.5t-205 214.5t-72 323q0 181 59 346.5t167.5 296t260 206t336.5 75.5q164 0 288.5 -63.5t194.5 -180t70 -276.5h-224q-8 152 -98.5 234.5t-238.5 82.5q-139 0 -249 -61t-187 -164.5t-117.5 -231.5t-40.5 -261q0 -190 98.5 -302t283.5 -112
q156 0 280.5 82t184.5 233h226q-52 -158 -157 -274.5t-245 -180t-300 -63.5z" />
    <glyph glyph-name="D" unicode="D" horiz-adv-x="1421" 
d="M565 0h-516l247 1490h486q219 0 365 -90t206.5 -256.5t22.5 -396.5q-58 -347 -264 -547t-547 -200zM303 193h246q260 0 410.5 147t193.5 407q42 259 -41.5 404.5t-332.5 145.5h-293z" />
    <glyph glyph-name="E" unicode="E" horiz-adv-x="1202" 
d="M49 0l247 1490h1002l-33 -195h-780l-72 -439h722l-32 -193h-722l-78 -468h780l-32 -195h-1002z" />
    <glyph glyph-name="F" unicode="F" horiz-adv-x="1155" 
d="M49 0l247 1490h970l-33 -195h-748l-73 -446h691l-32 -192h-691l-109 -657h-222z" />
    <glyph glyph-name="G" unicode="G" horiz-adv-x="1500" 
d="M692 -24q-179 0 -311 77.5t-204 216t-72 323.5q0 178 59.5 343.5t168 295.5t258 206t330.5 76q164 0 290.5 -64.5t198 -179.5t70.5 -268h-226q-4 138 -94 223.5t-245 85.5q-137 0 -246 -61.5t-185.5 -165t-117 -231t-40.5 -257.5q0 -191 99.5 -304t278.5 -113
q119 0 223.5 50.5t177.5 140.5t95 206h-369l31 185h588l-30 -178q-30 -178 -134.5 -315t-259 -214.5t-334.5 -77.5z" />
    <glyph glyph-name="H" unicode="H" horiz-adv-x="1458" 
d="M49 0l247 1490h222l-104 -631h740l105 631h222l-247 -1490h-222l110 665h-741l-110 -665h-222z" />
    <glyph glyph-name="I" unicode="I" horiz-adv-x="495" 
d="M518 1490l-247 -1490h-222l247 1490h222z" />
    <glyph glyph-name="J" unicode="J" horiz-adv-x="1115" 
d="M451 -21q-182 0 -293.5 93.5t-111.5 268.5q0 21 4 55.5t18 123.5h217q-13 -83 -16.5 -110.5t-3.5 -42.5q0 -95 51.5 -145t144.5 -50q108 0 186 67t99 193l176 1058h223l-176 -1059q-36 -218 -173.5 -335t-344.5 -117z" />
    <glyph glyph-name="K" unicode="K" horiz-adv-x="1335" 
d="M49 0l247 1490h222l-80 -483l-42 -252q70 67 140.5 133.5t142.5 134.5l501 467h288l-696 -645l454 -845h-245l-374 704l-259 -242l-77 -462h-222z" />
    <glyph glyph-name="L" unicode="L" horiz-adv-x="1111" 
d="M49 0l247 1490h222l-215 -1295h704l-31 -195h-927z" />
    <glyph glyph-name="M" unicode="M" horiz-adv-x="1781" 
d="M49 0l246 1490h312l188 -877q11 -56 27.5 -147.5t29.5 -168.5l56.5 113t58.5 117.5t48 94.5l475 868h314l-246 -1490h-218l135 817q12 76 31 178l38 204q-60 -120 -112.5 -224.5t-86.5 -167.5l-450 -807h-181l-182 816q-13 62 -32 164t-41 218q-15 -104 -29.5 -208.5
t-27.5 -182.5l-134 -807h-219z" />
    <glyph glyph-name="N" unicode="N" horiz-adv-x="1465" 
d="M49 0l247 1490h236l424 -901q20 -42 54 -121t66 -160q11 82 23.5 167.5t19.5 127.5l147 887h223l-247 -1490h-235l-380 805q-24 51 -68.5 151.5t-99.5 231.5q-17 -136 -31.5 -233.5t-22.5 -148.5l-134 -806h-222z" />
    <glyph glyph-name="O" unicode="O" horiz-adv-x="1534" 
d="M687 -24q-176 0 -307 76.5t-203 215.5t-72 324q0 178 59 343t167 295.5t257 207t330 76.5q176 0 307 -76.5t203 -215.5t72 -326q0 -179 -59.5 -344t-168 -295t-257 -205.5t-328.5 -75.5zM697 179q133 0 240.5 61t184 164t117 231t40.5 261q0 202 -104 308.5t-266 106.5
q-134 0 -242 -61.5t-184 -165t-116.5 -231.5t-40.5 -260q0 -202 104 -308t267 -106z" />
    <glyph glyph-name="P" unicode="P" horiz-adv-x="1267" 
d="M49 0l247 1490h545q159 0 268 -58t156.5 -164t24.5 -249q-24 -142 -106 -245t-210 -158t-287 -55h-323l-93 -561h-222zM396 753h319q144 0 239.5 73.5t116.5 199.5t-50.5 198.5t-215.5 72.5h-319z" />
    <glyph glyph-name="Q" unicode="Q" horiz-adv-x="1534" 
d="M687 -24q-176 0 -307 76.5t-203 215.5t-72 324q0 178 59 343t167 295.5t257 207t330 76.5q176 0 307 -76.5t203 -215.5t72 -326q0 -155 -45.5 -301.5t-129.5 -268.5t-199 -207l153 -254h-207l-99 168q-66 -28 -137.5 -42.5t-148.5 -14.5zM704 481h201l113 -186
q124 101 192.5 264t68.5 337q0 202 -104 308.5t-266 106.5q-134 0 -242 -61.5t-184 -165t-116.5 -231.5t-40.5 -260q0 -202 104 -308t267 -106q88 0 170 29z" />
    <glyph glyph-name="R" unicode="R" horiz-adv-x="1307" 
d="M49 0l247 1490h561q239 0 361.5 -125t86.5 -339q-25 -156 -123.5 -265.5t-246.5 -159.5l223 -601h-232l-204 564h-28h-330l-93 -564h-222zM396 753h336q143 0 238 76.5t116 202.5t-50 196t-216 70h-334z" />
    <glyph glyph-name="S" unicode="S" horiz-adv-x="1285" 
d="M572 -24q-271 0 -406.5 136t-96.5 371h220q-24 -147 54 -230t241 -83q155 0 260.5 67.5t124.5 179.5q14 83 -40 135.5t-203 89.5l-158 40q-217 54 -306.5 152.5t-62.5 258.5q21 127 101 222t205 147t282 52q245 0 371 -126t96 -344h-213q12 129 -59 202.5t-210 73.5
q-137 0 -237 -67.5t-117 -171.5q-13 -78 41.5 -126t201.5 -85l155 -39q215 -54 307.5 -157t65.5 -268q-22 -131 -105 -227.5t-214 -149.5t-298 -53z" />
    <glyph glyph-name="T" unicode="T" horiz-adv-x="1268" 
d="M175 1295l33 195h1171l-33 -195h-473l-214 -1295h-223l214 1295h-475z" />
    <glyph glyph-name="U" unicode="U" horiz-adv-x="1441" 
d="M641 -24q-182 0 -306 70.5t-179 193t-29 278.5l161 972h221l-160 -969q-26 -153 54 -248.5t247 -95.5q118 0 211.5 47t154 128t77.5 183l157 955h221l-164 -987q-26 -156 -117 -274.5t-232 -185.5t-317 -67z" />
    <glyph glyph-name="V" unicode="V" horiz-adv-x="1374" 
d="M469 0l-294 1490h228l156 -840q14 -81 31 -191t39 -257q70 147 122.5 257t92.5 191l426 840h246l-780 -1490h-267z" />
    <glyph glyph-name="W" unicode="W" horiz-adv-x="1976" 
d="M332 0l-157 1490h224l76 -867q7 -96 12.5 -192.5t8.5 -193.5q37 97 75 193.5t79 192.5l369 867h243l81 -867q17 -191 25 -381q36 95 73.5 190.5t76.5 190.5l362 867h239l-653 -1490h-254l-94 911q-7 69 -11.5 141.5t-8.5 148.5q-29 -76 -57 -148.5t-58 -141.5l-394 -911
h-257z" />
    <glyph glyph-name="X" unicode="X" horiz-adv-x="1357" 
d="M-66 0l660 762l-376 728h252l146 -299q31 -64 62.5 -127.5t62.5 -127.5q52 64 104.5 128t107.5 127l260 299h251l-615 -721l401 -769h-249l-187 361q-30 58 -59 116t-57 116q-48 -58 -97 -116l-98 -116l-310 -361h-259z" />
    <glyph glyph-name="Y" unicode="Y" horiz-adv-x="1348" 
d="M478 0l98 595l-401 895h243l206 -470q23 -52 44 -104l42 -104q37 52 75.5 104t78.5 104l359 470h268l-695 -895l-98 -595h-220z" />
    <glyph glyph-name="Z" unicode="Z" horiz-adv-x="1248" 
d="M9 0l25 147l969 1153h-785l32 190h1061l-24 -149l-971 -1151h786l-31 -190h-1062z" />
    <glyph glyph-name="bracketleft" unicode="[" horiz-adv-x="634" 
d="M14 -294l308 1860h409l-29 -174h-198l-250 -1512h198l-29 -174h-409z" />
    <glyph glyph-name="backslash" unicode="\" horiz-adv-x="692" 
d="M366 -224l-184 1784h190l185 -1784h-191z" />
    <glyph glyph-name="bracketright" unicode="]" horiz-adv-x="634" 
d="M-61 -294l29 174h198l250 1512h-197l28 174h409l-308 -1860h-409z" />
    <glyph glyph-name="asciicircum" unicode="^" horiz-adv-x="913" 
d="M96 814l407 632h212l197 -632h-191l-135 462h-11l-287 -462h-192z" />
    <glyph glyph-name="underscore" unicode="_" horiz-adv-x="945" 
d="M857 0l-29 -183h-945l30 183h944z" />
    <glyph glyph-name="grave" unicode="`" horiz-adv-x="530" 
d="M390 1190l-162 303h226l100 -303h-164z" />
    <glyph glyph-name="a" unicode="a" horiz-adv-x="1179" 
d="M434 -21q-138 0 -229.5 69.5t-128 193t-10.5 286.5q27 163 105 286.5t192.5 193t250.5 69.5q103 0 183 -43t116 -130h2l26 152h206l-175 -1056h-206l26 159h-3q-68 -90 -160 -135t-195 -45zM506 161q135 0 232.5 100.5t124.5 266.5q28 167 -36 267.5t-199 100.5
q-127 0 -222.5 -94.5t-125.5 -273.5q-29 -179 35 -273t191 -94z" />
    <glyph glyph-name="b" unicode="b" horiz-adv-x="1180" 
d="M578 -21q-108 0 -188 47t-122 146h-1l-28 -172h-207l246 1490h211l-95 -582h1q59 88 150 128.5t189 40.5q181 0 284 -119.5t103 -315.5q0 -122 -36.5 -240t-107 -213.5t-171 -152.5t-228.5 -57zM539 161q120 0 202.5 71.5t125.5 182t43 227.5q0 125 -60.5 189.5
t-164.5 64.5q-90 0 -160.5 -41.5t-119.5 -110.5t-74 -153t-25 -168q0 -122 61 -192t172 -70z" />
    <glyph glyph-name="c" unicode="c" horiz-adv-x="1092" 
d="M491 -24q-133 0 -230 55t-150 154t-53 231q0 125 41.5 243.5t119 213.5t187 151t244.5 56q125 0 219.5 -49.5t145.5 -136t45 -199.5h-210q-1 87 -49 145t-156 58q-119 0 -202.5 -70.5t-127.5 -181t-44 -228.5q0 -121 57.5 -190.5t170.5 -69.5q110 0 184 56.5t110 147.5
h213q-31 -111 -104.5 -198t-179 -137.5t-231.5 -50.5z" />
    <glyph glyph-name="d" unicode="d" horiz-adv-x="1179" 
d="M446 -21q-182 0 -285 118t-103 313q0 124 37 242.5t107.5 214.5t171.5 153t228 57q107 0 189 -46.5t118 -134.5h1l98 594h211l-246 -1490h-207l25 156h-1q-68 -94 -157 -135.5t-187 -41.5zM494 161q117 0 202.5 70t131.5 178.5t46 223.5q0 122 -61.5 192.5t-172.5 70.5
q-119 0 -201.5 -71t-126 -181.5t-43.5 -228.5q0 -125 60.5 -189.5t164.5 -64.5z" />
    <glyph glyph-name="e" unicode="e" horiz-adv-x="1102" 
d="M493 -24q-199 0 -319 113.5t-112 355.5q5 192 84.5 335t213.5 221.5t302 78.5q166 0 271.5 -78.5t105.5 -226.5q0 -192 -194 -264.5t-575 -77.5q-2 -75 16.5 -139t70.5 -103t150 -39q109 0 184.5 47.5t108.5 123.5h206q-56 -155 -188 -251t-325 -96zM288 593
q215 2 333.5 22.5t165.5 59.5t47 97q0 61 -49.5 96t-144.5 35q-156 0 -239.5 -90.5t-112.5 -219.5z" />
    <glyph glyph-name="f" unicode="f" horiz-adv-x="669" 
d="M716 1056l-29 -174h-215l-167 -999q-24 -147 -103 -224t-241 -77h-108l31 186h69q71 0 101.5 28.5t41.5 99.5l164 986h-186l29 174h186l29 171q20 125 110.5 194t232.5 69h127l-30 -174h-94q-66 0 -97.5 -28t-42.5 -95l-23 -137h215z" />
    <glyph glyph-name="g" unicode="g" horiz-adv-x="1179" 
d="M432 -432q-196 0 -309 86t-107 241h206q7 -77 62.5 -116t150.5 -39q134 0 223 72.5t108 200.5l23 153h-1q-70 -92 -155 -136t-186 -44q-183 0 -286 118.5t-103 311.5q0 123 37.5 240.5t108.5 212.5t171.5 151.5t225.5 56.5q108 0 190 -45t121 -139h1l26 163h208
l-173 -1050q-26 -159 -105.5 -255.5t-193 -139.5t-243.5 -43zM494 167q118 0 203 69t131 177t46 223q0 122 -61.5 191.5t-172.5 69.5q-118 0 -201 -70.5t-126 -180t-43 -226.5q0 -125 60 -189t164 -64z" />
    <glyph glyph-name="h" unicode="h" horiz-adv-x="1147" 
d="M344 608l-101 -608h-211l247 1490h211l-97 -584q133 171 334 171q108 0 189.5 -47.5t119 -140.5t14.5 -231l-110 -658h-211l105 632q21 127 -29.5 191.5t-160.5 64.5q-107 0 -191.5 -66.5t-108.5 -213.5z" />
    <glyph glyph-name="i" unicode="i" horiz-adv-x="450" 
d="M32 0l175 1056h211l-175 -1056h-211zM342 1241q-54 0 -86.5 38t-23.5 92t53.5 92t99.5 38t87.5 -38t23.5 -92t-54 -92t-100 -38z" />
    <glyph glyph-name="j" unicode="j" horiz-adv-x="450" 
d="M206 1056h212l-197 -1184q-21 -129 -112 -209.5t-239 -80.5h-88l29 178h61q63 0 97 33t46 107zM342 1241q-54 0 -86.5 38t-23.5 92t53.5 92t99.5 38t87.5 -38t23.5 -92t-54 -92t-100 -38z" />
    <glyph glyph-name="k" unicode="k" horiz-adv-x="1068" 
d="M32 0l247 1490h211l-147 -885h3l525 451h262l-522 -454l377 -602h-259l-300 475l-124 -104l-62 -371h-211z" />
    <glyph glyph-name="l" unicode="l" horiz-adv-x="450" 
d="M490 1490l-247 -1490h-211l247 1490h211z" />
    <glyph glyph-name="m" unicode="m" horiz-adv-x="1749" 
d="M32 0l174 1056h205l-27 -166q65 94 153 140.5t181 46.5q109 0 183 -55.5t97 -138.5q55 87 149 140.5t209 53.5q101 0 176.5 -44.5t110 -131.5t13.5 -214l-113 -687h-212l113 684q19 114 -33 161t-133 47q-110 0 -186 -69t-93 -170l-108 -653h-208l116 699
q15 90 -31.5 141.5t-132.5 51.5q-97 0 -182 -68.5t-106 -193.5l-104 -630h-211z" />
    <glyph glyph-name="n" unicode="n" horiz-adv-x="1146" 
d="M342 600l-99 -600h-211l174 1056h207l-24 -149q132 170 335 170q111 0 192.5 -49t118 -144t13.5 -233l-108 -651h-211l105 639q21 127 -27 188t-154 61q-112 0 -199.5 -70t-111.5 -218z" />
    <glyph glyph-name="o" unicode="o" horiz-adv-x="1145" 
d="M494 -24q-203 0 -319 122.5t-116 321.5q0 129 42.5 247.5t121 211.5t187.5 147t242 54q202 0 318 -123.5t116 -324.5q0 -127 -42 -245t-120 -210.5t-187 -146.5t-243 -54zM503 158q91 0 160.5 42t116.5 112t71 154.5t24 169.5q0 123 -61 192.5t-171 69.5
q-118 0 -201.5 -71.5t-127.5 -182t-44 -227.5q0 -122 61 -190.5t172 -68.5z" />
    <glyph glyph-name="p" unicode="p" horiz-adv-x="1179" 
d="M-38 -418l244 1474h207l-23 -149h1q62 90 153.5 130t189.5 40q181 0 284 -118.5t103 -313.5q0 -123 -37 -241.5t-107.5 -214.5t-171.5 -153t-228 -57q-108 0 -187.5 48t-118.5 141h-1l-97 -586h-211zM539 161q120 0 202.5 71.5t125.5 182t43 227.5q0 125 -60.5 189.5
t-164.5 64.5q-90 0 -160.5 -41.5t-119.5 -110.5t-74 -153t-25 -168q0 -122 61 -192t172 -70z" />
    <glyph glyph-name="q" unicode="q" horiz-adv-x="1179" 
d="M903 -418h-211l94 570h-1q-68 -91 -154.5 -132t-184.5 -41q-182 0 -285 118t-103 313q0 124 37 242.5t107.5 214.5t171.5 153t228 57q107 0 188 -45.5t123 -135.5h1l26 160h207zM494 161q117 0 202.5 70t131.5 178.5t46 223.5q0 122 -61.5 192.5t-172.5 70.5
q-119 0 -201.5 -71t-126 -181.5t-43.5 -228.5q0 -125 60.5 -189.5t164.5 -64.5z" />
    <glyph glyph-name="r" unicode="r" horiz-adv-x="695" 
d="M32 0l175 1056h202l-28 -171h3q44 87 114.5 135.5t171.5 48.5q24 0 44 -2t32 -3l-32 -197q-12 3 -42.5 6.5t-67.5 3.5q-89 0 -162.5 -62t-94.5 -191l-104 -624h-211z" />
    <glyph glyph-name="s" unicode="s" horiz-adv-x="1004" 
d="M430 -25q-173 0 -285 78t-112 231v18.5t2 18.5h208q-11 -178 189 -178q67 0 125 21.5t93.5 60.5t35.5 92q0 42 -33 67t-92 39l-169 38q-263 61 -263 262q0 108 61 188t163 124t224 44q166 0 269 -78.5t103 -215.5q0 -12 -1 -25t-3 -26h-202q12 83 -36.5 130.5
t-133.5 47.5q-101 0 -167 -52t-66 -122q0 -79 126 -108l173 -40q261 -60 261 -249q0 -114 -64.5 -196t-171.5 -126t-234 -44z" />
    <glyph glyph-name="t" unicode="t" horiz-adv-x="677" 
d="M715 1056l-28 -174h-215l-99 -603q-10 -59 10.5 -82t83.5 -23h103l-29 -174h-133q-293 0 -251 252l104 630h-187l29 174h187l47 288h212l-48 -288h214z" />
    <glyph glyph-name="u" unicode="u" horiz-adv-x="1147" 
d="M411 -21q-109 0 -188 47.5t-114 140.5t-12 231l110 658h211l-105 -632q-21 -127 29.5 -191.5t160.5 -64.5q107 0 191.5 66.5t109.5 213.5l100 608h211l-175 -1056h-207l26 158q-138 -179 -348 -179z" />
    <glyph glyph-name="v" unicode="v" horiz-adv-x="1077" 
d="M338 0l-227 1056h215l114 -579q11 -60 21 -120.5t19 -120.5q30 60 61 120.5t62 120.5l303 579h234l-578 -1056h-224z" />
    <glyph glyph-name="w" unicode="w" horiz-adv-x="1585" 
d="M263 0l-152 1056h215l49 -432q10 -96 18 -196t17 -198q41 98 83 198t85 196l195 432h200l50 -432q11 -95 19.5 -194t17.5 -196q41 97 81.5 196t82.5 194l195 432h229l-502 -1056h-220l-57 460q-10 80 -17.5 164t-15.5 167q-36 -83 -71.5 -167t-72.5 -164l-212 -460h-217z
" />
    <glyph glyph-name="x" unicode="x" horiz-adv-x="1059" 
d="M-63 0l478 538l-279 518h232l95 -188q22 -47 43.5 -92t42.5 -90q37 45 73.5 90t75.5 92l160 188h247l-452 -515l295 -541h-231l-112 214q-23 46 -44 90l-42 88q-37 -44 -73 -88t-75 -90l-185 -214h-249z" />
    <glyph glyph-name="y" unicode="y" horiz-adv-x="1077" 
d="M-24 -418l29 178h114q50 0 86.5 29t70.5 93l69 125l-234 1049h216l115 -579q23 -119 42 -236q29 59 59 118l60 118l305 579h232l-685 -1241q-62 -112 -151.5 -172.5t-193.5 -60.5h-134z" />
    <glyph glyph-name="z" unicode="z" horiz-adv-x="1010" 
d="M8 0l25 153l671 720l1 4h-552l30 179h815l-27 -160l-662 -713l-1 -4h550l-29 -179h-821z" />
    <glyph glyph-name="braceleft" unicode="{" horiz-adv-x="825" 
d="M614 -294q-216 0 -301.5 87t-49.5 308l36 214q18 110 -16 161t-139 57h-29v1l12 72l10 60l12 72v1h31q106 5 156.5 56t68.5 161l35 215q37 220 151.5 307.5t330.5 87.5l-29 -173q-125 0 -177 -54t-73 -178l-44 -271q-14 -80 -63 -149t-167 -105q106 -37 132 -106.5
t13 -149.5l-45 -269q-20 -124 14 -178t159 -54z" />
    <glyph glyph-name="bar" unicode="|" horiz-adv-x="641" 
d="M654 1970l-406 -2450h-190l406 2450h190z" />
    <glyph glyph-name="braceright" unicode="}" horiz-adv-x="825" 
d="M-60 -294l28 173q125 0 177 54t73 178l44 269q13 80 62.5 149.5t167.5 106.5q-106 36 -132.5 105t-12.5 149l45 271q20 124 -14 178t-159 54l28 173q216 0 301.5 -87.5t49.5 -307.5l-36 -215q-19 -116 20 -166.5t159 -51.5h5l-12 -72v0l-22 -132q-123 0 -180 -51
t-76 -168l-35 -214q-37 -221 -151.5 -308t-329.5 -87z" />
    <glyph glyph-name="asciitilde" unicode="~" horiz-adv-x="1305" 
d="M119 430q18 126 71.5 206t128.5 118t156 38q73 0 129.5 -31t125.5 -101q42 -43 70.5 -62t66.5 -19q59 0 102 44t55 131h182q-18 -126 -72 -206t-128.5 -118t-154.5 -38q-75 -1 -131.5 31t-124.5 101q-43 44 -70.5 62.5t-65.5 18.5q-57 0 -100.5 -40.5t-57.5 -134.5h-182z
" />
    <glyph glyph-name="uni00A0" unicode="&#xa0;" horiz-adv-x="488" 
 />
    <glyph glyph-name="exclamdown" unicode="&#xa1;" horiz-adv-x="478" 
d="M-36 -418l193 1060h202l-157 -1060h-238zM282 790q-60 0 -95 42.5t-25 101.5q10 61 59 103.5t109 42.5t95.5 -42.5t25.5 -103.5q-10 -59 -60 -101.5t-109 -42.5z" />
    <glyph glyph-name="cent" unicode="&#xa2;" horiz-adv-x="1092" 
d="M411 0l33 198q-163 25 -257 141.5t-94 292.5q0 119 37 231.5t107 205t168 152t221 72.5l32 197h139l-33 -199q155 -23 247.5 -126t83.5 -254h-210q-1 75 -36.5 129.5t-114.5 69.5l-121 -727q78 18 132 69.5t84 125.5h212q-28 -103 -93.5 -185.5t-159.5 -134.5t-206 -63
l-32 -195h-139zM474 380l120 723q-92 -26 -156.5 -98t-98 -170t-33.5 -201q0 -104 42.5 -170t125.5 -84z" />
    <glyph glyph-name="sterling" unicode="&#xa3;" horiz-adv-x="1215" 
d="M-12 0l31 190v0q80 0 133 43.5t65 143.5l33 276h-154l28 175h147l25 210q16 142 89.5 248.5t188 165.5t253.5 59q132 0 228.5 -59.5t141 -165t21.5 -244.5h-208q22 132 -32 205t-166 73q-122 0 -204 -72.5t-98 -202.5l-27 -217h406l-29 -175h-399l-32 -259
q-10 -79 -43 -127.5t-83 -76.5h496q77 0 89 76l10 61h203l-9 -50q-23 -137 -102 -207t-220 -70h-782z" />
    <glyph glyph-name="currency" unicode="&#xa4;" horiz-adv-x="1448" 
d="M630 -20q-105 0 -194.5 35t-155.5 98l-152 -130l-101 128l155 135q-38 76 -51 168t4 194q18 107 64.5 202.5t114.5 172.5l-119 146l144 128l121 -145q84 58 180.5 90t197.5 32q102 0 189 -33t153 -92l169 148l105 -128l-173 -149q42 -77 57 -171.5t-3 -200.5
q-17 -101 -60 -192t-105 -167l116 -138l-148 -128l-109 133q-88 -64 -190 -100t-209 -36zM658 149q119 0 226.5 62t182.5 166.5t96 230.5q21 128 -19.5 232t-127.5 165.5t-206 61.5t-227 -61.5t-183.5 -165.5t-97.5 -232q-20 -126 20.5 -230.5t128.5 -166.5t207 -62z" />
    <glyph glyph-name="yen" unicode="&#xa5;" horiz-adv-x="1079" 
d="M397 1490l189 -680l416 680h237l-483 -740h246l-24 -146h-317l-23 -142h316l-24 -146h-317l-52 -316h-219l52 316h-323l24 146h323l24 142h-324l24 146h255l-237 740h237z" />
    <glyph glyph-name="brokenbar" unicode="&#xa6;" horiz-adv-x="534" 
d="M150 406h194l-113 -686h-195zM524 1490l-113 -682h-195l113 682h195z" />
    <glyph glyph-name="section" unicode="&#xa7;" horiz-adv-x="1096" 
d="M1025 1133h-198q13 82 -23 137t-130 55q-86 0 -138 -44t-61 -98q-10 -61 33 -109t89 -75l255 -154q34 -21 80 -61t74 -104.5t10 -159.5q-11 -56 -48.5 -106t-88.5 -86.5t-102 -51.5l-1 -2q92 -96 68 -247q-18 -110 -84 -183t-160 -109.5t-199 -36.5q-180 0 -278.5 102.5
t-69.5 279.5h200q-16 -95 35 -146t145 -50q73 1 136.5 35.5t75.5 107.5q8 50 -10 84t-49 57.5t-60 41.5v1l-256 152q-35 21 -81 61t-74 105.5t-9 160.5q16 83 85.5 153.5t152.5 92.5v5q-40 49 -59.5 108.5t-8.5 133.5q16 95 76.5 168.5t152 116t201.5 42.5q174 0 259.5 -106
t59.5 -271zM827 515q10 55 -21 99t-81 74l-249 147q-27 18 -66 3t-72.5 -53t-43.5 -90q-11 -61 21 -102t84 -72l238 -142q26 -16 67 -1.5t77 50.5t46 87z" />
    <glyph glyph-name="dieresis" unicode="&#xa8;" horiz-adv-x="1146" 
d="M905 1239q-56 0 -87.5 37t-22.5 92q9 54 53 91.5t99 37.5t87 -37.5t23 -91.5q-9 -55 -53 -92t-99 -37zM477 1239q-55 0 -86.5 37t-22.5 92q9 54 53 91.5t99 37.5t87 -37.5t23 -91.5q-9 -55 -53 -92t-100 -37z" />
    <glyph glyph-name="copyright" unicode="&#xa9;" horiz-adv-x="1814" 
d="M828 -23q-161 0 -292.5 61t-221 168.5t-126.5 249.5t-11 304q26 156 107.5 292.5t202.5 240t267.5 162t303.5 58.5q161 0 292.5 -61t221 -168.5t126.5 -249.5t11 -304q-26 -156 -107.5 -292.5t-202.5 -240t-267.5 -162t-303.5 -58.5zM835 167q122 0 236.5 46t209.5 128
t158.5 189t83.5 230q26 155 -29 283t-170.5 204t-272.5 76q-122 0 -236.5 -46t-209.5 -128t-158.5 -189t-84.5 -230q-25 -155 30 -283t171 -204t272 -76zM525 744q19 118 92.5 214.5t179.5 154t224 57.5q102 0 181 -44t123.5 -120.5t41.5 -171.5h-188q-2 68 -56 112t-132 44
q-68 0 -129 -33t-103.5 -89t-54.5 -124q-10 -67 14 -122.5t74 -88.5t118 -33q77 -1 139 43t88 113h187q-28 -96 -94 -172t-157 -120.5t-193 -44.5q-118 0 -205 57.5t-128.5 154t-21.5 213.5z" />
    <glyph glyph-name="ordfeminine" unicode="&#xaa;" horiz-adv-x="886" 
d="M615 775q-37 -33 -91.5 -58t-127.5 -25q-120 0 -175 62.5t-39 165.5q19 111 115 171.5t270 60.5h102l8 50q22 127 -96 128q-66 -1 -107.5 -26t-48.5 -74l-172 15q16 101 113 167t240 66q132 0 201 -69.5t46 -206.5l-52 -314q-8 -47 -10 -92t7 -90h-178q-5 33 -5 69z
M650 1035h-102q-88 0 -133.5 -33.5t-53.5 -76.5q-14 -87 103 -88q41 0 87 19t77 44z" />
    <glyph glyph-name="guillemotleft" unicode="&#xab;" horiz-adv-x="1135" 
d="M365 144l-296 440l442 440h240l-435 -440l289 -440h-240zM792 144l-296 440l442 440h240l-435 -440l289 -440h-240z" />
    <glyph glyph-name="logicalnot" unicode="&#xac;" horiz-adv-x="1305" 
d="M840 315l44 259h-668l30 183h859l-73 -442h-192z" />
    <glyph glyph-name="registered" unicode="&#xae;" horiz-adv-x="1311" 
d="M624 346q-161 0 -280 78.5t-175.5 211t-29.5 292.5q20 120 83 225.5t156 185.5t205.5 125.5t233.5 45.5q161 0 280 -78.5t175.5 -210.5t30.5 -293q-20 -120 -83 -225.5t-156 -185.5t-206 -125.5t-234 -45.5zM647 490q122 0 231.5 59t185 158.5t95.5 220.5t-22.5 220.5
t-132.5 158.5t-211 59t-230 -59t-184.5 -158.5t-95.5 -220.5t22.5 -220.5t132 -158.5t209.5 -59zM471 666l89 536h269q38 1 74.5 -18.5t57.5 -57.5t12 -96q-10 -55 -42 -94.5t-72 -61.5l74 -208h-137l-62 182h-108l-31 -182h-124zM641 940h103q26 -1 56 21.5t38 68.5
q7 46 -16.5 63.5t-47.5 17.5h-104z" />
    <glyph glyph-name="macron" unicode="&#xaf;" horiz-adv-x="821" 
d="M838 1420l-26 -157h-560l26 157h560z" />
    <glyph glyph-name="degree" unicode="&#xb0;" horiz-adv-x="875" 
d="M487 818q-94 0 -164 46t-103.5 123.5t-18.5 171.5q16 94 75 171.5t144 124t180 46.5q94 0 163.5 -46.5t103 -124t17.5 -171.5q-15 -94 -74 -171.5t-144 -123.5t-179 -46zM514 982q73 -1 133.5 51.5t72.5 125.5q12 74 -31 126t-117 52t-134.5 -52t-72.5 -126
q-12 -73 31.5 -125.5t117.5 -51.5z" />
    <glyph glyph-name="plusminus" unicode="&#xb1;" horiz-adv-x="1305" 
d="M192 659l30 185h387l47 284h191l-47 -284h386l-30 -185h-387l-47 -284h-191l47 284h-386zM94 66l31 187h963l-31 -187h-963z" />
    <glyph glyph-name="two.sups" unicode="&#xb2;" horiz-adv-x="797" 
d="M132 870l23 139l371 252q63 43 108 81t54 92q9 52 -24 83.5t-96 31.5q-70 0 -116.5 -39t-58.5 -110h-177q23 138 125 219.5t252 81.5q139 0 217.5 -69.5t59.5 -187.5q-15 -88 -76.5 -152t-169.5 -134l-206 -133v-1h386l-25 -154h-647z" />
    <glyph glyph-name="three.sups" unicode="&#xb3;" horiz-adv-x="827" 
d="M473 857q-113 0 -183 40t-97.5 105.5t-15.5 142.5h184q-11 -66 24.5 -103t110.5 -37q69 0 117 30t56 78q9 48 -34 76.5t-119 28.5h-81l22 137h82q71 0 116.5 26t53.5 70q8 48 -26 77t-96 29q-64 0 -108.5 -32t-53.5 -85h-181q18 112 118 186.5t249 74.5q138 0 217.5 -64
t63.5 -164q-12 -70 -67 -116.5t-134 -58.5v-2q93 -11 135.5 -67t30.5 -128q-18 -105 -125 -174.5t-259 -69.5z" />
    <glyph glyph-name="acute" unicode="&#xb4;" horiz-adv-x="457" 
d="M156 1230l199 284h225l-260 -284h-164z" />
    <glyph glyph-name="uni00B5" unicode="&#xb5;" horiz-adv-x="1162" 
d="M-38 -418l244 1474h211l-101 -612q-24 -145 34 -212t166 -67t184.5 67t101.5 212l101 612h211l-130 -786q-8 -52 11.5 -73t75.5 -21h33l-29 -176h-60q-224 0 -241 168q-59 -103 -140 -140t-146 -37q-61 0 -126.5 32.5t-95.5 121.5l-93 -563h-211z" />
    <glyph glyph-name="paragraph" unicode="&#xb6;" horiz-adv-x="1157" 
d="M732 0l216 1306h-180l-125 -754h-85q-159 0 -259.5 61t-140.5 167.5t-18 241.5q23 134 97.5 239.5t195.5 167t281 61.5h466l-247 -1490h-201z" />
    <glyph glyph-name="periodcentered" unicode="&#xb7;" horiz-adv-x="467" 
d="M251 569q-63 0 -100 45t-27 108q9 54 52 90.5t98 36.5q63 0 100 -45.5t26 -108.5q-9 -54 -52 -90t-97 -36z" />
    <glyph glyph-name="cedilla" unicode="&#xb8;" horiz-adv-x="554" 
d="M5 -418l18 110h117q96 0 106 64q11 64 -85 64h-81l70 227h101l-8 -47l-14 -84q87 -3 130 -47.5t31 -115.5q-15 -88 -84.5 -129.5t-176.5 -41.5h-124z" />
    <glyph glyph-name="one.sups" unicode="&#xb9;" horiz-adv-x="540" 
d="M638 1688l-135 -818h-185l107 644h-1l-229 -118l27 165l243 127h173z" />
    <glyph glyph-name="ordmasculine" unicode="&#xba;" horiz-adv-x="884" 
d="M178 1044l13 78q16 103 72 183.5t142.5 126.5t193.5 46q162 0 239 -100.5t51 -255.5l-13 -78q-25 -154 -134.5 -253t-270.5 -99q-163 0 -241 99t-52 253zM366 1122l-13 -78q-15 -89 19.5 -147.5t122.5 -58.5q86 0 138 58.5t68 147.5l12 78q14 87 -18.5 147t-120.5 61
q-86 -1 -139.5 -61t-68.5 -147z" />
    <glyph glyph-name="guillemotright" unicode="&#xbb;" horiz-adv-x="1135" 
d="M-24 144l435 440l-289 440h240l296 -440l-442 -440h-240zM403 144l435 440l-289 440h240l296 -440l-442 -440h-240z" />
    <glyph glyph-name="onequarter" unicode="&#xbc;" horiz-adv-x="1529" 
d="M567 1490l-136 -817h-165l109 660h-1l-212 -122l25 151l225 128h155zM17 0l1271 1490h188l-1271 -1490h-188zM732 175l22 133l444 509h210l-84 -509h106l-21 -133h-107l-29 -175h-161l29 175h-409zM1162 308l57 346v0l-299 -344l-1 -2h243z" />
    <glyph glyph-name="onehalf" unicode="&#xbd;" horiz-adv-x="1591" 
d="M567 1490l-136 -817h-165l109 660h-1l-212 -122l25 151l225 128h155zM17 0l1271 1490h188l-1271 -1490h-188zM843 0l20 126l343 255q62 46 105.5 86.5t52.5 95.5q11 61 -17 95.5t-90 34.5t-110 -41t-60 -116h-159q22 132 113 213t223 81q130 0 205 -68t55 -188
q-14 -83 -67 -146.5t-153 -139.5l-196 -149v-1h347l-23 -138h-589z" />
    <glyph glyph-name="threequarters" unicode="&#xbe;" horiz-adv-x="1700" 
d="M408 660q-154 0 -221 83.5t-47 200.5h164q-11 -70 19.5 -110.5t100.5 -40.5q62 0 110 31.5t57 83.5t-28.5 85.5t-111.5 33.5h-74l22 125h73q67 0 110 30t51 78q9 51 -21.5 82t-87.5 31q-60 0 -103 -35t-53 -93h-162q19 112 110 185t226 73q128 0 199 -64t56 -159
q-12 -71 -64 -119t-123 -62v-1q86 -12 123.5 -69t25.5 -131q-18 -100 -114 -169t-237 -69zM188 0l1271 1490h188l-1271 -1490h-188zM903 175l22 133l444 509h210l-84 -509h106l-21 -133h-107l-29 -175h-161l29 175h-409zM1333 308l57 346v0l-299 -344l-1 -2h243z" />
    <glyph glyph-name="questiondown" unicode="&#xbf;" horiz-adv-x="1014" 
d="M607 667l-11 -72q-18 -107 -56.5 -166.5t-97.5 -99.5t-139 -89q-91 -56 -135 -117.5t-54 -124.5q-16 -99 42.5 -157t175.5 -58q128 0 212 75t106 208h214q-23 -140 -96 -245.5t-187.5 -164.5t-260.5 -59q-136 0 -237.5 50t-151 138.5t-30.5 203.5q36 221 270 364
q73 45 118.5 79.5t70 75.5t35.5 104l8 55h204zM581 1128q59 0 92.5 -41t24.5 -99q-10 -59 -57.5 -99.5t-106.5 -40.5q-58 0 -92 40.5t-24 99.5q10 58 57 99t106 41z" />
    <glyph glyph-name="Agrave" unicode="&#xc0;" horiz-adv-x="1379" 
d="M-71 0l788 1490h268l290 -1490h-232l-68 387h-601l-200 -387h-245zM472 576h470l-47 264q-15 92 -31.5 197t-36.5 250q-69 -145 -120.5 -250t-97.5 -197zM798 1624l-162 303h226l100 -303h-164z" />
    <glyph glyph-name="Aacute" unicode="&#xc1;" horiz-adv-x="1379" 
d="M-71 0l788 1490h268l290 -1490h-232l-68 387h-601l-200 -387h-245zM472 576h470l-47 264q-15 92 -31.5 197t-36.5 250q-69 -145 -120.5 -250t-97.5 -197zM784 1664l199 284h225l-260 -284h-164z" />
    <glyph glyph-name="Acircumflex" unicode="&#xc2;" horiz-adv-x="1379" 
d="M-71 0l788 1490h268l290 -1490h-232l-68 387h-601l-200 -387h-245zM472 576h470l-47 264q-15 92 -31.5 197t-36.5 250q-69 -145 -120.5 -250t-97.5 -197zM737 1644h-191v1l282 282h189l190 -282v-1h-192l-111 173z" />
    <glyph glyph-name="Atilde" unicode="&#xc3;" horiz-adv-x="1379" 
d="M-71 0l788 1490h268l290 -1490h-232l-68 387h-601l-200 -387h-245zM472 576h470l-47 264q-15 92 -31.5 197t-36.5 250q-69 -145 -120.5 -250t-97.5 -197zM1017 1680q-53 0 -95.5 22t-76 44t-59.5 22q-28 0 -46 -26t-25 -59h-136q19 101 73.5 162.5t137.5 61.5
q55 0 94 -22.5t71 -45t66 -22.5q50 0 73 85h132q-19 -103 -75.5 -162.5t-133.5 -59.5z" />
    <glyph glyph-name="Adieresis" unicode="&#xc4;" horiz-adv-x="1379" 
d="M-71 0l788 1490h268l290 -1490h-232l-68 387h-601l-200 -387h-245zM472 576h470l-47 264q-15 92 -31.5 197t-36.5 250q-69 -145 -120.5 -250t-97.5 -197zM1096 1673q-56 0 -87.5 37t-22.5 92q9 54 53 91.5t99 37.5t87 -37.5t23 -91.5q-9 -55 -53 -92t-99 -37zM668 1673
q-55 0 -86.5 37t-22.5 92q9 54 53 91.5t99 37.5t87 -37.5t23 -91.5q-9 -55 -53 -92t-100 -37z" />
    <glyph glyph-name="Aring" unicode="&#xc5;" horiz-adv-x="1379" 
d="M-71 0l788 1490h268l290 -1490h-232l-68 387h-601l-200 -387h-245zM472 576h470l-47 264q-15 92 -31.5 197t-36.5 250q-69 -145 -120.5 -250t-97.5 -197zM879 1578q-108 0 -171 72.5t-46 175.5q16 92 94 156t175 64q109 0 172 -72.5t46 -175.5q-16 -92 -94 -156t-176 -64
zM887 1703q46 0 83 31.5t45 77.5q7 46 -19.5 77.5t-72.5 31.5q-45 0 -81.5 -31.5t-44.5 -77.5t18.5 -77.5t71.5 -31.5z" />
    <glyph glyph-name="AE" unicode="&#xc6;" horiz-adv-x="1950" 
d="M-71 0l905 1490h1205l-33 -193h-712l-74 -452h654l-31 -188h-655l-77 -464h720l-32 -193h-939l70 422h-516l-253 -422h-232zM525 607h436l114 690h-136z" />
    <glyph glyph-name="Ccedilla" unicode="&#xc7;" horiz-adv-x="1484" 
d="M697 -24q-182 0 -315 76.5t-205 214.5t-72 323q0 181 59 346.5t167.5 296t260 206t336.5 75.5q164 0 288.5 -63.5t194.5 -180t70 -276.5h-224q-8 152 -98.5 234.5t-238.5 82.5q-139 0 -249 -61t-187 -164.5t-117.5 -231.5t-40.5 -261q0 -190 98.5 -302t283.5 -112
q156 0 280.5 82t184.5 233h226q-52 -158 -157 -274.5t-245 -180t-300 -63.5zM484 -417l18 110h117q96 0 106 64q11 64 -85 64h-81l70 227h101l-8 -47l-14 -84q87 -3 130 -47.5t31 -115.5q-15 -88 -84.5 -129.5t-176.5 -41.5h-124z" />
    <glyph glyph-name="Egrave" unicode="&#xc8;" horiz-adv-x="1202" 
d="M49 0l247 1490h1002l-33 -195h-780l-72 -439h722l-32 -193h-722l-78 -468h780l-32 -195h-1002zM742 1624l-162 303h226l100 -303h-164z" />
    <glyph glyph-name="Eacute" unicode="&#xc9;" horiz-adv-x="1202" 
d="M49 0l247 1490h1002l-33 -195h-780l-72 -439h722l-32 -193h-722l-78 -468h780l-32 -195h-1002zM728 1664l199 284h225l-260 -284h-164z" />
    <glyph glyph-name="Ecircumflex" unicode="&#xca;" horiz-adv-x="1202" 
d="M49 0l247 1490h1002l-33 -195h-780l-72 -439h722l-32 -193h-722l-78 -468h780l-32 -195h-1002zM682 1644h-191v1l282 282h189l190 -282v-1h-192l-111 173z" />
    <glyph glyph-name="Edieresis" unicode="&#xcb;" horiz-adv-x="1202" 
d="M49 0l247 1490h1002l-33 -195h-780l-72 -439h722l-32 -193h-722l-78 -468h780l-32 -195h-1002zM1041 1673q-56 0 -87.5 37t-22.5 92q9 54 53 91.5t99 37.5t87 -37.5t23 -91.5q-9 -55 -53 -92t-99 -37zM613 1673q-55 0 -86.5 37t-22.5 92q9 54 53 91.5t99 37.5t87 -37.5
t23 -91.5q-9 -55 -53 -92t-100 -37z" />
    <glyph glyph-name="Igrave" unicode="&#xcc;" horiz-adv-x="495" 
d="M518 1490l-247 -1490h-222l247 1490h222zM353 1624l-162 303h226l100 -303h-164z" />
    <glyph glyph-name="Iacute" unicode="&#xcd;" horiz-adv-x="495" 
d="M518 1490l-247 -1490h-222l247 1490h222zM339 1664l199 284h225l-260 -284h-164z" />
    <glyph glyph-name="Icircumflex" unicode="&#xce;" horiz-adv-x="495" 
d="M518 1490l-247 -1490h-222l247 1490h222zM292 1644h-191v1l282 282h189l190 -282v-1h-192l-111 173z" />
    <glyph glyph-name="Idieresis" unicode="&#xcf;" horiz-adv-x="495" 
d="M518 1490l-247 -1490h-222l247 1490h222zM651 1673q-56 0 -87.5 37t-22.5 92q9 54 53 91.5t99 37.5t87 -37.5t23 -91.5q-9 -55 -53 -92t-99 -37zM223 1673q-55 0 -86.5 37t-22.5 92q9 54 53 91.5t99 37.5t87 -37.5t23 -91.5q-9 -55 -53 -92t-100 -37z" />
    <glyph glyph-name="Eth" unicode="&#xd0;" horiz-adv-x="1499" 
d="M644 0h-516l247 1490h486q219 0 365 -90t206.5 -256.5t22.5 -396.5q-58 -347 -264 -547t-547 -200zM382 193h246q260 0 410.5 147t193.5 407q42 259 -41.5 404.5t-332.5 145.5h-293zM-67 675l29 178h836l-30 -178h-835z" />
    <glyph glyph-name="Ntilde" unicode="&#xd1;" horiz-adv-x="1465" 
d="M49 0l247 1490h236l424 -901q20 -42 54 -121t66 -160q11 82 23.5 167.5t19.5 127.5l147 887h223l-247 -1490h-235l-380 805q-24 51 -68.5 151.5t-99.5 231.5q-17 -136 -31.5 -233.5t-22.5 -148.5l-134 -806h-222zM1058 1680q-53 0 -95.5 22t-76 44t-59.5 22
q-28 0 -46 -26t-25 -59h-136q19 101 73.5 162.5t137.5 61.5q55 0 94 -22.5t71 -45t66 -22.5q50 0 73 85h132q-19 -103 -75.5 -162.5t-133.5 -59.5z" />
    <glyph glyph-name="Ograve" unicode="&#xd2;" horiz-adv-x="1534" 
d="M687 -24q-176 0 -307 76.5t-203 215.5t-72 324q0 178 59 343t167 295.5t257 207t330 76.5q176 0 307 -76.5t203 -215.5t72 -326q0 -179 -59.5 -344t-168 -295t-257 -205.5t-328.5 -75.5zM697 179q133 0 240.5 61t184 164t117 231t40.5 261q0 202 -104 308.5t-266 106.5
q-134 0 -242 -61.5t-184 -165t-116.5 -231.5t-40.5 -260q0 -202 104 -308t267 -106zM871 1624l-162 303h226l100 -303h-164z" />
    <glyph glyph-name="Oacute" unicode="&#xd3;" horiz-adv-x="1534" 
d="M687 -24q-176 0 -307 76.5t-203 215.5t-72 324q0 178 59 343t167 295.5t257 207t330 76.5q176 0 307 -76.5t203 -215.5t72 -326q0 -179 -59.5 -344t-168 -295t-257 -205.5t-328.5 -75.5zM697 179q133 0 240.5 61t184 164t117 231t40.5 261q0 202 -104 308.5t-266 106.5
q-134 0 -242 -61.5t-184 -165t-116.5 -231.5t-40.5 -260q0 -202 104 -308t267 -106zM857 1664l199 284h225l-260 -284h-164z" />
    <glyph glyph-name="Ocircumflex" unicode="&#xd4;" horiz-adv-x="1534" 
d="M687 -24q-176 0 -307 76.5t-203 215.5t-72 324q0 178 59 343t167 295.5t257 207t330 76.5q176 0 307 -76.5t203 -215.5t72 -326q0 -179 -59.5 -344t-168 -295t-257 -205.5t-328.5 -75.5zM697 179q133 0 240.5 61t184 164t117 231t40.5 261q0 202 -104 308.5t-266 106.5
q-134 0 -242 -61.5t-184 -165t-116.5 -231.5t-40.5 -260q0 -202 104 -308t267 -106zM811 1644h-191v1l282 282h189l190 -282v-1h-192l-111 173z" />
    <glyph glyph-name="Otilde" unicode="&#xd5;" horiz-adv-x="1534" 
d="M687 -24q-176 0 -307 76.5t-203 215.5t-72 324q0 178 59 343t167 295.5t257 207t330 76.5q176 0 307 -76.5t203 -215.5t72 -326q0 -179 -59.5 -344t-168 -295t-257 -205.5t-328.5 -75.5zM697 179q133 0 240.5 61t184 164t117 231t40.5 261q0 202 -104 308.5t-266 106.5
q-134 0 -242 -61.5t-184 -165t-116.5 -231.5t-40.5 -260q0 -202 104 -308t267 -106zM1091 1680q-53 0 -95.5 22t-76 44t-59.5 22q-28 0 -46 -26t-25 -59h-136q19 101 73.5 162.5t137.5 61.5q55 0 94 -22.5t71 -45t66 -22.5q50 0 73 85h132q-19 -103 -75.5 -162.5
t-133.5 -59.5z" />
    <glyph glyph-name="Odieresis" unicode="&#xd6;" horiz-adv-x="1534" 
d="M687 -24q-176 0 -307 76.5t-203 215.5t-72 324q0 178 59 343t167 295.5t257 207t330 76.5q176 0 307 -76.5t203 -215.5t72 -326q0 -179 -59.5 -344t-168 -295t-257 -205.5t-328.5 -75.5zM697 179q133 0 240.5 61t184 164t117 231t40.5 261q0 202 -104 308.5t-266 106.5
q-134 0 -242 -61.5t-184 -165t-116.5 -231.5t-40.5 -260q0 -202 104 -308t267 -106zM1170 1673q-56 0 -87.5 37t-22.5 92q9 54 53 91.5t99 37.5t87 -37.5t23 -91.5q-9 -55 -53 -92t-99 -37zM742 1673q-55 0 -86.5 37t-22.5 92q9 54 53 91.5t99 37.5t87 -37.5t23 -91.5
q-9 -55 -53 -92t-100 -37z" />
    <glyph glyph-name="multiply" unicode="&#xd7;" horiz-adv-x="1305" 
d="M933 98l-288 344l-399 -340l-124 144l400 343l-286 343l155 134l287 -344l399 341l124 -147l-400 -341l286 -343z" />
    <glyph glyph-name="Oslash" unicode="&#xd8;" horiz-adv-x="1534" 
d="M687 -24q-176 0 -307 76.5t-203 215.5t-72 324q0 178 59 343t167 295.5t257 207t330 76.5q176 0 307 -76.5t203 -215.5t72 -326q0 -179 -59.5 -344t-168 -295t-257 -205.5t-328.5 -75.5zM697 179q133 0 240.5 61t184 164t117 231t40.5 261q0 202 -104 308.5t-266 106.5
q-134 0 -242 -61.5t-184 -165t-116.5 -231.5t-40.5 -260q0 -202 104 -308t267 -106zM111 -61l-124 122l1508 1490l123 -122z" />
    <glyph glyph-name="Ugrave" unicode="&#xd9;" horiz-adv-x="1441" 
d="M641 -24q-182 0 -306 70.5t-179 193t-29 278.5l161 972h221l-160 -969q-26 -153 54 -248.5t247 -95.5q118 0 211.5 47t154 128t77.5 183l157 955h221l-164 -987q-26 -156 -117 -274.5t-232 -185.5t-317 -67zM825 1624l-162 303h226l100 -303h-164z" />
    <glyph glyph-name="Uacute" unicode="&#xda;" horiz-adv-x="1441" 
d="M641 -24q-182 0 -306 70.5t-179 193t-29 278.5l161 972h221l-160 -969q-26 -153 54 -248.5t247 -95.5q118 0 211.5 47t154 128t77.5 183l157 955h221l-164 -987q-26 -156 -117 -274.5t-232 -185.5t-317 -67zM811 1664l199 284h225l-260 -284h-164z" />
    <glyph glyph-name="Ucircumflex" unicode="&#xdb;" horiz-adv-x="1441" 
d="M641 -24q-182 0 -306 70.5t-179 193t-29 278.5l161 972h221l-160 -969q-26 -153 54 -248.5t247 -95.5q118 0 211.5 47t154 128t77.5 183l157 955h221l-164 -987q-26 -156 -117 -274.5t-232 -185.5t-317 -67zM765 1644h-191v1l282 282h189l190 -282v-1h-192l-111 173z" />
    <glyph glyph-name="Udieresis" unicode="&#xdc;" horiz-adv-x="1441" 
d="M641 -24q-182 0 -306 70.5t-179 193t-29 278.5l161 972h221l-160 -969q-26 -153 54 -248.5t247 -95.5q118 0 211.5 47t154 128t77.5 183l157 955h221l-164 -987q-26 -156 -117 -274.5t-232 -185.5t-317 -67zM1123 1673q-56 0 -87.5 37t-22.5 92q9 54 53 91.5t99 37.5
t87 -37.5t23 -91.5q-9 -55 -53 -92t-99 -37zM695 1673q-55 0 -86.5 37t-22.5 92q9 54 53 91.5t99 37.5t87 -37.5t23 -91.5q-9 -55 -53 -92t-100 -37z" />
    <glyph glyph-name="Yacute" unicode="&#xdd;" horiz-adv-x="1348" 
d="M478 0l98 595l-401 895h243l206 -470q23 -52 44 -104l42 -104q37 52 75.5 104t78.5 104l359 470h268l-695 -895l-98 -595h-220zM765 1664l199 284h225l-260 -284h-164z" />
    <glyph glyph-name="Thorn" unicode="&#xde;" horiz-adv-x="1258" 
d="M286 1490h222l-49 -298h266q165 0 269 -58.5t146.5 -157t22.5 -220.5t-95 -220.5t-199 -157t-288 -58.5h-267l-53 -320h-222zM345 505h267q148 0 235 66.5t106 180.5q19 115 -45.5 185t-212.5 70h-267z" />
    <glyph glyph-name="germandbls" unicode="&#xdf;" horiz-adv-x="1218" 
d="M48 0l183 1104q21 126 93.5 217t183 140t245.5 49q130 0 227.5 -46t144.5 -133.5t27 -210.5q-21 -124 -98 -209.5t-187 -119.5l-2 -14q141 -13 214 -112t47 -255q-20 -121 -91 -213.5t-180.5 -144.5t-243.5 -52h-172l31 188h160q112 0 189 64.5t94 166.5
q18 107 -44.5 175t-188.5 68h-126l31 187h88q67 0 121.5 34t90.5 88.5t46 116.5q16 98 -37.5 165t-165.5 67q-108 0 -188.5 -63.5t-97.5 -165.5l-180 -1091h-214z" />
    <glyph glyph-name="agrave" unicode="&#xe0;" horiz-adv-x="1179" 
d="M434 -21q-138 0 -229.5 69.5t-128 193t-10.5 286.5q27 163 105 286.5t192.5 193t250.5 69.5q103 0 183 -43t116 -130h2l26 152h206l-175 -1056h-206l26 159h-3q-68 -90 -160 -135t-195 -45zM506 161q135 0 232.5 100.5t124.5 266.5q28 167 -36 267.5t-199 100.5
q-127 0 -222.5 -94.5t-125.5 -273.5q-29 -179 35 -273t191 -94zM614 1190l-162 303h226l100 -303h-164z" />
    <glyph glyph-name="aacute" unicode="&#xe1;" horiz-adv-x="1179" 
d="M434 -21q-138 0 -229.5 69.5t-128 193t-10.5 286.5q27 163 105 286.5t192.5 193t250.5 69.5q103 0 183 -43t116 -130h2l26 152h206l-175 -1056h-206l26 159h-3q-68 -90 -160 -135t-195 -45zM506 161q135 0 232.5 100.5t124.5 266.5q28 167 -36 267.5t-199 100.5
q-127 0 -222.5 -94.5t-125.5 -273.5q-29 -179 35 -273t191 -94zM599 1230l199 284h225l-260 -284h-164z" />
    <glyph glyph-name="acircumflex" unicode="&#xe2;" horiz-adv-x="1179" 
d="M434 -21q-138 0 -229.5 69.5t-128 193t-10.5 286.5q27 163 105 286.5t192.5 193t250.5 69.5q103 0 183 -43t116 -130h2l26 152h206l-175 -1056h-206l26 159h-3q-68 -90 -160 -135t-195 -45zM506 161q135 0 232.5 100.5t124.5 266.5q28 167 -36 267.5t-199 100.5
q-127 0 -222.5 -94.5t-125.5 -273.5q-29 -179 35 -273t191 -94zM553 1210h-191v1l282 282h189l190 -282v-1h-192l-111 173z" />
    <glyph glyph-name="atilde" unicode="&#xe3;" horiz-adv-x="1179" 
d="M434 -21q-138 0 -229.5 69.5t-128 193t-10.5 286.5q27 163 105 286.5t192.5 193t250.5 69.5q103 0 183 -43t116 -130h2l26 152h206l-175 -1056h-206l26 159h-3q-68 -90 -160 -135t-195 -45zM506 161q135 0 232.5 100.5t124.5 266.5q28 167 -36 267.5t-199 100.5
q-127 0 -222.5 -94.5t-125.5 -273.5q-29 -179 35 -273t191 -94zM833 1246q-53 0 -95.5 22t-76 44t-59.5 22q-28 0 -46 -26t-25 -59h-136q19 101 73.5 162.5t137.5 61.5q55 0 94 -22.5t71 -45t66 -22.5q50 0 73 85h132q-19 -103 -75.5 -162.5t-133.5 -59.5z" />
    <glyph glyph-name="adieresis" unicode="&#xe4;" horiz-adv-x="1179" 
d="M434 -21q-138 0 -229.5 69.5t-128 193t-10.5 286.5q27 163 105 286.5t192.5 193t250.5 69.5q103 0 183 -43t116 -130h2l26 152h206l-175 -1056h-206l26 159h-3q-68 -90 -160 -135t-195 -45zM506 161q135 0 232.5 100.5t124.5 266.5q28 167 -36 267.5t-199 100.5
q-127 0 -222.5 -94.5t-125.5 -273.5q-29 -179 35 -273t191 -94zM912 1239q-56 0 -87.5 37t-22.5 92q9 54 53 91.5t99 37.5t87 -37.5t23 -91.5q-9 -55 -53 -92t-99 -37zM484 1239q-55 0 -86.5 37t-22.5 92q9 54 53 91.5t99 37.5t87 -37.5t23 -91.5q-9 -55 -53 -92t-100 -37z
" />
    <glyph glyph-name="aring" unicode="&#xe5;" horiz-adv-x="1179" 
d="M434 -21q-138 0 -229.5 69.5t-128 193t-10.5 286.5q27 163 105 286.5t192.5 193t250.5 69.5q103 0 183 -43t116 -130h2l26 152h206l-175 -1056h-206l26 159h-3q-68 -90 -160 -135t-195 -45zM506 161q135 0 232.5 100.5t124.5 266.5q28 167 -36 267.5t-199 100.5
q-127 0 -222.5 -94.5t-125.5 -273.5q-29 -179 35 -273t191 -94zM683 1144q-105 0 -164.5 67.5t-43.5 166.5q11 66 52.5 119t102.5 84t130 31q104 0 163.5 -67.5t43.5 -166.5q-11 -66 -52.5 -119t-102 -84t-129.5 -31zM697 1269q50 0 87.5 30.5t45.5 78.5t-15.5 78.5
t-68.5 30.5q-51 0 -88.5 -30.5t-45.5 -78.5t16 -78.5t69 -30.5z" />
    <glyph glyph-name="ae" unicode="&#xe6;" horiz-adv-x="1781" 
d="M363 -17q-178 0 -268 88.5t-64 239.5q47 292 446 294q38 0 72 -1.5t70 -3.5q31 -2 65.5 -3.5t74.5 -2.5l23 135q14 84 -35.5 129.5t-155.5 45.5q-101 0 -170.5 -46.5t-89.5 -125.5h-207q21 101 87.5 179t170 122t233.5 44q123 0 205 -40t121 -109q74 73 172.5 112.5
t215.5 39.5q170 0 278.5 -82t108.5 -233q0 -176 -195.5 -246t-574.5 -75q-2 -21 -2 -35q0 -129 55.5 -193t174.5 -64q111 0 189.5 49.5t111.5 125.5h211q-59 -167 -190 -259t-319 -92q-127 0 -220 46t-144 141q-68 -83 -179 -131.5t-271 -48.5zM969 591q212 3 329.5 24.5
t164.5 64t47 108.5q0 61 -47.5 88t-131.5 27q-150 0 -242 -83t-120 -229zM735 446q-22 1 -43.5 1.5t-43.5 1.5q-39 1 -77 2t-75 1q-101 0 -174 -30.5t-86 -111.5q-24 -157 169 -157q143 0 224.5 75t97.5 172z" />
    <glyph glyph-name="ccedilla" unicode="&#xe7;" horiz-adv-x="1092" 
d="M491 -24q-133 0 -230 55t-150 154t-53 231q0 125 41.5 243.5t119 213.5t187 151t244.5 56q125 0 219.5 -49.5t145.5 -136t45 -199.5h-210q-1 87 -49 145t-156 58q-119 0 -202.5 -70.5t-127.5 -181t-44 -228.5q0 -121 57.5 -190.5t170.5 -69.5q110 0 184 56.5t110 147.5
h213q-31 -111 -104.5 -198t-179 -137.5t-231.5 -50.5zM297 -418l18 110h117q96 0 106 64q11 64 -85 64h-81l70 227h101l-8 -47l-14 -84q87 -3 130 -47.5t31 -115.5q-15 -88 -84.5 -129.5t-176.5 -41.5h-124z" />
    <glyph glyph-name="egrave" unicode="&#xe8;" horiz-adv-x="1102" 
d="M493 -24q-199 0 -319 113.5t-112 355.5q5 192 84.5 335t213.5 221.5t302 78.5q166 0 271.5 -78.5t105.5 -226.5q0 -192 -194 -264.5t-575 -77.5q-2 -75 16.5 -139t70.5 -103t150 -39q109 0 184.5 47.5t108.5 123.5h206q-56 -155 -188 -251t-325 -96zM288 593
q215 2 333.5 22.5t165.5 59.5t47 97q0 61 -49.5 96t-144.5 35q-156 0 -239.5 -90.5t-112.5 -219.5zM603 1190l-162 303h226l100 -303h-164z" />
    <glyph glyph-name="eacute" unicode="&#xe9;" horiz-adv-x="1102" 
d="M493 -24q-199 0 -319 113.5t-112 355.5q5 192 84.5 335t213.5 221.5t302 78.5q166 0 271.5 -78.5t105.5 -226.5q0 -192 -194 -264.5t-575 -77.5q-2 -75 16.5 -139t70.5 -103t150 -39q109 0 184.5 47.5t108.5 123.5h206q-56 -155 -188 -251t-325 -96zM288 593
q215 2 333.5 22.5t165.5 59.5t47 97q0 61 -49.5 96t-144.5 35q-156 0 -239.5 -90.5t-112.5 -219.5zM589 1230l199 284h225l-260 -284h-164z" />
    <glyph glyph-name="ecircumflex" unicode="&#xea;" horiz-adv-x="1102" 
d="M493 -24q-199 0 -319 113.5t-112 355.5q5 192 84.5 335t213.5 221.5t302 78.5q166 0 271.5 -78.5t105.5 -226.5q0 -192 -194 -264.5t-575 -77.5q-2 -75 16.5 -139t70.5 -103t150 -39q109 0 184.5 47.5t108.5 123.5h206q-56 -155 -188 -251t-325 -96zM288 593
q215 2 333.5 22.5t165.5 59.5t47 97q0 61 -49.5 96t-144.5 35q-156 0 -239.5 -90.5t-112.5 -219.5zM543 1210h-191v1l282 282h189l190 -282v-1h-192l-111 173z" />
    <glyph glyph-name="edieresis" unicode="&#xeb;" horiz-adv-x="1102" 
d="M493 -24q-199 0 -319 113.5t-112 355.5q5 192 84.5 335t213.5 221.5t302 78.5q166 0 271.5 -78.5t105.5 -226.5q0 -192 -194 -264.5t-575 -77.5q-2 -75 16.5 -139t70.5 -103t150 -39q109 0 184.5 47.5t108.5 123.5h206q-56 -155 -188 -251t-325 -96zM288 593
q215 2 333.5 22.5t165.5 59.5t47 97q0 61 -49.5 96t-144.5 35q-156 0 -239.5 -90.5t-112.5 -219.5zM901 1239q-56 0 -87.5 37t-22.5 92q9 54 53 91.5t99 37.5t87 -37.5t23 -91.5q-9 -55 -53 -92t-99 -37zM473 1239q-55 0 -86.5 37t-22.5 92q9 54 53 91.5t99 37.5t87 -37.5
t23 -91.5q-9 -55 -53 -92t-100 -37z" />
    <glyph glyph-name="igrave" unicode="&#xec;" horiz-adv-x="450" 
d="M32 0l175 1056h211l-175 -1056h-211zM258 1190l-162 303h226l100 -303h-164z" />
    <glyph glyph-name="iacute" unicode="&#xed;" horiz-adv-x="450" 
d="M32 0l175 1056h211l-175 -1056h-211zM244 1230l199 284h225l-260 -284h-164z" />
    <glyph glyph-name="icircumflex" unicode="&#xee;" horiz-adv-x="450" 
d="M32 0l175 1056h211l-175 -1056h-211zM198 1210h-191v1l282 282h189l190 -282v-1h-192l-111 173z" />
    <glyph glyph-name="idieresis" unicode="&#xef;" horiz-adv-x="450" 
d="M32 0l175 1056h211l-175 -1056h-211zM557 1239q-56 0 -87.5 37t-22.5 92q9 54 53 91.5t99 37.5t87 -37.5t23 -91.5q-9 -55 -53 -92t-99 -37zM129 1239q-55 0 -86.5 37t-22.5 92q9 54 53 91.5t99 37.5t87 -37.5t23 -91.5q-9 -55 -53 -92t-100 -37z" />
    <glyph glyph-name="eth" unicode="&#xf0;" horiz-adv-x="1138" 
d="M1078 1412l-209 -95q121 -140 184 -332t23 -431q-30 -181 -113.5 -310t-208 -198t-276.5 -70q-153 1 -254.5 69.5t-143.5 189t-17 277.5q27 155 106 275t191.5 188.5t239.5 68.5q119 -1 187 -56.5t97 -116.5h16q-20 88 -67.5 183.5t-132.5 185.5l-295 -134l-21 118
l225 102q-81 66 -179 118l85 135q70 -32 138 -75.5t129 -98.5l274 125zM509 155q146 1 239 102t118 251q15 92 -1 178.5t-73 142.5t-162 56q-99 0 -173 -50t-120.5 -133.5t-63.5 -184.5q-15 -96 2 -178.5t74 -132.5t160 -51z" />
    <glyph glyph-name="ntilde" unicode="&#xf1;" horiz-adv-x="1146" 
d="M342 600l-99 -600h-211l174 1056h207l-24 -149q132 170 335 170q111 0 192.5 -49t118 -144t13.5 -233l-108 -651h-211l105 639q21 127 -27 188t-154 61q-112 0 -199.5 -70t-111.5 -218zM825 1246q-53 0 -95.5 22t-76 44t-59.5 22q-28 0 -46 -26t-25 -59h-136
q19 101 73.5 162.5t137.5 61.5q55 0 94 -22.5t71 -45t66 -22.5q50 0 73 85h132q-19 -103 -75.5 -162.5t-133.5 -59.5z" />
    <glyph glyph-name="ograve" unicode="&#xf2;" horiz-adv-x="1145" 
d="M494 -24q-203 0 -319 122.5t-116 321.5q0 129 42.5 247.5t121 211.5t187.5 147t242 54q202 0 318 -123.5t116 -324.5q0 -127 -42 -245t-120 -210.5t-187 -146.5t-243 -54zM503 158q91 0 160.5 42t116.5 112t71 154.5t24 169.5q0 123 -61 192.5t-171 69.5
q-118 0 -201.5 -71.5t-127.5 -182t-44 -227.5q0 -122 61 -190.5t172 -68.5zM606 1190l-162 303h226l100 -303h-164z" />
    <glyph glyph-name="oacute" unicode="&#xf3;" horiz-adv-x="1145" 
d="M494 -24q-203 0 -319 122.5t-116 321.5q0 129 42.5 247.5t121 211.5t187.5 147t242 54q202 0 318 -123.5t116 -324.5q0 -127 -42 -245t-120 -210.5t-187 -146.5t-243 -54zM503 158q91 0 160.5 42t116.5 112t71 154.5t24 169.5q0 123 -61 192.5t-171 69.5
q-118 0 -201.5 -71.5t-127.5 -182t-44 -227.5q0 -122 61 -190.5t172 -68.5zM591 1230l199 284h225l-260 -284h-164z" />
    <glyph glyph-name="ocircumflex" unicode="&#xf4;" horiz-adv-x="1145" 
d="M494 -24q-203 0 -319 122.5t-116 321.5q0 129 42.5 247.5t121 211.5t187.5 147t242 54q202 0 318 -123.5t116 -324.5q0 -127 -42 -245t-120 -210.5t-187 -146.5t-243 -54zM503 158q91 0 160.5 42t116.5 112t71 154.5t24 169.5q0 123 -61 192.5t-171 69.5
q-118 0 -201.5 -71.5t-127.5 -182t-44 -227.5q0 -122 61 -190.5t172 -68.5zM545 1210h-191v1l282 282h189l190 -282v-1h-192l-111 173z" />
    <glyph glyph-name="otilde" unicode="&#xf5;" horiz-adv-x="1145" 
d="M494 -24q-203 0 -319 122.5t-116 321.5q0 129 42.5 247.5t121 211.5t187.5 147t242 54q202 0 318 -123.5t116 -324.5q0 -127 -42 -245t-120 -210.5t-187 -146.5t-243 -54zM503 158q91 0 160.5 42t116.5 112t71 154.5t24 169.5q0 123 -61 192.5t-171 69.5
q-118 0 -201.5 -71.5t-127.5 -182t-44 -227.5q0 -122 61 -190.5t172 -68.5zM825 1246q-53 0 -95.5 22t-76 44t-59.5 22q-28 0 -46 -26t-25 -59h-136q19 101 73.5 162.5t137.5 61.5q55 0 94 -22.5t71 -45t66 -22.5q50 0 73 85h132q-19 -103 -75.5 -162.5t-133.5 -59.5z" />
    <glyph glyph-name="odieresis" unicode="&#xf6;" horiz-adv-x="1145" 
d="M494 -24q-203 0 -319 122.5t-116 321.5q0 129 42.5 247.5t121 211.5t187.5 147t242 54q202 0 318 -123.5t116 -324.5q0 -127 -42 -245t-120 -210.5t-187 -146.5t-243 -54zM503 158q91 0 160.5 42t116.5 112t71 154.5t24 169.5q0 123 -61 192.5t-171 69.5
q-118 0 -201.5 -71.5t-127.5 -182t-44 -227.5q0 -122 61 -190.5t172 -68.5zM904 1239q-56 0 -87.5 37t-22.5 92q9 54 53 91.5t99 37.5t87 -37.5t23 -91.5q-9 -55 -53 -92t-99 -37zM476 1239q-55 0 -86.5 37t-22.5 92q9 54 53 91.5t99 37.5t87 -37.5t23 -91.5q-9 -55 -53 -92
t-100 -37z" />
    <glyph glyph-name="divide" unicode="&#xf7;" horiz-adv-x="1305" 
d="M1156 681l-32 -189h-956l31 189h957zM701 829q-60 -1 -95 41t-25 103q10 58 59 99.5t108 41.5t94 -41.5t25 -99.5q-10 -61 -58.5 -103t-107.5 -41zM574 58q-60 0 -95 42t-25 102q9 58 58 100t109 41q59 1 93.5 -41t24.5 -100q-9 -60 -58 -102t-107 -42z" />
    <glyph glyph-name="oslash" unicode="&#xf8;" horiz-adv-x="1145" 
d="M494 -24q-203 0 -319 122.5t-116 321.5q0 129 42.5 247.5t121 211.5t187.5 147t242 54q202 0 318 -123.5t116 -324.5q0 -127 -42 -245t-120 -210.5t-187 -146.5t-243 -54zM503 158q91 0 160.5 42t116.5 112t71 154.5t24 169.5q0 123 -61 192.5t-171 69.5
q-118 0 -201.5 -71.5t-127.5 -182t-44 -227.5q0 -122 61 -190.5t172 -68.5zM59 -47l-90 94l1117 1056l90 -94z" />
    <glyph glyph-name="ugrave" unicode="&#xf9;" horiz-adv-x="1147" 
d="M411 -21q-109 0 -188 47.5t-114 140.5t-12 231l110 658h211l-105 -632q-21 -127 29.5 -191.5t160.5 -64.5q107 0 191.5 66.5t109.5 213.5l100 608h211l-175 -1056h-207l26 158q-138 -179 -348 -179zM607 1190l-162 303h226l100 -303h-164z" />
    <glyph glyph-name="uacute" unicode="&#xfa;" horiz-adv-x="1147" 
d="M411 -21q-109 0 -188 47.5t-114 140.5t-12 231l110 658h211l-105 -632q-21 -127 29.5 -191.5t160.5 -64.5q107 0 191.5 66.5t109.5 213.5l100 608h211l-175 -1056h-207l26 158q-138 -179 -348 -179zM593 1230l199 284h225l-260 -284h-164z" />
    <glyph glyph-name="ucircumflex" unicode="&#xfb;" horiz-adv-x="1147" 
d="M411 -21q-109 0 -188 47.5t-114 140.5t-12 231l110 658h211l-105 -632q-21 -127 29.5 -191.5t160.5 -64.5q107 0 191.5 66.5t109.5 213.5l100 608h211l-175 -1056h-207l26 158q-138 -179 -348 -179zM546 1210h-191v1l282 282h189l190 -282v-1h-192l-111 173z" />
    <glyph glyph-name="udieresis" unicode="&#xfc;" horiz-adv-x="1147" 
d="M411 -21q-109 0 -188 47.5t-114 140.5t-12 231l110 658h211l-105 -632q-21 -127 29.5 -191.5t160.5 -64.5q107 0 191.5 66.5t109.5 213.5l100 608h211l-175 -1056h-207l26 158q-138 -179 -348 -179zM905 1239q-56 0 -87.5 37t-22.5 92q9 54 53 91.5t99 37.5t87 -37.5
t23 -91.5q-9 -55 -53 -92t-99 -37zM477 1239q-55 0 -86.5 37t-22.5 92q9 54 53 91.5t99 37.5t87 -37.5t23 -91.5q-9 -55 -53 -92t-100 -37z" />
    <glyph glyph-name="yacute" unicode="&#xfd;" horiz-adv-x="1077" 
d="M-24 -418l29 178h114q50 0 86.5 29t70.5 93l69 125l-234 1049h216l115 -579q23 -119 42 -236q29 59 59 118l60 118l305 579h232l-685 -1241q-62 -112 -151.5 -172.5t-193.5 -60.5h-134zM545 1230l199 284h225l-260 -284h-164z" />
    <glyph glyph-name="thorn" unicode="&#xfe;" horiz-adv-x="1179" 
d="M564 -21q-103 0 -178.5 45t-113.5 135h-3l-95 -577h-212l316 1908h212l-97 -586h3q64 87 156 130t195 43q137 0 228 -69.5t128 -193t10 -286.5t-104.5 -286.5t-192 -193t-252.5 -69.5zM552 161q127 0 222.5 94t124.5 273q30 179 -34 273.5t-191 94.5
q-135 0 -232.5 -100.5t-124.5 -267.5q-28 -166 36 -266.5t199 -100.5z" />
    <glyph glyph-name="ydieresis" unicode="&#xff;" horiz-adv-x="1077" 
d="M-24 -418l29 178h114q50 0 86.5 29t70.5 93l69 125l-234 1049h216l115 -579q23 -119 42 -236q29 59 59 118l60 118l305 579h232l-685 -1241q-62 -112 -151.5 -172.5t-193.5 -60.5h-134zM857 1239q-56 0 -87.5 37t-22.5 92q9 54 53 91.5t99 37.5t87 -37.5t23 -91.5
q-9 -55 -53 -92t-99 -37zM429 1239q-55 0 -86.5 37t-22.5 92q9 54 53 91.5t99 37.5t87 -37.5t23 -91.5q-9 -55 -53 -92t-100 -37z" />
    <glyph glyph-name="Amacron" unicode="&#x100;" horiz-adv-x="1379" 
d="M-71 0l788 1490h268l290 -1490h-232l-68 387h-601l-200 -387h-245zM472 576h470l-47 264q-15 92 -31.5 197t-36.5 250q-69 -145 -120.5 -250t-97.5 -197zM1192 1854l-26 -157h-560l26 157h560z" />
    <glyph glyph-name="amacron" unicode="&#x101;" horiz-adv-x="1179" 
d="M434 -21q-138 0 -229.5 69.5t-128 193t-10.5 286.5q27 163 105 286.5t192.5 193t250.5 69.5q103 0 183 -43t116 -130h2l26 152h206l-175 -1056h-206l26 159h-3q-68 -90 -160 -135t-195 -45zM506 161q135 0 232.5 100.5t124.5 266.5q28 167 -36 267.5t-199 100.5
q-127 0 -222.5 -94.5t-125.5 -273.5q-29 -179 35 -273t191 -94zM1008 1420l-26 -157h-560l26 157h560z" />
    <glyph glyph-name="Abreve" unicode="&#x102;" horiz-adv-x="1379" 
d="M-71 0l788 1490h268l290 -1490h-232l-68 387h-601l-200 -387h-245zM472 576h470l-47 264q-15 92 -31.5 197t-36.5 250q-69 -145 -120.5 -250t-97.5 -197zM875 1636q-85 0 -147.5 38.5t-92 104t-15.5 147.5h144q-12 -68 26 -111t108 -43t121.5 43t63.5 111h145
q-13 -82 -64.5 -147.5t-127 -104t-161.5 -38.5z" />
    <glyph glyph-name="abreve" unicode="&#x103;" horiz-adv-x="1179" 
d="M434 -21q-138 0 -229.5 69.5t-128 193t-10.5 286.5q27 163 105 286.5t192.5 193t250.5 69.5q103 0 183 -43t116 -130h2l26 152h206l-175 -1056h-206l26 159h-3q-68 -90 -160 -135t-195 -45zM506 161q135 0 232.5 100.5t124.5 266.5q28 167 -36 267.5t-199 100.5
q-127 0 -222.5 -94.5t-125.5 -273.5q-29 -179 35 -273t191 -94zM691 1202q-85 0 -147.5 38.5t-92 104t-15.5 147.5h144q-12 -68 26 -111t108 -43t121.5 43t63.5 111h145q-13 -82 -64.5 -147.5t-127 -104t-161.5 -38.5z" />
    <glyph glyph-name="Aogonek" unicode="&#x104;" horiz-adv-x="1379" 
d="M-71 0l788 1490h268l290 -1490h-232l-68 387h-601l-200 -387h-245zM472 576h470l-47 264q-15 92 -31.5 197t-36.5 250q-69 -145 -120.5 -250t-97.5 -197zM1074 -418q-105 0 -158 48.5t-36 144.5q13 80 62.5 137t127.5 118l205 -30q-95 -71 -133 -111t-44 -79
q-12 -68 74 -68h61l-27 -160h-132z" />
    <glyph glyph-name="aogonek" unicode="&#x105;" horiz-adv-x="1179" 
d="M434 -21q-138 0 -229.5 69.5t-128 193t-10.5 286.5q27 163 105 286.5t192.5 193t250.5 69.5q103 0 183 -43t116 -130h2l26 152h206l-175 -1056h-206l26 159h-3q-68 -90 -160 -135t-195 -45zM506 161q135 0 232.5 100.5t124.5 266.5q28 167 -36 267.5t-199 100.5
q-127 0 -222.5 -94.5t-125.5 -273.5q-29 -179 35 -273t191 -94zM773 -418q-104 0 -156 49t-36 144q12 73 58.5 128.5t127.5 112.5l205 -16q-95 -73 -133 -112t-44 -78q-12 -68 74 -68h61l-27 -160h-130z" />
    <glyph glyph-name="Cacute" unicode="&#x106;" horiz-adv-x="1484" 
d="M697 -24q-182 0 -315 76.5t-205 214.5t-72 323q0 181 59 346.5t167.5 296t260 206t336.5 75.5q164 0 288.5 -63.5t194.5 -180t70 -276.5h-224q-8 152 -98.5 234.5t-238.5 82.5q-139 0 -249 -61t-187 -164.5t-117.5 -231.5t-40.5 -261q0 -190 98.5 -302t283.5 -112
q156 0 280.5 82t184.5 233h226q-52 -158 -157 -274.5t-245 -180t-300 -63.5zM849 1664l199 284h225l-260 -284h-164z" />
    <glyph glyph-name="cacute" unicode="&#x107;" horiz-adv-x="1092" 
d="M491 -24q-133 0 -230 55t-150 154t-53 231q0 125 41.5 243.5t119 213.5t187 151t244.5 56q125 0 219.5 -49.5t145.5 -136t45 -199.5h-210q-1 87 -49 145t-156 58q-119 0 -202.5 -70.5t-127.5 -181t-44 -228.5q0 -121 57.5 -190.5t170.5 -69.5q110 0 184 56.5t110 147.5
h213q-31 -111 -104.5 -198t-179 -137.5t-231.5 -50.5zM583 1230l199 284h225l-260 -284h-164z" />
    <glyph glyph-name="Ccircumflex" unicode="&#x108;" horiz-adv-x="1484" 
d="M697 -24q-182 0 -315 76.5t-205 214.5t-72 323q0 181 59 346.5t167.5 296t260 206t336.5 75.5q164 0 288.5 -63.5t194.5 -180t70 -276.5h-224q-8 152 -98.5 234.5t-238.5 82.5q-139 0 -249 -61t-187 -164.5t-117.5 -231.5t-40.5 -261q0 -190 98.5 -302t283.5 -112
q156 0 280.5 82t184.5 233h226q-52 -158 -157 -274.5t-245 -180t-300 -63.5zM803 1644h-191v1l282 282h189l190 -282v-1h-192l-111 173z" />
    <glyph glyph-name="ccircumflex" unicode="&#x109;" horiz-adv-x="1092" 
d="M491 -24q-133 0 -230 55t-150 154t-53 231q0 125 41.5 243.5t119 213.5t187 151t244.5 56q125 0 219.5 -49.5t145.5 -136t45 -199.5h-210q-1 87 -49 145t-156 58q-119 0 -202.5 -70.5t-127.5 -181t-44 -228.5q0 -121 57.5 -190.5t170.5 -69.5q110 0 184 56.5t110 147.5
h213q-31 -111 -104.5 -198t-179 -137.5t-231.5 -50.5zM537 1210h-191v1l282 282h189l190 -282v-1h-192l-111 173z" />
    <glyph glyph-name="Cdotaccent" unicode="&#x10a;" horiz-adv-x="1484" 
d="M697 -24q-182 0 -315 76.5t-205 214.5t-72 323q0 181 59 346.5t167.5 296t260 206t336.5 75.5q164 0 288.5 -63.5t194.5 -180t70 -276.5h-224q-8 152 -98.5 234.5t-238.5 82.5q-139 0 -249 -61t-187 -164.5t-117.5 -231.5t-40.5 -261q0 -190 98.5 -302t283.5 -112
q156 0 280.5 82t184.5 233h226q-52 -158 -157 -274.5t-245 -180t-300 -63.5zM947 1675q-54 0 -86.5 38t-23.5 92t53.5 92t99.5 38t87.5 -38t23.5 -92t-54 -92t-100 -38z" />
    <glyph glyph-name="cdotaccent" unicode="&#x10b;" horiz-adv-x="1092" 
d="M491 -24q-133 0 -230 55t-150 154t-53 231q0 125 41.5 243.5t119 213.5t187 151t244.5 56q125 0 219.5 -49.5t145.5 -136t45 -199.5h-210q-1 87 -49 145t-156 58q-119 0 -202.5 -70.5t-127.5 -181t-44 -228.5q0 -121 57.5 -190.5t170.5 -69.5q110 0 184 56.5t110 147.5
h213q-31 -111 -104.5 -198t-179 -137.5t-231.5 -50.5zM681 1241q-54 0 -86.5 38t-23.5 92t53.5 92t99.5 38t87.5 -38t23.5 -92t-54 -92t-100 -38z" />
    <glyph glyph-name="Ccaron" unicode="&#x10c;" horiz-adv-x="1484" 
d="M697 -24q-182 0 -315 76.5t-205 214.5t-72 323q0 181 59 346.5t167.5 296t260 206t336.5 75.5q164 0 288.5 -63.5t194.5 -180t70 -276.5h-224q-8 152 -98.5 234.5t-238.5 82.5q-139 0 -249 -61t-187 -164.5t-117.5 -231.5t-40.5 -261q0 -190 98.5 -302t283.5 -112
q156 0 280.5 82t184.5 233h226q-52 -158 -157 -274.5t-245 -180t-300 -63.5zM849 1927l111 -173l168 173h192v-1l-285 -282h-189l-187 282v1h190z" />
    <glyph glyph-name="ccaron" unicode="&#x10d;" horiz-adv-x="1092" 
d="M491 -24q-133 0 -230 55t-150 154t-53 231q0 125 41.5 243.5t119 213.5t187 151t244.5 56q125 0 219.5 -49.5t145.5 -136t45 -199.5h-210q-1 87 -49 145t-156 58q-119 0 -202.5 -70.5t-127.5 -181t-44 -228.5q0 -121 57.5 -190.5t170.5 -69.5q110 0 184 56.5t110 147.5
h213q-31 -111 -104.5 -198t-179 -137.5t-231.5 -50.5zM583 1493l111 -173l168 173h192v-1l-285 -282h-189l-187 282v1h190z" />
    <glyph glyph-name="Dcaron" unicode="&#x10e;" horiz-adv-x="1421" 
d="M565 0h-516l247 1490h486q219 0 365 -90t206.5 -256.5t22.5 -396.5q-58 -347 -264 -547t-547 -200zM303 193h246q260 0 410.5 147t193.5 407q42 259 -41.5 404.5t-332.5 145.5h-293zM676 1927l111 -173l168 173h192v-1l-285 -282h-189l-187 282v1h190z" />
    <glyph glyph-name="dcaron" unicode="&#x10f;" horiz-adv-x="1379" 
d="M446 -21q-182 0 -285 118t-103 313q0 124 37 242.5t107.5 214.5t171.5 153t228 57q107 0 189 -46.5t118 -134.5h1l98 594h211l-246 -1490h-207l25 156h-1q-68 -94 -157 -135.5t-187 -41.5zM494 161q117 0 202.5 70t131.5 178.5t46 223.5q0 122 -61.5 192.5t-172.5 70.5
q-119 0 -201.5 -71t-126 -181.5t-43.5 -228.5q0 -125 60.5 -189.5t164.5 -64.5zM1309 1182l62 380h193l-115 -380h-140z" />
    <glyph glyph-name="Dcroat" unicode="&#x110;" horiz-adv-x="1499" 
d="M644 0h-516l247 1490h486q219 0 365 -90t206.5 -256.5t22.5 -396.5q-58 -347 -264 -547t-547 -200zM382 193h246q260 0 410.5 147t193.5 407q42 259 -41.5 404.5t-332.5 145.5h-293zM-67 675l29 178h836l-30 -178h-835z" />
    <glyph glyph-name="dcroat" unicode="&#x111;" horiz-adv-x="1179" 
d="M446 -21q-182 0 -285 118t-103 313q0 124 37 242.5t107.5 214.5t171.5 153t228 57q107 0 189 -46.5t118 -134.5h1l98 594h211l-246 -1490h-207l25 156h-1q-68 -94 -157 -135.5t-187 -41.5zM494 161q117 0 202.5 70t131.5 178.5t46 223.5q0 122 -61.5 192.5t-172.5 70.5
q-119 0 -201.5 -71t-126 -181.5t-43.5 -228.5q0 -125 60.5 -189.5t164.5 -64.5zM636 1183l27 158h680l-27 -158h-680z" />
    <glyph glyph-name="Emacron" unicode="&#x112;" horiz-adv-x="1202" 
d="M49 0l247 1490h1002l-33 -195h-780l-72 -439h722l-32 -193h-722l-78 -468h780l-32 -195h-1002zM1136 1854l-26 -157h-560l26 157h560z" />
    <glyph glyph-name="emacron" unicode="&#x113;" horiz-adv-x="1102" 
d="M493 -24q-199 0 -319 113.5t-112 355.5q5 192 84.5 335t213.5 221.5t302 78.5q166 0 271.5 -78.5t105.5 -226.5q0 -192 -194 -264.5t-575 -77.5q-2 -75 16.5 -139t70.5 -103t150 -39q109 0 184.5 47.5t108.5 123.5h206q-56 -155 -188 -251t-325 -96zM288 593
q215 2 333.5 22.5t165.5 59.5t47 97q0 61 -49.5 96t-144.5 35q-156 0 -239.5 -90.5t-112.5 -219.5zM997 1420l-26 -157h-560l26 157h560z" />
    <glyph glyph-name="Ebreve" unicode="&#x114;" horiz-adv-x="1202" 
d="M49 0l247 1490h1002l-33 -195h-780l-72 -439h722l-32 -193h-722l-78 -468h780l-32 -195h-1002zM820 1636q-85 0 -147.5 38.5t-92 104t-15.5 147.5h144q-12 -68 26 -111t108 -43t121.5 43t63.5 111h145q-13 -82 -64.5 -147.5t-127 -104t-161.5 -38.5z" />
    <glyph glyph-name="ebreve" unicode="&#x115;" horiz-adv-x="1102" 
d="M493 -24q-199 0 -319 113.5t-112 355.5q5 192 84.5 335t213.5 221.5t302 78.5q166 0 271.5 -78.5t105.5 -226.5q0 -192 -194 -264.5t-575 -77.5q-2 -75 16.5 -139t70.5 -103t150 -39q109 0 184.5 47.5t108.5 123.5h206q-56 -155 -188 -251t-325 -96zM288 593
q215 2 333.5 22.5t165.5 59.5t47 97q0 61 -49.5 96t-144.5 35q-156 0 -239.5 -90.5t-112.5 -219.5zM681 1202q-85 0 -147.5 38.5t-92 104t-15.5 147.5h144q-12 -68 26 -111t108 -43t121.5 43t63.5 111h145q-13 -82 -64.5 -147.5t-127 -104t-161.5 -38.5z" />
    <glyph glyph-name="Edotaccent" unicode="&#x116;" horiz-adv-x="1202" 
d="M49 0l247 1490h1002l-33 -195h-780l-72 -439h722l-32 -193h-722l-78 -468h780l-32 -195h-1002zM826 1675q-54 0 -86.5 38t-23.5 92t53.5 92t99.5 38t87.5 -38t23.5 -92t-54 -92t-100 -38z" />
    <glyph glyph-name="edotaccent" unicode="&#x117;" horiz-adv-x="1102" 
d="M493 -24q-199 0 -319 113.5t-112 355.5q5 192 84.5 335t213.5 221.5t302 78.5q166 0 271.5 -78.5t105.5 -226.5q0 -192 -194 -264.5t-575 -77.5q-2 -75 16.5 -139t70.5 -103t150 -39q109 0 184.5 47.5t108.5 123.5h206q-56 -155 -188 -251t-325 -96zM288 593
q215 2 333.5 22.5t165.5 59.5t47 97q0 61 -49.5 96t-144.5 35q-156 0 -239.5 -90.5t-112.5 -219.5zM687 1241q-54 0 -86.5 38t-23.5 92t53.5 92t99.5 38t87.5 -38t23.5 -92t-54 -92t-100 -38z" />
    <glyph glyph-name="Eogonek" unicode="&#x118;" horiz-adv-x="1202" 
d="M49 0l247 1490h1002l-33 -195h-780l-72 -439h722l-32 -193h-722l-78 -468h780l-32 -195h-1002zM852 -418q-104 0 -156 49t-36 144q13 80 71 145t178 132l142 -52q-95 -71 -133 -111t-44 -79q-12 -68 74 -68h61l-27 -160h-130z" />
    <glyph glyph-name="eogonek" unicode="&#x119;" horiz-adv-x="1102" 
d="M493 -24q-199 0 -319 113.5t-112 355.5q5 192 84.5 335t213.5 221.5t302 78.5q166 0 271.5 -78.5t105.5 -226.5q0 -192 -194 -264.5t-575 -77.5q-2 -75 16.5 -139t70.5 -103t150 -39q109 0 184.5 47.5t108.5 123.5h206q-56 -155 -188 -251t-325 -96zM288 593
q215 2 333.5 22.5t165.5 59.5t47 97q0 61 -49.5 96t-144.5 35q-156 0 -239.5 -90.5t-112.5 -219.5zM663 -416q-238 0 -206 189q13 79 60.5 141t103.5 122l384 287q-25 -76 -76.5 -146t-108 -133.5t-99.5 -121.5t-51 -110q-6 -32 11.5 -50t75.5 -18h61l-27 -160h-128z" />
    <glyph glyph-name="Ecaron" unicode="&#x11a;" horiz-adv-x="1202" 
d="M49 0l247 1490h1002l-33 -195h-780l-72 -439h722l-32 -193h-722l-78 -468h780l-32 -195h-1002zM729 1927l111 -173l168 173h192v-1l-285 -282h-189l-187 282v1h190z" />
    <glyph glyph-name="ecaron" unicode="&#x11b;" horiz-adv-x="1102" 
d="M493 -24q-199 0 -319 113.5t-112 355.5q5 192 84.5 335t213.5 221.5t302 78.5q166 0 271.5 -78.5t105.5 -226.5q0 -192 -194 -264.5t-575 -77.5q-2 -75 16.5 -139t70.5 -103t150 -39q109 0 184.5 47.5t108.5 123.5h206q-56 -155 -188 -251t-325 -96zM288 593
q215 2 333.5 22.5t165.5 59.5t47 97q0 61 -49.5 96t-144.5 35q-156 0 -239.5 -90.5t-112.5 -219.5zM589 1493l111 -173l168 173h192v-1l-285 -282h-189l-187 282v1h190z" />
    <glyph glyph-name="Gcircumflex" unicode="&#x11c;" horiz-adv-x="1500" 
d="M692 -24q-179 0 -311 77.5t-204 216t-72 323.5q0 178 59.5 343.5t168 295.5t258 206t330.5 76q164 0 290.5 -64.5t198 -179.5t70.5 -268h-226q-4 138 -94 223.5t-245 85.5q-137 0 -246 -61.5t-185.5 -165t-117 -231t-40.5 -257.5q0 -191 99.5 -304t278.5 -113
q119 0 223.5 50.5t177.5 140.5t95 206h-369l31 185h588l-30 -178q-30 -178 -134.5 -315t-259 -214.5t-334.5 -77.5zM804 1644h-191v1l282 282h189l190 -282v-1h-192l-111 173z" />
    <glyph glyph-name="gcircumflex" unicode="&#x11d;" horiz-adv-x="1179" 
d="M432 -432q-196 0 -309 86t-107 241h206q7 -77 62.5 -116t150.5 -39q134 0 223 72.5t108 200.5l23 153h-1q-70 -92 -155 -136t-186 -44q-183 0 -286 118.5t-103 311.5q0 123 37.5 240.5t108.5 212.5t171.5 151.5t225.5 56.5q108 0 190 -45t121 -139h1l26 163h208
l-173 -1050q-26 -159 -105.5 -255.5t-193 -139.5t-243.5 -43zM494 167q118 0 203 69t131 177t46 223q0 122 -61.5 191.5t-172.5 69.5q-118 0 -201 -70.5t-126 -180t-43 -226.5q0 -125 60 -189t164 -64zM537 1210h-191v1l282 282h189l190 -282v-1h-192l-111 173z" />
    <glyph glyph-name="Gbreve" unicode="&#x11e;" horiz-adv-x="1500" 
d="M692 -24q-179 0 -311 77.5t-204 216t-72 323.5q0 178 59.5 343.5t168 295.5t258 206t330.5 76q164 0 290.5 -64.5t198 -179.5t70.5 -268h-226q-4 138 -94 223.5t-245 85.5q-137 0 -246 -61.5t-185.5 -165t-117 -231t-40.5 -257.5q0 -191 99.5 -304t278.5 -113
q119 0 223.5 50.5t177.5 140.5t95 206h-369l31 185h588l-30 -178q-30 -178 -134.5 -315t-259 -214.5t-334.5 -77.5zM942 1636q-85 0 -147.5 38.5t-92 104t-15.5 147.5h144q-12 -68 26 -111t108 -43t121.5 43t63.5 111h145q-13 -82 -64.5 -147.5t-127 -104t-161.5 -38.5z" />
    <glyph glyph-name="gbreve" unicode="&#x11f;" horiz-adv-x="1179" 
d="M432 -432q-196 0 -309 86t-107 241h206q7 -77 62.5 -116t150.5 -39q134 0 223 72.5t108 200.5l23 153h-1q-70 -92 -155 -136t-186 -44q-183 0 -286 118.5t-103 311.5q0 123 37.5 240.5t108.5 212.5t171.5 151.5t225.5 56.5q108 0 190 -45t121 -139h1l26 163h208
l-173 -1050q-26 -159 -105.5 -255.5t-193 -139.5t-243.5 -43zM494 167q118 0 203 69t131 177t46 223q0 122 -61.5 191.5t-172.5 69.5q-118 0 -201 -70.5t-126 -180t-43 -226.5q0 -125 60 -189t164 -64zM675 1202q-85 0 -147.5 38.5t-92 104t-15.5 147.5h144q-12 -68 26 -111
t108 -43t121.5 43t63.5 111h145q-13 -82 -64.5 -147.5t-127 -104t-161.5 -38.5z" />
    <glyph glyph-name="Gdotaccent" unicode="&#x120;" horiz-adv-x="1500" 
d="M692 -24q-179 0 -311 77.5t-204 216t-72 323.5q0 178 59.5 343.5t168 295.5t258 206t330.5 76q164 0 290.5 -64.5t198 -179.5t70.5 -268h-226q-4 138 -94 223.5t-245 85.5q-137 0 -246 -61.5t-185.5 -165t-117 -231t-40.5 -257.5q0 -191 99.5 -304t278.5 -113
q119 0 223.5 50.5t177.5 140.5t95 206h-369l31 185h588l-30 -178q-30 -178 -134.5 -315t-259 -214.5t-334.5 -77.5zM948 1675q-54 0 -86.5 38t-23.5 92t53.5 92t99.5 38t87.5 -38t23.5 -92t-54 -92t-100 -38z" />
    <glyph glyph-name="gdotaccent" unicode="&#x121;" horiz-adv-x="1179" 
d="M432 -432q-196 0 -309 86t-107 241h206q7 -77 62.5 -116t150.5 -39q134 0 223 72.5t108 200.5l23 153h-1q-70 -92 -155 -136t-186 -44q-183 0 -286 118.5t-103 311.5q0 123 37.5 240.5t108.5 212.5t171.5 151.5t225.5 56.5q108 0 190 -45t121 -139h1l26 163h208
l-173 -1050q-26 -159 -105.5 -255.5t-193 -139.5t-243.5 -43zM494 167q118 0 203 69t131 177t46 223q0 122 -61.5 191.5t-172.5 69.5q-118 0 -201 -70.5t-126 -180t-43 -226.5q0 -125 60 -189t164 -64zM681 1241q-54 0 -86.5 38t-23.5 92t53.5 92t99.5 38t87.5 -38t23.5 -92
t-54 -92t-100 -38z" />
    <glyph glyph-name="uni0122" unicode="&#x122;" horiz-adv-x="1500" 
d="M692 -24q-179 0 -311 77.5t-204 216t-72 323.5q0 178 59.5 343.5t168 295.5t258 206t330.5 76q164 0 290.5 -64.5t198 -179.5t70.5 -268h-226q-4 138 -94 223.5t-245 85.5q-137 0 -246 -61.5t-185.5 -165t-117 -231t-40.5 -257.5q0 -191 99.5 -304t278.5 -113
q119 0 223.5 50.5t177.5 140.5t95 206h-369l31 185h588l-30 -178q-30 -178 -134.5 -315t-259 -214.5t-334.5 -77.5zM403 -489l145 371h210l-197 -371h-158z" />
    <glyph glyph-name="uni0123" unicode="&#x123;" horiz-adv-x="1179" 
d="M432 -432q-196 0 -309 86t-107 241h206q7 -77 62.5 -116t150.5 -39q134 0 223 72.5t108 200.5l23 153h-1q-70 -92 -155 -136t-186 -44q-183 0 -286 118.5t-103 311.5q0 123 37.5 240.5t108.5 212.5t171.5 151.5t225.5 56.5q108 0 190 -45t121 -139h1l26 163h208
l-173 -1050q-26 -159 -105.5 -255.5t-193 -139.5t-243.5 -43zM494 167q118 0 203 69t131 177t46 223q0 122 -61.5 191.5t-172.5 69.5q-118 0 -201 -70.5t-126 -180t-43 -226.5q0 -125 60 -189t164 -64zM586 1194l22 131q14 82 47 143t70.5 104t65.5 70l113 -87
q-44 -59 -77 -110t-46 -129l-20 -122h-175z" />
    <glyph glyph-name="Hcircumflex" unicode="&#x124;" horiz-adv-x="1458" 
d="M49 0l247 1490h222l-104 -631h740l105 631h222l-247 -1490h-222l110 665h-741l-110 -665h-222zM774 1644h-191v1l282 282h189l190 -282v-1h-192l-111 173z" />
    <glyph glyph-name="hcircumflex" unicode="&#x125;" horiz-adv-x="1147" 
d="M344 608l-101 -608h-211l247 1490h211l-97 -584q133 171 334 171q108 0 189.5 -47.5t119 -140.5t14.5 -231l-110 -658h-211l105 632q21 127 -29.5 191.5t-160.5 64.5q-107 0 -191.5 -66.5t-108.5 -213.5zM270 1644h-191v1l282 282h189l190 -282v-1h-192l-111 173z" />
    <glyph glyph-name="Hbar" unicode="&#x126;" horiz-adv-x="1526" 
d="M1588 1193l-26 -160h-123l-172 -1033h-222l110 665h-741l-110 -665h-222l171 1033h-121l26 160h122l49 297h222l-49 -297h740l50 297h222l-49 -297h123zM1216 1033h-740l-29 -174h740z" />
    <glyph glyph-name="hbar" unicode="&#x127;" horiz-adv-x="1147" 
d="M344 608l-101 -608h-211l247 1490h211l-97 -584q133 171 334 171q108 0 189.5 -47.5t119 -140.5t14.5 -231l-110 -658h-211l105 632q21 127 -29.5 191.5t-160.5 64.5q-107 0 -191.5 -66.5t-108.5 -213.5zM80 1183l27 158h680l-27 -158h-680z" />
    <glyph glyph-name="Itilde" unicode="&#x128;" horiz-adv-x="495" 
d="M518 1490l-247 -1490h-222l247 1490h222zM572 1680q-53 0 -95.5 22t-76 44t-59.5 22q-28 0 -46 -26t-25 -59h-136q19 101 73.5 162.5t137.5 61.5q55 0 94 -22.5t71 -45t66 -22.5q50 0 73 85h132q-19 -103 -75.5 -162.5t-133.5 -59.5z" />
    <glyph glyph-name="itilde" unicode="&#x129;" horiz-adv-x="450" 
d="M32 0l175 1056h211l-175 -1056h-211zM478 1246q-53 0 -95.5 22t-76 44t-59.5 22q-28 0 -46 -26t-25 -59h-136q19 101 73.5 162.5t137.5 61.5q55 0 94 -22.5t71 -45t66 -22.5q50 0 73 85h132q-19 -103 -75.5 -162.5t-133.5 -59.5z" />
    <glyph glyph-name="Imacron" unicode="&#x12a;" horiz-adv-x="495" 
d="M518 1490l-247 -1490h-222l247 1490h222zM747 1854l-26 -157h-560l26 157h560z" />
    <glyph glyph-name="imacron" unicode="&#x12b;" horiz-adv-x="450" 
d="M32 0l175 1056h211l-175 -1056h-211zM652 1420l-26 -157h-560l26 157h560z" />
    <glyph glyph-name="Ibreve" unicode="&#x12c;" horiz-adv-x="495" 
d="M518 1490l-247 -1490h-222l247 1490h222zM430 1636q-85 0 -147.5 38.5t-92 104t-15.5 147.5h144q-12 -68 26 -111t108 -43t121.5 43t63.5 111h145q-13 -82 -64.5 -147.5t-127 -104t-161.5 -38.5z" />
    <glyph glyph-name="ibreve" unicode="&#x12d;" horiz-adv-x="450" 
d="M32 0l175 1056h211l-175 -1056h-211zM336 1202q-85 0 -147.5 38.5t-92 104t-15.5 147.5h144q-12 -68 26 -111t108 -43t121.5 43t63.5 111h145q-13 -82 -64.5 -147.5t-127 -104t-161.5 -38.5z" />
    <glyph glyph-name="Iogonek" unicode="&#x12e;" horiz-adv-x="495" 
d="M518 1490l-247 -1490h-222l247 1490h222zM72 -418q-104 0 -156 49t-36 144q13 80 71 145t178 132l142 -52q-95 -71 -133 -111t-44 -79q-12 -68 74 -68h61l-27 -160h-130z" />
    <glyph glyph-name="iogonek" unicode="&#x12f;" horiz-adv-x="450" 
d="M32 0l175 1056h211l-175 -1056h-211zM44 -418q-104 0 -156 49t-36 144q13 80 71 145t178 132l142 -52q-95 -71 -133 -111t-44 -79q-12 -68 74 -68h61l-27 -160h-130zM342 1241q-54 0 -86.5 38t-23.5 92t53.5 92t99.5 38t87.5 -38t23.5 -92t-54 -92t-100 -38z" />
    <glyph glyph-name="Idotaccent" unicode="&#x130;" horiz-adv-x="495" 
d="M518 1490l-247 -1490h-222l247 1490h222zM437 1675q-54 0 -86.5 38t-23.5 92t53.5 92t99.5 38t87.5 -38t23.5 -92t-54 -92t-100 -38z" />
    <glyph glyph-name="dotlessi" unicode="&#x131;" horiz-adv-x="450" 
d="M32 0l175 1056h211l-175 -1056h-211z" />
    <glyph glyph-name="IJ" unicode="&#x132;" horiz-adv-x="1610" 
d="M518 1490l-247 -1490h-222l247 1490h222zM946 -21q-182 0 -293.5 93.5t-111.5 268.5q0 21 4 55.5t18 123.5h217q-13 -83 -16.5 -110.5t-3.5 -42.5q0 -95 51.5 -145t144.5 -50q108 0 186 67t99 193l176 1058h223l-176 -1059q-36 -218 -173.5 -335t-344.5 -117z" />
    <glyph glyph-name="ij" unicode="&#x133;" horiz-adv-x="900" 
d="M32 0l175 1056h211l-175 -1056h-211zM342 1241q-54 0 -86.5 38t-23.5 92t53.5 92t99.5 38t87.5 -38t23.5 -92t-54 -92t-100 -38zM656 1056h212l-197 -1184q-21 -129 -112 -209.5t-239 -80.5h-88l29 178h61q63 0 97 33t46 107zM792 1241q-54 0 -86.5 38t-23.5 92t53.5 92
t99.5 38t87.5 -38t23.5 -92t-54 -92t-100 -38z" />
    <glyph glyph-name="Jcircumflex" unicode="&#x134;" horiz-adv-x="1115" 
d="M451 -21q-182 0 -293.5 93.5t-111.5 268.5q0 21 4 55.5t18 123.5h217q-13 -83 -16.5 -110.5t-3.5 -42.5q0 -95 51.5 -145t144.5 -50q108 0 186 67t99 193l176 1058h223l-176 -1059q-36 -218 -173.5 -335t-344.5 -117zM919 1644h-191v1l282 282h189l190 -282v-1h-192
l-111 173z" />
    <glyph glyph-name="jcircumflex" unicode="&#x135;" horiz-adv-x="450" 
d="M206 1056h212l-197 -1184q-21 -129 -112 -209.5t-239 -80.5h-88l29 178h61q63 0 97 33t46 107zM197 1210h-191v1l282 282h189l190 -282v-1h-192l-111 173z" />
    <glyph glyph-name="uni0136" unicode="&#x136;" horiz-adv-x="1335" 
d="M49 0l247 1490h222l-80 -483l-42 -252q70 67 140.5 133.5t142.5 134.5l501 467h288l-696 -645l454 -845h-245l-374 704l-259 -242l-77 -462h-222zM321 -489l145 371h210l-197 -371h-158z" />
    <glyph glyph-name="uni0137" unicode="&#x137;" horiz-adv-x="1068" 
d="M32 0l247 1490h211l-147 -885h3l525 451h262l-522 -454l377 -602h-259l-300 475l-124 -104l-62 -371h-211zM200 -489l145 371h210l-197 -371h-158z" />
    <glyph glyph-name="kgreenlandic" unicode="&#x138;" horiz-adv-x="1046" 
d="M419 1056l-73 -440h98l443 440h253l-545 -534l365 -522h-260l-301 435h-83l-72 -435h-212l175 1056h212z" />
    <glyph glyph-name="Lacute" unicode="&#x139;" horiz-adv-x="1111" 
d="M49 0l247 1490h222l-215 -1295h704l-31 -195h-927zM339 1664l199 284h225l-260 -284h-164z" />
    <glyph glyph-name="lacute" unicode="&#x13a;" horiz-adv-x="450" 
d="M490 1490l-247 -1490h-211l247 1490h211zM316 1664l199 284h225l-260 -284h-164z" />
    <glyph glyph-name="uni013B" unicode="&#x13b;" horiz-adv-x="1111" 
d="M49 0l247 1490h222l-215 -1295h704l-31 -195h-927zM229 -489l145 371h210l-197 -371h-158z" />
    <glyph glyph-name="uni013C" unicode="&#x13c;" horiz-adv-x="450" 
d="M490 1490l-247 -1490h-211l247 1490h211zM-132 -489l145 371h210l-197 -371h-158z" />
    <glyph glyph-name="Lcaron" unicode="&#x13d;" horiz-adv-x="1111" 
d="M49 0l247 1490h222l-215 -1295h704l-31 -195h-927zM712 1182l62 380h193l-115 -380h-140z" />
    <glyph glyph-name="lcaron" unicode="&#x13e;" horiz-adv-x="609" 
d="M490 1490l-247 -1490h-211l247 1490h211zM579 1182l62 380h193l-115 -380h-140z" />
    <glyph glyph-name="Ldot" unicode="&#x13f;" horiz-adv-x="1104" 
d="M50 0l247 1490h222l-215 -1295h704l-31 -195h-927zM726 689q-54 0 -86.5 38t-23.5 92t53.5 92t99.5 38t87.5 -38t23.5 -92t-54 -92t-100 -38z" />
    <glyph glyph-name="ldot" unicode="&#x140;" horiz-adv-x="734" 
d="M490 1490l-247 -1490h-211l247 1490h211zM605 605q-63 0 -100 45t-27 108q9 54 52 90.5t98 36.5q63 0 100 -45.5t26 -108.5q-9 -54 -52 -90t-97 -36z" />
    <glyph glyph-name="Lslash" unicode="&#x141;" horiz-adv-x="1111" 
d="M49 0l247 1490h222l-215 -1295h704l-31 -195h-927zM71 433l35 209l846 446l-35 -209z" />
    <glyph glyph-name="lslash" unicode="&#x142;" horiz-adv-x="450" 
d="M490 1490l-247 -1490h-211l247 1490h211zM-37 574l30 179l588 311l-29 -179z" />
    <glyph glyph-name="Nacute" unicode="&#x143;" horiz-adv-x="1465" 
d="M49 0l247 1490h236l424 -901q20 -42 54 -121t66 -160q11 82 23.5 167.5t19.5 127.5l147 887h223l-247 -1490h-235l-380 805q-24 51 -68.5 151.5t-99.5 231.5q-17 -136 -31.5 -233.5t-22.5 -148.5l-134 -806h-222zM824 1664l199 284h225l-260 -284h-164z" />
    <glyph glyph-name="nacute" unicode="&#x144;" horiz-adv-x="1146" 
d="M342 600l-99 -600h-211l174 1056h207l-24 -149q132 170 335 170q111 0 192.5 -49t118 -144t13.5 -233l-108 -651h-211l105 639q21 127 -27 188t-154 61q-112 0 -199.5 -70t-111.5 -218zM592 1230l199 284h225l-260 -284h-164z" />
    <glyph glyph-name="uni0145" unicode="&#x145;" horiz-adv-x="1465" 
d="M49 0l247 1490h236l424 -901q20 -42 54 -121t66 -160q11 82 23.5 167.5t19.5 127.5l147 887h223l-247 -1490h-235l-380 805q-24 51 -68.5 151.5t-99.5 231.5q-17 -136 -31.5 -233.5t-22.5 -148.5l-134 -806h-222zM377 -489l145 371h210l-197 -371h-158z" />
    <glyph glyph-name="uni0146" unicode="&#x146;" horiz-adv-x="1146" 
d="M342 600l-99 -600h-211l174 1056h207l-24 -149q132 170 335 170q111 0 192.5 -49t118 -144t13.5 -233l-108 -651h-211l105 639q21 127 -27 188t-154 61q-112 0 -199.5 -70t-111.5 -218zM217 -489l145 371h210l-197 -371h-158z" />
    <glyph glyph-name="Ncaron" unicode="&#x147;" horiz-adv-x="1465" 
d="M49 0l247 1490h236l424 -901q20 -42 54 -121t66 -160q11 82 23.5 167.5t19.5 127.5l147 887h223l-247 -1490h-235l-380 805q-24 51 -68.5 151.5t-99.5 231.5q-17 -136 -31.5 -233.5t-22.5 -148.5l-134 -806h-222zM825 1927l111 -173l168 173h192v-1l-285 -282h-189
l-187 282v1h190z" />
    <glyph glyph-name="ncaron" unicode="&#x148;" horiz-adv-x="1146" 
d="M342 600l-99 -600h-211l174 1056h207l-24 -149q132 170 335 170q111 0 192.5 -49t118 -144t13.5 -233l-108 -651h-211l105 639q21 127 -27 188t-154 61q-112 0 -199.5 -70t-111.5 -218zM592 1493l111 -173l168 173h192v-1l-285 -282h-189l-187 282v1h190z" />
    <glyph glyph-name="Eng" unicode="&#x14a;" horiz-adv-x="1465" 
d="M735 -418l31 186h106q60 0 88 22.5t37 73.5l22 136h-12l-380 805q-24 51 -68.5 151.5t-99.5 231.5q-17 -136 -31.5 -233.5t-22.5 -148.5l-134 -806h-222l247 1490h236l424 -901q20 -42 54 -121t66 -160q11 82 23.5 167.5t19.5 127.5l147 887h223l-242 -1455l-29 -181
q-46 -272 -354 -272h-129z" />
    <glyph glyph-name="eng" unicode="&#x14b;" horiz-adv-x="1146" 
d="M444 -418l31 184h107q60 0 88 23.5t36 74.5l23 136l105 639q21 127 -27 188t-154 61q-112 0 -199.5 -70t-111.5 -218l-99 -600h-211l174 1056h207l-24 -149q132 170 335 170q111 0 192.5 -49t118 -144t13.5 -233l-108 -651l-24 -146q-45 -272 -350 -272h-122z" />
    <glyph glyph-name="Omacron" unicode="&#x14c;" horiz-adv-x="1534" 
d="M687 -24q-176 0 -307 76.5t-203 215.5t-72 324q0 178 59 343t167 295.5t257 207t330 76.5q176 0 307 -76.5t203 -215.5t72 -326q0 -179 -59.5 -344t-168 -295t-257 -205.5t-328.5 -75.5zM697 179q133 0 240.5 61t184 164t117 231t40.5 261q0 202 -104 308.5t-266 106.5
q-134 0 -242 -61.5t-184 -165t-116.5 -231.5t-40.5 -260q0 -202 104 -308t267 -106zM1265 1854l-26 -157h-560l26 157h560z" />
    <glyph glyph-name="omacron" unicode="&#x14d;" horiz-adv-x="1145" 
d="M494 -24q-203 0 -319 122.5t-116 321.5q0 129 42.5 247.5t121 211.5t187.5 147t242 54q202 0 318 -123.5t116 -324.5q0 -127 -42 -245t-120 -210.5t-187 -146.5t-243 -54zM503 158q91 0 160.5 42t116.5 112t71 154.5t24 169.5q0 123 -61 192.5t-171 69.5
q-118 0 -201.5 -71.5t-127.5 -182t-44 -227.5q0 -122 61 -190.5t172 -68.5zM1000 1420l-26 -157h-560l26 157h560z" />
    <glyph glyph-name="Obreve" unicode="&#x14e;" horiz-adv-x="1534" 
d="M687 -24q-176 0 -307 76.5t-203 215.5t-72 324q0 178 59 343t167 295.5t257 207t330 76.5q176 0 307 -76.5t203 -215.5t72 -326q0 -179 -59.5 -344t-168 -295t-257 -205.5t-328.5 -75.5zM697 179q133 0 240.5 61t184 164t117 231t40.5 261q0 202 -104 308.5t-266 106.5
q-134 0 -242 -61.5t-184 -165t-116.5 -231.5t-40.5 -260q0 -202 104 -308t267 -106zM949 1636q-85 0 -147.5 38.5t-92 104t-15.5 147.5h144q-12 -68 26 -111t108 -43t121.5 43t63.5 111h145q-13 -82 -64.5 -147.5t-127 -104t-161.5 -38.5z" />
    <glyph glyph-name="obreve" unicode="&#x14f;" horiz-adv-x="1145" 
d="M494 -24q-203 0 -319 122.5t-116 321.5q0 129 42.5 247.5t121 211.5t187.5 147t242 54q202 0 318 -123.5t116 -324.5q0 -127 -42 -245t-120 -210.5t-187 -146.5t-243 -54zM503 158q91 0 160.5 42t116.5 112t71 154.5t24 169.5q0 123 -61 192.5t-171 69.5
q-118 0 -201.5 -71.5t-127.5 -182t-44 -227.5q0 -122 61 -190.5t172 -68.5zM683 1202q-85 0 -147.5 38.5t-92 104t-15.5 147.5h144q-12 -68 26 -111t108 -43t121.5 43t63.5 111h145q-13 -82 -64.5 -147.5t-127 -104t-161.5 -38.5z" />
    <glyph glyph-name="Ohungarumlaut" unicode="&#x150;" horiz-adv-x="1534" 
d="M687 -24q-176 0 -307 76.5t-203 215.5t-72 324q0 178 59 343t167 295.5t257 207t330 76.5q176 0 307 -76.5t203 -215.5t72 -326q0 -179 -59.5 -344t-168 -295t-257 -205.5t-328.5 -75.5zM697 179q133 0 240.5 61t184 164t117 231t40.5 261q0 202 -104 308.5t-266 106.5
q-134 0 -242 -61.5t-184 -165t-116.5 -231.5t-40.5 -260q0 -202 104 -308t267 -106zM1177 1624h-169l228 303h223zM868 1624h-164l175 303h218z" />
    <glyph glyph-name="ohungarumlaut" unicode="&#x151;" horiz-adv-x="1145" 
d="M494 -24q-203 0 -319 122.5t-116 321.5q0 129 42.5 247.5t121 211.5t187.5 147t242 54q202 0 318 -123.5t116 -324.5q0 -127 -42 -245t-120 -210.5t-187 -146.5t-243 -54zM503 158q91 0 160.5 42t116.5 112t71 154.5t24 169.5q0 123 -61 192.5t-171 69.5
q-118 0 -201.5 -71.5t-127.5 -182t-44 -227.5q0 -122 61 -190.5t172 -68.5zM911 1190h-169l228 303h223zM602 1190h-164l175 303h218z" />
    <glyph glyph-name="OE" unicode="&#x152;" horiz-adv-x="2046" 
d="M712 0q-228 0 -373.5 90.5t-202.5 258t-19 398.5q38 230 150 396.5t284.5 256.5t391.5 90h1199l-33 -195h-780l-72 -439h722l-32 -193h-722l-78 -468h780l-32 -195h-1183zM925 193l183 1104h-183q-249 0 -397.5 -145.5t-191.5 -404.5q-43 -260 59 -407t362 -147h168z" />
    <glyph glyph-name="oe" unicode="&#x153;" horiz-adv-x="1929" 
d="M494 -24q-203 0 -319 122.5t-116 321.5q0 129 42.5 247.5t121 211.5t187.5 147t242 54q202 0 318 -123.5t116 -324.5q0 -127 -42 -245t-120 -210.5t-187 -146.5t-243 -54zM503 158q91 0 160.5 42t116.5 112t71 154.5t24 169.5q0 123 -61 192.5t-171 69.5
q-118 0 -201.5 -71.5t-127.5 -182t-44 -227.5q0 -122 61 -190.5t172 -68.5zM1320 -24q-199 0 -319 113.5t-112 355.5q5 192 84.5 335t213.5 221.5t302 78.5q166 0 271.5 -78.5t105.5 -226.5q0 -192 -194 -264.5t-575 -77.5q-2 -75 16.5 -139t70.5 -103t150 -39
q109 0 184.5 47.5t108.5 123.5h206q-56 -155 -188 -251t-325 -96zM1115 593q215 2 333.5 22.5t165.5 59.5t47 97q0 61 -49.5 96t-144.5 35q-156 0 -239.5 -90.5t-112.5 -219.5z" />
    <glyph glyph-name="Racute" unicode="&#x154;" horiz-adv-x="1307" 
d="M49 0l247 1490h561q239 0 361.5 -125t86.5 -339q-25 -156 -123.5 -265.5t-246.5 -159.5l223 -601h-232l-204 564h-28h-330l-93 -564h-222zM396 753h336q143 0 238 76.5t116 202.5t-50 196t-216 70h-334zM732 1664l199 284h225l-260 -284h-164z" />
    <glyph glyph-name="racute" unicode="&#x155;" horiz-adv-x="695" 
d="M32 0l175 1056h202l-28 -171h3q44 87 114.5 135.5t171.5 48.5q24 0 44 -2t32 -3l-32 -197q-12 3 -42.5 6.5t-67.5 3.5q-89 0 -162.5 -62t-94.5 -191l-104 -624h-211zM404 1230l199 284h225l-260 -284h-164z" />
    <glyph glyph-name="uni0156" unicode="&#x156;" horiz-adv-x="1307" 
d="M49 0l247 1490h561q239 0 361.5 -125t86.5 -339q-25 -156 -123.5 -265.5t-246.5 -159.5l223 -601h-232l-204 564h-28h-330l-93 -564h-222zM396 753h336q143 0 238 76.5t116 202.5t-50 196t-216 70h-334zM302 -489l145 371h210l-197 -371h-158z" />
    <glyph glyph-name="uni0157" unicode="&#x157;" horiz-adv-x="695" 
d="M32 0l175 1056h202l-28 -171h3q44 87 114.5 135.5t171.5 48.5q24 0 44 -2t32 -3l-32 -197q-12 3 -42.5 6.5t-67.5 3.5q-89 0 -162.5 -62t-94.5 -191l-104 -624h-211zM-132 -489l145 371h210l-197 -371h-158z" />
    <glyph glyph-name="Rcaron" unicode="&#x158;" horiz-adv-x="1307" 
d="M49 0l247 1490h561q239 0 361.5 -125t86.5 -339q-25 -156 -123.5 -265.5t-246.5 -159.5l223 -601h-232l-204 564h-28h-330l-93 -564h-222zM396 753h336q143 0 238 76.5t116 202.5t-50 196t-216 70h-334zM733 1927l111 -173l168 173h192v-1l-285 -282h-189l-187 282v1h190
z" />
    <glyph glyph-name="rcaron" unicode="&#x159;" horiz-adv-x="695" 
d="M32 0l175 1056h202l-28 -171h3q44 87 114.5 135.5t171.5 48.5q24 0 44 -2t32 -3l-32 -197q-12 3 -42.5 6.5t-67.5 3.5q-89 0 -162.5 -62t-94.5 -191l-104 -624h-211zM405 1493l111 -173l168 173h192v-1l-285 -282h-189l-187 282v1h190z" />
    <glyph glyph-name="Sacute" unicode="&#x15a;" horiz-adv-x="1285" 
d="M572 -24q-271 0 -406.5 136t-96.5 371h220q-24 -147 54 -230t241 -83q155 0 260.5 67.5t124.5 179.5q14 83 -40 135.5t-203 89.5l-158 40q-217 54 -306.5 152.5t-62.5 258.5q21 127 101 222t205 147t282 52q245 0 371 -126t96 -344h-213q12 129 -59 202.5t-210 73.5
q-137 0 -237 -67.5t-117 -171.5q-13 -78 41.5 -126t201.5 -85l155 -39q215 -54 307.5 -157t65.5 -268q-22 -131 -105 -227.5t-214 -149.5t-298 -53zM729 1664l199 284h225l-260 -284h-164z" />
    <glyph glyph-name="sacute" unicode="&#x15b;" horiz-adv-x="1004" 
d="M430 -25q-173 0 -285 78t-112 231v18.5t2 18.5h208q-11 -178 189 -178q67 0 125 21.5t93.5 60.5t35.5 92q0 42 -33 67t-92 39l-169 38q-263 61 -263 262q0 108 61 188t163 124t224 44q166 0 269 -78.5t103 -215.5q0 -12 -1 -25t-3 -26h-202q12 83 -36.5 130.5
t-133.5 47.5q-101 0 -167 -52t-66 -122q0 -79 126 -108l173 -40q261 -60 261 -249q0 -114 -64.5 -196t-171.5 -126t-234 -44zM522 1230l199 284h225l-260 -284h-164z" />
    <glyph glyph-name="Scircumflex" unicode="&#x15c;" horiz-adv-x="1285" 
d="M572 -24q-271 0 -406.5 136t-96.5 371h220q-24 -147 54 -230t241 -83q155 0 260.5 67.5t124.5 179.5q14 83 -40 135.5t-203 89.5l-158 40q-217 54 -306.5 152.5t-62.5 258.5q21 127 101 222t205 147t282 52q245 0 371 -126t96 -344h-213q12 129 -59 202.5t-210 73.5
q-137 0 -237 -67.5t-117 -171.5q-13 -78 41.5 -126t201.5 -85l155 -39q215 -54 307.5 -157t65.5 -268q-22 -131 -105 -227.5t-214 -149.5t-298 -53zM683 1644h-191v1l282 282h189l190 -282v-1h-192l-111 173z" />
    <glyph glyph-name="scircumflex" unicode="&#x15d;" horiz-adv-x="1004" 
d="M430 -25q-173 0 -285 78t-112 231v18.5t2 18.5h208q-11 -178 189 -178q67 0 125 21.5t93.5 60.5t35.5 92q0 42 -33 67t-92 39l-169 38q-263 61 -263 262q0 108 61 188t163 124t224 44q166 0 269 -78.5t103 -215.5q0 -12 -1 -25t-3 -26h-202q12 83 -36.5 130.5
t-133.5 47.5q-101 0 -167 -52t-66 -122q0 -79 126 -108l173 -40q261 -60 261 -249q0 -114 -64.5 -196t-171.5 -126t-234 -44zM475 1210h-191v1l282 282h189l190 -282v-1h-192l-111 173z" />
    <glyph glyph-name="Scedilla" unicode="&#x15e;" horiz-adv-x="1285" 
d="M572 -24q-271 0 -406.5 136t-96.5 371h220q-24 -147 54 -230t241 -83q155 0 260.5 67.5t124.5 179.5q14 83 -40 135.5t-203 89.5l-158 40q-217 54 -306.5 152.5t-62.5 258.5q21 127 101 222t205 147t282 52q245 0 371 -126t96 -344h-213q12 129 -59 202.5t-210 73.5
q-137 0 -237 -67.5t-117 -171.5q-13 -78 41.5 -126t201.5 -85l155 -39q215 -54 307.5 -157t65.5 -268q-22 -131 -105 -227.5t-214 -149.5t-298 -53zM373 -418l18 110h117q96 0 106 64q11 64 -85 64h-81l70 227h101l-8 -47l-14 -84q87 -3 130 -47.5t31 -115.5
q-15 -88 -84.5 -129.5t-176.5 -41.5h-124z" />
    <glyph glyph-name="scedilla" unicode="&#x15f;" horiz-adv-x="1004" 
d="M430 -25q-173 0 -285 78t-112 231v18.5t2 18.5h208q-11 -178 189 -178q67 0 125 21.5t93.5 60.5t35.5 92q0 42 -33 67t-92 39l-169 38q-263 61 -263 262q0 108 61 188t163 124t224 44q166 0 269 -78.5t103 -215.5q0 -12 -1 -25t-3 -26h-202q12 83 -36.5 130.5
t-133.5 47.5q-101 0 -167 -52t-66 -122q0 -79 126 -108l173 -40q261 -60 261 -249q0 -114 -64.5 -196t-171.5 -126t-234 -44zM236 -418l18 110h117q96 0 106 64q11 64 -85 64h-81l70 227h101l-8 -47l-14 -84q87 -3 130 -47.5t31 -115.5q-15 -88 -84.5 -129.5t-176.5 -41.5
h-124z" />
    <glyph glyph-name="Scaron" unicode="&#x160;" horiz-adv-x="1285" 
d="M572 -24q-271 0 -406.5 136t-96.5 371h220q-24 -147 54 -230t241 -83q155 0 260.5 67.5t124.5 179.5q14 83 -40 135.5t-203 89.5l-158 40q-217 54 -306.5 152.5t-62.5 258.5q21 127 101 222t205 147t282 52q245 0 371 -126t96 -344h-213q12 129 -59 202.5t-210 73.5
q-137 0 -237 -67.5t-117 -171.5q-13 -78 41.5 -126t201.5 -85l155 -39q215 -54 307.5 -157t65.5 -268q-22 -131 -105 -227.5t-214 -149.5t-298 -53zM730 1927l111 -173l168 173h192v-1l-285 -282h-189l-187 282v1h190z" />
    <glyph glyph-name="scaron" unicode="&#x161;" horiz-adv-x="1004" 
d="M430 -25q-173 0 -285 78t-112 231v18.5t2 18.5h208q-11 -178 189 -178q67 0 125 21.5t93.5 60.5t35.5 92q0 42 -33 67t-92 39l-169 38q-263 61 -263 262q0 108 61 188t163 124t224 44q166 0 269 -78.5t103 -215.5q0 -12 -1 -25t-3 -26h-202q12 83 -36.5 130.5
t-133.5 47.5q-101 0 -167 -52t-66 -122q0 -79 126 -108l173 -40q261 -60 261 -249q0 -114 -64.5 -196t-171.5 -126t-234 -44zM522 1493l111 -173l168 173h192v-1l-285 -282h-189l-187 282v1h190z" />
    <glyph glyph-name="uni021A" unicode="&#x162;" horiz-adv-x="1268" 
d="M175 1295l33 195h1171l-33 -195h-473l-214 -1295h-223l214 1295h-475zM361 -418l18 110h117q96 0 106 64q11 64 -85 64h-81l70 227h101l-8 -47l-14 -84q87 -3 130 -47.5t31 -115.5q-15 -88 -84.5 -129.5t-176.5 -41.5h-124z" />
    <glyph glyph-name="uni0163" unicode="&#x163;" horiz-adv-x="677" 
d="M715 1056l-28 -174h-215l-99 -603q-10 -59 10.5 -82t83.5 -23h103l-29 -174h-133q-293 0 -251 252l104 630h-187l29 174h187l47 288h212l-48 -288h214zM154 -418l18 110h117q96 0 106 64q11 64 -85 64h-81l70 227h101l-8 -47l-14 -84q87 -3 130 -47.5t31 -115.5
q-15 -88 -84.5 -129.5t-176.5 -41.5h-124z" />
    <glyph glyph-name="Tcaron" unicode="&#x164;" horiz-adv-x="1268" 
d="M175 1295l33 195h1171l-33 -195h-473l-214 -1295h-223l214 1295h-475zM727 1927l111 -173l168 173h192v-1l-285 -282h-189l-187 282v1h190z" />
    <glyph glyph-name="tcaron" unicode="&#x165;" horiz-adv-x="688" 
d="M715 1056l-28 -174h-215l-99 -603q-10 -59 10.5 -82t83.5 -23h103l-29 -174h-133q-293 0 -251 252l104 630h-187l29 174h187l47 288h212l-48 -288h214zM650 1182l62 380h193l-115 -380h-140z" />
    <glyph glyph-name="Tbar" unicode="&#x166;" horiz-adv-x="1268" 
d="M175 1295l33 195h1171l-33 -195h-473l-214 -1295h-223l214 1295h-475zM239 661l29 178h836l-30 -178h-835z" />
    <glyph glyph-name="tbar" unicode="&#x167;" horiz-adv-x="678" 
d="M662 731l-26 -159h-214l-48 -293q-10 -59 10.5 -82t83.5 -23h103l-29 -174h-133q-293 0 -251 252l53 320h-187l26 159h187l25 151h-187l29 174h187l47 288h212l-48 -288h214l-28 -174h-215l-25 -151h214z" />
    <glyph glyph-name="Utilde" unicode="&#x168;" horiz-adv-x="1441" 
d="M641 -24q-182 0 -306 70.5t-179 193t-29 278.5l161 972h221l-160 -969q-26 -153 54 -248.5t247 -95.5q118 0 211.5 47t154 128t77.5 183l157 955h221l-164 -987q-26 -156 -117 -274.5t-232 -185.5t-317 -67zM1045 1680q-53 0 -95.5 22t-76 44t-59.5 22q-28 0 -46 -26
t-25 -59h-136q19 101 73.5 162.5t137.5 61.5q55 0 94 -22.5t71 -45t66 -22.5q50 0 73 85h132q-19 -103 -75.5 -162.5t-133.5 -59.5z" />
    <glyph glyph-name="utilde" unicode="&#x169;" horiz-adv-x="1147" 
d="M411 -21q-109 0 -188 47.5t-114 140.5t-12 231l110 658h211l-105 -632q-21 -127 29.5 -191.5t160.5 -64.5q107 0 191.5 66.5t109.5 213.5l100 608h211l-175 -1056h-207l26 158q-138 -179 -348 -179zM826 1246q-53 0 -95.5 22t-76 44t-59.5 22q-28 0 -46 -26t-25 -59h-136
q19 101 73.5 162.5t137.5 61.5q55 0 94 -22.5t71 -45t66 -22.5q50 0 73 85h132q-19 -103 -75.5 -162.5t-133.5 -59.5z" />
    <glyph glyph-name="Umacron" unicode="&#x16a;" horiz-adv-x="1441" 
d="M641 -24q-182 0 -306 70.5t-179 193t-29 278.5l161 972h221l-160 -969q-26 -153 54 -248.5t247 -95.5q118 0 211.5 47t154 128t77.5 183l157 955h221l-164 -987q-26 -156 -117 -274.5t-232 -185.5t-317 -67zM1219 1854l-26 -157h-560l26 157h560z" />
    <glyph glyph-name="umacron" unicode="&#x16b;" horiz-adv-x="1147" 
d="M411 -21q-109 0 -188 47.5t-114 140.5t-12 231l110 658h211l-105 -632q-21 -127 29.5 -191.5t160.5 -64.5q107 0 191.5 66.5t109.5 213.5l100 608h211l-175 -1056h-207l26 158q-138 -179 -348 -179zM1001 1420l-26 -157h-560l26 157h560z" />
    <glyph glyph-name="Ubreve" unicode="&#x16c;" horiz-adv-x="1441" 
d="M641 -24q-182 0 -306 70.5t-179 193t-29 278.5l161 972h221l-160 -969q-26 -153 54 -248.5t247 -95.5q118 0 211.5 47t154 128t77.5 183l157 955h221l-164 -987q-26 -156 -117 -274.5t-232 -185.5t-317 -67zM903 1636q-85 0 -147.5 38.5t-92 104t-15.5 147.5h144
q-12 -68 26 -111t108 -43t121.5 43t63.5 111h145q-13 -82 -64.5 -147.5t-127 -104t-161.5 -38.5z" />
    <glyph glyph-name="ubreve" unicode="&#x16d;" horiz-adv-x="1147" 
d="M411 -21q-109 0 -188 47.5t-114 140.5t-12 231l110 658h211l-105 -632q-21 -127 29.5 -191.5t160.5 -64.5q107 0 191.5 66.5t109.5 213.5l100 608h211l-175 -1056h-207l26 158q-138 -179 -348 -179zM684 1202q-85 0 -147.5 38.5t-92 104t-15.5 147.5h144q-12 -68 26 -111
t108 -43t121.5 43t63.5 111h145q-13 -82 -64.5 -147.5t-127 -104t-161.5 -38.5z" />
    <glyph glyph-name="Uring" unicode="&#x16e;" horiz-adv-x="1441" 
d="M641 -24q-182 0 -306 70.5t-179 193t-29 278.5l161 972h221l-160 -969q-26 -153 54 -248.5t247 -95.5q118 0 211.5 47t154 128t77.5 183l157 955h221l-164 -987q-26 -156 -117 -274.5t-232 -185.5t-317 -67zM906 1578q-108 0 -171 72.5t-46 175.5q16 92 94 156t175 64
q109 0 172 -72.5t46 -175.5q-16 -92 -94 -156t-176 -64zM914 1703q46 0 83 31.5t45 77.5q7 46 -19.5 77.5t-72.5 31.5q-45 0 -81.5 -31.5t-44.5 -77.5t18.5 -77.5t71.5 -31.5z" />
    <glyph glyph-name="uring" unicode="&#x16f;" horiz-adv-x="1147" 
d="M411 -21q-109 0 -188 47.5t-114 140.5t-12 231l110 658h211l-105 -632q-21 -127 29.5 -191.5t160.5 -64.5q107 0 191.5 66.5t109.5 213.5l100 608h211l-175 -1056h-207l26 158q-138 -179 -348 -179zM676 1144q-105 0 -164.5 67.5t-43.5 166.5q11 66 52.5 119t102.5 84
t130 31q104 0 163.5 -67.5t43.5 -166.5q-11 -66 -52.5 -119t-102 -84t-129.5 -31zM690 1269q50 0 87.5 30.5t45.5 78.5t-15.5 78.5t-68.5 30.5q-51 0 -88.5 -30.5t-45.5 -78.5t16 -78.5t69 -30.5z" />
    <glyph glyph-name="Uhungarumlaut" unicode="&#x170;" horiz-adv-x="1441" 
d="M641 -24q-182 0 -306 70.5t-179 193t-29 278.5l161 972h221l-160 -969q-26 -153 54 -248.5t247 -95.5q118 0 211.5 47t154 128t77.5 183l157 955h221l-164 -987q-26 -156 -117 -274.5t-232 -185.5t-317 -67zM1131 1624h-169l228 303h223zM822 1624h-164l175 303h218z" />
    <glyph glyph-name="uhungarumlaut" unicode="&#x171;" horiz-adv-x="1147" 
d="M411 -21q-109 0 -188 47.5t-114 140.5t-12 231l110 658h211l-105 -632q-21 -127 29.5 -191.5t160.5 -64.5q107 0 191.5 66.5t109.5 213.5l100 608h211l-175 -1056h-207l26 158q-138 -179 -348 -179zM912 1190h-169l228 303h223zM603 1190h-164l175 303h218z" />
    <glyph glyph-name="Uogonek" unicode="&#x172;" horiz-adv-x="1441" 
d="M641 -24q-182 0 -306 70.5t-179 193t-29 278.5l161 972h221l-160 -969q-26 -153 54 -248.5t247 -95.5q118 0 211.5 47t154 128t77.5 183l157 955h221l-164 -987q-26 -156 -117 -274.5t-232 -185.5t-317 -67zM631 -418q-105 0 -160 49t-39 144q13 83 71 135.5t141.5 90.5
t176 76t178.5 90.5t148.5 134.5t83.5 208l77 -7q-22 -126 -76 -214.5t-125.5 -149.5t-147.5 -104t-143 -77t-111.5 -68.5t-52.5 -79.5q-12 -68 74 -68h61l-26 -160h-130z" />
    <glyph glyph-name="uogonek" unicode="&#x173;" horiz-adv-x="1147" 
d="M411 -21q-109 0 -188 47.5t-114 140.5t-12 231l110 658h211l-105 -632q-21 -127 29.5 -191.5t160.5 -64.5q107 0 191.5 66.5t109.5 213.5l100 608h211l-175 -1056h-207l26 158q-138 -179 -348 -179zM741 -418q-104 0 -156 49t-36 144q13 80 71 145t178 132l142 -52
q-95 -71 -133 -111t-44 -79q-12 -68 74 -68h61l-27 -160h-130z" />
    <glyph glyph-name="Wcircumflex" unicode="&#x174;" horiz-adv-x="1976" 
d="M332 0l-157 1490h224l76 -867q7 -96 12.5 -192.5t8.5 -193.5q37 97 75 193.5t79 192.5l369 867h243l81 -867q17 -191 25 -381q36 95 73.5 190.5t76.5 190.5l362 867h239l-653 -1490h-254l-94 911q-7 69 -11.5 141.5t-8.5 148.5q-29 -76 -57 -148.5t-58 -141.5l-394 -911
h-257zM1033 1644h-191v1l282 282h189l190 -282v-1h-192l-111 173z" />
    <glyph glyph-name="wcircumflex" unicode="&#x175;" horiz-adv-x="1585" 
d="M263 0l-152 1056h215l49 -432q10 -96 18 -196t17 -198q41 98 83 198t85 196l195 432h200l50 -432q11 -95 19.5 -194t17.5 -196q41 97 81.5 196t82.5 194l195 432h229l-502 -1056h-220l-57 460q-10 80 -17.5 164t-15.5 167q-36 -83 -71.5 -167t-72.5 -164l-212 -460h-217z
M765 1210h-191v1l282 282h189l190 -282v-1h-192l-111 173z" />
    <glyph glyph-name="Ycircumflex" unicode="&#x176;" horiz-adv-x="1348" 
d="M478 0l98 595l-401 895h243l206 -470q23 -52 44 -104l42 -104q37 52 75.5 104t78.5 104l359 470h268l-695 -895l-98 -595h-220zM719 1644h-191v1l282 282h189l190 -282v-1h-192l-111 173z" />
    <glyph glyph-name="ycircumflex" unicode="&#x177;" horiz-adv-x="1077" 
d="M-24 -418l29 178h114q50 0 86.5 29t70.5 93l69 125l-234 1049h216l115 -579q23 -119 42 -236q29 59 59 118l60 118l305 579h232l-685 -1241q-62 -112 -151.5 -172.5t-193.5 -60.5h-134zM499 1210h-191v1l282 282h189l190 -282v-1h-192l-111 173z" />
    <glyph glyph-name="Ydieresis" unicode="&#x178;" horiz-adv-x="1348" 
d="M478 0l98 595l-401 895h243l206 -470q23 -52 44 -104l42 -104q37 52 75.5 104t78.5 104l359 470h268l-695 -895l-98 -595h-220zM1077 1673q-56 0 -87.5 37t-22.5 92q9 54 53 91.5t99 37.5t87 -37.5t23 -91.5q-9 -55 -53 -92t-99 -37zM649 1673q-55 0 -86.5 37t-22.5 92
q9 54 53 91.5t99 37.5t87 -37.5t23 -91.5q-9 -55 -53 -92t-100 -37z" />
    <glyph glyph-name="Zacute" unicode="&#x179;" horiz-adv-x="1248" 
d="M9 0l25 147l969 1153h-785l32 190h1061l-24 -149l-971 -1151h786l-31 -190h-1062zM716 1664l199 284h225l-260 -284h-164z" />
    <glyph glyph-name="zacute" unicode="&#x17a;" horiz-adv-x="1010" 
d="M8 0l25 153l671 720l1 4h-552l30 179h815l-27 -160l-662 -713l-1 -4h550l-29 -179h-821zM523 1230l199 284h225l-260 -284h-164z" />
    <glyph glyph-name="Zdotaccent" unicode="&#x17b;" horiz-adv-x="1248" 
d="M9 0l25 147l969 1153h-785l32 190h1061l-24 -149l-971 -1151h786l-31 -190h-1062zM814 1675q-54 0 -86.5 38t-23.5 92t53.5 92t99.5 38t87.5 -38t23.5 -92t-54 -92t-100 -38z" />
    <glyph glyph-name="zdotaccent" unicode="&#x17c;" horiz-adv-x="1010" 
d="M8 0l25 153l671 720l1 4h-552l30 179h815l-27 -160l-662 -713l-1 -4h550l-29 -179h-821zM621 1241q-54 0 -86.5 38t-23.5 92t53.5 92t99.5 38t87.5 -38t23.5 -92t-54 -92t-100 -38z" />
    <glyph glyph-name="Zcaron" unicode="&#x17d;" horiz-adv-x="1248" 
d="M9 0l25 147l969 1153h-785l32 190h1061l-24 -149l-971 -1151h786l-31 -190h-1062zM717 1927l111 -173l168 173h192v-1l-285 -282h-189l-187 282v1h190z" />
    <glyph glyph-name="zcaron" unicode="&#x17e;" horiz-adv-x="1010" 
d="M8 0l25 153l671 720l1 4h-552l30 179h815l-27 -160l-662 -713l-1 -4h550l-29 -179h-821zM523 1493l111 -173l168 173h192v-1l-285 -282h-189l-187 282v1h190z" />
    <glyph glyph-name="longs" unicode="&#x17f;" horiz-adv-x="547" 
d="M-121 -418h-108l31 186h69q71 0 101 28.5t42 99.5l222 1331q20 125 110 194t233 69h126l-29 -174h-94q-66 0 -98 -28t-42 -95l-219 -1310q-24 -147 -103 -224t-241 -77z" />
    <glyph glyph-name="bbar" unicode="&#x180;" horiz-adv-x="1180" 
d="M578 -21q-108 0 -188 47t-122 146h-1l-28 -172h-207l246 1490h211l-95 -582h1q59 88 150 128.5t189 40.5q181 0 284 -119.5t103 -315.5q0 -122 -36.5 -240t-107 -213.5t-171 -152.5t-228.5 -57zM539 161q120 0 202.5 71.5t125.5 182t43 227.5q0 125 -60.5 189.5
t-164.5 64.5q-90 0 -160.5 -41.5t-119.5 -110.5t-74 -153t-25 -168q0 -122 61 -192t172 -70zM80 1183l27 158h680l-27 -158h-680z" />
    <glyph glyph-name="uni0181" unicode="&#x181;" horiz-adv-x="1627" 
d="M125 1044l28 173q22 133 106 203t229 70h674q230 0 343.5 -111t83.5 -294q-21 -124 -101 -200.5t-202 -111.5v-1q126 -20 201 -111.5t48 -255.5q-30 -185 -178 -295t-412 -110h-580l246 1490l-33 -192h-95q-58 0 -87 -22.5t-37 -71.5l-26 -160h-208zM616 187h335
q152 0 247 62.5t114 179.5q18 110 -49.5 173t-215.5 63h-352zM725 848h330q127 0 211 64t102 172q17 102 -43 160.5t-186 58.5h-338z" />
    <glyph glyph-name="uni0182" unicode="&#x182;" horiz-adv-x="1279" 
d="M49 0l246 1490h927l-32 -190h-706l-68 -413h337q248 0 364 -118.5t83 -317.5q-22 -133 -99.5 -235t-203 -159t-291.5 -57h-557zM300 187h337q97 -1 170.5 37t118 99t56.5 130q17 102 -48.5 174.5t-211.5 72.5h-337z" />
    <glyph glyph-name="uni0183" unicode="&#x183;" horiz-adv-x="1180" 
d="M578 -21q-108 0 -188 47t-122 146h-1l-28 -172h-207l246 1490h833l-30 -179h-621l-66 -403h1q59 88 150 128.5t189 40.5q181 0 284 -119.5t103 -315.5q0 -122 -36.5 -240t-107 -213.5t-171 -152.5t-228.5 -57zM539 161q120 0 202.5 71.5t125.5 182t43 227.5
q0 125 -60.5 189.5t-164.5 64.5q-90 0 -160.5 -41.5t-119.5 -110.5t-74 -153t-25 -168q0 -122 61 -192t172 -70z" />
    <glyph glyph-name="uni0184" unicode="&#x184;" horiz-adv-x="1449" 
d="M619 887h338q247 0 363 -118.5t83 -317.5q-22 -133 -100 -235t-203 -159t-291 -57h-557l216 1300h-353l32 190h573zM588 700l-85 -513h339q96 -1 169 37t117.5 99t55.5 130q17 102 -48 174.5t-210 72.5h-338z" />
    <glyph glyph-name="uni0185" unicode="&#x185;" horiz-adv-x="1257" 
d="M382 1536h48l-8 -46h173l-88 -535h15q24 32 66 74t108 72.5t163 30.5q135 0 229.5 -68.5t134.5 -197.5t11 -310q-30 -180 -112.5 -309.5t-199.5 -199t-252 -69.5q-98 0 -154.5 31t-84.5 73t-42 75h-20l-26 -157h-208l174 1048h-9l-140 192l17 101zM1025 558
q27 169 -29 280.5t-207 111.5q-149 0 -240 -109.5t-119 -282.5q-28 -174 26.5 -286t201.5 -112q100 0 175 52.5t124 142.5t68 203z" />
    <glyph glyph-name="uni0186" unicode="&#x186;" horiz-adv-x="1484" 
d="M859 1514q182 0 315 -76.5t205 -214.5t72 -323q0 -181 -58.5 -346.5t-167.5 -296t-260 -206t-336 -75.5q-165 0 -289.5 63.5t-194.5 180t-70 276.5h224q8 -152 98.5 -234.5t238.5 -82.5q140 0 250 61t187 164.5t117 231.5t40 261q0 190 -98.5 302t-282.5 112
q-156 0 -281 -82t-185 -233h-225q52 158 156.5 274.5t245 180t299.5 63.5z" />
    <glyph glyph-name="uni0187" unicode="&#x187;" horiz-adv-x="1484" 
d="M697 -24q-182 0 -315 76.5t-205 214.5t-72 323q0 181 59 346.5t167.5 296t260 206t336.5 75.5q126 0 230.5 -38.5t177.5 -109.5l6 38q45 272 351 272h121l-30 -178h-106q-60 0 -90 -23t-39 -75l-67 -406h-225q-8 152 -98.5 234.5t-238.5 82.5q-139 0 -249 -61
t-187 -164.5t-117.5 -231.5t-40.5 -261q0 -190 98.5 -302t283.5 -112q156 0 280.5 82t184.5 233h226q-52 -158 -157 -274.5t-245 -180t-300 -63.5z" />
    <glyph glyph-name="uni0188" unicode="&#x188;" horiz-adv-x="1092" 
d="M491 -24q-133 0 -230 55t-150 154t-53 231q0 125 41.5 243.5t119 213.5t187 151t244.5 56q154 0 263 -75q37 257 339 257h121l-30 -178h-107q-60 0 -89.5 -23t-38.5 -75l-48 -291h-210q-1 87 -49 145t-156 58q-119 0 -202.5 -70.5t-127.5 -181t-44 -228.5
q0 -121 57.5 -190.5t170.5 -69.5q110 0 184 56.5t110 147.5h213q-31 -111 -104.5 -198t-179 -137.5t-231.5 -50.5z" />
    <glyph glyph-name="Dbar1" unicode="&#x189;" horiz-adv-x="1499" 
d="M644 0h-516l247 1490h486q219 0 365 -90t206.5 -256.5t22.5 -396.5q-58 -347 -264 -547t-547 -200zM382 193h246q260 0 410.5 147t193.5 407q42 259 -41.5 404.5t-332.5 145.5h-293zM-67 675l29 178h836l-30 -178h-835z" />
    <glyph glyph-name="uni018A" unicode="&#x18a;" horiz-adv-x="1737" 
d="M126 1044l28 173q22 133 106 203t229 70h609q220 0 365.5 -90t206 -256.5t22.5 -396.5q-58 -347 -264 -547t-547 -200h-516l247 1490l-33 -192h-95q-58 0 -87 -22.5t-37 -71.5l-26 -160h-208zM619 193h246q260 0 410.5 147t193.5 407q42 259 -41.5 404.5t-332.5 145.5
h-293z" />
    <glyph glyph-name="uni018B" unicode="&#x18b;" horiz-adv-x="1258" 
d="M1075 0h-556q-248 0 -364 125.5t-83 325.5q34 198 191 319t406 122h315l63 377h-684l30 197h924zM868 192l83 506h-317q-147 0 -224.5 -71.5t-94.5 -173.5q-11 -69 8 -128.5t74.5 -96t153.5 -36.5h317z" />
    <glyph glyph-name="uni018C" unicode="&#x18c;" horiz-adv-x="1179" 
d="M446 -21q-182 0 -285 118t-103 313q0 124 37 242.5t107.5 214.5t171.5 153t228 57q107 0 189 -46.5t118 -134.5h1l68 415h-621l29 179h833l-246 -1490h-207l25 156h-1q-68 -94 -157 -135.5t-187 -41.5zM494 161q117 0 202.5 70t131.5 178.5t46 223.5q0 122 -61.5 192.5
t-172.5 70.5q-119 0 -201.5 -71t-126 -181.5t-43.5 -228.5q0 -125 60.5 -189.5t164.5 -64.5z" />
    <glyph glyph-name="deltaturn" unicode="&#x18d;" horiz-adv-x="1118" 
d="M766 -376h-742l32 180h435q-11 16 -38.5 46t-61.5 64t-64 62q-136 134 -212.5 269.5t-51.5 304.5l3 20q24 166 102.5 293t201 198t280.5 71q157 0 257 -70t139.5 -194t16.5 -288l-4 -20q-18 -124 -89 -227t-181.5 -170.5t-247.5 -85.5q-14 -1 -20.5 -1.5t-17.5 -1.5
q70 -73 151.5 -158.5t134.5 -159.5zM825 550l3 20q16 106 3 191.5t-64 135.5t-148 50q-141 0 -220 -107.5t-103 -269.5l-3 -20q-17 -117 20.5 -202t97.5 -128q30 -10 75 -10q99 0 169 47t112.5 124.5t57.5 168.5z" />
    <glyph glyph-name="Eturn" unicode="&#x18e;" horiz-adv-x="1202" 
d="M1225 1490l-247 -1490h-1002l33 195h780l72 439h-722l32 193h722l78 468h-780l32 195h1002z" />
    <glyph glyph-name="uni018F" unicode="&#x18f;" horiz-adv-x="1498" 
d="M645 -24q-182 0 -315.5 79.5t-196.5 218t-33 316.5l28 171h1105q24 165 -13.5 289t-129.5 192.5t-231 68.5q-155 0 -278.5 -85.5t-177.5 -223.5h-226q49 152 156.5 267t253 180t307.5 65q199 0 338.5 -97t199 -270t21.5 -403q-37 -226 -151.5 -399t-284 -271t-372.5 -98z
M1186 576h-870q-18 -118 25 -207.5t131.5 -139.5t205.5 -50q175 0 308 107t200 290z" />
    <glyph glyph-name="Epsilon1" unicode="&#x190;" horiz-adv-x="1240" 
d="M532 -24q-154 0 -267.5 57t-168.5 157t-33 230q22 132 124 229t253 120v3q-119 34 -179 120.5t-41 204.5q21 121 99 215.5t196.5 148t260.5 53.5q149 0 253.5 -59t152.5 -163.5t26 -239.5h-213q22 130 -39 204t-193 74q-128 0 -220.5 -67t-111.5 -183q-17 -103 56 -165
t209 -62h124l-30 -181h-125q-153 0 -258.5 -67.5t-124.5 -178.5q-20 -121 52.5 -193t213.5 -72q149 0 250.5 83t125.5 232h219q-24 -144 -106 -257t-211.5 -178t-293.5 -65z" />
    <glyph glyph-name="uni0191" unicode="&#x191;" horiz-adv-x="1155" 
d="M-235 -418l31 186h106q60 0 87.5 22.5t36.5 73.5l43 261h1l226 1365h970l-33 -195h-748l-73 -446h691l-32 -192h-691l-101 -613l-32 -190q-45 -272 -353 -272h-129z" />
    <glyph glyph-name="florin" unicode="&#x192;" horiz-adv-x="785" 
d="M774 1082l-28 -170h-208l-161 -970q-29 -176 -132 -268.5t-264 -91.5q-32 -1 -61 2t-59 12l44 181q14 -5 47 -8t48 -2q62 -1 104.5 46t56.5 129l161 970h-178l28 170h178l17 104q29 180 139 275t261 95q44 0 91.5 -7t77.5 -18l-70 -179q-15 4 -35 7.5t-49 2.5
q-169 2 -199 -176l-17 -104h208z" />
    <glyph glyph-name="uni0193" unicode="&#x193;" horiz-adv-x="1500" 
d="M692 -24q-179 0 -311 77.5t-204 216t-72 323.5q0 178 59.5 343.5t168 295.5t258 206t330.5 76q129 0 235.5 -40.5t181.5 -114.5l7 50q17 134 105 200.5t240 66.5h121l-30 -178h-106q-60 0 -90 -23t-39 -75l-65 -398h-1v0v0h-226q-4 138 -94 223.5t-245 85.5
q-137 0 -246 -61.5t-185.5 -165t-117 -231t-40.5 -257.5q0 -191 99.5 -304t278.5 -113q119 0 223.5 50.5t177.5 140.5t95 206h-369l31 185h588l-30 -178q-30 -178 -134.5 -315t-259 -214.5t-334.5 -77.5z" />
    <glyph glyph-name="Gamma1" unicode="&#x194;" horiz-adv-x="1304" 
d="M164 1490h245l245 -936l559 936h245l-735 -1196q11 -38 21.5 -73t19.5 -67q37 -127 56.5 -208t10.5 -136q-20 -118 -110.5 -185t-229.5 -67t-209 66.5t-49 187.5q7 46 36.5 103.5t86.5 148.5t147 237zM574 50q-51 -83 -81.5 -139t-37.5 -95q-5 -34 12.5 -56t53.5 -23
q36 1 61.5 24t31.5 56q6 39 -5.5 93.5t-34.5 139.5z" />
    <glyph glyph-name="uni0195" unicode="&#x195;" horiz-adv-x="1902" 
d="M32 0l246 1490h209l-92 -555h16q53 91 142 144t220 53q172 0 260 -106t53 -316l-25 -152l-19 -118q-20 -115 1 -174.5t63 -81.5t84 -22q89 0 175 81t158.5 259.5t121.5 471.5l23 144h213l-23 -144q-58 -347 -162.5 -566.5t-244 -323.5t-303.5 -104q-173 0 -266 113
t-54 347l20 118l21 127q20 125 -33 193t-166 69q-117 -1 -205.5 -74.5t-111.5 -208.5l-110 -664h-211z" />
    <glyph glyph-name="Iota" unicode="&#x196;" horiz-adv-x="500" 
d="M326 0q-158 0 -216.5 58.5t-35.5 195.5l205 1236h211l-202 -1215q-10 -61 8 -81.5t78 -20.5h41l-28 -173h-61z" />
    <glyph glyph-name="uni0197" unicode="&#x197;" horiz-adv-x="659" 
d="M600 1490l-247 -1490h-222l247 1490h222zM44 699l24 146h628l-24 -146h-628z" />
    <glyph glyph-name="uni0198" unicode="&#x198;" horiz-adv-x="1353" 
d="M48 0l247 1490h220l-117 -710h18l661 611q113 103 230 115t211 -57l-108 -161q-46 31 -96.5 21.5t-113.5 -67.5l-473 -429l486 -813h-266l-384 658l-219 -206l-75 -452h-221z" />
    <glyph glyph-name="uni0199" unicode="&#x199;" horiz-adv-x="1068" 
d="M171 845l36 211l27 162q44 272 354 272h121l-30 -178h-106q-60 0 -90 -23t-38 -75l-27 -158l-75 -451h3l525 451h262l-522 -454l377 -602h-259l-300 475l-124 -104l-62 -371h-211l140 845h-1z" />
    <glyph glyph-name="uni019A" unicode="&#x19a;" horiz-adv-x="450" 
d="M490 1490l-247 -1490h-211l247 1490h211zM-90 689l27 158h680l-27 -158h-680z" />
    <glyph glyph-name="lambdabar" unicode="&#x19b;" horiz-adv-x="1257" 
d="M844 1411l-32 -179l-59 -20l217 -945q11 -47 29.5 -69t53.5 -22h36l-27 -184q-29 -9 -91 -10q-100 0 -154.5 41t-82.5 168l-116 533l-377 -724h-254l561 1034l-24 100l-276 -94l29 177l204 70q-27 46 -88 46q-11 0 -26 -0.5t-26 -3.5l27 175q20 6 59 10t64 4
q105 0 156 -39t70 -111z" />
    <glyph glyph-name="mcapturn" unicode="&#x19c;" horiz-adv-x="1823" 
d="M777 169q-65 -88 -159 -138.5t-220 -50.5q-112 0 -185.5 43.5t-100 143.5t2.5 270l174 1053h231l-174 -1053q-18 -105 -2.5 -163t52 -81t82.5 -23q109 0 179 50.5t109 133.5q3 40 10 83l175 1053h229l-175 -1053q-17 -105 -1 -163t53 -81t83 -23q106 0 174.5 48
t106.5 128l191 1144h230l-246 -1490h-216l11 116q-62 -64 -144 -100t-186 -36q-109 0 -183.5 43t-100.5 146z" />
    <glyph glyph-name="Nhook" unicode="&#x19d;" horiz-adv-x="1465" 
d="M-235 -418l31 186h106q60 0 87.5 22.5t36.5 73.5l43 261h1l226 1365h236l424 -901q20 -42 54 -121t66 -160q11 82 23.5 167.5t19.5 127.5l147 887h223l-247 -1490h-235l-380 805q-24 51 -68.5 151.5t-99.5 231.5q-17 -136 -31.5 -233.5t-22.5 -148.5l-126 -760l-32 -192
q-45 -272 -353 -272h-129z" />
    <glyph glyph-name="uni019E" unicode="&#x19e;" horiz-adv-x="1147" 
d="M344 608l-101 -608h-211l175 1056h207l-26 -153q133 174 336 174q109 0 191 -48t119.5 -141.5t14.5 -232.5l-178 -1073h-211l174 1050q42 256 -178 256q-107 0 -197.5 -66.5t-114.5 -213.5z" />
    <glyph glyph-name="Obar" unicode="&#x19f;" horiz-adv-x="1534" 
d="M687 -24q-176 0 -307 76.5t-203 215.5t-72 324q0 178 59 343t167 295.5t257 207t330 76.5q176 0 307 -76.5t203 -215.5t72 -326q0 -179 -59.5 -344t-168 -295t-257 -205.5t-328.5 -75.5zM360 831h917q2 32 2 65q0 202 -104 308.5t-266 106.5q-139 0 -249 -65.5
t-186.5 -174.5t-113.5 -240zM697 179q138 0 248 65t186.5 173.5t113.5 240.5h-916q-3 -33 -3 -65q0 -202 104 -308t267 -106z" />
    <glyph glyph-name="Ohorn" unicode="&#x1a0;" horiz-adv-x="1533" 
d="M687 -24q-176 0 -307 76.5t-203 215.5t-72 324q0 178 59 343t167 295.5t257 207t330 76.5h11v0q58 0 99.5 -3.5t85.5 -8.5t107.5 -8.5t166.5 -3.5q20 0 24 21l36 219h202l-36 -219q-15 -90 -70.5 -134t-145.5 -44q-23 0 -47 1q71 -80 110 -191t39 -247q0 -179 -59.5 -344
t-168 -295t-257 -205.5t-328.5 -75.5zM697 179q133 0 240.5 61t184 164t117 231t40.5 261q0 202 -104 308.5t-266 106.5q-134 0 -242 -61.5t-184 -165t-116.5 -231.5t-40.5 -260q0 -202 104 -308t267 -106z" />
    <glyph glyph-name="ohorn" unicode="&#x1a1;" horiz-adv-x="1146" 
d="M494 -24q-203 0 -319 122.5t-116 321.5q0 129 42.5 247.5t121 211.5t187.5 147t242 54h12v0q48 0 75.5 -2.5t53 -6t66 -6t114.5 -2.5q20 0 24 20l35 213h193l-34 -203q-14 -83 -64 -123.5t-129 -46.5q88 -116 88 -291q0 -127 -42 -245t-120 -210.5t-187 -146.5t-243 -54z
M503 158q91 0 160.5 42t116.5 112t71 154.5t24 169.5q0 123 -61 192.5t-171 69.5q-118 0 -201.5 -71.5t-127.5 -182t-44 -227.5q0 -122 61 -190.5t172 -68.5z" />
    <glyph glyph-name="OI" unicode="&#x1a2;" horiz-adv-x="1756" 
d="M1772 1490l-316 -1908h-231l275 1660l-155 -57l-80 -480h-1l-84 -511q-82 -96 -230.5 -155t-323.5 -59q-199 0 -327 85t-177.5 242t-14.5 373l19 117h1l2 13q36 220 139.5 376.5t263 240t363.5 83.5q131 0 236.5 -37.5t171.5 -99.5l292 117h177zM368 801h1l-19 -121
q-41 -239 36.5 -374t284.5 -134q86 -1 162 23.5t128 70.5l88 531h1l70 424q-35 45 -103 70t-154 25q-208 0 -330 -129.5t-163 -376.5z" />
    <glyph glyph-name="uni01A3" unicode="&#x1a3;" horiz-adv-x="1303" 
d="M1351 1118l-252 -1536h-231l206 1251l-127 -62l-40 -244h-2l-60 -371q-72 -76 -172.5 -126t-237.5 -50q-160 0 -255 74t-129 197.5t-12 270.5l5 38q25 162 100.5 291.5t199 205t290.5 75.5q102 0 178 -35t124 -89l242 110h173zM472 166q46 0 81.5 11.5t67.5 32.5l54 323
h-1l61 364q-22 23 -56.5 36.5t-82.5 13.5q-102 0 -167 -54.5t-101.5 -142.5t-52.5 -190l-5 -38q-23 -164 25.5 -260t176.5 -96z" />
    <glyph glyph-name="uni01A4" unicode="&#x1a4;" horiz-adv-x="1583" 
d="M127 1044l28 173q22 133 106 203t229 70h667q159 0 268 -58t156.5 -164t24.5 -249q-24 -142 -106 -245t-210 -158t-287 -55h-323l-93 -561h-222l215 1298h-96q-58 0 -87 -22.5t-36 -71.5l-27 -160h-207zM712 753h319q144 0 239.5 73.5t116.5 199.5t-50.5 198.5
t-215.5 72.5h-319z" />
    <glyph glyph-name="uni01A5" unicode="&#x1a5;" horiz-adv-x="1179" 
d="M170 845l36 211l27 162q44 272 354 272h121l-30 -178h-106q-60 0 -90 -23t-38 -75l-27 -158l-24 -146q62 88 153 127.5t188 39.5q181 0 284 -118.5t103 -313.5q0 -123 -37 -241.5t-107.5 -214.5t-171.5 -153t-228 -57q-108 0 -187.5 48t-118.5 141h-1l-97 -586h-211
l209 1263h-1zM539 161q120 0 202.5 71.5t125.5 182t43 227.5q0 125 -60.5 189.5t-164.5 64.5q-90 0 -160.5 -41.5t-119.5 -110.5t-74 -153t-25 -168q0 -122 61 -192t172 -70z" />
    <glyph glyph-name="YR" unicode="&#x1a6;" horiz-adv-x="1445" 
d="M216 1390l34 202h242l-17 -102h268q251 0 370 -112.5t83 -326.5q-26 -147 -118 -248t-234 -152l374 -997l-3 -11h-257l-349 960h-281l-100 -603h-242l231 1390h-1zM360 794h266q143 0 227 71t101 178q19 115 -37 184t-208 69h-267z" />
    <glyph glyph-name="uni01A7" unicode="&#x1a7;" horiz-adv-x="1285" 
d="M552 -24q-169 0 -287.5 55t-173.5 155t-33 234q26 160 149 260t356 153l166 38q160 37 234.5 87.5t88.5 131.5q16 101 -55.5 165.5t-205.5 64.5q-141 0 -243 -73.5t-132 -202.5h-214q42 218 200 344t399 126q160 0 273 -54t165.5 -152t31.5 -229q-26 -155 -145.5 -252
t-353.5 -150l-170 -39q-161 -37 -235.5 -90.5t-88.5 -139.5q-18 -109 58.5 -173.5t228.5 -64.5q167 0 278.5 83t136.5 230h221q-39 -236 -210 -371.5t-439 -135.5z" />
    <glyph glyph-name="uni01A8" unicode="&#x1a8;" horiz-adv-x="1001" 
d="M125 734q20 106 86 183t165 118t218 41q182 0 279.5 -86.5t74.5 -226.5q-41 -239 -354 -306l-181 -38q-72 -15 -118 -46t-55 -85q-11 -63 41 -100t153 -37q210 0 256 170h208q-40 -171 -178 -256.5t-319 -85.5q-123 0 -212.5 38t-132.5 110t-26 173q18 110 102 183
t244 108l187 39q74 17 121.5 50t56.5 87q10 61 -39 99t-139 38q-94 0 -158 -46.5t-78 -123.5h-202z" />
    <glyph glyph-name="uni01A9" unicode="&#x1a9;" horiz-adv-x="1253" 
d="M-34 0l29 170l556 494q28 25 58.5 51.5t61.5 52.5q-46 54 -86 102l-366 453l28 167h1114l-32 -195h-573q-63 0 -125.5 0.5t-125.5 0.5q34 -39 66.5 -78t62.5 -76l278 -347l-12 -79l-391 -350q-50 -44 -101.5 -86.5t-101.5 -84.5h852l-32 -195h-1160z" />
    <glyph glyph-name="eshlooprev" unicode="&#x1aa;" horiz-adv-x="1117" 
d="M197 1197q16 100 78.5 182t153 130.5t191.5 48.5q100 0 174 -48.5t110 -130.5t20 -182l-208 -1253q-16 -97 11.5 -137.5t94.5 -40.5q15 0 35 2.5t38 6.5l-29 -182q-28 -8 -64 -12t-67 -4q-153 0 -217 94t-35 273l153 917q-68 -25 -136 -25q-101 0 -175 49t-109 131
t-19 181zM536 1043q62 0 112 39t63 118q13 78 -24.5 117.5t-99.5 40.5q-66 -1 -116 -40.5t-63 -117.5q-13 -79 24.5 -118t103.5 -39z" />
    <glyph glyph-name="uni01AB" unicode="&#x1ab;" horiz-adv-x="677" 
d="M46 -418l29 178h112q61 0 90.5 23t37.5 75l24 146q-219 27 -182 248l104 630h-187l29 174h187l47 288h212l-48 -288h214l-28 -174h-215l-99 -603q-10 -59 10.5 -82t83.5 -23h103l-29 -174v0l-24 -146q-45 -272 -350 -272h-121z" />
    <glyph glyph-name="uni01AC" unicode="&#x1ac;" horiz-adv-x="1288" 
d="M141 1044l28 173q22 133 106 203t229 70h895l-33 -195h-465l-214 -1295h-222l214 1295h-85l32 195l-32 -192h-96q-58 0 -87 -22.5t-36 -71.5l-27 -160h-207z" />
    <glyph glyph-name="uni01AD" unicode="&#x1ad;" horiz-adv-x="667" 
d="M398 0q-143 0 -210 69t-46 194l96 582v0l6 37h-155l29 174h155l27 162q44 272 354 272h121l-30 -178h-106q-60 0 -90 -23t-38 -75l-26 -158h214l-29 -174h-214l-97 -585q-11 -67 11.5 -95t88.5 -28h94l-29 -174h-126z" />
    <glyph glyph-name="Trthook" unicode="&#x1ae;" horiz-adv-x="1268" 
d="M659 0l-17 -105q-13 -80 34 -104.5t114 -23.5h58l-31 -185h-113q-86 0 -157 32t-107 101t-18 179l18 106h-4l214 1295h-475l33 195h1171l-33 -195h-473l-214 -1295v0z" />
    <glyph glyph-name="Uhorn" unicode="&#x1af;" horiz-adv-x="1441" 
d="M1224 1333l26 157h175q20 0 24 21l36 219h202l-36 -219q-14 -88 -67.5 -131.5t-138.5 -45.5l-138 -831q-26 -156 -117 -274.5t-232 -185.5t-317 -67q-182 0 -306 70.5t-179 193t-29 278.5l161 972h221l-160 -969q-26 -153 54 -248.5t247 -95.5q118 0 211.5 47t154 128
t77.5 183l131 798v0z" />
    <glyph glyph-name="uhorn" unicode="&#x1b0;" horiz-adv-x="1254" 
d="M411 -21q-109 0 -188 47.5t-114 140.5t-12 231l110 658h211l-105 -632q-21 -127 29.5 -191.5t160.5 -64.5q107 0 191.5 66.5t109.5 213.5l100 608h170q34 0 39 34l35 206h185l-34 -203q-29 -173 -207 -177l-152 -916h-207l26 158q-138 -179 -348 -179z" />
    <glyph glyph-name="Upsilon2" unicode="&#x1b1;" horiz-adv-x="1512" 
d="M112 697q34 204 139.5 352.5t260.5 238.5l2 12h-302l31 190h548l-39 -241q-97 -38 -185.5 -117t-151.5 -188t-85 -240q-24 -147 15 -265.5t130 -187.5t224 -70q132 1 246 70t192 187.5t102 265.5q22 131 -4.5 240t-88.5 188t-147 117l40 241h548l-31 -190h-302l-2 -12
q125 -88 181 -237.5t23 -353.5q-35 -210 -148 -372t-280 -253.5t-363 -91.5t-332.5 91.5t-196 253.5t-24.5 372z" />
    <glyph glyph-name="Vcursive" unicode="&#x1b2;" horiz-adv-x="1257" 
d="M533 -20q-156 0 -269.5 56t-166.5 167.5t-25 277.5l166 1009h241l-168 -1009q-26 -158 42.5 -234t210.5 -75q141 -1 235 75t120 234l109 661q15 95 -16.5 132t-109.5 37q-38 0 -77 -6l33 187q28 7 61.5 12.5t68.5 5.5q149 0 230.5 -95t52.5 -273l-109 -661
q-28 -167 -120.5 -278t-226 -167t-282.5 -56z" />
    <glyph glyph-name="uni01B3" unicode="&#x1b3;" horiz-adv-x="1439" 
d="M185 1490h247l293 -680h16l397 521q100 131 221 163.5t229 -17.5l-83 -174q-54 22 -103 8t-100 -78l-494 -631l-99 -602h-220l100 602z" />
    <glyph glyph-name="uni01B4" unicode="&#x1b4;" horiz-adv-x="1368" 
d="M916 1056l90 169q44 84 87 143.5t103.5 90.5t158.5 31h132l-29 -178h-89q-59 0 -88.5 -32t-62.5 -91l-76 -133h-2l-685 -1241q-62 -112 -151.5 -172.5t-193.5 -60.5h-134l29 178h114q50 0 86.5 29t70.5 93l69 125l-234 1049h216l115 -579q23 -119 42 -236q29 59 59 118
l60 118l305 579h8z" />
    <glyph glyph-name="Zbar" unicode="&#x1b5;" horiz-adv-x="1248" 
d="M9 0l25 147l969 1153h-785l32 190h1061l-24 -149l-971 -1151h786l-31 -190h-1062zM228 656l29 178h836l-30 -178h-835z" />
    <glyph glyph-name="zbar" unicode="&#x1b6;" horiz-adv-x="1010" 
d="M8 0l25 153l671 720l1 4h-552l30 179h815l-27 -160l-662 -713l-1 -4h550l-29 -179h-821zM202 480l24 146h628l-24 -146h-628z" />
    <glyph glyph-name="uni01B7" unicode="&#x1b7;" horiz-adv-x="1324" 
d="M-27 77h223q-10 -96 30 -169t117 -114t177 -41q117 0 212 56.5t158 154.5t83 220q22 138 -19.5 239t-135 156t-227.5 55h-125l29 173l552 477v12h-789l33 194h1082l-27 -161l-601 -521l-2 -14q161 -9 273 -88t160 -212.5t20 -305.5q-31 -183 -131 -325t-250 -223
t-330 -80q-165 -1 -286.5 65t-182.5 182.5t-43 269.5z" />
    <glyph glyph-name="uni01B8" unicode="&#x1b8;" horiz-adv-x="1324" 
d="M1201 77q-33 -153 -133 -269.5t-243.5 -182.5t-308.5 -65q-180 -1 -303 80t-175.5 223t-22.5 325q29 172 121 305.5t229.5 212.5t301.5 88l2 14l-428 521l27 161h1083l-33 -194h-790v-12l393 -477l-29 -173h-125q-134 0 -246 -55t-186.5 -156t-97.5 -239
q-20 -122 10 -220t106.5 -154.5t193.5 -56.5q100 0 190 41t154 114t86 169h224z" />
    <glyph glyph-name="uni01B9" unicode="&#x1b9;" horiz-adv-x="1241" 
d="M451 -458q-156 0 -266.5 58.5t-162 160t-29.5 232.5q19 117 91.5 211t186.5 152.5t258 68.5v2l-332 468l27 161h922l-33 -192h-643v-2l294 -423l-28 -168h-130q-165 0 -269 -71.5t-125 -201.5q-20 -122 55 -196.5t218 -74.5q148 0 246 83.5t122 231.5h220
q-24 -144 -108.5 -257t-216 -178t-297.5 -65z" />
    <glyph glyph-name="uni01BA" unicode="&#x1ba;" horiz-adv-x="1070" 
d="M209 1056h880l-23 -140l-404 -283q128 -24 191.5 -95.5t44.5 -182.5q-16 -98 -82 -159.5t-165 -98.5t-212 -61q-133 -28 -188.5 -71t-64.5 -95q-11 -65 37.5 -101t140.5 -36q57 0 113.5 16.5t99.5 56.5t58 111h225q-15 -91 -81.5 -173.5t-177.5 -135t-261 -52.5
q-194 0 -298 91t-80 238q15 87 64 144.5t117.5 94t142.5 58t140 35.5q98 21 164.5 44t78.5 95q9 54 -30 83.5t-141 29.5h-195l24 141l390 261h-539z" />
    <glyph glyph-name="uni01BB" unicode="&#x1bb;" horiz-adv-x="1172" 
d="M-8 0l29 176l615 478q97 77 164.5 138.5t106.5 121.5t51 132q22 132 -36 205.5t-195 73.5q-134 0 -235 -88t-126 -239h-206q25 153 104.5 269t200.5 181.5t269 65.5q149 0 254.5 -57t153.5 -160t25 -241q-24 -146 -119 -266t-278 -263l-429 -336l-1 -2h691l-30 -189
h-1009zM254 526l29 178h836l-30 -178h-835z" />
    <glyph glyph-name="uni01BC" unicode="&#x1bc;" horiz-adv-x="1276" 
d="M605 -21q-149 0 -260 59.5t-167 164t-40 238.5h217q-10 -120 59.5 -197.5t197.5 -77.5q90 0 167 41.5t129.5 115t67.5 167.5q24 141 -38 232.5t-192 91.5q-115 0 -208.5 -46.5t-139.5 -134.5h-209l149 667h-162l32 190h1063l-32 -190h-692l-106 -439h2q78 70 159.5 104.5
t182.5 34.5q138 0 238 -64.5t145.5 -178.5t21.5 -263q-26 -151 -105.5 -267t-202 -182t-277.5 -66z" />
    <glyph glyph-name="uni01BD" unicode="&#x1bd;" horiz-adv-x="1118" 
d="M385 469l-200 13l118 408h-167l31 192h896l-31 -192h-513l-64 -220q35 22 98 39.5t124 19.5q184 3 270 -95t58 -277q-18 -106 -77.5 -190.5t-165.5 -134t-265 -50.5q-76 0 -150 20t-131.5 60.5t-86 102.5t-14.5 146l227 15q-11 -72 40.5 -114t144.5 -41
q112 -1 173.5 53.5t75.5 138.5q14 87 -30.5 140t-148.5 53q-79 0 -129.5 -26t-82.5 -61z" />
    <glyph glyph-name="glottalstopbarinv" unicode="&#x1be;" horiz-adv-x="1070" 
d="M710 292q10 60 -26.5 96t-88.5 70q-46 31 -91.5 71t-70 102.5t-8.5 162.5l20 118h-186l31 170h184l44 263h232l-44 -263h195l-29 -170h-194l-19 -115q-10 -62 8 -101t52.5 -66t73.5 -52q43 -27 82.5 -58.5t60 -81.5t7.5 -130q-16 -96 -83 -170t-172 -116t-236 -42
q-150 0 -243.5 53t-132.5 136t-23 173h228q-9 -70 19.5 -110.5t78 -58t103.5 -17.5q98 0 158.5 38.5t69.5 97.5z" />
    <glyph glyph-name="uni01BF" unicode="&#x1bf;" horiz-adv-x="1260" 
d="M445 1002q63 63 142 96.5t177 33.5q138 0 222.5 -69.5t115.5 -194t8 -288.5l-8 -50q-29 -198 -134.5 -328.5t-279 -216t-407.5 -150.5l-37 -251h-232l226 1534h215zM308 18q148 37 267.5 102t196.5 165.5t97 244.5l7 50q14 98 -0.5 180.5t-64.5 132t-142 49.5
q-83 0 -143 -35.5t-101 -93.5z" />
    <glyph glyph-name="pipe" unicode="&#x1c0;" horiz-adv-x="507" 
d="M489 1482l-246 -1482h-167l247 1482h166z" />
    <glyph glyph-name="pipedbl" unicode="&#x1c1;" horiz-adv-x="698" 
d="M453 1482l-246 -1482h-167l247 1482h166zM723 1482l-246 -1482h-167l247 1482h166z" />
    <glyph glyph-name="pipedblbar" unicode="&#x1c2;" horiz-adv-x="450" 
d="M462 1482l-246 -1482h-167l247 1482h166zM-43 973l27 158h680l-27 -158h-680zM-124 484l27 158h680l-27 -158h-680z" />
    <glyph glyph-name="exclam1" unicode="&#x1c3;" horiz-adv-x="468" 
d="M117 413l162 1077h229l-197 -1077h-194zM155 -17q-63 0 -100 45t-27 108q9 54 52 90.5t98 36.5q63 0 100 -45.5t26 -108.5q-9 -54 -52 -90t-97 -36z" />
    <glyph glyph-name="Dzcaron_" unicode="&#x1c5;" horiz-adv-x="2431" 
d="M565 0h-516l247 1490h486q219 0 365 -90t206.5 -256.5t22.5 -396.5q-58 -347 -264 -547t-547 -200zM303 193h246q260 0 410.5 147t193.5 407q42 259 -41.5 404.5t-332.5 145.5h-293zM1429 0l25 153l671 720l1 4h-552l30 179h815l-27 -160l-662 -713l-1 -4h550l-29 -179
h-821zM1944 1493l111 -173l168 173h192v-1l-285 -282h-189l-187 282v1h190z" />
    <glyph glyph-name="uni01C6" unicode="&#x1c6;" horiz-adv-x="2086" 
d="M446 -21q-182 0 -285 118t-103 313q0 124 37 242.5t107.5 214.5t171.5 153t228 57q107 0 189 -46.5t118 -134.5h1l98 594h211l-246 -1490h-207l25 156h-1q-68 -94 -157 -135.5t-187 -41.5zM494 161q117 0 202.5 70t131.5 178.5t46 223.5q0 122 -61.5 192.5t-172.5 70.5
q-119 0 -201.5 -71t-126 -181.5t-43.5 -228.5q0 -125 60.5 -189.5t164.5 -64.5zM1083 0l25 153l671 720l1 4h-552l30 179h815l-27 -160l-662 -713l-1 -4h550l-29 -179h-821zM1598 1493l111 -173l168 173h192v-1l-285 -282h-189l-187 282v1h190z" />
    <glyph glyph-name="uni01C7" unicode="&#x1c7;" horiz-adv-x="2225" 
d="M49 0l247 1490h222l-215 -1295h704l-31 -195h-927zM1562 -21q-182 0 -293.5 93.5t-111.5 268.5q0 21 4 55.5t18 123.5h217q-13 -83 -16.5 -110.5t-3.5 -42.5q0 -95 51.5 -145t144.5 -50q108 0 186 67t99 193l176 1058h223l-176 -1059q-36 -218 -173.5 -335t-344.5 -117z
" />
    <glyph glyph-name="uni01C8" unicode="&#x1c8;" horiz-adv-x="1560" 
d="M49 0l247 1490h222l-215 -1295h704l-31 -195h-927zM1317 1056h212l-197 -1184q-21 -129 -112 -209.5t-239 -80.5h-88l29 178h61q63 0 97 33t46 107zM1453 1241q-54 0 -86.5 38t-23.5 92t53.5 92t99.5 38t87.5 -38t23.5 -92t-54 -92t-100 -38z" />
    <glyph glyph-name="uni01C9" unicode="&#x1c9;" horiz-adv-x="900" 
d="M490 1490l-247 -1490h-211l247 1490h211zM656 1056h212l-197 -1184q-21 -129 -112 -209.5t-239 -80.5h-88l29 178h61q63 0 97 33t46 107zM792 1241q-54 0 -86.5 38t-23.5 92t53.5 92t99.5 38t87.5 -38t23.5 -92t-54 -92t-100 -38z" />
    <glyph glyph-name="uni01CA" unicode="&#x1ca;" horiz-adv-x="2580" 
d="M49 0l247 1490h236l424 -901q20 -42 54 -121t66 -160q11 82 23.5 167.5t19.5 127.5l147 887h223l-247 -1490h-235l-380 805q-24 51 -68.5 151.5t-99.5 231.5q-17 -136 -31.5 -233.5t-22.5 -148.5l-134 -806h-222zM1916 -21q-182 0 -293.5 93.5t-111.5 268.5q0 21 4 55.5
t18 123.5h217q-13 -83 -16.5 -110.5t-3.5 -42.5q0 -95 51.5 -145t144.5 -50q108 0 186 67t99 193l176 1058h223l-176 -1059q-36 -218 -173.5 -335t-344.5 -117z" />
    <glyph glyph-name="uni01CB" unicode="&#x1cb;" horiz-adv-x="1915" 
d="M49 0l247 1490h236l424 -901q20 -42 54 -121t66 -160q11 82 23.5 167.5t19.5 127.5l147 887h223l-247 -1490h-235l-380 805q-24 51 -68.5 151.5t-99.5 231.5q-17 -136 -31.5 -233.5t-22.5 -148.5l-134 -806h-222zM1671 1056h212l-197 -1184q-21 -129 -112 -209.5
t-239 -80.5h-88l29 178h61q63 0 97 33t46 107zM1807 1241q-54 0 -86.5 38t-23.5 92t53.5 92t99.5 38t87.5 -38t23.5 -92t-54 -92t-100 -38z" />
    <glyph glyph-name="uni01CC" unicode="&#x1cc;" horiz-adv-x="1596" 
d="M342 600l-99 -600h-211l174 1056h207l-24 -149q132 170 335 170q111 0 192.5 -49t118 -144t13.5 -233l-108 -651h-211l105 639q21 127 -27 188t-154 61q-112 0 -199.5 -70t-111.5 -218zM1352 1056h212l-197 -1184q-21 -129 -112 -209.5t-239 -80.5h-88l29 178h61
q63 0 97 33t46 107zM1488 1241q-54 0 -86.5 38t-23.5 92t53.5 92t99.5 38t87.5 -38t23.5 -92t-54 -92t-100 -38z" />
    <glyph glyph-name="uni01CD" unicode="&#x1cd;" horiz-adv-x="1379" 
d="M-71 0l788 1490h268l290 -1490h-232l-68 387h-601l-200 -387h-245zM472 576h470l-47 264q-15 92 -31.5 197t-36.5 250q-69 -145 -120.5 -250t-97.5 -197zM784 1927l111 -173l168 173h192v-1l-285 -282h-189l-187 282v1h190z" />
    <glyph glyph-name="uni01CE" unicode="&#x1ce;" horiz-adv-x="1179" 
d="M434 -21q-138 0 -229.5 69.5t-128 193t-10.5 286.5q27 163 105 286.5t192.5 193t250.5 69.5q103 0 183 -43t116 -130h2l26 152h206l-175 -1056h-206l26 159h-3q-68 -90 -160 -135t-195 -45zM506 161q135 0 232.5 100.5t124.5 266.5q28 167 -36 267.5t-199 100.5
q-127 0 -222.5 -94.5t-125.5 -273.5q-29 -179 35 -273t191 -94zM600 1493l111 -173l168 173h192v-1l-285 -282h-189l-187 282v1h190z" />
    <glyph glyph-name="uni01CF" unicode="&#x1cf;" horiz-adv-x="495" 
d="M518 1490l-247 -1490h-222l247 1490h222zM339 1927l111 -173l168 173h192v-1l-285 -282h-189l-187 282v1h190z" />
    <glyph glyph-name="uni01D0" unicode="&#x1d0;" horiz-adv-x="450" 
d="M32 0l175 1056h211l-175 -1056h-211zM245 1493l111 -173l168 173h192v-1l-285 -282h-189l-187 282v1h190z" />
    <glyph glyph-name="uni01D1" unicode="&#x1d1;" horiz-adv-x="1534" 
d="M687 -24q-176 0 -307 76.5t-203 215.5t-72 324q0 178 59 343t167 295.5t257 207t330 76.5q176 0 307 -76.5t203 -215.5t72 -326q0 -179 -59.5 -344t-168 -295t-257 -205.5t-328.5 -75.5zM697 179q133 0 240.5 61t184 164t117 231t40.5 261q0 202 -104 308.5t-266 106.5
q-134 0 -242 -61.5t-184 -165t-116.5 -231.5t-40.5 -260q0 -202 104 -308t267 -106zM858 1927l111 -173l168 173h192v-1l-285 -282h-189l-187 282v1h190z" />
    <glyph glyph-name="uni01D2" unicode="&#x1d2;" horiz-adv-x="1145" 
d="M494 -24q-203 0 -319 122.5t-116 321.5q0 129 42.5 247.5t121 211.5t187.5 147t242 54q202 0 318 -123.5t116 -324.5q0 -127 -42 -245t-120 -210.5t-187 -146.5t-243 -54zM503 158q91 0 160.5 42t116.5 112t71 154.5t24 169.5q0 123 -61 192.5t-171 69.5
q-118 0 -201.5 -71.5t-127.5 -182t-44 -227.5q0 -122 61 -190.5t172 -68.5zM592 1493l111 -173l168 173h192v-1l-285 -282h-189l-187 282v1h190z" />
    <glyph glyph-name="uni01D3" unicode="&#x1d3;" horiz-adv-x="1441" 
d="M641 -24q-182 0 -306 70.5t-179 193t-29 278.5l161 972h221l-160 -969q-26 -153 54 -248.5t247 -95.5q118 0 211.5 47t154 128t77.5 183l157 955h221l-164 -987q-26 -156 -117 -274.5t-232 -185.5t-317 -67zM811 1927l111 -173l168 173h192v-1l-285 -282h-189l-187 282v1
h190z" />
    <glyph glyph-name="uni01D4" unicode="&#x1d4;" horiz-adv-x="1147" 
d="M411 -21q-109 0 -188 47.5t-114 140.5t-12 231l110 658h211l-105 -632q-21 -127 29.5 -191.5t160.5 -64.5q107 0 191.5 66.5t109.5 213.5l100 608h211l-175 -1056h-207l26 158q-138 -179 -348 -179zM593 1493l111 -173l168 173h192v-1l-285 -282h-189l-187 282v1h190z
" />
    <glyph glyph-name="uni01D5" unicode="&#x1d5;" horiz-adv-x="1441" 
d="M641 -24q-182 0 -306 70.5t-179 193t-29 278.5l161 972h221l-160 -969q-26 -153 54 -248.5t247 -95.5q118 0 211.5 47t154 128t77.5 183l157 955h221l-164 -987q-26 -156 -117 -274.5t-232 -185.5t-317 -67zM1292 2143l-26 -141h-561l26 141h561zM680 1632q-55 0 -87 37
t-23 92q9 54 53 91.5t99 37.5q56 0 88 -37.5t23 -91.5q-9 -55 -53.5 -92t-99.5 -37zM1107 1632q-55 0 -87 37t-23 92q9 54 53 91.5t100 37.5q55 0 87 -37.5t23 -91.5q-9 -55 -53.5 -92t-99.5 -37z" />
    <glyph glyph-name="uni01D6" unicode="&#x1d6;" horiz-adv-x="1147" 
d="M411 -21q-109 0 -188 47.5t-114 140.5t-12 231l110 658h211l-105 -632q-21 -127 29.5 -191.5t160.5 -64.5q107 0 191.5 66.5t109.5 213.5l100 608h211l-175 -1056h-207l26 158q-138 -179 -348 -179zM1073 1709l-26 -141h-561l26 141h561zM461 1198q-55 0 -87 37t-23 92
q9 54 53 91.5t99 37.5q56 0 88 -37.5t23 -91.5q-9 -55 -53.5 -92t-99.5 -37zM888 1198q-55 0 -87 37t-23 92q9 54 53 91.5t100 37.5q55 0 87 -37.5t23 -91.5q-9 -55 -53.5 -92t-99.5 -37z" />
    <glyph glyph-name="uni01D7" unicode="&#x1d7;" horiz-adv-x="1441" 
d="M641 -24q-182 0 -306 70.5t-179 193t-29 278.5l161 972h221l-160 -969q-26 -153 54 -248.5t247 -95.5q118 0 211.5 47t154 128t77.5 183l157 955h221l-164 -987q-26 -156 -117 -274.5t-232 -185.5t-317 -67zM680 1632q-55 0 -87 37t-23 92q9 54 53 91.5t99 37.5
q56 0 88 -37.5t23 -91.5q-9 -55 -53.5 -92t-99.5 -37zM1107 1632q-55 0 -87 37t-23 92q9 54 53 91.5t100 37.5q55 0 87 -37.5t23 -91.5q-9 -55 -53.5 -92t-99.5 -37zM875 1960l194 277h219l-254 -277h-159z" />
    <glyph glyph-name="uni01D8" unicode="&#x1d8;" horiz-adv-x="1147" 
d="M411 -21q-109 0 -188 47.5t-114 140.5t-12 231l110 658h211l-105 -632q-21 -127 29.5 -191.5t160.5 -64.5q107 0 191.5 66.5t109.5 213.5l100 608h211l-175 -1056h-207l26 158q-138 -179 -348 -179zM461 1198q-55 0 -87 37t-23 92q9 54 53 91.5t99 37.5q56 0 88 -37.5
t23 -91.5q-9 -55 -53.5 -92t-99.5 -37zM888 1198q-55 0 -87 37t-23 92q9 54 53 91.5t100 37.5q55 0 87 -37.5t23 -91.5q-9 -55 -53.5 -92t-99.5 -37zM656 1526l194 277h219l-254 -277h-159z" />
    <glyph glyph-name="uni01D9" unicode="&#x1d9;" horiz-adv-x="1441" 
d="M641 -24q-182 0 -306 70.5t-179 193t-29 278.5l161 972h221l-160 -969q-26 -153 54 -248.5t247 -95.5q118 0 211.5 47t154 128t77.5 183l157 955h221l-164 -987q-26 -156 -117 -274.5t-232 -185.5t-317 -67zM863 2217l109 -171l165 171h187v-1l-279 -277h-184l-184 277v1
h186zM680 1632q-55 0 -87 37t-23 92q9 54 53 91.5t99 37.5q56 0 88 -37.5t23 -91.5q-9 -55 -53.5 -92t-99.5 -37zM1107 1632q-55 0 -87 37t-23 92q9 54 53 91.5t100 37.5q55 0 87 -37.5t23 -91.5q-9 -55 -53.5 -92t-99.5 -37z" />
    <glyph glyph-name="uni01DA" unicode="&#x1da;" horiz-adv-x="1147" 
d="M411 -21q-109 0 -188 47.5t-114 140.5t-12 231l110 658h211l-105 -632q-21 -127 29.5 -191.5t160.5 -64.5q107 0 191.5 66.5t109.5 213.5l100 608h211l-175 -1056h-207l26 158q-138 -179 -348 -179zM644 1783l109 -171l165 171h187v-1l-279 -277h-184l-184 277v1h186z
M461 1198q-55 0 -87 37t-23 92q9 54 53 91.5t99 37.5q56 0 88 -37.5t23 -91.5q-9 -55 -53.5 -92t-99.5 -37zM888 1198q-55 0 -87 37t-23 92q9 54 53 91.5t100 37.5q55 0 87 -37.5t23 -91.5q-9 -55 -53.5 -92t-99.5 -37z" />
    <glyph glyph-name="uni01DB" unicode="&#x1db;" horiz-adv-x="1441" 
d="M641 -24q-182 0 -306 70.5t-179 193t-29 278.5l161 972h221l-160 -969q-26 -153 54 -248.5t247 -95.5q118 0 211.5 47t154 128t77.5 183l157 955h221l-164 -987q-26 -156 -117 -274.5t-232 -185.5t-317 -67zM679 1632q-55 0 -87 37.5t-23 91.5t53 91.5t99 37.5
q56 0 88 -37.5t23 -91.5t-53.5 -91.5t-99.5 -37.5zM1106 1632q-55 0 -87 37.5t-23 91.5t53 91.5t100 37.5q55 0 87 -37.5t23 -91.5t-53.5 -91.5t-99.5 -37.5zM871 1960l-161 277h219l101 -277h-159z" />
    <glyph glyph-name="uni01DC" unicode="&#x1dc;" horiz-adv-x="1147" 
d="M411 -21q-109 0 -188 47.5t-114 140.5t-12 231l110 658h211l-105 -632q-21 -127 29.5 -191.5t160.5 -64.5q107 0 191.5 66.5t109.5 213.5l100 608h211l-175 -1056h-207l26 158q-138 -179 -348 -179zM461 1198q-55 0 -87 37.5t-23 91.5t53 91.5t99 37.5q56 0 88 -37.5
t23 -91.5t-53.5 -91.5t-99.5 -37.5zM888 1198q-55 0 -87 37.5t-23 91.5t53 91.5t100 37.5q55 0 87 -37.5t23 -91.5t-53.5 -91.5t-99.5 -37.5zM653 1526l-161 277h219l101 -277h-159z" />
    <glyph glyph-name="eturn" unicode="&#x1dd;" horiz-adv-x="1102" 
d="M609 1080q199 0 318.5 -113.5t111.5 -355.5q-5 -192 -84.5 -335t-213 -221.5t-301.5 -78.5q-167 0 -272.5 78.5t-105.5 226.5q0 192 194 264.5t576 77.5q2 75 -16.5 139t-70.5 103t-150 39q-110 0 -185 -47.5t-109 -123.5h-205q55 155 187.5 251t325.5 96zM814 463
q-216 -2 -334.5 -22.5t-165 -59.5t-46.5 -97q0 -61 49 -96t144 -35q156 0 240 90.5t113 219.5z" />
    <glyph glyph-name="uni01DE" unicode="&#x1de;" horiz-adv-x="1379" 
d="M-71 0l788 1490h268l290 -1490h-232l-68 387h-601l-200 -387h-245zM472 576h470l-47 264q-15 92 -31.5 197t-36.5 250q-69 -145 -120.5 -250t-97.5 -197zM1264 2143l-26 -141h-561l26 141h561zM652 1632q-55 0 -87 37t-23 92q9 54 53 91.5t99 37.5q56 0 88 -37.5
t23 -91.5q-9 -55 -53.5 -92t-99.5 -37zM1079 1632q-55 0 -87 37t-23 92q9 54 53 91.5t100 37.5q55 0 87 -37.5t23 -91.5q-9 -55 -53.5 -92t-99.5 -37z" />
    <glyph glyph-name="uni01DF" unicode="&#x1df;" horiz-adv-x="1179" 
d="M434 -21q-138 0 -229.5 69.5t-128 193t-10.5 286.5q27 163 105 286.5t192.5 193t250.5 69.5q103 0 183 -43t116 -130h2l26 152h206l-175 -1056h-206l26 159h-3q-68 -90 -160 -135t-195 -45zM506 161q135 0 232.5 100.5t124.5 266.5q28 167 -36 267.5t-199 100.5
q-127 0 -222.5 -94.5t-125.5 -273.5q-29 -179 35 -273t191 -94zM1080 1709l-26 -141h-561l26 141h561zM468 1198q-55 0 -87 37t-23 92q9 54 53 91.5t99 37.5q56 0 88 -37.5t23 -91.5q-9 -55 -53.5 -92t-99.5 -37zM895 1198q-55 0 -87 37t-23 92q9 54 53 91.5t100 37.5
q55 0 87 -37.5t23 -91.5q-9 -55 -53.5 -92t-99.5 -37z" />
    <glyph glyph-name="uni01E0" unicode="&#x1e0;" horiz-adv-x="1379" 
d="M-71 0l788 1490h268l290 -1490h-232l-68 387h-601l-200 -387h-245zM472 576h470l-47 264q-15 92 -31.5 197t-36.5 250q-69 -145 -120.5 -250t-97.5 -197zM1264 2143l-26 -141h-561l26 141h561zM875 1634q-55 0 -87 38t-23 92t53.5 92t99.5 38t87.5 -38t23.5 -92t-54 -92
t-100 -38z" />
    <glyph glyph-name="uni01E1" unicode="&#x1e1;" horiz-adv-x="1179" 
d="M434 -21q-138 0 -229.5 69.5t-128 193t-10.5 286.5q27 163 105 286.5t192.5 193t250.5 69.5q103 0 183 -43t116 -130h2l26 152h206l-175 -1056h-206l26 159h-3q-68 -90 -160 -135t-195 -45zM506 161q135 0 232.5 100.5t124.5 266.5q28 167 -36 267.5t-199 100.5
q-127 0 -222.5 -94.5t-125.5 -273.5q-29 -179 35 -273t191 -94zM1080 1709l-26 -141h-561l26 141h561zM691 1200q-55 0 -87 38t-23 92t53.5 92t99.5 38t87.5 -38t23.5 -92t-54 -92t-100 -38z" />
    <glyph glyph-name="uni01E2" unicode="&#x1e2;" horiz-adv-x="1950" 
d="M-71 0l905 1490h1205l-33 -193h-712l-74 -452h654l-31 -188h-655l-77 -464h720l-32 -193h-939l70 422h-516l-253 -422h-232zM525 607h436l114 690h-136zM1792 1854l-26 -157h-560l26 157h560z" />
    <glyph glyph-name="uni01E3" unicode="&#x1e3;" horiz-adv-x="1781" 
d="M363 -17q-178 0 -268 88.5t-64 239.5q47 292 446 294q38 0 72 -1.5t70 -3.5q31 -2 65.5 -3.5t74.5 -2.5l23 135q14 84 -35.5 129.5t-155.5 45.5q-101 0 -170.5 -46.5t-89.5 -125.5h-207q21 101 87.5 179t170 122t233.5 44q123 0 205 -40t121 -109q74 73 172.5 112.5
t215.5 39.5q170 0 278.5 -82t108.5 -233q0 -176 -195.5 -246t-574.5 -75q-2 -21 -2 -35q0 -129 55.5 -193t174.5 -64q111 0 189.5 49.5t111.5 125.5h211q-59 -167 -190 -259t-319 -92q-127 0 -220 46t-144 141q-68 -83 -179 -131.5t-271 -48.5zM969 591q212 3 329.5 24.5
t164.5 64t47 108.5q0 61 -47.5 88t-131.5 27q-150 0 -242 -83t-120 -229zM735 446q-22 1 -43.5 1.5t-43.5 1.5q-39 1 -77 2t-75 1q-101 0 -174 -30.5t-86 -111.5q-24 -157 169 -157q143 0 224.5 75t97.5 172zM1293 1420l-26 -157h-560l26 157h560z" />
    <glyph glyph-name="Gbar" unicode="&#x1e4;" horiz-adv-x="1500" 
d="M692 -24q-179 0 -311 77.5t-204 216t-72 323.5q0 178 59.5 343.5t168 295.5t258 206t330.5 76q164 0 290.5 -64.5t198 -179.5t70.5 -268h-226q-4 138 -94 223.5t-245 85.5q-137 0 -246 -61.5t-185.5 -165t-117 -231t-40.5 -257.5q0 -191 99.5 -304t278.5 -113
q119 0 223.5 50.5t177.5 140.5t95 206h-369l31 185h588l-30 -178q-30 -178 -134.5 -315t-259 -214.5t-334.5 -77.5zM791 331l22 137h666l-23 -137h-665z" />
    <glyph glyph-name="gbar" unicode="&#x1e5;" horiz-adv-x="1179" 
d="M432 -432q-196 0 -309 86t-107 241h206q7 -77 62.5 -116t150.5 -39q134 0 223 72.5t108 200.5l23 153h-1q-70 -92 -155 -136t-186 -44q-183 0 -286 118.5t-103 311.5q0 123 37.5 240.5t108.5 212.5t171.5 151.5t225.5 56.5q108 0 190 -45t121 -139h1l26 163h208
l-173 -1050q-26 -159 -105.5 -255.5t-193 -139.5t-243.5 -43zM494 167q118 0 203 69t131 177t46 223q0 122 -61.5 191.5t-172.5 69.5q-118 0 -201 -70.5t-126 -180t-43 -226.5q0 -125 60 -189t164 -64zM638 492l24 146h628l-24 -146h-628z" />
    <glyph glyph-name="Gcaron" unicode="&#x1e6;" horiz-adv-x="1500" 
d="M692 -24q-179 0 -311 77.5t-204 216t-72 323.5q0 178 59.5 343.5t168 295.5t258 206t330.5 76q164 0 290.5 -64.5t198 -179.5t70.5 -268h-226q-4 138 -94 223.5t-245 85.5q-137 0 -246 -61.5t-185.5 -165t-117 -231t-40.5 -257.5q0 -191 99.5 -304t278.5 -113
q119 0 223.5 50.5t177.5 140.5t95 206h-369l31 185h588l-30 -178q-30 -178 -134.5 -315t-259 -214.5t-334.5 -77.5zM850 1927l111 -173l168 173h192v-1l-285 -282h-189l-187 282v1h190z" />
    <glyph glyph-name="gcaron" unicode="&#x1e7;" horiz-adv-x="1179" 
d="M432 -432q-196 0 -309 86t-107 241h206q7 -77 62.5 -116t150.5 -39q134 0 223 72.5t108 200.5l23 153h-1q-70 -92 -155 -136t-186 -44q-183 0 -286 118.5t-103 311.5q0 123 37.5 240.5t108.5 212.5t171.5 151.5t225.5 56.5q108 0 190 -45t121 -139h1l26 163h208
l-173 -1050q-26 -159 -105.5 -255.5t-193 -139.5t-243.5 -43zM494 167q118 0 203 69t131 177t46 223q0 122 -61.5 191.5t-172.5 69.5q-118 0 -201 -70.5t-126 -180t-43 -226.5q0 -125 60 -189t164 -64zM584 1493l111 -173l168 173h192v-1l-285 -282h-189l-187 282v1h190z
" />
    <glyph glyph-name="uni01E8" unicode="&#x1e8;" horiz-adv-x="1335" 
d="M49 0l247 1490h222l-80 -483l-42 -252q70 67 140.5 133.5t142.5 134.5l501 467h288l-696 -645l454 -845h-245l-374 704l-259 -242l-77 -462h-222zM769 1927l111 -173l168 173h192v-1l-285 -282h-189l-187 282v1h190z" />
    <glyph glyph-name="uni01E9" unicode="&#x1e9;" horiz-adv-x="1068" 
d="M32 0l247 1490h211l-147 -885h3l525 451h262l-522 -454l377 -602h-259l-300 475l-124 -104l-62 -371h-211zM317 1927l111 -173l168 173h192v-1l-285 -282h-189l-187 282v1h190z" />
    <glyph glyph-name="uni01EA" unicode="&#x1ea;" horiz-adv-x="1534" 
d="M687 -24q-176 0 -307 76.5t-203 215.5t-72 324q0 178 59 343t167 295.5t257 207t330 76.5q176 0 307 -76.5t203 -215.5t72 -326q0 -179 -59.5 -344t-168 -295t-257 -205.5t-328.5 -75.5zM697 179q133 0 240.5 61t184 164t117 231t40.5 261q0 202 -104 308.5t-266 106.5
q-134 0 -242 -61.5t-184 -165t-116.5 -231.5t-40.5 -260q0 -202 104 -308t267 -106zM666 -418q-104 0 -159.5 49t-39.5 144q14 80 65 135.5t127.5 100.5t166.5 91.5t180.5 108.5t170.5 151.5t137.5 219.5t78.5 314h107q-9 -188 -56 -327.5t-118 -239.5t-153.5 -170
t-165.5 -119t-152.5 -85.5t-114.5 -70t-52 -74.5q-11 -68 74 -68h60l-26 -160h-130z" />
    <glyph glyph-name="uni01EB" unicode="&#x1eb;" horiz-adv-x="1145" 
d="M494 -24q-203 0 -319 122.5t-116 321.5q0 129 42.5 247.5t121 211.5t187.5 147t242 54q202 0 318 -123.5t116 -324.5q0 -127 -42 -245t-120 -210.5t-187 -146.5t-243 -54zM503 158q91 0 160.5 42t116.5 112t71 154.5t24 169.5q0 123 -61 192.5t-171 69.5
q-118 0 -201.5 -71.5t-127.5 -182t-44 -227.5q0 -122 61 -190.5t172 -68.5zM480 -420q-238 0 -206 189q14 83 65.5 139t125.5 98.5t156 85t158 97.5t132 136t76 201h90q-22 -134 -71 -226t-113 -154t-131.5 -105t-127 -77t-99.5 -70t-48 -86q-6 -32 12 -50t75 -18h41
l-26 -160h-109z" />
    <glyph glyph-name="uni01EC" unicode="&#x1ec;" horiz-adv-x="1534" 
d="M687 -24q-176 0 -307 76.5t-203 215.5t-72 324q0 178 59 343t167 295.5t257 207t330 76.5q176 0 307 -76.5t203 -215.5t72 -326q0 -179 -59.5 -344t-168 -295t-257 -205.5t-328.5 -75.5zM697 179q133 0 240.5 61t184 164t117 231t40.5 261q0 202 -104 308.5t-266 106.5
q-134 0 -242 -61.5t-184 -165t-116.5 -231.5t-40.5 -260q0 -202 104 -308t267 -106zM666 -418q-104 0 -159.5 49t-39.5 144q14 80 65 135.5t127.5 100.5t166.5 91.5t180.5 108.5t170.5 151.5t137.5 219.5t78.5 314h107q-9 -188 -56 -327.5t-118 -239.5t-153.5 -170
t-165.5 -119t-152.5 -85.5t-114.5 -70t-52 -74.5q-11 -68 74 -68h60l-26 -160h-130zM1265 1854l-26 -157h-560l26 157h560z" />
    <glyph glyph-name="uni01ED" unicode="&#x1ed;" horiz-adv-x="1145" 
d="M494 -24q-203 0 -319 122.5t-116 321.5q0 129 42.5 247.5t121 211.5t187.5 147t242 54q202 0 318 -123.5t116 -324.5q0 -127 -42 -245t-120 -210.5t-187 -146.5t-243 -54zM503 158q91 0 160.5 42t116.5 112t71 154.5t24 169.5q0 123 -61 192.5t-171 69.5
q-118 0 -201.5 -71.5t-127.5 -182t-44 -227.5q0 -122 61 -190.5t172 -68.5zM480 -420q-238 0 -206 189q14 83 65.5 139t125.5 98.5t156 85t158 97.5t132 136t76 201h90q-22 -134 -71 -226t-113 -154t-131.5 -105t-127 -77t-99.5 -70t-48 -86q-6 -32 12 -50t75 -18h41
l-26 -160h-109zM1000 1420l-26 -157h-560l26 157h560z" />
    <glyph glyph-name="uni01EE" unicode="&#x1ee;" horiz-adv-x="1324" 
d="M-27 77h223q-10 -96 30 -169t117 -114t177 -41q117 0 212 56.5t158 154.5t83 220q22 138 -19.5 239t-135 156t-227.5 55h-125l29 173l552 477v12h-789l33 194h1082l-27 -161l-601 -521l-2 -14q161 -9 273 -88t160 -212.5t20 -305.5q-31 -183 -131 -325t-250 -223
t-330 -80q-165 -1 -286.5 65t-182.5 182.5t-43 269.5zM779 2113l111 -173l168 173h192v-1l-285 -282h-189l-187 282v1h190z" />
    <glyph glyph-name="uni01EF" unicode="&#x1ef;" horiz-adv-x="1228" 
d="M487 -458q-163 0 -279 65.5t-170 178.5t-31 256h218q-23 -144 47.5 -229.5t215.5 -85.5q139 0 237.5 82.5t120.5 214.5t-47.5 209t-238.5 77h-213l26 160l476 395v1h-638l32 190h916l-32 -186l-500 -416q152 0 257 -55t152 -152.5t26 -225.5q-23 -140 -100.5 -248.5
t-199 -169.5t-275.5 -61zM622 1493l111 -173l168 173h192v-1l-285 -282h-189l-187 282v1h190z" />
    <glyph glyph-name="uni01F0" unicode="&#x1f0;" horiz-adv-x="450" 
d="M206 1056h212l-197 -1184q-21 -129 -112 -209.5t-239 -80.5h-88l29 178h61q63 0 97 33t46 107zM244 1493l111 -173l168 173h192v-1l-285 -282h-189l-187 282v1h190z" />
    <glyph glyph-name="uni01F1" unicode="&#x1f1;" horiz-adv-x="2668" 
d="M565 0h-516l247 1490h486q219 0 365 -90t206.5 -256.5t22.5 -396.5q-58 -347 -264 -547t-547 -200zM303 193h246q260 0 410.5 147t193.5 407q42 259 -41.5 404.5t-332.5 145.5h-293zM1430 0l25 147l969 1153h-785l32 190h1061l-24 -149l-971 -1151h786l-31 -190h-1062z
" />
    <glyph glyph-name="uni01F2" unicode="&#x1f2;" horiz-adv-x="2431" 
d="M565 0h-516l247 1490h486q219 0 365 -90t206.5 -256.5t22.5 -396.5q-58 -347 -264 -547t-547 -200zM303 193h246q260 0 410.5 147t193.5 407q42 259 -41.5 404.5t-332.5 145.5h-293zM1429 0l25 153l671 720l1 4h-552l30 179h815l-27 -160l-662 -713l-1 -4h550l-29 -179
h-821z" />
    <glyph glyph-name="uni01F3" unicode="&#x1f3;" horiz-adv-x="2086" 
d="M446 -21q-182 0 -285 118t-103 313q0 124 37 242.5t107.5 214.5t171.5 153t228 57q107 0 189 -46.5t118 -134.5h1l98 594h211l-246 -1490h-207l25 156h-1q-68 -94 -157 -135.5t-187 -41.5zM494 161q117 0 202.5 70t131.5 178.5t46 223.5q0 122 -61.5 192.5t-172.5 70.5
q-119 0 -201.5 -71t-126 -181.5t-43.5 -228.5q0 -125 60.5 -189.5t164.5 -64.5zM1083 0l25 153l671 720l1 4h-552l30 179h815l-27 -160l-662 -713l-1 -4h550l-29 -179h-821z" />
    <glyph glyph-name="uni01F4" unicode="&#x1f4;" horiz-adv-x="1500" 
d="M692 -24q-179 0 -311 77.5t-204 216t-72 323.5q0 178 59.5 343.5t168 295.5t258 206t330.5 76q164 0 290.5 -64.5t198 -179.5t70.5 -268h-226q-4 138 -94 223.5t-245 85.5q-137 0 -246 -61.5t-185.5 -165t-117 -231t-40.5 -257.5q0 -191 99.5 -304t278.5 -113
q119 0 223.5 50.5t177.5 140.5t95 206h-369l31 185h588l-30 -178q-30 -178 -134.5 -315t-259 -214.5t-334.5 -77.5zM850 1664l199 284h225l-260 -284h-164z" />
    <glyph glyph-name="uni01F5" unicode="&#x1f5;" horiz-adv-x="1179" 
d="M432 -432q-196 0 -309 86t-107 241h206q7 -77 62.5 -116t150.5 -39q134 0 223 72.5t108 200.5l23 153h-1q-70 -92 -155 -136t-186 -44q-183 0 -286 118.5t-103 311.5q0 123 37.5 240.5t108.5 212.5t171.5 151.5t225.5 56.5q108 0 190 -45t121 -139h1l26 163h208
l-173 -1050q-26 -159 -105.5 -255.5t-193 -139.5t-243.5 -43zM494 167q118 0 203 69t131 177t46 223q0 122 -61.5 191.5t-172.5 69.5q-118 0 -201 -70.5t-126 -180t-43 -226.5q0 -125 60 -189t164 -64zM583 1230l199 284h225l-260 -284h-164z" />
    <glyph glyph-name="uni01F6" unicode="&#x1f6;" horiz-adv-x="2140" 
d="M1482 -21q-143 0 -240.5 55t-140.5 153t-21 229l42 249h-741l-110 -665h-222l246 1490h222l-104 -631h740l105 631h222l-178 -1078q-41 -247 187 -247q122 0 202.5 70t101.5 192l103 629h212l-108 -655q-33 -196 -173 -309t-345 -113z" />
    <glyph glyph-name="uni01F7" unicode="&#x1f7;" horiz-adv-x="1305" 
d="M493 1489l-6 -36q58 27 127 41.5t153 14.5q273 0 407.5 -161.5t84.5 -462.5l-11 -63q-28 -175 -115.5 -331t-223.5 -285.5t-310 -222.5t-375 -141l-42 -260h-241l311 1907h241zM257 41q196 58 353.5 171t260.5 269t134 341l12 67q36 205 -30 315.5t-248 111.5
q-185 -1 -293 -117z" />
    <glyph glyph-name="uni01F8" unicode="&#x1f8;" horiz-adv-x="1465" 
d="M49 0l247 1490h236l424 -901q20 -42 54 -121t66 -160q11 82 23.5 167.5t19.5 127.5l147 887h223l-247 -1490h-235l-380 805q-24 51 -68.5 151.5t-99.5 231.5q-17 -136 -31.5 -233.5t-22.5 -148.5l-134 -806h-222zM838 1624l-162 303h226l100 -303h-164z" />
    <glyph glyph-name="uni01F9" unicode="&#x1f9;" horiz-adv-x="1146" 
d="M342 600l-99 -600h-211l174 1056h207l-24 -149q132 170 335 170q111 0 192.5 -49t118 -144t13.5 -233l-108 -651h-211l105 639q21 127 -27 188t-154 61q-112 0 -199.5 -70t-111.5 -218zM606 1190l-162 303h226l100 -303h-164z" />
    <glyph glyph-name="Aringacute" unicode="&#x1fa;" horiz-adv-x="1379" 
d="M-71 0l788 1490h268l290 -1490h-232l-68 387h-601l-200 -387h-245zM472 576h470l-47 264q-15 92 -31.5 197t-36.5 250q-69 -145 -120.5 -250t-97.5 -197zM880 1578q-109 0 -172 71.5t-46 173.5q16 92 94 155t176 63q108 0 171 -71.5t46 -173.5q-16 -92 -94 -155t-175 -63
zM888 1702q45 0 82 31.5t45 76.5q7 45 -19.5 76.5t-71.5 31.5q-46 0 -82.5 -31.5t-44.5 -76.5t18.5 -76.5t72.5 -31.5zM874 2100l178 189h205l-225 -189h-158z" />
    <glyph glyph-name="aringacute" unicode="&#x1fb;" horiz-adv-x="1179" 
d="M434 -21q-138 0 -229.5 69.5t-128 193t-10.5 286.5q27 163 105 286.5t192.5 193t250.5 69.5q103 0 183 -43t116 -130h2l26 152h206l-175 -1056h-206l26 159h-3q-68 -90 -160 -135t-195 -45zM506 161q135 0 232.5 100.5t124.5 266.5q28 167 -36 267.5t-199 100.5
q-127 0 -222.5 -94.5t-125.5 -273.5q-29 -179 35 -273t191 -94zM696 1144q-109 0 -172 71.5t-46 173.5q16 92 94 155t176 63q108 0 171 -71.5t46 -173.5q-16 -92 -94 -155t-175 -63zM704 1268q45 0 82 31.5t45 76.5q7 45 -19.5 76.5t-71.5 31.5q-46 0 -82.5 -31.5
t-44.5 -76.5t18.5 -76.5t72.5 -31.5zM690 1666l178 189h205l-225 -189h-158z" />
    <glyph glyph-name="AEacute" unicode="&#x1fc;" horiz-adv-x="1950" 
d="M-71 0l905 1490h1205l-33 -193h-712l-74 -452h654l-31 -188h-655l-77 -464h720l-32 -193h-939l70 422h-516l-253 -422h-232zM525 607h436l114 690h-136zM1384 1664l199 284h225l-260 -284h-164z" />
    <glyph glyph-name="aeacute" unicode="&#x1fd;" horiz-adv-x="1781" 
d="M363 -17q-178 0 -268 88.5t-64 239.5q47 292 446 294q38 0 72 -1.5t70 -3.5q31 -2 65.5 -3.5t74.5 -2.5l23 135q14 84 -35.5 129.5t-155.5 45.5q-101 0 -170.5 -46.5t-89.5 -125.5h-207q21 101 87.5 179t170 122t233.5 44q123 0 205 -40t121 -109q74 73 172.5 112.5
t215.5 39.5q170 0 278.5 -82t108.5 -233q0 -176 -195.5 -246t-574.5 -75q-2 -21 -2 -35q0 -129 55.5 -193t174.5 -64q111 0 189.5 49.5t111.5 125.5h211q-59 -167 -190 -259t-319 -92q-127 0 -220 46t-144 141q-68 -83 -179 -131.5t-271 -48.5zM969 591q212 3 329.5 24.5
t164.5 64t47 108.5q0 61 -47.5 88t-131.5 27q-150 0 -242 -83t-120 -229zM735 446q-22 1 -43.5 1.5t-43.5 1.5q-39 1 -77 2t-75 1q-101 0 -174 -30.5t-86 -111.5q-24 -157 169 -157q143 0 224.5 75t97.5 172zM885 1230l199 284h225l-260 -284h-164z" />
    <glyph glyph-name="Oslashacute" unicode="&#x1fe;" horiz-adv-x="1534" 
d="M687 -24q-176 0 -307 76.5t-203 215.5t-72 324q0 178 59 343t167 295.5t257 207t330 76.5q176 0 307 -76.5t203 -215.5t72 -326q0 -179 -59.5 -344t-168 -295t-257 -205.5t-328.5 -75.5zM697 179q133 0 240.5 61t184 164t117 231t40.5 261q0 202 -104 308.5t-266 106.5
q-134 0 -242 -61.5t-184 -165t-116.5 -231.5t-40.5 -260q0 -202 104 -308t267 -106zM111 -61l-124 122l1508 1490l123 -122zM857 1664l199 284h225l-260 -284h-164z" />
    <glyph glyph-name="oslashacute" unicode="&#x1ff;" horiz-adv-x="1145" 
d="M494 -24q-203 0 -319 122.5t-116 321.5q0 129 42.5 247.5t121 211.5t187.5 147t242 54q202 0 318 -123.5t116 -324.5q0 -127 -42 -245t-120 -210.5t-187 -146.5t-243 -54zM503 158q91 0 160.5 42t116.5 112t71 154.5t24 169.5q0 123 -61 192.5t-171 69.5
q-118 0 -201.5 -71.5t-127.5 -182t-44 -227.5q0 -122 61 -190.5t172 -68.5zM59 -47l-90 94l1117 1056l90 -94zM591 1230l199 284h225l-260 -284h-164z" />
    <glyph glyph-name="uni0200" unicode="&#x200;" horiz-adv-x="1379" 
d="M-71 0l788 1490h268l290 -1490h-232l-68 387h-601l-200 -387h-245zM472 576h470l-47 264q-15 92 -31.5 197t-36.5 250q-69 -145 -120.5 -250t-97.5 -197zM645 1624l-182 303h224l127 -303h-169zM954 1624l-128 303h218l74 -303h-164z" />
    <glyph glyph-name="uni0201" unicode="&#x201;" horiz-adv-x="1179" 
d="M434 -21q-138 0 -229.5 69.5t-128 193t-10.5 286.5q27 163 105 286.5t192.5 193t250.5 69.5q103 0 183 -43t116 -130h2l26 152h206l-175 -1056h-206l26 159h-3q-68 -90 -160 -135t-195 -45zM506 161q135 0 232.5 100.5t124.5 266.5q28 167 -36 267.5t-199 100.5
q-127 0 -222.5 -94.5t-125.5 -273.5q-29 -179 35 -273t191 -94zM461 1190l-182 303h224l127 -303h-169zM770 1190l-128 303h218l74 -303h-164z" />
    <glyph glyph-name="uni0202" unicode="&#x202;" horiz-adv-x="1379" 
d="M-71 0l788 1490h268l290 -1490h-232l-68 387h-601l-200 -387h-245zM472 576h470l-47 264q-15 92 -31.5 197t-36.5 250q-69 -145 -120.5 -250t-97.5 -197zM923 1927q135 0 206 -82.5t52 -200.5h-145q11 65 -27 106t-108 41t-121.5 -41t-62.5 -106h-145q13 79 62.5 143
t124.5 102t164 38z" />
    <glyph glyph-name="uni0203" unicode="&#x203;" horiz-adv-x="1179" 
d="M434 -21q-138 0 -229.5 69.5t-128 193t-10.5 286.5q27 163 105 286.5t192.5 193t250.5 69.5q103 0 183 -43t116 -130h2l26 152h206l-175 -1056h-206l26 159h-3q-68 -90 -160 -135t-195 -45zM506 161q135 0 232.5 100.5t124.5 266.5q28 167 -36 267.5t-199 100.5
q-127 0 -222.5 -94.5t-125.5 -273.5q-29 -179 35 -273t191 -94zM739 1493q135 0 206 -82.5t52 -200.5h-145q11 65 -27 106t-108 41t-121.5 -41t-62.5 -106h-145q13 79 62.5 143t124.5 102t164 38z" />
    <glyph glyph-name="uni0204" unicode="&#x204;" horiz-adv-x="1202" 
d="M49 0l247 1490h1002l-33 -195h-780l-72 -439h722l-32 -193h-722l-78 -468h780l-32 -195h-1002zM589 1624l-182 303h224l127 -303h-169zM898 1624l-128 303h218l74 -303h-164z" />
    <glyph glyph-name="uni0205" unicode="&#x205;" horiz-adv-x="1102" 
d="M493 -24q-199 0 -319 113.5t-112 355.5q5 192 84.5 335t213.5 221.5t302 78.5q166 0 271.5 -78.5t105.5 -226.5q0 -192 -194 -264.5t-575 -77.5q-2 -75 16.5 -139t70.5 -103t150 -39q109 0 184.5 47.5t108.5 123.5h206q-56 -155 -188 -251t-325 -96zM288 593
q215 2 333.5 22.5t165.5 59.5t47 97q0 61 -49.5 96t-144.5 35q-156 0 -239.5 -90.5t-112.5 -219.5zM450 1190l-182 303h224l127 -303h-169zM759 1190l-128 303h218l74 -303h-164z" />
    <glyph glyph-name="uni0206" unicode="&#x206;" horiz-adv-x="1202" 
d="M49 0l247 1490h1002l-33 -195h-780l-72 -439h722l-32 -193h-722l-78 -468h780l-32 -195h-1002zM868 1927q135 0 206 -82.5t52 -200.5h-145q11 65 -27 106t-108 41t-121.5 -41t-62.5 -106h-145q13 79 62.5 143t124.5 102t164 38z" />
    <glyph glyph-name="uni0207" unicode="&#x207;" horiz-adv-x="1102" 
d="M493 -24q-199 0 -319 113.5t-112 355.5q5 192 84.5 335t213.5 221.5t302 78.5q166 0 271.5 -78.5t105.5 -226.5q0 -192 -194 -264.5t-575 -77.5q-2 -75 16.5 -139t70.5 -103t150 -39q109 0 184.5 47.5t108.5 123.5h206q-56 -155 -188 -251t-325 -96zM288 593
q215 2 333.5 22.5t165.5 59.5t47 97q0 61 -49.5 96t-144.5 35q-156 0 -239.5 -90.5t-112.5 -219.5zM729 1493q135 0 206 -82.5t52 -200.5h-145q11 65 -27 106t-108 41t-121.5 -41t-62.5 -106h-145q13 79 62.5 143t124.5 102t164 38z" />
    <glyph glyph-name="uni0208" unicode="&#x208;" horiz-adv-x="495" 
d="M518 1490l-247 -1490h-222l247 1490h222zM200 1624l-182 303h224l127 -303h-169zM509 1624l-128 303h218l74 -303h-164z" />
    <glyph glyph-name="uni0209" unicode="&#x209;" horiz-adv-x="450" 
d="M32 0l175 1056h211l-175 -1056h-211zM105 1190l-182 303h224l127 -303h-169zM414 1190l-128 303h218l74 -303h-164z" />
    <glyph glyph-name="uni020A" unicode="&#x20a;" horiz-adv-x="495" 
d="M518 1490l-247 -1490h-222l247 1490h222zM478 1927q135 0 206 -82.5t52 -200.5h-145q11 65 -27 106t-108 41t-121.5 -41t-62.5 -106h-145q13 79 62.5 143t124.5 102t164 38z" />
    <glyph glyph-name="uni020B" unicode="&#x20b;" horiz-adv-x="450" 
d="M32 0l175 1056h211l-175 -1056h-211zM384 1493q135 0 206 -82.5t52 -200.5h-145q11 65 -27 106t-108 41t-121.5 -41t-62.5 -106h-145q13 79 62.5 143t124.5 102t164 38z" />
    <glyph glyph-name="uni020C" unicode="&#x20c;" horiz-adv-x="1534" 
d="M687 -24q-176 0 -307 76.5t-203 215.5t-72 324q0 178 59 343t167 295.5t257 207t330 76.5q176 0 307 -76.5t203 -215.5t72 -326q0 -179 -59.5 -344t-168 -295t-257 -205.5t-328.5 -75.5zM697 179q133 0 240.5 61t184 164t117 231t40.5 261q0 202 -104 308.5t-266 106.5
q-134 0 -242 -61.5t-184 -165t-116.5 -231.5t-40.5 -260q0 -202 104 -308t267 -106zM718 1624l-182 303h224l127 -303h-169zM1027 1624l-128 303h218l74 -303h-164z" />
    <glyph glyph-name="uni020D" unicode="&#x20d;" horiz-adv-x="1145" 
d="M494 -24q-203 0 -319 122.5t-116 321.5q0 129 42.5 247.5t121 211.5t187.5 147t242 54q202 0 318 -123.5t116 -324.5q0 -127 -42 -245t-120 -210.5t-187 -146.5t-243 -54zM503 158q91 0 160.5 42t116.5 112t71 154.5t24 169.5q0 123 -61 192.5t-171 69.5
q-118 0 -201.5 -71.5t-127.5 -182t-44 -227.5q0 -122 61 -190.5t172 -68.5zM452 1190l-182 303h224l127 -303h-169zM761 1190l-128 303h218l74 -303h-164z" />
    <glyph glyph-name="uni020E" unicode="&#x20e;" horiz-adv-x="1534" 
d="M687 -24q-176 0 -307 76.5t-203 215.5t-72 324q0 178 59 343t167 295.5t257 207t330 76.5q176 0 307 -76.5t203 -215.5t72 -326q0 -179 -59.5 -344t-168 -295t-257 -205.5t-328.5 -75.5zM697 179q133 0 240.5 61t184 164t117 231t40.5 261q0 202 -104 308.5t-266 106.5
q-134 0 -242 -61.5t-184 -165t-116.5 -231.5t-40.5 -260q0 -202 104 -308t267 -106zM997 1927q135 0 206 -82.5t52 -200.5h-145q11 65 -27 106t-108 41t-121.5 -41t-62.5 -106h-145q13 79 62.5 143t124.5 102t164 38z" />
    <glyph glyph-name="uni020F" unicode="&#x20f;" horiz-adv-x="1145" 
d="M494 -24q-203 0 -319 122.5t-116 321.5q0 129 42.5 247.5t121 211.5t187.5 147t242 54q202 0 318 -123.5t116 -324.5q0 -127 -42 -245t-120 -210.5t-187 -146.5t-243 -54zM503 158q91 0 160.5 42t116.5 112t71 154.5t24 169.5q0 123 -61 192.5t-171 69.5
q-118 0 -201.5 -71.5t-127.5 -182t-44 -227.5q0 -122 61 -190.5t172 -68.5zM731 1493q135 0 206 -82.5t52 -200.5h-145q11 65 -27 106t-108 41t-121.5 -41t-62.5 -106h-145q13 79 62.5 143t124.5 102t164 38z" />
    <glyph glyph-name="uni0210" unicode="&#x210;" horiz-adv-x="1307" 
d="M49 0l247 1490h561q239 0 361.5 -125t86.5 -339q-25 -156 -123.5 -265.5t-246.5 -159.5l223 -601h-232l-204 564h-28h-330l-93 -564h-222zM396 753h336q143 0 238 76.5t116 202.5t-50 196t-216 70h-334zM594 1624l-182 303h224l127 -303h-169zM903 1624l-128 303h218
l74 -303h-164z" />
    <glyph glyph-name="uni0211" unicode="&#x211;" horiz-adv-x="695" 
d="M32 0l175 1056h202l-28 -171h3q44 87 114.5 135.5t171.5 48.5q24 0 44 -2t32 -3l-32 -197q-12 3 -42.5 6.5t-67.5 3.5q-89 0 -162.5 -62t-94.5 -191l-104 -624h-211zM265 1190l-182 303h224l127 -303h-169zM574 1190l-128 303h218l74 -303h-164z" />
    <glyph glyph-name="uni0212" unicode="&#x212;" horiz-adv-x="1307" 
d="M49 0l247 1490h561q239 0 361.5 -125t86.5 -339q-25 -156 -123.5 -265.5t-246.5 -159.5l223 -601h-232l-204 564h-28h-330l-93 -564h-222zM396 753h336q143 0 238 76.5t116 202.5t-50 196t-216 70h-334zM872 1927q135 0 206 -82.5t52 -200.5h-145q11 65 -27 106t-108 41
t-121.5 -41t-62.5 -106h-145q13 79 62.5 143t124.5 102t164 38z" />
    <glyph glyph-name="uni0213" unicode="&#x213;" horiz-adv-x="695" 
d="M32 0l175 1056h202l-28 -171h3q44 87 114.5 135.5t171.5 48.5q24 0 44 -2t32 -3l-32 -197q-12 3 -42.5 6.5t-67.5 3.5q-89 0 -162.5 -62t-94.5 -191l-104 -624h-211zM544 1493q135 0 206 -82.5t52 -200.5h-145q11 65 -27 106t-108 41t-121.5 -41t-62.5 -106h-145
q13 79 62.5 143t124.5 102t164 38z" />
    <glyph glyph-name="uni0214" unicode="&#x214;" horiz-adv-x="1441" 
d="M641 -24q-182 0 -306 70.5t-179 193t-29 278.5l161 972h221l-160 -969q-26 -153 54 -248.5t247 -95.5q118 0 211.5 47t154 128t77.5 183l157 955h221l-164 -987q-26 -156 -117 -274.5t-232 -185.5t-317 -67zM672 1624l-182 303h224l127 -303h-169zM981 1624l-128 303h218
l74 -303h-164z" />
    <glyph glyph-name="uni0215" unicode="&#x215;" horiz-adv-x="1147" 
d="M411 -21q-109 0 -188 47.5t-114 140.5t-12 231l110 658h211l-105 -632q-21 -127 29.5 -191.5t160.5 -64.5q107 0 191.5 66.5t109.5 213.5l100 608h211l-175 -1056h-207l26 158q-138 -179 -348 -179zM454 1190l-182 303h224l127 -303h-169zM763 1190l-128 303h218l74 -303
h-164z" />
    <glyph glyph-name="uni0216" unicode="&#x216;" horiz-adv-x="1441" 
d="M641 -24q-182 0 -306 70.5t-179 193t-29 278.5l161 972h221l-160 -969q-26 -153 54 -248.5t247 -95.5q118 0 211.5 47t154 128t77.5 183l157 955h221l-164 -987q-26 -156 -117 -274.5t-232 -185.5t-317 -67zM951 1927q135 0 206 -82.5t52 -200.5h-145q11 65 -27 106
t-108 41t-121.5 -41t-62.5 -106h-145q13 79 62.5 143t124.5 102t164 38z" />
    <glyph glyph-name="uni0217" unicode="&#x217;" horiz-adv-x="1147" 
d="M411 -21q-109 0 -188 47.5t-114 140.5t-12 231l110 658h211l-105 -632q-21 -127 29.5 -191.5t160.5 -64.5q107 0 191.5 66.5t109.5 213.5l100 608h211l-175 -1056h-207l26 158q-138 -179 -348 -179zM732 1493q135 0 206 -82.5t52 -200.5h-145q11 65 -27 106t-108 41
t-121.5 -41t-62.5 -106h-145q13 79 62.5 143t124.5 102t164 38z" />
    <glyph glyph-name="uni0218" unicode="&#x218;" horiz-adv-x="1285" 
d="M572 -24q-271 0 -406.5 136t-96.5 371h220q-24 -147 54 -230t241 -83q155 0 260.5 67.5t124.5 179.5q14 83 -40 135.5t-203 89.5l-158 40q-217 54 -306.5 152.5t-62.5 258.5q21 127 101 222t205 147t282 52q245 0 371 -126t96 -344h-213q12 129 -59 202.5t-210 73.5
q-137 0 -237 -67.5t-117 -171.5q-13 -78 41.5 -126t201.5 -85l155 -39q215 -54 307.5 -157t65.5 -268q-22 -131 -105 -227.5t-214 -149.5t-298 -53zM290 -489l145 371h210l-197 -371h-158z" />
    <glyph glyph-name="uni0219" unicode="&#x219;" horiz-adv-x="1004" 
d="M430 -25q-173 0 -285 78t-112 231v18.5t2 18.5h208q-11 -178 189 -178q67 0 125 21.5t93.5 60.5t35.5 92q0 42 -33 67t-92 39l-169 38q-263 61 -263 262q0 108 61 188t163 124t224 44q166 0 269 -78.5t103 -215.5q0 -12 -1 -25t-3 -26h-202q12 83 -36.5 130.5
t-133.5 47.5q-101 0 -167 -52t-66 -122q0 -79 126 -108l173 -40q261 -60 261 -249q0 -114 -64.5 -196t-171.5 -126t-234 -44zM147 -489l145 371h210l-197 -371h-158z" />
    <glyph glyph-name="uni021A.1" unicode="&#x21a;" horiz-adv-x="1268" 
d="M175 1295l33 195h1171l-33 -195h-473l-214 -1295h-223l214 1295h-475zM278 -489l145 371h210l-197 -371h-158z" />
    <glyph glyph-name="uni021B" unicode="&#x21b;" horiz-adv-x="677" 
d="M715 1056l-28 -174h-215l-99 -603q-10 -59 10.5 -82t83.5 -23h103l-29 -174h-133q-293 0 -251 252l104 630h-187l29 174h187l47 288h212l-48 -288h214zM49 -489l145 371h210l-197 -371h-158z" />
    <glyph glyph-name="uni021C" unicode="&#x21c;" horiz-adv-x="1258" 
d="M162 332l30 176q246 70 414 146t261.5 172.5t115.5 227.5q20 127 -42.5 194.5t-194.5 67.5q-130 0 -213.5 -59t-98.5 -154h-239q20 123 100.5 214.5t205.5 142t277 50.5q150 0 259 -49.5t160 -145t28 -235.5q-17 -106 -73.5 -199.5t-146.5 -174.5q78 -52 110 -144.5
t9 -229.5q-28 -174 -120 -302t-236.5 -218t-330.5 -150t-402 -98l32 192q234 45 407 115.5t277.5 184.5t133.5 289q30 177 -43 240q-134 -82 -306 -145.5t-374 -107.5z" />
    <glyph glyph-name="uni021D" unicode="&#x21d;" horiz-adv-x="1070" 
d="M135 194l29 169q544 136 589 413q14 85 -28 130t-132 45q-93 0 -153 -47t-74 -127h-230q27 163 154 259t330 96q192 0 293 -91t74 -251q-26 -161 -175 -296q131 -99 95 -313q-83 -500 -875 -617l29 177q203 49 332 111t196.5 145.5t87.5 197.5q19 116 -23 185
q-103 -61 -234 -108t-285 -78z" />
    <glyph glyph-name="uni021E" unicode="&#x21e;" horiz-adv-x="1458" 
d="M49 0l247 1490h222l-104 -631h740l105 631h222l-247 -1490h-222l110 665h-741l-110 -665h-222zM820 1927l111 -173l168 173h192v-1l-285 -282h-189l-187 282v1h190z" />
    <glyph glyph-name="uni021F" unicode="&#x21f;" horiz-adv-x="1147" 
d="M344 608l-101 -608h-211l247 1490h211l-97 -584q133 171 334 171q108 0 189.5 -47.5t119 -140.5t14.5 -231l-110 -658h-211l105 632q21 127 -29.5 191.5t-160.5 64.5q-107 0 -191.5 -66.5t-108.5 -213.5zM317 1927l111 -173l168 173h192v-1l-285 -282h-189l-187 282v1
h190z" />
    <glyph glyph-name="uni0220" unicode="&#x220;" horiz-adv-x="1259" 
d="M1006 -416h-234l238 1447q47 289 -265 290q-158 -1 -306 -81l-206 -1240h-230l248 1490h230l-10 -61q70 35 153.5 58t175.5 23q138 0 248.5 -54t165.5 -160.5t28 -264.5z" />
    <glyph glyph-name="uni0221" unicode="&#x221;" horiz-adv-x="1499" 
d="M1031 -418q-123 0 -189.5 48.5t-88.5 123.5l-176 -145l-98 134l278 227l30 182q-68 -92 -156 -132.5t-185 -40.5q-182 0 -285 118t-103 313q0 124 37 242.5t107.5 214.5t171.5 153t228 57q107 0 189 -46.5t118 -134.5h1l98 594h211l-230 -1392q71 21 137 21
q136 0 210 -75.5t54 -198.5q-20 -120 -116 -191.5t-243 -71.5zM494 161q117 0 202.5 70t131.5 178.5t46 223.5q0 122 -61.5 192.5t-172.5 70.5q-119 0 -201.5 -71t-126 -181.5t-43.5 -228.5q0 -125 60.5 -189.5t164.5 -64.5zM959 -85l-6 -35q-11 -68 21.5 -103t84.5 -35
q48 0 83.5 30t43.5 76q7 43 -14.5 71.5t-66.5 33.5q-37 5 -72.5 -5t-73.5 -33z" />
    <glyph glyph-name="uni0222" unicode="&#x222;" horiz-adv-x="1258" 
d="M668 914h38q87 0 160 15t122 60t64 136q14 87 -20.5 134t-114.5 67l30 184q117 -4 202.5 -47.5t124.5 -127.5t19 -210q-20 -121 -85.5 -199t-161.5 -122q81 -56 117.5 -146t16.5 -213q-26 -154 -116 -257.5t-225 -155.5t-294 -52h-23q-160 0 -277.5 52t-173 155
t-30.5 256q20 123 86.5 214t165.5 147q-81 44 -120 122t-20 199q21 126 88.5 210t167.5 127.5t217 47.5l-31 -184q-87 -20 -136.5 -67t-64.5 -134q-15 -91 19 -136.5t101.5 -60t153.5 -14.5zM668 717h-24q-144 0 -241.5 -68.5t-120.5 -205.5q-24 -138 52 -203t220 -64h23
q144 -1 241.5 64t120.5 205q21 136 -53.5 204t-217.5 68z" />
    <glyph glyph-name="uni0223" unicode="&#x223;" horiz-adv-x="1258" 
d="M705 902q88 0 163 21t125 73t65 146q18 100 -18.5 154.5t-114.5 85.5l29 174q114 -3 197.5 -51t122 -139t16.5 -222q-21 -127 -88.5 -210t-165.5 -130q83 -54 121 -144.5t17 -216.5q-26 -155 -115.5 -258t-223 -154t-290.5 -51h-24q-157 0 -274 51t-173 153.5t-30 256.5
q21 127 89 217.5t169 145.5q-83 47 -123 130t-20 210q22 131 91 221.5t168.5 139t214.5 51.5l-30 -174q-85 -31 -139 -85.5t-71 -154.5q-15 -94 18.5 -146.5t101.5 -73t154 -20.5h38zM667 717h-22q-146 -1 -246 -70.5t-123 -205.5q-21 -136 54.5 -205.5t221.5 -69.5h23
q145 0 245 69.5t122 207.5q22 134 -54 203.5t-221 70.5z" />
    <glyph glyph-name="uni0224" unicode="&#x224;" horiz-adv-x="1248" 
d="M564 -418l31 186h106q60 0 88 22.5t37 73.5l22 136h-839l25 147l969 1153h-785l32 190h1061l-24 -149l-971 -1151h786l-31 -190l-24 -146q-46 -272 -354 -272h-129z" />
    <glyph glyph-name="uni0225" unicode="&#x225;" horiz-adv-x="1010" 
d="M726 -208l6 39q11 70 -7.5 119.5t-99.5 49.5h-617l25 153l679 720l1 4h-560l30 179h815l-27 -160l-670 -713l-1 -4h363q149 0 216.5 -87t44.5 -227l-12 -73h-186z" />
    <glyph glyph-name="uni0226" unicode="&#x226;" horiz-adv-x="1379" 
d="M-71 0l788 1490h268l290 -1490h-232l-68 387h-601l-200 -387h-245zM472 576h470l-47 264q-15 92 -31.5 197t-36.5 250q-69 -145 -120.5 -250t-97.5 -197zM882 1675q-54 0 -86.5 38t-23.5 92t53.5 92t99.5 38t87.5 -38t23.5 -92t-54 -92t-100 -38z" />
    <glyph glyph-name="uni0227" unicode="&#x227;" horiz-adv-x="1179" 
d="M434 -21q-138 0 -229.5 69.5t-128 193t-10.5 286.5q27 163 105 286.5t192.5 193t250.5 69.5q103 0 183 -43t116 -130h2l26 152h206l-175 -1056h-206l26 159h-3q-68 -90 -160 -135t-195 -45zM506 161q135 0 232.5 100.5t124.5 266.5q28 167 -36 267.5t-199 100.5
q-127 0 -222.5 -94.5t-125.5 -273.5q-29 -179 35 -273t191 -94zM698 1241q-54 0 -86.5 38t-23.5 92t53.5 92t99.5 38t87.5 -38t23.5 -92t-54 -92t-100 -38z" />
    <glyph glyph-name="uni0228" unicode="&#x228;" horiz-adv-x="1202" 
d="M49 0l247 1490h1002l-33 -195h-780l-72 -439h722l-32 -193h-722l-78 -468h780l-32 -195h-1002zM373 -418l18 110h117q96 0 106 64q11 64 -85 64h-81l70 227h101l-8 -47l-14 -84q87 -3 130 -47.5t31 -115.5q-15 -88 -84.5 -129.5t-176.5 -41.5h-124z" />
    <glyph glyph-name="uni0229" unicode="&#x229;" horiz-adv-x="1102" 
d="M493 -24q-199 0 -319 113.5t-112 355.5q5 192 84.5 335t213.5 221.5t302 78.5q166 0 271.5 -78.5t105.5 -226.5q0 -192 -194 -264.5t-575 -77.5q-2 -75 16.5 -139t70.5 -103t150 -39q109 0 184.5 47.5t108.5 123.5h206q-56 -155 -188 -251t-325 -96zM288 593
q215 2 333.5 22.5t165.5 59.5t47 97q0 61 -49.5 96t-144.5 35q-156 0 -239.5 -90.5t-112.5 -219.5zM313 -418l18 110h117q96 0 106 64q11 64 -85 64h-81l70 227h101l-8 -47l-14 -84q87 -3 130 -47.5t31 -115.5q-15 -88 -84.5 -129.5t-176.5 -41.5h-124z" />
    <glyph glyph-name="uni022A" unicode="&#x22a;" horiz-adv-x="1534" 
d="M687 -24q-176 0 -307 76.5t-203 215.5t-72 324q0 178 59 343t167 295.5t257 207t330 76.5q176 0 307 -76.5t203 -215.5t72 -326q0 -179 -59.5 -344t-168 -295t-257 -205.5t-328.5 -75.5zM697 179q133 0 240.5 61t184 164t117 231t40.5 261q0 202 -104 308.5t-266 106.5
q-134 0 -242 -61.5t-184 -165t-116.5 -231.5t-40.5 -260q0 -202 104 -308t267 -106zM1338 2143l-26 -141h-561l26 141h561zM726 1632q-55 0 -87 37t-23 92q9 54 53 91.5t99 37.5q56 0 88 -37.5t23 -91.5q-9 -55 -53.5 -92t-99.5 -37zM1153 1632q-55 0 -87 37t-23 92
q9 54 53 91.5t100 37.5q55 0 87 -37.5t23 -91.5q-9 -55 -53.5 -92t-99.5 -37z" />
    <glyph glyph-name="uni022B" unicode="&#x22b;" horiz-adv-x="1145" 
d="M494 -24q-203 0 -319 122.5t-116 321.5q0 129 42.5 247.5t121 211.5t187.5 147t242 54q202 0 318 -123.5t116 -324.5q0 -127 -42 -245t-120 -210.5t-187 -146.5t-243 -54zM503 158q91 0 160.5 42t116.5 112t71 154.5t24 169.5q0 123 -61 192.5t-171 69.5
q-118 0 -201.5 -71.5t-127.5 -182t-44 -227.5q0 -122 61 -190.5t172 -68.5zM1072 1709l-26 -141h-561l26 141h561zM460 1198q-55 0 -87 37t-23 92q9 54 53 91.5t99 37.5q56 0 88 -37.5t23 -91.5q-9 -55 -53.5 -92t-99.5 -37zM887 1198q-55 0 -87 37t-23 92q9 54 53 91.5
t100 37.5q55 0 87 -37.5t23 -91.5q-9 -55 -53.5 -92t-99.5 -37z" />
    <glyph glyph-name="uni022C" unicode="&#x22c;" horiz-adv-x="1534" 
d="M687 -24q-176 0 -307 76.5t-203 215.5t-72 324q0 178 59 343t167 295.5t257 207t330 76.5q176 0 307 -76.5t203 -215.5t72 -326q0 -179 -59.5 -344t-168 -295t-257 -205.5t-328.5 -75.5zM697 179q133 0 240.5 61t184 164t117 231t40.5 261q0 202 -104 308.5t-266 106.5
q-134 0 -242 -61.5t-184 -165t-116.5 -231.5t-40.5 -260q0 -202 104 -308t267 -106zM1083 1639q-53 0 -95 22t-75.5 44t-60.5 22q-28 0 -45.5 -25.5t-24.5 -58.5h-137q20 101 74 162.5t138 61.5q55 0 94 -22.5t71 -45t65 -22.5q50 0 73 85h133q-20 -103 -76 -163t-134 -60z
M1337 2143l-26 -141h-560l26 141h560z" />
    <glyph glyph-name="uni022D" unicode="&#x22d;" horiz-adv-x="1145" 
d="M494 -24q-203 0 -319 122.5t-116 321.5q0 129 42.5 247.5t121 211.5t187.5 147t242 54q202 0 318 -123.5t116 -324.5q0 -127 -42 -245t-120 -210.5t-187 -146.5t-243 -54zM503 158q91 0 160.5 42t116.5 112t71 154.5t24 169.5q0 123 -61 192.5t-171 69.5
q-118 0 -201.5 -71.5t-127.5 -182t-44 -227.5q0 -122 61 -190.5t172 -68.5zM817 1205q-53 0 -95 22t-75.5 44t-60.5 22q-28 0 -45.5 -25.5t-24.5 -58.5h-137q20 101 74 162.5t138 61.5q55 0 94 -22.5t71 -45t65 -22.5q50 0 73 85h133q-20 -103 -76 -163t-134 -60zM1071 1709
l-26 -141h-560l26 141h560z" />
    <glyph glyph-name="uni022E" unicode="&#x22e;" horiz-adv-x="1534" 
d="M687 -24q-176 0 -307 76.5t-203 215.5t-72 324q0 178 59 343t167 295.5t257 207t330 76.5q176 0 307 -76.5t203 -215.5t72 -326q0 -179 -59.5 -344t-168 -295t-257 -205.5t-328.5 -75.5zM697 179q133 0 240.5 61t184 164t117 231t40.5 261q0 202 -104 308.5t-266 106.5
q-134 0 -242 -61.5t-184 -165t-116.5 -231.5t-40.5 -260q0 -202 104 -308t267 -106zM955 1675q-54 0 -86.5 38t-23.5 92t53.5 92t99.5 38t87.5 -38t23.5 -92t-54 -92t-100 -38z" />
    <glyph glyph-name="uni022F" unicode="&#x22f;" horiz-adv-x="1145" 
d="M494 -24q-203 0 -319 122.5t-116 321.5q0 129 42.5 247.5t121 211.5t187.5 147t242 54q202 0 318 -123.5t116 -324.5q0 -127 -42 -245t-120 -210.5t-187 -146.5t-243 -54zM503 158q91 0 160.5 42t116.5 112t71 154.5t24 169.5q0 123 -61 192.5t-171 69.5
q-118 0 -201.5 -71.5t-127.5 -182t-44 -227.5q0 -122 61 -190.5t172 -68.5zM690 1241q-54 0 -86.5 38t-23.5 92t53.5 92t99.5 38t87.5 -38t23.5 -92t-54 -92t-100 -38z" />
    <glyph glyph-name="uni0230" unicode="&#x230;" horiz-adv-x="1534" 
d="M687 -24q-176 0 -307 76.5t-203 215.5t-72 324q0 178 59 343t167 295.5t257 207t330 76.5q176 0 307 -76.5t203 -215.5t72 -326q0 -179 -59.5 -344t-168 -295t-257 -205.5t-328.5 -75.5zM697 179q133 0 240.5 61t184 164t117 231t40.5 261q0 202 -104 308.5t-266 106.5
q-134 0 -242 -61.5t-184 -165t-116.5 -231.5t-40.5 -260q0 -202 104 -308t267 -106zM1338 2143l-26 -141h-561l26 141h561zM949 1634q-55 0 -87 38t-23 92t53.5 92t99.5 38t87.5 -38t23.5 -92t-54 -92t-100 -38z" />
    <glyph glyph-name="uni0231" unicode="&#x231;" horiz-adv-x="1145" 
d="M494 -24q-203 0 -319 122.5t-116 321.5q0 129 42.5 247.5t121 211.5t187.5 147t242 54q202 0 318 -123.5t116 -324.5q0 -127 -42 -245t-120 -210.5t-187 -146.5t-243 -54zM503 158q91 0 160.5 42t116.5 112t71 154.5t24 169.5q0 123 -61 192.5t-171 69.5
q-118 0 -201.5 -71.5t-127.5 -182t-44 -227.5q0 -122 61 -190.5t172 -68.5zM1072 1709l-26 -141h-561l26 141h561zM683 1200q-55 0 -87 38t-23 92t53.5 92t99.5 38t87.5 -38t23.5 -92t-54 -92t-100 -38z" />
    <glyph glyph-name="uni0232" unicode="&#x232;" horiz-adv-x="1348" 
d="M478 0l98 595l-401 895h243l206 -470q23 -52 44 -104l42 -104q37 52 75.5 104t78.5 104l359 470h268l-695 -895l-98 -595h-220zM1173 1854l-26 -157h-560l26 157h560z" />
    <glyph glyph-name="uni0233" unicode="&#x233;" horiz-adv-x="1077" 
d="M-24 -418l29 178h114q50 0 86.5 29t70.5 93l69 125l-234 1049h216l115 -579q23 -119 42 -236q29 59 59 118l60 118l305 579h232l-685 -1241q-62 -112 -151.5 -172.5t-193.5 -60.5h-134zM953 1420l-26 -157h-560l26 157h560z" />
    <glyph glyph-name="uni0234" unicode="&#x234;" horiz-adv-x="770" 
d="M301 -418q-123 0 -189.5 48.5t-88.5 123.5l-176 -145l-98 134l278 227l5 30v0l5 31l33 204h1l208 1255h211l-231 -1392q71 21 137 21q136 0 210 -75.5t54 -198.5q-19 -120 -115.5 -191.5t-243.5 -71.5zM229 -85l-6 -35q-11 -68 21.5 -103t84.5 -35q48 0 83.5 30t43.5 76
q7 43 -14.5 71.5t-66.5 33.5q-37 5 -72.5 -5t-73.5 -33z" />
    <glyph glyph-name="uni0235" unicode="&#x235;" horiz-adv-x="1466" 
d="M998 -418q-123 0 -189.5 48.5t-88.5 123.5l-176 -145l-98 134l278 227l5 30v0l17 100l22 135v0l66 404q21 127 -27 188t-154 61q-112 0 -199.5 -70t-111.5 -218l-99 -600h-211l174 1056h207l-24 -149q132 170 335 170q111 0 192.5 -49t118 -144t13.5 -233l-91 -553
q71 21 136 21q136 0 210.5 -75.5t54.5 -198.5q-20 -120 -116 -191.5t-244 -71.5zM926 -85l-6 -35q-11 -68 22 -103t84 -35q49 0 84 30t43 76q8 43 -13.5 71.5t-67.5 33.5q-37 5 -72.5 -5t-73.5 -33z" />
    <glyph glyph-name="uni0236" unicode="&#x236;" horiz-adv-x="857" 
d="M418 -18q-123 0 -189 48.5t-88 122.5l-176 -144l-98 133l278 228l5 30v0l7 47l31 187v0l41 248h-155l29 174h155l48 288h211l-48 -288h216l-29 -174h-215l-64 -384q71 21 137 21q136 0 210 -76t54 -199q-20 -119 -116 -190.5t-244 -71.5zM347 315l-6 -36
q-11 -67 21.5 -102t84.5 -35q48 0 83.5 29.5t43.5 75.5q7 43 -14.5 71.5t-66.5 34.5q-37 5 -72.5 -5t-73.5 -33z" />
    <glyph glyph-name="uni0237" unicode="&#x237;" horiz-adv-x="450" 
d="M206 1056h212l-197 -1184q-21 -129 -112 -209.5t-239 -80.5h-88l29 178h61q63 0 97 33t46 107z" />
    <glyph glyph-name="uni0238" unicode="&#x238;" horiz-adv-x="1820" 
d="M1743 564l-3 -20q-27 -165 -101 -292t-184.5 -199.5t-246.5 -72.5q-88 0 -151.5 31t-105.5 89l-17 -100h-210l7 113q-63 -64 -141 -98.5t-171 -34.5q-135 0 -220.5 72.5t-117.5 199.5t-5 292l4 20q24 172 97.5 300t184.5 198t246 70q90 0 154.5 -31.5t106.5 -90.5l80 480
h233l-79 -478q61 58 136.5 89t165.5 31q201 0 288 -155t50 -413zM1508 544l3 20q17 107 6 192.5t-59 135.5t-142 50q-80 0 -142 -37.5t-106 -100.5l-81 -487q22 -67 71 -107t133 -40q95 0 160 49.5t103.5 134.5t53.5 190zM312 564l-2 -20q-15 -105 -5.5 -190t55.5 -134.5
t141 -49.5q84 0 146 39.5t107 106.5l80 486q-22 64 -71 102t-130 38q-95 0 -159.5 -50t-104 -135.5t-57.5 -192.5z" />
    <glyph glyph-name="uni0239" unicode="&#x239;" horiz-adv-x="1820" 
d="M634 -416l85 518q-61 -59 -136 -90.5t-164 -31.5q-135 0 -220.5 72.5t-117.5 199.5t-5 292l4 20q27 172 100 299.5t183 198t245 70.5q94 0 160.5 -34.5t108.5 -99.5l33 120h191l-9 -117q63 63 141 97t172 34q201 0 289 -155t49 -413l-3 -20q-27 -165 -101 -292.5
t-184.5 -199.5t-246.5 -72q-87 0 -151 31t-106 89l-85 -516h-232zM1508 544l3 20q17 107 6 192.5t-59 135.5t-142 50q-82 0 -144 -38.5t-106 -103.5l-79 -484q22 -67 71 -106.5t133 -39.5q95 0 159.5 49.5t103 134.5t54.5 190zM312 564l-2 -20q-16 -105 -6.5 -190t56 -134.5
t141.5 -49.5q85 0 147 40.5t107 109.5l80 483q-23 63 -72.5 101t-129.5 38q-95 0 -159.5 -50t-104 -135.5t-57.5 -192.5z" />
    <glyph glyph-name="uni023A" unicode="&#x23a;" horiz-adv-x="1379" 
d="M1303 1678l-257 -501l229 -1177h-232l-68 387h-332l-295 -577h-151l295 577h-118l-200 -387h-245l788 1490h268l20 -101l148 289h150zM589 576l266 520q-7 42 -14 89.5t-14 101.5q-69 -145 -120.5 -250t-97.5 -197l-137 -264h117zM890 871l-151 -295h203l-47 264
q-2 17 -5 31z" />
    <glyph glyph-name="uni023B" unicode="&#x23b;" horiz-adv-x="1484" 
d="M202 -190l137 270q-111 79 -172.5 210t-61.5 300q0 181 59 346.5t167.5 296t260 206t336.5 75.5q71 0 137 -13l90 177h174l-116 -226q125 -62 196.5 -179.5t71.5 -278.5h-224q-10 186 -141 267l-543 -1063q61 -19 135 -19q156 0 280.5 82t184.5 233h226
q-52 -158 -157 -274.5t-245 -180t-300 -63.5q-119 0 -220 34l-102 -200h-173zM439 276l528 1033q-23 2 -47 2q-139 0 -249 -61t-187 -164.5t-117.5 -231.5t-40.5 -261q0 -207 113 -317z" />
    <glyph glyph-name="uni023C" unicode="&#x23c;" horiz-adv-x="1092" 
d="M-34 -418l256 474q-78 58 -121 150t-43 210q0 125 41.5 243.5t119 213.5t187 151t244.5 56q61 0 116 -12l228 422h150l-253 -471q84 -50 129.5 -134t39.5 -190h-210q-1 45 -13.5 83.5t-39.5 65.5l-365 -678q31 -8 67 -8q110 0 184 56.5t110 147.5h213
q-31 -111 -104.5 -198t-179 -137.5t-231.5 -50.5q-80 0 -150 21l-223 -415h-152zM320 238l354 659q-14 1 -29 1q-119 0 -202.5 -70.5t-127.5 -181t-44 -228.5q0 -113 49 -180z" />
    <glyph glyph-name="uni023D" unicode="&#x23d;" horiz-adv-x="1189" 
d="M128 0l247 1490h222l-215 -1295h704l-31 -195h-927zM39 656l29 178h836l-30 -178h-835z" />
    <glyph glyph-name="uni023E" unicode="&#x23e;" horiz-adv-x="1268" 
d="M129 -190l407 796l114 689h-475l33 195h780l96 188h172l-96 -188h219l-33 -195h-285l-278 -545l-124 -750h-223l18 106l-152 -296h-173zM865 1249l24 46h-16z" />
    <glyph glyph-name="uni023F" unicode="&#x23f;" horiz-adv-x="1037" 
d="M430 -25q-57 0 -109 9q40 -97 68.5 -148.5t53.5 -70.5t54 -19q47 1 91 25t74 48l53 -130q-44 -36 -111 -72t-137 -35q-108 -1 -168.5 68t-104.5 178l-122 304q-39 65 -39 152v18.5t2 18.5h208q-11 -178 189 -178q67 0 125 21.5t93.5 60.5t35.5 92q0 42 -33 67t-92 39
l-169 38q-263 61 -263 262q0 108 61 188t163 124t224 44q166 0 269 -78.5t103 -215.5q0 -12 -1 -25t-3 -26h-202q12 83 -36.5 130.5t-133.5 47.5q-101 0 -167 -52t-66 -122q0 -79 126 -108l173 -40q261 -60 261 -249q0 -114 -64.5 -196t-171.5 -126t-234 -44z" />
    <glyph glyph-name="uni0240" unicode="&#x240;" horiz-adv-x="1010" 
d="M8 0l25 153l679 720l1 4h-560l30 179h815l-27 -160l-670 -713v-4h62q97 0 158.5 -19.5t105 -70.5t87.5 -145q36 -77 59.5 -116t44.5 -53t50 -14q51 0 111 31l57 -157q-47 -25 -98.5 -39t-99.5 -14q-92 0 -160.5 60.5t-130.5 205.5q-34 67 -60.5 99.5t-63.5 42.5t-102 10
h-313z" />
    <glyph glyph-name="uni0241" unicode="&#x241;" horiz-adv-x="1069" 
d="M434 472h63q104 0 168.5 48.5t99 126.5t49.5 167l25 151q14 82 5 161.5t-57.5 131.5t-152.5 52t-173 -61t-90 -157h-227q23 121 96.5 215.5t183 148.5t240.5 54q168 0 268 -75t136.5 -199t11.5 -271l-25 -151q-21 -125 -80.5 -234.5t-155 -187t-223.5 -105.5l-48 -287
h-241l79 472h48z" />
    <glyph glyph-name="uni0242" unicode="&#x242;" horiz-adv-x="1070" 
d="M129 698q34 206 167 320t326 114q194 0 296 -109t68 -314q-24 -148 -111 -249.5t-251 -128.5l-55 -331h-233l76 461h100q110 0 167 64.5t75 173.5q18 108 -16 178t-137 70q-98 0 -159 -66.5t-81 -182.5h-232z" />
    <glyph glyph-name="uni0243" unicode="&#x243;" horiz-adv-x="1311" 
d="M49 0l246 1490h551q230 0 343.5 -111t83.5 -294q-21 -124 -101 -200.5t-202 -111.5v-1q126 -20 201 -111.5t48 -255.5q-30 -185 -178 -295t-412 -110h-580zM300 187h335q152 0 247 62.5t114 179.5q18 110 -49.5 173t-215.5 63h-352zM409 848h330q127 0 211 64t102 172
q17 102 -43 160.5t-186 58.5h-338zM-63 353l24 146h628l-24 -146h-628z" />
    <glyph glyph-name="uni0244" unicode="&#x244;" horiz-adv-x="1471" 
d="M1562 859l-23 -138h-185l-36 -218q-26 -156 -117 -274.5t-232 -185.5t-317 -67q-182 0 -306 70.5t-179 193t-29 278.5l34 203h-176l23 138h176l104 631h221l-104 -631h741l104 631h221l-105 -631h185zM1134 721h-741l-33 -200q-25 -153 54.5 -248.5t246.5 -95.5
q118 0 211.5 47t154 128t77.5 183z" />
    <glyph glyph-name="uni0245" unicode="&#x245;" horiz-adv-x="1445" 
d="M1012 0l-187 1182l-577 -1182h-264l778 1490h227l289 -1490h-266z" />
    <glyph glyph-name="uni0246" unicode="&#x246;" horiz-adv-x="1202" 
d="M174 -190l86 190h-211l247 1490h642l85 188h164l-85 -188h196l-33 -195h-251l-200 -439h321l-32 -193h-376l-213 -468h569l-32 -195h-625l-86 -190h-166zM649 856l200 439h-364l-72 -439h236zM349 195l213 468h-181l-78 -468h46z" />
    <glyph glyph-name="uni0247" unicode="&#x247;" horiz-adv-x="1102" 
d="M-26 -418l254 463q-82 54 -126.5 153.5t-39.5 246.5q5 192 84.5 335t213.5 221.5t302 78.5q68 0 127 -13l232 423h135l-256 -466q65 -38 102 -100.5t37 -148.5q0 -147 -114 -222t-339 -102l-159 -290q36 -9 80 -9q109 0 184.5 47.5t108.5 123.5h206q-56 -155 -188 -251
t-325 -96q-86 0 -156 20l-227 -414h-136zM535 605l162 294q-26 4 -57 4q-156 0 -239.5 -90.5t-112.5 -219.5q146 2 247 12zM325 221l119 218q-79 -5 -174 -6q-2 -62 9.5 -117.5t45.5 -94.5zM805 850l-121 -221q84 22 117 58t33 85q0 47 -29 78z" />
    <glyph glyph-name="uni0248" unicode="&#x248;" horiz-adv-x="1197" 
d="M451 -21q-182 0 -293.5 93.5t-111.5 268.5q0 21 4 55.5t18 123.5h217q-13 -83 -16.5 -110.5t-3.5 -42.5q0 -95 51.5 -145t144.5 -50q108 0 186 67t99 193l176 1058h223l-176 -1059q-36 -218 -173.5 -335t-344.5 -117zM606 811l24 146h628l-24 -146h-628z" />
    <glyph glyph-name="uni0249" unicode="&#x249;" horiz-adv-x="449" 
d="M206 1056h212l-197 -1184q-21 -129 -112 -209.5t-239 -80.5h-88l29 178h61q63 0 97 33t46 107zM-109 576l27 158h680l-27 -158h-680zM342 1241q-54 0 -86.5 38t-23.5 92t53.5 92t99.5 38t87.5 -38t23.5 -92t-54 -92t-100 -38z" />
    <glyph glyph-name="Q_rthook" unicode="&#x24a;" horiz-adv-x="1537" 
d="M1560 1490l-247 -1490l-23 -142q-9 -52 11.5 -75t80.5 -23h107l-30 -178h-120q-306 0 -261 272l24 146l38 230h-2q-75 -117 -208.5 -185t-288.5 -68q-188 0 -318.5 99.5t-186 273t-19.5 395.5q28 166 99.5 306.5t176.5 244t233.5 160.5t269.5 57q152 0 264.5 -67
t148.5 -181h2l38 225h211zM692 178q133 0 244 70t186.5 197.5t104.5 299.5q43 261 -50.5 414t-295.5 153q-133 0 -246 -71.5t-191 -199.5t-106 -296q-28 -170 7 -297.5t124 -198.5t223 -71z" />
    <glyph glyph-name="qrthook" unicode="&#x24b;" horiz-adv-x="1179" 
d="M997 -418q-303 0 -258 272l50 305q-68 -90 -160 -135t-195 -45q-138 0 -229.5 69.5t-128 193t-10.5 286.5q27 163 105 286.5t192.5 193t250.5 69.5q103 0 183 -43t116 -130h2l26 152h206l-175 -1056v0l-24 -142q-8 -52 12.5 -75t80.5 -23h106l-29 -178h-121zM506 161
q135 0 232.5 100.5t124.5 266.5q28 167 -36 267.5t-199 100.5q-127 0 -222.5 -94.5t-125.5 -273.5q-29 -179 35 -273t191 -94z" />
    <glyph glyph-name="uni024C" unicode="&#x24c;" horiz-adv-x="1285" 
d="M71 0l95 572h-166l31 184h166l121 734h561q239 0 361.5 -125t87.5 -339q-26 -156 -124 -265.5t-246 -159.5l223 -601h-232l-204 564h-28h-330l-93 -564h-223zM418 753h336q144 0 239 76.5t116 202.5t-50.5 196t-215.5 70h-334z" />
    <glyph glyph-name="uni024D" unicode="&#x24d;" horiz-adv-x="695" 
d="M32 0l175 1056h202l-28 -171h3q44 87 114.5 135.5t171.5 48.5q24 0 44 -2t32 -3l-32 -197q-12 3 -42.5 6.5t-67.5 3.5q-89 0 -162.5 -62t-94.5 -191l-104 -624h-211zM-126 456l27 158h680l-27 -158h-680z" />
    <glyph glyph-name="uni024E" unicode="&#x24e;" horiz-adv-x="1345" 
d="M1473 1183l-22 -133h-301l-354 -455l-98 -595h-220l98 595l-203 455h-306l22 133h224l-138 307h243l134 -307h436l235 307h268l-239 -307h221zM887 1050h-277l14 -30q23 -52 44 -104l42 -104q37 52 75.5 104t78.5 104z" />
    <glyph glyph-name="uni024F" unicode="&#x24f;" horiz-adv-x="1085" 
d="M1104 785l-23 -141h-165l-458 -829q-61 -112 -150.5 -172.5t-194.5 -60.5h-134l29 178h115q50 0 86 29t71 93l68 125l-142 637h-150l23 141h96l-61 271h216l54 -271h384l143 271h232l-150 -271h111zM694 644h-282l33 -167q23 -119 42 -236q29 59 59 118l60 118z" />
    <glyph glyph-name="aturn" unicode="&#x250;" horiz-adv-x="1179" 
d="M745 1077q138 0 229.5 -69.5t128 -193t9.5 -286.5t-104.5 -286.5t-192 -193t-251.5 -69.5q-102 0 -182 43t-116 130h-3l-25 -152h-206l175 1056h206l-26 -159h2q69 90 161 135t195 45zM673 895q-136 0 -233 -100.5t-124 -266.5q-28 -167 36 -267.5t199 -100.5
q127 0 222.5 94.5t125.5 273.5q29 179 -35 273t-191 94z" />
    <glyph glyph-name="ascript" unicode="&#x251;" horiz-adv-x="1179" 
d="M434 -21q-138 0 -229.5 69.5t-128 193t-10.5 286.5q27 163 105 286.5t192.5 193t250.5 69.5q103 0 183 -43t116 -130h2l26 152h206l-175 -1056h-206l26 159h-3q-68 -90 -160 -135t-195 -45zM506 161q135 0 232.5 100.5t124.5 266.5q28 167 -36 267.5t-199 100.5
q-127 0 -222.5 -94.5t-125.5 -273.5q-29 -179 35 -273t191 -94z" />
    <glyph glyph-name="ascriptturn" unicode="&#x252;" horiz-adv-x="1180" 
d="M565 -21q-103 0 -181 45t-116 135h-2l-26 -159h-208l175 1056h208l-26 -152h3q65 87 159 130t196 43q137 0 228.5 -69.5t128 -193t9.5 -286.5q-26 -163 -103.5 -286.5t-192 -193t-252.5 -69.5zM553 161q127 0 222.5 94t124.5 273t-35 273.5t-191 94.5q-135 0 -232 -100.5
t-125 -267.5q-27 -166 36.5 -266.5t199.5 -100.5z" />
    <glyph glyph-name="uni0253" unicode="&#x253;" horiz-adv-x="1179" 
d="M573 -21q-103 0 -185 45t-120 135h-3l-26 -159h-207l140 845l36 211l27 162q44 272 354 272h121l-30 -178h-107q-60 0 -90 -23t-38 -75l-26 -158l-26 -156l2 1q65 86 153.5 128.5t189.5 42.5q137 0 230.5 -68.5t132 -191.5t12.5 -285q-27 -163 -102.5 -286.5
t-187.5 -192.5t-250 -69zM552 161q127 0 222.5 94t124.5 272t-35 272t-191 94q-135 0 -232 -100t-125 -266q-27 -166 37 -266t199 -100z" />
    <glyph glyph-name="uni0254" unicode="&#x254;" horiz-adv-x="1069" 
d="M32 355h220q-8 -82 46 -135.5t154 -53.5q101 0 165 53t100 135t50 171l9 49q15 92 6.5 177.5t-56 140.5t-148.5 55q-109 0 -177 -68.5t-93 -178.5h-217q38 195 176.5 313.5t339.5 118.5q164 0 261 -75t130.5 -202t7.5 -281l-8 -49q-25 -148 -101 -272t-197.5 -198.5
t-279.5 -74.5q-128 0 -219.5 51t-136 136.5t-32.5 187.5z" />
    <glyph glyph-name="drthook" unicode="&#x256;" horiz-adv-x="1179" 
d="M998 -418q-303 0 -258 272l50 302v0q-68 -94 -157 -135.5t-187 -41.5q-182 0 -285 118t-103 313q0 124 37 242.5t107.5 214.5t171.5 153t228 57q107 0 189 -46.5t118 -134.5h1l98 594h211l-216 -1311v0l-23 -135l-7 -44v0l-23 -142q-9 -52 11.5 -75t80.5 -23h106
l-29 -178h-121zM494 161q117 0 202.5 70t131.5 178.5t46 223.5q0 122 -61.5 192.5t-172.5 70.5q-119 0 -201.5 -71t-126 -181.5t-43.5 -228.5q0 -125 60.5 -189.5t164.5 -64.5z" />
    <glyph glyph-name="uni0257" unicode="&#x257;" horiz-adv-x="1179" 
d="M434 -21q-138 0 -229.5 69.5t-128 193t-10.5 286.5q27 163 105 286.5t192.5 193t250.5 69.5q102 0 181 -42t116 -126l25 147l27 162q43 272 354 272h121l-30 -178h-107q-60 0 -90 -23t-38 -75l-26 -158l-175 -1056h-206l26 159h-3q-68 -90 -160 -135t-195 -45zM506 161
q135 0 232.5 100.5t124.5 266.5q28 167 -36 267.5t-199 100.5q-127 0 -222.5 -94.5t-125.5 -273.5q-29 -179 35 -273t191 -94z" />
    <glyph glyph-name="erev" unicode="&#x258;" horiz-adv-x="1069" 
d="M396 -20q-108 0 -183.5 30t-124.5 77t-77 100l150 116q39 -63 99.5 -100t147.5 -37q139 0 231.5 89.5t123.5 227.5h-719l18 100q26 162 96.5 285.5t182 193.5t259.5 70q145 0 248 -68t147 -196.5t13 -309.5l-6 -40q-25 -155 -107.5 -277t-210 -191.5t-288.5 -69.5z
M788 656q6 135 -47 213t-164 78q-80 0 -135 -39t-88.5 -101t-48.5 -131l-5 -20h488z" />
    <glyph glyph-name="uni0259" unicode="&#x259;" horiz-adv-x="1102" 
d="M609 1080q199 0 318.5 -113.5t111.5 -355.5q-5 -192 -84.5 -335t-213 -221.5t-301.5 -78.5q-167 0 -272.5 78.5t-105.5 226.5q0 192 194 264.5t576 77.5q2 75 -16.5 139t-70.5 103t-150 39q-110 0 -185 -47.5t-109 -123.5h-205q55 155 187.5 251t325.5 96zM814 463
q-216 -2 -334.5 -22.5t-165 -59.5t-46.5 -97q0 -61 49 -96t144 -35q156 0 240 90.5t113 219.5z" />
    <glyph glyph-name="uni025A" unicode="&#x25a;" horiz-adv-x="1495" 
d="M440 -24q-167 0 -272.5 78.5t-105.5 226.5q0 128 87 199t258 111.5t424 75.5q-3 65 -25 119t-72.5 86t-138.5 32q-110 0 -185 -47.5t-109 -123.5h-205q55 155 187.5 251t325.5 96q180 0 296.5 -93t132.5 -291l224 32q-1 -128 5.5 -193.5t26 -88.5t58.5 -23q34 0 77 12
l11 -139q-79 -30 -145 -30q-101 0 -148 65.5t-53 217.5l-59 -9q-19 -172 -100.5 -298.5t-209.5 -196t-285 -69.5zM822 509q-216 -34 -336.5 -63t-169 -66.5t-48.5 -97.5t48 -94.5t143 -34.5q113 0 188 49t117.5 129.5t57.5 177.5z" />
    <glyph glyph-name="epsilon1" unicode="&#x25b;" horiz-adv-x="1002" 
d="M402 -24q-120 0 -210 37.5t-134.5 108.5t-27.5 171q15 96 78 157.5t158 92.5q-77 28 -113 82.5t-22 138.5q16 94 80 165t163.5 111t220.5 40q181 0 277.5 -90t79.5 -243h-202q9 75 -39 120.5t-142 45.5q-92 0 -155.5 -41.5t-73.5 -105.5q-10 -59 36.5 -100t157.5 -41h104
l-7 -48v0l-19 -114h-117q-101 0 -169.5 -38.5t-81.5 -118.5q-13 -76 38.5 -119.5t152.5 -43.5q209 0 256 178h209q-38 -169 -176 -257t-322 -88z" />
    <glyph glyph-name="epsilon1rev" unicode="&#x25c;" horiz-adv-x="1003" 
d="M417 -24q-183 0 -292 88t-91 257h208q-12 -178 198 -178q101 0 167 43.5t78 119.5q13 80 -42.5 118.5t-156.5 38.5h-117l8 46v0l19 116h104q111 0 171.5 41t70.5 100q10 64 -39 105.5t-141 41.5q-94 0 -157.5 -45.5t-80.5 -120.5h-202q35 153 161 243t308 90
q121 0 207 -40t126.5 -111t25.5 -165q-14 -84 -68 -138.5t-141 -82.5q85 -31 127.5 -92.5t26.5 -157.5q-16 -100 -84 -171t-170.5 -108.5t-223.5 -37.5z" />
    <glyph glyph-name="epsilon1revhook" unicode="&#x25d;" horiz-adv-x="1389" 
d="M1213 402q-100 0 -146 55.5t-52 203.5l-178 -73q-41 -27 -96 -45q85 -31 127.5 -92.5t26.5 -157.5q-16 -100 -84 -171t-170.5 -108.5t-223.5 -37.5q-183 0 -292 88t-91 257h208q-12 -178 198 -178q101 0 167 43.5t78 119.5q13 80 -42.5 118.5t-156.5 38.5h-117l8 46v0
l19 116h104q111 0 171.5 41t70.5 100q10 64 -39 105.5t-141 41.5q-94 0 -157.5 -45.5t-80.5 -120.5h-202q35 153 161 243t308 90q175 0 274.5 -82t87.5 -213l224 88q-1 -128 6 -196t28 -93t59 -25q34 0 77 12l11 -139q-78 -30 -145 -30z" />
    <glyph glyph-name="epsilon1revclosed" unicode="&#x25e;" horiz-adv-x="1037" 
d="M452 -24q-226 0 -328.5 139t-57.5 413q47 278 196 415t363 137q121 0 207 -40t127 -111t25 -165q-14 -84 -68 -138.5t-141 -82.5q85 -31 127.5 -92.5t27.5 -157.5q-17 -100 -85 -171t-170.5 -108.5t-222.5 -37.5zM456 509v0l19 116h59q111 0 171.5 41t70.5 100
q10 64 -36 105.5t-137 41.5q-122 0 -206.5 -90t-118.5 -295q-35 -209 13.5 -297t176.5 -88q100 0 169.5 43.5t81.5 119.5q13 80 -42.5 118.5t-156.5 38.5h-72z" />
    <glyph glyph-name="jdotlessbar" unicode="&#x25f;" horiz-adv-x="450" 
d="M206 1056h212l-197 -1184q-21 -129 -112 -209.5t-239 -80.5h-88l29 178h61q63 0 97 33t46 107zM-109 576l27 158h680l-27 -158h-680z" />
    <glyph glyph-name="uni0260" unicode="&#x260;" horiz-adv-x="1179" 
d="M432 -432q-196 0 -309 86t-107 241h206q7 -77 62.5 -116t150.5 -39q134 0 223 72.5t108 200.5l23 153h-1q-70 -92 -155 -136t-186 -44q-183 0 -286 118.5t-103 311.5q0 123 37.5 240.5t108.5 212.5t171.5 151.5t225.5 56.5q106 0 187.5 -43.5t120.5 -134.5l27 157l27 162
q44 272 354 272h121l-30 -178h-107q-60 0 -90 -23t-38 -75l-26 -158l-173 -1050q-26 -159 -105.5 -255.5t-193 -139.5t-243.5 -43zM494 167q118 0 203 69t131 177t46 223q0 122 -61.5 191.5t-172.5 69.5q-118 0 -201 -70.5t-126 -180t-43 -226.5q0 -125 60 -189t164 -64z
" />
    <glyph glyph-name="gcursive" unicode="&#x261;" horiz-adv-x="1179" 
d="M432 -432q-196 0 -309 86t-107 241h206q7 -77 62.5 -116t150.5 -39q134 0 223 72.5t108 200.5l23 153h-1q-70 -92 -155 -136t-186 -44q-183 0 -286 118.5t-103 311.5q0 123 37.5 240.5t108.5 212.5t171.5 151.5t225.5 56.5q108 0 190 -45t121 -139h1l26 163h208
l-173 -1050q-26 -159 -105.5 -255.5t-193 -139.5t-243.5 -43zM494 167q118 0 203 69t131 177t46 223q0 122 -61.5 191.5t-172.5 69.5q-118 0 -201 -70.5t-126 -180t-43 -226.5q0 -125 60 -189t164 -64z" />
    <glyph glyph-name="g.sc" unicode="&#x262;" horiz-adv-x="1094" 
d="M491 -17q-199 0 -315.5 120t-116.5 320q0 128 42.5 245.5t121 208.5t186.5 143.5t239 52.5q119 0 213.5 -45.5t148 -128t49.5 -194.5h-209q-2 83 -55.5 134t-150.5 51q-91 0 -162 -40.5t-119.5 -108t-73.5 -150t-25 -165.5q0 -121 62 -190.5t177 -69.5q116 0 203.5 65.5
t108.5 166.5h-238l27 160h438l-23 -141q-21 -130 -96 -227.5t-187.5 -152t-244.5 -54.5z" />
    <glyph glyph-name="gamma1" unicode="&#x263;" horiz-adv-x="1201" 
d="M440 -442q-140 0 -210.5 64.5t-50.5 187.5q7 40 31.5 90.5t58.5 100.5l173 256l-296 861h227l220 -638l432 638h228l-581 -867l85 -247q22 -59 24 -109.5t-4 -85.5q-20 -122 -109 -186.5t-228 -64.5zM521 25q-51 -75 -81.5 -124.5t-37.5 -88.5q-5 -33 13 -53t55 -20
q35 0 60 20.5t31 52.5q6 39 -5 88t-35 125z" />
    <glyph glyph-name="babygamma" unicode="&#x264;" horiz-adv-x="1398" 
d="M246 839l-108 141q60 59 138 105.5t170 46.5q108 0 174.5 -76t126.5 -209q103 133 197 209t203 76q91 0 153 -46.5t103 -105.5l-156 -141q-20 32 -46.5 54t-58.5 21q-41 1 -78 -24t-89 -88t-137 -176q4 -8 7 -15q22 -57 45.5 -125t35.5 -138.5t2 -135.5
q-19 -108 -105.5 -170t-220.5 -62q-131 0 -197.5 62t-48.5 170q10 64 46.5 135t83 139.5t88.5 125.5q3 5 6 9l6 8q-6 17 -14 36q-57 137 -94 193.5t-103 55.5q-32 1 -65 -21t-64 -54zM673 402q-82 -121 -93 -179q-4 -23 6.5 -42.5t46.5 -19.5t53 19.5t21 42.5q8 53 -34 179z
" />
    <glyph glyph-name="hturn" unicode="&#x265;" horiz-adv-x="1147" 
d="M804 448l100 608h211l-247 -1490h-211l97 584q-133 -171 -334 -171q-108 0 -189.5 47.5t-119 140.5t-14.5 231l110 658h211l-105 -632q-21 -127 29.5 -191.5t160.5 -64.5q107 0 191.5 66.5t109.5 213.5z" />
    <glyph glyph-name="uni0266" unicode="&#x266;" horiz-adv-x="1146" 
d="M170 845l36 211l27 162q44 272 354 272h121l-30 -178h-106q-60 0 -90 -23t-38 -75l-27 -158l-24 -143q132 164 331 164q111 0 192.5 -49t118 -144t13.5 -233l-108 -651h-211l105 639q21 127 -27 188t-154 61q-112 0 -199.5 -70t-111.5 -218l-99 -600h-211l139 845h-1z
" />
    <glyph glyph-name="uni0267" unicode="&#x267;" horiz-adv-x="1146" 
d="M568 -418h-123l29 178h107q59 0 87.5 23t37.5 75l23 142l105 639q21 127 -27 188t-154 61q-112 0 -199.5 -70t-111.5 -218l-99 -600h-211l139 845h-1l36 211l27 162q44 272 354 272h121l-30 -178h-106q-60 0 -90 -23t-38 -75l-27 -158l-24 -143q132 164 331 164
q111 0 192.5 -49t118 -144t13.5 -233l-108 -651l-24 -146q-45 -272 -348 -272z" />
    <glyph glyph-name="ibar" unicode="&#x268;" horiz-adv-x="450" 
d="M32 0l175 1056h211l-175 -1056h-211zM342 1241q-54 0 -86.5 38t-23.5 92t53.5 92t99.5 38t87.5 -38t23.5 -92t-54 -92t-100 -38zM-117 515l27 158h680l-27 -158h-680z" />
    <glyph glyph-name="iota" unicode="&#x3b9;" horiz-adv-x="500" 
d="M326 0q-158 0 -216.5 58.5t-35.5 195.5l133 802h211l-130 -781q-10 -61 8 -81.5t78 -20.5h41l-28 -173h-61z" />
    <glyph glyph-name="iota" unicode="&#x269;" horiz-adv-x="500" 
d="M326 0q-158 0 -216.5 58.5t-35.5 195.5l133 802h211l-130 -781q-10 -61 8 -81.5t78 -20.5h41l-28 -173h-61z" />
    <glyph glyph-name="lmidtilde" unicode="&#x26b;" horiz-adv-x="450" 
d="M490 1490l-247 -1490h-211l247 1490h211zM387 618q-56 0 -100.5 22t-79 44t-62.5 22q-30 0 -49 -26t-26 -59h-145q20 101 78.5 162.5t145.5 61.5q59 0 100 -22.5t74 -45t68 -22.5q54 0 78 85h141q-21 -103 -81 -162.5t-142 -59.5z" />
    <glyph glyph-name="uni026C" unicode="&#x26c;" horiz-adv-x="852" 
d="M871 585h-215l-21 -130l-76 -455h-213l75 455l22 130h-111q-134 0 -209.5 73t-55.5 196q20 116 115 197t246 81q57 0 103 -13l61 371h214l-113 -681l-8 -49h215zM485 844q8 48 -13 82t-77 33q-45 1 -79.5 -30t-41.5 -72q-6 -39 19.5 -68.5t76.5 -28.5h102z" />
    <glyph glyph-name="lrthook" unicode="&#x26d;" horiz-adv-x="450" 
d="M268 -418q-305 0 -260 272l24 146l247 1490h211l-247 -1490l-23 -142q-9 -52 11.5 -75t80.5 -23h106l-29 -178h-121z" />
    <glyph glyph-name="lyogh" unicode="&#x26e;" horiz-adv-x="1280" 
d="M295 1490h208l-62 -372h833l-27 -156l-479 -463l-3 -12q202 -23 298.5 -142t63.5 -307q-24 -145 -108 -252.5t-211.5 -166.5t-280.5 -59q-121 -1 -215 35.5t-154 99.5l179 145q72 -92 224 -90q132 -1 228 78t117 216q22 135 -49.5 212t-205.5 77h-151l29 168l430 417
l3 12h-552l-152 -915h-207z" />
    <glyph glyph-name="mturn" unicode="&#x26f;" horiz-adv-x="1749" 
d="M1717 1056l-174 -1056h-205l26 166q-64 -94 -152 -140.5t-181 -46.5q-109 0 -183.5 55.5t-96.5 138.5q-55 -87 -149.5 -140.5t-208.5 -53.5q-101 0 -176.5 44.5t-110 131.5t-13.5 214l113 687h211l-112 -684q-19 -114 32.5 -161t132.5 -47q111 0 187 69t93 170l107 653
h208l-115 -699q-15 -90 31.5 -141.5t131.5 -51.5q97 0 182.5 68.5t106.5 193.5l103 630h212z" />
    </font>
</defs>
</svg>
