<?xml version="1.0" standalone="no"?>
<!DOCTYPE svg PUBLIC "-//W3C//DTD SVG 1.1//EN" "http://www.w3.org/Graphics/SVG/1.1/DTD/svg11.dtd" >
<svg xmlns="http://www.w3.org/2000/svg" xmlns:xlink="http://www.w3.org/1999/xlink" version="1.1">
<metadata>
Created by FontForge 20201107 at Mon Nov 20 03:07:39 2023
 By 
Copyright 2016 The Inter Project Authors
</metadata>
<defs>
<font id="InterDisplay-ExtraLightItalic" horiz-adv-x="0" >
  <font-face 
    font-family="Inter Display ExtraLight"
    font-weight="200"
    font-style="italic"
    font-stretch="normal"
    units-per-em="2048"
    panose-1="2 0 3 3 0 0 0 2 0 4"
    ascent="1638"
    descent="-410"
    x-height="1056"
    cap-height="1490"
    bbox="-1521 -654 5272 2228"
    underline-thickness="77"
    underline-position="-339"
    slope="-9.39999"
    unicode-range="U+0020-1F852"
  />
<missing-glyph horiz-adv-x="1337" 
d="M857 -416h-688l376 2272h688zM475 320l-42 -256h320l42 256h-320zM539 704l-43 -256h320l43 256h-192l-22 -128h64l11 64h64l-21 -128h-192l32 192h-64zM390 -192l-10 -64h320l10 64h-215l236 127l11 65h-320l-11 -64h216zM655 1408l-37 -224h320l11 64h-128l26 160h-192
zM676 1536l-10 -64h320l10 64h-144l16 96h144l11 64h-320l-11 -64h112l-16 -96h-112zM581 960l-11 -64h192l27 160h128l10 64h-320l-10 -64h128l-16 -96h-128zM560 832l-11 -64h320l37 224h-64l-26 -160h-256zM699 128h-192l21 128h192zM757 1248h-64l15 96h64z" />
    <glyph glyph-name=".notdef" horiz-adv-x="1337" 
d="M857 -416h-688l376 2272h688zM475 320l-42 -256h320l42 256h-320zM539 704l-43 -256h320l43 256h-192l-22 -128h64l11 64h64l-21 -128h-192l32 192h-64zM390 -192l-10 -64h320l10 64h-215l236 127l11 65h-320l-11 -64h216zM655 1408l-37 -224h320l11 64h-128l26 160h-192
zM676 1536l-10 -64h320l10 64h-144l16 96h144l11 64h-320l-11 -64h112l-16 -96h-112zM581 960l-11 -64h192l27 160h128l10 64h-320l-10 -64h128l-16 -96h-128zM560 832l-11 -64h320l37 224h-64l-26 -160h-256zM699 128h-192l21 128h192zM757 1248h-64l15 96h64z" />
    <glyph glyph-name=".null" horiz-adv-x="800" 
 />
    <glyph glyph-name="nonmarkingreturn" horiz-adv-x="682" 
 />
    <glyph glyph-name="space" unicode=" " horiz-adv-x="469" 
 />
    <glyph glyph-name="exclam" unicode="!" horiz-adv-x="417" 
d="M140 369l182 1121h92l-190 -1121h-84zM124 -14q-34 0 -54.5 24.5t-14.5 59.5q5 30 29 51t55 21q34 0 54.5 -24.5t14.5 -59.5q-5 -30 -29 -51t-55 -21z" />
    <glyph glyph-name="quotedbl" unicode="&#x22;" horiz-adv-x="707" 
d="M295 1032l67 458h88l-85 -458h-70zM509 1032l67 458h88l-85 -458h-70z" />
    <glyph glyph-name="numbersign" unicode="#" horiz-adv-x="1189" 
d="M607 0l147 446h-445l-146 -446h-79l147 446h-256l28 80h254l144 437h-255l28 80h253l148 447h78l-147 -447h445l148 447h78l-147 -447h254l-26 -80h-254l-144 -437h254l-27 -80h-254l-146 -446h-80zM336 526h445l144 437h-445z" />
    <glyph glyph-name="dollar" unicode="$" horiz-adv-x="1171" 
d="M427 -198l30 177q-204 11 -308.5 123.5t-81.5 290.5h91q-17 -148 65.5 -235t247.5 -95l110 665l-46 14q-184 56 -261.5 148t-53.5 230q18 110 86 196t172.5 137.5t231.5 58.5l29 176h84l-29 -177q184 -14 279 -127.5t74 -288.5h-88q13 143 -60.5 231t-218.5 99l-105 -633
l53 -17q192 -58 273 -152.5t57 -239.5q-19 -114 -89 -202.5t-179.5 -141.5t-248.5 -61l-30 -176h-84zM555 65q165 13 277.5 101.5t135.5 225.5q18 109 -44 179t-228 122l-35 11zM595 816l101 609q-99 -8 -182 -50t-137.5 -110t-68.5 -153q-17 -103 44.5 -171.5t214.5 -115.5
z" />
    <glyph glyph-name="percent" unicode="%" horiz-adv-x="1660" 
d="M1147 -19q-130 0 -195 91.5t-42 232.5l2 11q23 141 117 231t222 90t193 -91.5t42 -232.5l-1 -11q-24 -141 -118 -231t-220 -90zM481 853q-129 0 -194 91.5t-42 232.5l1 11q24 141 118 231t222 90t193 -91.5t42 -232.5l-2 -11q-23 -140 -117 -230.5t-221 -90.5zM1155 55
q93 0 161.5 69t86.5 181l2 11q18 111 -26.5 179t-135.5 68q-94 0 -162.5 -69t-87.5 -181l-2 -11q-18 -111 27 -179t137 -68zM490 927q92 0 161 69t87 181l2 11q18 111 -26.5 179t-136.5 68q-93 0 -162 -69t-87 -181l-2 -11q-18 -111 27 -179t137 -68zM183 0l1268 1490h96
l-1270 -1490h-94z" />
    <glyph glyph-name="ampersand" unicode="&#x26;" horiz-adv-x="1179" 
d="M422 -17q-127 0 -219 51.5t-135 142t-24 205.5q19 117 102.5 201.5t241.5 189.5l52 35q-4 7 -8.5 13t-8.5 13q-71 108 -109.5 187.5t-22.5 177.5q15 90 67.5 159t130.5 108t170 39q95 0 163.5 -41t100.5 -112.5t17 -162.5q-13 -75 -54 -134.5t-96 -105.5t-110 -83
l-123 -82l306 -481q57 73 97.5 161.5t57.5 185.5h86q-20 -122 -70 -229t-124 -192l146 -229h-104l-104 164q-87 -85 -198 -133t-228 -48zM803 236l-317 500l-76 -51q-123 -82 -193 -152t-85 -165q-14 -85 19.5 -154t104.5 -110t168 -41q103 0 200.5 46.5t178.5 126.5z
M511 855l124 83q67 45 134 108t82 155q16 96 -38.5 160t-154.5 64q-102 0 -182.5 -68t-97.5 -173q-13 -74 18 -136.5t88 -150.5q7 -10 13.5 -20.5t13.5 -21.5z" />
    <glyph glyph-name="quotesingle" unicode="'" horiz-adv-x="493" 
d="M295 1032l67 458h88l-85 -458h-70z" />
    <glyph glyph-name="parenleft" unicode="(" horiz-adv-x="549" 
d="M181 621q40 242 140.5 490.5t240.5 455.5h89q-147 -225 -245 -469t-136 -477q-76 -452 72 -916h-88q-74 217 -92.5 450t19.5 466z" />
    <glyph glyph-name="parenright" unicode=")" horiz-adv-x="549" 
d="M-65 -294q302 465 375 915q39 233 21.5 477.5t-88.5 468.5h88q72 -207 90 -455t-21 -491q-40 -233 -136 -465.5t-241 -449.5h-88z" />
    <glyph glyph-name="asterisk" unicode="*" horiz-adv-x="917" 
d="M440 652l63 359l-339 -184l-28 68l344 175l-286 176l51 68l278 -183l56 359h78l-63 -359l339 183l28 -68l-344 -176l286 -175l-51 -68l-278 184l-55 -359h-79z" />
    <glyph glyph-name="plus" unicode="+" horiz-adv-x="1213" 
d="M500 141l66 398h-399l14 86h399l66 398h85l-66 -398h399l-14 -86h-399l-66 -398h-85z" />
    <glyph glyph-name="comma" unicode="," horiz-adv-x="417" 
d="M-40 -276l162 452h94l-188 -452h-68z" />
    <glyph glyph-name="hyphen" unicode="-" horiz-adv-x="807" 
d="M718 649l-14 -84h-588l14 84h588z" />
    <glyph glyph-name="period" unicode="." horiz-adv-x="417" 
d="M124 -14q-34 0 -54.5 24.5t-14.5 59.5q5 30 29 51t55 21q34 0 54.5 -24.5t14.5 -59.5q-5 -30 -29 -51t-55 -21z" />
    <glyph glyph-name="slash" unicode="/" horiz-adv-x="578" 
d="M743 1560l-775 -1784h-86l775 1784h86z" />
    <glyph glyph-name="zero" unicode="0" horiz-adv-x="1177" 
d="M499 -19q-154 0 -254.5 96t-137 267.5t1.5 399.5q38 229 131.5 401t225.5 268t286 96t254 -96t136.5 -268t-1.5 -401q-38 -228 -131 -399.5t-225 -267.5t-286 -96zM508 65q129 0 240.5 84t191 238t114.5 362q35 209 7 360.5t-109.5 233.5t-208.5 82q-130 0 -241.5 -84.5
t-191.5 -238.5t-115 -363q-34 -208 -6 -359t109.5 -233t209.5 -82z" />
    <glyph glyph-name="one" unicode="1" horiz-adv-x="664" 
d="M662 1490l-247 -1490h-89l231 1395h-2l-378 -227l17 101l367 221h101z" />
    <glyph glyph-name="two" unicode="2" horiz-adv-x="1114" 
d="M1 0l13 81l609 511q127 107 207 187t122 150.5t55 149.5q26 155 -56 251.5t-248 96.5q-111 0 -204 -46.5t-154.5 -129t-79.5 -190.5h-86q21 131 94 232.5t184 159.5t248 58q135 0 230 -56t137.5 -154t21.5 -224q-14 -89 -59.5 -170t-130.5 -169.5t-219 -200.5l-539 -452
l-1 -1h805l-13 -84h-936z" />
    <glyph glyph-name="three" unicode="3" horiz-adv-x="1134" 
d="M482 -21q-141 0 -244 54.5t-151.5 150.5t-28.5 220h91q-25 -153 70 -247.5t269 -94.5q121 0 220 44t163 119.5t79 168.5q16 99 -28 173.5t-137 115.5t-222 41h-55l14 85h54q113 0 209 38.5t159 109t79 164.5q22 134 -61.5 220.5t-241.5 86.5q-108 0 -198 -41.5
t-149.5 -116t-75.5 -173.5h-88q20 122 93 215t183.5 146t242.5 53q129 0 222 -51t137 -139.5t25 -199.5q-21 -127 -116 -221.5t-240 -129.5l-3 -2q154 -28 231.5 -132t54.5 -246q-20 -116 -98 -209.5t-197 -147.5t-262 -54z" />
    <glyph glyph-name="four" unicode="4" horiz-adv-x="1213" 
d="M39 401l12 72l913 1017h115l-166 -1005h232l-14 -84h-232l-66 -401h-88l66 401h-772zM825 485l148 899l-805 -897v-2h657z" />
    <glyph glyph-name="five" unicode="5" horiz-adv-x="1088" 
d="M443 -20q-134 0 -229 53.5t-140 146.5t-27 212h90q-20 -143 63.5 -235.5t244.5 -92.5q119 0 219 53.5t167 146t87 209.5q19 117 -14.5 207.5t-110.5 142t-190 51.5q-125 0 -235 -53.5t-163 -148.5h-87l199 818h814l-14 -84h-731l-150 -601l1 1q62 62 157.5 107.5
t216.5 45.5q138 0 235 -63.5t140.5 -173.5t19.5 -253q-24 -141 -103 -251.5t-198 -174t-262 -63.5z" />
    <glyph glyph-name="six" unicode="6" horiz-adv-x="1111" 
d="M484 -19q-148 0 -248 79t-138.5 235t0.5 386q27 163 78 312t129.5 265t186.5 183.5t248 67.5q174 0 277 -101.5t97 -266.5h-89q0 128 -74.5 206t-208.5 78q-206 0 -354 -194t-206 -566l2 2q37 77 105.5 137t156.5 94.5t184 34.5q131 0 228.5 -62.5t144 -170t23.5 -243.5
q-21 -132 -97 -239.5t-191 -172t-254 -64.5zM486 65q111 0 207.5 54t161.5 143.5t83 198.5t-18.5 197t-114.5 139.5t-185 51.5q-118 0 -219.5 -56t-164.5 -149t-65 -204q0 -177 85.5 -276t229.5 -99z" />
    <glyph glyph-name="seven" unicode="7" horiz-adv-x="1056" 
d="M107 0l938 1405l1 1h-844l14 84h943l-15 -89l-936 -1401h-101z" />
    <glyph glyph-name="eight" unicode="8" horiz-adv-x="1105" 
d="M467 -19q-136 0 -237 54t-150.5 146.5t-29.5 208.5q16 96 72.5 177t140 135t180.5 70h2q-127 34 -184.5 133.5t-37.5 222.5q18 108 88.5 194.5t175 136.5t223.5 50q120 0 210 -50.5t134 -137.5t25 -197q-19 -121 -109.5 -220t-228.5 -133h-2q91 -17 157.5 -72t97.5 -136
t15 -177q-19 -115 -97 -206.5t-194.5 -145t-250.5 -53.5zM472 65q112 0 208 43t160.5 117t79.5 168q16 95 -22 170.5t-118 119.5t-190 44q-112 0 -209 -44.5t-161.5 -121t-80.5 -172.5q-16 -93 22 -166.5t118.5 -115.5t192.5 -42zM595 809q97 0 181.5 41.5t142.5 113
t72 161.5q15 86 -17.5 154t-102 107t-166.5 39t-181 -40t-141 -108.5t-72 -155.5q-14 -89 18 -159.5t101 -111.5t165 -41z" />
    <glyph glyph-name="nine" unicode="9" horiz-adv-x="1111" 
d="M441 -19q-117 0 -202.5 46.5t-131.5 129.5t-41 193h89q-1 -128 75.5 -206.5t211.5 -78.5q205 0 352 194t205 566l-2 -2q-37 -76 -105 -135.5t-156 -93.5t-184 -34q-130 0 -227.5 62t-144 169t-24.5 244q22 131 97.5 238.5t190.5 171.5t254 64q148 0 248 -79t138.5 -235
t0.5 -386q-27 -163 -79 -312t-130.5 -265t-186.5 -183.5t-248 -67.5zM565 644q116 0 217 56.5t164.5 149t64.5 201.5q1 178 -85.5 276t-232.5 98q-109 0 -204.5 -53.5t-161 -143t-83.5 -197.5q-18 -109 18.5 -196.5t115.5 -139t187 -51.5z" />
    <glyph glyph-name="colon" unicode=":" horiz-adv-x="418" 
d="M125 -14q-34 0 -54.5 24.5t-14.5 59.5q5 30 29 51t55 21q34 0 54.5 -24.5t14.5 -59.5q-5 -30 -29 -51t-55 -21zM268 855q-34 0 -54.5 24.5t-14.5 59.5q5 30 29 51t55 21q34 0 54.5 -24.5t14.5 -59.5q-5 -30 -29 -51t-55 -21z" />
    <glyph glyph-name="semicolon" unicode=";" horiz-adv-x="415" 
d="M-40 -276l162 452h94l-188 -452h-68zM266 855q-34 0 -54.5 24.5t-14.5 59.5q5 30 29 51t55 21q34 0 54.5 -24.5t14.5 -59.5q-5 -30 -29 -51t-55 -21z" />
    <glyph glyph-name="less" unicode="&#x3c;" horiz-adv-x="1213" 
d="M158 547l12 70l927 504l-17 -99l-806 -437l-1 -8l662 -436l-17 -99z" />
    <glyph glyph-name="equal" unicode="=" horiz-adv-x="1213" 
d="M195 339l13 83h760l-13 -83h-760zM261 742l14 83h760l-14 -83h-760z" />
    <glyph glyph-name="greater" unicode="&#x3e;" horiz-adv-x="1213" 
d="M1061 547l-927 -505l16 99l807 437l1 6l-662 438l16 99l761 -504z" />
    <glyph glyph-name="question" unicode="?" horiz-adv-x="971" 
d="M387 439l16 94q13 82 44.5 136.5t85.5 99.5t135 97q114 72 164.5 137.5t63.5 139.5q21 128 -54.5 206.5t-211.5 78.5q-97 0 -177.5 -42.5t-134 -117.5t-70.5 -173h-90q20 121 86.5 215t167 147.5t222.5 53.5q115 0 200.5 -48t126.5 -132t23 -192q-17 -99 -80 -178
t-191 -159q-76 -49 -121 -88t-67.5 -81.5t-32.5 -104.5l-15 -89h-90zM357 -14q-33 0 -51.5 22.5t-13.5 55.5q6 33 32 55.5t59 22.5t51.5 -22.5t13.5 -55.5q-6 -33 -32 -55.5t-59 -22.5z" />
    <glyph glyph-name="at" unicode="@" horiz-adv-x="1950" 
d="M829 -391q-194 0 -346 70t-252 195.5t-139 292.5t-7 361q33 194 127 361t235.5 292.5t316.5 195.5t370 70q191 0 341 -69t248.5 -192.5t136.5 -289.5t6 -360q-37 -225 -153 -356t-284 -131q-119 0 -159 62t-27 159h-1q-54 -101 -145.5 -163.5t-216.5 -62.5
q-126 0 -208.5 65.5t-116 176t-12.5 242.5q23 137 95.5 247t178 174t226.5 64q120 0 189.5 -58.5t92.5 -150.5h1l31 188h84l-112 -681q-16 -95 6.5 -138.5t99.5 -43.5q127 0 221 107t125 297q30 182 -2.5 334t-119.5 263.5t-221.5 173t-306.5 61.5q-176 0 -335.5 -62.5
t-289 -175t-216.5 -265.5t-117 -334q-30 -182 3 -334.5t121 -265.5t224 -175t311 -62q132 0 255 32t220 82l21 -73q-98 -52 -227 -87.5t-272 -35.5zM889 125q153 0 258.5 112t134.5 291q30 179 -27.5 291t-210.5 112q-100 0 -187 -51.5t-147 -142t-79 -209.5
q-29 -178 39 -290.5t219 -112.5z" />
    <glyph glyph-name="A" unicode="A" horiz-adv-x="1258" 
d="M-67 0l802 1490h110l306 -1490h-92l-94 467h-683l-249 -467h-100zM327 551h621l-104 518q-15 75 -31 156.5t-33 181.5q-51 -100 -93.5 -181.5t-82.5 -156.5z" />
    <glyph glyph-name="B" unicode="B" horiz-adv-x="1260" 
d="M74 0l246 1490h487q207 0 316 -105t79 -285q-21 -129 -109.5 -216.5t-202.5 -120.5v-1q79 -14 143.5 -60t96.5 -122.5t15 -181.5q-30 -180 -172.5 -289t-371.5 -109h-527zM178 84h432q184 0 302 88t143 235q16 97 -24 166t-120.5 105.5t-187.5 36.5h-440zM297 799h431
q98 0 180.5 41.5t136.5 111.5t68 156q24 142 -62 220t-251 78h-402z" />
    <glyph glyph-name="C" unicode="C" horiz-adv-x="1394" 
d="M642 -21q-166 0 -286 73.5t-184.5 207t-64.5 312.5q0 175 54.5 342.5t156.5 302t245.5 214.5t321.5 80q170 0 282.5 -72t168.5 -185t57 -235h-91q-4 104 -51.5 196.5t-139.5 151t-229 58.5q-153 0 -279 -71.5t-216.5 -192.5t-140 -273.5t-49.5 -314.5t57 -275.5
t158.5 -173t233.5 -59.5q139 0 252.5 58.5t193.5 151t119 196.5h92q-31 -92 -91 -179.5t-145 -158t-192 -112.5t-233 -42z" />
    <glyph glyph-name="D" unicode="D" horiz-adv-x="1360" 
d="M501 0h-427l247 1490h443q209 0 344.5 -88.5t188 -254.5t14.5 -398q-58 -354 -268 -551.5t-542 -197.5zM179 84h319q299 0 485 177t237 488q51 308 -60.5 482.5t-392.5 174.5h-369z" />
    <glyph glyph-name="E" unicode="E" horiz-adv-x="1158" 
d="M74 0l247 1490h925l-15 -85h-832l-99 -601h761l-14 -84h-762l-105 -636h833l-14 -84h-925z" />
    <glyph glyph-name="F" unicode="F" horiz-adv-x="1106" 
d="M74 0l247 1490h887l-14 -84h-796l-100 -602h714l-14 -84h-714l-119 -720h-91z" />
    <glyph glyph-name="G" unicode="G" horiz-adv-x="1422" 
d="M643 -21q-167 0 -287 73.5t-184.5 207t-64.5 312.5q0 174 54.5 341.5t156 302.5t244.5 215t321 80q127 0 222.5 -42.5t159 -113.5t96 -158.5t32.5 -177.5h-91q-2 101 -48.5 194t-139.5 152.5t-234 59.5q-159 0 -285 -74t-215 -197.5t-136 -275t-47 -306.5
q0 -230 117.5 -368.5t331.5 -138.5q150 0 274.5 68t209.5 191t115 288h-473l14 84h564l-15 -86q-32 -188 -129 -330.5t-242 -221.5t-321 -79z" />
    <glyph glyph-name="H" unicode="H" horiz-adv-x="1403" 
d="M74 0l247 1490h92l-113 -686h896l114 686h91l-247 -1490h-91l119 720h-897l-119 -720h-92z" />
    <glyph glyph-name="I" unicode="I" horiz-adv-x="414" 
d="M412 1490l-247 -1490h-91l247 1490h91z" />
    <glyph glyph-name="J" unicode="J" horiz-adv-x="1055" 
d="M426 -20q-163 0 -259 88.5t-96 247.5q0 21 3 52.5t16 108.5h90q-12 -75 -15 -104.5t-3 -48.5q0 -123 68.5 -191.5t196.5 -68.5q147 0 248 90.5t128 250.5l179 1085h92l-180 -1085q-33 -199 -158 -312t-310 -113z" />
    <glyph glyph-name="K" unicode="K" horiz-adv-x="1180" 
d="M74 0l247 1490h91l-87 -526l-53 -315q89 82 173 159.5t175 160.5l569 521h125l-710 -647l462 -843h-101l-429 784l-284 -260l-87 -524h-91z" />
    <glyph glyph-name="L" unicode="L" horiz-adv-x="1062" 
d="M74 0l247 1490h92l-233 -1406h752l-14 -84h-844z" />
    <glyph glyph-name="M" unicode="M" horiz-adv-x="1722" 
d="M74 0l247 1490h121l284 -1113q15 -58 32.5 -128t32.5 -131q35 62 75 133t74 130l651 1109h129l-247 -1490h-90l174 1047q12 74 25.5 153t27.5 157q-48 -87 -93.5 -167t-85.5 -147l-617 -1043h-80l-271 1047q-35 134 -77 311q-12 -80 -24.5 -160t-24.5 -155l-173 -1043
h-90z" />
    <glyph glyph-name="N" unicode="N" horiz-adv-x="1454" 
d="M74 0l247 1490h91l580 -1077q34 -63 71.5 -137t75.5 -148q10 72 21.5 150t21.5 137l179 1075h90l-247 -1490h-90l-562 1040q-36 65 -77.5 147.5t-87.5 176.5q-15 -97 -27 -178t-23 -145l-172 -1041h-91z" />
    <glyph glyph-name="O" unicode="O" horiz-adv-x="1446" 
d="M638 -21q-164 0 -283 74t-183.5 208t-64.5 312q0 174 54.5 341t156.5 302t244.5 215t318.5 80q163 0 282 -74t183 -208t64 -313q0 -174 -54.5 -341t-155.5 -301.5t-243.5 -214.5t-318.5 -80zM642 65q155 0 280.5 73.5t214 196t136 273.5t47.5 306q0 237 -120.5 374
t-321.5 137q-157 0 -282.5 -73.5t-214.5 -196.5t-136.5 -274t-47.5 -306q0 -236 120 -373t325 -137z" />
    <glyph glyph-name="P" unicode="P" horiz-adv-x="1168" 
d="M74 0l247 1490h500q134 0 228 -54.5t135.5 -153t19.5 -229.5t-96 -227.5t-185 -149.5t-246 -53h-409l-103 -623h-91zM282 707h409q164 0 280.5 95t142.5 253q26 160 -59 255.5t-248 95.5h-409z" />
    <glyph glyph-name="Q" unicode="Q" horiz-adv-x="1446" 
d="M638 -21q-164 0 -283 74t-183.5 208t-64.5 312q0 174 54.5 341t156.5 302t244.5 215t318.5 80q163 0 282 -74t183 -208t64 -313q0 -155 -43.5 -305.5t-125.5 -278.5t-197 -215l151 -257h-96l-123 211q-75 -44 -159.5 -68t-178.5 -24zM743 466h96l161 -274
q101 79 172.5 195.5t109.5 252t38 274.5q0 237 -120.5 374t-321.5 137q-157 0 -282.5 -73.5t-214.5 -196.5t-136.5 -274t-47.5 -306q0 -236 120 -373t325 -137q80 0 153 21t137 59z" />
    <glyph glyph-name="R" unicode="R" horiz-adv-x="1221" 
d="M74 0l247 1490h506q135 0 228.5 -54t135 -151.5t19.5 -229.5q-27 -162 -134 -272t-261 -145l236 -638h-96l-229 625q-22 -2 -45 -2h-413l-103 -623h-91zM282 707h411q109 0 199.5 44t150.5 123t77 184q27 160 -55.5 254t-245.5 94h-421z" />
    <glyph glyph-name="S" unicode="S" horiz-adv-x="1171" 
d="M500 -23q-224 0 -340.5 114.5t-92.5 301.5h91q-18 -155 73.5 -242.5t270.5 -87.5q124 0 223 41t163 115t80 173q18 109 -44 179t-228 122l-161 49q-184 56 -261.5 148t-53.5 230q19 115 92 203.5t185.5 139t247.5 50.5q138 0 233 -53t139.5 -147t29.5 -218h-88
q14 152 -70.5 242t-249.5 90q-109 0 -201 -41t-153.5 -112t-76.5 -162q-17 -103 44.5 -171.5t214.5 -115.5l161 -50q192 -58 273 -152.5t57 -239.5q-20 -120 -95.5 -211.5t-194.5 -143t-268 -51.5z" />
    <glyph glyph-name="T" unicode="T" horiz-adv-x="1222" 
d="M202 1406l15 84h1107l-14 -84h-508l-233 -1406h-91l233 1406h-509z" />
    <glyph glyph-name="U" unicode="U" horiz-adv-x="1381" 
d="M606 -19q-162 0 -276 69.5t-166 189.5t-27 272l162 978h91l-162 -980q-21 -128 20 -228t134 -157t227 -57q136 0 251 58.5t191 160t98 230.5l161 973h90l-162 -985q-25 -152 -115 -270t-224 -186t-293 -68z" />
    <glyph glyph-name="V" unicode="V" horiz-adv-x="1258" 
d="M487 0l-308 1490h91l218 -1069q14 -70 30 -154t34 -185q51 101 94.5 185t81.5 154l568 1069h101l-800 -1490h-110z" />
    <glyph glyph-name="W" unicode="W" horiz-adv-x="1855" 
d="M349 0l-170 1490h89l118 -1069q9 -83 17 -167t15 -168q34 84 69.5 168t72.5 167l465 1069h115l111 -1069q9 -83 16.5 -166.5t14.5 -166.5q69 167 142 333l472 1069h98l-665 -1490h-116l-113 1056q-9 84 -16.5 167.5t-14.5 166.5q-35 -83 -70 -166.5t-71 -167.5
l-462 -1056h-117z" />
    <glyph glyph-name="X" unicode="X" horiz-adv-x="1233" 
d="M-62 0l664 758l-396 732h104l225 -418q32 -61 64 -121.5t63 -121.5q52 61 104 121.5t106 121.5l368 418h108l-638 -729l411 -761h-102l-249 459q-31 57 -61.5 115t-60.5 116q-49 -58 -99 -116t-100 -115l-401 -459h-110z" />
    <glyph glyph-name="Y" unicode="Y" horiz-adv-x="1252" 
d="M493 0l112 675l-426 815h100l258 -493q31 -59 61 -119t60 -119q49 59 99 119t100 119l421 493h113l-695 -815l-112 -675h-91z" />
    <glyph glyph-name="Z" unicode="Z" horiz-adv-x="1147" 
d="M6 0l12 74l1068 1331h-846l14 85h960l-13 -76l-1068 -1330h853l-14 -84h-966z" />
    <glyph glyph-name="bracketleft" unicode="[" horiz-adv-x="549" 
d="M45 -295l308 1862h279l-13 -80h-192l-282 -1702h192l-13 -80h-279z" />
    <glyph glyph-name="backslash" unicode="\" horiz-adv-x="577" 
d="M362 -224l-185 1784h85l185 -1784h-85z" />
    <glyph glyph-name="bracketright" unicode="]" horiz-adv-x="549" 
d="M-47 -295l13 80h192l282 1702h-192l13 80h279l-308 -1862h-279z" />
    <glyph glyph-name="asciicircum" unicode="^" horiz-adv-x="760" 
d="M85 814l402 628h89l193 -628h-92l-160 527h-5l-334 -527h-93z" />
    <glyph glyph-name="underscore" unicode="_" horiz-adv-x="900" 
d="M812 0l-14 -84h-899l14 84h899z" />
    <glyph glyph-name="grave" unicode="`" horiz-adv-x="465" 
d="M400 1192l-102 298h103l76 -298h-77z" />
    <glyph glyph-name="a" unicode="a" horiz-adv-x="1132" 
d="M440 -17q-135 0 -228 67.5t-132 190.5t-12 287t107.5 286.5t196 190.5t248.5 68q135 0 228.5 -73t111.5 -187h1l41 243h86l-175 -1056h-86l39 240h-1q-60 -114 -175.5 -185.5t-249.5 -71.5zM457 64q114 0 210 57t161.5 161t88.5 246q35 213 -45 338.5t-251 125.5
q-109 0 -206.5 -55.5t-166 -159.5t-92.5 -249q-36 -218 50 -341t251 -123z" />
    <glyph glyph-name="b" unicode="b" horiz-adv-x="1132" 
d="M517 -17q-137 0 -228.5 72t-117.5 189h-1l-40 -244h-86l246 1490h88l-112 -676h1q55 118 170 188.5t249 70.5q176 0 282 -116t106 -311q0 -124 -39.5 -242.5t-113 -213.5t-176 -151t-228.5 -56zM509 64q109 0 197 49t150.5 132t96 187t33.5 213q0 165 -85.5 256
t-225.5 91q-111 0 -198.5 -50t-149 -134.5t-93.5 -188.5t-32 -212q0 -160 81.5 -251.5t225.5 -91.5z" />
    <glyph glyph-name="c" unicode="c" horiz-adv-x="1036" 
d="M455 -19q-134 0 -228 65.5t-137 180.5t-25 264q17 160 93.5 292.5t197 212t269.5 79.5q169 0 271 -101.5t104 -262.5h-88q-5 129 -80 205.5t-209 76.5q-125 0 -225.5 -68t-165 -182.5t-80.5 -254.5q-24 -190 58 -307.5t247 -117.5q135 0 238.5 76.5t155.5 208.5h91
q-37 -108 -109 -191t-169 -129.5t-209 -46.5z" />
    <glyph glyph-name="d" unicode="d" horiz-adv-x="1132" 
d="M446 -17q-177 0 -282.5 115t-105.5 309q0 128 40.5 247t114.5 214t176 150t226 55q137 0 232 -74.5t112 -188.5h1l112 680h87l-246 -1490h-86l39 239h-1q-60 -115 -173.5 -185.5t-245.5 -70.5zM456 64q111 0 198.5 49.5t149 133.5t93.5 188t32 214q0 160 -81.5 251.5
t-225.5 91.5q-109 0 -196.5 -49t-150.5 -132t-96.5 -187t-33.5 -213q0 -165 86 -256t225 -91z" />
    <glyph glyph-name="e" unicode="e" horiz-adv-x="1029" 
d="M453 -19q-179 0 -286.5 112t-107.5 323q0 132 42.5 250.5t119 210.5t181.5 145t231 53q165 0 254.5 -87.5t89.5 -213.5q0 -102 -58.5 -162.5t-168 -90.5t-262 -39.5t-340.5 -9.5q-2 -30 -2 -60q0 -155 76 -252t235 -97q134 0 235 69.5t148 180.5h89q-52 -145 -178 -238.5
t-298 -93.5zM160 550q238 1 400.5 15.5t245.5 61.5t83 147q0 90 -65.5 154.5t-196.5 64.5q-126 0 -222.5 -61t-159 -161.5t-85.5 -220.5z" />
    <glyph glyph-name="f" unicode="f" horiz-adv-x="533" 
d="M593 1056l-12 -79h-227l-193 -1164q-19 -115 -81 -173t-182 -58h-80l15 84h66q81 0 121 34t53 113l193 1164h-187l13 79h187l37 219q36 215 262 215h87l-13 -79h-77q-79 0 -119.5 -34t-53.5 -111l-35 -210h226z" />
    <glyph glyph-name="g" unicode="g" horiz-adv-x="1131" 
d="M400 -429q-184 0 -283.5 82t-100.5 235h86q8 -117 81 -176.5t219 -59.5q178 0 288.5 95.5t135.5 254.5l39 238h-1q-61 -114 -172.5 -185.5t-246.5 -71.5q-176 0 -281.5 115t-105.5 309q0 126 40 245t113.5 214t175.5 151t227 56q139 0 232.5 -73t112.5 -190h1l41 246h86
l-175 -1061q-35 -207 -172.5 -315.5t-339.5 -108.5zM456 64q110 0 197 50t149 133.5t94.5 188t32.5 213.5q0 160 -81.5 251.5t-226.5 91.5q-107 0 -194.5 -49t-150 -132t-96.5 -187t-34 -215q0 -164 84 -254.5t226 -90.5z" />
    <glyph glyph-name="h" unicode="h" horiz-adv-x="1086" 
d="M242 665l-110 -665h-88l247 1490h88l-103 -615q66 100 163.5 149t207.5 49q112 0 194 -47.5t120.5 -136t17.5 -212.5l-112 -677h-87l111 673q25 148 -47 233t-213 85q-95 0 -177.5 -39.5t-139 -112.5t-72.5 -174z" />
    <glyph glyph-name="i" unicode="i" horiz-adv-x="351" 
d="M44 0l175 1056h88l-175 -1056h-88zM304 1308q-29 0 -45.5 20.5t-12.5 49.5q5 29 29 49.5t53 20.5t46 -20.5t12 -49.5q-4 -29 -28.5 -49.5t-53.5 -20.5z" />
    <glyph glyph-name="j" unicode="j" horiz-adv-x="355" 
d="M223 1056h87l-201 -1213q-19 -118 -106 -189.5t-200 -71.5h-37l13 81h32q77 0 137 48.5t75 139.5zM308 1308q-29 0 -45.5 20.5t-12.5 49.5q5 29 29 49.5t53 20.5t46 -20.5t12 -49.5q-4 -29 -28.5 -49.5t-53.5 -20.5z" />
    <glyph glyph-name="k" unicode="k" horiz-adv-x="912" 
d="M44 0l247 1490h88l-157 -942h5l602 508h117l-521 -440l396 -616h-112l-358 559l-147 -121l-72 -438h-88z" />
    <glyph glyph-name="l" unicode="l" horiz-adv-x="351" 
d="M379 1490l-247 -1490h-88l247 1490h88z" />
    <glyph glyph-name="m" unicode="m" horiz-adv-x="1670" 
d="M44 0l174 1056h86l-29 -181q62 100 159 149t194 49q113 0 187 -60.5t90 -157.5q56 100 155.5 159t219.5 59q155 0 235 -101.5t50 -285.5l-113 -686h-88l115 693q24 149 -38 223.5t-180 74.5q-131 0 -232 -84t-125 -228l-112 -679h-88l116 699q23 139 -36 215.5t-177 76.5
q-86 0 -163.5 -40.5t-131.5 -112.5t-70 -168l-110 -670h-88z" />
    <glyph glyph-name="n" unicode="n" horiz-adv-x="1085" 
d="M241 661l-109 -661h-88l174 1056h86l-29 -181q67 101 166 149.5t208 48.5q114 0 195 -48.5t118 -138t16 -212.5l-111 -674h-87l111 677q24 147 -46 230.5t-209 83.5q-96 0 -180 -40.5t-141 -114.5t-74 -175z" />
    <glyph glyph-name="o" unicode="o" horiz-adv-x="1080" 
d="M454 -19q-184 0 -290 119.5t-106 311.5q0 125 41.5 243.5t117 213t180 150.5t231.5 56q183 0 288 -120t105 -312q0 -125 -41 -243.5t-116.5 -213t-179.5 -150t-230 -55.5zM455 63q109 0 197 49.5t151.5 132.5t97 186.5t33.5 213.5q0 160 -80 254t-228 94q-108 0 -196 -49
t-152 -132.5t-98 -187t-34 -213.5q0 -160 81 -254t228 -94z" />
    <glyph glyph-name="p" unicode="p" horiz-adv-x="1132" 
d="M-26 -418l244 1474h86l-39 -242h1q54 116 171 187.5t249 71.5q176 0 282 -116t106 -311q0 -124 -39.5 -242.5t-113 -213.5t-176 -151t-228.5 -56q-137 0 -228.5 72.5t-116.5 187.5h-1l-109 -661h-88zM510 64q109 0 196.5 49.5t150 132.5t96 186.5t33.5 212.5
q0 165 -85.5 256t-225.5 91q-111 0 -198.5 -50t-148.5 -134t-93.5 -188.5t-32.5 -212.5q0 -160 82 -251.5t226 -91.5z" />
    <glyph glyph-name="q" unicode="q" horiz-adv-x="1132" 
d="M844 -418h-87l108 656h-1q-61 -117 -173 -186t-245 -69q-175 0 -281.5 115t-106.5 311q0 126 40.5 245t114.5 213.5t176.5 150t226.5 55.5q138 0 230.5 -73.5t114.5 -187.5h1l40 244h86zM456 64q111 0 198.5 49.5t149 133.5t94 188.5t32.5 213.5q0 160 -81 251.5
t-223 91.5q-109 0 -197.5 -49t-151.5 -132t-97 -187t-34 -215q0 -164 84.5 -254.5t225.5 -90.5z" />
    <glyph glyph-name="r" unicode="r" horiz-adv-x="579" 
d="M44 0l175 1056h85l-31 -187h2q50 90 142 143t201 53q14 0 22 -0.5t18 -1.5l-15 -87q-7 1 -19.5 2.5t-30.5 1.5q-128 0 -227.5 -84t-122.5 -226l-111 -670h-88z" />
    <glyph glyph-name="s" unicode="s" horiz-adv-x="934" 
d="M386 -17q-161 0 -253 75t-92 210q0 26 3 48h86q-14 -124 54.5 -189t201.5 -65q93 0 171.5 33.5t126 93t47.5 136.5q0 61 -46 92t-130 51l-172 42q-119 30 -182.5 83.5t-63.5 142.5q0 101 57.5 177t152 118t205.5 42q152 0 237.5 -74.5t85.5 -210.5q0 -25 -3 -47h-85
q13 123 -48 188t-187 65q-87 0 -161.5 -32t-120 -89t-45.5 -132q0 -61 47 -96.5t136 -56.5l173 -42q116 -28 177 -78t61 -136q0 -106 -60 -184.5t-158 -121.5t-215 -43z" />
    <glyph glyph-name="t" unicode="t" horiz-adv-x="528" 
d="M578 1056l-13 -79h-226l-125 -758q-12 -76 14.5 -108t104.5 -32h84l-13 -79h-90q-223 0 -188 213l126 764h-173l14 79h172l48 288h87l-48 -288h226z" />
    <glyph glyph-name="u" unicode="u" horiz-adv-x="1086" 
d="M436 -17q-112 0 -193.5 47.5t-118.5 136t-17 212.5l112 677h88l-112 -673q-25 -148 47 -233t213 -85q95 0 177.5 39.5t139 113t73.5 173.5l110 665h87l-175 -1056h-86l31 184q-67 -102 -166 -151.5t-210 -49.5z" />
    <glyph glyph-name="v" unicode="v" horiz-adv-x="1015" 
d="M372 0l-252 1056h90l161 -683q16 -67 31 -136t29 -137q38 68 76 137t77 136l386 683h98l-601 -1056h-95z" />
    <glyph glyph-name="w" unicode="w" horiz-adv-x="1495" 
d="M260 0l-140 1056h88l83 -667q9 -73 16.5 -147t15.5 -148q34 74 67.5 148t68.5 147l323 667h97l101 -667q11 -72 20 -146t19 -147q32 73 64.5 147t65.5 146l305 667h95l-490 -1056h-102l-113 736q-7 53 -13.5 107.5t-13.5 108.5q-24 -54 -48.5 -108.5t-50.5 -107.5
l-357 -736h-101z" />
    <glyph glyph-name="x" unicode="x" horiz-adv-x="995" 
d="M-54 0l502 540l-306 516h100l147 -251q29 -50 58 -101t59 -102l92 102t92 101l232 251h109l-477 -517l321 -539h-100l-167 283q-29 48 -57 96.5t-56 97.5q-44 -49 -88 -97.5t-89 -96.5l-262 -283h-110z" />
    <glyph glyph-name="y" unicode="y" horiz-adv-x="1015" 
d="M-36 -418l13 81h94q69 0 110 32t96 128l99 175l-256 1058h90l162 -683q16 -68 31.5 -136t30.5 -136q37 68 75 136t77 136l385 683h97l-718 -1262q-66 -117 -131 -164.5t-161 -47.5h-94z" />
    <glyph glyph-name="z" unicode="z" horiz-adv-x="937" 
d="M-3 0l13 74l799 899v2h-644l14 81h756l-13 -77l-796 -896v-2h653l-14 -81h-768z" />
    <glyph glyph-name="braceleft" unicode="{" horiz-adv-x="717" 
d="M492 -295q-161 0 -217.5 83t-28.5 255l55 332q19 117 -15 165.5t-145 51.5h-21v1l4 19l8 49l3 20v0h22q112 4 161.5 51.5t68.5 164.5l55 332q29 173 113 255.5t245 82.5l-13 -80q-118 0 -177.5 -61t-81.5 -197l-59 -352q-15 -92 -53.5 -152.5t-117.5 -88.5
q69 -28 88 -88.5t3 -153.5l-58 -351q-22 -136 17 -197t157 -61z" />
    <glyph glyph-name="bar" unicode="|" horiz-adv-x="489" 
d="M523 1970l-406 -2450h-79l405 2450h80z" />
    <glyph glyph-name="braceright" unicode="}" horiz-adv-x="717" 
d="M-47 -295l13 80q118 0 177.5 61t81.5 197l58 351q16 93 55 153.5t117 88.5q-69 28 -88 88.5t-4 152.5l59 352q22 136 -17 197t-157 61l13 80q161 0 217.5 -82.5t28.5 -255.5l-55 -332q-20 -122 17.5 -169t160.5 -47h3l-3 -20v0l-12 -68v0q-124 -1 -178 -48.5t-75 -169.5
l-55 -332q-28 -172 -112 -255t-245 -83z" />
    <glyph glyph-name="asciitilde" unicode="~" horiz-adv-x="1213" 
d="M122 473q27 120 116 183t195 63q74 -1 125.5 -30.5t100.5 -73.5q41 -34 75.5 -54.5t82.5 -21.5q72 0 129 44.5t80 119.5l84 -8q-34 -117 -120.5 -178.5t-184.5 -61.5q-68 1 -115.5 29t-97.5 71q-41 35 -78.5 57.5t-93.5 22.5q-77 1 -136.5 -43t-79.5 -123z" />
    <glyph glyph-name="uni00A0" unicode="&#xa0;" horiz-adv-x="469" 
 />
    <glyph glyph-name="exclamdown" unicode="&#xa1;" horiz-adv-x="421" 
d="M5 -418l190 1117h87l-180 -1117h-97zM274 915q-33 0 -52 23.5t-14 56.5t32 56.5t60 23.5t52.5 -23.5t14.5 -56.5t-32.5 -56.5t-60.5 -23.5z" />
    <glyph glyph-name="cent" unicode="&#xa2;" horiz-adv-x="1037" 
d="M410 0l34 200q-120 12 -203 79.5t-120 178t-21 250.5q17 153 88 281.5t183.5 209.5t252.5 91l33 200h80l-34 -201q151 -13 241 -112t91 -250h-87q-5 122 -71.5 197t-186.5 84l-154 -926q120 12 211.5 87t138.5 196h91q-52 -155 -174.5 -255.5t-279.5 -110.5l-33 -199h-80
zM457 282l153 924q-112 -13 -202 -82.5t-147.5 -178.5t-72.5 -241q-23 -179 49 -294t220 -128z" />
    <glyph glyph-name="sterling" unicode="&#xa3;" horiz-adv-x="1131" 
d="M-14 0l14 84h6q92 0 150 62t72 185l43 359h-170l12 79h167l34 286q16 133 82 235t170.5 159.5t234.5 57.5q121 0 204.5 -52.5t120 -145t17.5 -212.5h-88q24 146 -43.5 236t-213.5 90q-103 0 -188.5 -45t-140.5 -127.5t-68 -193.5l-34 -288h438l-12 -79h-435l-42 -357
q-11 -93 -49 -154.5t-95 -94.5h582q72 0 108.5 31.5t48.5 103.5l9 52h86l-8 -47q-38 -224 -258 -224h-754z" />
    <glyph glyph-name="currency" unicode="&#xa4;" horiz-adv-x="1316" 
d="M564 -20q-115 0 -209.5 43t-159.5 119l-167 -147l-50 64l171 148q-48 81 -65.5 183t1.5 218q19 118 72 221t129 184l-124 154l70 63l124 -152q89 73 195.5 114.5t220.5 41.5t208 -42t159 -115l174 153l49 -63l-176 -155q50 -80 68.5 -183.5t-1.5 -220.5
q-19 -115 -70 -217t-126 -183l122 -149l-71 -64l-118 148q-91 -76 -200 -119.5t-226 -43.5zM578 64q140 0 265 72.5t212 196t112 275.5q26 153 -20.5 276t-148 194.5t-240.5 70.5q-139 1 -264 -70.5t-212.5 -194.5t-112.5 -276q-25 -152 21.5 -275.5t147.5 -196t240 -72.5z
" />
    <glyph glyph-name="yen" unicode="&#xa5;" horiz-adv-x="981" 
d="M247 1490l269 -768h13l524 768h102l-555 -799h305l-12 -74h-342l-23 -140h342l-13 -75h-342l-66 -402h-91l66 402h-342l13 75h342l23 140h-342l12 74h305l-290 799h102z" />
    <glyph glyph-name="brokenbar" unicode="&#xa6;" horiz-adv-x="329" 
d="M100 391h84l-111 -671h-84zM366 1490l-111 -669h-84l111 669h84z" />
    <glyph glyph-name="section" unicode="&#xa7;" horiz-adv-x="993" 
d="M939 1173h-86q13 106 -38.5 180.5t-169.5 74.5q-116 0 -193.5 -69.5t-92.5 -160.5q-10 -62 12 -106t63 -77.5t88 -64.5l158 -105q4 -2 13 -8q58 -38 115 -83.5t90 -106t20 -144.5q-11 -62 -52 -113.5t-100.5 -84.5t-125.5 -39v-3q84 -68 109 -128t14 -131
q-17 -98 -76 -166.5t-146 -104t-187 -35.5q-160 -1 -249 92.5t-68 249.5h86q-14 -119 53 -189.5t192 -70.5q112 0 201 58.5t106 165.5q13 75 -27.5 128t-145.5 121l-160 103q-131 84 -196 160t-47 186q16 93 91.5 165t183.5 76l1 6q-58 50 -86.5 109t-15.5 140
q15 88 69.5 158.5t136.5 112t180 41.5q150 0 224 -95t56 -242zM832 503q11 61 -18 108.5t-79.5 86.5t-103.5 73l-2 2l-177 114q-105 17 -179.5 -38.5t-88.5 -142.5q-14 -83 40.5 -143t169.5 -134l161 -103q57 -10 117.5 8.5t105 61.5t54.5 107z" />
    <glyph glyph-name="dieresis" unicode="&#xa8;" horiz-adv-x="1085" 
d="M876 1308q-29 0 -45.5 20.5t-12.5 49.5q5 29 29 49.5t53 20.5t46 -20.5t12 -49.5q-4 -29 -28.5 -49.5t-53.5 -20.5zM468 1308q-29 0 -46 20.5t-13 49.5q5 29 29 49.5t53 20.5t46 -20.5t12 -49.5q-4 -29 -28 -49.5t-53 -20.5z" />
    <glyph glyph-name="copyright" unicode="&#xa9;" horiz-adv-x="1765" 
d="M797 -23q-160 0 -290.5 60t-219 167t-125.5 247t-11 300q26 158 108.5 296t204.5 243t270 164t306 59q160 0 290.5 -60t219 -167t125.5 -247t10 -300q-26 -158 -108 -296t-204 -243t-270 -164t-306 -59zM800 64q143 0 276 53.5t243 148t184 219t98 266.5q23 140 -9 262.5
t-109.5 215.5t-191.5 145t-254 52q-142 0 -275.5 -53.5t-243.5 -148t-184 -219t-98 -266.5q-23 -140 9.5 -262.5t110 -215.5t191 -145t253.5 -52zM504 744q19 120 93.5 218t182.5 156.5t227 57.5q138 1 227 -77t103 -200h-93q-16 85 -83.5 137.5t-167.5 52.5q-95 0 -181 -46
t-146 -124.5t-76 -174.5q-15 -95 18.5 -173t104.5 -124.5t166 -45.5q100 -1 182 51.5t126 136.5h94q-54 -121 -166.5 -198.5t-250.5 -78.5q-119 1 -207.5 59t-130.5 156t-22 217z" />
    <glyph glyph-name="ordfeminine" unicode="&#xaa;" horiz-adv-x="692" 
d="M563 799q-59 -50 -118.5 -78.5t-129.5 -28.5q-104 0 -155 60t-36 157q40 226 349 226h143l11 67q16 101 -15 148t-112 48q-182 -2 -218 -159l-86 8q20 104 106 167.5t212 63.5q246 0 203 -276l-52 -314q-19 -103 -6 -179h-91q-7 41 -5 90zM604 1067h-142
q-111 0 -172.5 -41t-73.5 -115q-11 -64 22 -101.5t104 -38.5q59 0 121.5 27.5t108.5 72.5z" />
    <glyph glyph-name="guillemotleft" unicode="&#xab;" horiz-adv-x="902" 
d="M383 144l-314 461l467 462h103l-462 -462l309 -461h-103zM678 144l-314 461l467 462h103l-462 -462l309 -461h-103z" />
    <glyph glyph-name="logicalnot" unicode="&#xac;" horiz-adv-x="1213" 
d="M847 315l51 310h-682l14 83h767l-65 -393h-85z" />
    <glyph glyph-name="registered" unicode="&#xae;" horiz-adv-x="1267" 
d="M602 346q-161 0 -280 78.5t-175.5 211t-29.5 292.5q20 120 82.5 225.5t156 185.5t206 125.5t233.5 45.5q161 0 280 -78.5t175.5 -210.5t30.5 -293q-21 -120 -83.5 -225.5t-156 -185.5t-206.5 -125.5t-233 -45.5zM615 423q105 1 203 40t179 108.5t135 160.5t71 196
q24 139 -25.5 253.5t-152.5 182.5t-243 69q-105 -1 -202.5 -40t-178 -108.5t-135 -161t-71.5 -195.5q-23 -139 26 -253.5t152 -182.5t242 -69zM464 666l89 536h244q71 1 113 -43t30 -120q-10 -55 -43 -95t-80 -59l83 -219h-79l-75 203h-7h-171l-34 -203h-70zM578 929h158
q50 1 85.5 29.5t43.5 80.5q9 52 -17.5 78t-75.5 26h-159z" />
    <glyph glyph-name="macron" unicode="&#xaf;" horiz-adv-x="789" 
d="M787 1406l-13 -77h-493l13 77h493z" />
    <glyph glyph-name="degree" unicode="&#xb0;" horiz-adv-x="823" 
d="M472 880q-87 0 -151.5 42.5t-95 113.5t-16.5 158q15 87 69 158t132 113t165 42t151 -42t94.5 -113t15.5 -158q-14 -87 -68 -158t-132 -113.5t-164 -42.5zM485 961q64 -1 122 30.5t98.5 84.5t51.5 118q15 97 -42 165.5t-153 68.5q-65 0 -123.5 -32t-98.5 -84.5t-51 -117.5
q-16 -97 41 -165.5t155 -67.5z" />
    <glyph glyph-name="plusminus" unicode="&#xb1;" horiz-adv-x="1213" 
d="M195 685l14 84h394l58 349h85l-58 -349h396l-14 -84h-396l-58 -348h-84l57 348h-394zM101 117l14 84h875l-14 -84h-875z" />
    <glyph glyph-name="two.sups" unicode="&#xb2;" horiz-adv-x="760" 
d="M147 882l12 70l361 260q100 72 149 120.5t59 107.5q11 71 -37 115.5t-137 44.5q-93 0 -157 -48.5t-77 -128.5h-84q19 111 110 182t220 71q125 0 194.5 -65t52.5 -168q-13 -75 -70.5 -137.5t-172.5 -143.5l-288 -203v-1h461l-13 -76h-583z" />
    <glyph glyph-name="three.sups" unicode="&#xb3;" horiz-adv-x="777" 
d="M449 870q-138 0 -211.5 69t-57.5 172h88q-12 -76 41.5 -121t150.5 -45q98 0 165.5 43.5t79.5 109.5q11 67 -50 108t-167 41h-45l13 72h44q94 0 161.5 37.5t77.5 100.5q11 65 -37 105.5t-135 40.5q-88 0 -150.5 -42.5t-74.5 -112.5h-86q17 99 107 163.5t216 64.5
q122 0 192 -59.5t55 -151.5q-11 -65 -67 -112.5t-141 -64.5v-1q95 -14 140.5 -67.5t34.5 -124.5q-17 -97 -113 -161t-231 -64z" />
    <glyph glyph-name="acute" unicode="&#xb4;" horiz-adv-x="360" 
d="M158 1241l222 274h103l-244 -274h-81z" />
    <glyph glyph-name="uni00B5" unicode="&#xb5;" horiz-adv-x="1108" 
d="M-26 -418l244 1474h88l-110 -665q-25 -149 53 -237.5t218 -88.5t246 88.5t131 237.5l110 665h87l-139 -841q-12 -74 13 -104.5t93 -30.5h26l-14 -80h-25q-196 0 -184 179q-67 -108 -168 -152t-185 -44q-56 0 -116.5 19t-109.5 62t-72 115l-98 -597h-88z" />
    <glyph glyph-name="paragraph" unicode="&#xb6;" horiz-adv-x="1034" 
d="M694 0l233 1405h-154l-142 -853h-84q-158 0 -257.5 61t-139 167.5t-17.5 241.5q23 134 97 239.5t194 167t279 61.5h329l-247 -1490h-91z" />
    <glyph glyph-name="periodcentered" unicode="&#xb7;" horiz-adv-x="417" 
d="M229 622q-34 0 -54.5 24.5t-14.5 59.5q5 30 29 51t55 21q34 0 54.5 -24.5t14.5 -59.5q-5 -30 -29 -51t-55 -21z" />
    <glyph glyph-name="cedilla" unicode="&#xb8;" horiz-adv-x="355" 
d="M-72 -418l11 65h104q123 0 139 96q16 97 -112 97h-65l67 188h54l1 -28l-33 -97q88 -3 131.5 -45.5t31.5 -114.5q-13 -77 -73.5 -119t-150.5 -42h-105z" />
    <glyph glyph-name="one.sups" unicode="&#xb9;" horiz-adv-x="494" 
d="M556 1664l-129 -782h-87l115 697h-1l-225 -118l14 85l224 118h89z" />
    <glyph glyph-name="ordmasculine" unicode="&#xba;" horiz-adv-x="733" 
d="M129 1045l14 82q25 162 127.5 256.5t255.5 94.5q151 0 220.5 -94.5t42.5 -256.5l-13 -82q-27 -163 -128 -256.5t-254 -93.5q-152 -1 -222.5 93.5t-42.5 256.5zM229 1127l-14 -82q-20 -125 29.5 -199t161.5 -75q114 0 188 74t96 200l13 82q20 124 -29.5 198t-161.5 74
q-114 0 -188 -73.5t-95 -198.5z" />
    <glyph glyph-name="guillemotright" unicode="&#xbb;" horiz-adv-x="903" 
d="M-13 144l461 461l-309 462h104l314 -462l-467 -461h-103zM282 144l461 461l-309 462h104l314 -462l-467 -461h-103z" />
    <glyph glyph-name="onequarter" unicode="&#xbc;" horiz-adv-x="1367" 
d="M503 1490l-131 -782h-82l116 699h-1l-210 -119l14 82l209 120h85zM-26 0l1268 1490h95l-1269 -1490h-94zM620 196l11 67l481 519h106l-85 -514h121l-11 -72h-122l-33 -196h-81l33 196h-420zM1051 268l71 425l-397 -424v-1h326z" />
    <glyph glyph-name="onehalf" unicode="&#xbd;" horiz-adv-x="1459" 
d="M503 1490l-131 -782h-82l116 699h-1l-210 -119l14 82l209 120h85zM-26 0l1268 1490h95l-1269 -1490h-94zM751 0l11 68l335 260q92 72 137.5 121.5t55.5 107.5q12 74 -27.5 119.5t-123.5 45.5q-83 0 -144 -49.5t-75 -130.5h-80q18 110 100.5 181t200.5 71q116 0 181.5 -64
t47.5 -170q-12 -73 -63 -135.5t-158 -144.5l-265 -206v-1h414l-11 -73h-536z" />
    <glyph glyph-name="threequarters" unicode="&#xbe;" horiz-adv-x="1576" 
d="M393 696q-128 0 -195 68.5t-50 172.5h84q-13 -77 33 -123.5t135 -46.5q87 0 151 43t76 109q12 68 -41 111.5t-152 43.5h-44l12 70h43q86 0 147 39.5t72 104.5q11 63 -31 103t-120 40q-81 0 -139 -43t-70 -114h-81q16 100 99.5 164t199.5 64q114 0 177 -60.5t48 -148.5
q-12 -66 -63.5 -114t-127.5 -65l-1 -2q86 -14 126.5 -69t28.5 -127q-16 -92 -104 -156t-213 -64zM183 0l1268 1490h95l-1269 -1490h-94zM829 196l11 67l481 519h106l-85 -514h121l-11 -72h-122l-33 -196h-81l33 196h-420zM1260 268l71 425l-397 -424v-1h326z" />
    <glyph glyph-name="questiondown" unicode="&#xbf;" horiz-adv-x="893" 
d="M508 683l-15 -94q-14 -82 -45.5 -136.5t-85.5 -99.5t-135 -97q-114 -72 -164.5 -137.5t-62.5 -139.5q-21 -128 54.5 -206.5t210.5 -78.5q97 0 177.5 42.5t134.5 117.5t70 173h90q-20 -121 -86.5 -215t-167 -147.5t-221.5 -53.5q-115 0 -201 48t-127 132t-22 192
q16 99 79.5 178t190.5 159q77 49 121.5 88t67.5 82t33 104l14 89h90zM538 1136q33 0 51.5 -22.5t13.5 -55.5q-5 -32 -31.5 -55t-59.5 -23q-32 0 -51 23t-13 55q5 33 31.5 55.5t58.5 22.5z" />
    <glyph glyph-name="Agrave" unicode="&#xc0;" horiz-adv-x="1258" 
d="M-67 0l802 1490h110l306 -1490h-92l-94 467h-683l-249 -467h-100zM327 551h621l-104 518q-15 75 -31 156.5t-33 181.5q-51 -100 -93.5 -181.5t-82.5 -156.5zM778 1626l-102 298h103l76 -298h-77z" />
    <glyph glyph-name="Aacute" unicode="&#xc1;" horiz-adv-x="1258" 
d="M-67 0l802 1490h110l306 -1490h-92l-94 467h-683l-249 -467h-100zM327 551h621l-104 518q-15 75 -31 156.5t-33 181.5q-51 -100 -93.5 -181.5t-82.5 -156.5zM772 1675l222 274h103l-244 -274h-81z" />
    <glyph glyph-name="Acircumflex" unicode="&#xc2;" horiz-adv-x="1258" 
d="M-67 0l802 1490h110l306 -1490h-92l-94 467h-683l-249 -467h-100zM327 551h621l-104 518q-15 75 -31 156.5t-33 181.5q-51 -100 -93.5 -181.5t-82.5 -156.5zM627 1667h-96v1l290 273h85l201 -273v-1h-96l-157 215z" />
    <glyph glyph-name="Atilde" unicode="&#xc3;" horiz-adv-x="1258" 
d="M-67 0l802 1490h110l306 -1490h-92l-94 467h-683l-249 -467h-100zM327 551h621l-104 518q-15 75 -31 156.5t-33 181.5q-51 -100 -93.5 -181.5t-82.5 -156.5zM957 1718q-53 0 -89 26.5t-67 52.5t-70 26q-42 0 -71 -28t-40 -72h-72q18 75 67 124t117 49q59 0 94.5 -26.5
t64 -53.5t67.5 -27q73 0 108 98h71q-22 -78 -70 -123.5t-110 -45.5z" />
    <glyph glyph-name="Adieresis" unicode="&#xc4;" horiz-adv-x="1258" 
d="M-67 0l802 1490h110l306 -1490h-92l-94 467h-683l-249 -467h-100zM327 551h621l-104 518q-15 75 -31 156.5t-33 181.5q-51 -100 -93.5 -181.5t-82.5 -156.5zM1035 1742q-29 0 -45.5 20.5t-12.5 49.5q5 29 29 49.5t53 20.5t46 -20.5t12 -49.5q-4 -29 -28.5 -49.5
t-53.5 -20.5zM627 1742q-29 0 -46 20.5t-13 49.5q5 29 29 49.5t53 20.5t46 -20.5t12 -49.5q-4 -29 -28 -49.5t-53 -20.5z" />
    <glyph glyph-name="Aring" unicode="&#xc5;" horiz-adv-x="1258" 
d="M-67 0l802 1490h110l306 -1490h-92l-94 467h-683l-249 -467h-100zM327 551h621l-104 518q-15 75 -31 156.5t-33 181.5q-51 -100 -93.5 -181.5t-82.5 -156.5zM820 1634q-79 0 -126 54t-34 130q12 71 72.5 121.5t134.5 50.5q79 0 126 -54t34 -130q-11 -71 -72 -121.5
t-135 -50.5zM824 1705q47 0 85 32t46 77q7 44 -20 74.5t-72 30.5q-47 0 -85 -32t-45 -77q-8 -44 19 -74.5t72 -30.5z" />
    <glyph glyph-name="AE" unicode="&#xc6;" horiz-adv-x="1870" 
d="M-67 0l979 1490h1027l-14 -85h-737l-102 -616h693l-14 -84h-693l-103 -621h755l-14 -84h-847l80 485h-593l-318 -485h-99zM405 569h552l139 836h-143z" />
    <glyph glyph-name="Ccedilla" unicode="&#xc7;" horiz-adv-x="1394" 
d="M642 -21q-166 0 -286 73.5t-184.5 207t-64.5 312.5q0 175 54.5 342.5t156.5 302t245.5 214.5t321.5 80q170 0 282.5 -72t168.5 -185t57 -235h-91q-4 104 -51.5 196.5t-139.5 151t-229 58.5q-153 0 -279 -71.5t-216.5 -192.5t-140 -273.5t-49.5 -314.5t57 -275.5
t158.5 -173t233.5 -59.5q139 0 252.5 58.5t193.5 151t119 196.5h92q-31 -92 -91 -179.5t-145 -158t-192 -112.5t-233 -42zM466 -418l11 65h104q123 0 139 96q16 97 -112 97h-65l67 188h54l1 -28l-33 -97q88 -3 131.5 -45.5t31.5 -114.5q-13 -77 -73.5 -119t-150.5 -42h-105z
" />
    <glyph glyph-name="Egrave" unicode="&#xc8;" horiz-adv-x="1158" 
d="M74 0l247 1490h925l-15 -85h-832l-99 -601h761l-14 -84h-762l-105 -636h833l-14 -84h-925zM772 1626l-102 298h103l76 -298h-77z" />
    <glyph glyph-name="Eacute" unicode="&#xc9;" horiz-adv-x="1158" 
d="M74 0l247 1490h925l-15 -85h-832l-99 -601h761l-14 -84h-762l-105 -636h833l-14 -84h-925zM765 1675l222 274h103l-244 -274h-81z" />
    <glyph glyph-name="Ecircumflex" unicode="&#xca;" horiz-adv-x="1158" 
d="M74 0l247 1490h925l-15 -85h-832l-99 -601h761l-14 -84h-762l-105 -636h833l-14 -84h-925zM620 1667h-96v1l290 273h85l201 -273v-1h-96l-157 215z" />
    <glyph glyph-name="Edieresis" unicode="&#xcb;" horiz-adv-x="1158" 
d="M74 0l247 1490h925l-15 -85h-832l-99 -601h761l-14 -84h-762l-105 -636h833l-14 -84h-925zM1029 1742q-29 0 -45.5 20.5t-12.5 49.5q5 29 29 49.5t53 20.5t46 -20.5t12 -49.5q-4 -29 -28.5 -49.5t-53.5 -20.5zM621 1742q-29 0 -46 20.5t-13 49.5q5 29 29 49.5t53 20.5
t46 -20.5t12 -49.5q-4 -29 -28 -49.5t-53 -20.5z" />
    <glyph glyph-name="Igrave" unicode="&#xcc;" horiz-adv-x="414" 
d="M412 1490l-247 -1490h-91l247 1490h91zM355 1626l-102 298h103l76 -298h-77z" />
    <glyph glyph-name="Iacute" unicode="&#xcd;" horiz-adv-x="414" 
d="M412 1490l-247 -1490h-91l247 1490h91zM349 1675l222 274h103l-244 -274h-81z" />
    <glyph glyph-name="Icircumflex" unicode="&#xce;" horiz-adv-x="414" 
d="M412 1490l-247 -1490h-91l247 1490h91zM204 1667h-96v1l290 273h85l201 -273v-1h-96l-157 215z" />
    <glyph glyph-name="Idieresis" unicode="&#xcf;" horiz-adv-x="414" 
d="M412 1490l-247 -1490h-91l247 1490h91zM612 1742q-29 0 -45.5 20.5t-12.5 49.5q5 29 29 49.5t53 20.5t46 -20.5t12 -49.5q-4 -29 -28.5 -49.5t-53.5 -20.5zM204 1742q-29 0 -46 20.5t-13 49.5q5 29 29 49.5t53 20.5t46 -20.5t12 -49.5q-4 -29 -28 -49.5t-53 -20.5z" />
    <glyph glyph-name="Eth" unicode="&#xd0;" horiz-adv-x="1395" 
d="M536 0h-427l247 1490h443q209 0 344.5 -88.5t188 -254.5t14.5 -398q-58 -354 -268 -551.5t-542 -197.5zM214 84h319q299 0 485 177t237 488q51 308 -60.5 482.5t-392.5 174.5h-369zM-97 718l13 84h746l-14 -84h-745z" />
    <glyph glyph-name="Ntilde" unicode="&#xd1;" horiz-adv-x="1454" 
d="M74 0l247 1490h91l580 -1077q34 -63 71.5 -137t75.5 -148q10 72 21.5 150t21.5 137l179 1075h90l-247 -1490h-90l-562 1040q-36 65 -77.5 147.5t-87.5 176.5q-15 -97 -27 -178t-23 -145l-172 -1041h-91zM1053 1718q-53 0 -89 26.5t-67 52.5t-70 26q-42 0 -71 -28t-40 -72
h-72q18 75 67 124t117 49q59 0 94.5 -26.5t64 -53.5t67.5 -27q73 0 108 98h71q-22 -78 -70 -123.5t-110 -45.5z" />
    <glyph glyph-name="Ograve" unicode="&#xd2;" horiz-adv-x="1446" 
d="M638 -21q-164 0 -283 74t-183.5 208t-64.5 312q0 174 54.5 341t156.5 302t244.5 215t318.5 80q163 0 282 -74t183 -208t64 -313q0 -174 -54.5 -341t-155.5 -301.5t-243.5 -214.5t-318.5 -80zM642 65q155 0 280.5 73.5t214 196t136 273.5t47.5 306q0 237 -120.5 374
t-321.5 137q-157 0 -282.5 -73.5t-214.5 -196.5t-136.5 -274t-47.5 -306q0 -236 120 -373t325 -137zM871 1626l-102 298h103l76 -298h-77z" />
    <glyph glyph-name="Oacute" unicode="&#xd3;" horiz-adv-x="1446" 
d="M638 -21q-164 0 -283 74t-183.5 208t-64.5 312q0 174 54.5 341t156.5 302t244.5 215t318.5 80q163 0 282 -74t183 -208t64 -313q0 -174 -54.5 -341t-155.5 -301.5t-243.5 -214.5t-318.5 -80zM642 65q155 0 280.5 73.5t214 196t136 273.5t47.5 306q0 237 -120.5 374
t-321.5 137q-157 0 -282.5 -73.5t-214.5 -196.5t-136.5 -274t-47.5 -306q0 -236 120 -373t325 -137zM865 1675l222 274h103l-244 -274h-81z" />
    <glyph glyph-name="Ocircumflex" unicode="&#xd4;" horiz-adv-x="1446" 
d="M638 -21q-164 0 -283 74t-183.5 208t-64.5 312q0 174 54.5 341t156.5 302t244.5 215t318.5 80q163 0 282 -74t183 -208t64 -313q0 -174 -54.5 -341t-155.5 -301.5t-243.5 -214.5t-318.5 -80zM642 65q155 0 280.5 73.5t214 196t136 273.5t47.5 306q0 237 -120.5 374
t-321.5 137q-157 0 -282.5 -73.5t-214.5 -196.5t-136.5 -274t-47.5 -306q0 -236 120 -373t325 -137zM720 1667h-96v1l290 273h85l201 -273v-1h-96l-157 215z" />
    <glyph glyph-name="Otilde" unicode="&#xd5;" horiz-adv-x="1446" 
d="M638 -21q-164 0 -283 74t-183.5 208t-64.5 312q0 174 54.5 341t156.5 302t244.5 215t318.5 80q163 0 282 -74t183 -208t64 -313q0 -174 -54.5 -341t-155.5 -301.5t-243.5 -214.5t-318.5 -80zM642 65q155 0 280.5 73.5t214 196t136 273.5t47.5 306q0 237 -120.5 374
t-321.5 137q-157 0 -282.5 -73.5t-214.5 -196.5t-136.5 -274t-47.5 -306q0 -236 120 -373t325 -137zM1050 1718q-53 0 -89 26.5t-67 52.5t-70 26q-42 0 -71 -28t-40 -72h-72q18 75 67 124t117 49q59 0 94.5 -26.5t64 -53.5t67.5 -27q73 0 108 98h71q-22 -78 -70 -123.5
t-110 -45.5z" />
    <glyph glyph-name="Odieresis" unicode="&#xd6;" horiz-adv-x="1446" 
d="M638 -21q-164 0 -283 74t-183.5 208t-64.5 312q0 174 54.5 341t156.5 302t244.5 215t318.5 80q163 0 282 -74t183 -208t64 -313q0 -174 -54.5 -341t-155.5 -301.5t-243.5 -214.5t-318.5 -80zM642 65q155 0 280.5 73.5t214 196t136 273.5t47.5 306q0 237 -120.5 374
t-321.5 137q-157 0 -282.5 -73.5t-214.5 -196.5t-136.5 -274t-47.5 -306q0 -236 120 -373t325 -137zM1128 1742q-29 0 -45.5 20.5t-12.5 49.5q5 29 29 49.5t53 20.5t46 -20.5t12 -49.5q-4 -29 -28.5 -49.5t-53.5 -20.5zM720 1742q-29 0 -46 20.5t-13 49.5q5 29 29 49.5
t53 20.5t46 -20.5t12 -49.5q-4 -29 -28 -49.5t-53 -20.5z" />
    <glyph glyph-name="multiply" unicode="&#xd7;" horiz-adv-x="1213" 
d="M921 143l-314 376l-442 -377l-56 65l443 378l-315 378l66 55l314 -377l442 378l56 -65l-443 -379l315 -377z" />
    <glyph glyph-name="Oslash" unicode="&#xd8;" horiz-adv-x="1446" 
d="M638 -21q-164 0 -283 74t-183.5 208t-64.5 312q0 174 54.5 341t156.5 302t244.5 215t318.5 80q163 0 282 -74t183 -208t64 -313q0 -174 -54.5 -341t-155.5 -301.5t-243.5 -214.5t-318.5 -80zM642 65q155 0 280.5 73.5t214 196t136 273.5t47.5 306q0 237 -120.5 374
t-321.5 137q-157 0 -282.5 -73.5t-214.5 -196.5t-136.5 -274t-47.5 -306q0 -236 120 -373t325 -137zM153 -26l-61 52l1274 1490l61 -52z" />
    <glyph glyph-name="Ugrave" unicode="&#xd9;" horiz-adv-x="1381" 
d="M606 -19q-162 0 -276 69.5t-166 189.5t-27 272l162 978h91l-162 -980q-21 -128 20 -228t134 -157t227 -57q136 0 251 58.5t191 160t98 230.5l161 973h90l-162 -985q-25 -152 -115 -270t-224 -186t-293 -68zM838 1626l-102 298h103l76 -298h-77z" />
    <glyph glyph-name="Uacute" unicode="&#xda;" horiz-adv-x="1381" 
d="M606 -19q-162 0 -276 69.5t-166 189.5t-27 272l162 978h91l-162 -980q-21 -128 20 -228t134 -157t227 -57q136 0 251 58.5t191 160t98 230.5l161 973h90l-162 -985q-25 -152 -115 -270t-224 -186t-293 -68zM832 1675l222 274h103l-244 -274h-81z" />
    <glyph glyph-name="Ucircumflex" unicode="&#xdb;" horiz-adv-x="1381" 
d="M606 -19q-162 0 -276 69.5t-166 189.5t-27 272l162 978h91l-162 -980q-21 -128 20 -228t134 -157t227 -57q136 0 251 58.5t191 160t98 230.5l161 973h90l-162 -985q-25 -152 -115 -270t-224 -186t-293 -68zM687 1667h-96v1l290 273h85l201 -273v-1h-96l-157 215z" />
    <glyph glyph-name="Udieresis" unicode="&#xdc;" horiz-adv-x="1381" 
d="M606 -19q-162 0 -276 69.5t-166 189.5t-27 272l162 978h91l-162 -980q-21 -128 20 -228t134 -157t227 -57q136 0 251 58.5t191 160t98 230.5l161 973h90l-162 -985q-25 -152 -115 -270t-224 -186t-293 -68zM1095 1742q-29 0 -45.5 20.5t-12.5 49.5q5 29 29 49.5t53 20.5
t46 -20.5t12 -49.5q-4 -29 -28.5 -49.5t-53.5 -20.5zM687 1742q-29 0 -46 20.5t-13 49.5q5 29 29 49.5t53 20.5t46 -20.5t12 -49.5q-4 -29 -28 -49.5t-53 -20.5z" />
    <glyph glyph-name="Yacute" unicode="&#xdd;" horiz-adv-x="1252" 
d="M493 0l112 675l-426 815h100l258 -493q31 -59 61 -119t60 -119q49 59 99 119t100 119l421 493h113l-695 -815l-112 -675h-91zM767 1675l222 274h103l-244 -274h-81z" />
    <glyph glyph-name="Thorn" unicode="&#xde;" horiz-adv-x="1131" 
d="M303 1490h90l-56 -341h334q212 -1 314 -111.5t73 -287.5q-30 -180 -167 -290t-352 -110h-334l-58 -350h-90zM218 434h335q175 0 282.5 81.5t133.5 230.5q24 150 -58 234t-253 85h-335z" />
    <glyph glyph-name="germandbls" unicode="&#xdf;" horiz-adv-x="1097" 
d="M74 0l188 1137q29 173 150.5 273t295.5 100q173 0 262 -98.5t61 -268.5q-23 -138 -108 -232.5t-217 -131.5l-2 -7q149 -22 226 -123t51 -255q-19 -116 -87.5 -205t-174 -139t-235.5 -50h-122l14 84h123q155 0 263.5 85.5t130.5 224.5q25 149 -68.5 239.5t-278.5 90.5h-58
l14 83h45q159 0 264.5 91t130.5 237q22 132 -43.5 211.5t-203.5 79.5q-137 0 -230 -77.5t-115 -211.5l-188 -1137h-88z" />
    <glyph glyph-name="agrave" unicode="&#xe0;" horiz-adv-x="1132" 
d="M440 -17q-135 0 -228 67.5t-132 190.5t-12 287t107.5 286.5t196 190.5t248.5 68q135 0 228.5 -73t111.5 -187h1l41 243h86l-175 -1056h-86l39 240h-1q-60 -114 -175.5 -185.5t-249.5 -71.5zM457 64q114 0 210 57t161.5 161t88.5 246q35 213 -45 338.5t-251 125.5
q-109 0 -206.5 -55.5t-166 -159.5t-92.5 -249q-36 -218 50 -341t251 -123zM617 1192l-102 298h103l76 -298h-77z" />
    <glyph glyph-name="aacute" unicode="&#xe1;" horiz-adv-x="1132" 
d="M440 -17q-135 0 -228 67.5t-132 190.5t-12 287t107.5 286.5t196 190.5t248.5 68q135 0 228.5 -73t111.5 -187h1l41 243h86l-175 -1056h-86l39 240h-1q-60 -114 -175.5 -185.5t-249.5 -71.5zM457 64q114 0 210 57t161.5 161t88.5 246q35 213 -45 338.5t-251 125.5
q-109 0 -206.5 -55.5t-166 -159.5t-92.5 -249q-36 -218 50 -341t251 -123zM611 1241l222 274h103l-244 -274h-81z" />
    <glyph glyph-name="acircumflex" unicode="&#xe2;" horiz-adv-x="1132" 
d="M440 -17q-135 0 -228 67.5t-132 190.5t-12 287t107.5 286.5t196 190.5t248.5 68q135 0 228.5 -73t111.5 -187h1l41 243h86l-175 -1056h-86l39 240h-1q-60 -114 -175.5 -185.5t-249.5 -71.5zM457 64q114 0 210 57t161.5 161t88.5 246q35 213 -45 338.5t-251 125.5
q-109 0 -206.5 -55.5t-166 -159.5t-92.5 -249q-36 -218 50 -341t251 -123zM466 1233h-96v1l290 273h85l201 -273v-1h-96l-157 215z" />
    <glyph glyph-name="atilde" unicode="&#xe3;" horiz-adv-x="1132" 
d="M440 -17q-135 0 -228 67.5t-132 190.5t-12 287t107.5 286.5t196 190.5t248.5 68q135 0 228.5 -73t111.5 -187h1l41 243h86l-175 -1056h-86l39 240h-1q-60 -114 -175.5 -185.5t-249.5 -71.5zM457 64q114 0 210 57t161.5 161t88.5 246q35 213 -45 338.5t-251 125.5
q-109 0 -206.5 -55.5t-166 -159.5t-92.5 -249q-36 -218 50 -341t251 -123zM796 1284q-53 0 -89 26.5t-67 52.5t-70 26q-42 0 -71 -28t-40 -72h-72q18 75 67 124t117 49q59 0 94.5 -26.5t64 -53.5t67.5 -27q73 0 108 98h71q-22 -78 -70 -123.5t-110 -45.5z" />
    <glyph glyph-name="adieresis" unicode="&#xe4;" horiz-adv-x="1132" 
d="M440 -17q-135 0 -228 67.5t-132 190.5t-12 287t107.5 286.5t196 190.5t248.5 68q135 0 228.5 -73t111.5 -187h1l41 243h86l-175 -1056h-86l39 240h-1q-60 -114 -175.5 -185.5t-249.5 -71.5zM457 64q114 0 210 57t161.5 161t88.5 246q35 213 -45 338.5t-251 125.5
q-109 0 -206.5 -55.5t-166 -159.5t-92.5 -249q-36 -218 50 -341t251 -123zM874 1308q-29 0 -45.5 20.5t-12.5 49.5q5 29 29 49.5t53 20.5t46 -20.5t12 -49.5q-4 -29 -28.5 -49.5t-53.5 -20.5zM466 1308q-29 0 -46 20.5t-13 49.5q5 29 29 49.5t53 20.5t46 -20.5t12 -49.5
q-4 -29 -28 -49.5t-53 -20.5z" />
    <glyph glyph-name="aring" unicode="&#xe5;" horiz-adv-x="1132" 
d="M440 -17q-135 0 -228 67.5t-132 190.5t-12 287t107.5 286.5t196 190.5t248.5 68q135 0 228.5 -73t111.5 -187h1l41 243h86l-175 -1056h-86l39 240h-1q-60 -114 -175.5 -185.5t-249.5 -71.5zM457 64q114 0 210 57t161.5 161t88.5 246q35 213 -45 338.5t-251 125.5
q-109 0 -206.5 -55.5t-166 -159.5t-92.5 -249q-36 -218 50 -341t251 -123zM653 1200q-78 0 -123 51.5t-33 126.5q13 75 75 126.5t140 51.5q77 0 122 -51.5t33 -126.5q-13 -75 -75 -126.5t-139 -51.5zM657 1271q51 0 89.5 31t46.5 81q8 45 -16.5 73.5t-68.5 28.5
q-52 0 -90.5 -31t-46.5 -81q-8 -45 16.5 -73.5t69.5 -28.5z" />
    <glyph glyph-name="ae" unicode="&#xe6;" horiz-adv-x="1739" 
d="M334 -21q-165 0 -246.5 88.5t-56.5 238.5q50 298 463 298q74 0 144 -2t152 -3l30 180q19 116 -48 185.5t-198 69.5q-88 0 -162.5 -34t-124.5 -94t-65 -137h-88q18 101 81 179t157.5 122.5t206.5 44.5q139 0 226 -65.5t102 -172.5q78 112 194.5 175.5t261.5 63.5
q152 0 240.5 -72.5t88.5 -202.5q0 -115 -84 -184.5t-266 -101t-476 -33.5q-2 -26 -3 -53q-2 -12 -4.5 -29.5t-2.5 -30.5q0 -179 73.5 -262.5t240.5 -83.5q125 0 213.5 48t160.5 147l83 -19q-82 -131 -192.5 -194.5t-261.5 -63.5q-159 0 -254.5 70t-125.5 216
q-61 -128 -177 -208t-282 -80zM777 523q-70 1 -141.5 2t-138.5 1q-165 0 -262.5 -53t-115.5 -169q-19 -119 38 -181.5t186 -62.5q122 0 210 52.5t141 142t71 199.5zM877 597q275 1 434 26.5t226.5 81t67.5 148.5q0 91 -61.5 136t-176.5 45q-189 0 -320 -119t-170 -318z" />
    <glyph glyph-name="ccedilla" unicode="&#xe7;" horiz-adv-x="1036" 
d="M455 -19q-134 0 -228 65.5t-137 180.5t-25 264q17 160 93.5 292.5t197 212t269.5 79.5q169 0 271 -101.5t104 -262.5h-88q-5 129 -80 205.5t-209 76.5q-125 0 -225.5 -68t-165 -182.5t-80.5 -254.5q-24 -190 58 -307.5t247 -117.5q135 0 238.5 76.5t155.5 208.5h91
q-37 -108 -109 -191t-169 -129.5t-209 -46.5zM285 -418l11 65h104q123 0 139 96q16 97 -112 97h-65l67 188h54l1 -28l-33 -97q88 -3 131.5 -45.5t31.5 -114.5q-13 -77 -73.5 -119t-150.5 -42h-105z" />
    <glyph glyph-name="egrave" unicode="&#xe8;" horiz-adv-x="1029" 
d="M453 -19q-179 0 -286.5 112t-107.5 323q0 132 42.5 250.5t119 210.5t181.5 145t231 53q165 0 254.5 -87.5t89.5 -213.5q0 -102 -58.5 -162.5t-168 -90.5t-262 -39.5t-340.5 -9.5q-2 -30 -2 -60q0 -155 76 -252t235 -97q134 0 235 69.5t148 180.5h89q-52 -145 -178 -238.5
t-298 -93.5zM160 550q238 1 400.5 15.5t245.5 61.5t83 147q0 90 -65.5 154.5t-196.5 64.5q-126 0 -222.5 -61t-159 -161.5t-85.5 -220.5zM616 1192l-102 298h103l76 -298h-77z" />
    <glyph glyph-name="eacute" unicode="&#xe9;" horiz-adv-x="1029" 
d="M453 -19q-179 0 -286.5 112t-107.5 323q0 132 42.5 250.5t119 210.5t181.5 145t231 53q165 0 254.5 -87.5t89.5 -213.5q0 -102 -58.5 -162.5t-168 -90.5t-262 -39.5t-340.5 -9.5q-2 -30 -2 -60q0 -155 76 -252t235 -97q134 0 235 69.5t148 180.5h89q-52 -145 -178 -238.5
t-298 -93.5zM160 550q238 1 400.5 15.5t245.5 61.5t83 147q0 90 -65.5 154.5t-196.5 64.5q-126 0 -222.5 -61t-159 -161.5t-85.5 -220.5zM610 1241l222 274h103l-244 -274h-81z" />
    <glyph glyph-name="ecircumflex" unicode="&#xea;" horiz-adv-x="1029" 
d="M453 -19q-179 0 -286.5 112t-107.5 323q0 132 42.5 250.5t119 210.5t181.5 145t231 53q165 0 254.5 -87.5t89.5 -213.5q0 -102 -58.5 -162.5t-168 -90.5t-262 -39.5t-340.5 -9.5q-2 -30 -2 -60q0 -155 76 -252t235 -97q134 0 235 69.5t148 180.5h89q-52 -145 -178 -238.5
t-298 -93.5zM160 550q238 1 400.5 15.5t245.5 61.5t83 147q0 90 -65.5 154.5t-196.5 64.5q-126 0 -222.5 -61t-159 -161.5t-85.5 -220.5zM465 1233h-96v1l290 273h85l201 -273v-1h-96l-157 215z" />
    <glyph glyph-name="edieresis" unicode="&#xeb;" horiz-adv-x="1029" 
d="M453 -19q-179 0 -286.5 112t-107.5 323q0 132 42.5 250.5t119 210.5t181.5 145t231 53q165 0 254.5 -87.5t89.5 -213.5q0 -102 -58.5 -162.5t-168 -90.5t-262 -39.5t-340.5 -9.5q-2 -30 -2 -60q0 -155 76 -252t235 -97q134 0 235 69.5t148 180.5h89q-52 -145 -178 -238.5
t-298 -93.5zM160 550q238 1 400.5 15.5t245.5 61.5t83 147q0 90 -65.5 154.5t-196.5 64.5q-126 0 -222.5 -61t-159 -161.5t-85.5 -220.5zM873 1308q-29 0 -45.5 20.5t-12.5 49.5q5 29 29 49.5t53 20.5t46 -20.5t12 -49.5q-4 -29 -28.5 -49.5t-53.5 -20.5zM465 1308
q-29 0 -46 20.5t-13 49.5q5 29 29 49.5t53 20.5t46 -20.5t12 -49.5q-4 -29 -28 -49.5t-53 -20.5z" />
    <glyph glyph-name="igrave" unicode="&#xec;" horiz-adv-x="351" 
d="M44 0l175 1056h88l-175 -1056h-88zM251 1192l-102 298h103l76 -298h-77z" />
    <glyph glyph-name="iacute" unicode="&#xed;" horiz-adv-x="351" 
d="M44 0l175 1056h88l-175 -1056h-88zM245 1241l222 274h103l-244 -274h-81z" />
    <glyph glyph-name="icircumflex" unicode="&#xee;" horiz-adv-x="351" 
d="M44 0l175 1056h88l-175 -1056h-88zM100 1233h-96v1l290 273h85l201 -273v-1h-96l-157 215z" />
    <glyph glyph-name="idieresis" unicode="&#xef;" horiz-adv-x="351" 
d="M44 0l175 1056h88l-175 -1056h-88zM508 1308q-29 0 -45.5 20.5t-12.5 49.5q5 29 29 49.5t53 20.5t46 -20.5t12 -49.5q-4 -29 -28.5 -49.5t-53.5 -20.5zM100 1308q-29 0 -46 20.5t-13 49.5q5 29 29 49.5t53 20.5t46 -20.5t12 -49.5q-4 -29 -28 -49.5t-53 -20.5z" />
    <glyph glyph-name="eth" unicode="&#xf0;" horiz-adv-x="1097" 
d="M1074 1447l-247 -107q127 -157 185 -360.5t21 -432.5q-29 -176 -112.5 -304t-203.5 -197t-258 -70q-140 1 -237 72t-139 193.5t-17 275.5q26 155 108.5 277t200 192.5t247.5 70.5q126 0 208 -61.5t123 -162.5h10q-19 125 -72.5 246t-144.5 226l-295 -128l-14 67l261 112
q-89 88 -202 155l47 71q134 -77 238 -190l279 120zM472 59q116 0 214.5 60.5t166 163.5t88.5 230q21 124 -10.5 230t-109.5 171t-197 65q-115 0 -214 -62.5t-166.5 -167.5t-88.5 -232q-21 -126 11 -230t110 -166t196 -62z" />
    <glyph glyph-name="ntilde" unicode="&#xf1;" horiz-adv-x="1085" 
d="M241 661l-109 -661h-88l174 1056h86l-29 -181q67 101 166 149.5t208 48.5q114 0 195 -48.5t118 -138t16 -212.5l-111 -674h-87l111 677q24 147 -46 230.5t-209 83.5q-96 0 -180 -40.5t-141 -114.5t-74 -175zM798 1284q-53 0 -89 26.5t-67 52.5t-70 26q-42 0 -71 -28
t-40 -72h-72q18 75 67 124t117 49q59 0 94.5 -26.5t64 -53.5t67.5 -27q73 0 108 98h71q-22 -78 -70 -123.5t-110 -45.5z" />
    <glyph glyph-name="ograve" unicode="&#xf2;" horiz-adv-x="1080" 
d="M454 -19q-184 0 -290 119.5t-106 311.5q0 125 41.5 243.5t117 213t180 150.5t231.5 56q183 0 288 -120t105 -312q0 -125 -41 -243.5t-116.5 -213t-179.5 -150t-230 -55.5zM455 63q109 0 197 49.5t151.5 132.5t97 186.5t33.5 213.5q0 160 -80 254t-228 94q-108 0 -196 -49
t-152 -132.5t-98 -187t-34 -213.5q0 -160 81 -254t228 -94zM616 1192l-102 298h103l76 -298h-77z" />
    <glyph glyph-name="oacute" unicode="&#xf3;" horiz-adv-x="1080" 
d="M454 -19q-184 0 -290 119.5t-106 311.5q0 125 41.5 243.5t117 213t180 150.5t231.5 56q183 0 288 -120t105 -312q0 -125 -41 -243.5t-116.5 -213t-179.5 -150t-230 -55.5zM455 63q109 0 197 49.5t151.5 132.5t97 186.5t33.5 213.5q0 160 -80 254t-228 94q-108 0 -196 -49
t-152 -132.5t-98 -187t-34 -213.5q0 -160 81 -254t228 -94zM610 1241l222 274h103l-244 -274h-81z" />
    <glyph glyph-name="ocircumflex" unicode="&#xf4;" horiz-adv-x="1080" 
d="M454 -19q-184 0 -290 119.5t-106 311.5q0 125 41.5 243.5t117 213t180 150.5t231.5 56q183 0 288 -120t105 -312q0 -125 -41 -243.5t-116.5 -213t-179.5 -150t-230 -55.5zM455 63q109 0 197 49.5t151.5 132.5t97 186.5t33.5 213.5q0 160 -80 254t-228 94q-108 0 -196 -49
t-152 -132.5t-98 -187t-34 -213.5q0 -160 81 -254t228 -94zM465 1233h-96v1l290 273h85l201 -273v-1h-96l-157 215z" />
    <glyph glyph-name="otilde" unicode="&#xf5;" horiz-adv-x="1080" 
d="M454 -19q-184 0 -290 119.5t-106 311.5q0 125 41.5 243.5t117 213t180 150.5t231.5 56q183 0 288 -120t105 -312q0 -125 -41 -243.5t-116.5 -213t-179.5 -150t-230 -55.5zM455 63q109 0 197 49.5t151.5 132.5t97 186.5t33.5 213.5q0 160 -80 254t-228 94q-108 0 -196 -49
t-152 -132.5t-98 -187t-34 -213.5q0 -160 81 -254t228 -94zM795 1284q-53 0 -89 26.5t-67 52.5t-70 26q-42 0 -71 -28t-40 -72h-72q18 75 67 124t117 49q59 0 94.5 -26.5t64 -53.5t67.5 -27q73 0 108 98h71q-22 -78 -70 -123.5t-110 -45.5z" />
    <glyph glyph-name="odieresis" unicode="&#xf6;" horiz-adv-x="1080" 
d="M454 -19q-184 0 -290 119.5t-106 311.5q0 125 41.5 243.5t117 213t180 150.5t231.5 56q183 0 288 -120t105 -312q0 -125 -41 -243.5t-116.5 -213t-179.5 -150t-230 -55.5zM455 63q109 0 197 49.5t151.5 132.5t97 186.5t33.5 213.5q0 160 -80 254t-228 94q-108 0 -196 -49
t-152 -132.5t-98 -187t-34 -213.5q0 -160 81 -254t228 -94zM873 1308q-29 0 -45.5 20.5t-12.5 49.5q5 29 29 49.5t53 20.5t46 -20.5t12 -49.5q-4 -29 -28.5 -49.5t-53.5 -20.5zM465 1308q-29 0 -46 20.5t-13 49.5q5 29 29 49.5t53 20.5t46 -20.5t12 -49.5q-4 -29 -28 -49.5
t-53 -20.5z" />
    <glyph glyph-name="divide" unicode="&#xf7;" horiz-adv-x="1213" 
d="M1059 625l-15 -86h-872l14 86h873zM660 851q-33 0 -52.5 22.5t-13.5 55.5q5 32 32 55t59 23t51 -23t14 -55q-5 -33 -31.5 -55.5t-58.5 -22.5zM545 157q-33 0 -52 23t-13 55q4 32 31 55t59 23q33 0 51.5 -23t13.5 -55t-31.5 -55t-58.5 -23z" />
    <glyph glyph-name="oslash" unicode="&#xf8;" horiz-adv-x="1080" 
d="M454 -19q-184 0 -290 119.5t-106 311.5q0 125 41.5 243.5t117 213t180 150.5t231.5 56q183 0 288 -120t105 -312q0 -125 -41 -243.5t-116.5 -213t-179.5 -150t-230 -55.5zM455 63q109 0 197 49.5t151.5 132.5t97 186.5t33.5 213.5q0 160 -80 254t-228 94q-108 0 -196 -49
t-152 -132.5t-98 -187t-34 -213.5q0 -160 81 -254t228 -94zM37 -25l-50 50l1056 1056l50 -50z" />
    <glyph glyph-name="ugrave" unicode="&#xf9;" horiz-adv-x="1086" 
d="M436 -17q-112 0 -193.5 47.5t-118.5 136t-17 212.5l112 677h88l-112 -673q-25 -148 47 -233t213 -85q95 0 177.5 39.5t139 113t73.5 173.5l110 665h87l-175 -1056h-86l31 184q-67 -102 -166 -151.5t-210 -49.5zM619 1192l-102 298h103l76 -298h-77z" />
    <glyph glyph-name="uacute" unicode="&#xfa;" horiz-adv-x="1086" 
d="M436 -17q-112 0 -193.5 47.5t-118.5 136t-17 212.5l112 677h88l-112 -673q-25 -148 47 -233t213 -85q95 0 177.5 39.5t139 113t73.5 173.5l110 665h87l-175 -1056h-86l31 184q-67 -102 -166 -151.5t-210 -49.5zM613 1241l222 274h103l-244 -274h-81z" />
    <glyph glyph-name="ucircumflex" unicode="&#xfb;" horiz-adv-x="1086" 
d="M436 -17q-112 0 -193.5 47.5t-118.5 136t-17 212.5l112 677h88l-112 -673q-25 -148 47 -233t213 -85q95 0 177.5 39.5t139 113t73.5 173.5l110 665h87l-175 -1056h-86l31 184q-67 -102 -166 -151.5t-210 -49.5zM468 1233h-96v1l290 273h85l201 -273v-1h-96l-157 215z" />
    <glyph glyph-name="udieresis" unicode="&#xfc;" horiz-adv-x="1086" 
d="M436 -17q-112 0 -193.5 47.5t-118.5 136t-17 212.5l112 677h88l-112 -673q-25 -148 47 -233t213 -85q95 0 177.5 39.5t139 113t73.5 173.5l110 665h87l-175 -1056h-86l31 184q-67 -102 -166 -151.5t-210 -49.5zM876 1308q-29 0 -45.5 20.5t-12.5 49.5q5 29 29 49.5
t53 20.5t46 -20.5t12 -49.5q-4 -29 -28.5 -49.5t-53.5 -20.5zM468 1308q-29 0 -46 20.5t-13 49.5q5 29 29 49.5t53 20.5t46 -20.5t12 -49.5q-4 -29 -28 -49.5t-53 -20.5z" />
    <glyph glyph-name="yacute" unicode="&#xfd;" horiz-adv-x="1015" 
d="M-36 -418l13 81h94q69 0 110 32t96 128l99 175l-256 1058h90l162 -683q16 -68 31.5 -136t30.5 -136q37 68 75 136t77 136l385 683h97l-718 -1262q-66 -117 -131 -164.5t-161 -47.5h-94zM574 1241l222 274h103l-244 -274h-81z" />
    <glyph glyph-name="thorn" unicode="&#xfe;" horiz-adv-x="1094" 
d="M496 -23q-125 0 -208.5 70t-111.5 193h-5l-109 -658h-88l316 1908h88l-105 -635h4q66 122 174.5 191t232.5 69q133 0 219.5 -74t119.5 -202.5t6 -291.5q-27 -165 -102.5 -293.5t-186.5 -202.5t-244 -74zM500 59q110 0 201 62t153.5 172t86.5 254t-2.5 253.5t-97 171
t-179.5 61.5q-111 0 -203.5 -63t-155 -173t-86.5 -250q-23 -141 3 -251.5t97 -173.5t183 -63z" />
    <glyph glyph-name="ydieresis" unicode="&#xff;" horiz-adv-x="1015" 
d="M-36 -418l13 81h94q69 0 110 32t96 128l99 175l-256 1058h90l162 -683q16 -68 31.5 -136t30.5 -136q37 68 75 136t77 136l385 683h97l-718 -1262q-66 -117 -131 -164.5t-161 -47.5h-94zM837 1308q-29 0 -45.5 20.5t-12.5 49.5q5 29 29 49.5t53 20.5t46 -20.5t12 -49.5
q-4 -29 -28.5 -49.5t-53.5 -20.5zM429 1308q-29 0 -46 20.5t-13 49.5q5 29 29 49.5t53 20.5t46 -20.5t12 -49.5q-4 -29 -28 -49.5t-53 -20.5z" />
    <glyph glyph-name="Amacron" unicode="&#x100;" horiz-adv-x="1258" 
d="M-67 0l802 1490h110l306 -1490h-92l-94 467h-683l-249 -467h-100zM327 551h621l-104 518q-15 75 -31 156.5t-33 181.5q-51 -100 -93.5 -181.5t-82.5 -156.5zM1094 1840l-13 -77h-493l13 77h493z" />
    <glyph glyph-name="amacron" unicode="&#x101;" horiz-adv-x="1132" 
d="M440 -17q-135 0 -228 67.5t-132 190.5t-12 287t107.5 286.5t196 190.5t248.5 68q135 0 228.5 -73t111.5 -187h1l41 243h86l-175 -1056h-86l39 240h-1q-60 -114 -175.5 -185.5t-249.5 -71.5zM457 64q114 0 210 57t161.5 161t88.5 246q35 213 -45 338.5t-251 125.5
q-109 0 -206.5 -55.5t-166 -159.5t-92.5 -249q-36 -218 50 -341t251 -123zM933 1406l-13 -77h-493l13 77h493z" />
    <glyph glyph-name="Abreve" unicode="&#x102;" horiz-adv-x="1258" 
d="M-67 0l802 1490h110l306 -1490h-92l-94 467h-683l-249 -467h-100zM327 551h621l-104 518q-15 75 -31 156.5t-33 181.5q-51 -100 -93.5 -181.5t-82.5 -156.5zM817 1657q-75 0 -130.5 36t-81 97t-13.5 135h73q-14 -83 34 -139.5t130 -56.5q83 0 149 56.5t80 139.5h73
q-12 -74 -58 -135t-113 -97t-143 -36z" />
    <glyph glyph-name="abreve" unicode="&#x103;" horiz-adv-x="1132" 
d="M440 -17q-135 0 -228 67.5t-132 190.5t-12 287t107.5 286.5t196 190.5t248.5 68q135 0 228.5 -73t111.5 -187h1l41 243h86l-175 -1056h-86l39 240h-1q-60 -114 -175.5 -185.5t-249.5 -71.5zM457 64q114 0 210 57t161.5 161t88.5 246q35 213 -45 338.5t-251 125.5
q-109 0 -206.5 -55.5t-166 -159.5t-92.5 -249q-36 -218 50 -341t251 -123zM656 1223q-75 0 -130.5 36t-81 97t-13.5 135h73q-14 -83 34 -139.5t130 -56.5q83 0 149 56.5t80 139.5h73q-12 -74 -58 -135t-113 -97t-143 -36z" />
    <glyph glyph-name="Aogonek" unicode="&#x104;" horiz-adv-x="1258" 
d="M-67 0l802 1490h110l306 -1490h-92l-94 467h-683l-249 -467h-100zM327 551h621l-104 518q-15 75 -31 156.5t-33 181.5q-51 -100 -93.5 -181.5t-82.5 -156.5zM1014 -418q-102 0 -141 45.5t-27 119.5q13 78 72 141.5t165 142.5l68 -31q-109 -82 -158 -135.5t-58 -107.5
q-7 -41 14 -68.5t96 -27.5h44l-13 -79h-62z" />
    <glyph glyph-name="aogonek" unicode="&#x105;" horiz-adv-x="1132" 
d="M440 -17q-135 0 -228 67.5t-132 190.5t-12 287t107.5 286.5t196 190.5t248.5 68q135 0 228.5 -73t111.5 -187h1l41 243h86l-175 -1056h-86l39 240h-1q-60 -114 -175.5 -185.5t-249.5 -71.5zM457 64q114 0 210 57t161.5 161t88.5 246q35 213 -45 338.5t-251 125.5
q-109 0 -206.5 -55.5t-166 -159.5t-92.5 -249q-36 -218 50 -341t251 -123zM776 -418q-102 0 -141 45.5t-27 119.5q13 75 70.5 138t163.5 140l71 -25q-109 -83 -158 -136t-58 -107q-7 -41 14 -68.5t96 -27.5h44l-13 -79h-62z" />
    <glyph glyph-name="Cacute" unicode="&#x106;" horiz-adv-x="1394" 
d="M642 -21q-166 0 -286 73.5t-184.5 207t-64.5 312.5q0 175 54.5 342.5t156.5 302t245.5 214.5t321.5 80q170 0 282.5 -72t168.5 -185t57 -235h-91q-4 104 -51.5 196.5t-139.5 151t-229 58.5q-153 0 -279 -71.5t-216.5 -192.5t-140 -273.5t-49.5 -314.5t57 -275.5
t158.5 -173t233.5 -59.5q139 0 252.5 58.5t193.5 151t119 196.5h92q-31 -92 -91 -179.5t-145 -158t-192 -112.5t-233 -42zM862 1675l222 274h103l-244 -274h-81z" />
    <glyph glyph-name="cacute" unicode="&#x107;" horiz-adv-x="1036" 
d="M455 -19q-134 0 -228 65.5t-137 180.5t-25 264q17 160 93.5 292.5t197 212t269.5 79.5q169 0 271 -101.5t104 -262.5h-88q-5 129 -80 205.5t-209 76.5q-125 0 -225.5 -68t-165 -182.5t-80.5 -254.5q-24 -190 58 -307.5t247 -117.5q135 0 238.5 76.5t155.5 208.5h91
q-37 -108 -109 -191t-169 -129.5t-209 -46.5zM606 1241l222 274h103l-244 -274h-81z" />
    <glyph glyph-name="Ccircumflex" unicode="&#x108;" horiz-adv-x="1394" 
d="M642 -21q-166 0 -286 73.5t-184.5 207t-64.5 312.5q0 175 54.5 342.5t156.5 302t245.5 214.5t321.5 80q170 0 282.5 -72t168.5 -185t57 -235h-91q-4 104 -51.5 196.5t-139.5 151t-229 58.5q-153 0 -279 -71.5t-216.5 -192.5t-140 -273.5t-49.5 -314.5t57 -275.5
t158.5 -173t233.5 -59.5q139 0 252.5 58.5t193.5 151t119 196.5h92q-31 -92 -91 -179.5t-145 -158t-192 -112.5t-233 -42zM717 1667h-96v1l290 273h85l201 -273v-1h-96l-157 215z" />
    <glyph glyph-name="ccircumflex" unicode="&#x109;" horiz-adv-x="1036" 
d="M455 -19q-134 0 -228 65.5t-137 180.5t-25 264q17 160 93.5 292.5t197 212t269.5 79.5q169 0 271 -101.5t104 -262.5h-88q-5 129 -80 205.5t-209 76.5q-125 0 -225.5 -68t-165 -182.5t-80.5 -254.5q-24 -190 58 -307.5t247 -117.5q135 0 238.5 76.5t155.5 208.5h91
q-37 -108 -109 -191t-169 -129.5t-209 -46.5zM461 1233h-96v1l290 273h85l201 -273v-1h-96l-157 215z" />
    <glyph glyph-name="Cdotaccent" unicode="&#x10a;" horiz-adv-x="1394" 
d="M642 -21q-166 0 -286 73.5t-184.5 207t-64.5 312.5q0 175 54.5 342.5t156.5 302t245.5 214.5t321.5 80q170 0 282.5 -72t168.5 -185t57 -235h-91q-4 104 -51.5 196.5t-139.5 151t-229 58.5q-153 0 -279 -71.5t-216.5 -192.5t-140 -273.5t-49.5 -314.5t57 -275.5
t158.5 -173t233.5 -59.5q139 0 252.5 58.5t193.5 151t119 196.5h92q-31 -92 -91 -179.5t-145 -158t-192 -112.5t-233 -42zM921 1742q-29 0 -45.5 20.5t-12.5 49.5q5 29 29 49.5t53 20.5t46 -20.5t12 -49.5q-4 -29 -28.5 -49.5t-53.5 -20.5z" />
    <glyph glyph-name="cdotaccent" unicode="&#x10b;" horiz-adv-x="1036" 
d="M455 -19q-134 0 -228 65.5t-137 180.5t-25 264q17 160 93.5 292.5t197 212t269.5 79.5q169 0 271 -101.5t104 -262.5h-88q-5 129 -80 205.5t-209 76.5q-125 0 -225.5 -68t-165 -182.5t-80.5 -254.5q-24 -190 58 -307.5t247 -117.5q135 0 238.5 76.5t155.5 208.5h91
q-37 -108 -109 -191t-169 -129.5t-209 -46.5zM665 1308q-29 0 -45.5 20.5t-12.5 49.5q5 29 29 49.5t53 20.5t46 -20.5t12 -49.5q-4 -29 -28.5 -49.5t-53.5 -20.5z" />
    <glyph glyph-name="Ccaron" unicode="&#x10c;" horiz-adv-x="1394" 
d="M642 -21q-166 0 -286 73.5t-184.5 207t-64.5 312.5q0 175 54.5 342.5t156.5 302t245.5 214.5t321.5 80q170 0 282.5 -72t168.5 -185t57 -235h-91q-4 104 -51.5 196.5t-139.5 151t-229 58.5q-153 0 -279 -71.5t-216.5 -192.5t-140 -273.5t-49.5 -314.5t57 -275.5
t158.5 -173t233.5 -59.5q139 0 252.5 58.5t193.5 151t119 196.5h92q-31 -92 -91 -179.5t-145 -158t-192 -112.5t-233 -42zM763 1941l155 -216l229 216h96v-1l-293 -273h-85l-198 273v1h96z" />
    <glyph glyph-name="ccaron" unicode="&#x10d;" horiz-adv-x="1036" 
d="M455 -19q-134 0 -228 65.5t-137 180.5t-25 264q17 160 93.5 292.5t197 212t269.5 79.5q169 0 271 -101.5t104 -262.5h-88q-5 129 -80 205.5t-209 76.5q-125 0 -225.5 -68t-165 -182.5t-80.5 -254.5q-24 -190 58 -307.5t247 -117.5q135 0 238.5 76.5t155.5 208.5h91
q-37 -108 -109 -191t-169 -129.5t-209 -46.5zM507 1507l155 -216l229 216h96v-1l-293 -273h-85l-198 273v1h96z" />
    <glyph glyph-name="Dcaron" unicode="&#x10e;" horiz-adv-x="1360" 
d="M501 0h-427l247 1490h443q209 0 344.5 -88.5t188 -254.5t14.5 -398q-58 -354 -268 -551.5t-542 -197.5zM179 84h319q299 0 485 177t237 488q51 308 -60.5 482.5t-392.5 174.5h-369zM616 1941l155 -216l229 216h96v-1l-293 -273h-85l-198 273v1h96z" />
    <glyph glyph-name="dcaron" unicode="&#x10f;" horiz-adv-x="1128" 
d="M446 -17q-177 0 -282.5 115t-105.5 309q0 128 40.5 247t114.5 214t176 150t226 55q137 0 232 -74.5t112 -188.5h1l112 680h87l-246 -1490h-86l39 239h-1q-60 -115 -173.5 -185.5t-245.5 -70.5zM456 64q111 0 198.5 49.5t149 133.5t93.5 188t32 214q0 160 -81.5 251.5
t-225.5 91.5q-109 0 -196.5 -49t-150.5 -132t-96.5 -187t-33.5 -213q0 -165 86 -256t225 -91zM1229 1182l62 378h92l-88 -378h-66z" />
    <glyph glyph-name="Dcroat" unicode="&#x110;" horiz-adv-x="1395" 
d="M536 0h-427l247 1490h443q209 0 344.5 -88.5t188 -254.5t14.5 -398q-58 -354 -268 -551.5t-542 -197.5zM214 84h319q299 0 485 177t237 488q51 308 -60.5 482.5t-392.5 174.5h-369zM-97 718l13 84h746l-14 -84h-745z" />
    <glyph glyph-name="dcroat" unicode="&#x111;" horiz-adv-x="1132" 
d="M446 -17q-177 0 -282.5 115t-105.5 309q0 128 40.5 247t114.5 214t176 150t226 55q137 0 232 -74.5t112 -188.5h1l112 680h87l-246 -1490h-86l39 239h-1q-60 -115 -173.5 -185.5t-245.5 -70.5zM456 64q111 0 198.5 49.5t149 133.5t93.5 188t32 214q0 160 -81.5 251.5
t-225.5 91.5q-109 0 -196.5 -49t-150.5 -132t-96.5 -187t-33.5 -213q0 -165 86 -256t225 -91zM739 1222l12 80h583l-13 -80h-582z" />
    <glyph glyph-name="Emacron" unicode="&#x112;" horiz-adv-x="1158" 
d="M74 0l247 1490h925l-15 -85h-832l-99 -601h761l-14 -84h-762l-105 -636h833l-14 -84h-925zM1088 1840l-13 -77h-493l13 77h493z" />
    <glyph glyph-name="emacron" unicode="&#x113;" horiz-adv-x="1029" 
d="M453 -19q-179 0 -286.5 112t-107.5 323q0 132 42.5 250.5t119 210.5t181.5 145t231 53q165 0 254.5 -87.5t89.5 -213.5q0 -102 -58.5 -162.5t-168 -90.5t-262 -39.5t-340.5 -9.5q-2 -30 -2 -60q0 -155 76 -252t235 -97q134 0 235 69.5t148 180.5h89q-52 -145 -178 -238.5
t-298 -93.5zM160 550q238 1 400.5 15.5t245.5 61.5t83 147q0 90 -65.5 154.5t-196.5 64.5q-126 0 -222.5 -61t-159 -161.5t-85.5 -220.5zM932 1406l-13 -77h-493l13 77h493z" />
    <glyph glyph-name="Ebreve" unicode="&#x114;" horiz-adv-x="1158" 
d="M74 0l247 1490h925l-15 -85h-832l-99 -601h761l-14 -84h-762l-105 -636h833l-14 -84h-925zM811 1657q-75 0 -130.5 36t-81 97t-13.5 135h73q-14 -83 34 -139.5t130 -56.5q83 0 149 56.5t80 139.5h73q-12 -74 -58 -135t-113 -97t-143 -36z" />
    <glyph glyph-name="ebreve" unicode="&#x115;" horiz-adv-x="1029" 
d="M453 -19q-179 0 -286.5 112t-107.5 323q0 132 42.5 250.5t119 210.5t181.5 145t231 53q165 0 254.5 -87.5t89.5 -213.5q0 -102 -58.5 -162.5t-168 -90.5t-262 -39.5t-340.5 -9.5q-2 -30 -2 -60q0 -155 76 -252t235 -97q134 0 235 69.5t148 180.5h89q-52 -145 -178 -238.5
t-298 -93.5zM160 550q238 1 400.5 15.5t245.5 61.5t83 147q0 90 -65.5 154.5t-196.5 64.5q-126 0 -222.5 -61t-159 -161.5t-85.5 -220.5zM655 1223q-75 0 -130.5 36t-81 97t-13.5 135h73q-14 -83 34 -139.5t130 -56.5q83 0 149 56.5t80 139.5h73q-12 -74 -58 -135t-113 -97
t-143 -36z" />
    <glyph glyph-name="Edotaccent" unicode="&#x116;" horiz-adv-x="1158" 
d="M74 0l247 1490h925l-15 -85h-832l-99 -601h761l-14 -84h-762l-105 -636h833l-14 -84h-925zM824 1742q-29 0 -45.5 20.5t-12.5 49.5q5 29 29 49.5t53 20.5t46 -20.5t12 -49.5q-4 -29 -28.5 -49.5t-53.5 -20.5z" />
    <glyph glyph-name="edotaccent" unicode="&#x117;" horiz-adv-x="1029" 
d="M453 -19q-179 0 -286.5 112t-107.5 323q0 132 42.5 250.5t119 210.5t181.5 145t231 53q165 0 254.5 -87.5t89.5 -213.5q0 -102 -58.5 -162.5t-168 -90.5t-262 -39.5t-340.5 -9.5q-2 -30 -2 -60q0 -155 76 -252t235 -97q134 0 235 69.5t148 180.5h89q-52 -145 -178 -238.5
t-298 -93.5zM160 550q238 1 400.5 15.5t245.5 61.5t83 147q0 90 -65.5 154.5t-196.5 64.5q-126 0 -222.5 -61t-159 -161.5t-85.5 -220.5zM669 1308q-29 0 -45.5 20.5t-12.5 49.5q5 29 29 49.5t53 20.5t46 -20.5t12 -49.5q-4 -29 -28.5 -49.5t-53.5 -20.5z" />
    <glyph glyph-name="Eogonek" unicode="&#x118;" horiz-adv-x="1158" 
d="M74 0l247 1490h925l-15 -85h-832l-99 -601h761l-14 -84h-762l-105 -636h833l-14 -84h-925zM862 -418q-101 0 -140.5 45.5t-27.5 119.5q13 78 75.5 144.5t185.5 147.5l44 -39q-109 -82 -158 -135.5t-58 -107.5q-6 -41 15 -68.5t95 -27.5h44l-12 -79h-63z" />
    <glyph glyph-name="eogonek" unicode="&#x119;" horiz-adv-x="1029" 
d="M453 -19q-179 0 -286.5 112t-107.5 323q0 132 42.5 250.5t119 210.5t181.5 145t231 53q165 0 254.5 -87.5t89.5 -213.5q0 -102 -58.5 -162.5t-168 -90.5t-262 -39.5t-340.5 -9.5q-2 -30 -2 -60q0 -155 76 -252t235 -97q134 0 235 69.5t148 180.5h89q-52 -145 -178 -238.5
t-298 -93.5zM160 550q238 1 400.5 15.5t245.5 61.5t83 147q0 90 -65.5 154.5t-196.5 64.5q-126 0 -222.5 -61t-159 -161.5t-85.5 -220.5zM663 -348q-106 0 -145.5 45t-27.5 119q14 82 73.5 157t129.5 150l235 184q-40 -66 -95.5 -129t-110 -122.5t-94.5 -116.5t-49 -112
q-7 -41 14.5 -68.5t100.5 -27.5h66l-13 -79h-84z" />
    <glyph glyph-name="Ecaron" unicode="&#x11a;" horiz-adv-x="1158" 
d="M74 0l247 1490h925l-15 -85h-832l-99 -601h761l-14 -84h-762l-105 -636h833l-14 -84h-925zM666 1941l155 -216l229 216h96v-1l-293 -273h-85l-198 273v1h96z" />
    <glyph glyph-name="ecaron" unicode="&#x11b;" horiz-adv-x="1029" 
d="M453 -19q-179 0 -286.5 112t-107.5 323q0 132 42.5 250.5t119 210.5t181.5 145t231 53q165 0 254.5 -87.5t89.5 -213.5q0 -102 -58.5 -162.5t-168 -90.5t-262 -39.5t-340.5 -9.5q-2 -30 -2 -60q0 -155 76 -252t235 -97q134 0 235 69.5t148 180.5h89q-52 -145 -178 -238.5
t-298 -93.5zM160 550q238 1 400.5 15.5t245.5 61.5t83 147q0 90 -65.5 154.5t-196.5 64.5q-126 0 -222.5 -61t-159 -161.5t-85.5 -220.5zM511 1507l155 -216l229 216h96v-1l-293 -273h-85l-198 273v1h96z" />
    <glyph glyph-name="Gcircumflex" unicode="&#x11c;" horiz-adv-x="1422" 
d="M643 -21q-167 0 -287 73.5t-184.5 207t-64.5 312.5q0 174 54.5 341.5t156 302.5t244.5 215t321 80q127 0 222.5 -42.5t159 -113.5t96 -158.5t32.5 -177.5h-91q-2 101 -48.5 194t-139.5 152.5t-234 59.5q-159 0 -285 -74t-215 -197.5t-136 -275t-47 -306.5
q0 -230 117.5 -368.5t331.5 -138.5q150 0 274.5 68t209.5 191t115 288h-473l14 84h564l-15 -86q-32 -188 -129 -330.5t-242 -221.5t-321 -79zM711 1667h-96v1l290 273h85l201 -273v-1h-96l-157 215z" />
    <glyph glyph-name="gcircumflex" unicode="&#x11d;" horiz-adv-x="1131" 
d="M400 -429q-184 0 -283.5 82t-100.5 235h86q8 -117 81 -176.5t219 -59.5q178 0 288.5 95.5t135.5 254.5l39 238h-1q-61 -114 -172.5 -185.5t-246.5 -71.5q-176 0 -281.5 115t-105.5 309q0 126 40 245t113.5 214t175.5 151t227 56q139 0 232.5 -73t112.5 -190h1l41 246h86
l-175 -1061q-35 -207 -172.5 -315.5t-339.5 -108.5zM456 64q110 0 197 50t149 133.5t94.5 188t32.5 213.5q0 160 -81.5 251.5t-226.5 91.5q-107 0 -194.5 -49t-150 -132t-96.5 -187t-34 -215q0 -164 84 -254.5t226 -90.5zM462 1233h-96v1l290 273h85l201 -273v-1h-96
l-157 215z" />
    <glyph glyph-name="Gbreve" unicode="&#x11e;" horiz-adv-x="1422" 
d="M643 -21q-167 0 -287 73.5t-184.5 207t-64.5 312.5q0 174 54.5 341.5t156 302.5t244.5 215t321 80q127 0 222.5 -42.5t159 -113.5t96 -158.5t32.5 -177.5h-91q-2 101 -48.5 194t-139.5 152.5t-234 59.5q-159 0 -285 -74t-215 -197.5t-136 -275t-47 -306.5
q0 -230 117.5 -368.5t331.5 -138.5q150 0 274.5 68t209.5 191t115 288h-473l14 84h564l-15 -86q-32 -188 -129 -330.5t-242 -221.5t-321 -79zM901 1657q-75 0 -130.5 36t-81 97t-13.5 135h73q-14 -83 34 -139.5t130 -56.5q83 0 149 56.5t80 139.5h73q-12 -74 -58 -135
t-113 -97t-143 -36z" />
    <glyph glyph-name="gbreve" unicode="&#x11f;" horiz-adv-x="1131" 
d="M400 -429q-184 0 -283.5 82t-100.5 235h86q8 -117 81 -176.5t219 -59.5q178 0 288.5 95.5t135.5 254.5l39 238h-1q-61 -114 -172.5 -185.5t-246.5 -71.5q-176 0 -281.5 115t-105.5 309q0 126 40 245t113.5 214t175.5 151t227 56q139 0 232.5 -73t112.5 -190h1l41 246h86
l-175 -1061q-35 -207 -172.5 -315.5t-339.5 -108.5zM456 64q110 0 197 50t149 133.5t94.5 188t32.5 213.5q0 160 -81.5 251.5t-226.5 91.5q-107 0 -194.5 -49t-150 -132t-96.5 -187t-34 -215q0 -164 84 -254.5t226 -90.5zM652 1223q-75 0 -130.5 36t-81 97t-13.5 135h73
q-14 -83 34 -139.5t130 -56.5q83 0 149 56.5t80 139.5h73q-12 -74 -58 -135t-113 -97t-143 -36z" />
    <glyph glyph-name="Gdotaccent" unicode="&#x120;" horiz-adv-x="1422" 
d="M643 -21q-167 0 -287 73.5t-184.5 207t-64.5 312.5q0 174 54.5 341.5t156 302.5t244.5 215t321 80q127 0 222.5 -42.5t159 -113.5t96 -158.5t32.5 -177.5h-91q-2 101 -48.5 194t-139.5 152.5t-234 59.5q-159 0 -285 -74t-215 -197.5t-136 -275t-47 -306.5
q0 -230 117.5 -368.5t331.5 -138.5q150 0 274.5 68t209.5 191t115 288h-473l14 84h564l-15 -86q-32 -188 -129 -330.5t-242 -221.5t-321 -79zM915 1742q-29 0 -45.5 20.5t-12.5 49.5q5 29 29 49.5t53 20.5t46 -20.5t12 -49.5q-4 -29 -28.5 -49.5t-53.5 -20.5z" />
    <glyph glyph-name="gdotaccent" unicode="&#x121;" horiz-adv-x="1131" 
d="M400 -429q-184 0 -283.5 82t-100.5 235h86q8 -117 81 -176.5t219 -59.5q178 0 288.5 95.5t135.5 254.5l39 238h-1q-61 -114 -172.5 -185.5t-246.5 -71.5q-176 0 -281.5 115t-105.5 309q0 126 40 245t113.5 214t175.5 151t227 56q139 0 232.5 -73t112.5 -190h1l41 246h86
l-175 -1061q-35 -207 -172.5 -315.5t-339.5 -108.5zM456 64q110 0 197 50t149 133.5t94.5 188t32.5 213.5q0 160 -81.5 251.5t-226.5 91.5q-107 0 -194.5 -49t-150 -132t-96.5 -187t-34 -215q0 -164 84 -254.5t226 -90.5zM666 1308q-29 0 -45.5 20.5t-12.5 49.5
q5 29 29 49.5t53 20.5t46 -20.5t12 -49.5q-4 -29 -28.5 -49.5t-53.5 -20.5z" />
    <glyph glyph-name="uni0122" unicode="&#x122;" horiz-adv-x="1422" 
d="M643 -21q-167 0 -287 73.5t-184.5 207t-64.5 312.5q0 174 54.5 341.5t156 302.5t244.5 215t321 80q127 0 222.5 -42.5t159 -113.5t96 -158.5t32.5 -177.5h-91q-2 101 -48.5 194t-139.5 152.5t-234 59.5q-159 0 -285 -74t-215 -197.5t-136 -275t-47 -306.5
q0 -230 117.5 -368.5t331.5 -138.5q150 0 274.5 68t209.5 191t115 288h-473l14 84h564l-15 -86q-32 -188 -129 -330.5t-242 -221.5t-321 -79zM408 -494l153 376h92l-177 -376h-68z" />
    <glyph glyph-name="uni0123" unicode="&#x123;" horiz-adv-x="1131" 
d="M400 -429q-184 0 -283.5 82t-100.5 235h86q8 -117 81 -176.5t219 -59.5q178 0 288.5 95.5t135.5 254.5l39 238h-1q-61 -114 -172.5 -185.5t-246.5 -71.5q-176 0 -281.5 115t-105.5 309q0 126 40 245t113.5 214t175.5 151t227 56q139 0 232.5 -73t112.5 -190h1l41 246h86
l-175 -1061q-35 -207 -172.5 -315.5t-339.5 -108.5zM456 64q110 0 197 50t149 133.5t94.5 188t32.5 213.5q0 160 -81.5 251.5t-226.5 91.5q-107 0 -194.5 -49t-150 -132t-96.5 -187t-34 -215q0 -164 84 -254.5t226 -90.5zM609 1218l15 90q11 70 42.5 123t66.5 91t57 61
l54 -48q-38 -45 -81.5 -97.5t-56.5 -132.5l-14 -87h-83z" />
    <glyph glyph-name="Hcircumflex" unicode="&#x124;" horiz-adv-x="1403" 
d="M74 0l247 1490h92l-113 -686h896l114 686h91l-247 -1490h-91l119 720h-897l-119 -720h-92zM699 1667h-96v1l290 273h85l201 -273v-1h-96l-157 215z" />
    <glyph glyph-name="hcircumflex" unicode="&#x125;" horiz-adv-x="1086" 
d="M242 665l-110 -665h-88l247 1490h88l-103 -615q66 100 163.5 149t207.5 49q112 0 194 -47.5t120.5 -136t17.5 -212.5l-112 -677h-87l111 673q25 148 -47 233t-213 85q-95 0 -177.5 -39.5t-139 -112.5t-72.5 -174zM172 1667h-96v1l290 273h85l201 -273v-1h-96l-157 215z
" />
    <glyph glyph-name="Hbar" unicode="&#x126;" horiz-adv-x="1427" 
d="M1467 1112l-14 -83h-115l-170 -1029h-91l119 720h-897l-119 -720h-92l171 1029h-120l14 83h120l62 378h92l-62 -378h896l63 378h91l-63 -378h115zM1248 1029h-897l-37 -225h896z" />
    <glyph glyph-name="hbar" unicode="&#x127;" horiz-adv-x="1086" 
d="M242 665l-110 -665h-88l247 1490h88l-103 -615q66 100 163.5 149t207.5 49q112 0 194 -47.5t120.5 -136t17.5 -212.5l-112 -677h-87l111 673q25 148 -47 233t-213 85q-95 0 -177.5 -39.5t-139 -112.5t-72.5 -174zM44 1222l12 80h583l-13 -80h-582z" />
    <glyph glyph-name="Itilde" unicode="&#x128;" horiz-adv-x="414" 
d="M412 1490l-247 -1490h-91l247 1490h91zM534 1718q-53 0 -89 26.5t-67 52.5t-70 26q-42 0 -71 -28t-40 -72h-72q18 75 67 124t117 49q59 0 94.5 -26.5t64 -53.5t67.5 -27q73 0 108 98h71q-22 -78 -70 -123.5t-110 -45.5z" />
    <glyph glyph-name="itilde" unicode="&#x129;" horiz-adv-x="351" 
d="M44 0l175 1056h88l-175 -1056h-88zM430 1284q-53 0 -89 26.5t-67 52.5t-70 26q-42 0 -71 -28t-40 -72h-72q18 75 67 124t117 49q59 0 94.5 -26.5t64 -53.5t67.5 -27q73 0 108 98h71q-22 -78 -70 -123.5t-110 -45.5z" />
    <glyph glyph-name="Imacron" unicode="&#x12a;" horiz-adv-x="414" 
d="M412 1490l-247 -1490h-91l247 1490h91zM671 1840l-13 -77h-493l13 77h493z" />
    <glyph glyph-name="imacron" unicode="&#x12b;" horiz-adv-x="351" 
d="M44 0l175 1056h88l-175 -1056h-88zM567 1406l-13 -77h-493l13 77h493z" />
    <glyph glyph-name="Ibreve" unicode="&#x12c;" horiz-adv-x="414" 
d="M412 1490l-247 -1490h-91l247 1490h91zM394 1657q-75 0 -130.5 36t-81 97t-13.5 135h73q-14 -83 34 -139.5t130 -56.5q83 0 149 56.5t80 139.5h73q-12 -74 -58 -135t-113 -97t-143 -36z" />
    <glyph glyph-name="ibreve" unicode="&#x12d;" horiz-adv-x="351" 
d="M44 0l175 1056h88l-175 -1056h-88zM290 1223q-75 0 -130.5 36t-81 97t-13.5 135h73q-14 -83 34 -139.5t130 -56.5q83 0 149 56.5t80 139.5h73q-12 -74 -58 -135t-113 -97t-143 -36z" />
    <glyph glyph-name="Iogonek" unicode="&#x12e;" horiz-adv-x="414" 
d="M412 1490l-247 -1490h-91l247 1490h91zM28 -418q-101 0 -140.5 45.5t-27.5 119.5q13 78 75.5 144.5t185.5 147.5l44 -39q-109 -82 -158 -135.5t-58 -107.5q-6 -41 15 -68.5t95 -27.5h44l-12 -79h-63z" />
    <glyph glyph-name="iogonek" unicode="&#x12f;" horiz-adv-x="351" 
d="M44 0l175 1056h88l-175 -1056h-88zM-5 -418q-101 0 -140.5 45.5t-27.5 119.5q13 78 75.5 144.5t185.5 147.5l44 -39q-109 -82 -158 -135.5t-58 -107.5q-6 -41 15 -68.5t95 -27.5h44l-12 -79h-63zM304 1308q-29 0 -45.5 20.5t-12.5 49.5q5 29 29 49.5t53 20.5t46 -20.5
t12 -49.5q-4 -29 -28.5 -49.5t-53.5 -20.5z" />
    <glyph glyph-name="Idotaccent" unicode="&#x130;" horiz-adv-x="414" 
d="M412 1490l-247 -1490h-91l247 1490h91zM408 1742q-29 0 -45.5 20.5t-12.5 49.5q5 29 29 49.5t53 20.5t46 -20.5t12 -49.5q-4 -29 -28.5 -49.5t-53.5 -20.5z" />
    <glyph glyph-name="dotlessi" unicode="&#x131;" horiz-adv-x="351" 
d="M44 0l175 1056h88l-175 -1056h-88z" />
    <glyph glyph-name="IJ" unicode="&#x132;" horiz-adv-x="1469" 
d="M412 1490l-247 -1490h-91l247 1490h91zM840 -20q-163 0 -259 88.5t-96 247.5q0 21 3 52.5t16 108.5h90q-12 -75 -15 -104.5t-3 -48.5q0 -123 68.5 -191.5t196.5 -68.5q147 0 248 90.5t128 250.5l179 1085h92l-180 -1085q-33 -199 -158 -312t-310 -113z" />
    <glyph glyph-name="ij" unicode="&#x133;" horiz-adv-x="706" 
d="M44 0l175 1056h88l-175 -1056h-88zM304 1308q-29 0 -45.5 20.5t-12.5 49.5q5 29 29 49.5t53 20.5t46 -20.5t12 -49.5q-4 -29 -28.5 -49.5t-53.5 -20.5zM574 1056h87l-201 -1213q-19 -118 -106 -189.5t-200 -71.5h-37l13 81h32q77 0 137 48.5t75 139.5zM659 1308
q-29 0 -45.5 20.5t-12.5 49.5q5 29 29 49.5t53 20.5t46 -20.5t12 -49.5q-4 -29 -28.5 -49.5t-53.5 -20.5z" />
    <glyph glyph-name="Jcircumflex" unicode="&#x134;" horiz-adv-x="1055" 
d="M426 -20q-163 0 -259 88.5t-96 247.5q0 21 3 52.5t16 108.5h90q-12 -75 -15 -104.5t-3 -48.5q0 -123 68.5 -191.5t196.5 -68.5q147 0 248 90.5t128 250.5l179 1085h92l-180 -1085q-33 -199 -158 -312t-310 -113zM865 1667h-96v1l290 273h85l201 -273v-1h-96l-157 215z
" />
    <glyph glyph-name="jcircumflex" unicode="&#x135;" horiz-adv-x="355" 
d="M223 1056h87l-201 -1213q-19 -118 -106 -189.5t-200 -71.5h-37l13 81h32q77 0 137 48.5t75 139.5zM104 1233h-96v1l290 273h85l201 -273v-1h-96l-157 215z" />
    <glyph glyph-name="uni0136" unicode="&#x136;" horiz-adv-x="1180" 
d="M74 0l247 1490h91l-87 -526l-53 -315q89 82 173 159.5t175 160.5l569 521h125l-710 -647l462 -843h-101l-429 784l-284 -260l-87 -524h-91zM313 -494l153 376h92l-177 -376h-68z" />
    <glyph glyph-name="uni0137" unicode="&#x137;" horiz-adv-x="912" 
d="M44 0l247 1490h88l-157 -942h5l602 508h117l-521 -440l396 -616h-112l-358 559l-147 -121l-72 -438h-88zM191 -494l153 376h92l-177 -376h-68z" />
    <glyph glyph-name="kgreenlandic" unicode="&#x138;" horiz-adv-x="931" 
d="M307 1056l-81 -484h106l563 484h116l-612 -528l439 -528h-112l-410 490h-103l-81 -490h-88l175 1056h88z" />
    <glyph glyph-name="Lacute" unicode="&#x139;" horiz-adv-x="1062" 
d="M74 0l247 1490h92l-233 -1406h752l-14 -84h-844zM349 1675l222 274h103l-244 -274h-81z" />
    <glyph glyph-name="lacute" unicode="&#x13a;" horiz-adv-x="351" 
d="M379 1490l-247 -1490h-88l247 1490h88zM317 1675l222 274h103l-244 -274h-81z" />
    <glyph glyph-name="uni013B" unicode="&#x13b;" horiz-adv-x="1062" 
d="M74 0l247 1490h92l-233 -1406h752l-14 -84h-844zM264 -494l153 376h92l-177 -376h-68z" />
    <glyph glyph-name="uni013C" unicode="&#x13c;" horiz-adv-x="351" 
d="M379 1490l-247 -1490h-88l247 1490h88zM-131 -494l153 376h92l-177 -376h-68z" />
    <glyph glyph-name="Lcaron" unicode="&#x13d;" horiz-adv-x="1041" 
d="M74 0l247 1490h92l-233 -1406h752l-14 -84h-844zM678 1182l62 378h92l-88 -378h-66z" />
    <glyph glyph-name="lcaron" unicode="&#x13e;" horiz-adv-x="397" 
d="M379 1490l-247 -1490h-88l247 1490h88zM468 1182l62 378h92l-88 -378h-66z" />
    <glyph glyph-name="Ldot" unicode="&#x13f;" horiz-adv-x="1023" 
d="M70 0l247 1490h92l-233 -1406h752l-14 -84h-844zM654 705q-29 0 -45.5 20.5t-12.5 49.5q5 29 29 49.5t53 20.5t46 -20.5t12 -49.5q-4 -29 -28.5 -49.5t-53.5 -20.5z" />
    <glyph glyph-name="ldot" unicode="&#x140;" horiz-adv-x="501" 
d="M379 1490l-247 -1490h-88l247 1490h88zM447 667q-34 0 -54.5 24.5t-14.5 59.5q5 30 29 51t55 21q34 0 54.5 -24.5t14.5 -59.5q-5 -30 -29 -51t-55 -21z" />
    <glyph glyph-name="Lslash" unicode="&#x141;" horiz-adv-x="1062" 
d="M74 0l247 1490h92l-233 -1406h752l-14 -84h-844zM139 587l16 96l787 415l-16 -96z" />
    <glyph glyph-name="lslash" unicode="&#x142;" horiz-adv-x="351" 
d="M379 1490l-247 -1490h-88l247 1490h88zM-3 729l14 88l466 247l-14 -88z" />
    <glyph glyph-name="Nacute" unicode="&#x143;" horiz-adv-x="1454" 
d="M74 0l247 1490h91l580 -1077q34 -63 71.5 -137t75.5 -148q10 72 21.5 150t21.5 137l179 1075h90l-247 -1490h-90l-562 1040q-36 65 -77.5 147.5t-87.5 176.5q-15 -97 -27 -178t-23 -145l-172 -1041h-91zM868 1675l222 274h103l-244 -274h-81z" />
    <glyph glyph-name="nacute" unicode="&#x144;" horiz-adv-x="1085" 
d="M241 661l-109 -661h-88l174 1056h86l-29 -181q67 101 166 149.5t208 48.5q114 0 195 -48.5t118 -138t16 -212.5l-111 -674h-87l111 677q24 147 -46 230.5t-209 83.5q-96 0 -180 -40.5t-141 -114.5t-74 -175zM613 1241l222 274h103l-244 -274h-81z" />
    <glyph glyph-name="uni0145" unicode="&#x145;" horiz-adv-x="1454" 
d="M74 0l247 1490h91l580 -1077q34 -63 71.5 -137t75.5 -148q10 72 21.5 150t21.5 137l179 1075h90l-247 -1490h-90l-562 1040q-36 65 -77.5 147.5t-87.5 176.5q-15 -97 -27 -178t-23 -145l-172 -1041h-91zM420 -494l153 376h92l-177 -376h-68z" />
    <glyph glyph-name="uni0146" unicode="&#x146;" horiz-adv-x="1085" 
d="M241 661l-109 -661h-88l174 1056h86l-29 -181q67 101 166 149.5t208 48.5q114 0 195 -48.5t118 -138t16 -212.5l-111 -674h-87l111 677q24 147 -46 230.5t-209 83.5q-96 0 -180 -40.5t-141 -114.5t-74 -175zM236 -494l153 376h92l-177 -376h-68z" />
    <glyph glyph-name="Ncaron" unicode="&#x147;" horiz-adv-x="1454" 
d="M74 0l247 1490h91l580 -1077q34 -63 71.5 -137t75.5 -148q10 72 21.5 150t21.5 137l179 1075h90l-247 -1490h-90l-562 1040q-36 65 -77.5 147.5t-87.5 176.5q-15 -97 -27 -178t-23 -145l-172 -1041h-91zM769 1941l155 -216l229 216h96v-1l-293 -273h-85l-198 273v1h96z
" />
    <glyph glyph-name="ncaron" unicode="&#x148;" horiz-adv-x="1085" 
d="M241 661l-109 -661h-88l174 1056h86l-29 -181q67 101 166 149.5t208 48.5q114 0 195 -48.5t118 -138t16 -212.5l-111 -674h-87l111 677q24 147 -46 230.5t-209 83.5q-96 0 -180 -40.5t-141 -114.5t-74 -175zM514 1507l155 -216l229 216h96v-1l-293 -273h-85l-198 273v1
h96z" />
    <glyph glyph-name="Eng" unicode="&#x14a;" horiz-adv-x="1454" 
d="M833 -418l14 83h81q69 0 105 31t48 103l33 202l-562 1039q-36 65 -77.5 147.5t-87.5 176.5q-15 -97 -27 -178t-23 -145l-172 -1041h-91l247 1490h91l580 -1077q34 -62 71.5 -136t74.5 -149h1q10 73 21.5 150.5t21.5 136.5l179 1075h90l-246 -1484l-34 -209
q-36 -215 -253 -215h-85z" />
    <glyph glyph-name="eng" unicode="&#x14b;" horiz-adv-x="1085" 
d="M496 -418l13 83h85q69 0 105 31t48 103l33 201l111 677q24 147 -46 230.5t-209 83.5q-96 0 -180 -40.5t-141 -114.5t-74 -175l-109 -661h-88l174 1056h86l-29 -181q67 101 166 149.5t208 48.5q114 0 195 -48.5t118 -138t16 -212.5l-111 -674l-33 -203q-36 -215 -253 -215
h-85z" />
    <glyph glyph-name="Omacron" unicode="&#x14c;" horiz-adv-x="1446" 
d="M638 -21q-164 0 -283 74t-183.5 208t-64.5 312q0 174 54.5 341t156.5 302t244.5 215t318.5 80q163 0 282 -74t183 -208t64 -313q0 -174 -54.5 -341t-155.5 -301.5t-243.5 -214.5t-318.5 -80zM642 65q155 0 280.5 73.5t214 196t136 273.5t47.5 306q0 237 -120.5 374
t-321.5 137q-157 0 -282.5 -73.5t-214.5 -196.5t-136.5 -274t-47.5 -306q0 -236 120 -373t325 -137zM1187 1840l-13 -77h-493l13 77h493z" />
    <glyph glyph-name="omacron" unicode="&#x14d;" horiz-adv-x="1080" 
d="M454 -19q-184 0 -290 119.5t-106 311.5q0 125 41.5 243.5t117 213t180 150.5t231.5 56q183 0 288 -120t105 -312q0 -125 -41 -243.5t-116.5 -213t-179.5 -150t-230 -55.5zM455 63q109 0 197 49.5t151.5 132.5t97 186.5t33.5 213.5q0 160 -80 254t-228 94q-108 0 -196 -49
t-152 -132.5t-98 -187t-34 -213.5q0 -160 81 -254t228 -94zM932 1406l-13 -77h-493l13 77h493z" />
    <glyph glyph-name="Obreve" unicode="&#x14e;" horiz-adv-x="1446" 
d="M638 -21q-164 0 -283 74t-183.5 208t-64.5 312q0 174 54.5 341t156.5 302t244.5 215t318.5 80q163 0 282 -74t183 -208t64 -313q0 -174 -54.5 -341t-155.5 -301.5t-243.5 -214.5t-318.5 -80zM642 65q155 0 280.5 73.5t214 196t136 273.5t47.5 306q0 237 -120.5 374
t-321.5 137q-157 0 -282.5 -73.5t-214.5 -196.5t-136.5 -274t-47.5 -306q0 -236 120 -373t325 -137zM910 1657q-75 0 -130.5 36t-81 97t-13.5 135h73q-14 -83 34 -139.5t130 -56.5q83 0 149 56.5t80 139.5h73q-12 -74 -58 -135t-113 -97t-143 -36z" />
    <glyph glyph-name="obreve" unicode="&#x14f;" horiz-adv-x="1080" 
d="M454 -19q-184 0 -290 119.5t-106 311.5q0 125 41.5 243.5t117 213t180 150.5t231.5 56q183 0 288 -120t105 -312q0 -125 -41 -243.5t-116.5 -213t-179.5 -150t-230 -55.5zM455 63q109 0 197 49.5t151.5 132.5t97 186.5t33.5 213.5q0 160 -80 254t-228 94q-108 0 -196 -49
t-152 -132.5t-98 -187t-34 -213.5q0 -160 81 -254t228 -94zM655 1223q-75 0 -130.5 36t-81 97t-13.5 135h73q-14 -83 34 -139.5t130 -56.5q83 0 149 56.5t80 139.5h73q-12 -74 -58 -135t-113 -97t-143 -36z" />
    <glyph glyph-name="Ohungarumlaut" unicode="&#x150;" horiz-adv-x="1446" 
d="M638 -21q-164 0 -283 74t-183.5 208t-64.5 312q0 174 54.5 341t156.5 302t244.5 215t318.5 80q163 0 282 -74t183 -208t64 -313q0 -174 -54.5 -341t-155.5 -301.5t-243.5 -214.5t-318.5 -80zM642 65q155 0 280.5 73.5t214 196t136 273.5t47.5 306q0 237 -120.5 374
t-321.5 137q-157 0 -282.5 -73.5t-214.5 -196.5t-136.5 -274t-47.5 -306q0 -236 120 -373t325 -137zM1057 1626h-79l195 298h102zM822 1626h-77l161 298h101z" />
    <glyph glyph-name="ohungarumlaut" unicode="&#x151;" horiz-adv-x="1080" 
d="M454 -19q-184 0 -290 119.5t-106 311.5q0 125 41.5 243.5t117 213t180 150.5t231.5 56q183 0 288 -120t105 -312q0 -125 -41 -243.5t-116.5 -213t-179.5 -150t-230 -55.5zM455 63q109 0 197 49.5t151.5 132.5t97 186.5t33.5 213.5q0 160 -80 254t-228 94q-108 0 -196 -49
t-152 -132.5t-98 -187t-34 -213.5q0 -160 81 -254t228 -94zM802 1192h-79l195 298h102zM567 1192h-77l161 298h101z" />
    <glyph glyph-name="OE" unicode="&#x152;" horiz-adv-x="1898" 
d="M647 0q-199 0 -329 92.5t-182 260.5t-15 392q38 225 144.5 392.5t266 260t354.5 92.5h1099l-14 -85h-833l-99 -601h762l-15 -84h-761l-105 -636h832l-14 -84h-1091zM828 84l219 1321h-171q-170 0 -308.5 -81.5t-231 -230t-126.5 -348.5q-32 -198 11 -346.5t155 -231.5
t288 -83h164z" />
    <glyph glyph-name="oe" unicode="&#x153;" horiz-adv-x="1898" 
d="M454 -19q-184 0 -290 119.5t-106 311.5q0 125 41.5 243.5t117 213t180 150.5t231.5 56q183 0 288 -120t105 -312q0 -125 -41 -243.5t-116.5 -213t-179.5 -150t-230 -55.5zM455 63q109 0 197 49.5t151.5 132.5t97 186.5t33.5 213.5q0 160 -80 254t-228 94q-108 0 -196 -49
t-152 -132.5t-98 -187t-34 -213.5q0 -160 81 -254t228 -94zM1322 -19q-179 0 -286.5 112t-107.5 323q0 132 42.5 250.5t119 210.5t181.5 145t231 53q165 0 254.5 -87.5t89.5 -213.5q0 -102 -58.5 -162.5t-168 -90.5t-262 -39.5t-340.5 -9.5q-2 -30 -2 -60q0 -155 76 -252
t235 -97q134 0 235 69.5t148 180.5h89q-52 -145 -178 -238.5t-298 -93.5zM1029 550q238 1 400.5 15.5t245.5 61.5t83 147q0 90 -65.5 154.5t-196.5 64.5q-126 0 -222.5 -61t-159 -161.5t-85.5 -220.5z" />
    <glyph glyph-name="Racute" unicode="&#x154;" horiz-adv-x="1221" 
d="M74 0l247 1490h506q135 0 228.5 -54t135 -151.5t19.5 -229.5q-27 -162 -134 -272t-261 -145l236 -638h-96l-229 625q-22 -2 -45 -2h-413l-103 -623h-91zM282 707h411q109 0 199.5 44t150.5 123t77 184q27 160 -55.5 254t-245.5 94h-421zM751 1675l222 274h103l-244 -274
h-81z" />
    <glyph glyph-name="racute" unicode="&#x155;" horiz-adv-x="579" 
d="M44 0l175 1056h85l-31 -187h2q50 90 142 143t201 53q14 0 22 -0.5t18 -1.5l-15 -87q-7 1 -19.5 2.5t-30.5 1.5q-128 0 -227.5 -84t-122.5 -226l-111 -670h-88zM435 1241l222 274h103l-244 -274h-81z" />
    <glyph glyph-name="uni0156" unicode="&#x156;" horiz-adv-x="1221" 
d="M74 0l247 1490h506q135 0 228.5 -54t135 -151.5t19.5 -229.5q-27 -162 -134 -272t-261 -145l236 -638h-96l-229 625q-22 -2 -45 -2h-413l-103 -623h-91zM282 707h411q109 0 199.5 44t150.5 123t77 184q27 160 -55.5 254t-245.5 94h-421zM308 -494l153 376h92l-177 -376
h-68z" />
    <glyph glyph-name="uni0157" unicode="&#x157;" horiz-adv-x="579" 
d="M44 0l175 1056h85l-31 -187h2q50 90 142 143t201 53q14 0 22 -0.5t18 -1.5l-15 -87q-7 1 -19.5 2.5t-30.5 1.5q-128 0 -227.5 -84t-122.5 -226l-111 -670h-88zM-131 -494l153 376h92l-177 -376h-68z" />
    <glyph glyph-name="Rcaron" unicode="&#x158;" horiz-adv-x="1221" 
d="M74 0l247 1490h506q135 0 228.5 -54t135 -151.5t19.5 -229.5q-27 -162 -134 -272t-261 -145l236 -638h-96l-229 625q-22 -2 -45 -2h-413l-103 -623h-91zM282 707h411q109 0 199.5 44t150.5 123t77 184q27 160 -55.5 254t-245.5 94h-421zM652 1941l155 -216l229 216h96v-1
l-293 -273h-85l-198 273v1h96z" />
    <glyph glyph-name="rcaron" unicode="&#x159;" horiz-adv-x="579" 
d="M44 0l175 1056h85l-31 -187h2q50 90 142 143t201 53q14 0 22 -0.5t18 -1.5l-15 -87q-7 1 -19.5 2.5t-30.5 1.5q-128 0 -227.5 -84t-122.5 -226l-111 -670h-88zM336 1507l155 -216l229 216h96v-1l-293 -273h-85l-198 273v1h96z" />
    <glyph glyph-name="Sacute" unicode="&#x15a;" horiz-adv-x="1171" 
d="M500 -23q-224 0 -340.5 114.5t-92.5 301.5h91q-18 -155 73.5 -242.5t270.5 -87.5q124 0 223 41t163 115t80 173q18 109 -44 179t-228 122l-161 49q-184 56 -261.5 148t-53.5 230q19 115 92 203.5t185.5 139t247.5 50.5q138 0 233 -53t139.5 -147t29.5 -218h-88
q14 152 -70.5 242t-249.5 90q-109 0 -201 -41t-153.5 -112t-76.5 -162q-17 -103 44.5 -171.5t214.5 -115.5l161 -50q192 -58 273 -152.5t57 -239.5q-20 -120 -95.5 -211.5t-194.5 -143t-268 -51.5zM725 1675l222 274h103l-244 -274h-81z" />
    <glyph glyph-name="sacute" unicode="&#x15b;" horiz-adv-x="934" 
d="M386 -17q-161 0 -253 75t-92 210q0 26 3 48h86q-14 -124 54.5 -189t201.5 -65q93 0 171.5 33.5t126 93t47.5 136.5q0 61 -46 92t-130 51l-172 42q-119 30 -182.5 83.5t-63.5 142.5q0 101 57.5 177t152 118t205.5 42q152 0 237.5 -74.5t85.5 -210.5q0 -25 -3 -47h-85
q13 123 -48 188t-187 65q-87 0 -161.5 -32t-120 -89t-45.5 -132q0 -61 47 -96.5t136 -56.5l173 -42q116 -28 177 -78t61 -136q0 -106 -60 -184.5t-158 -121.5t-215 -43zM539 1241l222 274h103l-244 -274h-81z" />
    <glyph glyph-name="Scircumflex" unicode="&#x15c;" horiz-adv-x="1171" 
d="M500 -23q-224 0 -340.5 114.5t-92.5 301.5h91q-18 -155 73.5 -242.5t270.5 -87.5q124 0 223 41t163 115t80 173q18 109 -44 179t-228 122l-161 49q-184 56 -261.5 148t-53.5 230q19 115 92 203.5t185.5 139t247.5 50.5q138 0 233 -53t139.5 -147t29.5 -218h-88
q14 152 -70.5 242t-249.5 90q-109 0 -201 -41t-153.5 -112t-76.5 -162q-17 -103 44.5 -171.5t214.5 -115.5l161 -50q192 -58 273 -152.5t57 -239.5q-20 -120 -95.5 -211.5t-194.5 -143t-268 -51.5zM580 1667h-96v1l290 273h85l201 -273v-1h-96l-157 215z" />
    <glyph glyph-name="scircumflex" unicode="&#x15d;" horiz-adv-x="934" 
d="M386 -17q-161 0 -253 75t-92 210q0 26 3 48h86q-14 -124 54.5 -189t201.5 -65q93 0 171.5 33.5t126 93t47.5 136.5q0 61 -46 92t-130 51l-172 42q-119 30 -182.5 83.5t-63.5 142.5q0 101 57.5 177t152 118t205.5 42q152 0 237.5 -74.5t85.5 -210.5q0 -25 -3 -47h-85
q13 123 -48 188t-187 65q-87 0 -161.5 -32t-120 -89t-45.5 -132q0 -61 47 -96.5t136 -56.5l173 -42q116 -28 177 -78t61 -136q0 -106 -60 -184.5t-158 -121.5t-215 -43zM394 1233h-96v1l290 273h85l201 -273v-1h-96l-157 215z" />
    <glyph glyph-name="Scedilla" unicode="&#x15e;" horiz-adv-x="1171" 
d="M500 -23q-224 0 -340.5 114.5t-92.5 301.5h91q-18 -155 73.5 -242.5t270.5 -87.5q124 0 223 41t163 115t80 173q18 109 -44 179t-228 122l-161 49q-184 56 -261.5 148t-53.5 230q19 115 92 203.5t185.5 139t247.5 50.5q138 0 233 -53t139.5 -147t29.5 -218h-88
q14 152 -70.5 242t-249.5 90q-109 0 -201 -41t-153.5 -112t-76.5 -162q-17 -103 44.5 -171.5t214.5 -115.5l161 -50q192 -58 273 -152.5t57 -239.5q-20 -120 -95.5 -211.5t-194.5 -143t-268 -51.5zM332 -418l11 65h104q123 0 139 96q16 97 -112 97h-65l67 188h54l1 -28
l-33 -97q88 -3 131.5 -45.5t31.5 -114.5q-13 -77 -73.5 -119t-150.5 -42h-105z" />
    <glyph glyph-name="scedilla" unicode="&#x15f;" horiz-adv-x="934" 
d="M386 -17q-161 0 -253 75t-92 210q0 26 3 48h86q-14 -124 54.5 -189t201.5 -65q93 0 171.5 33.5t126 93t47.5 136.5q0 61 -46 92t-130 51l-172 42q-119 30 -182.5 83.5t-63.5 142.5q0 101 57.5 177t152 118t205.5 42q152 0 237.5 -74.5t85.5 -210.5q0 -25 -3 -47h-85
q13 123 -48 188t-187 65q-87 0 -161.5 -32t-120 -89t-45.5 -132q0 -61 47 -96.5t136 -56.5l173 -42q116 -28 177 -78t61 -136q0 -106 -60 -184.5t-158 -121.5t-215 -43zM217 -418l11 65h104q123 0 139 96q16 97 -112 97h-65l67 188h54l1 -28l-33 -97q88 -3 131.5 -45.5
t31.5 -114.5q-13 -77 -73.5 -119t-150.5 -42h-105z" />
    <glyph glyph-name="Scaron" unicode="&#x160;" horiz-adv-x="1171" 
d="M500 -23q-224 0 -340.5 114.5t-92.5 301.5h91q-18 -155 73.5 -242.5t270.5 -87.5q124 0 223 41t163 115t80 173q18 109 -44 179t-228 122l-161 49q-184 56 -261.5 148t-53.5 230q19 115 92 203.5t185.5 139t247.5 50.5q138 0 233 -53t139.5 -147t29.5 -218h-88
q14 152 -70.5 242t-249.5 90q-109 0 -201 -41t-153.5 -112t-76.5 -162q-17 -103 44.5 -171.5t214.5 -115.5l161 -50q192 -58 273 -152.5t57 -239.5q-20 -120 -95.5 -211.5t-194.5 -143t-268 -51.5zM626 1941l155 -216l229 216h96v-1l-293 -273h-85l-198 273v1h96z" />
    <glyph glyph-name="scaron" unicode="&#x161;" horiz-adv-x="934" 
d="M386 -17q-161 0 -253 75t-92 210q0 26 3 48h86q-14 -124 54.5 -189t201.5 -65q93 0 171.5 33.5t126 93t47.5 136.5q0 61 -46 92t-130 51l-172 42q-119 30 -182.5 83.5t-63.5 142.5q0 101 57.5 177t152 118t205.5 42q152 0 237.5 -74.5t85.5 -210.5q0 -25 -3 -47h-85
q13 123 -48 188t-187 65q-87 0 -161.5 -32t-120 -89t-45.5 -132q0 -61 47 -96.5t136 -56.5l173 -42q116 -28 177 -78t61 -136q0 -106 -60 -184.5t-158 -121.5t-215 -43zM440 1507l155 -216l229 216h96v-1l-293 -273h-85l-198 273v1h96z" />
    <glyph glyph-name="uni021A" unicode="&#x162;" horiz-adv-x="1222" 
d="M202 1406l15 84h1107l-14 -84h-508l-233 -1406h-91l233 1406h-509zM356 -418l11 65h104q123 0 139 96q16 97 -112 97h-65l67 188h54l1 -28l-33 -97q88 -3 131.5 -45.5t31.5 -114.5q-13 -77 -73.5 -119t-150.5 -42h-105z" />
    <glyph glyph-name="uni0163" unicode="&#x163;" horiz-adv-x="528" 
d="M578 1056l-13 -79h-226l-125 -758q-12 -76 14.5 -108t104.5 -32h84l-13 -79h-90q-223 0 -188 213l126 764h-173l14 79h172l48 288h87l-48 -288h226zM80 -418l11 65h104q123 0 139 96q16 97 -112 97h-65l67 188h54l1 -28l-33 -97q88 -3 131.5 -45.5t31.5 -114.5
q-13 -77 -73.5 -119t-150.5 -42h-105z" />
    <glyph glyph-name="Tcaron" unicode="&#x164;" horiz-adv-x="1222" 
d="M202 1406l15 84h1107l-14 -84h-508l-233 -1406h-91l233 1406h-509zM653 1941l155 -216l229 216h96v-1l-293 -273h-85l-198 273v1h96z" />
    <glyph glyph-name="tcaron" unicode="&#x165;" horiz-adv-x="528" 
d="M578 1056l-13 -79h-226l-125 -758q-12 -76 14.5 -108t104.5 -32h84l-13 -79h-90q-223 0 -188 213l126 764h-173l14 79h172l48 288h87l-48 -288h226zM510 1182l62 378h92l-88 -378h-66z" />
    <glyph glyph-name="Tbar" unicode="&#x166;" horiz-adv-x="1222" 
d="M202 1406l15 84h1107l-14 -84h-508l-233 -1406h-91l233 1406h-509zM272 726l13 84h746l-14 -84h-745z" />
    <glyph glyph-name="tbar" unicode="&#x167;" horiz-adv-x="529" 
d="M526 745l-12 -79h-225l-74 -447q-12 -76 14.5 -108t104.5 -32h84l-13 -79h-90q-223 0 -188 213l75 453h-174l13 79h174l38 232h-173l14 79h172l48 288h87l-48 -288h226l-13 -79h-226l-38 -232h224z" />
    <glyph glyph-name="Utilde" unicode="&#x168;" horiz-adv-x="1381" 
d="M606 -19q-162 0 -276 69.5t-166 189.5t-27 272l162 978h91l-162 -980q-21 -128 20 -228t134 -157t227 -57q136 0 251 58.5t191 160t98 230.5l161 973h90l-162 -985q-25 -152 -115 -270t-224 -186t-293 -68zM1017 1718q-53 0 -89 26.5t-67 52.5t-70 26q-42 0 -71 -28
t-40 -72h-72q18 75 67 124t117 49q59 0 94.5 -26.5t64 -53.5t67.5 -27q73 0 108 98h71q-22 -78 -70 -123.5t-110 -45.5z" />
    <glyph glyph-name="utilde" unicode="&#x169;" horiz-adv-x="1086" 
d="M436 -17q-112 0 -193.5 47.5t-118.5 136t-17 212.5l112 677h88l-112 -673q-25 -148 47 -233t213 -85q95 0 177.5 39.5t139 113t73.5 173.5l110 665h87l-175 -1056h-86l31 184q-67 -102 -166 -151.5t-210 -49.5zM798 1284q-53 0 -89 26.5t-67 52.5t-70 26q-42 0 -71 -28
t-40 -72h-72q18 75 67 124t117 49q59 0 94.5 -26.5t64 -53.5t67.5 -27q73 0 108 98h71q-22 -78 -70 -123.5t-110 -45.5z" />
    <glyph glyph-name="Umacron" unicode="&#x16a;" horiz-adv-x="1381" 
d="M606 -19q-162 0 -276 69.5t-166 189.5t-27 272l162 978h91l-162 -980q-21 -128 20 -228t134 -157t227 -57q136 0 251 58.5t191 160t98 230.5l161 973h90l-162 -985q-25 -152 -115 -270t-224 -186t-293 -68zM1154 1840l-13 -77h-493l13 77h493z" />
    <glyph glyph-name="umacron" unicode="&#x16b;" horiz-adv-x="1086" 
d="M436 -17q-112 0 -193.5 47.5t-118.5 136t-17 212.5l112 677h88l-112 -673q-25 -148 47 -233t213 -85q95 0 177.5 39.5t139 113t73.5 173.5l110 665h87l-175 -1056h-86l31 184q-67 -102 -166 -151.5t-210 -49.5zM935 1406l-13 -77h-493l13 77h493z" />
    <glyph glyph-name="Ubreve" unicode="&#x16c;" horiz-adv-x="1381" 
d="M606 -19q-162 0 -276 69.5t-166 189.5t-27 272l162 978h91l-162 -980q-21 -128 20 -228t134 -157t227 -57q136 0 251 58.5t191 160t98 230.5l161 973h90l-162 -985q-25 -152 -115 -270t-224 -186t-293 -68zM877 1657q-75 0 -130.5 36t-81 97t-13.5 135h73
q-14 -83 34 -139.5t130 -56.5q83 0 149 56.5t80 139.5h73q-12 -74 -58 -135t-113 -97t-143 -36z" />
    <glyph glyph-name="ubreve" unicode="&#x16d;" horiz-adv-x="1086" 
d="M436 -17q-112 0 -193.5 47.5t-118.5 136t-17 212.5l112 677h88l-112 -673q-25 -148 47 -233t213 -85q95 0 177.5 39.5t139 113t73.5 173.5l110 665h87l-175 -1056h-86l31 184q-67 -102 -166 -151.5t-210 -49.5zM658 1223q-75 0 -130.5 36t-81 97t-13.5 135h73
q-14 -83 34 -139.5t130 -56.5q83 0 149 56.5t80 139.5h73q-12 -74 -58 -135t-113 -97t-143 -36z" />
    <glyph glyph-name="Uring" unicode="&#x16e;" horiz-adv-x="1381" 
d="M606 -19q-162 0 -276 69.5t-166 189.5t-27 272l162 978h91l-162 -980q-21 -128 20 -228t134 -157t227 -57q136 0 251 58.5t191 160t98 230.5l161 973h90l-162 -985q-25 -152 -115 -270t-224 -186t-293 -68zM880 1634q-79 0 -126 54t-34 130q12 71 72.5 121.5t134.5 50.5
q79 0 126 -54t34 -130q-11 -71 -72 -121.5t-135 -50.5zM884 1705q47 0 85 32t46 77q7 44 -20 74.5t-72 30.5q-47 0 -85 -32t-45 -77q-8 -44 19 -74.5t72 -30.5z" />
    <glyph glyph-name="uring" unicode="&#x16f;" horiz-adv-x="1086" 
d="M436 -17q-112 0 -193.5 47.5t-118.5 136t-17 212.5l112 677h88l-112 -673q-25 -148 47 -233t213 -85q95 0 177.5 39.5t139 113t73.5 173.5l110 665h87l-175 -1056h-86l31 184q-67 -102 -166 -151.5t-210 -49.5zM655 1200q-78 0 -123 51.5t-33 126.5q13 75 75 126.5
t140 51.5q77 0 122 -51.5t33 -126.5q-13 -75 -75 -126.5t-139 -51.5zM659 1271q51 0 89.5 31t46.5 81q8 45 -16.5 73.5t-68.5 28.5q-52 0 -90.5 -31t-46.5 -81q-8 -45 16.5 -73.5t69.5 -28.5z" />
    <glyph glyph-name="Uhungarumlaut" unicode="&#x170;" horiz-adv-x="1381" 
d="M606 -19q-162 0 -276 69.5t-166 189.5t-27 272l162 978h91l-162 -980q-21 -128 20 -228t134 -157t227 -57q136 0 251 58.5t191 160t98 230.5l161 973h90l-162 -985q-25 -152 -115 -270t-224 -186t-293 -68zM1024 1626h-79l195 298h102zM789 1626h-77l161 298h101z" />
    <glyph glyph-name="uhungarumlaut" unicode="&#x171;" horiz-adv-x="1086" 
d="M436 -17q-112 0 -193.5 47.5t-118.5 136t-17 212.5l112 677h88l-112 -673q-25 -148 47 -233t213 -85q95 0 177.5 39.5t139 113t73.5 173.5l110 665h87l-175 -1056h-86l31 184q-67 -102 -166 -151.5t-210 -49.5zM805 1192h-79l195 298h102zM570 1192h-77l161 298h101z" />
    <glyph glyph-name="Uogonek" unicode="&#x172;" horiz-adv-x="1381" 
d="M606 -19q-162 0 -276 69.5t-166 189.5t-27 272l162 978h91l-162 -980q-21 -128 20 -228t134 -157t227 -57q136 0 251 58.5t191 160t98 230.5l161 973h90l-162 -985q-25 -152 -115 -270t-224 -186t-293 -68zM622 -418q-89 0 -136 43.5t-34 121.5q13 77 65.5 129.5
t129 94.5t161.5 85t164 101t137 142.5t79 209.5l50 -4q-22 -128 -78 -218.5t-131.5 -153.5t-156 -109t-152 -85.5t-119.5 -82t-58 -99.5q-16 -96 111 -96h44l-13 -79h-63z" />
    <glyph glyph-name="uogonek" unicode="&#x173;" horiz-adv-x="1086" 
d="M436 -17q-112 0 -193.5 47.5t-118.5 136t-17 212.5l112 677h88l-112 -673q-25 -148 47 -233t213 -85q95 0 177.5 39.5t139 113t73.5 173.5l110 665h87l-175 -1056h-86l31 184q-67 -102 -166 -151.5t-210 -49.5zM730 -418q-101 0 -140.5 45.5t-27.5 119.5
q13 78 75.5 144.5t185.5 147.5l44 -39q-109 -82 -158 -135.5t-58 -107.5q-6 -41 15 -68.5t95 -27.5h44l-12 -79h-63z" />
    <glyph glyph-name="Wcircumflex" unicode="&#x174;" horiz-adv-x="1855" 
d="M349 0l-170 1490h89l118 -1069q9 -83 17 -167t15 -168q34 84 69.5 168t72.5 167l465 1069h115l111 -1069q9 -83 16.5 -166.5t14.5 -166.5q69 167 142 333l472 1069h98l-665 -1490h-116l-113 1056q-9 84 -16.5 167.5t-14.5 166.5q-35 -83 -70 -166.5t-71 -167.5
l-462 -1056h-117zM923 1667h-96v1l290 273h85l201 -273v-1h-96l-157 215z" />
    <glyph glyph-name="wcircumflex" unicode="&#x175;" horiz-adv-x="1495" 
d="M260 0l-140 1056h88l83 -667q9 -73 16.5 -147t15.5 -148q34 74 67.5 148t68.5 147l323 667h97l101 -667q11 -72 20 -146t19 -147q32 73 64.5 147t65.5 146l305 667h95l-490 -1056h-102l-113 736q-7 53 -13.5 107.5t-13.5 108.5q-24 -54 -48.5 -108.5t-50.5 -107.5
l-357 -736h-101zM673 1233h-96v1l290 273h85l201 -273v-1h-96l-157 215z" />
    <glyph glyph-name="Ycircumflex" unicode="&#x176;" horiz-adv-x="1252" 
d="M493 0l112 675l-426 815h100l258 -493q31 -59 61 -119t60 -119q49 59 99 119t100 119l421 493h113l-695 -815l-112 -675h-91zM622 1667h-96v1l290 273h85l201 -273v-1h-96l-157 215z" />
    <glyph glyph-name="ycircumflex" unicode="&#x177;" horiz-adv-x="1015" 
d="M-36 -418l13 81h94q69 0 110 32t96 128l99 175l-256 1058h90l162 -683q16 -68 31.5 -136t30.5 -136q37 68 75 136t77 136l385 683h97l-718 -1262q-66 -117 -131 -164.5t-161 -47.5h-94zM429 1233h-96v1l290 273h85l201 -273v-1h-96l-157 215z" />
    <glyph glyph-name="Ydieresis" unicode="&#x178;" horiz-adv-x="1252" 
d="M493 0l112 675l-426 815h100l258 -493q31 -59 61 -119t60 -119q49 59 99 119t100 119l421 493h113l-695 -815l-112 -675h-91zM1030 1742q-29 0 -45.5 20.5t-12.5 49.5q5 29 29 49.5t53 20.5t46 -20.5t12 -49.5q-4 -29 -28.5 -49.5t-53.5 -20.5zM622 1742q-29 0 -46 20.5
t-13 49.5q5 29 29 49.5t53 20.5t46 -20.5t12 -49.5q-4 -29 -28 -49.5t-53 -20.5z" />
    <glyph glyph-name="Zacute" unicode="&#x179;" horiz-adv-x="1147" 
d="M6 0l12 74l1068 1331h-846l14 85h960l-13 -76l-1068 -1330h853l-14 -84h-966zM715 1675l222 274h103l-244 -274h-81z" />
    <glyph glyph-name="zacute" unicode="&#x17a;" horiz-adv-x="937" 
d="M-3 0l13 74l799 899v2h-644l14 81h756l-13 -77l-796 -896v-2h653l-14 -81h-768zM539 1241l222 274h103l-244 -274h-81z" />
    <glyph glyph-name="Zdotaccent" unicode="&#x17b;" horiz-adv-x="1147" 
d="M6 0l12 74l1068 1331h-846l14 85h960l-13 -76l-1068 -1330h853l-14 -84h-966zM774 1742q-29 0 -45.5 20.5t-12.5 49.5q5 29 29 49.5t53 20.5t46 -20.5t12 -49.5q-4 -29 -28.5 -49.5t-53.5 -20.5z" />
    <glyph glyph-name="zdotaccent" unicode="&#x17c;" horiz-adv-x="937" 
d="M-3 0l13 74l799 899v2h-644l14 81h756l-13 -77l-796 -896v-2h653l-14 -81h-768zM598 1308q-29 0 -45.5 20.5t-12.5 49.5q5 29 29 49.5t53 20.5t46 -20.5t12 -49.5q-4 -29 -28.5 -49.5t-53.5 -20.5z" />
    <glyph glyph-name="Zcaron" unicode="&#x17d;" horiz-adv-x="1147" 
d="M6 0l12 74l1068 1331h-846l14 85h960l-13 -76l-1068 -1330h853l-14 -84h-966zM616 1941l155 -216l229 216h96v-1l-293 -273h-85l-198 273v1h96z" />
    <glyph glyph-name="zcaron" unicode="&#x17e;" horiz-adv-x="937" 
d="M-3 0l13 74l799 899v2h-644l14 81h756l-13 -77l-796 -896v-2h653l-14 -81h-768zM440 1507l155 -216l229 216h96v-1l-293 -273h-85l-198 273v1h96z" />
    <glyph glyph-name="longs" unicode="&#x17f;" horiz-adv-x="446" 
d="M-162 -418h-80l15 84h66q81 0 121 34t53 113l243 1462q36 215 262 215h87l-13 -79h-77q-79 0 -119.5 -34t-53.5 -111l-241 -1453q-19 -115 -81 -173t-182 -58z" />
    <glyph glyph-name="bbar" unicode="&#x180;" horiz-adv-x="1132" 
d="M517 -17q-137 0 -228.5 72t-117.5 189h-1l-40 -244h-86l246 1490h88l-112 -676h1q55 118 170 188.5t249 70.5q176 0 282 -116t106 -311q0 -124 -39.5 -242.5t-113 -213.5t-176 -151t-228.5 -56zM509 64q109 0 197 49t150.5 132t96 187t33.5 213q0 165 -85.5 256
t-225.5 91q-111 0 -198.5 -50t-149 -134.5t-93.5 -188.5t-32 -212q0 -160 81.5 -251.5t225.5 -91.5zM44 1222l12 80h583l-13 -80h-582z" />
    <glyph glyph-name="uni0181" unicode="&#x181;" horiz-adv-x="1460" 
d="M123 1095l28 170q37 225 263 225h593q207 0 316 -105t79 -285q-21 -129 -109.5 -216.5t-202.5 -120.5v-1q79 -14 143.5 -60t96.5 -122.5t15 -181.5q-30 -180 -172.5 -289t-371.5 -109h-527l246 1490l-14 -84h-104q-143 0 -165 -143l-28 -168h-86zM378 84h432
q184 0 302 88t143 235q16 97 -24 166t-120.5 105.5t-187.5 36.5h-440zM497 799h431q98 0 180.5 41.5t136.5 111.5t68 156q24 142 -62 220t-251 78h-402z" />
    <glyph glyph-name="uni0182" unicode="&#x182;" horiz-adv-x="1230" 
d="M74 0l246 1490h840l-15 -85h-748l-98 -600h467q202 1 304 -107.5t73 -286.5q-31 -190 -164 -300.5t-347 -110.5h-558zM179 83h467q168 1 275 92.5t132 237.5q23 137 -57.5 222.5t-244.5 85.5h-467z" />
    <glyph glyph-name="uni0183" unicode="&#x183;" horiz-adv-x="1132" 
d="M517 -17q-137 0 -228.5 72t-117.5 189h-1l-40 -244h-86l246 1490h730l-13 -81h-643l-98 -595h1q55 118 170 188.5t249 70.5q176 0 282 -116t106 -311q0 -124 -39.5 -242.5t-113 -213.5t-176 -151t-228.5 -56zM509 64q109 0 197 49t150.5 132t96 187t33.5 213
q0 165 -85.5 256t-225.5 91q-111 0 -198.5 -50t-149 -134.5t-93.5 -188.5t-32 -212q0 -160 81.5 -251.5t225.5 -91.5z" />
    <glyph glyph-name="uni0184" unicode="&#x184;" horiz-adv-x="1241" 
d="M437 805h468q201 1 303 -107.5t73 -286.5q-32 -190 -165 -300.5t-346 -110.5h-558l234 1405h-342l15 85h430zM423 721l-105 -638h468q166 1 273 92.5t132 237.5q22 137 -58 222.5t-242 85.5h-468z" />
    <glyph glyph-name="uni0185" unicode="&#x185;" horiz-adv-x="1063" 
d="M306 1536h45l-8 -46h62l-102 -622h9q55 107 157 186.5t245 78.5q135 1 223 -73.5t122 -205t6 -298.5q-28 -169 -105 -299.5t-189.5 -205t-247.5 -75.5q-143 1 -219 80t-97 188h-12l-40 -244h-86l174 1048h-18l-87 226l6 37zM976 557q23 140 -0.5 252t-92.5 177t-184 65
q-114 0 -207 -64t-156.5 -176t-86.5 -254q-23 -143 0 -255.5t92 -177.5t183 -65q115 0 208.5 66t157 178.5t86.5 253.5z" />
    <glyph glyph-name="uni0186" unicode="&#x186;" horiz-adv-x="1394" 
d="M824 1511q167 0 286.5 -73.5t184 -207t64.5 -312.5q0 -175 -54.5 -342.5t-156.5 -302t-245 -214.5t-321 -80q-170 0 -282.5 72t-169 185t-57.5 235h91q5 -104 52 -196.5t139 -151t230 -58.5q153 0 278.5 71.5t216.5 192.5t140 273.5t49 314.5t-57 275.5t-158 173
t-233 59.5q-140 0 -253.5 -58.5t-193 -151t-118.5 -196.5h-93q31 92 91 179.5t145 158t192.5 112.5t232.5 42z" />
    <glyph glyph-name="uni0187" unicode="&#x187;" horiz-adv-x="1394" 
d="M642 -21q-166 0 -286 73.5t-184.5 207t-64.5 312.5q0 175 54.5 342.5t156.5 302t245.5 214.5t321.5 80q176 0 290.5 -78t168.5 -194l37 222q35 215 252 215h82l-13 -80h-82q-69 0 -105 -31t-48 -104l-74 -442v0v0h-91q-4 104 -51.5 196.5t-139.5 151t-229 58.5
q-153 0 -279 -71.5t-216.5 -192.5t-140 -273.5t-49.5 -314.5t57 -275.5t158.5 -173t233.5 -59.5q139 0 252.5 58.5t193.5 151t119 196.5h92q-31 -92 -91 -179.5t-145 -158t-192 -112.5t-233 -42z" />
    <glyph glyph-name="uni0188" unicode="&#x188;" horiz-adv-x="1036" 
d="M455 -19q-134 0 -228 65.5t-137 180.5t-25 264q17 160 93.5 292.5t197 212t269.5 79.5q111 0 194 -45.5t130 -124.5l13 89q31 215 251 215h82l-14 -80h-81q-70 0 -106 -31.5t-48 -103.5l-46 -282v0v-1h-88q-5 129 -80 205.5t-209 76.5q-125 0 -225.5 -68t-165 -182.5
t-80.5 -254.5q-24 -190 58 -307.5t247 -117.5q135 0 238.5 76.5t155.5 208.5h91q-37 -108 -109 -191t-169 -129.5t-209 -46.5z" />
    <glyph glyph-name="Dbar1" unicode="&#x189;" horiz-adv-x="1395" 
d="M536 0h-427l247 1490h443q209 0 344.5 -88.5t188 -254.5t14.5 -398q-58 -354 -268 -551.5t-542 -197.5zM214 84h319q299 0 485 177t237 488q51 308 -60.5 482.5t-392.5 174.5h-369zM-97 718l13 84h746l-14 -84h-745z" />
    <glyph glyph-name="uni018A" unicode="&#x18a;" horiz-adv-x="1560" 
d="M124 1095l28 170q37 225 263 225h549q209 0 344.5 -88.5t188 -254.5t14.5 -398q-58 -354 -267.5 -551.5t-542.5 -197.5h-427l247 1490l-14 -84h-104q-143 0 -165 -143l-28 -168h-86zM379 84h319q299 0 485 177t237 488q51 308 -60.5 482.5t-392.5 174.5h-369z" />
    <glyph glyph-name="uni018B" unicode="&#x18b;" horiz-adv-x="1131" 
d="M973 0h-557q-203 0 -304 115.5t-70 300.5q30 181 165 286.5t344 104.5h458l95 584h-738l15 88h838zM889 86l104 635h-458q-163 -1 -266 -85t-125 -217q-25 -150 47 -241.5t240 -91.5h458z" />
    <glyph glyph-name="uni018C" unicode="&#x18c;" horiz-adv-x="1132" 
d="M446 -17q-177 0 -282.5 115t-105.5 309q0 128 40.5 247t114.5 214t176 150t226 55q137 0 232 -74.5t112 -188.5h1l99 599h-643l13 81h730l-246 -1490h-86l39 239h-1q-60 -115 -173.5 -185.5t-245.5 -70.5zM456 64q111 0 198.5 49.5t149 133.5t93.5 188t32 214
q0 160 -81.5 251.5t-225.5 91.5q-109 0 -196.5 -49t-150.5 -132t-96.5 -187t-33.5 -213q0 -165 86 -256t225 -91z" />
    <glyph glyph-name="deltaturn" unicode="&#x18d;" horiz-adv-x="898" 
d="M607 -376h-640l15 83l502 -1q-48 68 -116.5 153t-166.5 199q-114 126 -165.5 253t-32.5 267l4 21q22 163 96.5 283t187.5 186t252 65q136 1 226 -66t126.5 -188t11.5 -282l-2 -20q-21 -138 -94 -247t-183 -174t-243 -71q-24 0 -46 1.5t-52 5.5q105 -124 187 -221.5
t144 -185.5zM807 577l2 20q33 207 -39.5 329.5t-240.5 122.5q-110 0 -199.5 -56t-148.5 -157.5t-78 -236.5l-2 -21q-16 -114 15.5 -210t109.5 -190q79 -20 147 -21q111 0 202.5 55.5t152 150t79.5 214.5z" />
    <glyph glyph-name="Eturn" unicode="&#x18e;" horiz-adv-x="1158" 
d="M1156 1490l-247 -1490h-924l14 85h832l100 601h-762l14 84h762l105 636h-832l14 84h924z" />
    <glyph glyph-name="uni018F" unicode="&#x18f;" horiz-adv-x="1421" 
d="M617 -21q-175 0 -299 80t-179.5 223t-23.5 331l13 83h1144q5 24 9 48q34 203 -9.5 356t-153 239t-273.5 86q-138 0 -252 -59.5t-193.5 -152.5t-115.5 -194h-92q30 90 90.5 177.5t147 158.5t195 113.5t235.5 42.5q189 0 317 -96.5t180 -269.5t14 -401
q-37 -226 -142.5 -398.5t-263 -269.5t-348.5 -97zM1251 612h-1047q-26 -166 21 -289t152 -190.5t254 -67.5q147 0 270.5 68.5t213 191.5t136.5 287z" />
    <glyph glyph-name="Epsilon1" unicode="&#x190;" horiz-adv-x="1134" 
d="M476 -21q-144 0 -246.5 55t-150.5 150.5t-28 214.5q23 139 133.5 240t273.5 129l2 2q-133 35 -198 129.5t-44 219.5q19 114 90.5 202.5t180 139t237.5 50.5q132 0 226 -53t138 -146t24 -215h-88q24 149 -60.5 240t-244.5 91q-107 0 -195.5 -40.5t-146.5 -112t-73 -163.5
q-23 -139 75 -221t268 -82h56l-14 -85h-54q-129 0 -235.5 -41t-176 -115t-85.5 -173q-16 -95 21 -170.5t119 -119t202 -43.5q117 0 215.5 43t163.5 120t82 179h91q-20 -124 -99.5 -220t-198.5 -150.5t-260 -54.5z" />
    <glyph glyph-name="uni0191" unicode="&#x191;" horiz-adv-x="1106" 
d="M-206 -418l13 83h82q69 0 104.5 31t47.5 103l54 329h1l225 1362h887l-14 -84h-796l-100 -602h714l-14 -84h-714l-118 -713l-34 -210q-36 -215 -253 -215h-85z" />
    <glyph glyph-name="florin" unicode="&#x192;" horiz-adv-x="563" 
d="M609 1077l-13 -82h-200l-187 -1127q-22 -135 -113.5 -211t-210.5 -75q-51 -1 -94 15l27 80q16 -6 39 -8.5t42 -2.5q75 0 139 53.5t79 148.5l187 1127h-193l14 82h192l32 187q23 138 116 215t206 77q68 0 114 -19l-39 -82q-15 6 -32.5 9.5t-41.5 3.5q-84 0 -150 -53
t-81 -151l-32 -187h200z" />
    <glyph glyph-name="uni0193" unicode="&#x193;" horiz-adv-x="1422" 
d="M643 -21q-167 0 -287 73.5t-184.5 207t-64.5 312.5q0 174 54.5 341.5t156 302.5t244.5 215t321 80q176 0 291 -79t170 -194l37 223q35 215 252 215h82l-13 -80h-82q-69 0 -105 -31t-48 -104l-74 -442v0v0h-91q-2 101 -48.5 194t-139.5 152.5t-234 59.5q-159 0 -285 -74
t-215 -197.5t-136 -275t-47 -306.5q0 -230 117.5 -368.5t331.5 -138.5q150 0 274.5 68t209.5 191t115 288h-473l14 84h564l-15 -86q-32 -188 -129 -330.5t-242 -221.5t-321 -79z" />
    <glyph glyph-name="Gamma1" unicode="&#x194;" horiz-adv-x="1029" 
d="M83 1490h100l292 -1204l692 1204h100l-764 -1322l6 -26q8 -32 15 -60.5t13 -53.5q31 -125 43.5 -186.5t6.5 -99.5q-13 -82 -75.5 -133t-156.5 -51q-95 0 -141 51t-32 133q5 31 25 73t62.5 115.5t114.5 196.5l25 45zM438 56q-84 -147 -122 -216t-43 -102q-7 -40 19 -67.5
t77 -27.5q48 0 83.5 28t42.5 67q5 32 -8 99.5t-49 218.5z" />
    <glyph glyph-name="uni0195" unicode="&#x195;" horiz-adv-x="1793" 
d="M44 0l246 1490h88l-91 -549h9q55 87 149.5 139t214.5 52q170 0 258.5 -105.5t58.5 -289.5l-23 -136v0l-27 -160q-34 -209 18.5 -294t164.5 -85q184 0 323 229.5t219 718.5l18 108h89l-19 -119q-87 -518 -253.5 -768t-393.5 -250q-156 0 -224.5 111.5t-29.5 348.5l13 74v0
l36 218q23 143 -48 229.5t-211 87.5q-94 0 -173.5 -41t-134 -114t-70.5 -171l-119 -724h-88z" />
    <glyph glyph-name="Iota" unicode="&#x196;" horiz-adv-x="397" 
d="M252 0q-108 0 -150 47.5t-25 149.5l214 1293h88l-214 -1287q-11 -69 11.5 -96.5t91.5 -27.5h27l-14 -79h-29z" />
    <glyph glyph-name="uni0197" unicode="&#x197;" horiz-adv-x="485" 
d="M447 1490l-247 -1490h-91l247 1490h91zM38 729l13 78h476l-13 -78h-476z" />
    <glyph glyph-name="uni0198" unicode="&#x198;" horiz-adv-x="1247" 
d="M74 0l247 1490h92l-144 -865h10l846 789q78 75 167.5 84t142.5 -47l-56 -65q-90 70 -202 -36l-611 -565l558 -785h-115l-513 720l-250 -235l-80 -485h-92z" />
    <glyph glyph-name="uni0199" unicode="&#x199;" horiz-adv-x="912" 
d="M178 807l41 250l30 177q35 215 254 215h82l-14 -80h-81q-70 0 -106 -31.5t-48 -103.5l-29 -178l-85 -508h5l602 508h117l-521 -440l396 -616h-112l-358 559l-147 -121l-72 -438h-88l134 807v0z" />
    <glyph glyph-name="uni019A" unicode="&#x19a;" horiz-adv-x="351" 
d="M379 1490l-247 -1490h-88l247 1490h88zM-81 728l12 80h583l-13 -80h-582z" />
    <glyph glyph-name="lambdabar" unicode="&#x19b;" horiz-adv-x="1144" 
d="M704 1431l-17 -92l-93 -38l222 -1072q19 -91 39 -123t57 -32q18 1 43 5l-1 -82q-26 -10 -67 -11q-68 0 -104 39.5t-61 159.5l-158 755l-490 -940h-110l572 1077l-38 185l-269 -109l16 90l233 95q-18 47 -48.5 67t-76.5 21q-30 1 -72 -8l2 79q21 6 49 9.5t52 3.5
q80 -1 124.5 -32.5t66.5 -99.5z" />
    <glyph glyph-name="mcapturn" unicode="&#x19c;" horiz-adv-x="1646" 
d="M1368 155q-58 -80 -144.5 -125.5t-190.5 -45.5q-121 0 -195.5 57.5t-93.5 167.5q-57 -104 -153 -164.5t-218 -60.5q-164 0 -240.5 105t-43.5 302l182 1099h97l-182 -1099q-26 -161 31 -241t181 -80q122 0 214 78t130 201q2 21 5 42l182 1099h97l-182 -1099
q-26 -160 31.5 -240.5t181.5 -80.5q121 0 212 78t129 200l189 1142h98l-248 -1490h-90z" />
    <glyph glyph-name="Nhook" unicode="&#x19d;" horiz-adv-x="1454" 
d="M-206 -418l13 83h82q69 0 104.5 31t47.5 103l54 329h1l225 1362h91l580 -1077q34 -63 71.5 -137t75.5 -148q10 72 21.5 150t21.5 137l179 1075h90l-247 -1490h-90l-562 1040q-36 65 -77.5 147.5t-87.5 176.5q-15 -97 -27 -178t-23 -145l-171 -1035l-34 -209
q-36 -215 -253 -215h-85z" />
    <glyph glyph-name="uni019E" unicode="&#x19e;" horiz-adv-x="1086" 
d="M242 665l-110 -665h-88l175 1056h86l-30 -184q66 102 165.5 151.5t210.5 49.5q112 0 193.5 -47.5t118.5 -136t16 -212.5l-181 -1095h-87l180 1091q25 148 -42 233t-208 85q-95 0 -180 -39.5t-144 -112.5t-75 -174z" />
    <glyph glyph-name="Obar" unicode="&#x19f;" horiz-adv-x="1446" 
d="M638 -21q-164 0 -283 74t-183.5 208t-64.5 312q0 174 54.5 341t156.5 302t244.5 215t318.5 80q163 0 282 -74t183 -208t64 -313q0 -174 -54.5 -341t-155.5 -301.5t-243.5 -214.5t-318.5 -80zM220 787h1092q8 63 8 127q0 237 -120.5 374t-321.5 137q-130 0 -239 -51.5
t-193.5 -141t-141.5 -204.5t-84 -241zM642 65q129 0 237.5 51.5t192.5 140.5t141.5 204t84.5 242h-1092q-9 -65 -9 -128q0 -236 120 -373t325 -137z" />
    <glyph glyph-name="Ohorn" unicode="&#x1a0;" horiz-adv-x="1445" 
d="M638 -21q-164 0 -283 74t-183.5 208t-64.5 312q0 174 54.5 341t156.5 302t244.5 215t318.5 80h4v0q62 0 103.5 -3t86.5 -7.5t114 -7.5t185 -3q57 0 67 57l30 183h87l-29 -179q-23 -138 -162 -138q-57 0 -99 1t-76 4q104 -76 161 -205t57 -297q0 -174 -54.5 -341
t-155.5 -301.5t-243.5 -214.5t-318.5 -80zM642 65q155 0 280.5 73.5t214 196t136 273.5t47.5 306q0 237 -120.5 374t-321.5 137q-157 0 -282.5 -73.5t-214.5 -196.5t-136.5 -274t-47.5 -306q0 -236 120 -373t325 -137z" />
    <glyph glyph-name="ohorn" unicode="&#x1a1;" horiz-adv-x="1080" 
d="M454 -19q-184 0 -290 119.5t-106 311.5q0 125 41.5 243.5t117 213t180 150.5t231.5 56h2v0q4 0 0 0q15 0 31 -1q76 -4 139.5 -9.5t167.5 -5.5q58 0 67 57l30 180h84l-28 -172q-24 -135 -162 -135q-37 0 -79 1q141 -118 141 -347q0 -125 -41 -243.5t-116.5 -213
t-179.5 -150t-230 -55.5zM455 63q109 0 197 49.5t151.5 132.5t97 186.5t33.5 213.5q0 160 -80 254t-228 94q-108 0 -196 -49t-152 -132.5t-98 -187t-34 -213.5q0 -160 81 -254t228 -94z" />
    <glyph glyph-name="OI" unicode="&#x1a2;" horiz-adv-x="1538" 
d="M1149 777l-99 -595q-79 -96 -202 -149t-259 -53q-172 0 -293 87.5t-172.5 244t-17.5 362.5l4 26l7 43v0l8 52q36 213 138.5 374t253.5 251t332 90q113 0 206.5 -39t152.5 -110l225 129h96l-316 -1908h-98l300 1813l-181 -105l-85 -513v0zM217 745h1l-12 -71
q-30 -184 11 -321t142.5 -212t251.5 -75q100 0 194 38t152 102l81 488v0l97 590q-39 65 -120.5 102t-181.5 37q-150 0 -276.5 -79t-213.5 -220.5t-118 -328.5z" />
    <glyph glyph-name="uni01A3" unicode="&#x1a3;" horiz-adv-x="1032" 
d="M1114 1118l-253 -1536h-97l234 1420l-195 -113l-70 -423h-1l-63 -382q-69 -51 -143.5 -79.5t-160.5 -28.5q-136 1 -225 73t-125.5 195t-13.5 277l5 28q27 172 104.5 304t193.5 206.5t259 73.5q82 1 147.5 -25.5t116.5 -73.5l-4 -25l196 109h95zM382 60q55 0 103 15t92 41
l92 557v0l53 325q-34 24 -78 37.5t-97 13.5q-115 0 -205 -64.5t-150.5 -177.5t-88.5 -258l-4 -33q-33 -203 45 -328.5t238 -127.5z" />
    <glyph glyph-name="uni01A4" unicode="&#x1a4;" horiz-adv-x="1368" 
d="M124 1095l28 170q37 225 263 225h606q134 0 228 -54.5t135.5 -153t19.5 -229.5t-96 -227.5t-185 -149.5t-246 -53h-409l-103 -623h-91l247 1490l-14 -84h-104q-143 0 -165 -143l-28 -168h-86zM482 707h409q164 0 280.5 95t142.5 253q26 160 -59 255.5t-248 95.5h-409z
" />
    <glyph glyph-name="uni01A5" unicode="&#x1a5;" horiz-adv-x="1132" 
d="M177 807l41 250l30 177q35 215 254 215h82l-14 -80h-81q-70 0 -106 -31.5t-48 -103.5l-29 -178l-41 -242h1q54 116 171 187.5t249 71.5q176 0 282 -116t106 -311q0 -124 -39.5 -242.5t-113 -213.5t-176 -151t-228.5 -56q-137 0 -228.5 72.5t-116.5 187.5h-1l-109 -661
h-88l203 1225v0zM510 64q109 0 196.5 49.5t150 132.5t96 186.5t33.5 212.5q0 165 -85.5 256t-225.5 91q-111 0 -198.5 -50t-148.5 -134t-93.5 -188.5t-32.5 -212.5q0 -160 82 -251.5t226 -91.5z" />
    <glyph glyph-name="YR" unicode="&#x1a6;" horiz-adv-x="1287" 
d="M199 1386l34 203h100l-16 -99h352q209 0 314 -115.5t72 -314.5q-25 -149 -122.5 -257t-239.5 -150l380 -1014l-1 -7h-107l-373 1003h-416l-105 -635h-101l229 1386v0zM190 722h388q91 0 170.5 42.5t135 119t71.5 176.5q25 155 -54.5 248.5t-245.5 93.5h-352z" />
    <glyph glyph-name="uni01A7" unicode="&#x1a7;" horiz-adv-x="1170" 
d="M496 -23q-149 0 -252.5 52.5t-150.5 145.5t-27 214q23 143 133.5 236.5t321.5 151.5l178 48q168 46 254 117t103 176q15 90 -21.5 159.5t-113.5 109.5t-185 40q-166 0 -283.5 -92t-152.5 -240h-90q26 124 100 218t185 147t248 53q136 0 233.5 -51.5t143 -141t26.5 -205.5
q-23 -137 -130 -229t-309 -147l-176 -48q-183 -51 -270 -122.5t-105 -182.5q-24 -145 71 -234t278 -89q182 0 306 90t156 240h92q-26 -125 -103 -218.5t-195 -145.5t-265 -52z" />
    <glyph glyph-name="uni01A8" unicode="&#x1a8;" horiz-adv-x="933" 
d="M131 740q35 157 148.5 244.5t275.5 87.5q164 0 252.5 -82t66.5 -215q-18 -108 -100.5 -171.5t-227.5 -96.5l-185 -42q-102 -23 -162 -60.5t-73 -115.5q-16 -101 53.5 -162.5t207.5 -61.5q140 0 230 66.5t116 184.5h87q-33 -156 -154 -244t-293 -88t-264.5 83.5
t-69.5 223.5q18 106 96.5 164.5t220.5 90.5l187 42q107 24 169.5 66.5t75.5 120.5q16 97 -51.5 156.5t-194.5 59.5q-129 0 -212.5 -65t-112.5 -186h-86z" />
    <glyph glyph-name="uni01A9" unicode="&#x1a9;" horiz-adv-x="1128" 
d="M-32 0l14 82l628 568q34 30 67.5 61t67.5 62q-23 30 -47 60l-48 60l-414 525l13 72h1067l-14 -84h-945q46 -57 88 -111l402 -511l-6 -37l-573 -519q-40 -36 -80.5 -72t-81.5 -72h987l-14 -84h-1111z" />
    <glyph glyph-name="eshlooprev" unicode="&#x1aa;" horiz-adv-x="869" 
d="M165 1266q14 84 63 149.5t121 103.5t154 38q80 0 139.5 -40t88.5 -106t17 -145q-1 -8 -3 -17l-228 -1380q-19 -112 2.5 -156.5t88.5 -45.5q39 1 70 9l-15 -83q-39 -13 -84 -11q-208 -1 -162 287l196 1177q-44 -33 -96 -51.5t-107 -19.5q-80 0 -140 40t-89 106.5
t-16 144.5zM423 1067q84 1 150.5 57t79.5 143q14 90 -32 145t-131 55q-82 0 -149 -56t-82 -144t33.5 -144t130.5 -56z" />
    <glyph glyph-name="uni01AB" unicode="&#x1ab;" horiz-adv-x="528" 
d="M36 -417l13 80h84q69 0 105 31.5t48 103.5l33 202h-5q-223 0 -188 213l126 764h-173l14 79h172l48 288h87l-48 -288h226l-13 -79h-226l-125 -758q-12 -76 14.5 -108t104.5 -32h84l-13 -78l-33 -203q-36 -215 -253 -215h-82z" />
    <glyph glyph-name="uni01AC" unicode="&#x1ac;" horiz-adv-x="1190" 
d="M174 1095l28 170q37 225 263 225h827l-14 -84h-476l-233 -1406h-91l233 1406h-257q-143 0 -166 -143l-28 -168h-86z" />
    <glyph glyph-name="uni01AD" unicode="&#x1ad;" horiz-adv-x="601" 
d="M369 -13q-112 0 -176.5 68t-45.5 184l101 609h-1l23 136l6 34h-161l13 79h161v1l30 177q34 215 254 215h81l-13 -80h-82q-69 0 -105 -31t-48 -104l-30 -178h226l-13 -79h-226l-12 -72l-115 -698q-15 -88 28.5 -135t122.5 -47q38 0 82 9l-3 -76q-49 -12 -97 -12z" />
    <glyph glyph-name="Trthook" unicode="&#x1ae;" horiz-adv-x="1222" 
d="M543 0l-25 -152q-16 -97 20.5 -138.5t111.5 -42.5h48l-14 -84h-66q-104 0 -158.5 67.5t-32.5 196.5l26 153h25l233 1406h-509l15 84h1107l-14 -84h-508l-233 -1406h-26z" />
    <glyph glyph-name="Uhorn" unicode="&#x1af;" horiz-adv-x="1381" 
d="M1296 1413l14 77h130q57 0 67 57l30 183h87l-29 -179q-23 -138 -162 -138h-45l-150 -908q-25 -152 -115 -270t-224 -186t-293 -68q-162 0 -276 69.5t-166 189.5t-27 272l162 978h91l-162 -980q-21 -128 20 -228t134 -157t227 -57q136 0 251 58.5t191 160t98 230.5
l148 896h-1z" />
    <glyph glyph-name="uhorn" unicode="&#x1b0;" horiz-adv-x="1173" 
d="M436 -17q-112 0 -193.5 47.5t-118.5 136t-17 212.5l112 677h88l-112 -673q-25 -148 47 -233t213 -85q95 0 177.5 39.5t139 113t73.5 173.5l110 665h122q63 0 73 63l30 177h84l-29 -172q-24 -139 -162 -139h-43l-163 -985h-86l31 184q-67 -102 -166 -151.5t-210 -49.5z
" />
    <glyph glyph-name="Upsilon2" unicode="&#x1b1;" horiz-adv-x="1429" 
d="M120 720q38 227 162.5 397.5t334.5 276.5l2 11h-385l14 85h489l-19 -113q-121 -56 -226.5 -146t-180 -217t-102.5 -293q-31 -183 12.5 -331.5t150.5 -236t266 -86.5q160 0 295.5 87.5t227.5 235.5t122 331q29 166 -3.5 293t-108.5 217t-179 146l19 113h490l-14 -85h-385
l-2 -11q176 -105 243 -275.5t31 -398.5q-27 -161 -96 -296.5t-170 -235t-224.5 -154t-259.5 -54.5q-181 0 -306.5 95.5t-179 263t-18.5 381.5z" />
    <glyph glyph-name="Vcursive" unicode="&#x1b2;" horiz-adv-x="1135" 
d="M466 -23q-221 1 -336 131t-76 365l169 1017h98l-166 -1017q-34 -200 52.5 -304.5t273.5 -103.5q187 -1 313 105.5t159 302.5l124 755q17 105 -15.5 149.5t-118.5 44.5q-21 0 -40 -2.5t-38 -8.5l14 84q22 6 47 10.5t53 4.5q114 0 167.5 -71t31.5 -211l-123 -755
q-27 -159 -109 -269.5t-205.5 -168t-274.5 -58.5z" />
    <glyph glyph-name="uni01B3" unicode="&#x1b3;" horiz-adv-x="1225" 
d="M142 1490h107l350 -719h10l521 632q46 57 103.5 82.5t111.5 23t89 -31.5l-49 -69q-38 23 -90 12.5t-101 -69.5l-560 -676l-111 -675h-91l112 675z" />
    <glyph glyph-name="uni01B4" unicode="&#x1b4;" horiz-adv-x="1305" 
d="M975 1056l125 222q40 72 74 119t77 70t111 23h76l-14 -80h-62q-42 0 -68.5 -14t-50.5 -48t-59 -94l-114 -198h-2l-718 -1262q-66 -117 -131 -164.5t-161 -47.5h-94l13 81h94q69 0 110 32t96 128l99 175l-256 1058h90l162 -683q16 -68 31.5 -136t30.5 -136q37 68 75 136
t77 136l385 683h4z" />
    <glyph glyph-name="Zbar" unicode="&#x1b5;" horiz-adv-x="1147" 
d="M6 0l12 74l1068 1331h-846l14 85h960l-13 -76l-1068 -1330h853l-14 -84h-966zM231 702l13 84h746l-14 -84h-745z" />
    <glyph glyph-name="zbar" unicode="&#x1b6;" horiz-adv-x="937" 
d="M-3 0l13 74l799 899v2h-644l14 81h756l-13 -77l-796 -896v-2h653l-14 -81h-768zM232 499l13 78h476l-13 -78h-476z" />
    <glyph glyph-name="uni01B7" unicode="&#x1b7;" horiz-adv-x="1303" 
d="M-19 69h91q-17 -124 31.5 -220.5t146.5 -151t229 -54.5q146 0 268.5 67t204.5 184t107 268q25 154 -30.5 273.5t-176 189t-290.5 74.5h-84l14 80l689 624h-899l15 87h1026l-11 -69l-700 -636v-8q188 -8 318 -89.5t188.5 -217.5t30.5 -307q-28 -164 -120 -301.5
t-235.5 -220t-323.5 -82.5q-158 0 -276.5 64.5t-176.5 180t-36 265.5z" />
    <glyph glyph-name="uni01B8" unicode="&#x1b8;" horiz-adv-x="1302" 
d="M1169 69q-27 -150 -124 -265.5t-236.5 -180t-297.5 -64.5q-181 0 -296.5 82.5t-162.5 218.5t-21 296q29 175 133 312t261 219t347 90l2 8l-488 636l11 69h1027l-15 -87h-897l481 -624l-12 -80h-82q-174 -6 -318 -76t-238.5 -190t-119.5 -278q-25 -147 18 -262.5
t141.5 -182.5t240.5 -67q134 0 252 55t198.5 151t103.5 220h92z" />
    <glyph glyph-name="uni01B9" unicode="&#x1b9;" horiz-adv-x="1089" 
d="M384 -414q-141 0 -236 59t-136.5 158.5t-21.5 222.5q22 130 101.5 227.5t201.5 152t269 56.5l1 1l-369 524l11 69h818l-14 -84h-695v-1l357 -507l-13 -79h-82q-196 0 -332 -94.5t-165 -264.5q-16 -98 16 -179t109 -129.5t195 -48.5q111 0 203.5 43.5t153.5 120.5t78 178
h91q-21 -124 -98 -220t-192.5 -150.5t-250.5 -54.5z" />
    <glyph glyph-name="uni01BA" unicode="&#x1ba;" horiz-adv-x="932" 
d="M153 1057l844 -1l-13 -76l-545 -376q344 -17 307 -238q-18 -111 -116 -172t-298 -108q-164 -38 -233.5 -95t-83.5 -143q-17 -102 46.5 -154.5t197.5 -52.5q130 0 231 69t132 199h98q-22 -101 -87 -180.5t-163.5 -125.5t-221.5 -46q-177 0 -265 77t-65 218
q23 135 132.5 207t275.5 111q164 38 236.5 77.5t85.5 117.5q14 82 -52.5 119.5t-238.5 37.5h-82l13 74l556 376h-706z" />
    <glyph glyph-name="uni01BB" unicode="&#x1bb;" horiz-adv-x="1114" 
d="M1 0l13 81l609 511q127 107 207 187t122 150.5t55 149.5q26 155 -56 251.5t-248 96.5q-111 0 -204 -46.5t-154.5 -129t-79.5 -190.5h-86q21 131 94 232.5t184 159.5t248 58q135 0 230 -56t137.5 -154t21.5 -224q-14 -89 -59.5 -170t-130.5 -169.5t-219 -200.5l-539 -452
l-1 -1h805l-13 -84h-936zM260 547l13 84h746l-14 -84h-745z" />
    <glyph glyph-name="uni01BC" unicode="&#x1bc;" horiz-adv-x="1140" 
d="M494 -20q-133 0 -228.5 53.5t-140 146.5t-27.5 212h91q-20 -143 63 -235.5t244 -92.5q120 0 220 53.5t167 146t87 209.5q19 117 -14.5 207.5t-111 142t-190.5 51.5q-124 0 -234 -53.5t-164 -148.5h-86l179 734h-147l15 84h965l-13 -84h-731l-150 -601v1
q63 62 158.5 107.5t216.5 45.5q137 0 234 -63.5t140.5 -173.5t20.5 -253q-24 -141 -103 -251.5t-198 -174t-263 -63.5z" />
    <glyph glyph-name="uni01BD" unicode="&#x1bd;" horiz-adv-x="817" 
d="M195 507l-85 10l132 477h-166l15 88h768l-16 -88h-508l-98 -361q46 41 114 66.5t138 25.5q157 2 237 -98t54 -267q-27 -167 -143.5 -272t-297.5 -106q-97 1 -173.5 38.5t-116.5 107.5t-29 166l97 13q-14 -108 48 -173.5t178 -64.5q136 -1 226.5 78.5t112.5 207.5
q21 130 -35.5 207.5t-179.5 78.5q-85 1 -157 -37.5t-115 -96.5z" />
    <glyph glyph-name="glottalstopbarinv" unicode="&#x1be;" horiz-adv-x="950" 
d="M743 287q12 77 -29.5 119t-98.5 80q-46 31 -89.5 69t-66.5 97t-8 153l31 188h-231l15 81h230l43 263h98l-43 -263h231l-14 -81h-231l-31 -186q-12 -75 8 -122.5t58.5 -79.5t81.5 -59q42 -28 79.5 -59t57 -77t7.5 -117q-23 -142 -148 -227t-306 -85q-129 0 -212.5 51
t-118 132t-19.5 172h98q-18 -119 54 -195t212 -76q135 0 230.5 62t111.5 160z" />
    <glyph glyph-name="uni01BF" unicode="&#x1bf;" horiz-adv-x="1085" 
d="M259 952q75 88 166 135t198 46q196 1 287.5 -139.5t56.5 -372.5l-8 -47q-30 -189 -132.5 -324.5t-283.5 -233t-447 -173.5l-39 -259h-98l227 1534h87zM108 -73q235 69 393 155.5t246.5 205.5t112.5 285l7 49q27 190 -43 307.5t-235 117.5q-99 0 -184.5 -49.5
t-158.5 -135.5z" />
    <glyph glyph-name="pipe" unicode="&#x1c0;" horiz-adv-x="329" 
d="M365 1507l-251 -1507h-84l251 1507h84z" />
    <glyph glyph-name="pipedbl" unicode="&#x1c1;" horiz-adv-x="578" 
d="M314 1507l-251 -1507h-84l251 1507h84zM587 1507l-251 -1507h-84l251 1507h84z" />
    <glyph glyph-name="pipedblbar" unicode="&#x1c2;" horiz-adv-x="352" 
d="M377 1507l-251 -1507h-84l251 1507h84zM-36 994l12 80h583l-13 -80h-582zM-122 479l12 80h583l-13 -80h-582z" />
    <glyph glyph-name="exclam1" unicode="&#x1c3;" horiz-adv-x="417" 
d="M140 369l182 1121h92l-190 -1121h-84zM124 -14q-34 0 -54.5 24.5t-14.5 59.5q5 30 29 51t55 21q34 0 54.5 -24.5t14.5 -59.5q-5 -30 -29 -51t-55 -21z" />
    <glyph glyph-name="Dzcaron_" unicode="&#x1c5;" horiz-adv-x="2296" 
d="M501 0h-427l247 1490h443q209 0 344.5 -88.5t188 -254.5t14.5 -398q-58 -354 -268 -551.5t-542 -197.5zM179 84h319q299 0 485 177t237 488q51 308 -60.5 482.5t-392.5 174.5h-369zM1357 0l13 74l799 899v2h-644l14 81h756l-13 -77l-796 -896v-2h653l-14 -81h-768z
M1799 1507l155 -216l229 216h96v-1l-293 -273h-85l-198 273v1h96z" />
    <glyph glyph-name="uni01C6" unicode="&#x1c6;" horiz-adv-x="2003" 
d="M446 -17q-177 0 -282.5 115t-105.5 309q0 128 40.5 247t114.5 214t176 150t226 55q137 0 232 -74.5t112 -188.5h1l112 680h87l-246 -1490h-86l39 239h-1q-60 -115 -173.5 -185.5t-245.5 -70.5zM456 64q111 0 198.5 49.5t149 133.5t93.5 188t32 214q0 160 -81.5 251.5
t-225.5 91.5q-109 0 -196.5 -49t-150.5 -132t-96.5 -187t-33.5 -213q0 -165 86 -256t225 -91zM1063 0l13 74l799 899v2h-644l14 81h756l-13 -77l-796 -896v-2h653l-14 -81h-768zM1506 1507l155 -216l229 216h96v-1l-293 -273h-85l-198 273v1h96z" />
    <glyph glyph-name="uni01C7" unicode="&#x1c7;" horiz-adv-x="2117" 
d="M74 0l247 1490h92l-233 -1406h752l-14 -84h-844zM1488 -20q-163 0 -259 88.5t-96 247.5q0 21 3 52.5t16 108.5h90q-12 -75 -15 -104.5t-3 -48.5q0 -123 68.5 -191.5t196.5 -68.5q147 0 248 90.5t128 250.5l179 1085h92l-180 -1085q-33 -199 -158 -312t-310 -113z" />
    <glyph glyph-name="uni01C8" unicode="&#x1c8;" horiz-adv-x="1417" 
d="M74 0l247 1490h92l-233 -1406h752l-14 -84h-844zM1285 1056h87l-201 -1213q-19 -118 -106 -189.5t-200 -71.5h-37l13 81h32q77 0 137 48.5t75 139.5zM1370 1308q-29 0 -45.5 20.5t-12.5 49.5q5 29 29 49.5t53 20.5t46 -20.5t12 -49.5q-4 -29 -28.5 -49.5t-53.5 -20.5z
" />
    <glyph glyph-name="uni01C9" unicode="&#x1c9;" horiz-adv-x="706" 
d="M379 1490l-247 -1490h-88l247 1490h88zM574 1056h87l-201 -1213q-19 -118 -106 -189.5t-200 -71.5h-37l13 81h32q77 0 137 48.5t75 139.5zM659 1308q-29 0 -45.5 20.5t-12.5 49.5q5 29 29 49.5t53 20.5t46 -20.5t12 -49.5q-4 -29 -28.5 -49.5t-53.5 -20.5z" />
    <glyph glyph-name="uni01CA" unicode="&#x1ca;" horiz-adv-x="2508" 
d="M74 0l247 1490h91l580 -1077q34 -63 71.5 -137t75.5 -148q10 72 21.5 150t21.5 137l179 1075h90l-247 -1490h-90l-562 1040q-36 65 -77.5 147.5t-87.5 176.5q-15 -97 -27 -178t-23 -145l-172 -1041h-91zM1880 -20q-163 0 -259 88.5t-96 247.5q0 21 3 52.5t16 108.5h90
q-12 -75 -15 -104.5t-3 -48.5q0 -123 68.5 -191.5t196.5 -68.5q147 0 248 90.5t128 250.5l179 1085h92l-180 -1085q-33 -199 -158 -312t-310 -113z" />
    <glyph glyph-name="uni01CB" unicode="&#x1cb;" horiz-adv-x="1808" 
d="M74 0l247 1490h91l580 -1077q34 -63 71.5 -137t75.5 -148q10 72 21.5 150t21.5 137l179 1075h90l-247 -1490h-90l-562 1040q-36 65 -77.5 147.5t-87.5 176.5q-15 -97 -27 -178t-23 -145l-172 -1041h-91zM1677 1056h87l-201 -1213q-19 -118 -106 -189.5t-200 -71.5h-37
l13 81h32q77 0 137 48.5t75 139.5zM1761 1308q-29 0 -45.5 20.5t-12.5 49.5q5 29 29 49.5t53 20.5t46 -20.5t12 -49.5q-4 -29 -28.5 -49.5t-53.5 -20.5z" />
    <glyph glyph-name="uni01CC" unicode="&#x1cc;" horiz-adv-x="1440" 
d="M241 661l-109 -661h-88l174 1056h86l-29 -181q67 101 166 149.5t208 48.5q114 0 195 -48.5t118 -138t16 -212.5l-111 -674h-87l111 677q24 147 -46 230.5t-209 83.5q-96 0 -180 -40.5t-141 -114.5t-74 -175zM1308 1056h87l-201 -1213q-19 -118 -106 -189.5t-200 -71.5
h-37l13 81h32q77 0 137 48.5t75 139.5zM1393 1308q-29 0 -45.5 20.5t-12.5 49.5q5 29 29 49.5t53 20.5t46 -20.5t12 -49.5q-4 -29 -28.5 -49.5t-53.5 -20.5z" />
    <glyph glyph-name="uni01CD" unicode="&#x1cd;" horiz-adv-x="1258" 
d="M-67 0l802 1490h110l306 -1490h-92l-94 467h-683l-249 -467h-100zM327 551h621l-104 518q-15 75 -31 156.5t-33 181.5q-51 -100 -93.5 -181.5t-82.5 -156.5zM673 1941l155 -216l229 216h96v-1l-293 -273h-85l-198 273v1h96z" />
    <glyph glyph-name="uni01CE" unicode="&#x1ce;" horiz-adv-x="1132" 
d="M440 -17q-135 0 -228 67.5t-132 190.5t-12 287t107.5 286.5t196 190.5t248.5 68q135 0 228.5 -73t111.5 -187h1l41 243h86l-175 -1056h-86l39 240h-1q-60 -114 -175.5 -185.5t-249.5 -71.5zM457 64q114 0 210 57t161.5 161t88.5 246q35 213 -45 338.5t-251 125.5
q-109 0 -206.5 -55.5t-166 -159.5t-92.5 -249q-36 -218 50 -341t251 -123zM512 1507l155 -216l229 216h96v-1l-293 -273h-85l-198 273v1h96z" />
    <glyph glyph-name="uni01CF" unicode="&#x1cf;" horiz-adv-x="414" 
d="M412 1490l-247 -1490h-91l247 1490h91zM250 1941l155 -216l229 216h96v-1l-293 -273h-85l-198 273v1h96z" />
    <glyph glyph-name="uni01D0" unicode="&#x1d0;" horiz-adv-x="351" 
d="M44 0l175 1056h88l-175 -1056h-88zM146 1507l155 -216l229 216h96v-1l-293 -273h-85l-198 273v1h96z" />
    <glyph glyph-name="uni01D1" unicode="&#x1d1;" horiz-adv-x="1446" 
d="M638 -21q-164 0 -283 74t-183.5 208t-64.5 312q0 174 54.5 341t156.5 302t244.5 215t318.5 80q163 0 282 -74t183 -208t64 -313q0 -174 -54.5 -341t-155.5 -301.5t-243.5 -214.5t-318.5 -80zM642 65q155 0 280.5 73.5t214 196t136 273.5t47.5 306q0 237 -120.5 374
t-321.5 137q-157 0 -282.5 -73.5t-214.5 -196.5t-136.5 -274t-47.5 -306q0 -236 120 -373t325 -137zM766 1941l155 -216l229 216h96v-1l-293 -273h-85l-198 273v1h96z" />
    <glyph glyph-name="uni01D2" unicode="&#x1d2;" horiz-adv-x="1080" 
d="M454 -19q-184 0 -290 119.5t-106 311.5q0 125 41.5 243.5t117 213t180 150.5t231.5 56q183 0 288 -120t105 -312q0 -125 -41 -243.5t-116.5 -213t-179.5 -150t-230 -55.5zM455 63q109 0 197 49.5t151.5 132.5t97 186.5t33.5 213.5q0 160 -80 254t-228 94q-108 0 -196 -49
t-152 -132.5t-98 -187t-34 -213.5q0 -160 81 -254t228 -94zM511 1507l155 -216l229 216h96v-1l-293 -273h-85l-198 273v1h96z" />
    <glyph glyph-name="uni01D3" unicode="&#x1d3;" horiz-adv-x="1381" 
d="M606 -19q-162 0 -276 69.5t-166 189.5t-27 272l162 978h91l-162 -980q-21 -128 20 -228t134 -157t227 -57q136 0 251 58.5t191 160t98 230.5l161 973h90l-162 -985q-25 -152 -115 -270t-224 -186t-293 -68zM733 1941l155 -216l229 216h96v-1l-293 -273h-85l-198 273v1h96
z" />
    <glyph glyph-name="uni01D4" unicode="&#x1d4;" horiz-adv-x="1086" 
d="M436 -17q-112 0 -193.5 47.5t-118.5 136t-17 212.5l112 677h88l-112 -673q-25 -148 47 -233t213 -85q95 0 177.5 39.5t139 113t73.5 173.5l110 665h87l-175 -1056h-86l31 184q-67 -102 -166 -151.5t-210 -49.5zM514 1507l155 -216l229 216h96v-1l-293 -273h-85l-198 273
v1h96z" />
    <glyph glyph-name="uni01D5" unicode="&#x1d5;" horiz-adv-x="1381" 
d="M606 -19q-162 0 -276 69.5t-166 189.5t-27 272l162 978h91l-162 -980q-21 -128 20 -228t134 -157t227 -57q136 0 251 58.5t191 160t98 230.5l161 973h90l-162 -985q-25 -152 -115 -270t-224 -186t-293 -68zM1200 2068l-13 -73h-493l13 73h493zM676 1692q-29 0 -46 20.5
t-13 49.5q5 29 29 49.5t53 20.5t46 -20.5t12 -49.5q-4 -29 -28 -49.5t-53 -20.5zM1084 1692q-29 0 -45.5 20.5t-12.5 49.5q5 29 29 49.5t53 20.5t46 -20.5t12 -49.5q-4 -29 -28.5 -49.5t-53.5 -20.5z" />
    <glyph glyph-name="uni01D6" unicode="&#x1d6;" horiz-adv-x="1086" 
d="M436 -17q-112 0 -193.5 47.5t-118.5 136t-17 212.5l112 677h88l-112 -673q-25 -148 47 -233t213 -85q95 0 177.5 39.5t139 113t73.5 173.5l110 665h87l-175 -1056h-86l31 184q-67 -102 -166 -151.5t-210 -49.5zM981 1634l-13 -73h-493l13 73h493zM457 1258
q-29 0 -46 20.5t-13 49.5q5 29 29 49.5t53 20.5t46 -20.5t12 -49.5q-4 -29 -28 -49.5t-53 -20.5zM865 1258q-29 0 -45.5 20.5t-12.5 49.5q5 29 29 49.5t53 20.5t46 -20.5t12 -49.5q-4 -29 -28.5 -49.5t-53.5 -20.5z" />
    <glyph glyph-name="uni01D7" unicode="&#x1d7;" horiz-adv-x="1381" 
d="M606 -19q-162 0 -276 69.5t-166 189.5t-27 272l162 978h91l-162 -980q-21 -128 20 -228t134 -157t227 -57q136 0 251 58.5t191 160t98 230.5l161 973h90l-162 -985q-25 -152 -115 -270t-224 -186t-293 -68zM883 1954l222 274h103l-244 -274h-81zM676 1692q-29 0 -46 20.5
t-13 49.5q5 29 29 49.5t53 20.5t46 -20.5t12 -49.5q-4 -29 -28 -49.5t-53 -20.5zM1084 1692q-29 0 -45.5 20.5t-12.5 49.5q5 29 29 49.5t53 20.5t46 -20.5t12 -49.5q-4 -29 -28.5 -49.5t-53.5 -20.5z" />
    <glyph glyph-name="uni01D8" unicode="&#x1d8;" horiz-adv-x="1086" 
d="M436 -17q-112 0 -193.5 47.5t-118.5 136t-17 212.5l112 677h88l-112 -673q-25 -148 47 -233t213 -85q95 0 177.5 39.5t139 113t73.5 173.5l110 665h87l-175 -1056h-86l31 184q-67 -102 -166 -151.5t-210 -49.5zM664 1520l222 274h103l-244 -274h-81zM457 1258
q-29 0 -46 20.5t-13 49.5q5 29 29 49.5t53 20.5t46 -20.5t12 -49.5q-4 -29 -28 -49.5t-53 -20.5zM865 1258q-29 0 -45.5 20.5t-12.5 49.5q5 29 29 49.5t53 20.5t46 -20.5t12 -49.5q-4 -29 -28.5 -49.5t-53.5 -20.5z" />
    <glyph glyph-name="uni01D9" unicode="&#x1d9;" horiz-adv-x="1381" 
d="M606 -19q-162 0 -276 69.5t-166 189.5t-27 272l162 978h91l-162 -980q-21 -128 20 -228t134 -157t227 -57q136 0 251 58.5t191 160t98 230.5l161 973h90l-162 -985q-25 -152 -115 -270t-224 -186t-293 -68zM779 2220l155 -216l229 216h96v-1l-293 -273h-85l-198 273v1h96
zM1085 1692q-29 0 -46 20.5t-12 49.5q4 29 28 49.5t53 20.5t46 -20.5t13 -49.5q-5 -29 -29 -49.5t-53 -20.5zM676 1692q-29 0 -45.5 20.5t-12.5 49.5q5 29 29 49.5t53 20.5t46 -20.5t12 -49.5q-4 -29 -28.5 -49.5t-53.5 -20.5z" />
    <glyph glyph-name="uni01DA" unicode="&#x1da;" horiz-adv-x="1086" 
d="M436 -17q-112 0 -193.5 47.5t-118.5 136t-17 212.5l112 677h88l-112 -673q-25 -148 47 -233t213 -85q95 0 177.5 39.5t139 113t73.5 173.5l110 665h87l-175 -1056h-86l31 184q-67 -102 -166 -151.5t-210 -49.5zM560 1786l155 -216l229 216h96v-1l-293 -273h-85l-198 273
v1h96zM866 1258q-29 0 -46 20.5t-12 49.5q4 29 28 49.5t53 20.5t46 -20.5t13 -49.5q-5 -29 -29 -49.5t-53 -20.5zM457 1258q-29 0 -45.5 20.5t-12.5 49.5q5 29 29 49.5t53 20.5t46 -20.5t12 -49.5q-4 -29 -28.5 -49.5t-53.5 -20.5z" />
    <glyph glyph-name="uni01DB" unicode="&#x1db;" horiz-adv-x="1381" 
d="M606 -19q-162 0 -276 69.5t-166 189.5t-27 272l162 978h91l-162 -980q-21 -128 20 -228t134 -157t227 -57q136 0 251 58.5t191 160t98 230.5l161 973h90l-162 -985q-25 -152 -115 -270t-224 -186t-293 -68zM876 1954l-152 274h103l130 -274h-81zM676 1692q-29 0 -46 20.5
t-13 49.5q5 29 29 49.5t53 20.5t46 -20.5t12 -49.5q-4 -29 -28 -49.5t-53 -20.5zM1084 1692q-29 0 -45.5 20.5t-12.5 49.5q5 29 29 49.5t53 20.5t46 -20.5t12 -49.5q-4 -29 -28.5 -49.5t-53.5 -20.5z" />
    <glyph glyph-name="uni01DC" unicode="&#x1dc;" horiz-adv-x="1086" 
d="M436 -17q-112 0 -193.5 47.5t-118.5 136t-17 212.5l112 677h88l-112 -673q-25 -148 47 -233t213 -85q95 0 177.5 39.5t139 113t73.5 173.5l110 665h87l-175 -1056h-86l31 184q-67 -102 -166 -151.5t-210 -49.5zM657 1520l-152 274h103l130 -274h-81zM457 1258
q-29 0 -46 20.5t-13 49.5q5 29 29 49.5t53 20.5t46 -20.5t12 -49.5q-4 -29 -28 -49.5t-53 -20.5zM865 1258q-29 0 -45.5 20.5t-12.5 49.5q5 29 29 49.5t53 20.5t46 -20.5t12 -49.5q-4 -29 -28.5 -49.5t-53.5 -20.5z" />
    <glyph glyph-name="eturn" unicode="&#x1dd;" horiz-adv-x="1029" 
d="M575 1075q180 0 287 -112t107 -323q0 -132 -42 -250.5t-119 -210.5t-181.5 -145t-230.5 -53q-166 0 -255 87.5t-89 213.5q0 102 58.5 162.5t168 90.5t262 39.5t339.5 9.5q3 30 3 60q0 155 -76.5 252t-234.5 97q-135 0 -235.5 -69.5t-147.5 -180.5h-90q53 145 179 238.5
t297 93.5zM869 506q-238 -1 -400.5 -15.5t-246 -61.5t-83.5 -147q0 -90 65.5 -154.5t197.5 -64.5q126 0 222.5 61t159 161.5t85.5 220.5z" />
    <glyph glyph-name="uni01DE" unicode="&#x1de;" horiz-adv-x="1258" 
d="M-67 0l802 1490h110l306 -1490h-92l-94 467h-683l-249 -467h-100zM327 551h621l-104 518q-15 75 -31 156.5t-33 181.5q-51 -100 -93.5 -181.5t-82.5 -156.5zM1141 2068l-13 -73h-493l13 73h493zM617 1692q-29 0 -46 20.5t-13 49.5q5 29 29 49.5t53 20.5t46 -20.5
t12 -49.5q-4 -29 -28 -49.5t-53 -20.5zM1025 1692q-29 0 -45.5 20.5t-12.5 49.5q5 29 29 49.5t53 20.5t46 -20.5t12 -49.5q-4 -29 -28.5 -49.5t-53.5 -20.5z" />
    <glyph glyph-name="uni01DF" unicode="&#x1df;" horiz-adv-x="1132" 
d="M440 -17q-135 0 -228 67.5t-132 190.5t-12 287t107.5 286.5t196 190.5t248.5 68q135 0 228.5 -73t111.5 -187h1l41 243h86l-175 -1056h-86l39 240h-1q-60 -114 -175.5 -185.5t-249.5 -71.5zM457 64q114 0 210 57t161.5 161t88.5 246q35 213 -45 338.5t-251 125.5
q-109 0 -206.5 -55.5t-166 -159.5t-92.5 -249q-36 -218 50 -341t251 -123zM979 1634l-13 -73h-493l13 73h493zM455 1258q-29 0 -46 20.5t-13 49.5q5 29 29 49.5t53 20.5t46 -20.5t12 -49.5q-4 -29 -28 -49.5t-53 -20.5zM863 1258q-29 0 -45.5 20.5t-12.5 49.5q5 29 29 49.5
t53 20.5t46 -20.5t12 -49.5q-4 -29 -28.5 -49.5t-53.5 -20.5z" />
    <glyph glyph-name="uni01E0" unicode="&#x1e0;" horiz-adv-x="1258" 
d="M-67 0l802 1490h110l306 -1490h-92l-94 467h-683l-249 -467h-100zM327 551h621l-104 518q-15 75 -31 156.5t-33 181.5q-51 -100 -93.5 -181.5t-82.5 -156.5zM1141 2068l-13 -73h-494l13 73h494zM823 1692q-29 0 -45.5 20.5t-12.5 49.5q5 29 29 49.5t53 20.5t46 -20.5
t12 -49.5q-4 -29 -28.5 -49.5t-53.5 -20.5z" />
    <glyph glyph-name="uni01E1" unicode="&#x1e1;" horiz-adv-x="1132" 
d="M440 -17q-135 0 -228 67.5t-132 190.5t-12 287t107.5 286.5t196 190.5t248.5 68q135 0 228.5 -73t111.5 -187h1l41 243h86l-175 -1056h-86l39 240h-1q-60 -114 -175.5 -185.5t-249.5 -71.5zM457 64q114 0 210 57t161.5 161t88.5 246q35 213 -45 338.5t-251 125.5
q-109 0 -206.5 -55.5t-166 -159.5t-92.5 -249q-36 -218 50 -341t251 -123zM980 1634l-13 -73h-494l13 73h494zM662 1258q-29 0 -45.5 20.5t-12.5 49.5q5 29 29 49.5t53 20.5t46 -20.5t12 -49.5q-4 -29 -28.5 -49.5t-53.5 -20.5z" />
    <glyph glyph-name="uni01E2" unicode="&#x1e2;" horiz-adv-x="1870" 
d="M-67 0l979 1490h1027l-14 -85h-737l-102 -616h693l-14 -84h-693l-103 -621h755l-14 -84h-847l80 485h-593l-318 -485h-99zM405 569h552l139 836h-143zM1700 1840l-13 -77h-493l13 77h493z" />
    <glyph glyph-name="uni01E3" unicode="&#x1e3;" horiz-adv-x="1739" 
d="M334 -21q-165 0 -246.5 88.5t-56.5 238.5q50 298 463 298q74 0 144 -2t152 -3l30 180q19 116 -48 185.5t-198 69.5q-88 0 -162.5 -34t-124.5 -94t-65 -137h-88q18 101 81 179t157.5 122.5t206.5 44.5q139 0 226 -65.5t102 -172.5q78 112 194.5 175.5t261.5 63.5
q152 0 240.5 -72.5t88.5 -202.5q0 -115 -84 -184.5t-266 -101t-476 -33.5q-2 -26 -3 -53q-2 -12 -4.5 -29.5t-2.5 -30.5q0 -179 73.5 -262.5t240.5 -83.5q125 0 213.5 48t160.5 147l83 -19q-82 -131 -192.5 -194.5t-261.5 -63.5q-159 0 -254.5 70t-125.5 216
q-61 -128 -177 -208t-282 -80zM777 523q-70 1 -141.5 2t-138.5 1q-165 0 -262.5 -53t-115.5 -169q-19 -119 38 -181.5t186 -62.5q122 0 210 52.5t141 142t71 199.5zM877 597q275 1 434 26.5t226.5 81t67.5 148.5q0 91 -61.5 136t-176.5 45q-189 0 -320 -119t-170 -318z
M1234 1406l-13 -77h-493l13 77h493z" />
    <glyph glyph-name="Gbar" unicode="&#x1e4;" horiz-adv-x="1422" 
d="M643 -21q-167 0 -287 73.5t-184.5 207t-64.5 312.5q0 174 54.5 341.5t156 302.5t244.5 215t321 80q127 0 222.5 -42.5t159 -113.5t96 -158.5t32.5 -177.5h-91q-2 101 -48.5 194t-139.5 152.5t-234 59.5q-159 0 -285 -74t-215 -197.5t-136 -275t-47 -306.5
q0 -230 117.5 -368.5t331.5 -138.5q150 0 274.5 68t209.5 191t115 288h-473l14 84h564l-15 -86q-32 -188 -129 -330.5t-242 -221.5t-321 -79zM725 326l13 79h668l-13 -79h-668z" />
    <glyph glyph-name="gbar" unicode="&#x1e5;" horiz-adv-x="1131" 
d="M400 -429q-184 0 -283.5 82t-100.5 235h86q8 -117 81 -176.5t219 -59.5q178 0 288.5 95.5t135.5 254.5l39 238h-1q-61 -114 -172.5 -185.5t-246.5 -71.5q-176 0 -281.5 115t-105.5 309q0 126 40 245t113.5 214t175.5 151t227 56q139 0 232.5 -73t112.5 -190h1l41 246h86
l-175 -1061q-35 -207 -172.5 -315.5t-339.5 -108.5zM456 64q110 0 197 50t149 133.5t94.5 188t32.5 213.5q0 160 -81.5 251.5t-226.5 91.5q-107 0 -194.5 -49t-150 -132t-96.5 -187t-34 -215q0 -164 84 -254.5t226 -90.5zM715 501l13 78h476l-13 -78h-476z" />
    <glyph glyph-name="Gcaron" unicode="&#x1e6;" horiz-adv-x="1422" 
d="M643 -21q-167 0 -287 73.5t-184.5 207t-64.5 312.5q0 174 54.5 341.5t156 302.5t244.5 215t321 80q127 0 222.5 -42.5t159 -113.5t96 -158.5t32.5 -177.5h-91q-2 101 -48.5 194t-139.5 152.5t-234 59.5q-159 0 -285 -74t-215 -197.5t-136 -275t-47 -306.5
q0 -230 117.5 -368.5t331.5 -138.5q150 0 274.5 68t209.5 191t115 288h-473l14 84h564l-15 -86q-32 -188 -129 -330.5t-242 -221.5t-321 -79zM757 1941l155 -216l229 216h96v-1l-293 -273h-85l-198 273v1h96z" />
    <glyph glyph-name="gcaron" unicode="&#x1e7;" horiz-adv-x="1131" 
d="M400 -429q-184 0 -283.5 82t-100.5 235h86q8 -117 81 -176.5t219 -59.5q178 0 288.5 95.5t135.5 254.5l39 238h-1q-61 -114 -172.5 -185.5t-246.5 -71.5q-176 0 -281.5 115t-105.5 309q0 126 40 245t113.5 214t175.5 151t227 56q139 0 232.5 -73t112.5 -190h1l41 246h86
l-175 -1061q-35 -207 -172.5 -315.5t-339.5 -108.5zM456 64q110 0 197 50t149 133.5t94.5 188t32.5 213.5q0 160 -81.5 251.5t-226.5 91.5q-107 0 -194.5 -49t-150 -132t-96.5 -187t-34 -215q0 -164 84 -254.5t226 -90.5zM508 1507l155 -216l229 216h96v-1l-293 -273h-85
l-198 273v1h96z" />
    <glyph glyph-name="uni01E8" unicode="&#x1e8;" horiz-adv-x="1180" 
d="M74 0l247 1490h91l-87 -526l-53 -315q89 82 173 159.5t175 160.5l569 521h125l-710 -647l462 -843h-101l-429 784l-284 -260l-87 -524h-91zM663 1941l155 -216l229 216h96v-1l-293 -273h-85l-198 273v1h96z" />
    <glyph glyph-name="uni01E9" unicode="&#x1e9;" horiz-adv-x="912" 
d="M44 0l247 1490h88l-157 -942h5l602 508h117l-521 -440l396 -616h-112l-358 559l-147 -121l-72 -438h-88zM218 1941l155 -216l229 216h96v-1l-293 -273h-85l-198 273v1h96z" />
    <glyph glyph-name="uni01EA" unicode="&#x1ea;" horiz-adv-x="1446" 
d="M638 -21q-164 0 -283 74t-183.5 208t-64.5 312q0 174 54.5 341t156.5 302t244.5 215t318.5 80q163 0 282 -74t183 -208t64 -313q0 -174 -54.5 -341t-155.5 -301.5t-243.5 -214.5t-318.5 -80zM642 65q155 0 280.5 73.5t214 196t136 273.5t47.5 306q0 237 -120.5 374
t-321.5 137q-157 0 -282.5 -73.5t-214.5 -196.5t-136.5 -274t-47.5 -306q0 -236 120 -373t325 -137zM665 -418q-92 0 -137.5 45.5t-31.5 127.5q13 82 61 136t118.5 95t152.5 85t165.5 105.5t157.5 155.5t128 236t76 348h55q-16 -210 -66 -358.5t-121.5 -250t-153.5 -168
t-162.5 -112t-149.5 -82.5t-114.5 -79.5t-55.5 -103.5q-17 -101 106 -101h47l-13 -79h-62z" />
    <glyph glyph-name="uni01EB" unicode="&#x1eb;" horiz-adv-x="1080" 
d="M454 -19q-184 0 -290 119.5t-106 311.5q0 125 41.5 243.5t117 213t180 150.5t231.5 56q183 0 288 -120t105 -312q0 -125 -41 -243.5t-116.5 -213t-179.5 -150t-230 -55.5zM455 63q109 0 197 49.5t151.5 132.5t97 186.5t33.5 213.5q0 160 -80 254t-228 94q-108 0 -196 -49
t-152 -132.5t-98 -187t-34 -213.5q0 -160 81 -254t228 -94zM456 -437q-102 0 -141 45t-27 119q13 75 60.5 127t116.5 95.5t146 90t149 109.5t126 154t76 225h50q-23 -142 -76 -240.5t-121.5 -166t-141 -115t-136 -87t-107 -82t-53.5 -99.5q-6 -41 14.5 -68.5t96.5 -27.5h57
l-13 -79h-76z" />
    <glyph glyph-name="uni01EC" unicode="&#x1ec;" horiz-adv-x="1446" 
d="M638 -21q-164 0 -283 74t-183.5 208t-64.5 312q0 174 54.5 341t156.5 302t244.5 215t318.5 80q163 0 282 -74t183 -208t64 -313q0 -174 -54.5 -341t-155.5 -301.5t-243.5 -214.5t-318.5 -80zM642 65q155 0 280.5 73.5t214 196t136 273.5t47.5 306q0 237 -120.5 374
t-321.5 137q-157 0 -282.5 -73.5t-214.5 -196.5t-136.5 -274t-47.5 -306q0 -236 120 -373t325 -137zM665 -418q-92 0 -137.5 45.5t-31.5 127.5q13 82 61 136t118.5 95t152.5 85t165.5 105.5t157.5 155.5t128 236t76 348h55q-16 -210 -66 -358.5t-121.5 -250t-153.5 -168
t-162.5 -112t-149.5 -82.5t-114.5 -79.5t-55.5 -103.5q-17 -101 106 -101h47l-13 -79h-62zM1187 1840l-13 -77h-493l13 77h493z" />
    <glyph glyph-name="uni01ED" unicode="&#x1ed;" horiz-adv-x="1080" 
d="M454 -19q-184 0 -290 119.5t-106 311.5q0 125 41.5 243.5t117 213t180 150.5t231.5 56q183 0 288 -120t105 -312q0 -125 -41 -243.5t-116.5 -213t-179.5 -150t-230 -55.5zM455 63q109 0 197 49.5t151.5 132.5t97 186.5t33.5 213.5q0 160 -80 254t-228 94q-108 0 -196 -49
t-152 -132.5t-98 -187t-34 -213.5q0 -160 81 -254t228 -94zM456 -437q-102 0 -141 45t-27 119q13 75 60.5 127t116.5 95.5t146 90t149 109.5t126 154t76 225h50q-23 -142 -76 -240.5t-121.5 -166t-141 -115t-136 -87t-107 -82t-53.5 -99.5q-6 -41 14.5 -68.5t96.5 -27.5h57
l-13 -79h-76zM932 1406l-13 -77h-493l13 77h493z" />
    <glyph glyph-name="uni01EE" unicode="&#x1ee;" horiz-adv-x="1303" 
d="M-19 69h91q-17 -124 31.5 -220.5t146.5 -151t229 -54.5q146 0 268.5 67t204.5 184t107 268q25 154 -30.5 273.5t-176 189t-290.5 74.5h-84l14 80l689 624h-899l15 87h1026l-11 -69l-700 -636v-8q188 -8 318 -89.5t188.5 -217.5t30.5 -307q-28 -164 -120 -301.5
t-235.5 -220t-323.5 -82.5q-158 0 -276.5 64.5t-176.5 180t-36 265.5zM721 2127l155 -216l229 216h96v-1l-293 -273h-85l-198 273v1h96z" />
    <glyph glyph-name="uni01EF" unicode="&#x1ef;" horiz-adv-x="1124" 
d="M423 -412q-144 0 -248 54.5t-153 150t-29 218.5h91q-25 -152 69 -245.5t271 -93.5q117 0 214 47.5t161.5 132t82.5 194.5q29 170 -75 268.5t-323 98.5h-110l13 79l570 520v1h-732l14 84h855l-13 -79l-581 -531q164 -1 277.5 -56.5t164.5 -155t29 -233.5
q-22 -133 -98.5 -235.5t-192.5 -160.5t-257 -58zM531 1548l155 -216l229 216h96v-1l-293 -273h-85l-198 273v1h96z" />
    <glyph glyph-name="uni01F0" unicode="&#x1f0;" horiz-adv-x="355" 
d="M223 1056h87l-201 -1213q-19 -118 -106 -189.5t-200 -71.5h-37l13 81h32q77 0 137 48.5t75 139.5zM150 1507l155 -216l229 216h96v-1l-293 -273h-85l-198 273v1h96z" />
    <glyph glyph-name="uni01F1" unicode="&#x1f1;" horiz-adv-x="2507" 
d="M501 0h-427l247 1490h443q209 0 344.5 -88.5t188 -254.5t14.5 -398q-58 -354 -268 -551.5t-542 -197.5zM179 84h319q299 0 485 177t237 488q51 308 -60.5 482.5t-392.5 174.5h-369zM1366 0l12 74l1068 1331h-846l14 85h960l-13 -76l-1068 -1330h853l-14 -84h-966z" />
    <glyph glyph-name="uni01F2" unicode="&#x1f2;" horiz-adv-x="2296" 
d="M501 0h-427l247 1490h443q209 0 344.5 -88.5t188 -254.5t14.5 -398q-58 -354 -268 -551.5t-542 -197.5zM179 84h319q299 0 485 177t237 488q51 308 -60.5 482.5t-392.5 174.5h-369zM1357 0l13 74l799 899v2h-644l14 81h756l-13 -77l-796 -896v-2h653l-14 -81h-768z" />
    <glyph glyph-name="uni01F3" unicode="&#x1f3;" horiz-adv-x="2003" 
d="M446 -17q-177 0 -282.5 115t-105.5 309q0 128 40.5 247t114.5 214t176 150t226 55q137 0 232 -74.5t112 -188.5h1l112 680h87l-246 -1490h-86l39 239h-1q-60 -115 -173.5 -185.5t-245.5 -70.5zM456 64q111 0 198.5 49.5t149 133.5t93.5 188t32 214q0 160 -81.5 251.5
t-225.5 91.5q-109 0 -196.5 -49t-150.5 -132t-96.5 -187t-33.5 -213q0 -165 86 -256t225 -91zM1063 0l13 74l799 899v2h-644l14 81h756l-13 -77l-796 -896v-2h653l-14 -81h-768z" />
    <glyph glyph-name="uni01F4" unicode="&#x1f4;" horiz-adv-x="1422" 
d="M643 -21q-167 0 -287 73.5t-184.5 207t-64.5 312.5q0 174 54.5 341.5t156 302.5t244.5 215t321 80q127 0 222.5 -42.5t159 -113.5t96 -158.5t32.5 -177.5h-91q-2 101 -48.5 194t-139.5 152.5t-234 59.5q-159 0 -285 -74t-215 -197.5t-136 -275t-47 -306.5
q0 -230 117.5 -368.5t331.5 -138.5q150 0 274.5 68t209.5 191t115 288h-473l14 84h564l-15 -86q-32 -188 -129 -330.5t-242 -221.5t-321 -79zM856 1675l222 274h103l-244 -274h-81z" />
    <glyph glyph-name="uni01F5" unicode="&#x1f5;" horiz-adv-x="1131" 
d="M400 -429q-184 0 -283.5 82t-100.5 235h86q8 -117 81 -176.5t219 -59.5q178 0 288.5 95.5t135.5 254.5l39 238h-1q-61 -114 -172.5 -185.5t-246.5 -71.5q-176 0 -281.5 115t-105.5 309q0 126 40 245t113.5 214t175.5 151t227 56q139 0 232.5 -73t112.5 -190h1l41 246h86
l-175 -1061q-35 -207 -172.5 -315.5t-339.5 -108.5zM456 64q110 0 197 50t149 133.5t94.5 188t32.5 213.5q0 160 -81.5 251.5t-226.5 91.5q-107 0 -194.5 -49t-150 -132t-96.5 -187t-34 -215q0 -164 84 -254.5t226 -90.5zM607 1241l222 274h103l-244 -274h-81z" />
    <glyph glyph-name="uni01F6" unicode="&#x1f6;" horiz-adv-x="2105" 
d="M1476 -17q-122 0 -208 50t-124.5 140t-18.5 209l56 338h-897l-119 -720h-91l246 1490h91l-114 -686h897l114 686h90l-184 -1112q-23 -145 50 -229t215 -84q146 0 252.5 87.5t130.5 232.5l111 671h87l-112 -681q-20 -119 -86.5 -207t-166 -136.5t-219.5 -48.5z" />
    <glyph glyph-name="uni01F7" unicode="&#x1f7;" horiz-adv-x="977" 
d="M278 1489l-8 -50q138 71 316 71q256 0 367 -156t60 -463l-8 -43q-42 -255 -174.5 -456t-341 -336.5t-480.5 -194.5l-46 -279h-101l315 1907h101zM24 -51q365 91 590.5 321t289.5 577l9 48q49 265 -38 396.5t-300 131.5q-204 -1 -329 -128z" />
    <glyph glyph-name="uni01F8" unicode="&#x1f8;" horiz-adv-x="1454" 
d="M74 0l247 1490h91l580 -1077q34 -63 71.5 -137t75.5 -148q10 72 21.5 150t21.5 137l179 1075h90l-247 -1490h-90l-562 1040q-36 65 -77.5 147.5t-87.5 176.5q-15 -97 -27 -178t-23 -145l-172 -1041h-91zM875 1626l-102 298h103l76 -298h-77z" />
    <glyph glyph-name="uni01F9" unicode="&#x1f9;" horiz-adv-x="1085" 
d="M241 661l-109 -661h-88l174 1056h86l-29 -181q67 101 166 149.5t208 48.5q114 0 195 -48.5t118 -138t16 -212.5l-111 -674h-87l111 677q24 147 -46 230.5t-209 83.5q-96 0 -180 -40.5t-141 -114.5t-74 -175zM619 1192l-102 298h103l76 -298h-77z" />
    <glyph glyph-name="Aringacute" unicode="&#x1fa;" horiz-adv-x="1258" 
d="M-67 0l802 1490h110l306 -1490h-92l-94 467h-683l-249 -467h-100zM327 551h621l-104 518q-15 75 -31 156.5t-33 181.5q-51 -100 -93.5 -181.5t-82.5 -156.5zM820 1634q-79 0 -126 54t-35 130q13 71 73.5 121.5t134.5 50.5q79 0 126 -54t34 -130q-12 -71 -72.5 -121.5
t-134.5 -50.5zM823 1705q47 0 85.5 32t45.5 77q7 44 -19.5 74.5t-71.5 30.5q-47 0 -85 -32t-46 -77q-7 -44 19.5 -74.5t71.5 -30.5zM846 2052l152 154h99l-173 -154h-78z" />
    <glyph glyph-name="aringacute" unicode="&#x1fb;" horiz-adv-x="1132" 
d="M440 -17q-135 0 -228 67.5t-132 190.5t-12 287t107.5 286.5t196 190.5t248.5 68q135 0 228.5 -73t111.5 -187h1l41 243h86l-175 -1056h-86l39 240h-1q-60 -114 -175.5 -185.5t-249.5 -71.5zM457 64q114 0 210 57t161.5 161t88.5 246q35 213 -45 338.5t-251 125.5
q-109 0 -206.5 -55.5t-166 -159.5t-92.5 -249q-36 -218 50 -341t251 -123zM659 1200q-79 0 -126 54t-35 130q13 71 73.5 121.5t134.5 50.5q79 0 126 -54t34 -130q-12 -71 -72.5 -121.5t-134.5 -50.5zM662 1271q47 0 85.5 32t45.5 77q7 44 -19.5 74.5t-71.5 30.5
q-47 0 -85 -32t-46 -77q-7 -44 19.5 -74.5t71.5 -30.5zM685 1618l152 154h99l-173 -154h-78z" />
    <glyph glyph-name="AEacute" unicode="&#x1fc;" horiz-adv-x="1870" 
d="M-67 0l979 1490h1027l-14 -85h-737l-102 -616h693l-14 -84h-693l-103 -621h755l-14 -84h-847l80 485h-593l-318 -485h-99zM405 569h552l139 836h-143zM1378 1675l222 274h103l-244 -274h-81z" />
    <glyph glyph-name="aeacute" unicode="&#x1fd;" horiz-adv-x="1739" 
d="M334 -21q-165 0 -246.5 88.5t-56.5 238.5q50 298 463 298q74 0 144 -2t152 -3l30 180q19 116 -48 185.5t-198 69.5q-88 0 -162.5 -34t-124.5 -94t-65 -137h-88q18 101 81 179t157.5 122.5t206.5 44.5q139 0 226 -65.5t102 -172.5q78 112 194.5 175.5t261.5 63.5
q152 0 240.5 -72.5t88.5 -202.5q0 -115 -84 -184.5t-266 -101t-476 -33.5q-2 -26 -3 -53q-2 -12 -4.5 -29.5t-2.5 -30.5q0 -179 73.5 -262.5t240.5 -83.5q125 0 213.5 48t160.5 147l83 -19q-82 -131 -192.5 -194.5t-261.5 -63.5q-159 0 -254.5 70t-125.5 216
q-61 -128 -177 -208t-282 -80zM777 523q-70 1 -141.5 2t-138.5 1q-165 0 -262.5 -53t-115.5 -169q-19 -119 38 -181.5t186 -62.5q122 0 210 52.5t141 142t71 199.5zM877 597q275 1 434 26.5t226.5 81t67.5 148.5q0 91 -61.5 136t-176.5 45q-189 0 -320 -119t-170 -318z
M911 1241l222 274h103l-244 -274h-81z" />
    <glyph glyph-name="Oslashacute" unicode="&#x1fe;" horiz-adv-x="1446" 
d="M638 -21q-164 0 -283 74t-183.5 208t-64.5 312q0 174 54.5 341t156.5 302t244.5 215t318.5 80q163 0 282 -74t183 -208t64 -313q0 -174 -54.5 -341t-155.5 -301.5t-243.5 -214.5t-318.5 -80zM642 65q155 0 280.5 73.5t214 196t136 273.5t47.5 306q0 237 -120.5 374
t-321.5 137q-157 0 -282.5 -73.5t-214.5 -196.5t-136.5 -274t-47.5 -306q0 -236 120 -373t325 -137zM153 -26l-61 52l1274 1490l61 -52zM865 1675l222 274h103l-244 -274h-81z" />
    <glyph glyph-name="oslashacute" unicode="&#x1ff;" horiz-adv-x="1080" 
d="M454 -19q-184 0 -290 119.5t-106 311.5q0 125 41.5 243.5t117 213t180 150.5t231.5 56q183 0 288 -120t105 -312q0 -125 -41 -243.5t-116.5 -213t-179.5 -150t-230 -55.5zM455 63q109 0 197 49.5t151.5 132.5t97 186.5t33.5 213.5q0 160 -80 254t-228 94q-108 0 -196 -49
t-152 -132.5t-98 -187t-34 -213.5q0 -160 81 -254t228 -94zM37 -25l-50 50l1056 1056l50 -50zM610 1241l222 274h103l-244 -274h-81z" />
    <glyph glyph-name="uni0200" unicode="&#x200;" horiz-adv-x="1258" 
d="M-67 0l802 1490h110l306 -1490h-92l-94 467h-683l-249 -467h-100zM327 551h621l-104 518q-15 75 -31 156.5t-33 181.5q-51 -100 -93.5 -181.5t-82.5 -156.5zM660 1626l-118 298h102l94 -298h-78zM894 1626l-84 298h101l61 -298h-78z" />
    <glyph glyph-name="uni0201" unicode="&#x201;" horiz-adv-x="1132" 
d="M440 -17q-135 0 -228 67.5t-132 190.5t-12 287t107.5 286.5t196 190.5t248.5 68q135 0 228.5 -73t111.5 -187h1l41 243h86l-175 -1056h-86l39 240h-1q-60 -114 -175.5 -185.5t-249.5 -71.5zM457 64q114 0 210 57t161.5 161t88.5 246q35 213 -45 338.5t-251 125.5
q-109 0 -206.5 -55.5t-166 -159.5t-92.5 -249q-36 -218 50 -341t251 -123zM499 1192l-118 298h102l94 -298h-78zM733 1192l-84 298h101l61 -298h-78z" />
    <glyph glyph-name="uni0202" unicode="&#x202;" horiz-adv-x="1258" 
d="M-67 0l802 1490h110l306 -1490h-92l-94 467h-683l-249 -467h-100zM327 551h621l-104 518q-15 75 -31 156.5t-33 181.5q-51 -100 -93.5 -181.5t-82.5 -156.5zM860 1917q116 0 181 -72.5t47 -177.5h-73q13 76 -35 128t-131 52q-82 0 -148 -52t-79 -128h-73q12 70 56.5 127
t111 90t143.5 33z" />
    <glyph glyph-name="uni0203" unicode="&#x203;" horiz-adv-x="1132" 
d="M440 -17q-135 0 -228 67.5t-132 190.5t-12 287t107.5 286.5t196 190.5t248.5 68q135 0 228.5 -73t111.5 -187h1l41 243h86l-175 -1056h-86l39 240h-1q-60 -114 -175.5 -185.5t-249.5 -71.5zM457 64q114 0 210 57t161.5 161t88.5 246q35 213 -45 338.5t-251 125.5
q-109 0 -206.5 -55.5t-166 -159.5t-92.5 -249q-36 -218 50 -341t251 -123zM699 1483q116 0 181 -72.5t47 -177.5h-73q13 76 -35 128t-131 52q-82 0 -148 -52t-79 -128h-73q12 70 56.5 127t111 90t143.5 33z" />
    <glyph glyph-name="uni0204" unicode="&#x204;" horiz-adv-x="1158" 
d="M74 0l247 1490h925l-15 -85h-832l-99 -601h761l-14 -84h-762l-105 -636h833l-14 -84h-925zM653 1626l-118 298h102l94 -298h-78zM887 1626l-84 298h101l61 -298h-78z" />
    <glyph glyph-name="uni0205" unicode="&#x205;" horiz-adv-x="1029" 
d="M453 -19q-179 0 -286.5 112t-107.5 323q0 132 42.5 250.5t119 210.5t181.5 145t231 53q165 0 254.5 -87.5t89.5 -213.5q0 -102 -58.5 -162.5t-168 -90.5t-262 -39.5t-340.5 -9.5q-2 -30 -2 -60q0 -155 76 -252t235 -97q134 0 235 69.5t148 180.5h89q-52 -145 -178 -238.5
t-298 -93.5zM160 550q238 1 400.5 15.5t245.5 61.5t83 147q0 90 -65.5 154.5t-196.5 64.5q-126 0 -222.5 -61t-159 -161.5t-85.5 -220.5zM498 1192l-118 298h102l94 -298h-78zM732 1192l-84 298h101l61 -298h-78z" />
    <glyph glyph-name="uni0206" unicode="&#x206;" horiz-adv-x="1158" 
d="M74 0l247 1490h925l-15 -85h-832l-99 -601h761l-14 -84h-762l-105 -636h833l-14 -84h-925zM853 1917q116 0 181 -72.5t47 -177.5h-73q13 76 -35 128t-131 52q-82 0 -148 -52t-79 -128h-73q12 70 56.5 127t111 90t143.5 33z" />
    <glyph glyph-name="uni0207" unicode="&#x207;" horiz-adv-x="1029" 
d="M453 -19q-179 0 -286.5 112t-107.5 323q0 132 42.5 250.5t119 210.5t181.5 145t231 53q165 0 254.5 -87.5t89.5 -213.5q0 -102 -58.5 -162.5t-168 -90.5t-262 -39.5t-340.5 -9.5q-2 -30 -2 -60q0 -155 76 -252t235 -97q134 0 235 69.5t148 180.5h89q-52 -145 -178 -238.5
t-298 -93.5zM160 550q238 1 400.5 15.5t245.5 61.5t83 147q0 90 -65.5 154.5t-196.5 64.5q-126 0 -222.5 -61t-159 -161.5t-85.5 -220.5zM698 1483q116 0 181 -72.5t47 -177.5h-73q13 76 -35 128t-131 52q-82 0 -148 -52t-79 -128h-73q12 70 56.5 127t111 90t143.5 33z" />
    <glyph glyph-name="uni0208" unicode="&#x208;" horiz-adv-x="414" 
d="M412 1490l-247 -1490h-91l247 1490h91zM237 1626l-118 298h102l94 -298h-78zM471 1626l-84 298h101l61 -298h-78z" />
    <glyph glyph-name="uni0209" unicode="&#x209;" horiz-adv-x="351" 
d="M44 0l175 1056h88l-175 -1056h-88zM133 1192l-118 298h102l94 -298h-78zM367 1192l-84 298h101l61 -298h-78z" />
    <glyph glyph-name="uni020A" unicode="&#x20a;" horiz-adv-x="414" 
d="M412 1490l-247 -1490h-91l247 1490h91zM437 1917q116 0 181 -72.5t47 -177.5h-73q13 76 -35 128t-131 52q-82 0 -148 -52t-79 -128h-73q12 70 56.5 127t111 90t143.5 33z" />
    <glyph glyph-name="uni020B" unicode="&#x20b;" horiz-adv-x="351" 
d="M44 0l175 1056h88l-175 -1056h-88zM333 1483q116 0 181 -72.5t47 -177.5h-73q13 76 -35 128t-131 52q-82 0 -148 -52t-79 -128h-73q12 70 56.5 127t111 90t143.5 33z" />
    <glyph glyph-name="uni020C" unicode="&#x20c;" horiz-adv-x="1446" 
d="M638 -21q-164 0 -283 74t-183.5 208t-64.5 312q0 174 54.5 341t156.5 302t244.5 215t318.5 80q163 0 282 -74t183 -208t64 -313q0 -174 -54.5 -341t-155.5 -301.5t-243.5 -214.5t-318.5 -80zM642 65q155 0 280.5 73.5t214 196t136 273.5t47.5 306q0 237 -120.5 374
t-321.5 137q-157 0 -282.5 -73.5t-214.5 -196.5t-136.5 -274t-47.5 -306q0 -236 120 -373t325 -137zM753 1626l-118 298h102l94 -298h-78zM987 1626l-84 298h101l61 -298h-78z" />
    <glyph glyph-name="uni020D" unicode="&#x20d;" horiz-adv-x="1080" 
d="M454 -19q-184 0 -290 119.5t-106 311.5q0 125 41.5 243.5t117 213t180 150.5t231.5 56q183 0 288 -120t105 -312q0 -125 -41 -243.5t-116.5 -213t-179.5 -150t-230 -55.5zM455 63q109 0 197 49.5t151.5 132.5t97 186.5t33.5 213.5q0 160 -80 254t-228 94q-108 0 -196 -49
t-152 -132.5t-98 -187t-34 -213.5q0 -160 81 -254t228 -94zM498 1192l-118 298h102l94 -298h-78zM732 1192l-84 298h101l61 -298h-78z" />
    <glyph glyph-name="uni020E" unicode="&#x20e;" horiz-adv-x="1446" 
d="M638 -21q-164 0 -283 74t-183.5 208t-64.5 312q0 174 54.5 341t156.5 302t244.5 215t318.5 80q163 0 282 -74t183 -208t64 -313q0 -174 -54.5 -341t-155.5 -301.5t-243.5 -214.5t-318.5 -80zM642 65q155 0 280.5 73.5t214 196t136 273.5t47.5 306q0 237 -120.5 374
t-321.5 137q-157 0 -282.5 -73.5t-214.5 -196.5t-136.5 -274t-47.5 -306q0 -236 120 -373t325 -137zM953 1917q116 0 181 -72.5t47 -177.5h-73q13 76 -35 128t-131 52q-82 0 -148 -52t-79 -128h-73q12 70 56.5 127t111 90t143.5 33z" />
    <glyph glyph-name="uni020F" unicode="&#x20f;" horiz-adv-x="1080" 
d="M454 -19q-184 0 -290 119.5t-106 311.5q0 125 41.5 243.5t117 213t180 150.5t231.5 56q183 0 288 -120t105 -312q0 -125 -41 -243.5t-116.5 -213t-179.5 -150t-230 -55.5zM455 63q109 0 197 49.5t151.5 132.5t97 186.5t33.5 213.5q0 160 -80 254t-228 94q-108 0 -196 -49
t-152 -132.5t-98 -187t-34 -213.5q0 -160 81 -254t228 -94zM698 1483q116 0 181 -72.5t47 -177.5h-73q13 76 -35 128t-131 52q-82 0 -148 -52t-79 -128h-73q12 70 56.5 127t111 90t143.5 33z" />
    <glyph glyph-name="uni0210" unicode="&#x210;" horiz-adv-x="1221" 
d="M74 0l247 1490h506q135 0 228.5 -54t135 -151.5t19.5 -229.5q-27 -162 -134 -272t-261 -145l236 -638h-96l-229 625q-22 -2 -45 -2h-413l-103 -623h-91zM282 707h411q109 0 199.5 44t150.5 123t77 184q27 160 -55.5 254t-245.5 94h-421zM639 1626l-118 298h102l94 -298
h-78zM873 1626l-84 298h101l61 -298h-78z" />
    <glyph glyph-name="uni0211" unicode="&#x211;" horiz-adv-x="579" 
d="M44 0l175 1056h85l-31 -187h2q50 90 142 143t201 53q14 0 22 -0.5t18 -1.5l-15 -87q-7 1 -19.5 2.5t-30.5 1.5q-128 0 -227.5 -84t-122.5 -226l-111 -670h-88zM323 1192l-118 298h102l94 -298h-78zM557 1192l-84 298h101l61 -298h-78z" />
    <glyph glyph-name="uni0212" unicode="&#x212;" horiz-adv-x="1221" 
d="M74 0l247 1490h506q135 0 228.5 -54t135 -151.5t19.5 -229.5q-27 -162 -134 -272t-261 -145l236 -638h-96l-229 625q-22 -2 -45 -2h-413l-103 -623h-91zM282 707h411q109 0 199.5 44t150.5 123t77 184q27 160 -55.5 254t-245.5 94h-421zM839 1917q116 0 181 -72.5
t47 -177.5h-73q13 76 -35 128t-131 52q-82 0 -148 -52t-79 -128h-73q12 70 56.5 127t111 90t143.5 33z" />
    <glyph glyph-name="uni0213" unicode="&#x213;" horiz-adv-x="579" 
d="M44 0l175 1056h85l-31 -187h2q50 90 142 143t201 53q14 0 22 -0.5t18 -1.5l-15 -87q-7 1 -19.5 2.5t-30.5 1.5q-128 0 -227.5 -84t-122.5 -226l-111 -670h-88zM523 1483q116 0 181 -72.5t47 -177.5h-73q13 76 -35 128t-131 52q-82 0 -148 -52t-79 -128h-73
q12 70 56.5 127t111 90t143.5 33z" />
    <glyph glyph-name="uni0214" unicode="&#x214;" horiz-adv-x="1381" 
d="M606 -19q-162 0 -276 69.5t-166 189.5t-27 272l162 978h91l-162 -980q-21 -128 20 -228t134 -157t227 -57q136 0 251 58.5t191 160t98 230.5l161 973h90l-162 -985q-25 -152 -115 -270t-224 -186t-293 -68zM720 1626l-118 298h102l94 -298h-78zM954 1626l-84 298h101
l61 -298h-78z" />
    <glyph glyph-name="uni0215" unicode="&#x215;" horiz-adv-x="1086" 
d="M436 -17q-112 0 -193.5 47.5t-118.5 136t-17 212.5l112 677h88l-112 -673q-25 -148 47 -233t213 -85q95 0 177.5 39.5t139 113t73.5 173.5l110 665h87l-175 -1056h-86l31 184q-67 -102 -166 -151.5t-210 -49.5zM501 1192l-118 298h102l94 -298h-78zM735 1192l-84 298h101
l61 -298h-78z" />
    <glyph glyph-name="uni0216" unicode="&#x216;" horiz-adv-x="1381" 
d="M606 -19q-162 0 -276 69.5t-166 189.5t-27 272l162 978h91l-162 -980q-21 -128 20 -228t134 -157t227 -57q136 0 251 58.5t191 160t98 230.5l161 973h90l-162 -985q-25 -152 -115 -270t-224 -186t-293 -68zM920 1917q116 0 181 -72.5t47 -177.5h-73q13 76 -35 128
t-131 52q-82 0 -148 -52t-79 -128h-73q12 70 56.5 127t111 90t143.5 33z" />
    <glyph glyph-name="uni0217" unicode="&#x217;" horiz-adv-x="1086" 
d="M436 -17q-112 0 -193.5 47.5t-118.5 136t-17 212.5l112 677h88l-112 -673q-25 -148 47 -233t213 -85q95 0 177.5 39.5t139 113t73.5 173.5l110 665h87l-175 -1056h-86l31 184q-67 -102 -166 -151.5t-210 -49.5zM701 1483q116 0 181 -72.5t47 -177.5h-73q13 76 -35 128
t-131 52q-82 0 -148 -52t-79 -128h-73q12 70 56.5 127t111 90t143.5 33z" />
    <glyph glyph-name="uni0218" unicode="&#x218;" horiz-adv-x="1171" 
d="M500 -23q-224 0 -340.5 114.5t-92.5 301.5h91q-18 -155 73.5 -242.5t270.5 -87.5q124 0 223 41t163 115t80 173q18 109 -44 179t-228 122l-161 49q-184 56 -261.5 148t-53.5 230q19 115 92 203.5t185.5 139t247.5 50.5q138 0 233 -53t139.5 -147t29.5 -218h-88
q14 152 -70.5 242t-249.5 90q-109 0 -201 -41t-153.5 -112t-76.5 -162q-17 -103 44.5 -171.5t214.5 -115.5l161 -50q192 -58 273 -152.5t57 -239.5q-20 -120 -95.5 -211.5t-194.5 -143t-268 -51.5zM280 -494l153 376h92l-177 -376h-68z" />
    <glyph glyph-name="uni0219" unicode="&#x219;" horiz-adv-x="934" 
d="M386 -17q-161 0 -253 75t-92 210q0 26 3 48h86q-14 -124 54.5 -189t201.5 -65q93 0 171.5 33.5t126 93t47.5 136.5q0 61 -46 92t-130 51l-172 42q-119 30 -182.5 83.5t-63.5 142.5q0 101 57.5 177t152 118t205.5 42q152 0 237.5 -74.5t85.5 -210.5q0 -25 -3 -47h-85
q13 123 -48 188t-187 65q-87 0 -161.5 -32t-120 -89t-45.5 -132q0 -61 47 -96.5t136 -56.5l173 -42q116 -28 177 -78t61 -136q0 -106 -60 -184.5t-158 -121.5t-215 -43zM162 -494l153 376h92l-177 -376h-68z" />
    <glyph glyph-name="uni021A.1" unicode="&#x21a;" horiz-adv-x="1222" 
d="M202 1406l15 84h1107l-14 -84h-508l-233 -1406h-91l233 1406h-509zM303 -494l153 376h92l-177 -376h-68z" />
    <glyph glyph-name="uni021B" unicode="&#x21b;" horiz-adv-x="528" 
d="M578 1056l-13 -79h-226l-125 -758q-12 -76 14.5 -108t104.5 -32h84l-13 -79h-90q-223 0 -188 213l126 764h-173l14 79h172l48 288h87l-48 -288h226zM28 -494l153 376h92l-177 -376h-68z" />
    <glyph glyph-name="uni021C" unicode="&#x21c;" horiz-adv-x="1131" 
d="M125 358l14 83q247 70 437.5 170t306.5 225.5t139 270.5q24 146 -60.5 231t-248.5 85q-117 0 -211.5 -41t-155.5 -111t-75 -158h-100q20 117 97 206.5t195 140t259 50.5q208 0 319.5 -108t80.5 -294q-17 -102 -76 -197t-153 -180q84 -59 115.5 -159.5t7.5 -248.5
q-33 -201 -149.5 -337.5t-331 -235t-542.5 -186.5l15 89q300 82 490 171t289.5 208.5t129.5 294.5q41 250 -93 347q-133 -102 -311.5 -182.5t-387.5 -133.5z" />
    <glyph glyph-name="uni021D" unicode="&#x21d;" horiz-adv-x="949" 
d="M94 246l15 81q181 28 328 96.5t240 168t110 219.5q16 107 -41 172.5t-182 65.5q-128 0 -226 -70t-117 -191h-97q18 106 80.5 183.5t157 120t209.5 41.5q166 1 252 -88t61 -235q-14 -83 -59 -159t-116 -141q126 -118 86 -356q-42 -267 -240.5 -412t-571.5 -178l12 84
q328 35 497 158.5t207 350.5q33 198 -59 296q-106 -77 -246 -131t-300 -76z" />
    <glyph glyph-name="uni021E" unicode="&#x21e;" horiz-adv-x="1403" 
d="M74 0l247 1490h92l-113 -686h896l114 686h91l-247 -1490h-91l119 720h-897l-119 -720h-92zM745 1941l155 -216l229 216h96v-1l-293 -273h-85l-198 273v1h96z" />
    <glyph glyph-name="uni021F" unicode="&#x21f;" horiz-adv-x="1086" 
d="M242 665l-110 -665h-88l247 1490h88l-103 -615q66 100 163.5 149t207.5 49q112 0 194 -47.5t120.5 -136t17.5 -212.5l-112 -677h-87l111 673q25 148 -47 233t-213 85q-95 0 -177.5 -39.5t-139 -112.5t-72.5 -174zM218 1941l155 -216l229 216h96v-1l-293 -273h-85
l-198 273v1h96z" />
    <glyph glyph-name="uni0220" unicode="&#x220;" horiz-adv-x="1032" 
d="M821 -417h-99l231 1390q39 241 -39 346t-293 105q-194 -1 -340 -82l-222 -1342h-98l248 1490h96l-9 -57q71 36 157 56.5t184 20.5q238 0 348.5 -130t64.5 -410z" />
    <glyph glyph-name="uni0221" unicode="&#x221;" horiz-adv-x="1452" 
d="M1032 -413q-108 0 -167.5 57t-65.5 144q-8 -9 -15 -19l-161 -160l-54 54l144 147q52 61 99 106l34 205h1l19 118h-1q-60 -115 -173.5 -185.5t-245.5 -70.5q-177 0 -282.5 115t-105.5 309q0 128 40.5 247t114.5 214t176 150t226 55q137 0 232 -74.5t112 -188.5h1l112 680
h87l-231 -1404l-15 -88q101 68 200 68q112 0 177.5 -66t47.5 -174q-18 -107 -104 -173t-202 -66zM456 64q111 0 198.5 49.5t149 133.5t93.5 188t32 214q0 160 -81.5 251.5t-225.5 91.5q-109 0 -196.5 -49t-150.5 -132t-96.5 -187t-33.5 -213q0 -165 86 -256t225 -91z
M895 -110l-6 -37q-14 -87 31.5 -136.5t125.5 -49.5q75 0 132.5 43.5t69.5 115.5q12 70 -31 113.5t-115 45.5q-99 4 -207 -95z" />
    <glyph glyph-name="uni0222" unicode="&#x222;" horiz-adv-x="1096" 
d="M577 852h38q186 1 306 69.5t146 231.5q20 122 -29 190.5t-147 87.5l14 84q134 -15 211.5 -106.5t50.5 -255.5q-23 -137 -102.5 -222.5t-201.5 -125.5q117 -47 168.5 -145.5t27.5 -243.5q-37 -222 -195 -329t-405 -107h-16q-240 0 -365 110t-89 325q24 149 107 247.5
t217 144.5q-107 41 -159 126t-30 220q27 163 126.5 250.5t236.5 106.5l-15 -86q-97 -21 -163 -87.5t-86 -183.5q-27 -163 70.5 -231.5t283.5 -69.5zM597 764h-31q-420 0 -478 -349q-29 -175 67 -261t302 -86h18q205 0 330 86t154 262q28 171 -63.5 259.5t-298.5 88.5z" />
    <glyph glyph-name="uni0223" unicode="&#x223;" horiz-adv-x="1132" 
d="M661 849q183 0 306.5 80t149.5 244q21 130 -23 204t-151 100l14 79q142 -16 214 -116.5t44 -266.5q-24 -143 -107.5 -234.5t-210.5 -133.5q116 -47 168.5 -144t28.5 -241q-36 -215 -196 -327.5t-403 -112.5h-52q-239 0 -364 113.5t-90 325.5q25 149 109 246t217 142
q-112 43 -165.5 135t-30.5 231q27 167 123.5 262.5t240.5 115.5l-14 -83q-103 -27 -167.5 -99.5t-84.5 -195.5q-28 -168 67.5 -246t282.5 -78h94zM633 764h-66q-204 0 -328 -87t-152 -258q-29 -175 68 -265t301 -90h55q200 0 328 91t156 265q30 173 -64 258.5t-298 85.5z
" />
    <glyph glyph-name="uni0224" unicode="&#x224;" horiz-adv-x="1147" 
d="M601 -418l14 83h81q69 0 105 31t48 103l33 201h-876l12 74l1068 1331h-846l14 85h960l-13 -76l-1068 -1330h853l-14 -84l-33 -203q-36 -215 -253 -215h-85z" />
    <glyph glyph-name="uni0225" unicode="&#x225;" horiz-adv-x="937" 
d="M735 -208l8 47q12 77 -13.5 119t-106.5 42h-626l13 74l801 899v2h-646l14 81h756l-13 -77l-798 -896v-2h507q235 0 196 -232l-9 -57h-83z" />
    <glyph glyph-name="uni0226" unicode="&#x226;" horiz-adv-x="1258" 
d="M-67 0l802 1490h110l306 -1490h-92l-94 467h-683l-249 -467h-100zM327 551h621l-104 518q-15 75 -31 156.5t-33 181.5q-51 -100 -93.5 -181.5t-82.5 -156.5zM831 1742q-29 0 -45.5 20.5t-12.5 49.5q5 29 29 49.5t53 20.5t46 -20.5t12 -49.5q-4 -29 -28.5 -49.5
t-53.5 -20.5z" />
    <glyph glyph-name="uni0227" unicode="&#x227;" horiz-adv-x="1132" 
d="M440 -17q-135 0 -228 67.5t-132 190.5t-12 287t107.5 286.5t196 190.5t248.5 68q135 0 228.5 -73t111.5 -187h1l41 243h86l-175 -1056h-86l39 240h-1q-60 -114 -175.5 -185.5t-249.5 -71.5zM457 64q114 0 210 57t161.5 161t88.5 246q35 213 -45 338.5t-251 125.5
q-109 0 -206.5 -55.5t-166 -159.5t-92.5 -249q-36 -218 50 -341t251 -123zM670 1308q-29 0 -45.5 20.5t-12.5 49.5q5 29 29 49.5t53 20.5t46 -20.5t12 -49.5q-4 -29 -28.5 -49.5t-53.5 -20.5z" />
    <glyph glyph-name="uni0228" unicode="&#x228;" horiz-adv-x="1158" 
d="M74 0l247 1490h925l-15 -85h-832l-99 -601h761l-14 -84h-762l-105 -636h833l-14 -84h-925zM370 -418l11 65h104q123 0 139 96q16 97 -112 97h-65l67 188h54l1 -28l-33 -97q88 -3 131.5 -45.5t31.5 -114.5q-13 -77 -73.5 -119t-150.5 -42h-105z" />
    <glyph glyph-name="uni0229" unicode="&#x229;" horiz-adv-x="1029" 
d="M453 -19q-179 0 -286.5 112t-107.5 323q0 132 42.5 250.5t119 210.5t181.5 145t231 53q165 0 254.5 -87.5t89.5 -213.5q0 -102 -58.5 -162.5t-168 -90.5t-262 -39.5t-340.5 -9.5q-2 -30 -2 -60q0 -155 76 -252t235 -97q134 0 235 69.5t148 180.5h89q-52 -145 -178 -238.5
t-298 -93.5zM160 550q238 1 400.5 15.5t245.5 61.5t83 147q0 90 -65.5 154.5t-196.5 64.5q-126 0 -222.5 -61t-159 -161.5t-85.5 -220.5zM287 -418l11 65h104q123 0 139 96q16 97 -112 97h-65l67 188h54l1 -28l-33 -97q88 -3 131.5 -45.5t31.5 -114.5q-13 -77 -73.5 -119
t-150.5 -42h-105z" />
    <glyph glyph-name="uni022A" unicode="&#x22a;" horiz-adv-x="1446" 
d="M638 -21q-164 0 -283 74t-183.5 208t-64.5 312q0 174 54.5 341t156.5 302t244.5 215t318.5 80q163 0 282 -74t183 -208t64 -313q0 -174 -54.5 -341t-155.5 -301.5t-243.5 -214.5t-318.5 -80zM642 65q155 0 280.5 73.5t214 196t136 273.5t47.5 306q0 237 -120.5 374
t-321.5 137q-157 0 -282.5 -73.5t-214.5 -196.5t-136.5 -274t-47.5 -306q0 -236 120 -373t325 -137zM1233 2068l-13 -73h-493l13 73h493zM709 1692q-29 0 -46 20.5t-13 49.5q5 29 29 49.5t53 20.5t46 -20.5t12 -49.5q-4 -29 -28 -49.5t-53 -20.5zM1117 1692
q-29 0 -45.5 20.5t-12.5 49.5q5 29 29 49.5t53 20.5t46 -20.5t12 -49.5q-4 -29 -28.5 -49.5t-53.5 -20.5z" />
    <glyph glyph-name="uni022B" unicode="&#x22b;" horiz-adv-x="1080" 
d="M454 -19q-184 0 -290 119.5t-106 311.5q0 125 41.5 243.5t117 213t180 150.5t231.5 56q183 0 288 -120t105 -312q0 -125 -41 -243.5t-116.5 -213t-179.5 -150t-230 -55.5zM455 63q109 0 197 49.5t151.5 132.5t97 186.5t33.5 213.5q0 160 -80 254t-228 94q-108 0 -196 -49
t-152 -132.5t-98 -187t-34 -213.5q0 -160 81 -254t228 -94zM978 1634l-13 -73h-493l13 73h493zM454 1258q-29 0 -46 20.5t-13 49.5q5 29 29 49.5t53 20.5t46 -20.5t12 -49.5q-4 -29 -28 -49.5t-53 -20.5zM862 1258q-29 0 -45.5 20.5t-12.5 49.5q5 29 29 49.5t53 20.5
t46 -20.5t12 -49.5q-4 -29 -28.5 -49.5t-53.5 -20.5z" />
    <glyph glyph-name="uni022C" unicode="&#x22c;" horiz-adv-x="1446" 
d="M638 -21q-164 0 -283 74t-183.5 208t-64.5 312q0 174 54.5 341t156.5 302t244.5 215t318.5 80q163 0 282 -74t183 -208t64 -313q0 -174 -54.5 -341t-155.5 -301.5t-243.5 -214.5t-318.5 -80zM642 65q155 0 280.5 73.5t214 196t136 273.5t47.5 306q0 237 -120.5 374
t-321.5 137q-157 0 -282.5 -73.5t-214.5 -196.5t-136.5 -274t-47.5 -306q0 -236 120 -373t325 -137zM1041 1668q-53 0 -89 26.5t-67.5 53t-69.5 26.5q-42 0 -71.5 -28.5t-39.5 -71.5h-72q17 74 66 123t118 49q58 0 93.5 -26.5t64.5 -53t67 -26.5q73 0 108 98h71
q-22 -79 -69.5 -124.5t-109.5 -45.5zM1233 2068l-13 -73h-493l13 73h493z" />
    <glyph glyph-name="uni022D" unicode="&#x22d;" horiz-adv-x="1080" 
d="M454 -19q-184 0 -290 119.5t-106 311.5q0 125 41.5 243.5t117 213t180 150.5t231.5 56q183 0 288 -120t105 -312q0 -125 -41 -243.5t-116.5 -213t-179.5 -150t-230 -55.5zM455 63q109 0 197 49.5t151.5 132.5t97 186.5t33.5 213.5q0 160 -80 254t-228 94q-108 0 -196 -49
t-152 -132.5t-98 -187t-34 -213.5q0 -160 81 -254t228 -94zM786 1234q-53 0 -89 26.5t-67.5 53t-69.5 26.5q-42 0 -71.5 -28.5t-39.5 -71.5h-72q17 74 66 123t118 49q58 0 93.5 -26.5t64.5 -53t67 -26.5q73 0 108 98h71q-22 -79 -69.5 -124.5t-109.5 -45.5zM978 1634
l-13 -73h-493l13 73h493z" />
    <glyph glyph-name="uni022E" unicode="&#x22e;" horiz-adv-x="1446" 
d="M638 -21q-164 0 -283 74t-183.5 208t-64.5 312q0 174 54.5 341t156.5 302t244.5 215t318.5 80q163 0 282 -74t183 -208t64 -313q0 -174 -54.5 -341t-155.5 -301.5t-243.5 -214.5t-318.5 -80zM642 65q155 0 280.5 73.5t214 196t136 273.5t47.5 306q0 237 -120.5 374
t-321.5 137q-157 0 -282.5 -73.5t-214.5 -196.5t-136.5 -274t-47.5 -306q0 -236 120 -373t325 -137zM924 1742q-29 0 -45.5 20.5t-12.5 49.5q5 29 29 49.5t53 20.5t46 -20.5t12 -49.5q-4 -29 -28.5 -49.5t-53.5 -20.5z" />
    <glyph glyph-name="uni022F" unicode="&#x22f;" horiz-adv-x="1080" 
d="M454 -19q-184 0 -290 119.5t-106 311.5q0 125 41.5 243.5t117 213t180 150.5t231.5 56q183 0 288 -120t105 -312q0 -125 -41 -243.5t-116.5 -213t-179.5 -150t-230 -55.5zM455 63q109 0 197 49.5t151.5 132.5t97 186.5t33.5 213.5q0 160 -80 254t-228 94q-108 0 -196 -49
t-152 -132.5t-98 -187t-34 -213.5q0 -160 81 -254t228 -94zM669 1308q-29 0 -45.5 20.5t-12.5 49.5q5 29 29 49.5t53 20.5t46 -20.5t12 -49.5q-4 -29 -28.5 -49.5t-53.5 -20.5z" />
    <glyph glyph-name="uni0230" unicode="&#x230;" horiz-adv-x="1446" 
d="M638 -21q-164 0 -283 74t-183.5 208t-64.5 312q0 174 54.5 341t156.5 302t244.5 215t318.5 80q163 0 282 -74t183 -208t64 -313q0 -174 -54.5 -341t-155.5 -301.5t-243.5 -214.5t-318.5 -80zM642 65q155 0 280.5 73.5t214 196t136 273.5t47.5 306q0 237 -120.5 374
t-321.5 137q-157 0 -282.5 -73.5t-214.5 -196.5t-136.5 -274t-47.5 -306q0 -236 120 -373t325 -137zM1234 2068l-13 -73h-494l13 73h494zM916 1692q-29 0 -45.5 20.5t-12.5 49.5q5 29 29 49.5t53 20.5t46 -20.5t12 -49.5q-4 -29 -28.5 -49.5t-53.5 -20.5z" />
    <glyph glyph-name="uni0231" unicode="&#x231;" horiz-adv-x="1080" 
d="M454 -19q-184 0 -290 119.5t-106 311.5q0 125 41.5 243.5t117 213t180 150.5t231.5 56q183 0 288 -120t105 -312q0 -125 -41 -243.5t-116.5 -213t-179.5 -150t-230 -55.5zM455 63q109 0 197 49.5t151.5 132.5t97 186.5t33.5 213.5q0 160 -80 254t-228 94q-108 0 -196 -49
t-152 -132.5t-98 -187t-34 -213.5q0 -160 81 -254t228 -94zM979 1634l-13 -73h-494l13 73h494zM661 1258q-29 0 -45.5 20.5t-12.5 49.5q5 29 29 49.5t53 20.5t46 -20.5t12 -49.5q-4 -29 -28.5 -49.5t-53.5 -20.5z" />
    <glyph glyph-name="uni0232" unicode="&#x232;" horiz-adv-x="1252" 
d="M493 0l112 675l-426 815h100l258 -493q31 -59 61 -119t60 -119q49 59 99 119t100 119l421 493h113l-695 -815l-112 -675h-91zM1089 1840l-13 -77h-493l13 77h493z" />
    <glyph glyph-name="uni0233" unicode="&#x233;" horiz-adv-x="1015" 
d="M-36 -418l13 81h94q69 0 110 32t96 128l99 175l-256 1058h90l162 -683q16 -68 31.5 -136t30.5 -136q37 68 75 136t77 136l385 683h97l-718 -1262q-66 -117 -131 -164.5t-161 -47.5h-94zM896 1406l-13 -77h-493l13 77h493z" />
    <glyph glyph-name="uni0234" unicode="&#x234;" horiz-adv-x="671" 
d="M251 -413q-109 0 -168.5 57t-65.5 144q-7 -9 -15 -19l-161 -160l-54 54l145 147q52 61 99 106l13 84v0l11 66l9 55v0l227 1369h88l-239 -1440l-9 -52q101 68 201 68q111 0 176.5 -66t48.5 -174q-18 -107 -104 -173t-202 -66zM114 -110l-6 -37q-15 -87 30.5 -136.5
t125.5 -49.5q76 0 133 43.5t70 115.5q11 70 -31.5 113.5t-115.5 45.5q-99 4 -206 -95z" />
    <glyph glyph-name="uni0235" unicode="&#x235;" horiz-adv-x="1405" 
d="M986 -413q-109 0 -168.5 57t-64.5 144q-8 -9 -16 -19l-160 -160l-55 54l145 147q52 61 99 106l14 84v0l17 104l3 17v0l91 556q24 147 -46 230.5t-209 83.5q-96 0 -180 -40.5t-141 -114.5t-74 -175l-109 -661h-88l174 1056h86l-29 -181q67 101 166 149.5t208 48.5
q114 0 195 -48.5t118 -138t16 -212.5l-91 -553v0l-20 -123q101 68 200 68q111 0 176.5 -66t48.5 -174q-18 -107 -104 -173t-202 -66zM849 -110l-6 -37q-14 -87 31.5 -136.5t124.5 -49.5q76 0 133.5 43.5t69.5 115.5q12 70 -31 113.5t-116 45.5q-98 4 -206 -95z" />
    <glyph glyph-name="uni0236" unicode="&#x236;" horiz-adv-x="742" 
d="M350 -17q-109 0 -168.5 57t-64.5 144q-8 -9 -16 -19l-160 -160l-55 54l145 147q52 61 99 106l14 84v0l12 75l8 46v0l83 501h-161l13 79h161l45 274h87l-45 -274h226l-13 -79h-226l-93 -563l-10 -61q101 68 200 68q112 0 177 -66t48 -174q-18 -107 -104 -173t-202 -66z
M213 286l-6 -37q-14 -87 31.5 -136.5t124.5 -49.5q76 0 133 43.5t70 115.5q11 70 -31.5 113.5t-115.5 45.5q-98 4 -206 -95z" />
    <glyph glyph-name="uni0237" unicode="&#x237;" horiz-adv-x="355" 
d="M223 1056h87l-201 -1213q-19 -118 -106 -189.5t-200 -71.5h-37l13 81h32q77 0 137 48.5t75 139.5z" />
    <glyph glyph-name="uni0238" unicode="&#x238;" horiz-adv-x="1675" 
d="M1641 559l-4 -24q-27 -165 -100 -290.5t-178 -196t-231 -71.5q-107 1 -184 53.5t-120 147.5l-29 -178h-88l21 181q-75 -96 -170.5 -149.5t-203.5 -54.5q-124 1 -205.5 71t-113 195.5t-4.5 291.5l4 25q27 177 100 305.5t179 198.5t231 69q108 1 186 -52t120 -149l92 558
h98l-92 -556q75 95 170 147.5t203 51.5q125 1 206 -69.5t111 -200t2 -304.5zM1540 535l3 24q37 219 -25.5 353.5t-219.5 134.5q-105 0 -201.5 -58.5t-163.5 -152.5l-92 -559q38 -95 113.5 -154t180.5 -58q104 -1 187 59t139.5 166.5t78.5 244.5zM132 559l-3 -23
q-25 -138 -4 -244.5t85 -167t168 -59.5q105 -1 200 59t165 155l92 556q-36 94 -113 153t-181 59q-159 0 -264 -135t-145 -353z" />
    <glyph glyph-name="uni0239" unicode="&#x239;" horiz-adv-x="1675" 
d="M628 -416l99 596q-75 -96 -170 -149t-203 -54q-124 1 -205.5 71t-113 195.5t-4.5 291.5l4 25q27 177 100 305.5t179 198.5t231 69q108 1 186 -52.5t121 -149.5l41 187h76l-21 -186q74 96 170 149t204 52q125 1 206 -69.5t111 -200t2 -304.5l-4 -24q-27 -165 -100 -290.5
t-178 -196t-231 -71.5q-107 1 -184 53.5t-120 148.5l-99 -595h-97zM1540 535l3 24q37 219 -25.5 353.5t-219.5 134.5q-105 0 -201.5 -59t-163.5 -152l-93 -558q38 -95 114 -154.5t181 -58.5q104 -1 187 59t139.5 166.5t78.5 244.5zM132 559l-3 -23q-25 -138 -4 -244.5
t85 -167t168 -59.5q105 -1 200 59t165 155l92 555q-36 95 -113 154t-181 59q-159 0 -264 -135t-145 -353z" />
    <glyph glyph-name="uni023A" unicode="&#x23a;" horiz-adv-x="1258" 
d="M1179 1678l-268 -513l240 -1165h-92l-94 467h-417l-342 -657h-89l342 657h-177l-249 -467h-100l802 1490h110l41 -203l204 391h89zM503 551l321 617q-10 53 -21 112t-23 127q-51 -100 -93.5 -181.5t-82.5 -156.5l-277 -518h176zM849 1044l-258 -493h357z" />
    <glyph glyph-name="uni023B" unicode="&#x23b;" horiz-adv-x="1394" 
d="M184 -190l142 262q-105 76 -162 204.5t-57 295.5q0 175 54.5 342.5t156.5 302t245.5 214.5t321.5 80q110 0 203 -34l109 201h88l-127 -235q117 -67 175.5 -183t59.5 -241h-91q-4 103 -50.5 196t-136.5 148l-679 -1251q93 -47 210 -47q139 0 252.5 58.5t193.5 151
t119 196.5h92q-31 -92 -91 -179.5t-145 -158t-192 -112.5t-233 -42q-139 0 -249 53l-120 -222h-89zM370 153l675 1244q-74 28 -163 28q-153 0 -279 -71.5t-216.5 -192.5t-140 -273.5t-49.5 -314.5q0 -145 46 -251t127 -169z" />
    <glyph glyph-name="uni023C" unicode="&#x23c;" horiz-adv-x="1036" 
d="M-22 -418l248 466q-92 63 -135.5 178.5t-25.5 264.5q17 160 93.5 292.5t197 212t269.5 79.5q74 0 137 -21l233 436h78l-247 -464q81 -46 127 -127.5t47 -187.5h-88q-6 169 -126 241l-460 -864q59 -25 131 -25q135 0 238.5 76.5t155.5 208.5h91q-37 -108 -109 -191
t-169 -129.5t-209 -46.5q-92 0 -168 33l-230 -432h-79zM266 122l457 857q-46 14 -100 14q-125 0 -225.5 -68t-165 -182.5t-80.5 -254.5q-16 -124 14.5 -218.5t99.5 -147.5z" />
    <glyph glyph-name="uni023D" unicode="&#x23d;" horiz-adv-x="1097" 
d="M109 0l247 1490h92l-233 -1406h752l-14 -84h-844zM35 703l13 84h746l-14 -84h-745z" />
    <glyph glyph-name="uni023E" unicode="&#x23e;" horiz-adv-x="1222" 
d="M86 -190l520 960l105 636h-509l15 84h779l102 188h84l-102 -188h244l-14 -84h-275l-336 -621l-130 -785h-91l90 543l-396 -733h-86zM736 1011l214 395h-148z" />
    <glyph glyph-name="uni023F" unicode="&#x23f;" horiz-adv-x="907" 
d="M386 -17q-109 0 -187 35q61 -154 95.5 -230.5t61 -101.5t64.5 -25q32 0 67.5 16.5t75.5 45.5l26 -66q-50 -35 -95 -55.5t-86 -19.5q-68 -1 -111.5 40t-76.5 123l-168 412l7 4q-18 49 -18 107q0 26 3 48h86q-14 -124 54.5 -189t201.5 -65q93 0 171.5 33.5t126 93
t47.5 136.5q0 61 -46 92t-130 51l-172 42q-119 30 -182.5 83.5t-63.5 142.5q0 101 57.5 177t152 118t205.5 42q152 0 237.5 -74.5t85.5 -210.5q0 -25 -3 -47h-85q13 123 -48 188t-187 65q-87 0 -161.5 -32t-120 -89t-45.5 -132q0 -61 47 -96.5t136 -56.5l173 -42
q116 -28 177 -78t61 -136q0 -106 -60 -184.5t-158 -121.5t-215 -43z" />
    <glyph glyph-name="uni0240" unicode="&#x240;" horiz-adv-x="937" 
d="M-3 0l13 74l800 899v2h-645l14 81h756l-13 -77l-798 -896v-2h31q146 0 225 -56.5t140 -155.5q63 -97 98.5 -151.5t96.5 -54.5q19 0 41 4.5t46 15.5l25 -72q-62 -29 -121 -29q-57 0 -99 32t-79 86.5t-80 122.5q-54 87 -117 132t-186 45h-148z" />
    <glyph glyph-name="uni0241" unicode="&#x241;" horiz-adv-x="950" 
d="M399 415h28q188 1 293.5 109.5t135.5 290.5l36 210q30 178 -35.5 286.5t-241.5 108.5q-150 0 -255 -80t-135 -214h-96q39 174 173 279t328 105q141 0 229.5 -62t122 -171t9.5 -252l-34 -210q-36 -211 -162 -341.5t-333 -145.5l-55 -328h-100l70 415h22z" />
    <glyph glyph-name="uni0242" unicode="&#x242;" horiz-adv-x="930" 
d="M118 709q38 208 156.5 316.5t287.5 107.5q171 1 252 -107.5t48 -308.5q-27 -165 -116 -265t-248 -113l-56 -339h-99l68 409h50q132 1 205.5 81t96.5 225q27 156 -26 245t-186 89q-129 0 -217 -87t-119 -253h-97z" />
    <glyph glyph-name="uni0243" unicode="&#x243;" horiz-adv-x="1260" 
d="M74 0l246 1490h487q207 0 316 -105t79 -285q-21 -129 -109.5 -216.5t-202.5 -120.5v-1q79 -14 143.5 -60t96.5 -122.5t15 -181.5q-30 -180 -172.5 -289t-371.5 -109h-527zM178 84h432q184 0 302 88t143 235q16 97 -24 166t-120.5 105.5t-187.5 36.5h-440zM297 799h431
q98 0 180.5 41.5t136.5 111.5t68 156q24 142 -62 220t-251 78h-402zM-32 361l13 78h476l-13 -78h-476z" />
    <glyph glyph-name="uni0244" unicode="&#x244;" horiz-adv-x="1386" 
d="M1501 872l-12 -71h-228l-49 -296q-25 -152 -114.5 -270t-224 -186t-293.5 -68q-161 0 -275.5 69.5t-166.5 189.5t-26 272l48 289h-171l11 71h171l103 618h90l-102 -618h920l102 618h91l-102 -618h228zM1170 801h-919l-48 -291q-22 -128 19.5 -228t134.5 -157t226 -57
q137 0 251.5 58.5t191 160t97.5 230.5z" />
    <glyph glyph-name="uni0245" unicode="&#x245;" horiz-adv-x="1299" 
d="M1038 0l-254 1364l-701 -1364h-110l780 1490h103l289 -1490h-107z" />
    <glyph glyph-name="uni0246" unicode="&#x246;" horiz-adv-x="1158" 
d="M179 -190l86 190h-191l247 1490h621l85 188h84l-85 -188h220l-15 -85h-244l-273 -601h347l-14 -84h-371l-289 -636h626l-14 -84h-650l-87 -190h-83zM630 804l273 601h-504l-99 -601h330zM304 84l288 636h-307l-105 -636h124z" />
    <glyph glyph-name="uni0247" unicode="&#x247;" horiz-adv-x="1061" 
d="M-79 -418l294 485q-64 55 -99 142.5t-35 206.5q0 132 42 250.5t119 210.5t182 145t230 53q86 0 155 -26l267 441h78l-285 -472q63 -41 96 -104.5t33 -139.5q0 -146 -120 -209t-331 -81l-231 -384q68 -37 162 -37q134 0 235 69.5t148 180.5h90q-53 -145 -179 -238.5
t-297 -93.5q-116 0 -202 47l-269 -446h-83zM512 559l252 416q-51 18 -116 18q-126 0 -222.5 -61t-159 -161.5t-85.5 -220.5q95 1 177.5 2.5t153.5 6.5zM825 944l-228 -378q155 17 234.5 64t79.5 144q0 51 -21.5 95.5t-64.5 74.5zM260 142l203 336q-66 -3 -140 -4.5
t-153 -1.5q-3 -30 -3 -60q0 -85 23 -154.5t70 -115.5z" />
    <glyph glyph-name="uni0248" unicode="&#x248;" horiz-adv-x="1090" 
d="M426 -20q-163 0 -259 88.5t-96 247.5q0 21 3 52.5t16 108.5h90q-12 -75 -15 -104.5t-3 -48.5q0 -123 68.5 -191.5t196.5 -68.5q147 0 248 90.5t128 250.5l179 1085h92l-180 -1085q-33 -199 -158 -312t-310 -113zM683 845l13 78h476l-13 -78h-476z" />
    <glyph glyph-name="uni0249" unicode="&#x249;" horiz-adv-x="359" 
d="M219 1056h87l-201 -1213q-19 -118 -106 -189.5t-200 -71.5h-37l13 81h32q77 0 137 48.5t75 139.5zM-104 595l12 80h583l-13 -80h-582zM304 1308q-29 0 -45.5 20.5t-12.5 49.5q5 29 29 49.5t53 20.5t46 -20.5t12 -49.5q-4 -29 -28.5 -49.5t-53.5 -20.5z" />
    <glyph glyph-name="Q_rthook" unicode="&#x24a;" horiz-adv-x="1442" 
d="M1440 1490l-247 -1490l-33 -203q-12 -73 12.5 -104t94.5 -31h81l-13 -80h-81q-218 0 -182 215l34 203l55 333h-5q-89 -171 -227.5 -262.5t-307.5 -91.5q-184 0 -309 97.5t-176.5 270.5t-14.5 397q38 226 147 399t267.5 270.5t344.5 97.5q166 0 273.5 -90.5t138.5 -263.5
h5l56 333h87zM640 65q148 0 269 82.5t204.5 234.5t118.5 362t1.5 362.5t-127 235.5t-240.5 83q-161 0 -297 -86.5t-230 -239.5t-128 -355q-33 -202 10 -354.5t150.5 -238.5t268.5 -86z" />
    <glyph glyph-name="qrthook" unicode="&#x24b;" horiz-adv-x="1132" 
d="M974 -418q-217 0 -181 215l73 443h-1q-60 -114 -175.5 -185.5t-249.5 -71.5q-135 0 -228 67.5t-132 190.5t-12 287t107.5 286.5t196 190.5t248.5 68q135 0 228.5 -73t111.5 -187h1l41 243h86l-134 -805v0l-75 -454q-12 -73 13 -104t94 -31h82l-13 -80h-81zM457 64
q114 0 210 57t161.5 161t88.5 246q35 213 -45 338.5t-251 125.5q-109 0 -206.5 -55.5t-166 -159.5t-92.5 -249q-36 -218 50 -341t251 -123z" />
    <glyph glyph-name="uni024C" unicode="&#x24c;" horiz-adv-x="1182" 
d="M82 0l103 622h-193l14 86h193l130 782h505q135 0 228.5 -54t135 -151.5t19.5 -229.5q-27 -162 -134 -272t-260 -145l235 -638h-96l-228 625q-23 -2 -46 -2h-413l-103 -623h-90zM289 707h411q109 0 199.5 44t150.5 123t77 184q27 160 -55.5 254t-245.5 94h-421z" />
    <glyph glyph-name="uni024D" unicode="&#x24d;" horiz-adv-x="579" 
d="M44 0l175 1056h85l-31 -187h2q50 90 142 143t201 53q14 0 22 -0.5t18 -1.5l-15 -87q-7 1 -19.5 2.5t-30.5 1.5q-128 0 -227.5 -84t-122.5 -226l-111 -670h-88zM-118 496l12 80h583l-13 -80h-582z" />
    <glyph glyph-name="uni024E" unicode="&#x24e;" horiz-adv-x="1181" 
d="M1345 1177l-11 -70h-270l-368 -432l-112 -675h-91l112 675l-225 432h-340l12 70h291l-164 313h100l164 -313h568l267 313h113l-267 -313h221zM950 1107h-470l57 -110q31 -59 61 -119t60 -119q49 59 99 119t100 119z" />
    <glyph glyph-name="uni024F" unicode="&#x24f;" horiz-adv-x="1017" 
d="M980 805l-12 -76h-86l-532 -935q-66 -117 -131 -164.5t-161 -47.5h-94l13 81h94q69 0 110 32t96 128l99 175l-177 731h-105l12 76h75l-61 251h90l59 -251h560l142 251h97l-143 -251h55zM786 729h-499l85 -356q16 -68 31.5 -136t30.5 -136q37 68 75 136t77 136z" />
    <glyph glyph-name="aturn" unicode="&#x250;" horiz-adv-x="1132" 
d="M692 1073q135 0 228 -67.5t132 -190t12 -287.5q-27 -164 -107.5 -286.5t-196 -190.5t-248.5 -68q-135 0 -228.5 73t-111.5 187h-1l-41 -243h-86l175 1056h86l-39 -240h1q60 114 175.5 185.5t249.5 71.5zM675 992q-114 0 -210 -57t-161.5 -161t-88.5 -246
q-35 -213 45 -338.5t251 -125.5q110 0 207 55.5t165.5 159.5t92.5 249q36 218 -50 341t-251 123z" />
    <glyph glyph-name="ascript" unicode="&#x251;" horiz-adv-x="1132" 
d="M440 -17q-135 0 -228 67.5t-132 190.5t-12 287t107.5 286.5t196 190.5t248.5 68q135 0 228.5 -73t111.5 -187h1l41 243h86l-175 -1056h-86l39 240h-1q-60 -114 -175.5 -185.5t-249.5 -71.5zM457 64q114 0 210 57t161.5 161t88.5 246q35 213 -45 338.5t-251 125.5
q-109 0 -206.5 -55.5t-166 -159.5t-92.5 -249q-36 -218 50 -341t251 -123z" />
    <glyph glyph-name="ascriptturn" unicode="&#x252;" horiz-adv-x="1094" 
d="M495 -23q-123 0 -207 70t-113 193h-5l-39 -240h-87l182 1097h87l-40 -242h4q67 122 175.5 191t231.5 69q133 0 219.5 -74t120 -202.5t6.5 -291.5q-27 -165 -102.5 -293.5t-186.5 -202.5t-246 -74zM500 59q110 0 201.5 62t154 172t86.5 254t-2.5 253.5t-97.5 171
t-181 61.5q-111 0 -202.5 -63t-154.5 -173t-86 -250q-23 -141 3 -251.5t97 -173.5t182 -63z" />
    <glyph glyph-name="uni0253" unicode="&#x253;" horiz-adv-x="1131" 
d="M519 -17q-134 0 -229.5 71.5t-118.5 185.5h-1l-40 -240h-86l141 848l41 250l30 177q35 215 254 215h82l-14 -80h-81q-70 0 -106 -31t-48 -104l-29 -178l-42 -249l-6 -35h1q56 114 169 187t248 73q133 0 228 -68t137 -190.5t14 -286.5q-26 -164 -104 -287t-191.5 -190.5
t-248.5 -67.5zM516 64q110 0 205.5 55.5t163 159.5t90.5 249q25 145 -8 249t-110 159.5t-187 55.5q-114 0 -208.5 -57t-159 -161t-88.5 -246q-35 -213 48 -338.5t254 -125.5z" />
    <glyph glyph-name="uni0254" unicode="&#x254;" horiz-adv-x="951" 
d="M-3 320h95q3 -110 85 -183t206 -73q113 0 202 61.5t147.5 166t79.5 232.5l6 43q37 217 -34 349.5t-248 132.5q-270 0 -376 -316h-95q59 192 185.5 296.5t300.5 103.5q144 1 235 -69.5t124.5 -198t5.5 -298.5l-6 -43q-26 -154 -100 -277.5t-185.5 -195t-249.5 -71.5
q-109 0 -194.5 45t-134.5 122t-49 173z" />
    <glyph glyph-name="drthook" unicode="&#x256;" horiz-adv-x="1132" 
d="M974 -418q-217 0 -181 215l67 406l6 36h-1q-60 -115 -173.5 -185.5t-245.5 -70.5q-177 0 -282.5 115t-105.5 309q0 128 40.5 247t114.5 214t176 150t226 55q137 0 232 -74.5t112 -188.5h1l112 680h87l-204 -1239v0l-75 -454q-12 -73 13 -104t94 -31h81l-12 -80h-82z
M456 64q111 0 198.5 49.5t149 133.5t93.5 188t32 214q0 160 -81.5 251.5t-225.5 91.5q-109 0 -196.5 -49t-150.5 -132t-96.5 -187t-33.5 -213q0 -165 86 -256t225 -91z" />
    <glyph glyph-name="uni0257" unicode="&#x257;" horiz-adv-x="1132" 
d="M440 -17q-135 0 -228 67.5t-132 190.5t-12 287t107.5 286.5t196 190.5t248.5 68q135 0 228.5 -73t111.5 -187v0l40 244l30 177q35 215 254 215h82l-14 -80h-81q-70 0 -106 -31.5t-48 -103.5l-29 -178l-175 -1056h-86l39 240h-1q-60 -114 -175.5 -185.5t-249.5 -71.5z
M457 64q114 0 210 57t161.5 161t88.5 246q35 213 -45 338.5t-251 125.5q-109 0 -206.5 -55.5t-166 -159.5t-92.5 -249q-36 -218 50 -341t251 -123z" />
    <glyph glyph-name="erev" unicode="&#x258;" horiz-adv-x="953" 
d="M353 -20q-142 0 -233.5 63t-128.5 161l79 38q34 -81 105.5 -129.5t179.5 -48.5q172 0 292 123.5t157 339.5h-765l11 60q27 165 94.5 288t168 191t228.5 67q131 1 223.5 -72t131.5 -204.5t8 -309.5l-2 -16q-28 -171 -104 -294.5t-190 -190t-255 -66.5zM818 611
q19 201 -59.5 319.5t-224.5 118.5q-152 0 -250.5 -120t-132.5 -310l-1 -8h668z" />
    <glyph glyph-name="uni0259" unicode="&#x259;" horiz-adv-x="1029" 
d="M575 1075q180 0 287 -112t107 -323q0 -132 -42 -250.5t-119 -210.5t-181.5 -145t-230.5 -53q-166 0 -255 87.5t-89 213.5q0 102 58.5 162.5t168 90.5t262 39.5t339.5 9.5q3 30 3 60q0 155 -76.5 252t-234.5 97q-135 0 -235.5 -69.5t-147.5 -180.5h-90q53 145 179 238.5
t297 93.5zM869 506q-238 -1 -400.5 -15.5t-246 -61.5t-83.5 -147q0 -90 65.5 -154.5t197.5 -64.5q126 0 222.5 61t159 161.5t85.5 220.5z" />
    <glyph glyph-name="uni025A" unicode="&#x25a;" horiz-adv-x="1322" 
d="M396 -19q-166 0 -255 87.5t-89 213.5q0 102 58.5 165.5t168.5 101t263 59t341 40.5q-1 153 -77.5 249t-233.5 96q-135 0 -235.5 -69t-147.5 -181h-90q53 145 179 238.5t297 93.5q176 0 282.5 -107.5t111.5 -309.5l139 16q-5 -150 17 -204t87 -54q32 0 70 11l7 -69
q-52 -17 -97 -17q-86 0 -124.5 63t-38.5 182l-62 -6q-13 -163 -89 -299t-200 -218t-282 -82zM879 570q-242 -25 -406.5 -53t-249 -81.5t-84.5 -153.5q0 -90 65.5 -154.5t197.5 -64.5q137 0 239 71.5t163 187t75 248.5z" />
    <glyph glyph-name="epsilon1" unicode="&#x25b;" horiz-adv-x="934" 
d="M373 -19q-172 0 -264.5 85t-69.5 225q17 99 83 162t171 92q-180 55 -150 230q22 133 137.5 216.5t281.5 83.5t248 -87.5t68 -235.5h-85q9 114 -53 178.5t-191 64.5q-128 0 -215.5 -61t-103.5 -159q-16 -91 50 -140t210 -49h83l-3 -18v0l-10 -62h-88q-138 0 -232 -50.5
t-112 -160.5q-18 -106 51.5 -170t207.5 -64q141 0 231 68.5t116 186.5h87q-33 -156 -154 -245.5t-294 -89.5z" />
    <glyph glyph-name="epsilon1rev" unicode="&#x25c;" horiz-adv-x="935" 
d="M381 -19q-173 0 -264.5 89.5t-73.5 245.5h87q-12 -118 55 -186.5t208 -68.5q138 0 228.5 64t108.5 170q18 110 -59 160.5t-215 50.5h-88l2 15v0l11 65h82q292 0 324 189q16 98 -51 159t-195 61q-129 0 -212.5 -64.5t-113.5 -178.5h-85q35 148 146 235.5t277 87.5
t255 -83.5t67 -216.5q-30 -175 -228 -230q96 -29 141 -92t29 -162q-24 -140 -144 -225t-292 -85z" />
    <glyph glyph-name="epsilon1revhook" unicode="&#x25d;" horiz-adv-x="1197" 
d="M1089 473q-85 0 -123.5 53.5t-39.5 174.5l-136 -83q-55 -49 -143 -73q96 -29 141 -92t29 -162q-24 -140 -144 -225t-292 -85q-173 0 -264.5 89.5t-73.5 245.5h87q-12 -118 55 -186.5t208 -68.5q138 0 228.5 64t108.5 170q18 110 -59 160.5t-215 50.5h-88l2 15v0l11 65h82
q292 0 324 189q16 98 -51 159t-195 61q-129 0 -212.5 -64.5t-113.5 -178.5h-85q35 148 146 235.5t277 87.5t255 -83.5t67 -216.5q-3 -17 -8 -34l136 81q-6 -155 16 -214.5t85 -59.5q38 0 75 11l7 -68q-51 -18 -97 -18z" />
    <glyph glyph-name="epsilon1revclosed" unicode="&#x25e;" horiz-adv-x="962" 
d="M408 -19q-127 0 -215 54.5t-123 175t-2 317.5q33 201 108.5 321t180 173t224.5 53q166 0 254.5 -83.5t66.5 -216.5q-29 -175 -227 -230q95 -29 140.5 -92t28.5 -162q-23 -140 -143.5 -225t-292.5 -85zM417 521h-1l11 65h64q292 0 324 189q16 98 -47.5 159t-191.5 61
q-93 0 -178 -42t-149 -144t-94 -281q-29 -176 -4.5 -278.5t93 -145.5t168.5 -43q138 0 233 64t112 170q19 110 -58 160.5t-215 50.5h-70z" />
    <glyph glyph-name="jdotlessbar" unicode="&#x25f;" horiz-adv-x="355" 
d="M223 1056h87l-201 -1213q-19 -118 -106 -189.5t-200 -71.5h-37l13 81h32q77 0 137 48.5t75 139.5zM-100 595l12 80h583l-13 -80h-582z" />
    <glyph glyph-name="uni0260" unicode="&#x260;" horiz-adv-x="1131" 
d="M400 -429q-184 0 -283.5 82t-100.5 235h86q8 -117 81 -176.5t219 -59.5q178 0 288.5 95.5t135.5 254.5l39 238h-1q-61 -114 -172.5 -185.5t-246.5 -71.5q-176 0 -281.5 115t-105.5 309q0 126 40 245t113.5 214t175.5 151t227 56q138 0 231 -72t114 -188l40 244l30 177
q35 215 254 215h82l-14 -80h-81q-70 0 -106 -31.5t-48 -103.5l-29 -178l-175 -1061q-35 -207 -172.5 -315.5t-339.5 -108.5zM456 64q110 0 197 50t149 133.5t94.5 188t32.5 213.5q0 160 -81.5 251.5t-226.5 91.5q-107 0 -194.5 -49t-150 -132t-96.5 -187t-34 -215
q0 -164 84 -254.5t226 -90.5z" />
    <glyph glyph-name="gcursive" unicode="&#x261;" horiz-adv-x="1131" 
d="M400 -429q-184 0 -283.5 82t-100.5 235h86q8 -117 81 -176.5t219 -59.5q178 0 288.5 95.5t135.5 254.5l39 238h-1q-61 -114 -172.5 -185.5t-246.5 -71.5q-176 0 -281.5 115t-105.5 309q0 126 40 245t113.5 214t175.5 151t227 56q139 0 232.5 -73t112.5 -190h1l41 246h86
l-175 -1061q-35 -207 -172.5 -315.5t-339.5 -108.5zM456 64q110 0 197 50t149 133.5t94.5 188t32.5 213.5q0 160 -81.5 251.5t-226.5 91.5q-107 0 -194.5 -49t-150 -132t-96.5 -187t-34 -215q0 -164 84 -254.5t226 -90.5z" />
    <glyph glyph-name="g.sc" unicode="&#x262;" horiz-adv-x="1065" 
d="M464 -16q-187 0 -296 117t-109 312q0 124 40 241.5t115 211.5t180.5 150t236.5 56q125 0 211.5 -51t131 -131.5t44.5 -170.5h-89q-1 69 -35 131t-100 101.5t-165 39.5q-113 0 -202.5 -50t-152.5 -133.5t-95.5 -186t-32.5 -207.5q0 -160 84.5 -254t237.5 -94
q160 0 276 99.5t146 263.5h-337l14 75h422l-12 -73q-20 -133 -91 -233.5t-179.5 -157t-242.5 -56.5z" />
    <glyph glyph-name="gamma1" unicode="&#x263;" horiz-adv-x="1021" 
d="M347 -442q-89 0 -138.5 48t-36.5 126q6 38 39.5 101.5t115.5 193.5l67 106l-297 985h96l269 -879l558 879h98l-623 -987l28 -94q40 -131 51 -198t4 -103q-13 -81 -77 -129.5t-154 -48.5zM427 24q-81 -129 -119 -194t-44 -98q-5 -37 23 -62.5t75 -25.5q46 0 82.5 25.5
t42.5 62.5q5 34 -10 103.5t-50 188.5z" />
    </font>
</defs>
</svg>
