<?xml version="1.0" standalone="no"?>
<!DOCTYPE svg PUBLIC "-//W3C//DTD SVG 1.1//EN" "http://www.w3.org/Graphics/SVG/1.1/DTD/svg11.dtd" >
<svg xmlns="http://www.w3.org/2000/svg" xmlns:xlink="http://www.w3.org/1999/xlink" version="1.1">
<metadata>
Created by FontForge 20201107 at Mon Nov 20 03:07:24 2023
 By 
Copyright 2016 The Inter Project Authors
</metadata>
<defs>
<font id="InterDisplay-Regular" horiz-adv-x="0" >
  <font-face 
    font-family="Inter Display"
    font-weight="400"
    font-stretch="normal"
    units-per-em="2048"
    panose-1="2 0 5 3 0 0 0 2 0 4"
    ascent="1638"
    descent="-410"
    x-height="1056"
    cap-height="1490"
    bbox="-1544.02 -671 5258 2283"
    underline-thickness="140"
    underline-position="-278"
    unicode-range="U+0020-1F852"
  />
<missing-glyph horiz-adv-x="1344" 
d="M1016 -416h-688v2272h688v-2272zM512 320v-256h320v256h-320zM512 704v-256h320v256h-192v-128h64v64h64v-128h-192v192h-64zM512 -192v-64h320v64h-215l215 127v65h-320v-64h216zM512 1408v-224h320v64h-128v160h-192zM512 1536v-64h320v64h-144v96h144v64h-320v-64h112
v-96h-112zM512 960v-64h192v160h128v64h-320v-64h128v-96h-128zM512 832v-64h320v224h-64v-160h-256zM768 128h-192v128h192v-128zM640 1248h-64v96h64v-96z" />
    <glyph glyph-name=".notdef" horiz-adv-x="1344" 
d="M1016 -416h-688v2272h688v-2272zM512 320v-256h320v256h-320zM512 704v-256h320v256h-192v-128h64v64h64v-128h-192v192h-64zM512 -192v-64h320v64h-215l215 127v65h-320v-64h216zM512 1408v-224h320v64h-128v160h-192zM512 1536v-64h320v64h-144v96h144v64h-320v-64h112
v-96h-112zM512 960v-64h192v160h128v64h-320v-64h128v-96h-128zM512 832v-64h320v224h-64v-160h-256zM768 128h-192v128h192v-128zM640 1248h-64v96h64v-96z" />
    <glyph glyph-name=".null" 
 />
    <glyph glyph-name="nonmarkingreturn" horiz-adv-x="682" 
 />
    <glyph glyph-name="space" unicode=" " horiz-adv-x="512" 
 />
    <glyph glyph-name="exclam" unicode="!" horiz-adv-x="450" 
d="M145 400l-13 1090h186l-13 -1090h-160zM225 -17q-52 0 -88.5 36.5t-36.5 88.5q0 53 36.5 89t88.5 36q53 0 89 -36t36 -89q0 -52 -36 -88.5t-89 -36.5z" />
    <glyph glyph-name="quotedbl" unicode="&#x22;" horiz-adv-x="826" 
d="M196 984l-20 506h168l-20 -506h-128zM502 984l-20 506h168l-20 -506h-128z" />
    <glyph glyph-name="numbersign" unicode="#" horiz-adv-x="1228" 
d="M680 0l68 414h-378l-68 -414h-144l68 414h-224l24 144h223l61 372h-220l24 146h220l68 414h144l-68 -414h380l68 414h144l-68 -414h222l-22 -146h-224l-61 -372h221l-24 -144h-220l-68 -414h-146zM393 558h379l62 372h-380z" />
    <glyph glyph-name="dollar" unicode="$" horiz-adv-x="1258" 
d="M547 -222v203q-217 24 -343 156t-126 343h184q0 -138 74.5 -224.5t210.5 -108.5v543l-9 2q-228 56 -329 150t-101 246q0 177 119 290.5t320 132.5v201h160v-203q196 -22 311 -143.5t120 -315.5h-178q-7 117 -74 192.5t-179 98.5v-511l47 -12q218 -54 322 -153t104 -255
q0 -120 -58.5 -213.5t-165 -150t-249.5 -67.5v-201h-160zM707 143q134 15 213.5 83.5t79.5 175.5q0 93 -66.5 151t-226.5 98v-508zM547 870v474q-117 -16 -189 -83t-72 -164q0 -82 60 -135t201 -92z" />
    <glyph glyph-name="percent" unicode="%" horiz-adv-x="1728" 
d="M442 804q-94 0 -163.5 44.5t-108 121.5t-38.5 174v30q0 97 38.5 174t108 121.5t163.5 44.5t163 -44.5t107 -121.5t38 -174v-30q0 -97 -38 -174t-107 -121.5t-163 -44.5zM1288 -24q-94 0 -163.5 44.5t-108 121.5t-38.5 174v30q0 97 38.5 174t108 121.5t163.5 44.5
t163 -44.5t107 -121.5t38 -174v-30q0 -97 -38 -174t-107 -121.5t-163 -44.5zM262 0l1024 1490h174l-1024 -1490h-174zM442 934q72 0 114 56t42 154v30q0 98 -42 154t-114 56q-73 0 -115.5 -56t-42.5 -154v-30q0 -98 42.5 -154t115.5 -56zM1288 106q72 0 114 56t42 154v30
q0 98 -42 154t-114 56q-73 0 -115.5 -56t-42.5 -154v-30q0 -98 42.5 -154t115.5 -56z" />
    <glyph glyph-name="ampersand" unicode="&#x26;" horiz-adv-x="1246" 
d="M546 -20q-141 0 -247.5 52.5t-166.5 146t-60 217.5q0 73 26 134t91 126.5t180 152.5q-71 89 -110 149.5t-54.5 109t-15.5 100.5q0 152 100.5 244t263.5 92q160 0 260.5 -87t100.5 -225q0 -183 -198 -330l-110 -82l320 -390q31 59 48.5 125.5t17.5 136.5h166
q0 -236 -120 -399l208 -253h-208l-105 126q-68 -68 -171 -107t-216 -39zM827 255l-353 425l-1 1l-55 -41q-90 -67 -130 -124t-40 -122q0 -70 40.5 -130t109 -97t150.5 -37q77 0 148.5 33.5t130.5 91.5zM502 908l117 87q119 89 119 192q0 70 -52.5 119.5t-132.5 49.5
q-79 0 -134.5 -52.5t-55.5 -138.5q0 -54 29.5 -106.5t109.5 -150.5z" />
    <glyph glyph-name="quotesingle" unicode="'" horiz-adv-x="520" 
d="M196 984l-20 506h168l-20 -506h-128z" />
    <glyph glyph-name="parenleft" unicode="(" horiz-adv-x="612" 
d="M148 592q0 170 31 350.5t85.5 343.5t125.5 280h166q-73 -146 -126 -313.5t-81.5 -337t-28.5 -323.5q0 -208 57.5 -423t178.5 -463h-166q-118 202 -180 428t-62 458z" />
    <glyph glyph-name="parenright" unicode=")" horiz-adv-x="612" 
d="M56 -294q122 248 179 463t57 423q0 154 -28.5 323.5t-81.5 337t-126 313.5h166q71 -117 125.5 -280t85.5 -343.5t31 -350.5q0 -232 -61.5 -458t-180.5 -428h-166z" />
    <glyph glyph-name="asterisk" unicode="*" horiz-adv-x="960" 
d="M410 652l12 320l-270 -172l-70 122l284 148l-284 148l70 124l270 -172l-12 320h140l-12 -320l270 172l70 -124l-284 -148l284 -148l-70 -122l-270 172l12 -320h-140z" />
    <glyph glyph-name="plus" unicode="+" horiz-adv-x="1286" 
d="M562 96v402h-399v156h399v402h162v-402h399v-156h-399v-402h-162z" />
    <glyph glyph-name="comma" unicode="," horiz-adv-x="450" 
d="M56 -281l88 489h182l-146 -489h-124z" />
    <glyph glyph-name="hyphen" unicode="-" horiz-adv-x="878" 
d="M765 688v-160h-652v160h652z" />
    <glyph glyph-name="period" unicode="." horiz-adv-x="450" 
d="M225 -17q-52 0 -88.5 36.5t-36.5 88.5q0 53 36.5 89t88.5 36q53 0 89 -36t36 -89q0 -52 -36 -88.5t-89 -36.5z" />
    <glyph glyph-name="slash" unicode="/" horiz-adv-x="666" 
d="M652 1560l-480 -1784h-158l480 1784h158z" />
    <glyph glyph-name="zero" unicode="0" horiz-adv-x="1256" 
d="M628 -24q-165 0 -285.5 94.5t-186.5 266.5t-66 407q0 236 66 408.5t186.5 267t285.5 94.5t286 -94.5t186.5 -267t65.5 -408.5q0 -235 -65.5 -407t-186.5 -266.5t-286 -94.5zM628 136q171 0 269.5 162.5t98.5 445.5q0 285 -98.5 447.5t-269.5 162.5t-269.5 -162.5
t-98.5 -447.5q0 -283 98.5 -445.5t269.5 -162.5z" />
    <glyph glyph-name="one" unicode="1" horiz-adv-x="742" 
d="M594 1490v-1490h-174v1304h-1l-371 -246v184l372 248h174z" />
    <glyph glyph-name="two" unicode="2" horiz-adv-x="1149" 
d="M85 0v151l530 484q95 87 154.5 153t87.5 129t28 139q0 138 -81.5 218t-223.5 80q-153 0 -237 -93.5t-84 -252.5h-168q0 149 60.5 263t170.5 178.5t257 64.5q140 0 247 -57.5t168 -159t61 -234.5q0 -144 -79.5 -265t-243.5 -270l-403 -366v-2h735v-160h-979z" />
    <glyph glyph-name="three" unicode="3" horiz-adv-x="1226" 
d="M620 -24q-154 0 -272 62.5t-185 173.5t-67 256h182q0 -158 89 -246t249 -88q153 0 248.5 77.5t95.5 208.5q0 119 -102 191.5t-266 72.5h-120v160h120q144 0 233 66.5t89 175.5q0 126 -83.5 198t-222.5 72q-142 0 -224 -79.5t-82 -220.5h-174q0 135 61.5 238.5t170 161.5
t249.5 58q137 0 246 -54t172 -148t63 -216q0 -113 -71.5 -200.5t-196.5 -125.5v-3q143 -24 228.5 -119.5t85.5 -227.5q0 -130 -67.5 -230.5t-184 -157t-264.5 -56.5z" />
    <glyph glyph-name="four" unicode="4" horiz-adv-x="1265" 
d="M52 360v148l713 982h220v-970h228v-160h-228v-360h-172v360h-761zM813 520v768h-2l-555 -766v-2h557z" />
    <glyph glyph-name="five" unicode="5" horiz-adv-x="1181" 
d="M593 -20q-143 0 -257 59.5t-182 161.5t-74 231h180q12 -127 104.5 -209.5t228.5 -82.5q97 0 169.5 45t113.5 123.5t41 179.5t-39 179t-109 122.5t-163 44.5q-123 0 -211 -49.5t-123 -144.5h-173l50 850h860v-160h-697l-36 -483h2q139 149 350 149q137 0 241.5 -65
t163 -179t58.5 -262q0 -150 -62.5 -265t-174.5 -180t-261 -65z" />
    <glyph glyph-name="six" unicode="6" horiz-adv-x="1196" 
d="M608 -24q-247 0 -382.5 184.5t-135.5 521.5q0 251 57.5 438t177.5 290.5t307 103.5q194 0 317.5 -109t144.5 -287h-176q-21 108 -91.5 172t-183.5 64q-129 0 -213.5 -74t-126 -203.5t-41.5 -296.5h2q51 86 152.5 138t221.5 52q135 0 240.5 -64.5t166.5 -176t61 -253.5
q0 -147 -63.5 -260t-175.5 -176.5t-259 -63.5zM608 136q90 0 163.5 45.5t117 123t43.5 171.5t-42 169.5t-114 120t-162 44.5t-164.5 -45t-119 -121.5t-44.5 -169.5t43.5 -170t116.5 -122.5t162 -45.5z" />
    <glyph glyph-name="seven" unicode="7" horiz-adv-x="1056" 
d="M153 0l672 1329v1h-775v160h956v-170l-664 -1320h-189z" />
    <glyph glyph-name="eight" unicode="8" horiz-adv-x="1192" 
d="M596 -24q-148 0 -262 54t-179 149t-65 217q0 99 42 181.5t113.5 136t161.5 65.5q-115 22 -189 113t-74 222q0 115 59 205.5t161 142.5t232 52q129 0 231 -52t160.5 -142.5t58.5 -205.5q0 -130 -74 -221.5t-187 -113.5q89 -13 161 -66.5t114 -136t42 -180.5
q0 -122 -65 -217t-179 -149t-262 -54zM596 136q149 0 238.5 73t89.5 195q0 84 -42 149t-116 102t-170 37t-170.5 -37t-117 -102t-42.5 -149q0 -121 90 -194.5t240 -73.5zM596 846q123 0 199.5 70.5t76.5 185.5q0 114 -76 184t-200 70t-201 -70t-77 -184t77 -185t201 -71z
" />
    <glyph glyph-name="nine" unicode="9" horiz-adv-x="1196" 
d="M560 -24q-194 0 -319.5 109t-146.5 287h176q21 -108 93 -172t185 -64q129 0 213.5 74t126.5 204t42 296h-2q-51 -86 -150.5 -134t-219.5 -48q-134 0 -240 63.5t-167 174.5t-61 252q0 147 63.5 259t176 174.5t258.5 62.5q248 0 383 -184t135 -522q0 -250 -58.5 -437.5
t-179.5 -291t-308 -103.5zM582 688q91 0 165 44t118.5 119.5t44.5 168.5q0 94 -43.5 169.5t-116.5 120t-162 44.5q-90 0 -163.5 -44.5t-117 -120.5t-43.5 -171q0 -94 42 -168.5t114.5 -118t161.5 -43.5z" />
    <glyph glyph-name="colon" unicode=":" horiz-adv-x="450" 
d="M225 -17q-52 0 -88.5 36.5t-36.5 88.5q0 53 36.5 89t88.5 36q53 0 89 -36t36 -89q0 -52 -36 -88.5t-89 -36.5zM225 767q-52 0 -88.5 36.5t-36.5 88.5q0 53 36.5 89t88.5 36q53 0 89 -36t36 -89q0 -52 -36 -88.5t-89 -36.5z" />
    <glyph glyph-name="semicolon" unicode=";" horiz-adv-x="456" 
d="M56 -281l88 489h182l-146 -489h-124zM231 767q-52 0 -88.5 36.5t-36.5 88.5q0 53 36.5 89t88.5 36q53 0 89 -36t36 -89q0 -52 -36 -88.5t-89 -36.5z" />
    <glyph glyph-name="less" unicode="&#x3c;" horiz-adv-x="1286" 
d="M150 524v116l938 478v-188l-714 -343v-12l714 -343v-186z" />
    <glyph glyph-name="equal" unicode="=" horiz-adv-x="1286" 
d="M194 288v158h896v-158h-896zM194 718v158h896v-158h-896z" />
    <glyph glyph-name="greater" unicode="&#x3e;" horiz-adv-x="1286" 
d="M1136 524l-938 -478v186l714 343v12l-714 343v188l938 -478v-116z" />
    <glyph glyph-name="question" unicode="?" horiz-adv-x="1073" 
d="M421 400v112q0 111 30.5 170t84 98.5t121.5 88.5q85 62 118.5 126.5t33.5 130.5q0 107 -73 168.5t-200 61.5q-139 0 -216 -80.5t-77 -225.5h-179q0 140 59 244t165.5 162t247.5 58q132 0 232.5 -49.5t157.5 -137t57 -201.5q0 -218 -214 -366q-67 -46 -105 -80.5
t-53.5 -75.5t-15.5 -108v-96h-174zM508 -17q-52 0 -88.5 36.5t-36.5 88.5q0 53 36.5 89t88.5 36q53 0 89 -36t36 -89q0 -52 -36 -88.5t-89 -36.5z" />
    <glyph glyph-name="at" unicode="@" horiz-adv-x="1994" 
d="M1015 -402q-204 0 -373 68t-293 192t-191.5 294.5t-67.5 374.5q0 205 67.5 375.5t191.5 295t293 192.5t373 68q196 0 358.5 -64.5t281.5 -184t184 -286t65 -371.5q0 -244 -99.5 -380t-287.5 -136q-99 0 -153.5 33t-78 76.5t-29.5 74.5h-1q-27 -72 -98.5 -125.5
t-189.5 -53.5q-131 0 -225 68t-144 179.5t-50 239.5q0 142 57.5 252t155 173t216.5 63q101 0 167 -40.5t95 -86.5h1v103h160v-650q0 -154 128 -154q105 0 159.5 91t54.5 265q0 238 -89.5 408t-253 261t-384.5 91q-232 0 -401.5 -95t-261.5 -269t-92 -413q0 -238 92 -412
t261.5 -268.5t401.5 -94.5q140 0 246 28t173 52l52 -145q-61 -24 -185 -56.5t-286 -32.5zM987 192q128 0 194.5 87.5t66.5 248.5t-66.5 248.5t-194.5 87.5q-127 0 -198 -86.5t-71 -249.5t71 -249.5t198 -86.5z" />
    <glyph glyph-name="A" unicode="A" horiz-adv-x="1338" 
d="M20 0l550 1490h204l544 -1490h-192l-146 418h-622l-150 -418h-188zM415 578h510l-112 320q-28 79 -60.5 176.5t-80.5 246.5q-48 -149 -80.5 -246.5t-61.5 -176.5z" />
    <glyph glyph-name="B" unicode="B" horiz-adv-x="1307" 
d="M148 0v1490h538q224 0 352 -107t128 -289q0 -128 -64 -206t-178 -116v-2q127 -21 215 -106.5t88 -245.5q0 -191 -132 -304.5t-401 -113.5h-546zM328 160h366q169 0 259.5 63.5t90.5 187.5t-88 195.5t-252 71.5h-376v-518zM328 836h365q139 0 217 66.5t78 180.5t-78 180.5
t-217 66.5h-365v-494z" />
    <glyph glyph-name="C" unicode="C" horiz-adv-x="1479" 
d="M779 -24q-206 0 -361 98.5t-241.5 272t-86.5 397.5q0 226 86 399.5t241.5 272t361.5 98.5q156 0 285 -61.5t215.5 -175t113.5 -269.5h-184q-36 163 -151.5 250.5t-278.5 87.5q-157 0 -271 -76.5t-176 -212t-62 -313.5q0 -177 62 -312t176 -211.5t271 -76.5q161 0 277 87
t154 249h183q-27 -155 -113 -268t-215.5 -174.5t-285.5 -61.5z" />
    <glyph glyph-name="D" unicode="D" horiz-adv-x="1412" 
d="M608 0h-460v1490h480q217 0 372.5 -89t238.5 -255.5t83 -397.5q0 -233 -84 -400.5t-243.5 -257.5t-386.5 -90zM328 160h268q278 0 412 157.5t134 430.5q0 270 -131.5 426t-394.5 156h-288v-1170z" />
    <glyph glyph-name="E" unicode="E" horiz-adv-x="1187" 
d="M148 0v1490h969v-160h-789v-487h731v-160h-731v-523h789v-160h-969z" />
    <glyph glyph-name="F" unicode="F" horiz-adv-x="1135" 
d="M148 0v1490h937v-160h-757v-487h697v-160h-697v-683h-180z" />
    <glyph glyph-name="G" unicode="G" horiz-adv-x="1496" 
d="M771 -24q-198 0 -351.5 98.5t-241.5 272t-88 397.5q0 226 87.5 399.5t241.5 272t352 98.5q158 0 289 -64.5t218 -178.5t113 -263h-182q-23 100 -85 176t-152.5 119t-200.5 43q-149 0 -262 -76.5t-176 -212t-63 -313.5q0 -177 63 -312t176 -211.5t262 -76.5
q124 0 226 55.5t163 155t62 230.5h-390v160h568v-161q0 -174 -83.5 -311.5t-225.5 -217t-320 -79.5z" />
    <glyph glyph-name="H" unicode="H" horiz-adv-x="1450" 
d="M148 0v1490h180v-647h794v647h180v-1490h-180v683h-794v-683h-180z" />
    <glyph glyph-name="I" unicode="I" horiz-adv-x="476" 
d="M328 1490v-1490h-180v1490h180z" />
    <glyph glyph-name="J" unicode="J" horiz-adv-x="1095" 
d="M515 -20q-194 0 -317 115t-123 329v80h180v-80q0 -139 71.5 -211.5t188.5 -72.5t188.5 72.5t71.5 211.5v1066h180v-1066q0 -214 -123 -329t-317 -115z" />
    <glyph glyph-name="K" unicode="K" horiz-adv-x="1299" 
d="M148 0v1490h180v-764q63 70 127 139t129 139l452 486h238l-605 -645l605 -845h-213l-516 722l-217 -234v-488h-180z" />
    <glyph glyph-name="L" unicode="L" horiz-adv-x="1096" 
d="M148 0v1490h180v-1330h718v-160h-898z" />
    <glyph glyph-name="M" unicode="M" horiz-adv-x="1756" 
d="M148 0v1490h245l378 -962q14 -34 33.5 -85.5t40 -106t36.5 -99.5q16 45 36.5 99.5t40 106t32.5 85.5l372 962h246v-1490h-177v864q0 80 2 178.5t4 195.5q-43 -118 -79 -216t-60 -158l-346 -864h-148l-348 864q-23 57 -58 149t-78 203q3 -92 4.5 -184t1.5 -168v-864h-178z
" />
    <glyph glyph-name="N" unicode="N" horiz-adv-x="1454" 
d="M148 0v1490h207l614 -970q26 -42 72 -119t91 -156q-3 78 -4.5 162t-1.5 121v962h180v-1490h-209l-546 862q-31 48 -91.5 147.5t-140.5 233.5q5 -139 7 -234.5t2 -144.5v-864h-180z" />
    <glyph glyph-name="O" unicode="O" horiz-adv-x="1534" 
d="M767 -24q-197 0 -350 99t-240 272.5t-87 396.5q0 225 87 398.5t240 272.5t350 99q198 0 350.5 -99t239.5 -272.5t87 -398.5q0 -223 -87 -396.5t-239.5 -272.5t-350.5 -99zM767 144q135 0 248 69.5t181 203.5t68 327q0 194 -68 328.5t-181 204t-248 69.5t-248 -69.5
t-181 -204t-68 -328.5q0 -193 68 -327t181 -203.5t248 -69.5z" />
    <glyph glyph-name="P" unicode="P" horiz-adv-x="1253" 
d="M148 0v1490h534q233 0 369.5 -121.5t136.5 -330.5q0 -139 -63.5 -240.5t-179 -157t-271.5 -55.5h-346v-585h-180zM328 745h348q155 0 244.5 78.5t89.5 214.5t-89.5 214t-244.5 78h-348v-585z" />
    <glyph glyph-name="Q" unicode="Q" horiz-adv-x="1534" 
d="M767 -24q-197 0 -350 99t-240 272.5t-87 396.5q0 225 87 398.5t240 272.5t350 99q198 0 350.5 -99t239.5 -272.5t87 -398.5q0 -208 -76 -373.5t-208 -265.5l184 -245h-198l-123 166q-120 -50 -256 -50zM690 466h198l166 -218l3 -5q94 74 150.5 200.5t56.5 300.5
q0 194 -68 328.5t-181 204t-248 69.5t-248 -69.5t-181 -204t-68 -328.5q0 -193 68 -327t181 -203.5t248 -69.5q78 0 150 23z" />
    <glyph glyph-name="R" unicode="R" horiz-adv-x="1295" 
d="M148 0v1490h553q233 0 369.5 -121.5t136.5 -330.5q0 -159 -85.5 -269t-231.5 -155l335 -614h-210l-314 585h-14h-359v-585h-180zM328 745h369q155 0 243.5 78.5t88.5 214.5t-89.5 214t-244.5 78h-367v-585z" />
    <glyph glyph-name="S" unicode="S" horiz-adv-x="1258" 
d="M640 -24q-172 0 -298 61.5t-195 174.5t-69 268h184q0 -160 99.5 -250t278.5 -90q163 0 261.5 71t98.5 191q0 93 -67 151t-228 98l-167 41q-228 56 -329 150t-101 246q0 129 63.5 224.5t179.5 148.5t271 53q233 0 371.5 -124.5t144.5 -339.5h-178q-8 140 -100 219.5
t-244 79.5q-145 0 -237.5 -70.5t-92.5 -181.5q0 -87 68.5 -141.5t230.5 -95.5l169 -42q218 -54 322 -153t104 -255q0 -129 -67.5 -227t-189 -152.5t-283.5 -54.5z" />
    <glyph glyph-name="T" unicode="T" horiz-adv-x="1250" 
d="M50 1330v160h1150v-160h-484v-1330h-180v1330h-486z" />
    <glyph glyph-name="U" unicode="U" horiz-adv-x="1440" 
d="M720 -24q-175 0 -305.5 69t-202.5 188.5t-72 272.5v984h180v-970q0 -109 48 -194t138 -133.5t214 -48.5q125 0 214.5 48.5t137.5 133.5t48 194v970h180v-984q0 -153 -72 -272.5t-202 -188.5t-306 -69z" />
    <glyph glyph-name="V" unicode="V" horiz-adv-x="1338" 
d="M570 0l-550 1490h190l322 -898q23 -66 58 -170t85 -257q49 153 83.5 257t57.5 170l314 898h188l-544 -1490h-204z" />
    <glyph glyph-name="W" unicode="W" horiz-adv-x="1944" 
d="M426 0l-406 1490h182l241 -930q49 -190 89 -381q19 95 42 190.5t48 190.5l246 930h208l244 -930q25 -94 47.5 -187.5t43.5 -187.5q20 94 42.5 187.5t46.5 187.5l240 930h184l-408 -1490h-210l-261 960q-21 77 -39 155t-35 155q-16 -77 -34 -155t-39 -155l-260 -960h-212z
" />
    <glyph glyph-name="X" unicode="X" horiz-adv-x="1322" 
d="M25 0l534 763l-502 727h208l220 -322q90 -133 178 -266q44 66 89 132.5t91 133.5l224 322h203l-502 -721l529 -769h-207l-265 384q-42 61 -82.5 121t-80.5 121q-41 -61 -82.5 -121t-83.5 -121l-267 -384h-204z" />
    <glyph glyph-name="Y" unicode="Y" horiz-adv-x="1316" 
d="M568 0v614l-548 876h208l299 -482q35 -55 67.5 -110.5t64.5 -110.5q32 55 65 110.5t67 110.5l298 482h207l-548 -876v-614h-180z" />
    <glyph glyph-name="Z" unicode="Z" horiz-adv-x="1256" 
d="M58 0v152l779 1001q34 44 69.5 88.5t72.5 88.5h-889v160h1100v-152l-762 -979q-78 -101 -159 -199h929v-160h-1140z" />
    <glyph glyph-name="bracketleft" unicode="[" horiz-adv-x="612" 
d="M159 -294v1860h374v-146h-204v-1568h204v-146h-374z" />
    <glyph glyph-name="backslash" unicode="\" horiz-adv-x="666" 
d="M494 -224l-480 1784h158l480 -1784h-158z" />
    <glyph glyph-name="bracketright" unicode="]" horiz-adv-x="612" 
d="M79 -294v146h204v1568h-204v146h374v-1860h-374z" />
    <glyph glyph-name="asciicircum" unicode="^" horiz-adv-x="896" 
d="M50 814l300 628h196l300 -628h-172l-220 474h-12l-218 -474h-174z" />
    <glyph glyph-name="underscore" unicode="_" horiz-adv-x="930" 
d="M930 0v-160h-930v160h930z" />
    <glyph glyph-name="grave" unicode="`" horiz-adv-x="494" 
d="M262 1192l-192 298h194l140 -298h-142z" />
    <glyph glyph-name="a" unicode="a" horiz-adv-x="1060" 
d="M448 -16q-157 0 -262.5 81t-105.5 239q0 91 35.5 148t95 89.5t135 49.5t154.5 27q101 14 159 21t82.5 23t24.5 56v10q0 86 -61.5 142t-172.5 56q-110 0 -180.5 -53.5t-76.5 -132.5h-173q5 97 60 172.5t150 119.5t220 44q185 0 293.5 -95.5t108.5 -252.5v-728h-168v150h-4
q-19 -38 -56 -76.5t-99.5 -64t-158.5 -25.5zM472 136q104 0 169 37.5t95 97.5t30 129v132q-19 -18 -101 -32.5t-173 -27.5q-61 -8 -115.5 -27.5t-88.5 -55t-34 -95.5q0 -74 58.5 -116t159.5 -42z" />
    <glyph glyph-name="b" unicode="b" horiz-adv-x="1158" 
d="M628 -20q-103 0 -190 44.5t-144 135.5h-2v-160h-166v1490h170v-590h2q51 89 139 132.5t191 43.5q138 0 241 -69t160 -192.5t57 -286.5q0 -162 -57 -285.5t-160 -193t-241 -69.5zM602 133q137 0 224.5 100.5t87.5 294.5t-87.5 295t-224.5 101q-147 0 -233.5 -108.5
t-86.5 -287.5t86.5 -287t233.5 -108z" />
    <glyph glyph-name="c" unicode="c" horiz-adv-x="1071" 
d="M562 -24q-146 0 -256.5 70.5t-172 194.5t-61.5 285q0 162 61.5 287t172 196t256.5 71q120 0 215 -47.5t155.5 -130.5t74.5 -190h-172q-19 93 -87.5 153.5t-185.5 60.5q-149 0 -233.5 -109t-84.5 -291q0 -180 84 -288t234 -108q119 0 182 58.5t88 155.5h175
q-14 -104 -74.5 -187.5t-156 -132t-214.5 -48.5z" />
    <glyph glyph-name="d" unicode="d" horiz-adv-x="1158" 
d="M530 -20q-137 0 -240.5 69.5t-160.5 193t-57 285.5q0 163 57 286.5t160.5 192.5t240.5 69q103 0 191 -43.5t139 -132.5h2v590h170v-1490h-166v160h-2q-57 -91 -144 -135.5t-190 -44.5zM556 133q147 0 233.5 108t86.5 287t-86.5 287.5t-233.5 108.5q-137 0 -224.5 -101
t-87.5 -295t87.5 -294.5t224.5 -100.5z" />
    <glyph glyph-name="e" unicode="e" horiz-adv-x="1098" 
d="M562 -24q-155 0 -264.5 71t-167.5 195.5t-58 283.5q0 161 61 286t169 196.5t248 71.5q147 0 255 -70t166.5 -195t58.5 -289v-47h-790q6 -155 89 -252t233 -97q113 0 184.5 52t95.5 134h170q-20 -101 -83 -177.5t-157.5 -119.5t-209.5 -43zM242 625h618q-14 139 -97 221
t-213 82t-212 -82t-96 -221z" />
    <glyph glyph-name="f" unicode="f" horiz-adv-x="627" 
d="M587 1056v-146h-214v-910h-170v910h-188v146h188v188q0 113 75 179.5t203 66.5h106v-146h-90q-67 0 -95.5 -29t-28.5 -97v-162h214z" />
    <glyph glyph-name="g" unicode="g" horiz-adv-x="1158" 
d="M568 -432q-178 0 -301 82t-143 238h174q23 -85 95.5 -127.5t174.5 -42.5q138 0 217 73.5t79 208.5v160h-1q-58 -92 -143.5 -136t-189.5 -44q-137 0 -240.5 69.5t-160.5 193t-57 285.5q0 163 57 286.5t160.5 192.5t240.5 69q103 0 191.5 -43.5t143.5 -141.5h1v165h166
v-1056q0 -156 -64.5 -251t-170.5 -138t-229 -43zM556 133q147 0 233.5 108t86.5 287t-86.5 287.5t-233.5 108.5q-137 0 -224.5 -101t-87.5 -295t87.5 -294.5t224.5 -100.5z" />
    <glyph glyph-name="h" unicode="h" horiz-adv-x="1120" 
d="M296 618v-618h-170v1490h170v-582q55 86 133.5 127t176.5 41q107 0 195 -46.5t140.5 -139.5t52.5 -234v-656h-170v644q0 137 -65.5 206.5t-184.5 69.5q-115 0 -196.5 -71t-81.5 -231z" />
    <glyph glyph-name="i" unicode="i" horiz-adv-x="422" 
d="M126 0v1056h170v-1056h-170zM211 1262q-48 0 -82 34t-34 82t34 82t82 34t82 -34t34 -82t-34 -82t-82 -34z" />
    <glyph glyph-name="j" unicode="j" horiz-adv-x="422" 
d="M126 1056h170v-1204q0 -115 -72 -192.5t-206 -77.5h-74v150h58q65 0 94.5 35t29.5 111v1178zM211 1262q-48 0 -82 34t-34 82t34 82t82 34t82 -34t34 -82t-34 -82t-82 -34z" />
    <glyph glyph-name="k" unicode="k" horiz-adv-x="1039" 
d="M126 0v1490h170v-909h2l491 475h220l-465 -452l499 -604h-216l-413 497l-118 -107v-390h-170z" />
    <glyph glyph-name="l" unicode="l" horiz-adv-x="422" 
d="M296 1490v-1490h-170v1490h170z" />
    <glyph glyph-name="m" unicode="m" horiz-adv-x="1718" 
d="M126 0v1056h166v-171q50 93 133 142t180 49q108 0 189 -55t114 -135q43 81 129 135.5t204 54.5q97 0 176.5 -42t127 -127t47.5 -215v-692h-170v692q0 123 -69 175.5t-160 52.5q-116 0 -182.5 -70.5t-66.5 -177.5v-672h-170v710q0 95 -63.5 152.5t-159.5 57.5
q-66 0 -124.5 -31t-94.5 -92.5t-36 -152.5v-644h-170z" />
    <glyph glyph-name="n" unicode="n" horiz-adv-x="1120" 
d="M296 618v-618h-170v1056h166v-155q55 90 134.5 132.5t179.5 42.5q107 0 195 -46.5t140.5 -139.5t52.5 -234v-656h-170v644q0 137 -65.5 206.5t-184.5 69.5q-115 0 -196.5 -71t-81.5 -231z" />
    <glyph glyph-name="o" unicode="o" horiz-adv-x="1124" 
d="M562 -24q-146 0 -256.5 70.5t-172 194.5t-61.5 285q0 162 61.5 287t172 196t256.5 71q147 0 257 -71t171.5 -196t61.5 -287q0 -161 -61.5 -285t-171.5 -194.5t-257 -70.5zM562 130q150 0 234 108.5t84 287.5q0 181 -84.5 290.5t-233.5 109.5t-233.5 -109t-84.5 -291
q0 -180 84 -288t234 -108z" />
    <glyph glyph-name="p" unicode="p" horiz-adv-x="1158" 
d="M126 -418v1474h166v-156h2q51 89 141 132.5t193 43.5q138 0 241 -69t160 -192.5t57 -286.5q0 -162 -57 -285.5t-160 -193t-241 -69.5q-103 0 -188 44.5t-142 135.5h-2v-578h-170zM602 133q137 0 224.5 100.5t87.5 294.5t-87.5 295t-224.5 101q-147 0 -233.5 -108.5
t-86.5 -287.5t86.5 -287t233.5 -108z" />
    <glyph glyph-name="q" unicode="q" horiz-adv-x="1158" 
d="M1032 -418h-170v578h-2q-57 -91 -142 -135.5t-188 -44.5q-137 0 -240.5 69.5t-160.5 193t-57 285.5q0 163 57 286.5t160.5 192.5t240.5 69q103 0 193 -43.5t141 -132.5h2v156h166v-1474zM556 133q147 0 233.5 108t86.5 287t-86.5 287.5t-233.5 108.5q-137 0 -224.5 -101
t-87.5 -295t87.5 -294.5t224.5 -100.5z" />
    <glyph glyph-name="r" unicode="r" horiz-adv-x="660" 
d="M126 0v1056h162v-166h4q29 82 92 132t162 50q23 0 42.5 -2t29.5 -4v-170q-10 3 -38.5 7.5t-65.5 4.5q-88 0 -153 -62t-65 -196v-650h-170z" />
    <glyph glyph-name="s" unicode="s" horiz-adv-x="972" 
d="M494 -24q-113 0 -205 37t-149 112.5t-64 190.5h168q18 -194 246 -194q110 0 173.5 46t63.5 116q0 60 -44 96t-115 52l-170 40q-298 70 -298 300q0 90 48.5 159.5t135 109t199.5 39.5q110 0 197.5 -41.5t139 -117.5t54.5 -181h-166q-1 84 -62 139t-163 55q-97 0 -155 -47
t-58 -115q0 -60 44 -96.5t120 -54.5l170 -40q152 -36 223 -107.5t71 -185.5q0 -98 -53 -168t-144.5 -107t-206.5 -37z" />
    <glyph glyph-name="t" unicode="t" horiz-adv-x="637" 
d="M587 1056v-146h-214v-654q0 -61 25.5 -85.5t90.5 -24.5h98v-146h-114q-270 0 -270 238v672h-188v146h188v288h170v-288h214z" />
    <glyph glyph-name="u" unicode="u" horiz-adv-x="1120" 
d="M514 -20q-106 0 -194.5 46.5t-141 140t-52.5 233.5v656h170v-644q0 -137 66 -206.5t184 -69.5q116 0 197 71t81 231v618h170v-1056h-166v155q-55 -90 -134.5 -132.5t-179.5 -42.5z" />
    <glyph glyph-name="v" unicode="v" horiz-adv-x="1048" 
d="M438 0l-408 1056h184l228 -608q23 -61 44 -121.5t41 -121.5q21 61 42 121.5t43 121.5l225 608h181l-408 -1056h-172z" />
    <glyph glyph-name="w" unicode="w" horiz-adv-x="1540" 
d="M358 0l-328 1056h178l133 -464q28 -96 53.5 -196t51.5 -198q26 98 52 198t54 196l134 464h168l132 -464q27 -95 52.5 -194t51.5 -195q26 96 52 195t54 194l136 464h178l-328 -1056h-178l-139 480q-25 87 -48 177.5t-47 179.5q-23 -89 -47 -179.5t-49 -177.5l-142 -480
h-174z" />
    <glyph glyph-name="x" unicode="x" horiz-adv-x="1038" 
d="M30 0l394 538l-371 518h200l143 -208q32 -47 63 -93l62 -92q32 46 63 92t64 93l145 208h197l-371 -517l389 -539h-199l-168 240q-31 44 -61 88l-60 88q-30 -44 -60.5 -88t-61.5 -88l-170 -240h-198z" />
    <glyph glyph-name="y" unicode="y" horiz-adv-x="1048" 
d="M134 -418v150h104q94 0 143 127l58 150l-409 1047h184l228 -608q22 -59 43.5 -118.5t41.5 -118.5q21 59 42.5 118.5t43.5 118.5l224 608h181l-487 -1252q-41 -106 -117 -164t-176 -58h-104z" />
    <glyph glyph-name="z" unicode="z" horiz-adv-x="980" 
d="M94 0v130l578 770v4h-578v152h788v-136l-572 -764v-4h576v-152h-792z" />
    <glyph glyph-name="braceleft" unicode="{" horiz-adv-x="788" 
d="M709 -294q-214 0 -296 94.5t-82 295.5v232q0 111 -41 163t-144 58h-33v174h34q102 6 143 57.5t41 161.5v234q0 200 82 295t296 95v-146q-127 0 -170.5 -58t-43.5 -186v-292q0 -81 -34.5 -148t-136.5 -100q102 -35 136.5 -102t34.5 -148v-290q0 -128 43.5 -186t170.5 -58
v-146z" />
    <glyph glyph-name="bar" unicode="|" horiz-adv-x="606" 
d="M376 1970v-2450h-146v2450h146z" />
    <glyph glyph-name="braceright" unicode="}" horiz-adv-x="788" 
d="M79 -294v146q127 0 170.5 58t43.5 186v290q0 81 34.5 148t136.5 102q-102 33 -136.5 100t-34.5 148v292q0 128 -43.5 186t-170.5 58v146q214 0 296 -95t82 -295v-234q0 -117 46.5 -168t164.5 -52h7v-172q-121 -1 -169.5 -52t-48.5 -170v-232q0 -201 -82 -295.5
t-296 -94.5z" />
    <glyph glyph-name="asciitilde" unicode="~" horiz-adv-x="1286" 
d="M136 442q-2 121 39.5 194.5t108 106.5t140.5 33q75 0 136.5 -32t141.5 -102q53 -46 85.5 -65t70.5 -19q62 0 99 45.5t35 132.5h158q2 -120 -39.5 -193.5t-108 -107t-140.5 -33.5q-75 0 -136.5 32t-141.5 102q-53 46 -85.5 65t-70.5 19q-59 0 -97 -41.5t-37 -136.5h-158z
" />
    <glyph glyph-name="uni00A0" unicode="&#xa0;" horiz-adv-x="512" 
 />
    <glyph glyph-name="exclamdown" unicode="&#xa1;" horiz-adv-x="462" 
d="M132 -418l14 1072h170l14 -1072h-198zM230 818q-54 0 -92 38.5t-38 91.5q0 55 38 93.5t92 38.5t93 -38.5t39 -93.5q0 -53 -39 -91.5t-93 -38.5z" />
    <glyph glyph-name="cent" unicode="&#xa2;" horiz-adv-x="1071" 
d="M485 0v197q-125 19 -218 92.5t-144 190t-51 262.5q0 147 51 264.5t144 191.5t218 92v200h146v-198q153 -20 254.5 -120t121.5 -244h-172q-16 78 -67 134t-137 74v-784q85 16 132.5 71.5t68.5 136.5h175q-20 -141 -122 -242t-254 -121v-197h-146zM485 354v779
q-114 -27 -177.5 -130.5t-63.5 -260.5q0 -156 63 -258.5t178 -129.5z" />
    <glyph glyph-name="sterling" unicode="&#xa3;" horiz-adv-x="1192" 
d="M80 0v160q80 0 128 46.5t43 155.5l-13 310h-158v146h152l-10 236q-5 134 51 237t159.5 161t239.5 58q128 0 225.5 -58t153 -160t55.5 -236h-170q0 136 -71 215t-193 79q-133 0 -209.5 -78.5t-70.5 -213.5l10 -240h440v-146h-434l13 -306q4 -80 -19.5 -129.5t-65.5 -76.5
h518q47 0 66.5 20t19.5 66v63h166v-47q0 -131 -61.5 -196.5t-192.5 -65.5h-772z" />
    <glyph glyph-name="currency" unicode="&#xa4;" horiz-adv-x="1416" 
d="M704 -20q-106 0 -201 35.5t-171 99.5l-128 -129l-116 122l131 134q-52 76 -80.5 169t-28.5 197q0 108 31.5 204.5t86.5 174.5l-140 145l116 122l142 -143q75 58 166 90.5t192 32.5q103 0 195.5 -33.5t167.5 -93.5l143 147l120 -122l-147 -148q55 -78 86 -173.5t31 -202.5
q0 -103 -28.5 -195t-78.5 -168l137 -137l-120 -122l-129 133q-77 -66 -173.5 -102.5t-203.5 -36.5zM704 140q120 0 217.5 63.5t155 170t57.5 234.5q0 130 -57.5 236t-155 169t-217.5 63q-119 0 -218 -63t-157.5 -169t-58.5 -236q0 -128 58.5 -234.5t157.5 -170t218 -63.5z
" />
    <glyph glyph-name="yen" unicode="&#xa5;" horiz-adv-x="1058" 
d="M198 1490l324 -708h14l326 708h200l-372 -748h256v-132h-322l-4 -8v-148h326v-132h-326v-322h-180v322h-326v132h326v148l-4 8h-322v132h256l-372 748h200z" />
    <glyph glyph-name="brokenbar" unicode="&#xa6;" horiz-adv-x="480" 
d="M160 402h160v-682h-160v682zM320 1490v-678h-160v678h160z" />
    <glyph glyph-name="section" unicode="&#xa7;" horiz-adv-x="1064" 
d="M894 1138h-166q-1 94 -48.5 156t-149.5 62q-98 0 -144 -51.5t-46 -106.5q0 -65 53 -117t105 -83l282 -166q38 -22 87.5 -62.5t87 -104t37.5 -153.5q0 -54 -28 -107.5t-74 -95t-102 -59.5v-2q53 -46 77.5 -106t24.5 -130q0 -108 -52.5 -177.5t-136.5 -103t-181 -33.5
q-114 0 -203 45t-140 129t-51 200h168q0 -106 64.5 -163t161.5 -57q81 0 142.5 39.5t61.5 120.5q0 55 -24.5 92t-60.5 62.5t-71 45.5l-282 164q-39 22 -89 63t-87.5 105t-37.5 154q0 53 26 107.5t72.5 97t105.5 59.5v6q-46 47 -74 103.5t-28 126.5q0 91 46 161t126.5 110.5
t183.5 40.5q167 0 265 -104t99 -268zM832 512q0 63 -42 111t-94 79l-286 164q-32 20 -74 1.5t-73 -63.5t-31 -106q0 -70 43 -114.5t97 -77.5l270 -156q31 -18 76 -1t79.5 60.5t34.5 102.5z" />
    <glyph glyph-name="dieresis" unicode="&#xa8;" horiz-adv-x="1120" 
d="M351 1262q-48 0 -82 34t-34 82t34 82t82 34t82 -34t34 -82t-34 -82t-82 -34zM769 1262q-48 0 -82 34t-34 82t34 82t82 34t82 -34t34 -82t-34 -82t-82 -34z" />
    <glyph glyph-name="copyright" unicode="&#xa9;" horiz-adv-x="1808" 
d="M904 -23q-159 0 -298 59.5t-245 165.5t-165.5 245t-59.5 298t59.5 298t165.5 245t245 165.5t298 59.5t298 -59.5t245 -165.5t165.5 -245t59.5 -298t-59.5 -298t-165.5 -245t-245 -165.5t-298 -59.5zM904 145q124 0 233 46.5t191.5 129t129 191.5t46.5 233t-46.5 233
t-129 191.5t-191.5 129t-233 46.5t-233 -46.5t-191.5 -129t-129 -191.5t-46.5 -233t46.5 -233t129 -191.5t191.5 -129t233 -46.5zM480 744q0 120 58 218t156.5 156t217.5 58q104 0 191.5 -44.5t145 -120.5t71.5 -173h-176q-15 74 -81.5 122t-150.5 48q-72 0 -132 -35.5
t-96 -95.5t-36 -133q0 -72 36 -131.5t96 -95t132 -35.5q84 0 142.5 47.5t73.5 122.5h176q-13 -97 -67 -174t-137.5 -121.5t-187.5 -44.5q-119 0 -217.5 58.5t-156.5 156.5t-58 217z" />
    <glyph glyph-name="ordfeminine" unicode="&#xaa;" horiz-adv-x="856" 
d="M557 776q-30 -34 -80 -59t-123 -25q-119 0 -184.5 62.5t-65.5 165.5q0 111 86 171.5t258 60.5h102v50q0 128 -116 128q-66 0 -103 -25.5t-37 -74.5l-172 16q0 100 85 166t227 66q131 0 210.5 -69.5t79.5 -206.5v-314q0 -49 5.5 -93.5t20.5 -88.5h-176q-11 33 -17 70z
M550 1036h-102q-87 0 -126.5 -33.5t-39.5 -76.5q0 -88 116 -88q41 0 83.5 18.5t68.5 44.5v135z" />
    <glyph glyph-name="guillemotleft" unicode="&#xab;" horiz-adv-x="1071" 
d="M429 144l-369 440l369 440h196l-362 -440l362 -440h-196zM835 144l-369 440l369 440h196l-362 -440l362 -440h-196z" />
    <glyph glyph-name="logicalnot" unicode="&#xac;" horiz-adv-x="1286" 
d="M882 315v274h-674v156h836v-430h-162z" />
    <glyph glyph-name="registered" unicode="&#xae;" horiz-adv-x="1310" 
d="M654 346q-120 0 -225.5 45.5t-185.5 125.5t-125.5 185.5t-45.5 225.5t45.5 225.5t125.5 185.5t185.5 125.5t225.5 45.5q121 0 226.5 -45.5t185.5 -125.5t125 -185.5t45 -225.5t-45 -225.5t-125 -185.5t-185.5 -125.5t-226.5 -45.5zM654 486q123 0 223 59.5t159.5 160
t59.5 222.5t-59.5 222.5t-159.5 160t-223 59.5q-122 0 -222.5 -59.5t-160 -160t-59.5 -222.5t59.5 -222.5t160 -160t222.5 -59.5zM450 666v536h272q33 1 72 -17.5t66.5 -56.5t27.5 -96q0 -56 -26 -95.5t-62 -61.5l110 -209h-130l-95 182h-117v-182h-118zM568 936h110
q24 -1 52 23t28 73t-28.5 66.5t-49.5 17.5h-112v-180z" />
    <glyph glyph-name="macron" unicode="&#xaf;" horiz-adv-x="832" 
d="M692 1416v-140h-552v140h552z" />
    <glyph glyph-name="degree" unicode="&#xb0;" horiz-adv-x="866" 
d="M434 832q-92 0 -168.5 45t-122 121t-45.5 168q0 93 45.5 169t122 121.5t168.5 45.5t168 -45.5t121 -121.5t45 -169q0 -92 -45 -168t-121 -121t-168 -45zM434 978q78 -1 133 54.5t55 133.5q0 79 -55 134.5t-133 55.5q-79 0 -134.5 -55.5t-55.5 -134.5q0 -78 55.5 -133.5
t134.5 -54.5z" />
    <glyph glyph-name="plusminus" unicode="&#xb1;" horiz-adv-x="1286" 
d="M174 658v162h388v298h162v-298h388v-162h-388v-298h-162v298h-388zM174 70v162h938v-162h-938z" />
    <glyph glyph-name="two.sups" unicode="&#xb2;" horiz-adv-x="789" 
d="M78 874v127l327 253q63 49 101.5 88.5t38.5 94.5q0 56 -40.5 89.5t-108.5 33.5q-74 0 -117 -41t-43 -114h-160q0 134 87 214t233 80q136 0 224 -68.5t88 -184.5q0 -85 -50 -149t-148 -137l-196 -145v-1h398v-140h-634z" />
    <glyph glyph-name="three.sups" unicode="&#xb3;" horiz-adv-x="822" 
d="M416 861q-163 0 -250 83.5t-87 198.5h167q0 -69 44.5 -108t123.5 -39q74 0 120.5 32.5t46.5 84.5q0 51 -50.5 81.5t-131.5 30.5h-79v126h79q74 0 118.5 28t44.5 75q0 51 -41 82t-108 31q-69 0 -110.5 -34t-41.5 -91h-164q0 111 86.5 184t229.5 73q135 0 223.5 -63.5
t88.5 -162.5q0 -68 -46.5 -114.5t-123.5 -60.5v-2q95 -11 146 -66.5t51 -126.5q0 -105 -94 -173.5t-242 -68.5z" />
    <glyph glyph-name="acute" unicode="&#xb4;" horiz-adv-x="494" 
d="M89 1192l140 298h194l-192 -298h-142z" />
    <glyph glyph-name="uni00B5" unicode="&#xb5;" horiz-adv-x="1132" 
d="M126 -418v1474h170v-618q0 -160 76.5 -231t191.5 -71q116 0 188 71t72 231v618h170v-808q0 -56 24.5 -78t85.5 -22h28v-148h-28q-225 0 -267 166q-29 -72 -76.5 -112t-100.5 -56t-98 -16q-64 0 -142 34.5t-124 130.5v-565h-170z" />
    <glyph glyph-name="paragraph" unicode="&#xb6;" horiz-adv-x="1151" 
d="M821 0v1330h-180v-778h-84q-158 0 -268 61t-167 167.5t-57 241.5q0 134 57 239.5t167 167t268 61.5h446v-1490h-182z" />
    <glyph glyph-name="periodcentered" unicode="&#xb7;" horiz-adv-x="450" 
d="M225 584q-52 0 -88.5 36.5t-36.5 88.5q0 53 36.5 89t88.5 36q53 0 89 -36t36 -89q0 -52 -36 -88.5t-89 -36.5z" />
    <glyph glyph-name="cedilla" unicode="&#xb8;" horiz-adv-x="482" 
d="M131 -418v104h117q99 0 99 66t-99 66h-81l30 230h93v-134q86 -4 137 -47.5t51 -114.5q0 -88 -63 -129t-167 -41h-117z" />
    <glyph glyph-name="one.sups" unicode="&#xb9;" horiz-adv-x="534" 
d="M434 1686v-812h-167v653h-1l-212 -120v152l222 127h158z" />
    <glyph glyph-name="ordmasculine" unicode="&#xba;" horiz-adv-x="856" 
d="M82 1044v78q-1 155 92.5 255.5t253.5 100.5q161 0 253.5 -100.5t92.5 -255.5v-78q0 -154 -92 -253t-252 -99q-161 0 -255 99t-93 253zM256 1122v-78q0 -89 43.5 -147.5t130.5 -58.5q86 0 128 58.5t42 147.5v78q-1 88 -43 148t-129 60q-85 0 -128.5 -60t-43.5 -148z" />
    <glyph glyph-name="guillemotright" unicode="&#xbb;" horiz-adv-x="1071" 
d="M40 144l362 440l-362 440h196l369 -440l-369 -440h-196zM446 144l362 440l-362 440h196l369 -440l-369 -440h-196z" />
    <glyph glyph-name="onequarter" unicode="&#xbc;" horiz-adv-x="1482" 
d="M398 1490v-812h-150v667l-195 -124v140l203 129h142zM93 0l1024 1490h174l-1024 -1490h-174zM752 179v121l367 512h191v-511h110v-122h-110v-179h-147v179h-411zM1163 301v359h-1l-257 -357v-2h258z" />
    <glyph glyph-name="onehalf" unicode="&#xbd;" horiz-adv-x="1548" 
d="M398 1490v-812h-150v667l-195 -124v140l203 129h142zM93 0l1024 1490h174l-1024 -1490h-174zM896 0v116l298 256q59 50 95 92.5t36 101.5q0 61 -37.5 97t-101.5 36q-69 0 -108.5 -43t-39.5 -120h-144q0 131 79.5 210t212.5 79q125 0 204.5 -69t79.5 -183
q0 -82 -45.5 -146t-134.5 -141l-183 -158v-1h367v-127h-578z" />
    <glyph glyph-name="threequarters" unicode="&#xbe;" horiz-adv-x="1647" 
d="M382 665q-148 0 -227.5 81t-79.5 198h150q0 -73 41.5 -114.5t114.5 -41.5q68 0 111.5 34.5t43.5 91.5q0 55 -47 87.5t-122 32.5h-72v117h72q69 0 110 30t41 80q0 56 -38 88.5t-100 32.5q-64 0 -102.5 -36t-38.5 -98h-147q0 111 79 183t209 72q122 0 203 -63.5t81 -163.5
q0 -68 -43.5 -114t-111.5 -61v-2q85 -11 132.5 -65.5t47.5 -126.5q0 -106 -86.5 -174t-220.5 -68zM258 0l1024 1490h174l-1024 -1490h-174zM917 179v121l367 512h191v-511h110v-122h-110v-179h-147v179h-411zM1328 301v359h-1l-257 -357v-2h258z" />
    <glyph glyph-name="questiondown" unicode="&#xbf;" horiz-adv-x="1073" 
d="M652 656v-112q0 -110 -30.5 -169.5t-84 -98.5t-121.5 -89q-85 -61 -118.5 -126t-33.5 -131q0 -106 73 -168t200 -62q139 0 216 80.5t77 225.5h179q0 -139 -59 -243.5t-165 -162.5t-248 -58q-131 0 -232 49.5t-158 137t-57 201.5q0 218 214 366q67 47 105 81t53.5 75
t15.5 108v96h174zM565 1073q53 0 89 -36t36 -89q0 -52 -36 -88.5t-89 -36.5q-52 0 -88.5 36.5t-36.5 88.5q0 53 36.5 89t88.5 36z" />
    <glyph glyph-name="Agrave" unicode="&#xc0;" horiz-adv-x="1338" 
d="M20 0l550 1490h204l544 -1490h-192l-146 418h-622l-150 -418h-188zM415 578h510l-112 320q-28 79 -60.5 176.5t-80.5 246.5q-48 -149 -80.5 -246.5t-61.5 -176.5zM604 1626l-192 298h194l140 -298h-142z" />
    <glyph glyph-name="Aacute" unicode="&#xc1;" horiz-adv-x="1338" 
d="M20 0l550 1490h204l544 -1490h-192l-146 418h-622l-150 -418h-188zM415 578h510l-112 320q-28 79 -60.5 176.5t-80.5 246.5q-48 -149 -80.5 -246.5t-61.5 -176.5zM597 1626l140 298h194l-192 -298h-142z" />
    <glyph glyph-name="Acircumflex" unicode="&#xc2;" horiz-adv-x="1338" 
d="M20 0l550 1490h204l544 -1490h-192l-146 418h-622l-150 -418h-188zM415 578h510l-112 320q-28 79 -60.5 176.5t-80.5 246.5q-48 -149 -80.5 -246.5t-61.5 -176.5zM528 1650h-170v1l230 273h166l232 -273v-1h-172l-142 176z" />
    <glyph glyph-name="Atilde" unicode="&#xc3;" horiz-adv-x="1338" 
d="M20 0l550 1490h204l544 -1490h-192l-146 418h-622l-150 -418h-188zM415 578h510l-112 320q-28 79 -60.5 176.5t-80.5 246.5q-48 -149 -80.5 -246.5t-61.5 -176.5zM803 1693q-48 0 -94 20.5t-84 40.5t-63 20q-26 0 -38 -25t-14 -53h-123q3 88 41 146t117 58q51 0 93 -21
t78 -42t69 -21q45 0 55 80h119q-3 -92 -43.5 -147.5t-112.5 -55.5z" />
    <glyph glyph-name="Adieresis" unicode="&#xc4;" horiz-adv-x="1338" 
d="M20 0l550 1490h204l544 -1490h-192l-146 418h-622l-150 -418h-188zM415 578h510l-112 320q-28 79 -60.5 176.5t-80.5 246.5q-48 -149 -80.5 -246.5t-61.5 -176.5zM463 1696q-48 0 -82 34t-34 82t34 82t82 34t82 -34t34 -82t-34 -82t-82 -34zM881 1696q-48 0 -82 34
t-34 82t34 82t82 34t82 -34t34 -82t-34 -82t-82 -34z" />
    <glyph glyph-name="Aring" unicode="&#xc5;" horiz-adv-x="1338" 
d="M20 0l550 1490h204l544 -1490h-192l-146 418h-622l-150 -418h-188zM415 578h510l-112 320q-28 79 -60.5 176.5t-80.5 246.5q-48 -149 -80.5 -246.5t-61.5 -176.5zM672 1580q-67 0 -122 31.5t-87.5 84t-32.5 116.5t32.5 116.5t87.5 84t122 31.5t122 -31.5t87.5 -84
t32.5 -116.5t-32.5 -116.5t-87.5 -84t-122 -31.5zM672 1700q47 0 79.5 33t32.5 79q0 47 -32.5 79.5t-79.5 32.5q-46 0 -79 -32.5t-33 -79.5q0 -46 33 -79t79 -33z" />
    <glyph glyph-name="AE" unicode="&#xc6;" horiz-adv-x="1981" 
d="M20 0l675 1490h1216v-160h-789v-498h731v-160h-731v-512h789v-160h-969v448h-533l-200 -448h-189zM480 608h462v722h-140z" />
    <glyph glyph-name="Ccedilla" unicode="&#xc7;" horiz-adv-x="1479" 
d="M779 -24q-206 0 -361 98.5t-241.5 272t-86.5 397.5q0 226 86 399.5t241.5 272t361.5 98.5q156 0 285 -61.5t215.5 -175t113.5 -269.5h-184q-36 163 -151.5 250.5t-278.5 87.5q-157 0 -271 -76.5t-176 -212t-62 -313.5q0 -177 62 -312t176 -211.5t271 -76.5q161 0 277 87
t154 249h183q-27 -155 -113 -268t-215.5 -174.5t-285.5 -61.5zM647 -418v104h117q99 0 99 66t-99 66h-81l30 230h93v-134q86 -4 137 -47.5t51 -114.5q0 -88 -63 -129t-167 -41h-117z" />
    <glyph glyph-name="Egrave" unicode="&#xc8;" horiz-adv-x="1187" 
d="M148 0v1490h969v-160h-789v-487h731v-160h-731v-523h789v-160h-969zM564 1626l-192 298h194l140 -298h-142z" />
    <glyph glyph-name="Eacute" unicode="&#xc9;" horiz-adv-x="1187" 
d="M148 0v1490h969v-160h-789v-487h731v-160h-731v-523h789v-160h-969zM557 1626l140 298h194l-192 -298h-142z" />
    <glyph glyph-name="Ecircumflex" unicode="&#xca;" horiz-adv-x="1187" 
d="M148 0v1490h969v-160h-789v-487h731v-160h-731v-523h789v-160h-969zM488 1650h-170v1l230 273h166l232 -273v-1h-172l-142 176z" />
    <glyph glyph-name="Edieresis" unicode="&#xcb;" horiz-adv-x="1187" 
d="M148 0v1490h969v-160h-789v-487h731v-160h-731v-523h789v-160h-969zM423 1696q-48 0 -82 34t-34 82t34 82t82 34t82 -34t34 -82t-34 -82t-82 -34zM841 1696q-48 0 -82 34t-34 82t34 82t82 34t82 -34t34 -82t-34 -82t-82 -34z" />
    <glyph glyph-name="Igrave" unicode="&#xcc;" horiz-adv-x="476" 
d="M328 1490v-1490h-180v1490h180zM170 1626l-192 298h194l140 -298h-142z" />
    <glyph glyph-name="Iacute" unicode="&#xcd;" horiz-adv-x="476" 
d="M328 1490v-1490h-180v1490h180zM163 1626l140 298h194l-192 -298h-142z" />
    <glyph glyph-name="Icircumflex" unicode="&#xce;" horiz-adv-x="476" 
d="M328 1490v-1490h-180v1490h180zM94 1650h-170v1l230 273h166l232 -273v-1h-172l-142 176z" />
    <glyph glyph-name="Idieresis" unicode="&#xcf;" horiz-adv-x="476" 
d="M328 1490v-1490h-180v1490h180zM29 1696q-48 0 -82 34t-34 82t34 82t82 34t82 -34t34 -82t-34 -82t-82 -34zM447 1696q-48 0 -82 34t-34 82t34 82t82 34t82 -34t34 -82t-34 -82t-82 -34z" />
    <glyph glyph-name="Eth" unicode="&#xd0;" horiz-adv-x="1481" 
d="M677 0h-460v1490h480q217 0 372.5 -89t238.5 -255.5t83 -397.5q0 -233 -84 -400.5t-243.5 -257.5t-386.5 -90zM397 160h268q278 0 412 157.5t134 430.5q0 270 -131.5 426t-394.5 156h-288v-1170zM15 665v160h808v-160h-808z" />
    <glyph glyph-name="Ntilde" unicode="&#xd1;" horiz-adv-x="1454" 
d="M148 0v1490h207l614 -970q26 -42 72 -119t91 -156q-3 78 -4.5 162t-1.5 121v962h180v-1490h-209l-546 862q-31 48 -91.5 147.5t-140.5 233.5q5 -139 7 -234.5t2 -144.5v-864h-180zM858 1693q-48 0 -94 20.5t-84 40.5t-63 20q-26 0 -38 -25t-14 -53h-123q3 88 41 146
t117 58q51 0 93 -21t78 -42t69 -21q45 0 55 80h119q-3 -92 -43.5 -147.5t-112.5 -55.5z" />
    <glyph glyph-name="Ograve" unicode="&#xd2;" horiz-adv-x="1534" 
d="M767 -24q-197 0 -350 99t-240 272.5t-87 396.5q0 225 87 398.5t240 272.5t350 99q198 0 350.5 -99t239.5 -272.5t87 -398.5q0 -223 -87 -396.5t-239.5 -272.5t-350.5 -99zM767 144q135 0 248 69.5t181 203.5t68 327q0 194 -68 328.5t-181 204t-248 69.5t-248 -69.5
t-181 -204t-68 -328.5q0 -193 68 -327t181 -203.5t248 -69.5zM699 1626l-192 298h194l140 -298h-142z" />
    <glyph glyph-name="Oacute" unicode="&#xd3;" horiz-adv-x="1534" 
d="M767 -24q-197 0 -350 99t-240 272.5t-87 396.5q0 225 87 398.5t240 272.5t350 99q198 0 350.5 -99t239.5 -272.5t87 -398.5q0 -223 -87 -396.5t-239.5 -272.5t-350.5 -99zM767 144q135 0 248 69.5t181 203.5t68 327q0 194 -68 328.5t-181 204t-248 69.5t-248 -69.5
t-181 -204t-68 -328.5q0 -193 68 -327t181 -203.5t248 -69.5zM692 1626l140 298h194l-192 -298h-142z" />
    <glyph glyph-name="Ocircumflex" unicode="&#xd4;" horiz-adv-x="1534" 
d="M767 -24q-197 0 -350 99t-240 272.5t-87 396.5q0 225 87 398.5t240 272.5t350 99q198 0 350.5 -99t239.5 -272.5t87 -398.5q0 -223 -87 -396.5t-239.5 -272.5t-350.5 -99zM767 144q135 0 248 69.5t181 203.5t68 327q0 194 -68 328.5t-181 204t-248 69.5t-248 -69.5
t-181 -204t-68 -328.5q0 -193 68 -327t181 -203.5t248 -69.5zM623 1650h-170v1l230 273h166l232 -273v-1h-172l-142 176z" />
    <glyph glyph-name="Otilde" unicode="&#xd5;" horiz-adv-x="1534" 
d="M767 -24q-197 0 -350 99t-240 272.5t-87 396.5q0 225 87 398.5t240 272.5t350 99q198 0 350.5 -99t239.5 -272.5t87 -398.5q0 -223 -87 -396.5t-239.5 -272.5t-350.5 -99zM767 144q135 0 248 69.5t181 203.5t68 327q0 194 -68 328.5t-181 204t-248 69.5t-248 -69.5
t-181 -204t-68 -328.5q0 -193 68 -327t181 -203.5t248 -69.5zM898 1693q-48 0 -94 20.5t-84 40.5t-63 20q-26 0 -38 -25t-14 -53h-123q3 88 41 146t117 58q51 0 93 -21t78 -42t69 -21q45 0 55 80h119q-3 -92 -43.5 -147.5t-112.5 -55.5z" />
    <glyph glyph-name="Odieresis" unicode="&#xd6;" horiz-adv-x="1534" 
d="M767 -24q-197 0 -350 99t-240 272.5t-87 396.5q0 225 87 398.5t240 272.5t350 99q198 0 350.5 -99t239.5 -272.5t87 -398.5q0 -223 -87 -396.5t-239.5 -272.5t-350.5 -99zM767 144q135 0 248 69.5t181 203.5t68 327q0 194 -68 328.5t-181 204t-248 69.5t-248 -69.5
t-181 -204t-68 -328.5q0 -193 68 -327t181 -203.5t248 -69.5zM558 1696q-48 0 -82 34t-34 82t34 82t82 34t82 -34t34 -82t-34 -82t-82 -34zM976 1696q-48 0 -82 34t-34 82t34 82t82 34t82 -34t34 -82t-34 -82t-82 -34z" />
    <glyph glyph-name="multiply" unicode="&#xd7;" horiz-adv-x="1286" 
d="M998 116l-355 355l-355 -355l-110 110l355 355l-355 355l110 112l355 -356l355 356l110 -112l-355 -355l355 -355z" />
    <glyph glyph-name="Oslash" unicode="&#xd8;" horiz-adv-x="1534" 
d="M767 -24q-197 0 -350 99t-240 272.5t-87 396.5q0 225 87 398.5t240 272.5t350 99q198 0 350.5 -99t239.5 -272.5t87 -398.5q0 -223 -87 -396.5t-239.5 -272.5t-350.5 -99zM767 144q135 0 248 69.5t181 203.5t68 327q0 194 -68 328.5t-181 204t-248 69.5t-248 -69.5
t-181 -204t-68 -328.5q0 -193 68 -327t181 -203.5t248 -69.5zM207 -55l-130 110l1249 1490l130 -110z" />
    <glyph glyph-name="Ugrave" unicode="&#xd9;" horiz-adv-x="1440" 
d="M720 -24q-175 0 -305.5 69t-202.5 188.5t-72 272.5v984h180v-970q0 -109 48 -194t138 -133.5t214 -48.5q125 0 214.5 48.5t137.5 133.5t48 194v970h180v-984q0 -153 -72 -272.5t-202 -188.5t-306 -69zM652 1626l-192 298h194l140 -298h-142z" />
    <glyph glyph-name="Uacute" unicode="&#xda;" horiz-adv-x="1440" 
d="M720 -24q-175 0 -305.5 69t-202.5 188.5t-72 272.5v984h180v-970q0 -109 48 -194t138 -133.5t214 -48.5q125 0 214.5 48.5t137.5 133.5t48 194v970h180v-984q0 -153 -72 -272.5t-202 -188.5t-306 -69zM645 1626l140 298h194l-192 -298h-142z" />
    <glyph glyph-name="Ucircumflex" unicode="&#xdb;" horiz-adv-x="1440" 
d="M720 -24q-175 0 -305.5 69t-202.5 188.5t-72 272.5v984h180v-970q0 -109 48 -194t138 -133.5t214 -48.5q125 0 214.5 48.5t137.5 133.5t48 194v970h180v-984q0 -153 -72 -272.5t-202 -188.5t-306 -69zM576 1650h-170v1l230 273h166l232 -273v-1h-172l-142 176z" />
    <glyph glyph-name="Udieresis" unicode="&#xdc;" horiz-adv-x="1440" 
d="M720 -24q-175 0 -305.5 69t-202.5 188.5t-72 272.5v984h180v-970q0 -109 48 -194t138 -133.5t214 -48.5q125 0 214.5 48.5t137.5 133.5t48 194v970h180v-984q0 -153 -72 -272.5t-202 -188.5t-306 -69zM511 1696q-48 0 -82 34t-34 82t34 82t82 34t82 -34t34 -82t-34 -82
t-82 -34zM929 1696q-48 0 -82 34t-34 82t34 82t82 34t82 -34t34 -82t-34 -82t-82 -34z" />
    <glyph glyph-name="Yacute" unicode="&#xdd;" horiz-adv-x="1316" 
d="M568 0v614l-548 876h208l299 -482q35 -55 67.5 -110.5t64.5 -110.5q32 55 65 110.5t67 110.5l298 482h207l-548 -876v-614h-180zM583 1626l140 298h194l-192 -298h-142z" />
    <glyph glyph-name="Thorn" unicode="&#xde;" horiz-adv-x="1228" 
d="M136 1490h182v-308h288q158 0 267.5 -58t166 -155t56.5 -215t-56.5 -215t-166 -155t-267.5 -58h-288v-326h-182v1490zM318 486h288q155 0 237.5 69t82.5 195q0 127 -82.5 199.5t-237.5 72.5h-288v-536z" />
    <glyph glyph-name="germandbls" unicode="&#xdf;" horiz-adv-x="1180" 
d="M148 0v1108q0 125 55 215t152 138.5t223 48.5q124 0 222 -46.5t155 -132.5t57 -205q0 -127 -65.5 -214t-170.5 -124v-14q143 -14 233.5 -111.5t90.5 -252.5q0 -117 -54 -210t-151.5 -146.5t-228.5 -53.5h-162v160h166q118 0 188 70.5t70 179.5q0 116 -77.5 190t-210.5 74
h-130v164h92q74 0 127 37.5t82 97.5t29 127q0 104 -69 177t-189 73q-113 0 -187.5 -67.5t-74.5 -174.5v-1108h-172z" />
    <glyph glyph-name="agrave" unicode="&#xe0;" horiz-adv-x="1060" 
d="M448 -16q-157 0 -262.5 81t-105.5 239q0 91 35.5 148t95 89.5t135 49.5t154.5 27q101 14 159 21t82.5 23t24.5 56v10q0 86 -61.5 142t-172.5 56q-110 0 -180.5 -53.5t-76.5 -132.5h-173q5 97 60 172.5t150 119.5t220 44q185 0 293.5 -95.5t108.5 -252.5v-728h-168v150h-4
q-19 -38 -56 -76.5t-99.5 -64t-158.5 -25.5zM472 136q104 0 169 37.5t95 97.5t30 129v132q-19 -18 -101 -32.5t-173 -27.5q-61 -8 -115.5 -27.5t-88.5 -55t-34 -95.5q0 -74 58.5 -116t159.5 -42zM456 1192l-192 298h194l140 -298h-142z" />
    <glyph glyph-name="aacute" unicode="&#xe1;" horiz-adv-x="1060" 
d="M448 -16q-157 0 -262.5 81t-105.5 239q0 91 35.5 148t95 89.5t135 49.5t154.5 27q101 14 159 21t82.5 23t24.5 56v10q0 86 -61.5 142t-172.5 56q-110 0 -180.5 -53.5t-76.5 -132.5h-173q5 97 60 172.5t150 119.5t220 44q185 0 293.5 -95.5t108.5 -252.5v-728h-168v150h-4
q-19 -38 -56 -76.5t-99.5 -64t-158.5 -25.5zM472 136q104 0 169 37.5t95 97.5t30 129v132q-19 -18 -101 -32.5t-173 -27.5q-61 -8 -115.5 -27.5t-88.5 -55t-34 -95.5q0 -74 58.5 -116t159.5 -42zM449 1192l140 298h194l-192 -298h-142z" />
    <glyph glyph-name="acircumflex" unicode="&#xe2;" horiz-adv-x="1060" 
d="M448 -16q-157 0 -262.5 81t-105.5 239q0 91 35.5 148t95 89.5t135 49.5t154.5 27q101 14 159 21t82.5 23t24.5 56v10q0 86 -61.5 142t-172.5 56q-110 0 -180.5 -53.5t-76.5 -132.5h-173q5 97 60 172.5t150 119.5t220 44q185 0 293.5 -95.5t108.5 -252.5v-728h-168v150h-4
q-19 -38 -56 -76.5t-99.5 -64t-158.5 -25.5zM472 136q104 0 169 37.5t95 97.5t30 129v132q-19 -18 -101 -32.5t-173 -27.5q-61 -8 -115.5 -27.5t-88.5 -55t-34 -95.5q0 -74 58.5 -116t159.5 -42zM380 1216h-170v1l230 273h166l232 -273v-1h-172l-142 176z" />
    <glyph glyph-name="atilde" unicode="&#xe3;" horiz-adv-x="1060" 
d="M448 -16q-157 0 -262.5 81t-105.5 239q0 91 35.5 148t95 89.5t135 49.5t154.5 27q101 14 159 21t82.5 23t24.5 56v10q0 86 -61.5 142t-172.5 56q-110 0 -180.5 -53.5t-76.5 -132.5h-173q5 97 60 172.5t150 119.5t220 44q185 0 293.5 -95.5t108.5 -252.5v-728h-168v150h-4
q-19 -38 -56 -76.5t-99.5 -64t-158.5 -25.5zM472 136q104 0 169 37.5t95 97.5t30 129v132q-19 -18 -101 -32.5t-173 -27.5q-61 -8 -115.5 -27.5t-88.5 -55t-34 -95.5q0 -74 58.5 -116t159.5 -42zM655 1259q-48 0 -94 20.5t-84 40.5t-63 20q-26 0 -38 -25t-14 -53h-123
q3 88 41 146t117 58q51 0 93 -21t78 -42t69 -21q45 0 55 80h119q-3 -92 -43.5 -147.5t-112.5 -55.5z" />
    <glyph glyph-name="adieresis" unicode="&#xe4;" horiz-adv-x="1060" 
d="M448 -16q-157 0 -262.5 81t-105.5 239q0 91 35.5 148t95 89.5t135 49.5t154.5 27q101 14 159 21t82.5 23t24.5 56v10q0 86 -61.5 142t-172.5 56q-110 0 -180.5 -53.5t-76.5 -132.5h-173q5 97 60 172.5t150 119.5t220 44q185 0 293.5 -95.5t108.5 -252.5v-728h-168v150h-4
q-19 -38 -56 -76.5t-99.5 -64t-158.5 -25.5zM472 136q104 0 169 37.5t95 97.5t30 129v132q-19 -18 -101 -32.5t-173 -27.5q-61 -8 -115.5 -27.5t-88.5 -55t-34 -95.5q0 -74 58.5 -116t159.5 -42zM315 1262q-48 0 -82 34t-34 82t34 82t82 34t82 -34t34 -82t-34 -82t-82 -34z
M733 1262q-48 0 -82 34t-34 82t34 82t82 34t82 -34t34 -82t-34 -82t-82 -34z" />
    <glyph glyph-name="aring" unicode="&#xe5;" horiz-adv-x="1060" 
d="M448 -16q-157 0 -262.5 81t-105.5 239q0 91 35.5 148t95 89.5t135 49.5t154.5 27q101 14 159 21t82.5 23t24.5 56v10q0 86 -61.5 142t-172.5 56q-110 0 -180.5 -53.5t-76.5 -132.5h-173q5 97 60 172.5t150 119.5t220 44q185 0 293.5 -95.5t108.5 -252.5v-728h-168v150h-4
q-19 -38 -56 -76.5t-99.5 -64t-158.5 -25.5zM472 136q104 0 169 37.5t95 97.5t30 129v132q-19 -18 -101 -32.5t-173 -27.5q-61 -8 -115.5 -27.5t-88.5 -55t-34 -95.5q0 -74 58.5 -116t159.5 -42zM524 1146q-67 0 -122 31.5t-87.5 84t-32.5 116.5t32.5 116.5t87.5 84
t122 31.5t122 -31.5t87.5 -84t32.5 -116.5t-32.5 -116.5t-87.5 -84t-122 -31.5zM524 1266q47 0 79.5 33t32.5 79q0 47 -32.5 79.5t-79.5 32.5q-46 0 -79 -32.5t-33 -79.5q0 -46 33 -79t79 -33z" />
    <glyph glyph-name="ae" unicode="&#xe6;" horiz-adv-x="1785" 
d="M472 -14q-186 0 -289 89.5t-103 228.5q0 151 127.5 236t353.5 85h205v103q0 86 -61.5 142t-172.5 56q-110 0 -180.5 -53.5t-76.5 -132.5h-173q5 97 60 172.5t150 119.5t220 44q128 0 214 -47.5t127 -130.5q64 85 157.5 133.5t206.5 48.5q147 0 255 -70t166.5 -195
t58.5 -289v-47h-790q6 -155 89 -252t233 -97q113 0 184.5 52t95.5 134h170q-20 -101 -83 -177.5t-157.5 -119.5t-209.5 -43q-135 0 -236.5 55.5t-163.5 151.5q-96 -197 -377 -197zM929 625h618q-14 139 -97 221t-213 82t-212 -82t-96 -221zM766 479h-205q-307 0 -307 -177
q0 -83 58.5 -123.5t159.5 -40.5q104 0 169 36.5t95 96.5t30 129v79z" />
    <glyph glyph-name="ccedilla" unicode="&#xe7;" horiz-adv-x="1071" 
d="M562 -24q-146 0 -256.5 70.5t-172 194.5t-61.5 285q0 162 61.5 287t172 196t256.5 71q120 0 215 -47.5t155.5 -130.5t74.5 -190h-172q-19 93 -87.5 153.5t-185.5 60.5q-149 0 -233.5 -109t-84.5 -291q0 -180 84 -288t234 -108q119 0 182 58.5t88 155.5h175
q-14 -104 -74.5 -187.5t-156 -132t-214.5 -48.5zM451 -418v104h117q99 0 99 66t-99 66h-81l30 230h93v-134q86 -4 137 -47.5t51 -114.5q0 -88 -63 -129t-167 -41h-117z" />
    <glyph glyph-name="egrave" unicode="&#xe8;" horiz-adv-x="1098" 
d="M562 -24q-155 0 -264.5 71t-167.5 195.5t-58 283.5q0 161 61 286t169 196.5t248 71.5q147 0 255 -70t166.5 -195t58.5 -289v-47h-790q6 -155 89 -252t233 -97q113 0 184.5 52t95.5 134h170q-20 -101 -83 -177.5t-157.5 -119.5t-209.5 -43zM242 625h618q-14 139 -97 221
t-213 82t-212 -82t-96 -221zM482 1192l-192 298h194l140 -298h-142z" />
    <glyph glyph-name="eacute" unicode="&#xe9;" horiz-adv-x="1098" 
d="M562 -24q-155 0 -264.5 71t-167.5 195.5t-58 283.5q0 161 61 286t169 196.5t248 71.5q147 0 255 -70t166.5 -195t58.5 -289v-47h-790q6 -155 89 -252t233 -97q113 0 184.5 52t95.5 134h170q-20 -101 -83 -177.5t-157.5 -119.5t-209.5 -43zM242 625h618q-14 139 -97 221
t-213 82t-212 -82t-96 -221zM475 1192l140 298h194l-192 -298h-142z" />
    <glyph glyph-name="ecircumflex" unicode="&#xea;" horiz-adv-x="1098" 
d="M562 -24q-155 0 -264.5 71t-167.5 195.5t-58 283.5q0 161 61 286t169 196.5t248 71.5q147 0 255 -70t166.5 -195t58.5 -289v-47h-790q6 -155 89 -252t233 -97q113 0 184.5 52t95.5 134h170q-20 -101 -83 -177.5t-157.5 -119.5t-209.5 -43zM242 625h618q-14 139 -97 221
t-213 82t-212 -82t-96 -221zM406 1216h-170v1l230 273h166l232 -273v-1h-172l-142 176z" />
    <glyph glyph-name="edieresis" unicode="&#xeb;" horiz-adv-x="1098" 
d="M562 -24q-155 0 -264.5 71t-167.5 195.5t-58 283.5q0 161 61 286t169 196.5t248 71.5q147 0 255 -70t166.5 -195t58.5 -289v-47h-790q6 -155 89 -252t233 -97q113 0 184.5 52t95.5 134h170q-20 -101 -83 -177.5t-157.5 -119.5t-209.5 -43zM242 625h618q-14 139 -97 221
t-213 82t-212 -82t-96 -221zM341 1262q-48 0 -82 34t-34 82t34 82t82 34t82 -34t34 -82t-34 -82t-82 -34zM759 1262q-48 0 -82 34t-34 82t34 82t82 34t82 -34t34 -82t-34 -82t-82 -34z" />
    <glyph glyph-name="igrave" unicode="&#xec;" horiz-adv-x="422" 
d="M126 0v1056h170v-1056h-170zM143 1192l-192 298h194l140 -298h-142z" />
    <glyph glyph-name="iacute" unicode="&#xed;" horiz-adv-x="422" 
d="M126 0v1056h170v-1056h-170zM136 1192l140 298h194l-192 -298h-142z" />
    <glyph glyph-name="icircumflex" unicode="&#xee;" horiz-adv-x="422" 
d="M126 0v1056h170v-1056h-170zM67 1216h-170v1l230 273h166l232 -273v-1h-172l-142 176z" />
    <glyph glyph-name="idieresis" unicode="&#xef;" horiz-adv-x="422" 
d="M126 0v1056h170v-1056h-170zM2 1262q-48 0 -82 34t-34 82t34 82t82 34t82 -34t34 -82t-34 -82t-82 -34zM420 1262q-48 0 -82 34t-34 82t34 82t82 34t82 -34t34 -82t-34 -82t-82 -34z" />
    <glyph glyph-name="eth" unicode="&#xf0;" horiz-adv-x="1122" 
d="M934 1416l-204 -99q137 -143 228.5 -337t91.5 -434q0 -180 -61 -307.5t-170.5 -194.5t-256.5 -68q-150 1 -260 70t-170 190t-60 276q0 159 60 279.5t161.5 188.5t224.5 68q85 0 148 -29.5t106.5 -73t67.5 -87.5h16q-32 88 -92.5 191t-166.5 204l-259 -125l-50 108
l209 101q-43 33 -92 63.5t-105 59.5l76 122q66 -34 132 -78.5t129 -98.5l247 119zM562 130q106 1 177.5 50.5t108 133t36.5 186.5q0 95 -33 188t-103.5 154.5t-185.5 61.5q-106 0 -177 -54.5t-106 -143.5t-35 -194q0 -99 32.5 -186t103 -141t182.5 -55z" />
    <glyph glyph-name="ntilde" unicode="&#xf1;" horiz-adv-x="1120" 
d="M296 618v-618h-170v1056h166v-155q55 90 134.5 132.5t179.5 42.5q107 0 195 -46.5t140.5 -139.5t52.5 -234v-656h-170v644q0 137 -65.5 206.5t-184.5 69.5q-115 0 -196.5 -71t-81.5 -231zM691 1259q-48 0 -94 20.5t-84 40.5t-63 20q-26 0 -38 -25t-14 -53h-123
q3 88 41 146t117 58q51 0 93 -21t78 -42t69 -21q45 0 55 80h119q-3 -92 -43.5 -147.5t-112.5 -55.5z" />
    <glyph glyph-name="ograve" unicode="&#xf2;" horiz-adv-x="1124" 
d="M562 -24q-146 0 -256.5 70.5t-172 194.5t-61.5 285q0 162 61.5 287t172 196t256.5 71q147 0 257 -71t171.5 -196t61.5 -287q0 -161 -61.5 -285t-171.5 -194.5t-257 -70.5zM562 130q150 0 234 108.5t84 287.5q0 181 -84.5 290.5t-233.5 109.5t-233.5 -109t-84.5 -291
q0 -180 84 -288t234 -108zM494 1192l-192 298h194l140 -298h-142z" />
    <glyph glyph-name="oacute" unicode="&#xf3;" horiz-adv-x="1124" 
d="M562 -24q-146 0 -256.5 70.5t-172 194.5t-61.5 285q0 162 61.5 287t172 196t256.5 71q147 0 257 -71t171.5 -196t61.5 -287q0 -161 -61.5 -285t-171.5 -194.5t-257 -70.5zM562 130q150 0 234 108.5t84 287.5q0 181 -84.5 290.5t-233.5 109.5t-233.5 -109t-84.5 -291
q0 -180 84 -288t234 -108zM487 1192l140 298h194l-192 -298h-142z" />
    <glyph glyph-name="ocircumflex" unicode="&#xf4;" horiz-adv-x="1124" 
d="M562 -24q-146 0 -256.5 70.5t-172 194.5t-61.5 285q0 162 61.5 287t172 196t256.5 71q147 0 257 -71t171.5 -196t61.5 -287q0 -161 -61.5 -285t-171.5 -194.5t-257 -70.5zM562 130q150 0 234 108.5t84 287.5q0 181 -84.5 290.5t-233.5 109.5t-233.5 -109t-84.5 -291
q0 -180 84 -288t234 -108zM418 1216h-170v1l230 273h166l232 -273v-1h-172l-142 176z" />
    <glyph glyph-name="otilde" unicode="&#xf5;" horiz-adv-x="1124" 
d="M562 -24q-146 0 -256.5 70.5t-172 194.5t-61.5 285q0 162 61.5 287t172 196t256.5 71q147 0 257 -71t171.5 -196t61.5 -287q0 -161 -61.5 -285t-171.5 -194.5t-257 -70.5zM562 130q150 0 234 108.5t84 287.5q0 181 -84.5 290.5t-233.5 109.5t-233.5 -109t-84.5 -291
q0 -180 84 -288t234 -108zM693 1259q-48 0 -94 20.5t-84 40.5t-63 20q-26 0 -38 -25t-14 -53h-123q3 88 41 146t117 58q51 0 93 -21t78 -42t69 -21q45 0 55 80h119q-3 -92 -43.5 -147.5t-112.5 -55.5z" />
    <glyph glyph-name="odieresis" unicode="&#xf6;" horiz-adv-x="1124" 
d="M562 -24q-146 0 -256.5 70.5t-172 194.5t-61.5 285q0 162 61.5 287t172 196t256.5 71q147 0 257 -71t171.5 -196t61.5 -287q0 -161 -61.5 -285t-171.5 -194.5t-257 -70.5zM562 130q150 0 234 108.5t84 287.5q0 181 -84.5 290.5t-233.5 109.5t-233.5 -109t-84.5 -291
q0 -180 84 -288t234 -108zM353 1262q-48 0 -82 34t-34 82t34 82t82 34t82 -34t34 -82t-34 -82t-82 -34zM771 1262q-48 0 -82 34t-34 82t34 82t82 34t82 -34t34 -82t-34 -82t-82 -34z" />
    <glyph glyph-name="divide" unicode="&#xf7;" horiz-adv-x="1286" 
d="M1108 664v-164h-930v164h930zM642 830q-54 -1 -92 37t-38 93q0 53 38 90.5t92 37.5q53 0 90.5 -37.5t37.5 -90.5q0 -55 -37.5 -93t-90.5 -37zM642 76q-54 0 -92 38t-38 92q0 53 38 90.5t92 37.5q53 0 90.5 -37.5t37.5 -90.5q0 -54 -37.5 -92t-90.5 -38z" />
    <glyph glyph-name="oslash" unicode="&#xf8;" horiz-adv-x="1124" 
d="M562 -24q-146 0 -256.5 70.5t-172 194.5t-61.5 285q0 162 61.5 287t172 196t256.5 71q147 0 257 -71t171.5 -196t61.5 -287q0 -161 -61.5 -285t-171.5 -194.5t-257 -70.5zM562 130q150 0 234 108.5t84 287.5q0 181 -84.5 290.5t-233.5 109.5t-233.5 -109t-84.5 -291
q0 -180 84 -288t234 -108zM153 -46l-106 92l924 1056l106 -92z" />
    <glyph glyph-name="ugrave" unicode="&#xf9;" horiz-adv-x="1120" 
d="M514 -20q-106 0 -194.5 46.5t-141 140t-52.5 233.5v656h170v-644q0 -137 66 -206.5t184 -69.5q116 0 197 71t81 231v618h170v-1056h-166v155q-55 -90 -134.5 -132.5t-179.5 -42.5zM492 1192l-192 298h194l140 -298h-142z" />
    <glyph glyph-name="uacute" unicode="&#xfa;" horiz-adv-x="1120" 
d="M514 -20q-106 0 -194.5 46.5t-141 140t-52.5 233.5v656h170v-644q0 -137 66 -206.5t184 -69.5q116 0 197 71t81 231v618h170v-1056h-166v155q-55 -90 -134.5 -132.5t-179.5 -42.5zM485 1192l140 298h194l-192 -298h-142z" />
    <glyph glyph-name="ucircumflex" unicode="&#xfb;" horiz-adv-x="1120" 
d="M514 -20q-106 0 -194.5 46.5t-141 140t-52.5 233.5v656h170v-644q0 -137 66 -206.5t184 -69.5q116 0 197 71t81 231v618h170v-1056h-166v155q-55 -90 -134.5 -132.5t-179.5 -42.5zM416 1216h-170v1l230 273h166l232 -273v-1h-172l-142 176z" />
    <glyph glyph-name="udieresis" unicode="&#xfc;" horiz-adv-x="1120" 
d="M514 -20q-106 0 -194.5 46.5t-141 140t-52.5 233.5v656h170v-644q0 -137 66 -206.5t184 -69.5q116 0 197 71t81 231v618h170v-1056h-166v155q-55 -90 -134.5 -132.5t-179.5 -42.5zM351 1262q-48 0 -82 34t-34 82t34 82t82 34t82 -34t34 -82t-34 -82t-82 -34zM769 1262
q-48 0 -82 34t-34 82t34 82t82 34t82 -34t34 -82t-34 -82t-82 -34z" />
    <glyph glyph-name="yacute" unicode="&#xfd;" horiz-adv-x="1048" 
d="M134 -418v150h104q94 0 143 127l58 150l-409 1047h184l228 -608q22 -59 43.5 -118.5t41.5 -118.5q21 59 42.5 118.5t43.5 118.5l224 608h181l-487 -1252q-41 -106 -117 -164t-176 -58h-104zM449 1192l140 298h194l-192 -298h-142z" />
    <glyph glyph-name="thorn" unicode="&#xfe;" horiz-adv-x="1158" 
d="M628 -20q-103 0 -188 44.5t-142 135.5h-2v-578h-170v1908h170v-590h2q51 89 139 132.5t191 43.5q138 0 241 -69t160 -192.5t57 -286.5q0 -162 -57 -285.5t-160 -193t-241 -69.5zM602 133q137 0 224.5 100.5t87.5 294.5t-87.5 295t-224.5 101q-147 0 -233.5 -108.5
t-86.5 -287.5t86.5 -287t233.5 -108z" />
    <glyph glyph-name="ydieresis" unicode="&#xff;" horiz-adv-x="1048" 
d="M134 -418v150h104q94 0 143 127l58 150l-409 1047h184l228 -608q22 -59 43.5 -118.5t41.5 -118.5q21 59 42.5 118.5t43.5 118.5l224 608h181l-487 -1252q-41 -106 -117 -164t-176 -58h-104zM315 1262q-48 0 -82 34t-34 82t34 82t82 34t82 -34t34 -82t-34 -82t-82 -34z
M733 1262q-48 0 -82 34t-34 82t34 82t82 34t82 -34t34 -82t-34 -82t-82 -34z" />
    <glyph glyph-name="Amacron" unicode="&#x100;" horiz-adv-x="1338" 
d="M20 0l550 1490h204l544 -1490h-192l-146 418h-622l-150 -418h-188zM415 578h510l-112 320q-28 79 -60.5 176.5t-80.5 246.5q-48 -149 -80.5 -246.5t-61.5 -176.5zM948 1850v-140h-552v140h552z" />
    <glyph glyph-name="amacron" unicode="&#x101;" horiz-adv-x="1060" 
d="M448 -16q-157 0 -262.5 81t-105.5 239q0 91 35.5 148t95 89.5t135 49.5t154.5 27q101 14 159 21t82.5 23t24.5 56v10q0 86 -61.5 142t-172.5 56q-110 0 -180.5 -53.5t-76.5 -132.5h-173q5 97 60 172.5t150 119.5t220 44q185 0 293.5 -95.5t108.5 -252.5v-728h-168v150h-4
q-19 -38 -56 -76.5t-99.5 -64t-158.5 -25.5zM472 136q104 0 169 37.5t95 97.5t30 129v132q-19 -18 -101 -32.5t-173 -27.5q-61 -8 -115.5 -27.5t-88.5 -55t-34 -95.5q0 -74 58.5 -116t159.5 -42zM800 1416v-140h-552v140h552z" />
    <glyph glyph-name="Abreve" unicode="&#x102;" horiz-adv-x="1338" 
d="M20 0l550 1490h204l544 -1490h-192l-146 418h-622l-150 -418h-188zM415 578h510l-112 320q-28 79 -60.5 176.5t-80.5 246.5q-48 -149 -80.5 -246.5t-61.5 -176.5zM672 1644q-80 0 -144.5 37.5t-102.5 101t-38 141.5h128q0 -69 44 -112.5t113 -43.5t113 43.5t44 112.5h128
q0 -78 -38 -141.5t-102.5 -101t-144.5 -37.5z" />
    <glyph glyph-name="abreve" unicode="&#x103;" horiz-adv-x="1060" 
d="M448 -16q-157 0 -262.5 81t-105.5 239q0 91 35.5 148t95 89.5t135 49.5t154.5 27q101 14 159 21t82.5 23t24.5 56v10q0 86 -61.5 142t-172.5 56q-110 0 -180.5 -53.5t-76.5 -132.5h-173q5 97 60 172.5t150 119.5t220 44q185 0 293.5 -95.5t108.5 -252.5v-728h-168v150h-4
q-19 -38 -56 -76.5t-99.5 -64t-158.5 -25.5zM472 136q104 0 169 37.5t95 97.5t30 129v132q-19 -18 -101 -32.5t-173 -27.5q-61 -8 -115.5 -27.5t-88.5 -55t-34 -95.5q0 -74 58.5 -116t159.5 -42zM524 1210q-80 0 -144.5 37.5t-102.5 101t-38 141.5h128q0 -69 44 -112.5
t113 -43.5t113 43.5t44 112.5h128q0 -78 -38 -141.5t-102.5 -101t-144.5 -37.5z" />
    <glyph glyph-name="Aogonek" unicode="&#x104;" horiz-adv-x="1338" 
d="M20 0l550 1490h204l544 -1490h-192l-146 418h-622l-150 -418h-188zM415 578h510l-112 320q-28 79 -60.5 176.5t-80.5 246.5q-48 -149 -80.5 -246.5t-61.5 -176.5zM1200 -418q-92 0 -146 47.5t-54 140.5q0 83 42.5 141t113.5 122l162 -33q-85 -78 -117 -120.5t-32 -81.5
q0 -70 87 -70h62v-146h-118z" />
    <glyph glyph-name="aogonek" unicode="&#x105;" horiz-adv-x="1060" 
d="M448 -16q-157 0 -262.5 81t-105.5 239q0 91 35.5 148t95 89.5t135 49.5t154.5 27q101 14 159 21t82.5 23t24.5 56v10q0 86 -61.5 142t-172.5 56q-110 0 -180.5 -53.5t-76.5 -132.5h-173q5 97 60 172.5t150 119.5t220 44q185 0 293.5 -95.5t108.5 -252.5v-728h-168v150h-4
q-19 -38 -56 -76.5t-99.5 -64t-158.5 -25.5zM472 136q104 0 169 37.5t95 97.5t30 129v132q-19 -18 -101 -32.5t-173 -27.5q-61 -8 -115.5 -27.5t-88.5 -55t-34 -95.5q0 -74 58.5 -116t159.5 -42zM816 -418q-92 0 -146 47.5t-54 140.5q0 75 38.5 131.5t111.5 114.5l168 -16
q-84 -81 -116.5 -122t-32.5 -80q0 -70 87 -70h62v-146h-118z" />
    <glyph glyph-name="Cacute" unicode="&#x106;" horiz-adv-x="1479" 
d="M779 -24q-206 0 -361 98.5t-241.5 272t-86.5 397.5q0 226 86 399.5t241.5 272t361.5 98.5q156 0 285 -61.5t215.5 -175t113.5 -269.5h-184q-36 163 -151.5 250.5t-278.5 87.5q-157 0 -271 -76.5t-176 -212t-62 -313.5q0 -177 62 -312t176 -211.5t271 -76.5q161 0 277 87
t154 249h183q-27 -155 -113 -268t-215.5 -174.5t-285.5 -61.5zM683 1626l140 298h194l-192 -298h-142z" />
    <glyph glyph-name="cacute" unicode="&#x107;" horiz-adv-x="1071" 
d="M562 -24q-146 0 -256.5 70.5t-172 194.5t-61.5 285q0 162 61.5 287t172 196t256.5 71q120 0 215 -47.5t155.5 -130.5t74.5 -190h-172q-19 93 -87.5 153.5t-185.5 60.5q-149 0 -233.5 -109t-84.5 -291q0 -180 84 -288t234 -108q119 0 182 58.5t88 155.5h175
q-14 -104 -74.5 -187.5t-156 -132t-214.5 -48.5zM487 1192l140 298h194l-192 -298h-142z" />
    <glyph glyph-name="Ccircumflex" unicode="&#x108;" horiz-adv-x="1479" 
d="M779 -24q-206 0 -361 98.5t-241.5 272t-86.5 397.5q0 226 86 399.5t241.5 272t361.5 98.5q156 0 285 -61.5t215.5 -175t113.5 -269.5h-184q-36 163 -151.5 250.5t-278.5 87.5q-157 0 -271 -76.5t-176 -212t-62 -313.5q0 -177 62 -312t176 -211.5t271 -76.5q161 0 277 87
t154 249h183q-27 -155 -113 -268t-215.5 -174.5t-285.5 -61.5zM614 1650h-170v1l230 273h166l232 -273v-1h-172l-142 176z" />
    <glyph glyph-name="ccircumflex" unicode="&#x109;" horiz-adv-x="1071" 
d="M562 -24q-146 0 -256.5 70.5t-172 194.5t-61.5 285q0 162 61.5 287t172 196t256.5 71q120 0 215 -47.5t155.5 -130.5t74.5 -190h-172q-19 93 -87.5 153.5t-185.5 60.5q-149 0 -233.5 -109t-84.5 -291q0 -180 84 -288t234 -108q119 0 182 58.5t88 155.5h175
q-14 -104 -74.5 -187.5t-156 -132t-214.5 -48.5zM418 1216h-170v1l230 273h166l232 -273v-1h-172l-142 176z" />
    <glyph glyph-name="Cdotaccent" unicode="&#x10a;" horiz-adv-x="1479" 
d="M779 -24q-206 0 -361 98.5t-241.5 272t-86.5 397.5q0 226 86 399.5t241.5 272t361.5 98.5q156 0 285 -61.5t215.5 -175t113.5 -269.5h-184q-36 163 -151.5 250.5t-278.5 87.5q-157 0 -271 -76.5t-176 -212t-62 -313.5q0 -177 62 -312t176 -211.5t271 -76.5q161 0 277 87
t154 249h183q-27 -155 -113 -268t-215.5 -174.5t-285.5 -61.5zM758 1696q-48 0 -82 34t-34 82t34 82t82 34t82 -34t34 -82t-34 -82t-82 -34z" />
    <glyph glyph-name="cdotaccent" unicode="&#x10b;" horiz-adv-x="1071" 
d="M562 -24q-146 0 -256.5 70.5t-172 194.5t-61.5 285q0 162 61.5 287t172 196t256.5 71q120 0 215 -47.5t155.5 -130.5t74.5 -190h-172q-19 93 -87.5 153.5t-185.5 60.5q-149 0 -233.5 -109t-84.5 -291q0 -180 84 -288t234 -108q119 0 182 58.5t88 155.5h175
q-14 -104 -74.5 -187.5t-156 -132t-214.5 -48.5zM562 1262q-48 0 -82 34t-34 82t34 82t82 34t82 -34t34 -82t-34 -82t-82 -34z" />
    <glyph glyph-name="Ccaron" unicode="&#x10c;" horiz-adv-x="1479" 
d="M779 -24q-206 0 -361 98.5t-241.5 272t-86.5 397.5q0 226 86 399.5t241.5 272t361.5 98.5q156 0 285 -61.5t215.5 -175t113.5 -269.5h-184q-36 163 -151.5 250.5t-278.5 87.5q-157 0 -271 -76.5t-176 -212t-62 -313.5q0 -177 62 -312t176 -211.5t271 -76.5q161 0 277 87
t154 249h183q-27 -155 -113 -268t-215.5 -174.5t-285.5 -61.5zM614 1924l144 -176l142 176h172v-1l-232 -273h-166l-230 273v1h170z" />
    <glyph glyph-name="ccaron" unicode="&#x10d;" horiz-adv-x="1071" 
d="M562 -24q-146 0 -256.5 70.5t-172 194.5t-61.5 285q0 162 61.5 287t172 196t256.5 71q120 0 215 -47.5t155.5 -130.5t74.5 -190h-172q-19 93 -87.5 153.5t-185.5 60.5q-149 0 -233.5 -109t-84.5 -291q0 -180 84 -288t234 -108q119 0 182 58.5t88 155.5h175
q-14 -104 -74.5 -187.5t-156 -132t-214.5 -48.5zM418 1490l144 -176l142 176h172v-1l-232 -273h-166l-230 273v1h170z" />
    <glyph glyph-name="Dcaron" unicode="&#x10e;" horiz-adv-x="1412" 
d="M608 0h-460v1490h480q217 0 372.5 -89t238.5 -255.5t83 -397.5q0 -233 -84 -400.5t-243.5 -257.5t-386.5 -90zM328 160h268q278 0 412 157.5t134 430.5q0 270 -131.5 426t-394.5 156h-288v-1170zM440 1924l144 -176l142 176h172v-1l-232 -273h-166l-230 273v1h170z" />
    <glyph glyph-name="dcaron" unicode="&#x10f;" horiz-adv-x="1358" 
d="M530 -20q-137 0 -240.5 69.5t-160.5 193t-57 285.5q0 163 57 286.5t160.5 192.5t240.5 69q103 0 191 -43.5t139 -132.5h2v590h170v-1490h-166v160h-2q-57 -91 -144 -135.5t-190 -44.5zM556 133q147 0 233.5 108t86.5 287t-86.5 287.5t-233.5 108.5q-137 0 -224.5 -101
t-87.5 -295t87.5 -294.5t224.5 -100.5zM1176 1182v378h176l-52 -378h-124z" />
    <glyph glyph-name="Dcroat" unicode="&#x110;" horiz-adv-x="1412" 
d="M608 0h-460v1490h480q217 0 372.5 -89t238.5 -255.5t83 -397.5q0 -233 -84 -400.5t-243.5 -257.5t-386.5 -90zM328 160h268q278 0 412 157.5t134 430.5q0 270 -131.5 426t-394.5 156h-288v-1170zM30 672v146h856v-146h-856z" />
    <glyph glyph-name="dcroat" unicode="&#x111;" horiz-adv-x="1158" 
d="M530 -20q-137 0 -240.5 69.5t-160.5 193t-57 285.5q0 163 57 286.5t160.5 192.5t240.5 69q103 0 191 -43.5t139 -132.5h2v590h170v-1490h-166v160h-2q-57 -91 -144 -135.5t-190 -44.5zM556 133q147 0 233.5 108t86.5 287t-86.5 287.5t-233.5 108.5q-137 0 -224.5 -101
t-87.5 -295t87.5 -294.5t224.5 -100.5zM542 1189v146h640v-146h-640z" />
    <glyph glyph-name="Emacron" unicode="&#x112;" horiz-adv-x="1187" 
d="M148 0v1490h969v-160h-789v-487h731v-160h-731v-523h789v-160h-969zM908 1850v-140h-552v140h552z" />
    <glyph glyph-name="emacron" unicode="&#x113;" horiz-adv-x="1098" 
d="M562 -24q-155 0 -264.5 71t-167.5 195.5t-58 283.5q0 161 61 286t169 196.5t248 71.5q147 0 255 -70t166.5 -195t58.5 -289v-47h-790q6 -155 89 -252t233 -97q113 0 184.5 52t95.5 134h170q-20 -101 -83 -177.5t-157.5 -119.5t-209.5 -43zM242 625h618q-14 139 -97 221
t-213 82t-212 -82t-96 -221zM826 1416v-140h-552v140h552z" />
    <glyph glyph-name="Ebreve" unicode="&#x114;" horiz-adv-x="1187" 
d="M148 0v1490h969v-160h-789v-487h731v-160h-731v-523h789v-160h-969zM632 1644q-80 0 -144.5 37.5t-102.5 101t-38 141.5h128q0 -69 44 -112.5t113 -43.5t113 43.5t44 112.5h128q0 -78 -38 -141.5t-102.5 -101t-144.5 -37.5z" />
    <glyph glyph-name="ebreve" unicode="&#x115;" horiz-adv-x="1098" 
d="M562 -24q-155 0 -264.5 71t-167.5 195.5t-58 283.5q0 161 61 286t169 196.5t248 71.5q147 0 255 -70t166.5 -195t58.5 -289v-47h-790q6 -155 89 -252t233 -97q113 0 184.5 52t95.5 134h170q-20 -101 -83 -177.5t-157.5 -119.5t-209.5 -43zM242 625h618q-14 139 -97 221
t-213 82t-212 -82t-96 -221zM550 1210q-80 0 -144.5 37.5t-102.5 101t-38 141.5h128q0 -69 44 -112.5t113 -43.5t113 43.5t44 112.5h128q0 -78 -38 -141.5t-102.5 -101t-144.5 -37.5z" />
    <glyph glyph-name="Edotaccent" unicode="&#x116;" horiz-adv-x="1187" 
d="M148 0v1490h969v-160h-789v-487h731v-160h-731v-523h789v-160h-969zM632 1696q-48 0 -82 34t-34 82t34 82t82 34t82 -34t34 -82t-34 -82t-82 -34z" />
    <glyph glyph-name="edotaccent" unicode="&#x117;" horiz-adv-x="1098" 
d="M562 -24q-155 0 -264.5 71t-167.5 195.5t-58 283.5q0 161 61 286t169 196.5t248 71.5q147 0 255 -70t166.5 -195t58.5 -289v-47h-790q6 -155 89 -252t233 -97q113 0 184.5 52t95.5 134h170q-20 -101 -83 -177.5t-157.5 -119.5t-209.5 -43zM242 625h618q-14 139 -97 221
t-213 82t-212 -82t-96 -221zM550 1262q-48 0 -82 34t-34 82t34 82t82 34t82 -34t34 -82t-34 -82t-82 -34z" />
    <glyph glyph-name="Eogonek" unicode="&#x118;" horiz-adv-x="1187" 
d="M148 0v1490h969v-160h-789v-487h731v-160h-731v-523h789v-160h-969zM999 -418q-92 0 -146 47.5t-54 140.5q0 83 50.5 150.5t171.5 136.5l96 -57q-85 -78 -117 -120.5t-32 -81.5q0 -70 87 -70h62v-146h-118z" />
    <glyph glyph-name="eogonek" unicode="&#x119;" horiz-adv-x="1098" 
d="M562 -24q-155 0 -264.5 71t-167.5 195.5t-58 283.5q0 161 61 286t169 196.5t248 71.5q147 0 255 -70t166.5 -195t58.5 -289v-47h-790q6 -155 89 -252t233 -97q113 0 184.5 52t95.5 134h170q-20 -101 -83 -177.5t-157.5 -119.5t-209.5 -43zM242 625h618q-14 139 -97 221
t-213 82t-212 -82t-96 -221zM793 -418q-216 0 -216 183q0 82 38.5 147.5t83.5 125.5l313 278q-13 -76 -55 -145.5t-91 -134t-84.5 -124t-35.5 -114.5q0 -33 21 -51.5t82 -18.5h62v-146h-118z" />
    <glyph glyph-name="Ecaron" unicode="&#x11a;" horiz-adv-x="1187" 
d="M148 0v1490h969v-160h-789v-487h731v-160h-731v-523h789v-160h-969zM488 1924l144 -176l142 176h172v-1l-232 -273h-166l-230 273v1h170z" />
    <glyph glyph-name="ecaron" unicode="&#x11b;" horiz-adv-x="1098" 
d="M562 -24q-155 0 -264.5 71t-167.5 195.5t-58 283.5q0 161 61 286t169 196.5t248 71.5q147 0 255 -70t166.5 -195t58.5 -289v-47h-790q6 -155 89 -252t233 -97q113 0 184.5 52t95.5 134h170q-20 -101 -83 -177.5t-157.5 -119.5t-209.5 -43zM242 625h618q-14 139 -97 221
t-213 82t-212 -82t-96 -221zM406 1490l144 -176l142 176h172v-1l-232 -273h-166l-230 273v1h170z" />
    <glyph glyph-name="Gcircumflex" unicode="&#x11c;" horiz-adv-x="1496" 
d="M771 -24q-198 0 -351.5 98.5t-241.5 272t-88 397.5q0 226 87.5 399.5t241.5 272t352 98.5q158 0 289 -64.5t218 -178.5t113 -263h-182q-23 100 -85 176t-152.5 119t-200.5 43q-149 0 -262 -76.5t-176 -212t-63 -313.5q0 -177 63 -312t176 -211.5t262 -76.5
q124 0 226 55.5t163 155t62 230.5h-390v160h568v-161q0 -174 -83.5 -311.5t-225.5 -217t-320 -79.5zM614 1650h-170v1l230 273h166l232 -273v-1h-172l-142 176z" />
    <glyph glyph-name="gcircumflex" unicode="&#x11d;" horiz-adv-x="1158" 
d="M568 -432q-178 0 -301 82t-143 238h174q23 -85 95.5 -127.5t174.5 -42.5q138 0 217 73.5t79 208.5v160h-1q-58 -92 -143.5 -136t-189.5 -44q-137 0 -240.5 69.5t-160.5 193t-57 285.5q0 163 57 286.5t160.5 192.5t240.5 69q103 0 191.5 -43.5t143.5 -141.5h1v165h166
v-1056q0 -156 -64.5 -251t-170.5 -138t-229 -43zM556 133q147 0 233.5 108t86.5 287t-86.5 287.5t-233.5 108.5q-137 0 -224.5 -101t-87.5 -295t87.5 -294.5t224.5 -100.5zM410 1216h-170v1l230 273h166l232 -273v-1h-172l-142 176z" />
    <glyph glyph-name="Gbreve" unicode="&#x11e;" horiz-adv-x="1496" 
d="M771 -24q-198 0 -351.5 98.5t-241.5 272t-88 397.5q0 226 87.5 399.5t241.5 272t352 98.5q158 0 289 -64.5t218 -178.5t113 -263h-182q-23 100 -85 176t-152.5 119t-200.5 43q-149 0 -262 -76.5t-176 -212t-63 -313.5q0 -177 63 -312t176 -211.5t262 -76.5
q124 0 226 55.5t163 155t62 230.5h-390v160h568v-161q0 -174 -83.5 -311.5t-225.5 -217t-320 -79.5zM758 1644q-80 0 -144.5 37.5t-102.5 101t-38 141.5h128q0 -69 44 -112.5t113 -43.5t113 43.5t44 112.5h128q0 -78 -38 -141.5t-102.5 -101t-144.5 -37.5z" />
    <glyph glyph-name="gbreve" unicode="&#x11f;" horiz-adv-x="1158" 
d="M568 -432q-178 0 -301 82t-143 238h174q23 -85 95.5 -127.5t174.5 -42.5q138 0 217 73.5t79 208.5v160h-1q-58 -92 -143.5 -136t-189.5 -44q-137 0 -240.5 69.5t-160.5 193t-57 285.5q0 163 57 286.5t160.5 192.5t240.5 69q103 0 191.5 -43.5t143.5 -141.5h1v165h166
v-1056q0 -156 -64.5 -251t-170.5 -138t-229 -43zM556 133q147 0 233.5 108t86.5 287t-86.5 287.5t-233.5 108.5q-137 0 -224.5 -101t-87.5 -295t87.5 -294.5t224.5 -100.5zM554 1210q-80 0 -144.5 37.5t-102.5 101t-38 141.5h128q0 -69 44 -112.5t113 -43.5t113 43.5
t44 112.5h128q0 -78 -38 -141.5t-102.5 -101t-144.5 -37.5z" />
    <glyph glyph-name="Gdotaccent" unicode="&#x120;" horiz-adv-x="1496" 
d="M771 -24q-198 0 -351.5 98.5t-241.5 272t-88 397.5q0 226 87.5 399.5t241.5 272t352 98.5q158 0 289 -64.5t218 -178.5t113 -263h-182q-23 100 -85 176t-152.5 119t-200.5 43q-149 0 -262 -76.5t-176 -212t-63 -313.5q0 -177 63 -312t176 -211.5t262 -76.5
q124 0 226 55.5t163 155t62 230.5h-390v160h568v-161q0 -174 -83.5 -311.5t-225.5 -217t-320 -79.5zM758 1696q-48 0 -82 34t-34 82t34 82t82 34t82 -34t34 -82t-34 -82t-82 -34z" />
    <glyph glyph-name="gdotaccent" unicode="&#x121;" horiz-adv-x="1158" 
d="M568 -432q-178 0 -301 82t-143 238h174q23 -85 95.5 -127.5t174.5 -42.5q138 0 217 73.5t79 208.5v160h-1q-58 -92 -143.5 -136t-189.5 -44q-137 0 -240.5 69.5t-160.5 193t-57 285.5q0 163 57 286.5t160.5 192.5t240.5 69q103 0 191.5 -43.5t143.5 -141.5h1v165h166
v-1056q0 -156 -64.5 -251t-170.5 -138t-229 -43zM556 133q147 0 233.5 108t86.5 287t-86.5 287.5t-233.5 108.5q-137 0 -224.5 -101t-87.5 -295t87.5 -294.5t224.5 -100.5zM554 1262q-48 0 -82 34t-34 82t34 82t82 34t82 -34t34 -82t-34 -82t-82 -34z" />
    <glyph glyph-name="uni0122" unicode="&#x122;" horiz-adv-x="1496" 
d="M771 -24q-198 0 -351.5 98.5t-241.5 272t-88 397.5q0 226 87.5 399.5t241.5 272t352 98.5q158 0 289 -64.5t218 -178.5t113 -263h-182q-23 100 -85 176t-152.5 119t-200.5 43q-149 0 -262 -76.5t-176 -212t-63 -313.5q0 -177 63 -312t176 -211.5t262 -76.5
q124 0 226 55.5t163 155t62 230.5h-390v160h568v-161q0 -174 -83.5 -311.5t-225.5 -217t-320 -79.5zM588 -494l80 376h176l-124 -376h-132z" />
    <glyph glyph-name="uni0123" unicode="&#x123;" horiz-adv-x="1158" 
d="M568 -432q-178 0 -301 82t-143 238h174q23 -85 95.5 -127.5t174.5 -42.5q138 0 217 73.5t79 208.5v160h-1q-58 -92 -143.5 -136t-189.5 -44q-137 0 -240.5 69.5t-160.5 193t-57 285.5q0 163 57 286.5t160.5 192.5t240.5 69q103 0 191.5 -43.5t143.5 -141.5h1v165h166
v-1056q0 -156 -64.5 -251t-170.5 -138t-229 -43zM556 133q147 0 233.5 108t86.5 287t-86.5 287.5t-233.5 108.5q-137 0 -224.5 -101t-87.5 -295t87.5 -294.5t224.5 -100.5zM475 1200v128q0 81 24 141t54.5 102.5t48.5 68.5l114 -90q-37 -65 -60.5 -110.5t-23.5 -119.5v-120
h-157z" />
    <glyph glyph-name="Hcircumflex" unicode="&#x124;" horiz-adv-x="1450" 
d="M148 0v1490h180v-647h794v647h180v-1490h-180v683h-794v-683h-180zM581 1650h-170v1l230 273h166l232 -273v-1h-172l-142 176z" />
    <glyph glyph-name="hcircumflex" unicode="&#x125;" horiz-adv-x="1120" 
d="M296 618v-618h-170v1490h170v-582q55 86 133.5 127t176.5 41q107 0 195 -46.5t140.5 -139.5t52.5 -234v-656h-170v644q0 137 -65.5 206.5t-184.5 69.5q-115 0 -196.5 -71t-81.5 -231zM67 1650h-170v1l230 273h166l232 -273v-1h-172l-142 176z" />
    <glyph glyph-name="Hbar" unicode="&#x126;" horiz-adv-x="1494" 
d="M1444 1176v-152h-120v-1024h-180v683h-794v-683h-180v1024h-120v152h120v314h180v-314h794v314h180v-314h120zM1144 1024h-794v-181h794v181z" />
    <glyph glyph-name="hbar" unicode="&#x127;" horiz-adv-x="1120" 
d="M296 618v-618h-170v1490h170v-582q55 86 133.5 127t176.5 41q107 0 195 -46.5t140.5 -139.5t52.5 -234v-656h-170v644q0 137 -65.5 206.5t-184.5 69.5q-115 0 -196.5 -71t-81.5 -231zM-24 1189v146h640v-146h-640z" />
    <glyph glyph-name="Itilde" unicode="&#x128;" horiz-adv-x="476" 
d="M328 1490v-1490h-180v1490h180zM369 1693q-48 0 -94 20.5t-84 40.5t-63 20q-26 0 -38 -25t-14 -53h-123q3 88 41 146t117 58q51 0 93 -21t78 -42t69 -21q45 0 55 80h119q-3 -92 -43.5 -147.5t-112.5 -55.5z" />
    <glyph glyph-name="itilde" unicode="&#x129;" horiz-adv-x="422" 
d="M126 0v1056h170v-1056h-170zM342 1259q-48 0 -94 20.5t-84 40.5t-63 20q-26 0 -38 -25t-14 -53h-123q3 88 41 146t117 58q51 0 93 -21t78 -42t69 -21q45 0 55 80h119q-3 -92 -43.5 -147.5t-112.5 -55.5z" />
    <glyph glyph-name="Imacron" unicode="&#x12a;" horiz-adv-x="476" 
d="M328 1490v-1490h-180v1490h180zM514 1850v-140h-552v140h552z" />
    <glyph glyph-name="imacron" unicode="&#x12b;" horiz-adv-x="422" 
d="M126 0v1056h170v-1056h-170zM487 1416v-140h-552v140h552z" />
    <glyph glyph-name="Ibreve" unicode="&#x12c;" horiz-adv-x="476" 
d="M328 1490v-1490h-180v1490h180zM238 1644q-80 0 -144.5 37.5t-102.5 101t-38 141.5h128q0 -69 44 -112.5t113 -43.5t113 43.5t44 112.5h128q0 -78 -38 -141.5t-102.5 -101t-144.5 -37.5z" />
    <glyph glyph-name="ibreve" unicode="&#x12d;" horiz-adv-x="422" 
d="M126 0v1056h170v-1056h-170zM211 1210q-80 0 -144.5 37.5t-102.5 101t-38 141.5h128q0 -69 44 -112.5t113 -43.5t113 43.5t44 112.5h128q0 -78 -38 -141.5t-102.5 -101t-144.5 -37.5z" />
    <glyph glyph-name="Iogonek" unicode="&#x12e;" horiz-adv-x="476" 
d="M328 1490v-1490h-180v1490h180zM210 -418q-92 0 -146 47.5t-54 140.5q0 83 50.5 150.5t171.5 136.5l96 -57q-85 -78 -117 -120.5t-32 -81.5q0 -70 87 -70h62v-146h-118z" />
    <glyph glyph-name="iogonek" unicode="&#x12f;" horiz-adv-x="422" 
d="M126 0v1056h170v-1056h-170zM178 -418q-92 0 -146 47.5t-54 140.5q0 83 50.5 150.5t171.5 136.5l96 -57q-85 -78 -117 -120.5t-32 -81.5q0 -70 87 -70h62v-146h-118zM211 1262q-48 0 -82 34t-34 82t34 82t82 34t82 -34t34 -82t-34 -82t-82 -34z" />
    <glyph glyph-name="Idotaccent" unicode="&#x130;" horiz-adv-x="476" 
d="M328 1490v-1490h-180v1490h180zM238 1696q-48 0 -82 34t-34 82t34 82t82 34t82 -34t34 -82t-34 -82t-82 -34z" />
    <glyph glyph-name="dotlessi" unicode="&#x131;" horiz-adv-x="422" 
d="M126 0v1056h170v-1056h-170z" />
    <glyph glyph-name="IJ" unicode="&#x132;" horiz-adv-x="1571" 
d="M328 1490v-1490h-180v1490h180zM991 -20q-194 0 -317 115t-123 329v80h180v-80q0 -139 71.5 -211.5t188.5 -72.5t188.5 72.5t71.5 211.5v1066h180v-1066q0 -214 -123 -329t-317 -115z" />
    <glyph glyph-name="ij" unicode="&#x133;" horiz-adv-x="844" 
d="M126 0v1056h170v-1056h-170zM211 1262q-48 0 -82 34t-34 82t34 82t82 34t82 -34t34 -82t-34 -82t-82 -34zM548 1056h170v-1204q0 -115 -72 -192.5t-206 -77.5h-74v150h58q65 0 94.5 35t29.5 111v1178zM633 1262q-48 0 -82 34t-34 82t34 82t82 34t82 -34t34 -82t-34 -82
t-82 -34z" />
    <glyph glyph-name="Jcircumflex" unicode="&#x134;" horiz-adv-x="1095" 
d="M515 -20q-194 0 -317 115t-123 329v80h180v-80q0 -139 71.5 -211.5t188.5 -72.5t188.5 72.5t71.5 211.5v1066h180v-1066q0 -214 -123 -329t-317 -115zM721 1650h-170v1l230 273h166l232 -273v-1h-172l-142 176z" />
    <glyph glyph-name="jcircumflex" unicode="&#x135;" horiz-adv-x="422" 
d="M126 1056h170v-1204q0 -115 -72 -192.5t-206 -77.5h-74v150h58q65 0 94.5 35t29.5 111v1178zM67 1216h-170v1l230 273h166l232 -273v-1h-172l-142 176z" />
    <glyph glyph-name="uni0136" unicode="&#x136;" horiz-adv-x="1299" 
d="M148 0v1490h180v-764q63 70 127 139t129 139l452 486h238l-605 -645l605 -845h-213l-516 722l-217 -234v-488h-180zM494 -494l80 376h176l-124 -376h-132z" />
    <glyph glyph-name="uni0137" unicode="&#x137;" horiz-adv-x="1039" 
d="M126 0v1490h170v-909h2l491 475h220l-465 -452l499 -604h-216l-413 497l-118 -107v-390h-170zM374 -494l80 376h176l-124 -376h-132z" />
    <glyph glyph-name="kgreenlandic" unicode="&#x138;" horiz-adv-x="997" 
d="M296 1056v-452h100l398 452h207l-479 -535l473 -521h-211l-411 450h-77v-450h-170v1056h170z" />
    <glyph glyph-name="Lacute" unicode="&#x139;" horiz-adv-x="1096" 
d="M148 0v1490h180v-1330h718v-160h-898zM163 1626l140 298h194l-192 -298h-142z" />
    <glyph glyph-name="lacute" unicode="&#x13a;" horiz-adv-x="422" 
d="M296 1490v-1490h-170v1490h170zM136 1626l140 298h194l-192 -298h-142z" />
    <glyph glyph-name="uni013B" unicode="&#x13b;" horiz-adv-x="1096" 
d="M148 0v1490h180v-1330h718v-160h-898zM414 -494l80 376h176l-124 -376h-132z" />
    <glyph glyph-name="uni013C" unicode="&#x13c;" horiz-adv-x="422" 
d="M296 1490v-1490h-170v1490h170zM40 -494l80 376h176l-124 -376h-132z" />
    <glyph glyph-name="Lcaron" unicode="&#x13d;" horiz-adv-x="1096" 
d="M148 0v1490h180v-1330h718v-160h-898zM582 1182v378h176l-52 -378h-124z" />
    <glyph glyph-name="lcaron" unicode="&#x13e;" horiz-adv-x="622" 
d="M296 1490v-1490h-170v1490h170zM440 1182v378h176l-52 -378h-124z" />
    <glyph glyph-name="Ldot" unicode="&#x13f;" horiz-adv-x="1088" 
d="M148 0v1490h180v-1330h718v-160h-898zM674 694q-48 0 -82 34t-34 82t34 82t82 34t82 -34t34 -82t-34 -82t-82 -34z" />
    <glyph glyph-name="ldot" unicode="&#x140;" horiz-adv-x="672" 
d="M296 1490v-1490h-170v1490h170zM545 620q-52 0 -88.5 36.5t-36.5 88.5q0 53 36.5 89t88.5 36q53 0 89 -36t36 -89q0 -52 -36 -88.5t-89 -36.5z" />
    <glyph glyph-name="Lslash" unicode="&#x141;" horiz-adv-x="1156" 
d="M208 0v1490h180v-1330h718v-160h-898zM26 465v183l736 425v-183z" />
    <glyph glyph-name="lslash" unicode="&#x142;" horiz-adv-x="422" 
d="M296 1490v-1490h-170v1490h170zM-46 612v155l512 297v-155z" />
    <glyph glyph-name="Nacute" unicode="&#x143;" horiz-adv-x="1454" 
d="M148 0v1490h207l614 -970q26 -42 72 -119t91 -156q-3 78 -4.5 162t-1.5 121v962h180v-1490h-209l-546 862q-31 48 -91.5 147.5t-140.5 233.5q5 -139 7 -234.5t2 -144.5v-864h-180zM652 1626l140 298h194l-192 -298h-142z" />
    <glyph glyph-name="nacute" unicode="&#x144;" horiz-adv-x="1120" 
d="M296 618v-618h-170v1056h166v-155q55 90 134.5 132.5t179.5 42.5q107 0 195 -46.5t140.5 -139.5t52.5 -234v-656h-170v644q0 137 -65.5 206.5t-184.5 69.5q-115 0 -196.5 -71t-81.5 -231zM485 1192l140 298h194l-192 -298h-142z" />
    <glyph glyph-name="uni0145" unicode="&#x145;" horiz-adv-x="1454" 
d="M148 0v1490h207l614 -970q26 -42 72 -119t91 -156q-3 78 -4.5 162t-1.5 121v962h180v-1490h-209l-546 862q-31 48 -91.5 147.5t-140.5 233.5q5 -139 7 -234.5t2 -144.5v-864h-180zM557 -494l80 376h176l-124 -376h-132z" />
    <glyph glyph-name="uni0146" unicode="&#x146;" horiz-adv-x="1120" 
d="M296 618v-618h-170v1056h166v-155q55 90 134.5 132.5t179.5 42.5q107 0 195 -46.5t140.5 -139.5t52.5 -234v-656h-170v644q0 137 -65.5 206.5t-184.5 69.5q-115 0 -196.5 -71t-81.5 -231zM390 -494l80 376h176l-124 -376h-132z" />
    <glyph glyph-name="Ncaron" unicode="&#x147;" horiz-adv-x="1454" 
d="M148 0v1490h207l614 -970q26 -42 72 -119t91 -156q-3 78 -4.5 162t-1.5 121v962h180v-1490h-209l-546 862q-31 48 -91.5 147.5t-140.5 233.5q5 -139 7 -234.5t2 -144.5v-864h-180zM583 1924l144 -176l142 176h172v-1l-232 -273h-166l-230 273v1h170z" />
    <glyph glyph-name="ncaron" unicode="&#x148;" horiz-adv-x="1120" 
d="M296 618v-618h-170v1056h166v-155q55 90 134.5 132.5t179.5 42.5q107 0 195 -46.5t140.5 -139.5t52.5 -234v-656h-170v644q0 137 -65.5 206.5t-184.5 69.5q-115 0 -196.5 -71t-81.5 -231zM416 1490l144 -176l142 176h172v-1l-232 -273h-166l-230 273v1h170z" />
    <glyph glyph-name="Eng" unicode="&#x14a;" horiz-adv-x="1454" 
d="M912 -418v156h100q64 0 89 23.5t25 76.5v162h-29l-546 862q-31 48 -91.5 147.5t-140.5 233.5q5 -139 7 -234.5t2 -144.5v-864h-180v1490h207l614 -970q26 -42 72 -119t91 -156q-3 78 -4.5 162t-1.5 121v962h180v-1660q0 -121 -72.5 -184.5t-211.5 -63.5h-110z" />
    <glyph glyph-name="eng" unicode="&#x14b;" horiz-adv-x="1120" 
d="M600 -418v156h110q64 0 89 23.5t25 76.5v806q0 137 -65.5 206.5t-184.5 69.5q-115 0 -196.5 -71t-81.5 -231v-618h-170v1056h166v-155q55 90 134.5 132.5t179.5 42.5q107 0 195 -46.5t140.5 -139.5t52.5 -234v-826q0 -121 -72.5 -184.5t-211.5 -63.5h-110z" />
    <glyph glyph-name="Omacron" unicode="&#x14c;" horiz-adv-x="1534" 
d="M767 -24q-197 0 -350 99t-240 272.5t-87 396.5q0 225 87 398.5t240 272.5t350 99q198 0 350.5 -99t239.5 -272.5t87 -398.5q0 -223 -87 -396.5t-239.5 -272.5t-350.5 -99zM767 144q135 0 248 69.5t181 203.5t68 327q0 194 -68 328.5t-181 204t-248 69.5t-248 -69.5
t-181 -204t-68 -328.5q0 -193 68 -327t181 -203.5t248 -69.5zM1043 1850v-140h-552v140h552z" />
    <glyph glyph-name="omacron" unicode="&#x14d;" horiz-adv-x="1124" 
d="M562 -24q-146 0 -256.5 70.5t-172 194.5t-61.5 285q0 162 61.5 287t172 196t256.5 71q147 0 257 -71t171.5 -196t61.5 -287q0 -161 -61.5 -285t-171.5 -194.5t-257 -70.5zM562 130q150 0 234 108.5t84 287.5q0 181 -84.5 290.5t-233.5 109.5t-233.5 -109t-84.5 -291
q0 -180 84 -288t234 -108zM838 1416v-140h-552v140h552z" />
    <glyph glyph-name="Obreve" unicode="&#x14e;" horiz-adv-x="1534" 
d="M767 -24q-197 0 -350 99t-240 272.5t-87 396.5q0 225 87 398.5t240 272.5t350 99q198 0 350.5 -99t239.5 -272.5t87 -398.5q0 -223 -87 -396.5t-239.5 -272.5t-350.5 -99zM767 144q135 0 248 69.5t181 203.5t68 327q0 194 -68 328.5t-181 204t-248 69.5t-248 -69.5
t-181 -204t-68 -328.5q0 -193 68 -327t181 -203.5t248 -69.5zM767 1644q-80 0 -144.5 37.5t-102.5 101t-38 141.5h128q0 -69 44 -112.5t113 -43.5t113 43.5t44 112.5h128q0 -78 -38 -141.5t-102.5 -101t-144.5 -37.5z" />
    <glyph glyph-name="obreve" unicode="&#x14f;" horiz-adv-x="1124" 
d="M562 -24q-146 0 -256.5 70.5t-172 194.5t-61.5 285q0 162 61.5 287t172 196t256.5 71q147 0 257 -71t171.5 -196t61.5 -287q0 -161 -61.5 -285t-171.5 -194.5t-257 -70.5zM562 130q150 0 234 108.5t84 287.5q0 181 -84.5 290.5t-233.5 109.5t-233.5 -109t-84.5 -291
q0 -180 84 -288t234 -108zM562 1210q-80 0 -144.5 37.5t-102.5 101t-38 141.5h128q0 -69 44 -112.5t113 -43.5t113 43.5t44 112.5h128q0 -78 -38 -141.5t-102.5 -101t-144.5 -37.5z" />
    <glyph glyph-name="Ohungarumlaut" unicode="&#x150;" horiz-adv-x="1534" 
d="M767 -24q-197 0 -350 99t-240 272.5t-87 396.5q0 225 87 398.5t240 272.5t350 99q198 0 350.5 -99t239.5 -272.5t87 -398.5q0 -223 -87 -396.5t-239.5 -272.5t-350.5 -99zM767 144q135 0 248 69.5t181 203.5t68 327q0 194 -68 328.5t-181 204t-248 69.5t-248 -69.5
t-181 -204t-68 -328.5q0 -193 68 -327t181 -203.5t248 -69.5zM982 1626h-146l168 298h194zM692 1626h-142l120 298h194z" />
    <glyph glyph-name="ohungarumlaut" unicode="&#x151;" horiz-adv-x="1124" 
d="M562 -24q-146 0 -256.5 70.5t-172 194.5t-61.5 285q0 162 61.5 287t172 196t256.5 71q147 0 257 -71t171.5 -196t61.5 -287q0 -161 -61.5 -285t-171.5 -194.5t-257 -70.5zM562 130q150 0 234 108.5t84 287.5q0 181 -84.5 290.5t-233.5 109.5t-233.5 -109t-84.5 -291
q0 -180 84 -288t234 -108zM777 1192h-146l168 298h194zM487 1192h-142l120 298h194z" />
    <glyph glyph-name="OE" unicode="&#x152;" horiz-adv-x="2023" 
d="M800 0q-227 0 -385.5 90t-241.5 257.5t-83 400.5q0 231 82 397.5t236.5 255.5t371.5 89h1173v-160h-789v-487h731v-160h-731v-523h789v-160h-1153zM984 160v1170h-192q-262 0 -395 -156t-133 -426q0 -273 135.5 -430.5t412.5 -157.5h172z" />
    <glyph glyph-name="oe" unicode="&#x153;" horiz-adv-x="1909" 
d="M562 -24q-146 0 -256.5 70.5t-172 194.5t-61.5 285q0 162 61.5 287t172 196t256.5 71q147 0 257 -71t171.5 -196t61.5 -287q0 -161 -61.5 -285t-171.5 -194.5t-257 -70.5zM562 130q150 0 234 108.5t84 287.5q0 181 -84.5 290.5t-233.5 109.5t-233.5 -109t-84.5 -291
q0 -180 84 -288t234 -108zM1373 -24q-155 0 -264.5 71t-167.5 195.5t-58 283.5q0 161 61 286t169 196.5t248 71.5q147 0 255 -70t166.5 -195t58.5 -289v-47h-790q6 -155 89 -252t233 -97q113 0 184.5 52t95.5 134h170q-20 -101 -83 -177.5t-157.5 -119.5t-209.5 -43z
M1053 625h618q-14 139 -97 221t-213 82t-212 -82t-96 -221z" />
    <glyph glyph-name="Racute" unicode="&#x154;" horiz-adv-x="1295" 
d="M148 0v1490h553q233 0 369.5 -121.5t136.5 -330.5q0 -159 -85.5 -269t-231.5 -155l335 -614h-210l-314 585h-14h-359v-585h-180zM328 745h369q155 0 243.5 78.5t88.5 214.5t-89.5 214t-244.5 78h-367v-585zM567 1626l140 298h194l-192 -298h-142z" />
    <glyph glyph-name="racute" unicode="&#x155;" horiz-adv-x="660" 
d="M126 0v1056h162v-166h4q29 82 92 132t162 50q23 0 42.5 -2t29.5 -4v-170q-10 3 -38.5 7.5t-65.5 4.5q-88 0 -153 -62t-65 -196v-650h-170zM292 1192l140 298h194l-192 -298h-142z" />
    <glyph glyph-name="uni0156" unicode="&#x156;" horiz-adv-x="1295" 
d="M148 0v1490h553q233 0 369.5 -121.5t136.5 -330.5q0 -159 -85.5 -269t-231.5 -155l335 -614h-210l-314 585h-14h-359v-585h-180zM328 745h369q155 0 243.5 78.5t88.5 214.5t-89.5 214t-244.5 78h-367v-585zM481 -494l80 376h176l-124 -376h-132z" />
    <glyph glyph-name="uni0157" unicode="&#x157;" horiz-adv-x="660" 
d="M126 0v1056h162v-166h4q29 82 92 132t162 50q23 0 42.5 -2t29.5 -4v-170q-10 3 -38.5 7.5t-65.5 4.5q-88 0 -153 -62t-65 -196v-650h-170zM40 -494l80 376h176l-124 -376h-132z" />
    <glyph glyph-name="Rcaron" unicode="&#x158;" horiz-adv-x="1295" 
d="M148 0v1490h553q233 0 369.5 -121.5t136.5 -330.5q0 -159 -85.5 -269t-231.5 -155l335 -614h-210l-314 585h-14h-359v-585h-180zM328 745h369q155 0 243.5 78.5t88.5 214.5t-89.5 214t-244.5 78h-367v-585zM498 1924l144 -176l142 176h172v-1l-232 -273h-166l-230 273v1
h170z" />
    <glyph glyph-name="rcaron" unicode="&#x159;" horiz-adv-x="660" 
d="M126 0v1056h162v-166h4q29 82 92 132t162 50q23 0 42.5 -2t29.5 -4v-170q-10 3 -38.5 7.5t-65.5 4.5q-88 0 -153 -62t-65 -196v-650h-170zM223 1490l144 -176l142 176h172v-1l-232 -273h-166l-230 273v1h170z" />
    <glyph glyph-name="Sacute" unicode="&#x15a;" horiz-adv-x="1258" 
d="M640 -24q-172 0 -298 61.5t-195 174.5t-69 268h184q0 -160 99.5 -250t278.5 -90q163 0 261.5 71t98.5 191q0 93 -67 151t-228 98l-167 41q-228 56 -329 150t-101 246q0 129 63.5 224.5t179.5 148.5t271 53q233 0 371.5 -124.5t144.5 -339.5h-178q-8 140 -100 219.5
t-244 79.5q-145 0 -237.5 -70.5t-92.5 -181.5q0 -87 68.5 -141.5t230.5 -95.5l169 -42q218 -54 322 -153t104 -255q0 -129 -67.5 -227t-189 -152.5t-283.5 -54.5zM549 1626l140 298h194l-192 -298h-142z" />
    <glyph glyph-name="sacute" unicode="&#x15b;" horiz-adv-x="972" 
d="M494 -24q-113 0 -205 37t-149 112.5t-64 190.5h168q18 -194 246 -194q110 0 173.5 46t63.5 116q0 60 -44 96t-115 52l-170 40q-298 70 -298 300q0 90 48.5 159.5t135 109t199.5 39.5q110 0 197.5 -41.5t139 -117.5t54.5 -181h-166q-1 84 -62 139t-163 55q-97 0 -155 -47
t-58 -115q0 -60 44 -96.5t120 -54.5l170 -40q152 -36 223 -107.5t71 -185.5q0 -98 -53 -168t-144.5 -107t-206.5 -37zM412 1192l140 298h194l-192 -298h-142z" />
    <glyph glyph-name="Scircumflex" unicode="&#x15c;" horiz-adv-x="1258" 
d="M640 -24q-172 0 -298 61.5t-195 174.5t-69 268h184q0 -160 99.5 -250t278.5 -90q163 0 261.5 71t98.5 191q0 93 -67 151t-228 98l-167 41q-228 56 -329 150t-101 246q0 129 63.5 224.5t179.5 148.5t271 53q233 0 371.5 -124.5t144.5 -339.5h-178q-8 140 -100 219.5
t-244 79.5q-145 0 -237.5 -70.5t-92.5 -181.5q0 -87 68.5 -141.5t230.5 -95.5l169 -42q218 -54 322 -153t104 -255q0 -129 -67.5 -227t-189 -152.5t-283.5 -54.5zM480 1650h-170v1l230 273h166l232 -273v-1h-172l-142 176z" />
    <glyph glyph-name="scircumflex" unicode="&#x15d;" horiz-adv-x="972" 
d="M494 -24q-113 0 -205 37t-149 112.5t-64 190.5h168q18 -194 246 -194q110 0 173.5 46t63.5 116q0 60 -44 96t-115 52l-170 40q-298 70 -298 300q0 90 48.5 159.5t135 109t199.5 39.5q110 0 197.5 -41.5t139 -117.5t54.5 -181h-166q-1 84 -62 139t-163 55q-97 0 -155 -47
t-58 -115q0 -60 44 -96.5t120 -54.5l170 -40q152 -36 223 -107.5t71 -185.5q0 -98 -53 -168t-144.5 -107t-206.5 -37zM343 1216h-170v1l230 273h166l232 -273v-1h-172l-142 176z" />
    <glyph glyph-name="Scedilla" unicode="&#x15e;" horiz-adv-x="1258" 
d="M640 -24q-172 0 -298 61.5t-195 174.5t-69 268h184q0 -160 99.5 -250t278.5 -90q163 0 261.5 71t98.5 191q0 93 -67 151t-228 98l-167 41q-228 56 -329 150t-101 246q0 129 63.5 224.5t179.5 148.5t271 53q233 0 371.5 -124.5t144.5 -339.5h-178q-8 140 -100 219.5
t-244 79.5q-145 0 -237.5 -70.5t-92.5 -181.5q0 -87 68.5 -141.5t230.5 -95.5l169 -42q218 -54 322 -153t104 -255q0 -129 -67.5 -227t-189 -152.5t-283.5 -54.5zM522 -418v104h117q99 0 99 66t-99 66h-81l30 230h93v-134q86 -4 137 -47.5t51 -114.5q0 -88 -63 -129
t-167 -41h-117z" />
    <glyph glyph-name="scedilla" unicode="&#x15f;" horiz-adv-x="972" 
d="M494 -24q-113 0 -205 37t-149 112.5t-64 190.5h168q18 -194 246 -194q110 0 173.5 46t63.5 116q0 60 -44 96t-115 52l-170 40q-298 70 -298 300q0 90 48.5 159.5t135 109t199.5 39.5q110 0 197.5 -41.5t139 -117.5t54.5 -181h-166q-1 84 -62 139t-163 55q-97 0 -155 -47
t-58 -115q0 -60 44 -96.5t120 -54.5l170 -40q152 -36 223 -107.5t71 -185.5q0 -98 -53 -168t-144.5 -107t-206.5 -37zM383 -418v104h117q99 0 99 66t-99 66h-81l30 230h93v-134q86 -4 137 -47.5t51 -114.5q0 -88 -63 -129t-167 -41h-117z" />
    <glyph glyph-name="Scaron" unicode="&#x160;" horiz-adv-x="1258" 
d="M640 -24q-172 0 -298 61.5t-195 174.5t-69 268h184q0 -160 99.5 -250t278.5 -90q163 0 261.5 71t98.5 191q0 93 -67 151t-228 98l-167 41q-228 56 -329 150t-101 246q0 129 63.5 224.5t179.5 148.5t271 53q233 0 371.5 -124.5t144.5 -339.5h-178q-8 140 -100 219.5
t-244 79.5q-145 0 -237.5 -70.5t-92.5 -181.5q0 -87 68.5 -141.5t230.5 -95.5l169 -42q218 -54 322 -153t104 -255q0 -129 -67.5 -227t-189 -152.5t-283.5 -54.5zM480 1924l144 -176l142 176h172v-1l-232 -273h-166l-230 273v1h170z" />
    <glyph glyph-name="scaron" unicode="&#x161;" horiz-adv-x="972" 
d="M494 -24q-113 0 -205 37t-149 112.5t-64 190.5h168q18 -194 246 -194q110 0 173.5 46t63.5 116q0 60 -44 96t-115 52l-170 40q-298 70 -298 300q0 90 48.5 159.5t135 109t199.5 39.5q110 0 197.5 -41.5t139 -117.5t54.5 -181h-166q-1 84 -62 139t-163 55q-97 0 -155 -47
t-58 -115q0 -60 44 -96.5t120 -54.5l170 -40q152 -36 223 -107.5t71 -185.5q0 -98 -53 -168t-144.5 -107t-206.5 -37zM343 1490l144 -176l142 176h172v-1l-232 -273h-166l-230 273v1h170z" />
    <glyph glyph-name="uni021A" unicode="&#x162;" horiz-adv-x="1250" 
d="M50 1330v160h1150v-160h-484v-1330h-180v1330h-486zM516 -418v104h117q99 0 99 66t-99 66h-81l30 230h93v-134q86 -4 137 -47.5t51 -114.5q0 -88 -63 -129t-167 -41h-117z" />
    <glyph glyph-name="uni0163" unicode="&#x163;" horiz-adv-x="637" 
d="M587 1056v-146h-214v-654q0 -61 25.5 -85.5t90.5 -24.5h98v-146h-114q-270 0 -270 238v672h-188v146h188v288h170v-288h214zM290 -418v104h117q99 0 99 66t-99 66h-81l30 230h93v-134q86 -4 137 -47.5t51 -114.5q0 -88 -63 -129t-167 -41h-117z" />
    <glyph glyph-name="Tcaron" unicode="&#x164;" horiz-adv-x="1250" 
d="M50 1330v160h1150v-160h-484v-1330h-180v1330h-486zM482 1924l144 -176l142 176h172v-1l-232 -273h-166l-230 273v1h170z" />
    <glyph glyph-name="tcaron" unicode="&#x165;" horiz-adv-x="737" 
d="M587 1056v-146h-214v-654q0 -61 25.5 -85.5t90.5 -24.5h98v-146h-114q-270 0 -270 238v672h-188v146h188v288h170v-288h214zM499 1182v378h176l-52 -378h-124z" />
    <glyph glyph-name="Tbar" unicode="&#x166;" horiz-adv-x="1250" 
d="M50 1330v160h1150v-160h-484v-1330h-180v1330h-486zM222 688v160h808v-160h-808z" />
    <glyph glyph-name="tbar" unicode="&#x167;" horiz-adv-x="637" 
d="M587 745v-146h-214v-343q0 -61 25.5 -85.5t90.5 -24.5h98v-146h-114q-270 0 -270 238v361h-188v146h188v165h-188v146h188v288h170v-288h214v-146h-214v-165h214z" />
    <glyph glyph-name="Utilde" unicode="&#x168;" horiz-adv-x="1440" 
d="M720 -24q-175 0 -305.5 69t-202.5 188.5t-72 272.5v984h180v-970q0 -109 48 -194t138 -133.5t214 -48.5q125 0 214.5 48.5t137.5 133.5t48 194v970h180v-984q0 -153 -72 -272.5t-202 -188.5t-306 -69zM851 1693q-48 0 -94 20.5t-84 40.5t-63 20q-26 0 -38 -25t-14 -53
h-123q3 88 41 146t117 58q51 0 93 -21t78 -42t69 -21q45 0 55 80h119q-3 -92 -43.5 -147.5t-112.5 -55.5z" />
    <glyph glyph-name="utilde" unicode="&#x169;" horiz-adv-x="1120" 
d="M514 -20q-106 0 -194.5 46.5t-141 140t-52.5 233.5v656h170v-644q0 -137 66 -206.5t184 -69.5q116 0 197 71t81 231v618h170v-1056h-166v155q-55 -90 -134.5 -132.5t-179.5 -42.5zM691 1259q-48 0 -94 20.5t-84 40.5t-63 20q-26 0 -38 -25t-14 -53h-123q3 88 41 146
t117 58q51 0 93 -21t78 -42t69 -21q45 0 55 80h119q-3 -92 -43.5 -147.5t-112.5 -55.5z" />
    <glyph glyph-name="Umacron" unicode="&#x16a;" horiz-adv-x="1440" 
d="M720 -24q-175 0 -305.5 69t-202.5 188.5t-72 272.5v984h180v-970q0 -109 48 -194t138 -133.5t214 -48.5q125 0 214.5 48.5t137.5 133.5t48 194v970h180v-984q0 -153 -72 -272.5t-202 -188.5t-306 -69zM996 1850v-140h-552v140h552z" />
    <glyph glyph-name="umacron" unicode="&#x16b;" horiz-adv-x="1120" 
d="M514 -20q-106 0 -194.5 46.5t-141 140t-52.5 233.5v656h170v-644q0 -137 66 -206.5t184 -69.5q116 0 197 71t81 231v618h170v-1056h-166v155q-55 -90 -134.5 -132.5t-179.5 -42.5zM836 1416v-140h-552v140h552z" />
    <glyph glyph-name="Ubreve" unicode="&#x16c;" horiz-adv-x="1440" 
d="M720 -24q-175 0 -305.5 69t-202.5 188.5t-72 272.5v984h180v-970q0 -109 48 -194t138 -133.5t214 -48.5q125 0 214.5 48.5t137.5 133.5t48 194v970h180v-984q0 -153 -72 -272.5t-202 -188.5t-306 -69zM720 1644q-80 0 -144.5 37.5t-102.5 101t-38 141.5h128
q0 -69 44 -112.5t113 -43.5t113 43.5t44 112.5h128q0 -78 -38 -141.5t-102.5 -101t-144.5 -37.5z" />
    <glyph glyph-name="ubreve" unicode="&#x16d;" horiz-adv-x="1120" 
d="M514 -20q-106 0 -194.5 46.5t-141 140t-52.5 233.5v656h170v-644q0 -137 66 -206.5t184 -69.5q116 0 197 71t81 231v618h170v-1056h-166v155q-55 -90 -134.5 -132.5t-179.5 -42.5zM560 1210q-80 0 -144.5 37.5t-102.5 101t-38 141.5h128q0 -69 44 -112.5t113 -43.5
t113 43.5t44 112.5h128q0 -78 -38 -141.5t-102.5 -101t-144.5 -37.5z" />
    <glyph glyph-name="Uring" unicode="&#x16e;" horiz-adv-x="1440" 
d="M720 -24q-175 0 -305.5 69t-202.5 188.5t-72 272.5v984h180v-970q0 -109 48 -194t138 -133.5t214 -48.5q125 0 214.5 48.5t137.5 133.5t48 194v970h180v-984q0 -153 -72 -272.5t-202 -188.5t-306 -69zM720 1580q-67 0 -122 31.5t-87.5 84t-32.5 116.5t32.5 116.5t87.5 84
t122 31.5t122 -31.5t87.5 -84t32.5 -116.5t-32.5 -116.5t-87.5 -84t-122 -31.5zM720 1700q47 0 79.5 33t32.5 79q0 47 -32.5 79.5t-79.5 32.5q-46 0 -79 -32.5t-33 -79.5q0 -46 33 -79t79 -33z" />
    <glyph glyph-name="uring" unicode="&#x16f;" horiz-adv-x="1120" 
d="M514 -20q-106 0 -194.5 46.5t-141 140t-52.5 233.5v656h170v-644q0 -137 66 -206.5t184 -69.5q116 0 197 71t81 231v618h170v-1056h-166v155q-55 -90 -134.5 -132.5t-179.5 -42.5zM560 1146q-67 0 -122 31.5t-87.5 84t-32.5 116.5t32.5 116.5t87.5 84t122 31.5t122 -31.5
t87.5 -84t32.5 -116.5t-32.5 -116.5t-87.5 -84t-122 -31.5zM560 1266q47 0 79.5 33t32.5 79q0 47 -32.5 79.5t-79.5 32.5q-46 0 -79 -32.5t-33 -79.5q0 -46 33 -79t79 -33z" />
    <glyph glyph-name="Uhungarumlaut" unicode="&#x170;" horiz-adv-x="1440" 
d="M720 -24q-175 0 -305.5 69t-202.5 188.5t-72 272.5v984h180v-970q0 -109 48 -194t138 -133.5t214 -48.5q125 0 214.5 48.5t137.5 133.5t48 194v970h180v-984q0 -153 -72 -272.5t-202 -188.5t-306 -69zM935 1626h-146l168 298h194zM645 1626h-142l120 298h194z" />
    <glyph glyph-name="uhungarumlaut" unicode="&#x171;" horiz-adv-x="1120" 
d="M514 -20q-106 0 -194.5 46.5t-141 140t-52.5 233.5v656h170v-644q0 -137 66 -206.5t184 -69.5q116 0 197 71t81 231v618h170v-1056h-166v155q-55 -90 -134.5 -132.5t-179.5 -42.5zM775 1192h-146l168 298h194zM485 1192h-142l120 298h194z" />
    <glyph glyph-name="Uogonek" unicode="&#x172;" horiz-adv-x="1440" 
d="M720 -24q-175 0 -305.5 69t-202.5 188.5t-72 272.5v984h180v-970q0 -109 48 -194t138 -133.5t214 -48.5q125 0 214.5 48.5t137.5 133.5t48 194v970h180v-984q0 -153 -72 -272.5t-202 -188.5t-306 -69zM782 -418q-92 0 -150 47.5t-58 140.5q0 82 47 133.5t121.5 89.5
t157.5 76.5t157.5 91.5t121.5 135.5t47 209.5h74q0 -124 -39.5 -213.5t-102 -152t-133 -108t-133 -82t-102 -72t-39.5 -80.5q0 -70 87 -70h62v-146h-118z" />
    <glyph glyph-name="uogonek" unicode="&#x173;" horiz-adv-x="1120" 
d="M514 -20q-106 0 -194.5 46.5t-141 140t-52.5 233.5v656h170v-644q0 -137 66 -206.5t184 -69.5q116 0 197 71t81 231v618h170v-1056h-166v155q-55 -90 -134.5 -132.5t-179.5 -42.5zM876 -418q-92 0 -146 47.5t-54 140.5q0 83 50.5 150.5t171.5 136.5l96 -57
q-85 -78 -117 -120.5t-32 -81.5q0 -70 87 -70h62v-146h-118z" />
    <glyph glyph-name="Wcircumflex" unicode="&#x174;" horiz-adv-x="1944" 
d="M426 0l-406 1490h182l241 -930q49 -190 89 -381q19 95 42 190.5t48 190.5l246 930h208l244 -930q25 -94 47.5 -187.5t43.5 -187.5q20 94 42.5 187.5t46.5 187.5l240 930h184l-408 -1490h-210l-261 960q-21 77 -39 155t-35 155q-16 -77 -34 -155t-39 -155l-260 -960h-212z
M828 1650h-170v1l230 273h166l232 -273v-1h-172l-142 176z" />
    <glyph glyph-name="wcircumflex" unicode="&#x175;" horiz-adv-x="1540" 
d="M358 0l-328 1056h178l133 -464q28 -96 53.5 -196t51.5 -198q26 98 52 198t54 196l134 464h168l132 -464q27 -95 52.5 -194t51.5 -195q26 96 52 195t54 194l136 464h178l-328 -1056h-178l-139 480q-25 87 -48 177.5t-47 179.5q-23 -89 -47 -179.5t-49 -177.5l-142 -480
h-174zM626 1216h-170v1l230 273h166l232 -273v-1h-172l-142 176z" />
    <glyph glyph-name="Ycircumflex" unicode="&#x176;" horiz-adv-x="1316" 
d="M568 0v614l-548 876h208l299 -482q35 -55 67.5 -110.5t64.5 -110.5q32 55 65 110.5t67 110.5l298 482h207l-548 -876v-614h-180zM514 1650h-170v1l230 273h166l232 -273v-1h-172l-142 176z" />
    <glyph glyph-name="ycircumflex" unicode="&#x177;" horiz-adv-x="1048" 
d="M134 -418v150h104q94 0 143 127l58 150l-409 1047h184l228 -608q22 -59 43.5 -118.5t41.5 -118.5q21 59 42.5 118.5t43.5 118.5l224 608h181l-487 -1252q-41 -106 -117 -164t-176 -58h-104zM380 1216h-170v1l230 273h166l232 -273v-1h-172l-142 176z" />
    <glyph glyph-name="Ydieresis" unicode="&#x178;" horiz-adv-x="1316" 
d="M568 0v614l-548 876h208l299 -482q35 -55 67.5 -110.5t64.5 -110.5q32 55 65 110.5t67 110.5l298 482h207l-548 -876v-614h-180zM449 1696q-48 0 -82 34t-34 82t34 82t82 34t82 -34t34 -82t-34 -82t-82 -34zM867 1696q-48 0 -82 34t-34 82t34 82t82 34t82 -34t34 -82
t-34 -82t-82 -34z" />
    <glyph glyph-name="Zacute" unicode="&#x179;" horiz-adv-x="1256" 
d="M58 0v152l779 1001q34 44 69.5 88.5t72.5 88.5h-889v160h1100v-152l-762 -979q-78 -101 -159 -199h929v-160h-1140zM553 1626l140 298h194l-192 -298h-142z" />
    <glyph glyph-name="zacute" unicode="&#x17a;" horiz-adv-x="980" 
d="M94 0v130l578 770v4h-578v152h788v-136l-572 -764v-4h576v-152h-792zM413 1192l140 298h194l-192 -298h-142z" />
    <glyph glyph-name="Zdotaccent" unicode="&#x17b;" horiz-adv-x="1256" 
d="M58 0v152l779 1001q34 44 69.5 88.5t72.5 88.5h-889v160h1100v-152l-762 -979q-78 -101 -159 -199h929v-160h-1140zM628 1696q-48 0 -82 34t-34 82t34 82t82 34t82 -34t34 -82t-34 -82t-82 -34z" />
    <glyph glyph-name="zdotaccent" unicode="&#x17c;" horiz-adv-x="980" 
d="M94 0v130l578 770v4h-578v152h788v-136l-572 -764v-4h576v-152h-792zM488 1262q-48 0 -82 34t-34 82t34 82t82 34t82 -34t34 -82t-34 -82t-82 -34z" />
    <glyph glyph-name="Zcaron" unicode="&#x17d;" horiz-adv-x="1256" 
d="M58 0v152l779 1001q34 44 69.5 88.5t72.5 88.5h-889v160h1100v-152l-762 -979q-78 -101 -159 -199h929v-160h-1140zM484 1924l144 -176l142 176h172v-1l-232 -273h-166l-230 273v1h170z" />
    <glyph glyph-name="zcaron" unicode="&#x17e;" horiz-adv-x="980" 
d="M94 0v130l578 770v4h-578v152h788v-136l-572 -764v-4h576v-152h-792zM344 1490l144 -176l142 176h172v-1l-232 -273h-166l-230 273v1h170z" />
    <glyph glyph-name="longs" unicode="&#x17f;" horiz-adv-x="511" 
d="M126 0v1244q0 113 75 179.5t203 66.5h106v-146h-90q-67 0 -95.5 -29t-28.5 -97v-1218h-170z" />
    <glyph glyph-name="bbar" unicode="&#x180;" horiz-adv-x="1158" 
d="M628 -20q-103 0 -190 44.5t-144 135.5h-2v-160h-166v1490h170v-590h2q51 89 139 132.5t191 43.5q138 0 241 -69t160 -192.5t57 -286.5q0 -162 -57 -285.5t-160 -193t-241 -69.5zM602 133q137 0 224.5 100.5t87.5 294.5t-87.5 295t-224.5 101q-147 0 -233.5 -108.5
t-86.5 -287.5t86.5 -287t233.5 -108zM-24 1189v146h640v-146h-640z" />
    <glyph glyph-name="uni0181" unicode="&#x181;" horiz-adv-x="1587" 
d="M44 1050v184q0 256 284 256h638q224 0 352 -107t128 -289q0 -128 -64 -206t-178 -116v-2q127 -21 215 -106.5t88 -245.5q0 -191 -132 -304.5t-401 -113.5h-546v1330h-100q-64 0 -91 -23.5t-27 -76.5v-180h-166zM608 160h366q169 0 259.5 63.5t90.5 187.5t-88 195.5
t-252 71.5h-376v-518zM608 836h365q139 0 217 66.5t78 180.5t-78 180.5t-217 66.5h-365v-494z" />
    <glyph glyph-name="uni0182" unicode="&#x182;" horiz-adv-x="1274" 
d="M148 0v1490h900v-160h-720v-466h378q241 0 368.5 -115t127.5 -309q0 -195 -127.5 -317.5t-368.5 -122.5h-558zM328 158h378q103 0 173.5 40.5t107.5 106t37 137.5q0 107 -82 184.5t-236 77.5h-378v-546z" />
    <glyph glyph-name="uni0183" unicode="&#x183;" horiz-adv-x="1158" 
d="M628 -20q-103 0 -190 44.5t-144 135.5h-2v-160h-166v1490h818v-152h-648v-438h2q51 89 139 132.5t191 43.5q138 0 241 -69t160 -192.5t57 -286.5q0 -162 -57 -285.5t-160 -193t-241 -69.5zM602 133q137 0 224.5 100.5t87.5 294.5t-87.5 295t-224.5 101
q-147 0 -233.5 -108.5t-86.5 -287.5t86.5 -287t233.5 -108z" />
    <glyph glyph-name="uni0184" unicode="&#x184;" horiz-adv-x="1400" 
d="M518 1490v-626h378q240 0 367 -115t127 -309q0 -195 -127 -317.5t-367 -122.5h-558v1330h-350v160h530zM518 704v-546h378q102 0 173 40.5t108 106t37 137.5q0 107 -82.5 184.5t-235.5 77.5h-378z" />
    <glyph glyph-name="uni0185" unicode="&#x185;" horiz-adv-x="1228" 
d="M206 1536h48v-46h138v-550h16q19 29 52.5 74.5t97 81.5t172.5 36q141 0 249 -70.5t168.5 -200t60.5 -305.5q0 -177 -60.5 -307.5t-167.5 -201.5t-246 -71q-108 0 -173 36.5t-99.5 83t-53.5 76.5h-22v-172h-164v1048h-16l-162 202v82zM1036 558q0 118 -36 213t-108.5 151
t-181.5 56q-157 0 -238.5 -116t-81.5 -304q0 -190 82.5 -309t237.5 -119q108 0 180.5 57.5t109 154.5t36.5 216z" />
    <glyph glyph-name="uni0186" unicode="&#x186;" horiz-adv-x="1479" 
d="M700 1514q206 0 361 -98.5t241.5 -272t86.5 -397.5q0 -225 -86 -399t-241 -272.5t-362 -98.5q-156 0 -285 61.5t-215 175.5t-114 269h184q36 -163 151.5 -250.5t278.5 -87.5q157 0 271 76.5t176 212t62 313.5q0 177 -62 312.5t-176 211.5t-271 76q-161 0 -277 -87
t-154 -249h-183q27 155 113.5 268t215.5 174.5t285 61.5z" />
    <glyph glyph-name="uni0187" unicode="&#x187;" horiz-adv-x="1479" 
d="M779 -24q-206 0 -361 98.5t-241.5 272t-86.5 397.5q0 226 86 399.5t241.5 272t361.5 98.5q134 0 249 -46t199 -131v91q0 122 72.5 185t211.5 63h100v-148h-100q-64 0 -91 -23.5t-27 -76.5v-420h-184q-36 163 -151.5 250.5t-278.5 87.5q-157 0 -271 -76.5t-176 -212
t-62 -313.5q0 -177 62 -312t176 -211.5t271 -76.5q161 0 277 87t154 249h183q-27 -155 -113 -268t-215.5 -174.5t-285.5 -61.5z" />
    <glyph glyph-name="uni0188" unicode="&#x188;" horiz-adv-x="1275" 
d="M562 -24q-146 0 -256.5 70.5t-172 194.5t-61.5 285q0 162 61.5 287t172 196t256.5 71q83 0 155.5 -24t128.5 -66l-1 24q-7 122 67 185t213 63h100v-148h-100q-64 0 -91 -23.5t-27 -76.5v-302h-172q-19 93 -87.5 153.5t-185.5 60.5q-149 0 -233.5 -109t-84.5 -291
q0 -180 84 -288t234 -108q119 0 182 58.5t88 155.5h175q-14 -104 -74.5 -187.5t-156 -132t-214.5 -48.5z" />
    <glyph glyph-name="Dbar1" unicode="&#x189;" horiz-adv-x="1481" 
d="M677 0h-460v1490h480q217 0 372.5 -89t238.5 -255.5t83 -397.5q0 -233 -84 -400.5t-243.5 -257.5t-386.5 -90zM397 160h268q278 0 412 157.5t134 430.5q0 270 -131.5 426t-394.5 156h-288v-1170zM15 665v160h808v-160h-808z" />
    <glyph glyph-name="uni018A" unicode="&#x18a;" horiz-adv-x="1692" 
d="M44 1050v184q0 256 284 256h580q217 0 372.5 -89t238.5 -255.5t83 -397.5q0 -233 -84 -400.5t-243.5 -257.5t-386.5 -90h-460v1330h-100q-64 0 -91 -23.5t-27 -76.5v-180h-166zM608 160h268q278 0 412 157.5t134 430.5q0 270 -131.5 426t-394.5 156h-288v-1170z" />
    <glyph glyph-name="uni018B" unicode="&#x18b;" horiz-adv-x="1228" 
d="M1140 0h-556q-239 0 -367.5 122.5t-128.5 317.5q0 194 128.5 312t367.5 118h350v418h-690v170h896v-1458zM934 166v536h-350q-154 -1 -221 -77t-67 -183q0 -72 29 -135t92.5 -102t166.5 -39h350z" />
    <glyph glyph-name="uni018C" unicode="&#x18c;" horiz-adv-x="1158" 
d="M530 -20q-137 0 -240.5 69.5t-160.5 193t-57 285.5q0 163 57 286.5t160.5 192.5t240.5 69q103 0 191 -43.5t139 -132.5h2v438h-648v152h818v-1490h-166v160h-2q-57 -91 -144 -135.5t-190 -44.5zM556 133q147 0 233.5 108t86.5 287t-86.5 287.5t-233.5 108.5
q-137 0 -224.5 -101t-87.5 -295t87.5 -294.5t224.5 -100.5z" />
    <glyph glyph-name="deltaturn" unicode="&#x18d;" horiz-adv-x="1042" 
d="M866 -376h-708v154h442q-12 17 -46.5 51.5t-76 72.5t-73.5 64q-161 139 -263.5 276.5t-102.5 307.5v20q0 166 57 292.5t165 198t260 71.5q153 0 262 -71.5t166.5 -198t57.5 -292.5v-20q1 -119 -52.5 -220.5t-154 -168.5t-243.5 -85q-16 -2 -20.5 -3t-15.5 -1
q88 -80 181.5 -162.5t164.5 -165.5v-120zM806 550v20q0 115 -29.5 206t-92.5 143.5t-164 52.5q-98 0 -161 -52.5t-93 -143.5t-30 -206v-20q0 -118 55 -206t125 -134q35 -12 88 -12q105 0 171.5 49.5t98.5 129.5t32 173z" />
    <glyph glyph-name="Eturn" unicode="&#x18e;" horiz-adv-x="1187" 
d="M1039 1490v-1490h-969v160h789v487h-731v160h731v523h-789v160h969z" />
    <glyph glyph-name="uni018F" unicode="&#x18f;" horiz-adv-x="1496" 
d="M733 -24q-133 0 -248.5 45.5t-203 128t-136.5 193.5t-49 241v161h1130q0 178 -63.5 313.5t-176 211.5t-261.5 76q-109 0 -200 -43t-153 -119t-85 -176h-182q26 149 113 263t218 178.5t289 64.5q199 0 352.5 -98.5t241 -272t87.5 -399.5q0 -224 -85.5 -397.5t-237.5 -272
t-350 -98.5zM1212 585h-938q1 -131 64 -230.5t167 -155t228 -55.5q188 0 314.5 120.5t164.5 320.5z" />
    <glyph glyph-name="Epsilon1" unicode="&#x190;" horiz-adv-x="1226" 
d="M606 -24q-148 0 -264.5 56.5t-184 157t-67.5 230.5q0 132 86 227.5t228 119.5v3q-124 38 -196 125.5t-72 200.5q0 122 63 216t172 148t246 54q141 0 249.5 -58t170 -161.5t61.5 -238.5h-174q0 141 -81.5 220.5t-224.5 79.5q-139 0 -222.5 -72t-83.5 -198
q0 -109 89 -175.5t233 -66.5h120v-160h-120q-164 0 -266 -72.5t-102 -191.5q0 -131 95.5 -208.5t248.5 -77.5q160 0 249 88t89 246h182q0 -145 -67 -256t-185 -173.5t-272 -62.5z" />
    <glyph glyph-name="uni0191" unicode="&#x191;" horiz-adv-x="1135" 
d="M-66 -418v156h100q64 0 89 23.5t25 76.5v1652h937v-160h-757v-487h697v-160h-697v-853q0 -121 -72.5 -184.5t-211.5 -63.5h-110z" />
    <glyph glyph-name="florin" unicode="&#x192;" horiz-adv-x="728" 
d="M632 1082v-148h-204v-1006q0 -169 -82.5 -257.5t-235.5 -88.5q-30 0 -57 2.5t-55 11.5l14 156q15 -6 50 -8t48 -2q59 0 98.5 49t39.5 137v1006h-182v148h182v110q-1 177 87 270.5t223 93.5q42 0 93 -7.5t79 -18.5l-44 -156q-15 4 -34.5 7t-45.5 3q-178 0 -178 -192v-110
h204z" />
    <glyph glyph-name="uni0193" unicode="&#x193;" horiz-adv-x="1496" 
d="M771 -24q-198 0 -351.5 98.5t-241.5 272t-88 397.5q0 226 87.5 399.5t241.5 272t352 98.5q136 0 252.5 -48.5t201.5 -133.5v96q0 122 72.5 185t211.5 63h100v-148h-100q-64 0 -91 -23.5t-27 -76.5v-420h-182q-23 100 -85 176t-152.5 119t-200.5 43q-149 0 -262 -76.5
t-176 -212t-63 -313.5q0 -177 63 -312t176 -211.5t262 -76.5q124 0 226 55.5t163 155t62 230.5h-390v160h568v-161q0 -174 -83.5 -311.5t-225.5 -217t-320 -79.5z" />
    <glyph glyph-name="Gamma1" unicode="&#x194;" horiz-adv-x="1228" 
d="M-12 1490h196l427 -1017l433 1017h196l-535 -1239q54 -123 94 -206t62.5 -140.5t22.5 -102.5q0 -118 -71.5 -181t-198.5 -63t-198.5 63t-71.5 181q0 48 21.5 106t61 142t94.5 210zM615 43q-41 -92 -65 -148t-24 -93q0 -34 24 -58t64 -24q39 0 63.5 25t24.5 57
q0 37 -22.5 91.5t-64.5 149.5z" />
    <glyph glyph-name="uni0195" unicode="&#x195;" horiz-adv-x="1864" 
d="M1212 -20q-103 0 -187.5 48.5t-134.5 150.5t-50 263v202q0 137 -70.5 206.5t-189.5 69.5q-77 0 -141.5 -31t-103.5 -97.5t-39 -173.5v-618h-170v1490h170v-604h4q35 77 112.5 133.5t202.5 56.5q107 0 196.5 -46.5t144 -139.5t54.5 -234v-214q0 -131 35.5 -197t85.5 -88.5
t93 -22.5q91 0 169 79.5t126.5 261.5t48.5 491v90h170v-90q0 -357 -69.5 -574t-188.5 -314.5t-268 -97.5z" />
    <glyph glyph-name="Iota" unicode="&#x196;" horiz-adv-x="470" 
d="M396 0q-146 0 -208 54.5t-62 183.5v1252h170v-1234q0 -67 21.5 -88.5t86.5 -21.5h41v-146h-49z" />
    <glyph glyph-name="uni0197" unicode="&#x197;" horiz-adv-x="636" 
d="M408 1490v-1490h-180v1490h180zM14 695v146h608v-146h-608z" />
    <glyph glyph-name="uni0198" unicode="&#x198;" horiz-adv-x="1312" 
d="M148 0v1490h180v-740h18l590 652q88 96 194.5 104.5t195.5 -54.5l-72 -134q-48 31 -98 23.5t-106 -67.5l-424 -456l624 -818h-218l-518 692l-186 -210v-482h-180z" />
    <glyph glyph-name="uni0199" unicode="&#x199;" horiz-adv-x="1039" 
d="M126 0v1242q0 122 74.5 185t213.5 63h100v-148h-100q-64 0 -91 -23.5t-27 -76.5v-661h2l491 475h220l-465 -452l499 -604h-216l-413 497l-118 -107v-390h-170z" />
    <glyph glyph-name="uni019A" unicode="&#x19a;" horiz-adv-x="422" 
d="M296 1490v-1490h-170v1490h170zM-110 695v146h640v-146h-640z" />
    <glyph glyph-name="lambdabar" unicode="&#x19b;" horiz-adv-x="1182" 
d="M220 1053l-48 139l180 70q-44 78 -120 78h-104v150h104q178 0 270 -171l191 74l51 -139l-186 -71l352 -906q49 -127 143 -127h104v-150h-104q-100 0 -176 58t-117 164l-147 386q-22 59 -43.5 118.5t-42.5 118.5q-20 -59 -41.5 -118.5t-43.5 -118.5l-228 -608h-184
l409 1047l-30 78z" />
    <glyph glyph-name="mcapturn" unicode="&#x19c;" horiz-adv-x="1786" 
d="M836 175q-49 -91 -134.5 -143t-213.5 -52q-107 0 -187 43.5t-123.5 144.5t-43.5 274v1048h200v-1048q1 -119 28 -183t69.5 -88.5t88.5 -24.5q121 0 187 60t90 157q-3 38 -3 79v1048h198v-1048q0 -119 28 -183t71.5 -88.5t90.5 -24.5q120 0 184 59.5t88 155.5v1129h198
v-1490h-188l-6 118q-49 -65 -125.5 -101.5t-182.5 -36.5q-109 0 -190 44t-124 151z" />
    <glyph glyph-name="Nhook" unicode="&#x19d;" horiz-adv-x="1454" 
d="M-66 -418v156h100q64 0 89 23.5t25 76.5v1652h207l614 -970q26 -42 72 -119t91 -156q-3 78 -4.5 162t-1.5 121v962h180v-1490h-209l-546 862q-31 48 -91.5 147.5t-140.5 233.5q5 -139 7 -234.5t2 -144.5v-1034q0 -121 -72.5 -184.5t-211.5 -63.5h-110z" />
    <glyph glyph-name="uni019E" unicode="&#x19e;" horiz-adv-x="1120" 
d="M296 618v-618h-170v1056h166v-155q55 90 134.5 132.5t179.5 42.5q107 0 195 -46.5t140.5 -139.5t52.5 -234v-1074h-170v1062q0 137 -65.5 206.5t-184.5 69.5q-115 0 -196.5 -71t-81.5 -231z" />
    <glyph glyph-name="Obar" unicode="&#x19f;" horiz-adv-x="1534" 
d="M767 -24q-197 0 -350 99t-240 272.5t-87 396.5q0 225 87 398.5t240 272.5t350 99q198 0 350.5 -99t239.5 -272.5t87 -398.5q0 -223 -87 -396.5t-239.5 -272.5t-350.5 -99zM1260 824v-160h-987q15 -168 84.5 -284t176.5 -176t233 -60q135 0 248 69.5t181 203.5t68 327
q0 194 -68 328.5t-181 204t-248 69.5q-126 0 -233 -60t-176.5 -176.5t-84.5 -285.5h987z" />
    <glyph glyph-name="Ohorn" unicode="&#x1a0;" horiz-adv-x="1534" 
d="M767 -24q-197 0 -350 99t-240 272.5t-87 396.5q0 225 87 398.5t240 272.5t350 99q61 0 104 -3.5t89.5 -8.5t115 -8.5t180.5 -3.5q18 0 18 18v222h170v-210q0 -170 -170 -170q-21 0 -39 0.5t-36 1.5q115 -102 180 -259t65 -349q0 -223 -87 -396.5t-239.5 -272.5
t-350.5 -99zM767 144q135 0 248 69.5t181 203.5t68 327q0 194 -68 328.5t-181 204t-248 69.5t-248 -69.5t-181 -204t-68 -328.5q0 -193 68 -327t181 -203.5t248 -69.5z" />
    <glyph glyph-name="ohorn" unicode="&#x1a1;" horiz-adv-x="1124" 
d="M562 -24q-146 0 -256.5 70.5t-172 194.5t-61.5 285q0 162 61.5 287t172 196t256.5 71q49 0 73 -2.5t46.5 -5.5t64.5 -5.5t127 -2.5q34 0 34 30v202h160v-190q0 -76 -40.5 -111t-129.5 -35h-15q81 -74 125.5 -185.5t44.5 -248.5q0 -161 -61.5 -285t-171.5 -194.5
t-257 -70.5zM562 130q150 0 234 108.5t84 287.5q0 181 -84.5 290.5t-233.5 109.5t-233.5 -109t-84.5 -291q0 -180 84 -288t234 -108z" />
    <glyph glyph-name="OI" unicode="&#x1a2;" horiz-adv-x="1704" 
d="M1556 1490v-1908h-200v1710l-142 -51v-1043q-67 -103 -202.5 -160.5t-299.5 -57.5q-195 0 -334.5 85t-213.5 242t-74 371v134q0 219 76.5 375t220 239.5t343.5 83.5q118 0 223 -34.5t180 -95.5l269 110h154zM296 806v-128q1 -252 108 -392t320 -140q89 0 166 26t126 78
v986q-43 49 -119.5 77.5t-168.5 28.5q-213 0 -322.5 -135t-109.5 -395v-6z" />
    <glyph glyph-name="uni01A3" unicode="&#x1a3;" horiz-adv-x="1228" 
d="M1190 1118v-1536h-198v1276l-122 -72v-650q-59 -69 -148 -112.5t-208 -43.5q-156 0 -262 75t-160 198.5t-54 266.5v42q0 159 53 288t161 205.5t272 76.5q97 0 176 -31t135 -85l197 102h158zM524 140q46 0 80.5 12t65.5 32v742q-29 21 -66.5 33.5t-85.5 12.5
q-109 0 -170 -58.5t-85.5 -152t-24.5 -199.5v-42q1 -181 78 -280.5t208 -99.5z" />
    <glyph glyph-name="uni01A4" unicode="&#x1a4;" horiz-adv-x="1533" 
d="M44 1050v184q0 256 284 256h634q233 0 369.5 -121.5t136.5 -330.5q0 -139 -63.5 -240.5t-179 -157t-271.5 -55.5h-346v-585h-180v1330h-100q-64 0 -91 -23.5t-27 -76.5v-180h-166zM608 745h348q155 0 244.5 78.5t89.5 214.5t-89.5 214t-244.5 78h-348v-585z" />
    <glyph glyph-name="uni01A5" unicode="&#x1a5;" horiz-adv-x="1158" 
d="M126 -418v1660q0 122 74.5 185t213.5 63h100v-148h-100q-64 0 -91 -23.5t-27 -76.5v-339q51 87 140.5 130t191.5 43q138 0 241 -69t160 -192.5t57 -286.5q0 -162 -57 -285.5t-160 -193t-241 -69.5q-103 0 -188 44.5t-142 135.5h-2v-578h-170zM602 133q137 0 224.5 100.5
t87.5 294.5t-87.5 295t-224.5 101q-147 0 -233.5 -108.5t-86.5 -287.5t86.5 -287t233.5 -108z" />
    <glyph glyph-name="YR" unicode="&#x1a6;" horiz-adv-x="1414" 
d="M1114 -360l-522 982h-304v-622h-210v1592h210v-102h276q249 1 380.5 -111.5t131.5 -326.5q0 -138 -75 -240.5t-210 -152.5l545 -1009v-10h-222zM288 786h276q153 1 229.5 77.5t76.5 188.5q0 122 -71 196t-235 74h-276v-536z" />
    <glyph glyph-name="uni01A7" unicode="&#x1a7;" horiz-adv-x="1258" 
d="M618 -24q-162 0 -283.5 54.5t-189 152.5t-67.5 227q0 156 104.5 255t321.5 153l169 42q162 41 230.5 95.5t68.5 141.5q0 111 -92.5 181.5t-237.5 70.5q-151 0 -243.5 -79.5t-100.5 -219.5h-178q6 215 145 339.5t371 124.5q156 0 271.5 -53t179 -148.5t63.5 -224.5
q0 -152 -101 -246t-329 -150l-167 -41q-161 -40 -228 -98t-67 -151q0 -120 98.5 -191t261.5 -71q179 0 278.5 90t99.5 250h184q0 -155 -69 -268t-195 -174.5t-298 -61.5z" />
    <glyph glyph-name="uni01A8" unicode="&#x1a8;" horiz-adv-x="970" 
d="M96 740q5 158 115 247t275 89q113 0 199.5 -38.5t135.5 -107t49 -158.5q0 -234 -298 -304l-170 -40q-70 -16 -114 -50t-44 -94q0 -70 63.5 -111t172.5 -41q111 0 174 45t72 139h168q-7 -115 -64 -189.5t-149 -110.5t-205 -36q-115 0 -206 36t-143.5 105t-52.5 167
q0 108 70.5 182t221.5 110l170 40q77 18 122.5 55t45.5 97q0 68 -60 110t-158 42q-102 0 -162 -50t-62 -134h-166z" />
    <glyph glyph-name="uni01A9" unicode="&#x1a9;" horiz-adv-x="1228" 
d="M58 0v140l506 531q23 24 45.5 48t45.5 48q-23 24 -45.5 47.5t-45.5 46.5l-472 489v140h1094v-160h-846q36 -37 72 -74.5t72 -74.5l366 -381v-64l-366 -387q-45 -47 -89.5 -94.5t-89.5 -94.5h891v-160h-1138z" />
    <glyph glyph-name="eshlooprev" unicode="&#x1aa;" horiz-adv-x="1042" 
d="M82 1218q0 95 45.5 172t123 122.5t171.5 45.5q93 0 170 -45.5t123.5 -122.5t46.5 -172v-1288q0 -103 34.5 -143.5t99.5 -40.5q31 0 64 10v-158q-22 -8 -56 -12t-60 -4q-142 0 -212 89t-70 259v979q-67 -31 -140 -31q-94 0 -171.5 46.5t-123 124t-45.5 169.5zM422 1062
q63 0 107.5 39.5t44.5 120.5q0 79 -44.5 119.5t-107.5 40.5q-65 0 -109.5 -40.5t-44.5 -119.5q0 -81 44.5 -120.5t109.5 -39.5z" />
    <glyph glyph-name="uni01AB" unicode="&#x1ab;" horiz-adv-x="637" 
d="M203 -418v148h107q64 0 89 23.5t25 76.5v172q-221 20 -221 236v672h-188v146h188v288h170v-288h214v-146h-214v-654q0 -61 25.5 -85.5t90.5 -24.5h98v-316q0 -121 -72.5 -184.5t-211.5 -63.5h-100z" />
    <glyph glyph-name="uni01AC" unicode="&#x1ac;" horiz-adv-x="1226" 
d="M40 1050v184q0 256 284 256h852v-160h-468v-1330h-180v1330h-204q-64 0 -91 -23.5t-27 -76.5v-180h-166z" />
    <glyph glyph-name="uni01AD" unicode="&#x1ad;" horiz-adv-x="607" 
d="M553 1056v-146h-214v-638q0 -68 28.5 -97t95.5 -29h90v-146h-106q-128 0 -203 66.5t-75 179.5v664h-154v146h154v186q0 122 74.5 185t213.5 63h100v-148h-100q-64 0 -91 -23.5t-27 -76.5v-186h214z" />
    <glyph glyph-name="Trthook" unicode="&#x1ae;" horiz-adv-x="1250" 
d="M820 -418q-139 0 -211.5 63.5t-72.5 184.5v1500h-486v160h1150v-160h-484v-1500q0 -53 25 -76.5t89 -23.5h100v-148h-110z" />
    <glyph glyph-name="Uhorn" unicode="&#x1af;" horiz-adv-x="1440" 
d="M720 -24q-175 0 -305.5 69t-202.5 188.5t-72 272.5v984h180v-970q0 -109 48 -194t138 -133.5t214 -48.5q125 0 214.5 48.5t137.5 133.5t48 194v970h174q18 0 18 18v222h170v-210q0 -170 -170 -170h-12v-844q0 -153 -72 -272.5t-202 -188.5t-306 -69z" />
    <glyph glyph-name="uhorn" unicode="&#x1b0;" horiz-adv-x="1220" 
d="M514 -20q-106 0 -194.5 46.5t-141 140t-52.5 233.5v656h170v-644q0 -137 66 -206.5t184 -69.5q116 0 197 71t81 231v618h152q34 0 34 34v206h160v-190q0 -170 -170 -170h-6v-936h-166v155q-55 -90 -134.5 -132.5t-179.5 -42.5z" />
    <glyph glyph-name="Upsilon2" unicode="&#x1b1;" horiz-adv-x="1496" 
d="M90 704q0 212 83.5 366t228.5 248v12h-312v160h530v-204q-96 -41 -177 -125t-130 -200.5t-49 -256.5q0 -155 62 -281.5t171.5 -200.5t250.5 -74t250 74t170.5 200.5t61.5 281.5q0 140 -48.5 256.5t-129 200.5t-176.5 125v204h530v-160h-312v-12q144 -91 228 -246.5
t84 -367.5t-84.5 -375.5t-233 -256t-340.5 -92.5t-340.5 92.5t-233 256t-84.5 375.5z" />
    <glyph glyph-name="Vcursive" unicode="&#x1b2;" horiz-adv-x="1228" 
d="M614 -20q-150 0 -270 54.5t-190 164t-70 273.5v1018h206v-1018q1 -169 89.5 -247.5t234.5 -78.5t234 78.5t88 247.5v688q1 99 -42 138.5t-120 39.5q-13 0 -33.5 -1t-34.5 -5v160q23 7 56.5 12.5t67.5 5.5q134 0 225 -90.5t91 -259.5v-688q0 -164 -74.5 -273.5
t-195.5 -164t-262 -54.5z" />
    <glyph glyph-name="uni01B3" unicode="&#x1b3;" horiz-adv-x="1382" 
d="M24 1490h206l414 -696h16l326 548q72 121 176.5 153.5t211.5 -17.5l-48 -146q-52 22 -99 10t-87 -76l-398 -652v-614h-180v614z" />
    <glyph glyph-name="uni01B4" unicode="&#x1b4;" horiz-adv-x="1349" 
d="M837 1056l71 186q29 76 62 131.5t87.5 86t146.5 30.5h105v-148h-100q-58 0 -81.5 -29.5t-47.5 -93.5l-62 -163l-487 -1252q-41 -106 -117 -164t-176 -58h-104v150h104q94 0 143 127l58 150l-409 1047h184l228 -608q22 -59 43.5 -118.5t41.5 -118.5q21 59 42.5 118.5
t43.5 118.5z" />
    <glyph glyph-name="Zbar" unicode="&#x1b5;" horiz-adv-x="1256" 
d="M58 0v152l779 1001q34 44 69.5 88.5t72.5 88.5h-889v160h1100v-152l-762 -979q-78 -101 -159 -199h929v-160h-1140zM224 665v160h808v-160h-808z" />
    <glyph glyph-name="zbar" unicode="&#x1b6;" horiz-adv-x="980" 
d="M94 0v130l578 770v4h-578v152h788v-136l-572 -764v-4h576v-152h-792zM208 485v146h608v-146h-608z" />
    <glyph glyph-name="uni01B7" unicode="&#x1b7;" horiz-adv-x="1312" 
d="M50 64h184q7 -101 64 -178.5t147 -120.5t197 -43q127 0 219 60.5t142.5 163.5t50.5 232q0 145 -63.5 251.5t-175 164.5t-257.5 58h-112v150l498 512v12h-808v164h1058v-132l-526 -550v-14q166 -7 293 -87t199 -215.5t72 -311.5q0 -180 -74.5 -320t-208 -220t-311.5 -80
q-160 0 -289.5 63.5t-209.5 177.5t-89 263z" />
    <glyph glyph-name="uni01B8" unicode="&#x1b8;" horiz-adv-x="1312" 
d="M1262 64q-8 -149 -88 -263t-210 -177.5t-290 -63.5q-178 0 -311.5 80t-208 220t-74.5 320q0 176 72.5 311.5t199.5 215.5t292 87v14l-526 550v132h1060v-164h-810v-12l498 -512v-150h-110q-146 0 -258.5 -58t-176 -164.5t-63.5 -251.5q0 -129 50.5 -232t143 -163.5
t218.5 -60.5q108 0 198 43t146.5 120.5t63.5 178.5h184z" />
    <glyph glyph-name="uni01B9" unicode="&#x1b9;" horiz-adv-x="1226" 
d="M606 -458q-150 0 -266.5 58.5t-183 160.5t-66.5 233q0 125 60.5 220.5t166 152t240.5 63.5v2l-409 492v132h882v-160h-650v-2l380 -458v-146h-118q-181 0 -278.5 -76.5t-97.5 -219.5q0 -133 94.5 -213.5t249.5 -80.5q159 0 248.5 88.5t89.5 245.5h182q0 -145 -66.5 -256
t-184.5 -173.5t-273 -62.5z" />
    <glyph glyph-name="uni01BA" unicode="&#x1ba;" horiz-adv-x="1042" 
d="M114 1056h870v-124l-379 -303q134 -20 211.5 -88t77.5 -182q0 -92 -51 -152t-141.5 -97.5t-209.5 -63.5q-140 -30 -187 -77.5t-47 -101.5q0 -70 58 -110.5t158 -40.5q61 0 118 18t95.5 61.5t42.5 118.5h198q0 -90 -51 -172t-151 -134t-246 -52q-188 0 -303 89.5
t-115 233.5q0 85 38.5 142.5t100 93.5t132 58t133.5 37q66 15 117 29t80 40.5t29 76.5q0 57 -46.5 89.5t-159.5 32.5h-174v126l382 292h-580v160z" />
    <glyph glyph-name="uni01BB" unicode="&#x1bb;" horiz-adv-x="1149" 
d="M85 0v151l530 484q95 87 154.5 153t87.5 129t28 139q0 138 -81.5 218t-223.5 80q-153 0 -237 -93.5t-84 -252.5h-168q0 149 60.5 263t170.5 178.5t257 64.5q140 0 247 -57.5t168 -159t61 -234.5q0 -144 -79.5 -265t-243.5 -270l-403 -366v-2h735v-160h-979zM256 527v160
h808v-160h-808z" />
    <glyph glyph-name="uni01BC" unicode="&#x1bc;" horiz-adv-x="1261" 
d="M673 -20q-143 0 -257.5 59.5t-182 161.5t-73.5 231h180q12 -127 104.5 -209.5t228.5 -82.5q97 0 169.5 45t113.5 123.5t41 179.5t-39 179t-109 122.5t-163 44.5q-123 0 -211 -49.5t-123 -144.5h-173l41 690h-170v160h1039v-160h-697l-36 -483h2q139 149 350 149
q137 0 241.5 -65t163 -179t58.5 -262q0 -150 -62.5 -265t-174.5 -180t-261 -65z" />
    <glyph glyph-name="uni01BD" unicode="&#x1bd;" horiz-adv-x="1042" 
d="M350 472l-172 14l50 424h-166v172h864v-172h-510l-30 -236q34 23 94 41.5t116 20.5q182 5 283 -94.5t101 -281.5q0 -106 -43 -191.5t-137.5 -136t-247.5 -50.5q-69 0 -142 20t-135 60t-100.5 101t-38.5 143l192 16q1 -80 64 -128t160 -48q121 0 175.5 60.5t54.5 153.5
q0 97 -56 156.5t-168 59.5q-85 0 -132.5 -31.5t-75.5 -72.5z" />
    <glyph glyph-name="glottalstopbarinv" unicode="&#x1be;" horiz-adv-x="1042" 
d="M756 288q0 59 -37 96.5t-91 68.5t-108 70t-91 100t-37 159v152h-194v148h194v260h202v-260h198v-148h-198v-146q0 -88 52 -132.5t117 -81.5q47 -27 92 -59t74 -81.5t29 -127.5q0 -96 -53 -169.5t-148 -115t-221 -41.5q-146 0 -246 52t-151 134.5t-51 173.5h200
q3 -75 41 -119t94 -62.5t113 -18.5q107 0 163.5 42.5t56.5 105.5z" />
    <glyph glyph-name="uni01BF" unicode="&#x1bf;" horiz-adv-x="1228" 
d="M344 1000q55 64 131.5 98t176.5 34q138 0 232.5 -69.5t143 -194.5t48.5 -290v-48q0 -199 -87.5 -328t-250 -213.5t-386.5 -150.5v-254h-200v1534h182zM352 -4q152 43 270.5 109.5t186 170t67.5 254.5v48q0 105 -30 193.5t-93.5 141.5t-162.5 53q-86 0 -144 -39.5
t-94 -101.5v-829z" />
    <glyph glyph-name="pipe" unicode="&#x1c0;" horiz-adv-x="480" 
d="M320 1490v-1490h-160v1490h160z" />
    <glyph glyph-name="pipedbl" unicode="&#x1c1;" horiz-adv-x="670" 
d="M264 1490v-1490h-160v1490h160zM536 1490v-1490h-160v1490h160z" />
    <glyph glyph-name="pipedblbar" unicode="&#x1c2;" horiz-adv-x="422" 
d="M290 1490v-1490h-160v1490h160zM-110 948v146h640v-146h-640zM-110 454v146h640v-146h-640z" />
    <glyph glyph-name="exclam1" unicode="&#x1c3;" horiz-adv-x="450" 
d="M145 400l-13 1090h186l-13 -1090h-160zM225 -17q-52 0 -88.5 36.5t-36.5 88.5q0 53 36.5 89t88.5 36q53 0 89 -36t36 -89q0 -52 -36 -88.5t-89 -36.5z" />
    <glyph glyph-name="Dzcaron_" unicode="&#x1c5;" horiz-adv-x="2392" 
d="M608 0h-460v1490h480q217 0 372.5 -89t238.5 -255.5t83 -397.5q0 -233 -84 -400.5t-243.5 -257.5t-386.5 -90zM328 160h268q278 0 412 157.5t134 430.5q0 270 -131.5 426t-394.5 156h-288v-1170zM1506 0v130l578 770v4h-578v152h788v-136l-572 -764v-4h576v-152h-792z
M1756 1490l144 -176l142 176h172v-1l-232 -273h-166l-230 273v1h170z" />
    <glyph glyph-name="uni01C6" unicode="&#x1c6;" horiz-adv-x="2138" 
d="M530 -20q-137 0 -240.5 69.5t-160.5 193t-57 285.5q0 163 57 286.5t160.5 192.5t240.5 69q103 0 191 -43.5t139 -132.5h2v590h170v-1490h-166v160h-2q-57 -91 -144 -135.5t-190 -44.5zM556 133q147 0 233.5 108t86.5 287t-86.5 287.5t-233.5 108.5q-137 0 -224.5 -101
t-87.5 -295t87.5 -294.5t224.5 -100.5zM1252 0v130l578 770v4h-578v152h788v-136l-572 -764v-4h576v-152h-792zM1502 1490l144 -176l142 176h172v-1l-232 -273h-166l-230 273v1h170z" />
    <glyph glyph-name="uni01C7" unicode="&#x1c7;" horiz-adv-x="2191" 
d="M148 0v1490h180v-1330h718v-160h-898zM1611 -20q-194 0 -317 115t-123 329v80h180v-80q0 -139 71.5 -211.5t188.5 -72.5t188.5 72.5t71.5 211.5v1066h180v-1066q0 -214 -123 -329t-317 -115z" />
    <glyph glyph-name="uni01C8" unicode="&#x1c8;" horiz-adv-x="1518" 
d="M148 0v1490h180v-1330h718v-160h-898zM1222 1056h170v-1204q0 -115 -72 -192.5t-206 -77.5h-74v150h58q65 0 94.5 35t29.5 111v1178zM1307 1262q-48 0 -82 34t-34 82t34 82t82 34t82 -34t34 -82t-34 -82t-82 -34z" />
    <glyph glyph-name="uni01C9" unicode="&#x1c9;" horiz-adv-x="844" 
d="M296 1490v-1490h-170v1490h170zM548 1056h170v-1204q0 -115 -72 -192.5t-206 -77.5h-74v150h58q65 0 94.5 35t29.5 111v1178zM633 1262q-48 0 -82 34t-34 82t34 82t82 34t82 -34t34 -82t-34 -82t-82 -34z" />
    <glyph glyph-name="uni01CA" unicode="&#x1ca;" horiz-adv-x="2549" 
d="M148 0v1490h207l614 -970q26 -42 72 -119t91 -156q-3 78 -4.5 162t-1.5 121v962h180v-1490h-209l-546 862q-31 48 -91.5 147.5t-140.5 233.5q5 -139 7 -234.5t2 -144.5v-864h-180zM1969 -20q-194 0 -317 115t-123 329v80h180v-80q0 -139 71.5 -211.5t188.5 -72.5
t188.5 72.5t71.5 211.5v1066h180v-1066q0 -214 -123 -329t-317 -115z" />
    <glyph glyph-name="uni01CB" unicode="&#x1cb;" horiz-adv-x="1876" 
d="M148 0v1490h207l614 -970q26 -42 72 -119t91 -156q-3 78 -4.5 162t-1.5 121v962h180v-1490h-209l-546 862q-31 48 -91.5 147.5t-140.5 233.5q5 -139 7 -234.5t2 -144.5v-864h-180zM1580 1056h170v-1204q0 -115 -72 -192.5t-206 -77.5h-74v150h58q65 0 94.5 35t29.5 111
v1178zM1665 1262q-48 0 -82 34t-34 82t34 82t82 34t82 -34t34 -82t-34 -82t-82 -34z" />
    <glyph glyph-name="uni01CC" unicode="&#x1cc;" horiz-adv-x="1542" 
d="M296 618v-618h-170v1056h166v-155q55 90 134.5 132.5t179.5 42.5q107 0 195 -46.5t140.5 -139.5t52.5 -234v-656h-170v644q0 137 -65.5 206.5t-184.5 69.5q-115 0 -196.5 -71t-81.5 -231zM1246 1056h170v-1204q0 -115 -72 -192.5t-206 -77.5h-74v150h58q65 0 94.5 35
t29.5 111v1178zM1331 1262q-48 0 -82 34t-34 82t34 82t82 34t82 -34t34 -82t-34 -82t-82 -34z" />
    <glyph glyph-name="uni01CD" unicode="&#x1cd;" horiz-adv-x="1338" 
d="M20 0l550 1490h204l544 -1490h-192l-146 418h-622l-150 -418h-188zM415 578h510l-112 320q-28 79 -60.5 176.5t-80.5 246.5q-48 -149 -80.5 -246.5t-61.5 -176.5zM528 1924l144 -176l142 176h172v-1l-232 -273h-166l-230 273v1h170z" />
    <glyph glyph-name="uni01CE" unicode="&#x1ce;" horiz-adv-x="1060" 
d="M448 -16q-157 0 -262.5 81t-105.5 239q0 91 35.5 148t95 89.5t135 49.5t154.5 27q101 14 159 21t82.5 23t24.5 56v10q0 86 -61.5 142t-172.5 56q-110 0 -180.5 -53.5t-76.5 -132.5h-173q5 97 60 172.5t150 119.5t220 44q185 0 293.5 -95.5t108.5 -252.5v-728h-168v150h-4
q-19 -38 -56 -76.5t-99.5 -64t-158.5 -25.5zM472 136q104 0 169 37.5t95 97.5t30 129v132q-19 -18 -101 -32.5t-173 -27.5q-61 -8 -115.5 -27.5t-88.5 -55t-34 -95.5q0 -74 58.5 -116t159.5 -42zM380 1490l144 -176l142 176h172v-1l-232 -273h-166l-230 273v1h170z" />
    <glyph glyph-name="uni01CF" unicode="&#x1cf;" horiz-adv-x="476" 
d="M328 1490v-1490h-180v1490h180zM94 1924l144 -176l142 176h172v-1l-232 -273h-166l-230 273v1h170z" />
    <glyph glyph-name="uni01D0" unicode="&#x1d0;" horiz-adv-x="422" 
d="M126 0v1056h170v-1056h-170zM67 1490l144 -176l142 176h172v-1l-232 -273h-166l-230 273v1h170z" />
    <glyph glyph-name="uni01D1" unicode="&#x1d1;" horiz-adv-x="1534" 
d="M767 -24q-197 0 -350 99t-240 272.5t-87 396.5q0 225 87 398.5t240 272.5t350 99q198 0 350.5 -99t239.5 -272.5t87 -398.5q0 -223 -87 -396.5t-239.5 -272.5t-350.5 -99zM767 144q135 0 248 69.5t181 203.5t68 327q0 194 -68 328.5t-181 204t-248 69.5t-248 -69.5
t-181 -204t-68 -328.5q0 -193 68 -327t181 -203.5t248 -69.5zM623 1924l144 -176l142 176h172v-1l-232 -273h-166l-230 273v1h170z" />
    <glyph glyph-name="uni01D2" unicode="&#x1d2;" horiz-adv-x="1124" 
d="M562 -24q-146 0 -256.5 70.5t-172 194.5t-61.5 285q0 162 61.5 287t172 196t256.5 71q147 0 257 -71t171.5 -196t61.5 -287q0 -161 -61.5 -285t-171.5 -194.5t-257 -70.5zM562 130q150 0 234 108.5t84 287.5q0 181 -84.5 290.5t-233.5 109.5t-233.5 -109t-84.5 -291
q0 -180 84 -288t234 -108zM418 1490l144 -176l142 176h172v-1l-232 -273h-166l-230 273v1h170z" />
    <glyph glyph-name="uni01D3" unicode="&#x1d3;" horiz-adv-x="1440" 
d="M720 -24q-175 0 -305.5 69t-202.5 188.5t-72 272.5v984h180v-970q0 -109 48 -194t138 -133.5t214 -48.5q125 0 214.5 48.5t137.5 133.5t48 194v970h180v-984q0 -153 -72 -272.5t-202 -188.5t-306 -69zM576 1924l144 -176l142 176h172v-1l-232 -273h-166l-230 273v1h170z
" />
    <glyph glyph-name="uni01D4" unicode="&#x1d4;" horiz-adv-x="1120" 
d="M514 -20q-106 0 -194.5 46.5t-141 140t-52.5 233.5v656h170v-644q0 -137 66 -206.5t184 -69.5q116 0 197 71t81 231v618h170v-1056h-166v155q-55 -90 -134.5 -132.5t-179.5 -42.5zM416 1490l144 -176l142 176h172v-1l-232 -273h-166l-230 273v1h170z" />
    <glyph glyph-name="uni01D5" unicode="&#x1d5;" horiz-adv-x="1440" 
d="M720 -24q-175 0 -305.5 69t-202.5 188.5t-72 272.5v984h180v-970q0 -109 48 -194t138 -133.5t214 -48.5q125 0 214.5 48.5t137.5 133.5t48 194v970h180v-984q0 -153 -72 -272.5t-202 -188.5t-306 -69zM996 2121v-126h-552v126h552zM503 1646q-48 0 -82 34t-34 82t34 82
t82 34t82 -34t34 -82t-34 -82t-82 -34zM921 1646q-48 0 -82 34t-34 82t34 82t82 34t82 -34t34 -82t-34 -82t-82 -34z" />
    <glyph glyph-name="uni01D6" unicode="&#x1d6;" horiz-adv-x="1120" 
d="M514 -20q-106 0 -194.5 46.5t-141 140t-52.5 233.5v656h170v-644q0 -137 66 -206.5t184 -69.5q116 0 197 71t81 231v618h170v-1056h-166v155q-55 -90 -134.5 -132.5t-179.5 -42.5zM836 1687v-126h-552v126h552zM343 1212q-48 0 -82 34t-34 82t34 82t82 34t82 -34t34 -82
t-34 -82t-82 -34zM761 1212q-48 0 -82 34t-34 82t34 82t82 34t82 -34t34 -82t-34 -82t-82 -34z" />
    <glyph glyph-name="uni01D7" unicode="&#x1d7;" horiz-adv-x="1440" 
d="M720 -24q-175 0 -305.5 69t-202.5 188.5t-72 272.5v984h180v-970q0 -109 48 -194t138 -133.5t214 -48.5q125 0 214.5 48.5t137.5 133.5t48 194v970h180v-984q0 -153 -72 -272.5t-202 -188.5t-306 -69zM645 1954l140 274h194l-192 -274h-142zM503 1646q-48 0 -82 34
t-34 82t34 82t82 34t82 -34t34 -82t-34 -82t-82 -34zM921 1646q-48 0 -82 34t-34 82t34 82t82 34t82 -34t34 -82t-34 -82t-82 -34z" />
    <glyph glyph-name="uni01D8" unicode="&#x1d8;" horiz-adv-x="1120" 
d="M514 -20q-106 0 -194.5 46.5t-141 140t-52.5 233.5v656h170v-644q0 -137 66 -206.5t184 -69.5q116 0 197 71t81 231v618h170v-1056h-166v155q-55 -90 -134.5 -132.5t-179.5 -42.5zM485 1520l140 274h194l-192 -274h-142zM343 1212q-48 0 -82 34t-34 82t34 82t82 34
t82 -34t34 -82t-34 -82t-82 -34zM761 1212q-48 0 -82 34t-34 82t34 82t82 34t82 -34t34 -82t-34 -82t-82 -34z" />
    <glyph glyph-name="uni01D9" unicode="&#x1d9;" horiz-adv-x="1440" 
d="M720 -24q-175 0 -305.5 69t-202.5 188.5t-72 272.5v984h180v-970q0 -109 48 -194t138 -133.5t214 -48.5q125 0 214.5 48.5t137.5 133.5t48 194v970h180v-984q0 -153 -72 -272.5t-202 -188.5t-306 -69zM576 2203l144 -176l142 176h172v-1l-232 -273h-166l-230 273v1h170z
M503 1646q-48 0 -82 34t-34 82t34 82t82 34t82 -34t34 -82t-34 -82t-82 -34zM921 1646q-48 0 -82 34t-34 82t34 82t82 34t82 -34t34 -82t-34 -82t-82 -34z" />
    <glyph glyph-name="uni01DA" unicode="&#x1da;" horiz-adv-x="1120" 
d="M514 -20q-106 0 -194.5 46.5t-141 140t-52.5 233.5v656h170v-644q0 -137 66 -206.5t184 -69.5q116 0 197 71t81 231v618h170v-1056h-166v155q-55 -90 -134.5 -132.5t-179.5 -42.5zM416 1769l144 -176l142 176h172v-1l-232 -273h-166l-230 273v1h170zM343 1212
q-48 0 -82 34t-34 82t34 82t82 34t82 -34t34 -82t-34 -82t-82 -34zM761 1212q-48 0 -82 34t-34 82t34 82t82 34t82 -34t34 -82t-34 -82t-82 -34z" />
    <glyph glyph-name="uni01DB" unicode="&#x1db;" horiz-adv-x="1440" 
d="M720 -24q-175 0 -305.5 69t-202.5 188.5t-72 272.5v984h180v-970q0 -109 48 -194t138 -133.5t214 -48.5q125 0 214.5 48.5t137.5 133.5t48 194v970h180v-984q0 -153 -72 -272.5t-202 -188.5t-306 -69zM640 1954l-192 274h194l140 -274h-142zM502 1646q-48 0 -82 34
t-34 82t34 82t82 34t82 -34t34 -82t-34 -82t-82 -34zM920 1646q-48 0 -82 34t-34 82t34 82t82 34t82 -34t34 -82t-34 -82t-82 -34z" />
    <glyph glyph-name="uni01DC" unicode="&#x1dc;" horiz-adv-x="1120" 
d="M514 -20q-106 0 -194.5 46.5t-141 140t-52.5 233.5v656h170v-644q0 -137 66 -206.5t184 -69.5q116 0 197 71t81 231v618h170v-1056h-166v155q-55 -90 -134.5 -132.5t-179.5 -42.5zM480 1520l-192 274h194l140 -274h-142zM342 1212q-48 0 -82 34t-34 82t34 82t82 34
t82 -34t34 -82t-34 -82t-82 -34zM760 1212q-48 0 -82 34t-34 82t34 82t82 34t82 -34t34 -82t-34 -82t-82 -34z" />
    <glyph glyph-name="eturn" unicode="&#x1dd;" horiz-adv-x="1098" 
d="M536 1080q155 0 264.5 -71t167.5 -195.5t58 -283.5q0 -160 -61 -285.5t-169 -197t-248 -71.5q-147 0 -255 70t-166.5 195t-58.5 289v47h790q-6 155 -89 252t-233 97q-112 0 -184 -51.5t-96 -134.5h-170q20 101 83 177.5t157.5 119.5t209.5 43zM856 431h-618
q14 -139 97 -221t213 -82t212 82t96 221z" />
    <glyph glyph-name="uni01DE" unicode="&#x1de;" horiz-adv-x="1338" 
d="M20 0l550 1490h204l544 -1490h-192l-146 418h-622l-150 -418h-188zM415 578h510l-112 320q-28 79 -60.5 176.5t-80.5 246.5q-48 -149 -80.5 -246.5t-61.5 -176.5zM948 2121v-126h-552v126h552zM455 1646q-48 0 -82 34t-34 82t34 82t82 34t82 -34t34 -82t-34 -82t-82 -34z
M873 1646q-48 0 -82 34t-34 82t34 82t82 34t82 -34t34 -82t-34 -82t-82 -34z" />
    <glyph glyph-name="uni01DF" unicode="&#x1df;" horiz-adv-x="1060" 
d="M448 -16q-157 0 -262.5 81t-105.5 239q0 91 35.5 148t95 89.5t135 49.5t154.5 27q101 14 159 21t82.5 23t24.5 56v10q0 86 -61.5 142t-172.5 56q-110 0 -180.5 -53.5t-76.5 -132.5h-173q5 97 60 172.5t150 119.5t220 44q185 0 293.5 -95.5t108.5 -252.5v-728h-168v150h-4
q-19 -38 -56 -76.5t-99.5 -64t-158.5 -25.5zM472 136q104 0 169 37.5t95 97.5t30 129v132q-19 -18 -101 -32.5t-173 -27.5q-61 -8 -115.5 -27.5t-88.5 -55t-34 -95.5q0 -74 58.5 -116t159.5 -42zM800 1687v-126h-552v126h552zM307 1212q-48 0 -82 34t-34 82t34 82t82 34
t82 -34t34 -82t-34 -82t-82 -34zM725 1212q-48 0 -82 34t-34 82t34 82t82 34t82 -34t34 -82t-34 -82t-82 -34z" />
    <glyph glyph-name="uni01E0" unicode="&#x1e0;" horiz-adv-x="1338" 
d="M20 0l550 1490h204l544 -1490h-192l-146 418h-622l-150 -418h-188zM415 578h510l-112 320q-28 79 -60.5 176.5t-80.5 246.5q-48 -149 -80.5 -246.5t-61.5 -176.5zM948 2121v-126h-552v126h552zM672 1646q-48 0 -82 34t-34 82t34 82t82 34t82 -34t34 -82t-34 -82t-82 -34z
" />
    <glyph glyph-name="uni01E1" unicode="&#x1e1;" horiz-adv-x="1060" 
d="M448 -16q-157 0 -262.5 81t-105.5 239q0 91 35.5 148t95 89.5t135 49.5t154.5 27q101 14 159 21t82.5 23t24.5 56v10q0 86 -61.5 142t-172.5 56q-110 0 -180.5 -53.5t-76.5 -132.5h-173q5 97 60 172.5t150 119.5t220 44q185 0 293.5 -95.5t108.5 -252.5v-728h-168v150h-4
q-19 -38 -56 -76.5t-99.5 -64t-158.5 -25.5zM472 136q104 0 169 37.5t95 97.5t30 129v132q-19 -18 -101 -32.5t-173 -27.5q-61 -8 -115.5 -27.5t-88.5 -55t-34 -95.5q0 -74 58.5 -116t159.5 -42zM800 1687v-126h-552v126h552zM524 1212q-48 0 -82 34t-34 82t34 82t82 34
t82 -34t34 -82t-34 -82t-82 -34z" />
    <glyph glyph-name="uni01E2" unicode="&#x1e2;" horiz-adv-x="1981" 
d="M20 0l675 1490h1216v-160h-789v-498h731v-160h-731v-512h789v-160h-969v448h-533l-200 -448h-189zM480 608h462v722h-140zM1588 1850v-140h-552v140h552z" />
    <glyph glyph-name="uni01E3" unicode="&#x1e3;" horiz-adv-x="1785" 
d="M472 -14q-186 0 -289 89.5t-103 228.5q0 151 127.5 236t353.5 85h205v103q0 86 -61.5 142t-172.5 56q-110 0 -180.5 -53.5t-76.5 -132.5h-173q5 97 60 172.5t150 119.5t220 44q128 0 214 -47.5t127 -130.5q64 85 157.5 133.5t206.5 48.5q147 0 255 -70t166.5 -195
t58.5 -289v-47h-790q6 -155 89 -252t233 -97q113 0 184.5 52t95.5 134h170q-20 -101 -83 -177.5t-157.5 -119.5t-209.5 -43q-135 0 -236.5 55.5t-163.5 151.5q-96 -197 -377 -197zM929 625h618q-14 139 -97 221t-213 82t-212 -82t-96 -221zM766 479h-205q-307 0 -307 -177
q0 -83 58.5 -123.5t159.5 -40.5q104 0 169 36.5t95 96.5t30 129v79zM1136 1416v-140h-552v140h552z" />
    <glyph glyph-name="Gbar" unicode="&#x1e4;" horiz-adv-x="1496" 
d="M771 -24q-198 0 -351.5 98.5t-241.5 272t-88 397.5q0 226 87.5 399.5t241.5 272t352 98.5q158 0 289 -64.5t218 -178.5t113 -263h-182q-23 100 -85 176t-152.5 119t-200.5 43q-149 0 -262 -76.5t-176 -212t-63 -313.5q0 -177 63 -312t176 -211.5t262 -76.5
q124 0 226 55.5t163 155t62 230.5h-390v160h568v-161q0 -174 -83.5 -311.5t-225.5 -217t-320 -79.5zM832 319v146h640v-146h-640z" />
    <glyph glyph-name="gbar" unicode="&#x1e5;" horiz-adv-x="1306" 
d="M568 -432q-178 0 -301 82t-143 238h174q23 -85 95.5 -127.5t174.5 -42.5q138 0 217 73.5t79 208.5v160h-1q-58 -92 -143.5 -136t-189.5 -44q-137 0 -240.5 69.5t-160.5 193t-57 285.5q0 163 57 286.5t160.5 192.5t240.5 69q103 0 191.5 -43.5t143.5 -141.5h1v165h166
v-1056q0 -156 -64.5 -251t-170.5 -138t-229 -43zM556 133q147 0 233.5 108t86.5 287t-86.5 287.5t-233.5 108.5q-137 0 -224.5 -101t-87.5 -295t87.5 -294.5t224.5 -100.5zM648 491v146h608v-146h-608z" />
    <glyph glyph-name="Gcaron" unicode="&#x1e6;" horiz-adv-x="1496" 
d="M771 -24q-198 0 -351.5 98.5t-241.5 272t-88 397.5q0 226 87.5 399.5t241.5 272t352 98.5q158 0 289 -64.5t218 -178.5t113 -263h-182q-23 100 -85 176t-152.5 119t-200.5 43q-149 0 -262 -76.5t-176 -212t-63 -313.5q0 -177 63 -312t176 -211.5t262 -76.5
q124 0 226 55.5t163 155t62 230.5h-390v160h568v-161q0 -174 -83.5 -311.5t-225.5 -217t-320 -79.5zM614 1924l144 -176l142 176h172v-1l-232 -273h-166l-230 273v1h170z" />
    <glyph glyph-name="gcaron" unicode="&#x1e7;" horiz-adv-x="1158" 
d="M568 -432q-178 0 -301 82t-143 238h174q23 -85 95.5 -127.5t174.5 -42.5q138 0 217 73.5t79 208.5v160h-1q-58 -92 -143.5 -136t-189.5 -44q-137 0 -240.5 69.5t-160.5 193t-57 285.5q0 163 57 286.5t160.5 192.5t240.5 69q103 0 191.5 -43.5t143.5 -141.5h1v165h166
v-1056q0 -156 -64.5 -251t-170.5 -138t-229 -43zM556 133q147 0 233.5 108t86.5 287t-86.5 287.5t-233.5 108.5q-137 0 -224.5 -101t-87.5 -295t87.5 -294.5t224.5 -100.5zM410 1490l144 -176l142 176h172v-1l-232 -273h-166l-230 273v1h170z" />
    <glyph glyph-name="uni01E8" unicode="&#x1e8;" horiz-adv-x="1299" 
d="M148 0v1490h180v-764q63 70 127 139t129 139l452 486h238l-605 -645l605 -845h-213l-516 722l-217 -234v-488h-180zM520 1924l144 -176l142 176h172v-1l-232 -273h-166l-230 273v1h170z" />
    <glyph glyph-name="uni01E9" unicode="&#x1e9;" horiz-adv-x="1039" 
d="M126 0v1490h170v-909h2l491 475h220l-465 -452l499 -604h-216l-413 497l-118 -107v-390h-170zM67 1924l144 -176l142 176h172v-1l-232 -273h-166l-230 273v1h170z" />
    <glyph glyph-name="uni01EA" unicode="&#x1ea;" horiz-adv-x="1534" 
d="M767 -24q-197 0 -350 99t-240 272.5t-87 396.5q0 225 87 398.5t240 272.5t350 99q198 0 350.5 -99t239.5 -272.5t87 -398.5q0 -223 -87 -396.5t-239.5 -272.5t-350.5 -99zM767 144q135 0 248 69.5t181 203.5t68 327q0 194 -68 328.5t-181 204t-248 69.5t-248 -69.5
t-181 -204t-68 -328.5q0 -193 68 -327t181 -203.5t248 -69.5zM814 -418q-92 0 -150 47.5t-58 140.5q0 80 41.5 133t109.5 92.5t149.5 78t163 88.5t149.5 124t109.5 185t41.5 273h74q0 -186 -47.5 -315t-123 -215.5t-160 -144t-160 -99.5t-123 -81.5t-47.5 -90.5
q0 -70 87 -70h62v-146h-118z" />
    <glyph glyph-name="uni01EB" unicode="&#x1eb;" horiz-adv-x="1124" 
d="M562 -24q-146 0 -256.5 70.5t-172 194.5t-61.5 285q0 162 61.5 287t172 196t256.5 71q147 0 257 -71t171.5 -196t61.5 -287q0 -161 -61.5 -285t-171.5 -194.5t-257 -70.5zM562 130q150 0 234 108.5t84 287.5q0 181 -84.5 290.5t-233.5 109.5t-233.5 -109t-84.5 -291
q0 -180 84 -288t234 -108zM625 -420q-216 0 -216 183q0 82 39.5 138t102 99.5t133 87t133 99.5t102 137.5t39.5 201.5h94q0 -135 -34 -228t-88 -156t-115 -106.5t-115 -78.5t-88 -72t-34 -89q0 -33 21 -51.5t82 -18.5h38v-146h-94z" />
    <glyph glyph-name="uni01EC" unicode="&#x1ec;" horiz-adv-x="1534" 
d="M767 -24q-197 0 -350 99t-240 272.5t-87 396.5q0 225 87 398.5t240 272.5t350 99q198 0 350.5 -99t239.5 -272.5t87 -398.5q0 -223 -87 -396.5t-239.5 -272.5t-350.5 -99zM767 144q135 0 248 69.5t181 203.5t68 327q0 194 -68 328.5t-181 204t-248 69.5t-248 -69.5
t-181 -204t-68 -328.5q0 -193 68 -327t181 -203.5t248 -69.5zM814 -418q-92 0 -150 47.5t-58 140.5q0 80 41.5 133t109.5 92.5t149.5 78t163 88.5t149.5 124t109.5 185t41.5 273h74q0 -186 -47.5 -315t-123 -215.5t-160 -144t-160 -99.5t-123 -81.5t-47.5 -90.5
q0 -70 87 -70h62v-146h-118zM1043 1850v-140h-552v140h552z" />
    <glyph glyph-name="uni01ED" unicode="&#x1ed;" horiz-adv-x="1124" 
d="M562 -24q-146 0 -256.5 70.5t-172 194.5t-61.5 285q0 162 61.5 287t172 196t256.5 71q147 0 257 -71t171.5 -196t61.5 -287q0 -161 -61.5 -285t-171.5 -194.5t-257 -70.5zM562 130q150 0 234 108.5t84 287.5q0 181 -84.5 290.5t-233.5 109.5t-233.5 -109t-84.5 -291
q0 -180 84 -288t234 -108zM625 -420q-216 0 -216 183q0 82 39.5 138t102 99.5t133 87t133 99.5t102 137.5t39.5 201.5h94q0 -135 -34 -228t-88 -156t-115 -106.5t-115 -78.5t-88 -72t-34 -89q0 -33 21 -51.5t82 -18.5h38v-146h-94zM838 1416v-140h-552v140h552z" />
    <glyph glyph-name="uni01EE" unicode="&#x1ee;" horiz-adv-x="1312" 
d="M50 64h184q7 -101 64 -178.5t147 -120.5t197 -43q127 0 219 60.5t142.5 163.5t50.5 232q0 145 -63.5 251.5t-175 164.5t-257.5 58h-112v150l498 512v12h-808v164h1058v-132l-526 -550v-14q166 -7 293 -87t199 -215.5t72 -311.5q0 -180 -74.5 -320t-208 -220t-311.5 -80
q-160 0 -289.5 63.5t-209.5 177.5t-89 263zM506 1924l144 -176l142 176h172v-1l-232 -273h-166l-230 273v1h170z" />
    <glyph glyph-name="uni01EF" unicode="&#x1ef;" horiz-adv-x="1212" 
d="M618 -458q-153 0 -271 63t-184.5 174.5t-66.5 254.5h180q0 -154 91 -244t247 -90q149 0 240.5 88t91.5 230q0 147 -102.5 228t-280.5 81h-186v146l435 421v2h-618v160h852v-160l-452 -440q172 4 290 -51t178 -155t60 -232q0 -140 -64.5 -247.5t-178 -168t-261.5 -60.5z
M470 1490l144 -176l142 176h172v-1l-232 -273h-166l-230 273v1h170z" />
    <glyph glyph-name="uni01F0" unicode="&#x1f0;" horiz-adv-x="422" 
d="M126 1056h170v-1204q0 -115 -72 -192.5t-206 -77.5h-74v150h58q65 0 94.5 35t29.5 111v1178zM67 1490l144 -176l142 176h172v-1l-232 -273h-166l-230 273v1h170z" />
    <glyph glyph-name="uni01F1" unicode="&#x1f1;" horiz-adv-x="2668" 
d="M608 0h-460v1490h480q217 0 372.5 -89t238.5 -255.5t83 -397.5q0 -233 -84 -400.5t-243.5 -257.5t-386.5 -90zM328 160h268q278 0 412 157.5t134 430.5q0 270 -131.5 426t-394.5 156h-288v-1170zM1470 0v152l779 1001q34 44 69.5 88.5t72.5 88.5h-889v160h1100v-152
l-762 -979q-78 -101 -159 -199h929v-160h-1140z" />
    <glyph glyph-name="uni01F2" unicode="&#x1f2;" horiz-adv-x="2392" 
d="M608 0h-460v1490h480q217 0 372.5 -89t238.5 -255.5t83 -397.5q0 -233 -84 -400.5t-243.5 -257.5t-386.5 -90zM328 160h268q278 0 412 157.5t134 430.5q0 270 -131.5 426t-394.5 156h-288v-1170zM1506 0v130l578 770v4h-578v152h788v-136l-572 -764v-4h576v-152h-792z
" />
    <glyph glyph-name="uni01F3" unicode="&#x1f3;" horiz-adv-x="2138" 
d="M530 -20q-137 0 -240.5 69.5t-160.5 193t-57 285.5q0 163 57 286.5t160.5 192.5t240.5 69q103 0 191 -43.5t139 -132.5h2v590h170v-1490h-166v160h-2q-57 -91 -144 -135.5t-190 -44.5zM556 133q147 0 233.5 108t86.5 287t-86.5 287.5t-233.5 108.5q-137 0 -224.5 -101
t-87.5 -295t87.5 -294.5t224.5 -100.5zM1252 0v130l578 770v4h-578v152h788v-136l-572 -764v-4h576v-152h-792z" />
    <glyph glyph-name="uni01F4" unicode="&#x1f4;" horiz-adv-x="1496" 
d="M771 -24q-198 0 -351.5 98.5t-241.5 272t-88 397.5q0 226 87.5 399.5t241.5 272t352 98.5q158 0 289 -64.5t218 -178.5t113 -263h-182q-23 100 -85 176t-152.5 119t-200.5 43q-149 0 -262 -76.5t-176 -212t-63 -313.5q0 -177 63 -312t176 -211.5t262 -76.5
q124 0 226 55.5t163 155t62 230.5h-390v160h568v-161q0 -174 -83.5 -311.5t-225.5 -217t-320 -79.5zM683 1626l140 298h194l-192 -298h-142z" />
    <glyph glyph-name="uni01F5" unicode="&#x1f5;" horiz-adv-x="1158" 
d="M568 -432q-178 0 -301 82t-143 238h174q23 -85 95.5 -127.5t174.5 -42.5q138 0 217 73.5t79 208.5v160h-1q-58 -92 -143.5 -136t-189.5 -44q-137 0 -240.5 69.5t-160.5 193t-57 285.5q0 163 57 286.5t160.5 192.5t240.5 69q103 0 191.5 -43.5t143.5 -141.5h1v165h166
v-1056q0 -156 -64.5 -251t-170.5 -138t-229 -43zM556 133q147 0 233.5 108t86.5 287t-86.5 287.5t-233.5 108.5q-137 0 -224.5 -101t-87.5 -295t87.5 -294.5t224.5 -100.5zM479 1192l140 298h194l-192 -298h-142z" />
    <glyph glyph-name="uni01F6" unicode="&#x1f6;" horiz-adv-x="2122" 
d="M1559 -20q-200 0 -318.5 113.5t-118.5 306.5v283h-794v-683h-180v1490h180v-647h794v647h180v-1082q0 -130 65 -201t192 -71t197 71t70 201v648h170v-656q0 -193 -118.5 -306.5t-318.5 -113.5z" />
    <glyph glyph-name="uni01F7" unicode="&#x1f7;" horiz-adv-x="1228" 
d="M290 1490v-38q53 28 119.5 43t150.5 15q176 0 308 -68t205 -206.5t73 -351.5v-52q0 -183 -64 -346t-180 -295t-272 -223t-340 -130v-256h-208v1908h208zM290 9q168 44 290.5 131t202 201t118.5 241t39 250v56q0 239 -97.5 346.5t-280.5 107.5q-104 0 -169 -32t-103 -90
v-1211z" />
    <glyph glyph-name="uni01F8" unicode="&#x1f8;" horiz-adv-x="1454" 
d="M148 0v1490h207l614 -970q26 -42 72 -119t91 -156q-3 78 -4.5 162t-1.5 121v962h180v-1490h-209l-546 862q-31 48 -91.5 147.5t-140.5 233.5q5 -139 7 -234.5t2 -144.5v-864h-180zM659 1626l-192 298h194l140 -298h-142z" />
    <glyph glyph-name="uni01F9" unicode="&#x1f9;" horiz-adv-x="1120" 
d="M296 618v-618h-170v1056h166v-155q55 90 134.5 132.5t179.5 42.5q107 0 195 -46.5t140.5 -139.5t52.5 -234v-656h-170v644q0 137 -65.5 206.5t-184.5 69.5q-115 0 -196.5 -71t-81.5 -231zM492 1192l-192 298h194l140 -298h-142z" />
    <glyph glyph-name="Aringacute" unicode="&#x1fa;" horiz-adv-x="1338" 
d="M20 0l550 1490h204l544 -1490h-192l-146 418h-622l-150 -418h-188zM415 578h510l-112 320q-28 79 -60.5 176.5t-80.5 246.5q-48 -149 -80.5 -246.5t-61.5 -176.5zM672 1580q-67 0 -122 31.5t-87.5 84t-32.5 116.5t32.5 116.5t87.5 84t122 31.5t122 -31.5t87.5 -84
t32.5 -116.5t-32.5 -116.5t-87.5 -84t-122 -31.5zM672 1700q47 0 79.5 33t32.5 79q0 47 -32.5 79.5t-79.5 32.5q-46 0 -79 -32.5t-33 -79.5q0 -46 33 -79t79 -33zM605 2103l146 180h182l-188 -180h-140z" />
    <glyph glyph-name="aringacute" unicode="&#x1fb;" horiz-adv-x="1060" 
d="M448 -16q-157 0 -262.5 81t-105.5 239q0 91 35.5 148t95 89.5t135 49.5t154.5 27q101 14 159 21t82.5 23t24.5 56v10q0 86 -61.5 142t-172.5 56q-110 0 -180.5 -53.5t-76.5 -132.5h-173q5 97 60 172.5t150 119.5t220 44q185 0 293.5 -95.5t108.5 -252.5v-728h-168v150h-4
q-19 -38 -56 -76.5t-99.5 -64t-158.5 -25.5zM472 136q104 0 169 37.5t95 97.5t30 129v132q-19 -18 -101 -32.5t-173 -27.5q-61 -8 -115.5 -27.5t-88.5 -55t-34 -95.5q0 -74 58.5 -116t159.5 -42zM524 1146q-67 0 -122 31.5t-87.5 84t-32.5 116.5t32.5 116.5t87.5 84
t122 31.5t122 -31.5t87.5 -84t32.5 -116.5t-32.5 -116.5t-87.5 -84t-122 -31.5zM524 1266q47 0 79.5 33t32.5 79q0 47 -32.5 79.5t-79.5 32.5q-46 0 -79 -32.5t-33 -79.5q0 -46 33 -79t79 -33zM456 1670l146 180h182l-188 -180h-140z" />
    <glyph glyph-name="AEacute" unicode="&#x1fc;" horiz-adv-x="1981" 
d="M20 0l675 1490h1216v-160h-789v-498h731v-160h-731v-512h789v-160h-969v448h-533l-200 -448h-189zM480 608h462v722h-140zM1237 1626l140 298h194l-192 -298h-142z" />
    <glyph glyph-name="aeacute" unicode="&#x1fd;" horiz-adv-x="1785" 
d="M472 -14q-186 0 -289 89.5t-103 228.5q0 151 127.5 236t353.5 85h205v103q0 86 -61.5 142t-172.5 56q-110 0 -180.5 -53.5t-76.5 -132.5h-173q5 97 60 172.5t150 119.5t220 44q128 0 214 -47.5t127 -130.5q64 85 157.5 133.5t206.5 48.5q147 0 255 -70t166.5 -195
t58.5 -289v-47h-790q6 -155 89 -252t233 -97q113 0 184.5 52t95.5 134h170q-20 -101 -83 -177.5t-157.5 -119.5t-209.5 -43q-135 0 -236.5 55.5t-163.5 151.5q-96 -197 -377 -197zM929 625h618q-14 139 -97 221t-213 82t-212 -82t-96 -221zM766 479h-205q-307 0 -307 -177
q0 -83 58.5 -123.5t159.5 -40.5q104 0 169 36.5t95 96.5t30 129v79zM785 1192l140 298h194l-192 -298h-142z" />
    <glyph glyph-name="Oslashacute" unicode="&#x1fe;" horiz-adv-x="1534" 
d="M767 -24q-197 0 -350 99t-240 272.5t-87 396.5q0 225 87 398.5t240 272.5t350 99q198 0 350.5 -99t239.5 -272.5t87 -398.5q0 -223 -87 -396.5t-239.5 -272.5t-350.5 -99zM767 144q135 0 248 69.5t181 203.5t68 327q0 194 -68 328.5t-181 204t-248 69.5t-248 -69.5
t-181 -204t-68 -328.5q0 -193 68 -327t181 -203.5t248 -69.5zM207 -55l-130 110l1249 1490l130 -110zM692 1626l140 298h194l-192 -298h-142z" />
    <glyph glyph-name="oslashacute" unicode="&#x1ff;" horiz-adv-x="1124" 
d="M562 -24q-146 0 -256.5 70.5t-172 194.5t-61.5 285q0 162 61.5 287t172 196t256.5 71q147 0 257 -71t171.5 -196t61.5 -287q0 -161 -61.5 -285t-171.5 -194.5t-257 -70.5zM562 130q150 0 234 108.5t84 287.5q0 181 -84.5 290.5t-233.5 109.5t-233.5 -109t-84.5 -291
q0 -180 84 -288t234 -108zM153 -46l-106 92l924 1056l106 -92zM487 1192l140 298h194l-192 -298h-142z" />
    <glyph glyph-name="uni0200" unicode="&#x200;" horiz-adv-x="1338" 
d="M20 0l550 1490h204l544 -1490h-192l-146 418h-622l-150 -418h-188zM415 578h510l-112 320q-28 79 -60.5 176.5t-80.5 246.5q-48 -149 -80.5 -246.5t-61.5 -176.5zM457 1626l-216 298h194l168 -298h-146zM747 1626l-172 298h194l120 -298h-142z" />
    <glyph glyph-name="uni0201" unicode="&#x201;" horiz-adv-x="1060" 
d="M448 -16q-157 0 -262.5 81t-105.5 239q0 91 35.5 148t95 89.5t135 49.5t154.5 27q101 14 159 21t82.5 23t24.5 56v10q0 86 -61.5 142t-172.5 56q-110 0 -180.5 -53.5t-76.5 -132.5h-173q5 97 60 172.5t150 119.5t220 44q185 0 293.5 -95.5t108.5 -252.5v-728h-168v150h-4
q-19 -38 -56 -76.5t-99.5 -64t-158.5 -25.5zM472 136q104 0 169 37.5t95 97.5t30 129v132q-19 -18 -101 -32.5t-173 -27.5q-61 -8 -115.5 -27.5t-88.5 -55t-34 -95.5q0 -74 58.5 -116t159.5 -42zM309 1192l-216 298h194l168 -298h-146zM599 1192l-172 298h194l120 -298h-142
z" />
    <glyph glyph-name="uni0202" unicode="&#x202;" horiz-adv-x="1338" 
d="M20 0l550 1490h204l544 -1490h-192l-146 418h-622l-150 -418h-188zM415 578h510l-112 320q-28 79 -60.5 176.5t-80.5 246.5q-48 -149 -80.5 -246.5t-61.5 -176.5zM672 1922q127 0 206 -79t79 -193h-128q0 65 -44 106.5t-113 41.5t-113 -41.5t-44 -106.5h-128
q0 114 79 193t206 79z" />
    <glyph glyph-name="uni0203" unicode="&#x203;" horiz-adv-x="1060" 
d="M448 -16q-157 0 -262.5 81t-105.5 239q0 91 35.5 148t95 89.5t135 49.5t154.5 27q101 14 159 21t82.5 23t24.5 56v10q0 86 -61.5 142t-172.5 56q-110 0 -180.5 -53.5t-76.5 -132.5h-173q5 97 60 172.5t150 119.5t220 44q185 0 293.5 -95.5t108.5 -252.5v-728h-168v150h-4
q-19 -38 -56 -76.5t-99.5 -64t-158.5 -25.5zM472 136q104 0 169 37.5t95 97.5t30 129v132q-19 -18 -101 -32.5t-173 -27.5q-61 -8 -115.5 -27.5t-88.5 -55t-34 -95.5q0 -74 58.5 -116t159.5 -42zM524 1488q127 0 206 -79t79 -193h-128q0 65 -44 106.5t-113 41.5t-113 -41.5
t-44 -106.5h-128q0 114 79 193t206 79z" />
    <glyph glyph-name="uni0204" unicode="&#x204;" horiz-adv-x="1187" 
d="M148 0v1490h969v-160h-789v-487h731v-160h-731v-523h789v-160h-969zM417 1626l-216 298h194l168 -298h-146zM707 1626l-172 298h194l120 -298h-142z" />
    <glyph glyph-name="uni0205" unicode="&#x205;" horiz-adv-x="1098" 
d="M562 -24q-155 0 -264.5 71t-167.5 195.5t-58 283.5q0 161 61 286t169 196.5t248 71.5q147 0 255 -70t166.5 -195t58.5 -289v-47h-790q6 -155 89 -252t233 -97q113 0 184.5 52t95.5 134h170q-20 -101 -83 -177.5t-157.5 -119.5t-209.5 -43zM242 625h618q-14 139 -97 221
t-213 82t-212 -82t-96 -221zM335 1192l-216 298h194l168 -298h-146zM625 1192l-172 298h194l120 -298h-142z" />
    <glyph glyph-name="uni0206" unicode="&#x206;" horiz-adv-x="1187" 
d="M148 0v1490h969v-160h-789v-487h731v-160h-731v-523h789v-160h-969zM632 1922q127 0 206 -79t79 -193h-128q0 65 -44 106.5t-113 41.5t-113 -41.5t-44 -106.5h-128q0 114 79 193t206 79z" />
    <glyph glyph-name="uni0207" unicode="&#x207;" horiz-adv-x="1098" 
d="M562 -24q-155 0 -264.5 71t-167.5 195.5t-58 283.5q0 161 61 286t169 196.5t248 71.5q147 0 255 -70t166.5 -195t58.5 -289v-47h-790q6 -155 89 -252t233 -97q113 0 184.5 52t95.5 134h170q-20 -101 -83 -177.5t-157.5 -119.5t-209.5 -43zM242 625h618q-14 139 -97 221
t-213 82t-212 -82t-96 -221zM550 1488q127 0 206 -79t79 -193h-128q0 65 -44 106.5t-113 41.5t-113 -41.5t-44 -106.5h-128q0 114 79 193t206 79z" />
    <glyph glyph-name="uni0208" unicode="&#x208;" horiz-adv-x="476" 
d="M328 1490v-1490h-180v1490h180zM23 1626l-216 298h194l168 -298h-146zM313 1626l-172 298h194l120 -298h-142z" />
    <glyph glyph-name="uni0209" unicode="&#x209;" horiz-adv-x="422" 
d="M126 0v1056h170v-1056h-170zM-4 1192l-216 298h194l168 -298h-146zM286 1192l-172 298h194l120 -298h-142z" />
    <glyph glyph-name="uni020A" unicode="&#x20a;" horiz-adv-x="476" 
d="M328 1490v-1490h-180v1490h180zM238 1922q127 0 206 -79t79 -193h-128q0 65 -44 106.5t-113 41.5t-113 -41.5t-44 -106.5h-128q0 114 79 193t206 79z" />
    <glyph glyph-name="uni020B" unicode="&#x20b;" horiz-adv-x="422" 
d="M126 0v1056h170v-1056h-170zM211 1488q127 0 206 -79t79 -193h-128q0 65 -44 106.5t-113 41.5t-113 -41.5t-44 -106.5h-128q0 114 79 193t206 79z" />
    <glyph glyph-name="uni020C" unicode="&#x20c;" horiz-adv-x="1534" 
d="M767 -24q-197 0 -350 99t-240 272.5t-87 396.5q0 225 87 398.5t240 272.5t350 99q198 0 350.5 -99t239.5 -272.5t87 -398.5q0 -223 -87 -396.5t-239.5 -272.5t-350.5 -99zM767 144q135 0 248 69.5t181 203.5t68 327q0 194 -68 328.5t-181 204t-248 69.5t-248 -69.5
t-181 -204t-68 -328.5q0 -193 68 -327t181 -203.5t248 -69.5zM552 1626l-216 298h194l168 -298h-146zM842 1626l-172 298h194l120 -298h-142z" />
    <glyph glyph-name="uni020D" unicode="&#x20d;" horiz-adv-x="1124" 
d="M562 -24q-146 0 -256.5 70.5t-172 194.5t-61.5 285q0 162 61.5 287t172 196t256.5 71q147 0 257 -71t171.5 -196t61.5 -287q0 -161 -61.5 -285t-171.5 -194.5t-257 -70.5zM562 130q150 0 234 108.5t84 287.5q0 181 -84.5 290.5t-233.5 109.5t-233.5 -109t-84.5 -291
q0 -180 84 -288t234 -108zM347 1192l-216 298h194l168 -298h-146zM637 1192l-172 298h194l120 -298h-142z" />
    <glyph glyph-name="uni020E" unicode="&#x20e;" horiz-adv-x="1534" 
d="M767 -24q-197 0 -350 99t-240 272.5t-87 396.5q0 225 87 398.5t240 272.5t350 99q198 0 350.5 -99t239.5 -272.5t87 -398.5q0 -223 -87 -396.5t-239.5 -272.5t-350.5 -99zM767 144q135 0 248 69.5t181 203.5t68 327q0 194 -68 328.5t-181 204t-248 69.5t-248 -69.5
t-181 -204t-68 -328.5q0 -193 68 -327t181 -203.5t248 -69.5zM767 1922q127 0 206 -79t79 -193h-128q0 65 -44 106.5t-113 41.5t-113 -41.5t-44 -106.5h-128q0 114 79 193t206 79z" />
    <glyph glyph-name="uni020F" unicode="&#x20f;" horiz-adv-x="1124" 
d="M562 -24q-146 0 -256.5 70.5t-172 194.5t-61.5 285q0 162 61.5 287t172 196t256.5 71q147 0 257 -71t171.5 -196t61.5 -287q0 -161 -61.5 -285t-171.5 -194.5t-257 -70.5zM562 130q150 0 234 108.5t84 287.5q0 181 -84.5 290.5t-233.5 109.5t-233.5 -109t-84.5 -291
q0 -180 84 -288t234 -108zM562 1488q127 0 206 -79t79 -193h-128q0 65 -44 106.5t-113 41.5t-113 -41.5t-44 -106.5h-128q0 114 79 193t206 79z" />
    <glyph glyph-name="uni0210" unicode="&#x210;" horiz-adv-x="1295" 
d="M148 0v1490h553q233 0 369.5 -121.5t136.5 -330.5q0 -159 -85.5 -269t-231.5 -155l335 -614h-210l-314 585h-14h-359v-585h-180zM328 745h369q155 0 243.5 78.5t88.5 214.5t-89.5 214t-244.5 78h-367v-585zM427 1626l-216 298h194l168 -298h-146zM717 1626l-172 298h194
l120 -298h-142z" />
    <glyph glyph-name="uni0211" unicode="&#x211;" horiz-adv-x="660" 
d="M126 0v1056h162v-166h4q29 82 92 132t162 50q23 0 42.5 -2t29.5 -4v-170q-10 3 -38.5 7.5t-65.5 4.5q-88 0 -153 -62t-65 -196v-650h-170zM152 1192l-216 298h194l168 -298h-146zM442 1192l-172 298h194l120 -298h-142z" />
    <glyph glyph-name="uni0212" unicode="&#x212;" horiz-adv-x="1295" 
d="M148 0v1490h553q233 0 369.5 -121.5t136.5 -330.5q0 -159 -85.5 -269t-231.5 -155l335 -614h-210l-314 585h-14h-359v-585h-180zM328 745h369q155 0 243.5 78.5t88.5 214.5t-89.5 214t-244.5 78h-367v-585zM642 1922q127 0 206 -79t79 -193h-128q0 65 -44 106.5
t-113 41.5t-113 -41.5t-44 -106.5h-128q0 114 79 193t206 79z" />
    <glyph glyph-name="uni0213" unicode="&#x213;" horiz-adv-x="660" 
d="M126 0v1056h162v-166h4q29 82 92 132t162 50q23 0 42.5 -2t29.5 -4v-170q-10 3 -38.5 7.5t-65.5 4.5q-88 0 -153 -62t-65 -196v-650h-170zM367 1488q127 0 206 -79t79 -193h-128q0 65 -44 106.5t-113 41.5t-113 -41.5t-44 -106.5h-128q0 114 79 193t206 79z" />
    <glyph glyph-name="uni0214" unicode="&#x214;" horiz-adv-x="1440" 
d="M720 -24q-175 0 -305.5 69t-202.5 188.5t-72 272.5v984h180v-970q0 -109 48 -194t138 -133.5t214 -48.5q125 0 214.5 48.5t137.5 133.5t48 194v970h180v-984q0 -153 -72 -272.5t-202 -188.5t-306 -69zM505 1626l-216 298h194l168 -298h-146zM795 1626l-172 298h194
l120 -298h-142z" />
    <glyph glyph-name="uni0215" unicode="&#x215;" horiz-adv-x="1120" 
d="M514 -20q-106 0 -194.5 46.5t-141 140t-52.5 233.5v656h170v-644q0 -137 66 -206.5t184 -69.5q116 0 197 71t81 231v618h170v-1056h-166v155q-55 -90 -134.5 -132.5t-179.5 -42.5zM345 1192l-216 298h194l168 -298h-146zM635 1192l-172 298h194l120 -298h-142z" />
    <glyph glyph-name="uni0216" unicode="&#x216;" horiz-adv-x="1440" 
d="M720 -24q-175 0 -305.5 69t-202.5 188.5t-72 272.5v984h180v-970q0 -109 48 -194t138 -133.5t214 -48.5q125 0 214.5 48.5t137.5 133.5t48 194v970h180v-984q0 -153 -72 -272.5t-202 -188.5t-306 -69zM720 1922q127 0 206 -79t79 -193h-128q0 65 -44 106.5t-113 41.5
t-113 -41.5t-44 -106.5h-128q0 114 79 193t206 79z" />
    <glyph glyph-name="uni0217" unicode="&#x217;" horiz-adv-x="1120" 
d="M514 -20q-106 0 -194.5 46.5t-141 140t-52.5 233.5v656h170v-644q0 -137 66 -206.5t184 -69.5q116 0 197 71t81 231v618h170v-1056h-166v155q-55 -90 -134.5 -132.5t-179.5 -42.5zM560 1488q127 0 206 -79t79 -193h-128q0 65 -44 106.5t-113 41.5t-113 -41.5t-44 -106.5
h-128q0 114 79 193t206 79z" />
    <glyph glyph-name="uni0218" unicode="&#x218;" horiz-adv-x="1258" 
d="M640 -24q-172 0 -298 61.5t-195 174.5t-69 268h184q0 -160 99.5 -250t278.5 -90q163 0 261.5 71t98.5 191q0 93 -67 151t-228 98l-167 41q-228 56 -329 150t-101 246q0 129 63.5 224.5t179.5 148.5t271 53q233 0 371.5 -124.5t144.5 -339.5h-178q-8 140 -100 219.5
t-244 79.5q-145 0 -237.5 -70.5t-92.5 -181.5q0 -87 68.5 -141.5t230.5 -95.5l169 -42q218 -54 322 -153t104 -255q0 -129 -67.5 -227t-189 -152.5t-283.5 -54.5zM463 -494l80 376h176l-124 -376h-132z" />
    <glyph glyph-name="uni0219" unicode="&#x219;" horiz-adv-x="972" 
d="M494 -24q-113 0 -205 37t-149 112.5t-64 190.5h168q18 -194 246 -194q110 0 173.5 46t63.5 116q0 60 -44 96t-115 52l-170 40q-298 70 -298 300q0 90 48.5 159.5t135 109t199.5 39.5q110 0 197.5 -41.5t139 -117.5t54.5 -181h-166q-1 84 -62 139t-163 55q-97 0 -155 -47
t-58 -115q0 -60 44 -96.5t120 -54.5l170 -40q152 -36 223 -107.5t71 -185.5q0 -98 -53 -168t-144.5 -107t-206.5 -37zM317 -494l80 376h176l-124 -376h-132z" />
    <glyph glyph-name="uni021A.1" unicode="&#x21a;" horiz-adv-x="1250" 
d="M50 1330v160h1150v-160h-484v-1330h-180v1330h-486zM456 -494l80 376h176l-124 -376h-132z" />
    <glyph glyph-name="uni021B" unicode="&#x21b;" horiz-adv-x="637" 
d="M587 1056v-146h-214v-654q0 -61 25.5 -85.5t90.5 -24.5h98v-146h-114q-270 0 -270 238v672h-188v146h188v288h170v-288h214zM217 -494l80 376h176l-124 -376h-132z" />
    <glyph glyph-name="uni021C" unicode="&#x21c;" horiz-adv-x="1228" 
d="M190 338v150q228 69 387 148.5t242 183.5t83 244q0 133 -76 205.5t-216 72.5q-139 0 -221.5 -66t-82.5 -170h-208q1 124 67 214.5t181.5 140t263.5 49.5q144 0 256.5 -49.5t177 -144.5t64.5 -232q0 -102 -39.5 -193.5t-111.5 -171.5q84 -54 129.5 -150.5t45.5 -242.5
q0 -178 -70 -304.5t-197 -213t-299 -145t-376 -99.5v166q231 47 395 117.5t250.5 188t86.5 304.5q0 97 -20.5 163t-66.5 106q-123 -92 -288 -161t-357 -110z" />
    <glyph glyph-name="uni021D" unicode="&#x21d;" horiz-adv-x="1042" 
d="M186 210v148q258 62 397 172t139 254q0 91 -51 139.5t-149 48.5q-101 0 -161.5 -52t-60.5 -140h-198q0 161 116 256.5t312 95.5q180 0 286 -91.5t106 -246.5q0 -153 -118 -285q138 -107 138 -331q0 -515 -756 -614v156q298 66 427 175t129 295q0 134 -61 211
q-94 -65 -219 -114t-276 -77z" />
    <glyph glyph-name="uni021E" unicode="&#x21e;" horiz-adv-x="1450" 
d="M148 0v1490h180v-647h794v647h180v-1490h-180v683h-794v-683h-180zM581 1924l144 -176l142 176h172v-1l-232 -273h-166l-230 273v1h170z" />
    <glyph glyph-name="uni021F" unicode="&#x21f;" horiz-adv-x="1120" 
d="M296 618v-618h-170v1490h170v-582q55 86 133.5 127t176.5 41q107 0 195 -46.5t140.5 -139.5t52.5 -234v-656h-170v644q0 137 -65.5 206.5t-184.5 69.5q-115 0 -196.5 -71t-81.5 -231zM67 1924l144 -176l142 176h172v-1l-232 -273h-166l-230 273v1h170z" />
    <glyph glyph-name="uni0220" unicode="&#x220;" horiz-adv-x="1228" 
d="M1144 -416h-202v1434q1 170 -89.5 248t-256.5 78q-88 0 -167 -20t-143 -54v-1270h-198v1490h198v-60q65 34 148.5 57t179.5 23q138 0 259 -54.5t196 -163.5t75 -274v-1434z" />
    <glyph glyph-name="uni0221" unicode="&#x221;" horiz-adv-x="1478" 
d="M1170 -418q-118 0 -186.5 53t-97.5 127l-142 -144l-110 114l228 234v191q-57 -90 -143.5 -133.5t-188.5 -43.5q-137 0 -240.5 69.5t-160.5 193t-57 285.5q0 163 57 286.5t160.5 192.5t240.5 69q103 0 191 -43.5t139 -132.5h2v590h170v-1410q77 30 152 30q120 0 200 -72
t80 -192q0 -118 -79.5 -191t-214.5 -73zM556 133q147 0 233.5 108t86.5 287t-86.5 287.5t-233.5 108.5q-137 0 -224.5 -101t-87.5 -295t87.5 -294.5t224.5 -100.5zM1032 -91v-29q0 -73 41.5 -111.5t96.5 -38.5q52 0 84 33t32 83q0 46 -26.5 76.5t-71.5 37.5q-48 7 -86.5 -8
t-69.5 -43z" />
    <glyph glyph-name="uni0222" unicode="&#x222;" horiz-adv-x="1228" 
d="M594 896h40q92 0 168.5 15.5t123 65.5t46.5 151q0 97 -47.5 149t-142.5 75v158q111 -6 201 -48.5t142.5 -125t52.5 -208.5q0 -128 -56 -207.5t-148 -121.5q94 -55 149 -146t55 -217q0 -154 -73 -255t-198 -151t-281 -50h-24q-155 0 -280.5 49.5t-198.5 150.5t-73 254
q0 127 55 218.5t150 146.5q-93 42 -149 121.5t-56 207.5q0 126 53.5 208.5t143.5 125t199 48.5v-158q-94 -23 -142 -75t-48 -149q0 -101 47 -151t123.5 -65.5t167.5 -15.5zM626 724h-24q-157 0 -251.5 -71t-94.5 -219t94.5 -215t251.5 -67h24q157 -1 251.5 66.5t94.5 217.5
q0 146 -94.5 217t-251.5 71z" />
    <glyph glyph-name="uni0223" unicode="&#x223;" horiz-adv-x="1228" 
d="M634 888q92 0 169 21.5t124 77t47 157.5q0 109 -48.5 168t-143.5 96v148q110 -4 199 -53t142 -139.5t53 -219.5q0 -130 -58 -213.5t-153 -128.5q97 -54 154 -145.5t57 -220.5q0 -154 -72.5 -255t-197 -151t-280.5 -50h-24q-155 0 -280 49.5t-197.5 150.5t-72.5 254
q0 130 57 222t155 146q-96 45 -154 128.5t-58 213.5q0 129 53 219.5t142.5 139.5t198.5 53v-148q-94 -37 -143 -96t-49 -168q0 -102 47.5 -157.5t124.5 -77t168 -21.5h40zM626 728h-24q-157 -1 -252.5 -73.5t-95.5 -220.5t95.5 -221t252.5 -73h24q155 0 251.5 73t96.5 223
q0 146 -96.5 218.5t-251.5 73.5z" />
    <glyph glyph-name="uni0224" unicode="&#x224;" horiz-adv-x="1256" 
d="M804 -418v156h100q64 0 89 23.5t25 76.5v162h-960v152l779 1001q34 44 69.5 88.5t72.5 88.5h-889v160h1100v-152l-762 -979q-78 -101 -159 -199h929v-330q0 -121 -72.5 -184.5t-211.5 -63.5h-110z" />
    <glyph glyph-name="uni0225" unicode="&#x225;" horiz-adv-x="980" 
d="M844 -208v30q0 71 -27 124.5t-115 53.5h-608v130l578 770v4h-578v152h788v-136l-572 -764v-4h392q142 0 220 -80.5t78 -205.5v-74h-156z" />
    <glyph glyph-name="uni0226" unicode="&#x226;" horiz-adv-x="1338" 
d="M20 0l550 1490h204l544 -1490h-192l-146 418h-622l-150 -418h-188zM415 578h510l-112 320q-28 79 -60.5 176.5t-80.5 246.5q-48 -149 -80.5 -246.5t-61.5 -176.5zM672 1696q-48 0 -82 34t-34 82t34 82t82 34t82 -34t34 -82t-34 -82t-82 -34z" />
    <glyph glyph-name="uni0227" unicode="&#x227;" horiz-adv-x="1060" 
d="M448 -16q-157 0 -262.5 81t-105.5 239q0 91 35.5 148t95 89.5t135 49.5t154.5 27q101 14 159 21t82.5 23t24.5 56v10q0 86 -61.5 142t-172.5 56q-110 0 -180.5 -53.5t-76.5 -132.5h-173q5 97 60 172.5t150 119.5t220 44q185 0 293.5 -95.5t108.5 -252.5v-728h-168v150h-4
q-19 -38 -56 -76.5t-99.5 -64t-158.5 -25.5zM472 136q104 0 169 37.5t95 97.5t30 129v132q-19 -18 -101 -32.5t-173 -27.5q-61 -8 -115.5 -27.5t-88.5 -55t-34 -95.5q0 -74 58.5 -116t159.5 -42zM524 1262q-48 0 -82 34t-34 82t34 82t82 34t82 -34t34 -82t-34 -82t-82 -34z
" />
    <glyph glyph-name="uni0228" unicode="&#x228;" horiz-adv-x="1187" 
d="M148 0v1490h969v-160h-789v-487h731v-160h-731v-523h789v-160h-969zM532 -418v104h117q99 0 99 66t-99 66h-81l30 230h93v-134q86 -4 137 -47.5t51 -114.5q0 -88 -63 -129t-167 -41h-117z" />
    <glyph glyph-name="uni0229" unicode="&#x229;" horiz-adv-x="1098" 
d="M562 -24q-155 0 -264.5 71t-167.5 195.5t-58 283.5q0 161 61 286t169 196.5t248 71.5q147 0 255 -70t166.5 -195t58.5 -289v-47h-790q6 -155 89 -252t233 -97q113 0 184.5 52t95.5 134h170q-20 -101 -83 -177.5t-157.5 -119.5t-209.5 -43zM242 625h618q-14 139 -97 221
t-213 82t-212 -82t-96 -221zM445 -418v104h117q99 0 99 66t-99 66h-81l30 230h93v-134q86 -4 137 -47.5t51 -114.5q0 -88 -63 -129t-167 -41h-117z" />
    <glyph glyph-name="uni022A" unicode="&#x22a;" horiz-adv-x="1534" 
d="M767 -24q-197 0 -350 99t-240 272.5t-87 396.5q0 225 87 398.5t240 272.5t350 99q198 0 350.5 -99t239.5 -272.5t87 -398.5q0 -223 -87 -396.5t-239.5 -272.5t-350.5 -99zM767 144q135 0 248 69.5t181 203.5t68 327q0 194 -68 328.5t-181 204t-248 69.5t-248 -69.5
t-181 -204t-68 -328.5q0 -193 68 -327t181 -203.5t248 -69.5zM1043 2121v-126h-552v126h552zM550 1646q-48 0 -82 34t-34 82t34 82t82 34t82 -34t34 -82t-34 -82t-82 -34zM968 1646q-48 0 -82 34t-34 82t34 82t82 34t82 -34t34 -82t-34 -82t-82 -34z" />
    <glyph glyph-name="uni022B" unicode="&#x22b;" horiz-adv-x="1124" 
d="M562 -24q-146 0 -256.5 70.5t-172 194.5t-61.5 285q0 162 61.5 287t172 196t256.5 71q147 0 257 -71t171.5 -196t61.5 -287q0 -161 -61.5 -285t-171.5 -194.5t-257 -70.5zM562 130q150 0 234 108.5t84 287.5q0 181 -84.5 290.5t-233.5 109.5t-233.5 -109t-84.5 -291
q0 -180 84 -288t234 -108zM838 1687v-126h-552v126h552zM345 1212q-48 0 -82 34t-34 82t34 82t82 34t82 -34t34 -82t-34 -82t-82 -34zM763 1212q-48 0 -82 34t-34 82t34 82t82 34t82 -34t34 -82t-34 -82t-82 -34z" />
    <glyph glyph-name="uni022C" unicode="&#x22c;" horiz-adv-x="1534" 
d="M767 -24q-197 0 -350 99t-240 272.5t-87 396.5q0 225 87 398.5t240 272.5t350 99q198 0 350.5 -99t239.5 -272.5t87 -398.5q0 -223 -87 -396.5t-239.5 -272.5t-350.5 -99zM767 144q135 0 248 69.5t181 203.5t68 327q0 194 -68 328.5t-181 204t-248 69.5t-248 -69.5
t-181 -204t-68 -328.5q0 -193 68 -327t181 -203.5t248 -69.5zM897 1644q-48 0 -94 20.5t-84 40.5t-63 20q-26 0 -38 -25t-14 -53h-123q3 88 41 146t117 58q51 0 93 -21t78 -42t69 -21q45 0 55 80h119q-3 -92 -43.5 -147.5t-112.5 -55.5zM1042 2121v-126h-552v126h552z" />
    <glyph glyph-name="uni022D" unicode="&#x22d;" horiz-adv-x="1124" 
d="M562 -24q-146 0 -256.5 70.5t-172 194.5t-61.5 285q0 162 61.5 287t172 196t256.5 71q147 0 257 -71t171.5 -196t61.5 -287q0 -161 -61.5 -285t-171.5 -194.5t-257 -70.5zM562 130q150 0 234 108.5t84 287.5q0 181 -84.5 290.5t-233.5 109.5t-233.5 -109t-84.5 -291
q0 -180 84 -288t234 -108zM692 1210q-48 0 -94 20.5t-84 40.5t-63 20q-26 0 -38 -25t-14 -53h-123q3 88 41 146t117 58q51 0 93 -21t78 -42t69 -21q45 0 55 80h119q-3 -92 -43.5 -147.5t-112.5 -55.5zM837 1687v-126h-552v126h552z" />
    <glyph glyph-name="uni022E" unicode="&#x22e;" horiz-adv-x="1534" 
d="M767 -24q-197 0 -350 99t-240 272.5t-87 396.5q0 225 87 398.5t240 272.5t350 99q198 0 350.5 -99t239.5 -272.5t87 -398.5q0 -223 -87 -396.5t-239.5 -272.5t-350.5 -99zM767 144q135 0 248 69.5t181 203.5t68 327q0 194 -68 328.5t-181 204t-248 69.5t-248 -69.5
t-181 -204t-68 -328.5q0 -193 68 -327t181 -203.5t248 -69.5zM767 1696q-48 0 -82 34t-34 82t34 82t82 34t82 -34t34 -82t-34 -82t-82 -34z" />
    <glyph glyph-name="uni022F" unicode="&#x22f;" horiz-adv-x="1124" 
d="M562 -24q-146 0 -256.5 70.5t-172 194.5t-61.5 285q0 162 61.5 287t172 196t256.5 71q147 0 257 -71t171.5 -196t61.5 -287q0 -161 -61.5 -285t-171.5 -194.5t-257 -70.5zM562 130q150 0 234 108.5t84 287.5q0 181 -84.5 290.5t-233.5 109.5t-233.5 -109t-84.5 -291
q0 -180 84 -288t234 -108zM562 1262q-48 0 -82 34t-34 82t34 82t82 34t82 -34t34 -82t-34 -82t-82 -34z" />
    <glyph glyph-name="uni0230" unicode="&#x230;" horiz-adv-x="1534" 
d="M767 -24q-197 0 -350 99t-240 272.5t-87 396.5q0 225 87 398.5t240 272.5t350 99q198 0 350.5 -99t239.5 -272.5t87 -398.5q0 -223 -87 -396.5t-239.5 -272.5t-350.5 -99zM767 144q135 0 248 69.5t181 203.5t68 327q0 194 -68 328.5t-181 204t-248 69.5t-248 -69.5
t-181 -204t-68 -328.5q0 -193 68 -327t181 -203.5t248 -69.5zM1043 2121v-126h-552v126h552zM767 1646q-48 0 -82 34t-34 82t34 82t82 34t82 -34t34 -82t-34 -82t-82 -34z" />
    <glyph glyph-name="uni0231" unicode="&#x231;" horiz-adv-x="1124" 
d="M562 -24q-146 0 -256.5 70.5t-172 194.5t-61.5 285q0 162 61.5 287t172 196t256.5 71q147 0 257 -71t171.5 -196t61.5 -287q0 -161 -61.5 -285t-171.5 -194.5t-257 -70.5zM562 130q150 0 234 108.5t84 287.5q0 181 -84.5 290.5t-233.5 109.5t-233.5 -109t-84.5 -291
q0 -180 84 -288t234 -108zM838 1687v-126h-552v126h552zM562 1212q-48 0 -82 34t-34 82t34 82t82 34t82 -34t34 -82t-34 -82t-82 -34z" />
    <glyph glyph-name="uni0232" unicode="&#x232;" horiz-adv-x="1316" 
d="M568 0v614l-548 876h208l299 -482q35 -55 67.5 -110.5t64.5 -110.5q32 55 65 110.5t67 110.5l298 482h207l-548 -876v-614h-180zM934 1850v-140h-552v140h552z" />
    <glyph glyph-name="uni0233" unicode="&#x233;" horiz-adv-x="1048" 
d="M134 -418v150h104q94 0 143 127l58 150l-409 1047h184l228 -608q22 -59 43.5 -118.5t41.5 -118.5q21 59 42.5 118.5t43.5 118.5l224 608h181l-487 -1252q-41 -106 -117 -164t-176 -58h-104zM800 1416v-140h-552v140h552z" />
    <glyph glyph-name="uni0234" unicode="&#x234;" horiz-adv-x="742" 
d="M434 -418q-118 0 -186.5 53t-97.5 127l-142 -144l-110 114l228 234v1524h170v-1410q77 30 152 30q120 0 200 -72t80 -192q0 -118 -79.5 -191t-214.5 -73zM296 -91v-29q0 -73 41.5 -111.5t96.5 -38.5q52 0 84 33t32 83q0 46 -26.5 76.5t-71.5 37.5q-48 7 -86.5 -8
t-69.5 -43z" />
    <glyph glyph-name="uni0235" unicode="&#x235;" horiz-adv-x="1440" 
d="M1132 -418q-118 0 -186.5 53t-97.5 127l-142 -144l-110 114l228 234v678q0 137 -65.5 206.5t-184.5 69.5q-115 0 -196.5 -71t-81.5 -231v-618h-170v1056h166v-155q55 90 134.5 132.5t179.5 42.5q107 0 195 -46.5t140.5 -139.5t52.5 -234v-576q77 30 152 30q120 0 200 -72
t80 -192q0 -118 -79.5 -191t-214.5 -73zM994 -91v-29q0 -73 41.5 -111.5t96.5 -38.5q52 0 84 33t32 83q0 46 -26.5 76.5t-71.5 37.5q-48 7 -86.5 -8t-69.5 -43z" />
    <glyph glyph-name="uni0236" unicode="&#x236;" horiz-adv-x="803" 
d="M477 -18q-118 0 -186.5 53t-97.5 127l-142 -144l-110 114l228 234v544h-154v146h154v288h170v-288h214v-146h-214v-430q77 30 152 30q120 0 200 -72t80 -192q0 -118 -79.5 -191t-214.5 -73zM339 309v-29q0 -73 41.5 -111.5t96.5 -38.5q52 0 84 33t32 83q0 46 -26.5 76.5
t-71.5 37.5q-48 7 -86.5 -8t-69.5 -43z" />
    <glyph glyph-name="uni0237" unicode="&#x237;" horiz-adv-x="422" 
d="M126 1056h170v-1204q0 -115 -72 -192.5t-206 -77.5h-74v150h58q65 0 94.5 35t29.5 111v1178z" />
    <glyph glyph-name="uni0238" unicode="&#x238;" horiz-adv-x="1784" 
d="M1714 564v-20q0 -164 -53.5 -291.5t-152.5 -200t-236 -72.5q-174 0 -280 122v-102h-184l-8 111q-108 -131 -290 -131q-136 0 -235 72.5t-152 200t-53 291.5v20q0 172 52.5 299.5t150 198t233.5 70.5q178 0 286 -123v481h200v-481q108 123 286 123q136 0 233 -70.5
t150 -198t53 -299.5zM270 564v-20q1 -112 28 -202t87.5 -143t160.5 -53q92 0 151 44t95 115v512q-36 66 -95.5 107.5t-146.5 41.5q-101 0 -162.5 -54t-89 -145t-28.5 -203zM1512 544v20q1 112 -26.5 203t-89 145t-162.5 54q-87 0 -146.5 -41t-95.5 -107v-515
q36 -71 95.5 -114t150.5 -43q101 0 161 53t87 143t26 202z" />
    <glyph glyph-name="uni0239" unicode="&#x239;" horiz-adv-x="1784" 
d="M792 -416v518q-107 -122 -282 -122q-136 0 -235 72.5t-152 200t-53 291.5v20q0 172 52.5 299.5t150 198t233.5 70.5q184 0 293 -132l9 118h166l10 -118q109 132 294 132q136 0 233 -70.5t150 -198t53 -299.5v-20q0 -164 -53.5 -291.5t-152.5 -200t-236 -72.5
q-174 0 -280 122v-518h-200zM270 564v-20q1 -112 28 -202t87.5 -143t160.5 -53q92 0 151 44t95 115v512q-36 66 -95.5 107.5t-146.5 41.5q-101 0 -162.5 -54t-89 -145t-28.5 -203zM1512 544v20q1 112 -26.5 203t-89 145t-162.5 54q-87 0 -146.5 -41t-95.5 -107v-515
q36 -71 95.5 -114t150.5 -43q101 0 161 53t87 143t26 202z" />
    <glyph glyph-name="uni023A" unicode="&#x23a;" horiz-adv-x="1338" 
d="M1112 1678l-201 -564l407 -1114h-192l-146 418h-316l-216 -608h-166l216 608h-140l-150 -418h-188l550 1490h204l53 -146l119 334h166zM555 578l187 527q-31 93 -70 216q-48 -149 -80.5 -246.5t-61.5 -176.5l-115 -320h140zM824 867l-103 -289h204z" />
    <glyph glyph-name="uni023B" unicode="&#x23b;" horiz-adv-x="1479" 
d="M306 -190l97 275q-147 97 -230 268.5t-83 390.5q0 226 86 399.5t241.5 272t361.5 98.5q65 0 127 -11l62 175h166l-79 -222q131 -59 220.5 -174.5t117.5 -273.5h-184q-22 101 -77 174t-133 114l-398 -1122q82 -30 178 -30q161 0 277 87t154 249h183q-27 -155 -113 -268
t-215.5 -174.5t-285.5 -61.5q-125 0 -235 38l-72 -204h-166zM463 254l386 1088q-34 4 -70 4q-157 0 -271 -76.5t-176 -212t-62 -313.5q0 -159 50.5 -285t142.5 -205z" />
    <glyph glyph-name="uni023C" unicode="&#x23c;" horiz-adv-x="1071" 
d="M88 -418l193 481q-98 71 -153.5 191t-55.5 272q0 162 61.5 287t172 196t256.5 71q62 0 120 -14l170 424h138l-188 -471q84 -48 137.5 -128t67.5 -179h-172q-20 101 -93 158l-288 -722q50 -18 108 -18q119 0 182 58.5t88 155.5h175q-14 -104 -74.5 -187.5t-156 -132
t-214.5 -48.5q-88 0 -166 27l-168 -421h-140zM343 220l281 701q-29 5 -62 5q-149 0 -233.5 -109t-84.5 -291q0 -199 99 -306z" />
    <glyph glyph-name="uni023D" unicode="&#x23d;" horiz-adv-x="1165" 
d="M217 0v1490h180v-1330h718v-160h-898zM15 665v160h808v-160h-808z" />
    <glyph glyph-name="uni023E" unicode="&#x23e;" horiz-adv-x="1250" 
d="M176 -209l360 901v638h-486v160h805l83 209h140l-83 -209h205v-160h-269l-215 -537v-793h-180v342l-220 -551h-140zM716 1143l75 187h-75v-187z" />
    <glyph glyph-name="uni023F" unicode="&#x23f;" horiz-adv-x="972" 
d="M494 -24q-57 0 -108 9q61 -104 100 -160.5t67 -77.5t57 -21q40 0 77 24t61 46l66 -116q-32 -33 -88.5 -65.5t-115.5 -32.5q-95 0 -162.5 61t-129.5 171l-169 301q-66 81 -73 201h168q18 -194 246 -194q110 0 173.5 46t63.5 116q0 60 -44 96t-115 52l-170 40
q-298 70 -298 300q0 90 48.5 159.5t135 109t199.5 39.5q110 0 197.5 -41.5t139 -117.5t54.5 -181h-166q-1 84 -62 139t-163 55q-97 0 -155 -47t-58 -115q0 -60 44 -96.5t120 -54.5l170 -40q152 -36 223 -107.5t71 -185.5q0 -98 -53 -168t-144.5 -107t-206.5 -37z" />
    <glyph glyph-name="uni0240" unicode="&#x240;" horiz-adv-x="980" 
d="M94 0v130l578 770v4h-578v152h788v-136l-572 -764v-4h38q105 0 173.5 -19.5t125 -72.5t125.5 -154q54 -78 84 -114.5t50.5 -47t44.5 -10.5q46 0 95 27l73 -133q-38 -21 -82.5 -33.5t-85.5 -12.5q-74 0 -143 52.5t-161 185.5q-55 80 -93 118.5t-83 50t-123 11.5h-254z" />
    <glyph glyph-name="uni0241" unicode="&#x241;" horiz-adv-x="1042" 
d="M450 454h44q114 0 176 53.5t86 137.5t24 175v148q0 91 -24.5 175t-86.5 138.5t-175 54.5q-109 0 -173 -64.5t-71 -169.5h-194q4 117 59.5 209t152.5 145.5t226 53.5q166 0 275 -75.5t163 -198.5t54 -268v-148q0 -126 -41.5 -237.5t-125.5 -189t-211 -102.5v-291h-210v454
h52z" />
    <glyph glyph-name="uni0242" unicode="&#x242;" horiz-adv-x="1042" 
d="M108 702q0 206 118 318t304 112q188 0 296 -107.5t108 -314.5q0 -147 -68.5 -250.5t-231.5 -129.5v-330h-200v448h92q116 0 163 70t47 182q0 116 -47.5 194t-160.5 78q-106 0 -163 -73t-57 -197h-200z" />
    <glyph glyph-name="uni0243" unicode="&#x243;" horiz-adv-x="1337" 
d="M178 0v1490h538q224 0 352 -107t128 -289q0 -128 -64 -206t-178 -116v-2q127 -21 215 -106.5t88 -245.5q0 -191 -132 -304.5t-401 -113.5h-546zM358 160h366q169 0 259.5 63.5t90.5 187.5t-88 195.5t-252 71.5h-376v-518zM358 836h365q139 0 217 66.5t78 180.5t-78 180.5
t-217 66.5h-365v-494zM-2 346v146h608v-146h-608z" />
    <glyph glyph-name="uni0244" unicode="&#x244;" horiz-adv-x="1454" 
d="M1492 864v-120h-192v-238q0 -153 -72 -272.5t-202 -188.5t-306 -69q-175 0 -305.5 69t-202.5 188.5t-72 272.5v238h-178v120h178v626h180v-626h800v626h180v-626h192zM1120 744h-800v-224q0 -109 48 -194t138 -133.5t214 -48.5q125 0 214.5 48.5t137.5 133.5t48 194v224z
" />
    <glyph glyph-name="uni0245" unicode="&#x245;" horiz-adv-x="1414" 
d="M1112 0l-406 1212l-400 -1212h-228l538 1490h182l540 -1490h-226z" />
    <glyph glyph-name="uni0246" unicode="&#x246;" horiz-adv-x="1187" 
d="M290 -190l55 190h-197v1490h628l54 188h164l-54 -188h177v-160h-223l-140 -487h305v-160h-352l-150 -523h560v-160h-606l-55 -190h-166zM589 843l140 487h-401v-487h261zM391 160l151 523h-214v-523h63z" />
    <glyph glyph-name="uni0247" unicode="&#x247;" horiz-adv-x="1098" 
d="M102 -418l188 470q-105 70 -161.5 194t-56.5 280q0 161 61 286t169 196.5t248 71.5q76 0 144 -20l172 430h138l-193 -484q104 -69 161.5 -193.5t57.5 -286.5v-47h-430l-134 -337q45 -12 96 -12q113 0 184.5 52t95.5 134h170q-20 -101 -83 -177.5t-157.5 -119.5
t-209.5 -43q-82 0 -154 22l-166 -416h-140zM520 625l117 292q-41 11 -87 11q-130 0 -212 -82t-96 -221h278zM351 205l110 274h-221q7 -180 111 -274zM751 857l-92 -232h201q-15 150 -109 232z" />
    <glyph glyph-name="uni0248" unicode="&#x248;" horiz-adv-x="1175" 
d="M515 -20q-194 0 -317 115t-123 329v80h180v-80q0 -139 71.5 -211.5t188.5 -72.5t188.5 72.5t71.5 211.5v1066h180v-1066q0 -214 -123 -329t-317 -115zM561 811v146h608v-146h-608z" />
    <glyph glyph-name="uni0249" unicode="&#x249;" horiz-adv-x="422" 
d="M126 1056h170v-1204q0 -115 -72 -192.5t-206 -77.5h-74v150h58q65 0 94.5 35t29.5 111v1178zM-110 575v146h640v-146h-640zM211 1262q-48 0 -82 34t-34 82t34 82t82 34t82 -34t34 -82t-34 -82t-82 -34z" />
    <glyph glyph-name="Q_rthook" unicode="&#x24a;" horiz-adv-x="1534" 
d="M1386 1490v-1660q0 -53 25 -76.5t89 -23.5h100v-148h-100q-139 0 -211.5 63.5t-72.5 184.5v406h-2q-54 -119 -180.5 -189.5t-285.5 -70.5q-142 0 -262 57.5t-209 161t-138 244t-49 306.5t49 306.5t138 244t209 161t262 57.5q157 0 285 -69.5t181 -184.5h2v230h170z
M748 144q142 0 247.5 75t164 210.5t58.5 315.5q0 184 -57.5 318.5t-162.5 208.5t-248 74q-141 0 -249.5 -77t-170.5 -212.5t-62 -311.5q0 -178 61 -313.5t169 -211.5t250 -76z" />
    <glyph glyph-name="qrthook" unicode="&#x24b;" horiz-adv-x="1160" 
d="M1148 -418q-282 0 -282 248v330h-2q-57 -91 -144 -135.5t-190 -44.5q-137 0 -240.5 69.5t-160.5 193t-57 285.5q0 163 57 286.5t160.5 192.5t240.5 69q103 0 193 -43.5t141 -132.5h2v156h168v-1226q0 -53 25 -76.5t89 -23.5h100v-148h-100zM556 133q147 0 233.5 108
t86.5 287t-86.5 287.5t-233.5 108.5q-137 0 -224.5 -101t-87.5 -295t87.5 -294.5t224.5 -100.5z" />
    <glyph glyph-name="uni024C" unicode="&#x24c;" horiz-adv-x="1262" 
d="M166 0v582h-174v162h174v746h553q233 0 369.5 -121.5t136.5 -330.5q0 -159 -85.5 -269t-231.5 -155l335 -614h-210l-314 585h-14h-359v-585h-180zM346 745h369q155 0 243.5 78.5t88.5 214.5t-89.5 214t-244.5 78h-367v-585z" />
    <glyph glyph-name="uni024D" unicode="&#x24d;" horiz-adv-x="660" 
d="M126 0v1056h162v-166h4q29 82 92 132t162 50q23 0 42.5 -2t29.5 -4v-170q-10 3 -38.5 7.5t-65.5 4.5q-88 0 -153 -62t-65 -196v-650h-170zM-108 463v146h640v-146h-640z" />
    <glyph glyph-name="uni024E" unicode="&#x24e;" horiz-adv-x="1304" 
d="M1330 1184v-120h-300l-282 -450v-614h-180v614l-282 450h-312v120h237l-191 306h208l190 -306h482l189 306h207l-191 -306h225zM826 1064h-334l35 -56q35 -55 67.5 -110.5t64.5 -110.5q32 55 65 110.5t67 110.5z" />
    <glyph glyph-name="uni024F" unicode="&#x24f;" horiz-adv-x="1048" 
d="M1013 798v-134h-147l-335 -860q-41 -106 -117 -164t-176 -58h-104v150h104q94 0 143 127l58 150l-256 655h-148v134h96l-101 258h184l97 -258h431l95 258h181l-100 -258h95zM693 664h-332l81 -216q22 -59 43.5 -118.5t41.5 -118.5q21 59 42.5 118.5t43.5 118.5z" />
    <glyph glyph-name="aturn" unicode="&#x250;" horiz-adv-x="1060" 
d="M612 1072q158 0 263 -81t105 -239q0 -91 -35.5 -148t-95 -89.5t-134.5 -49t-155 -27.5q-100 -13 -158.5 -20t-83 -23t-24.5 -57v-10q0 -86 61.5 -142t172.5 -56q110 0 180.5 53.5t76.5 132.5h173q-4 -96 -59.5 -172t-150.5 -120t-220 -44q-184 0 -293 95.5t-109 252.5
v728h168v-150h4q20 38 56.5 76.5t99 64t158.5 25.5zM588 920q-104 0 -169 -37.5t-95 -97.5t-30 -129v-132q20 18 101.5 32.5t172.5 27.5q61 9 115.5 28t88.5 55t34 95q0 74 -58.5 116t-159.5 42z" />
    <glyph glyph-name="ascript" unicode="&#x251;" horiz-adv-x="1160" 
d="M530 -20q-137 0 -240.5 69.5t-160.5 193t-57 285.5q0 163 57 286.5t160.5 192.5t240.5 69q103 0 193 -43.5t141 -132.5h2v156h168v-1056h-168v160h-2q-57 -91 -144 -135.5t-190 -44.5zM556 133q147 0 233.5 108t86.5 287t-86.5 287.5t-233.5 108.5q-137 0 -224.5 -101
t-87.5 -295t87.5 -294.5t224.5 -100.5z" />
    <glyph glyph-name="ascriptturn" unicode="&#x252;" horiz-adv-x="1160" 
d="M630 -20q-103 0 -190 44.5t-144 135.5h-2v-160h-168v1056h168v-156h2q51 89 141 132.5t193 43.5q138 0 241 -69t160 -192.5t57 -286.5q0 -162 -57 -285.5t-160 -193t-241 -69.5zM604 133q137 0 224.5 100.5t87.5 294.5t-87.5 295t-224.5 101q-147 0 -233.5 -108.5
t-86.5 -287.5t86.5 -287t233.5 -108z" />
    <glyph glyph-name="uni0253" unicode="&#x253;" horiz-adv-x="1158" 
d="M628 -20q-103 0 -190 44.5t-144 135.5h-2v-160h-166v1242q0 122 74.5 185t213.5 63h100v-148h-100q-64 0 -91 -23.5t-27 -76.5v-342h2q51 89 139 132.5t191 43.5q138 0 241 -69t160 -192.5t57 -286.5q0 -162 -57 -285.5t-160 -193t-241 -69.5zM602 133q137 0 224.5 100.5
t87.5 294.5t-87.5 295t-224.5 101q-147 0 -233.5 -108.5t-86.5 -287.5t86.5 -287t233.5 -108z" />
    <glyph glyph-name="uni0254" unicode="&#x254;" horiz-adv-x="1042" 
d="M62 344h188q9 -85 78 -144.5t176 -59.5q106 0 166.5 57t86 144.5t25.5 178.5v56q1 99 -26 189.5t-89 148.5t-169 58q-117 0 -178 -73t-70 -189h-188q6 124 59 219t149 149t228 54q161 0 268 -76t160.5 -202t53.5 -278v-56q0 -143 -55 -266.5t-161 -198.5t-260 -75
q-127 0 -224.5 51.5t-154.5 134.5t-63 178z" />
    <glyph glyph-name="drthook" unicode="&#x256;" horiz-adv-x="1158" 
d="M1146 -418q-282 0 -282 248v330q-57 -91 -144 -135.5t-190 -44.5q-137 0 -240.5 69.5t-160.5 193t-57 285.5q0 163 57 286.5t160.5 192.5t240.5 69q103 0 191 -43.5t139 -132.5h2v590h170v-1660q0 -53 25 -76.5t89 -23.5h100v-148h-100zM556 133q147 0 233.5 108
t86.5 287t-86.5 287.5t-233.5 108.5q-137 0 -224.5 -101t-87.5 -295t87.5 -294.5t224.5 -100.5z" />
    <glyph glyph-name="uni0257" unicode="&#x257;" horiz-adv-x="1160" 
d="M530 -20q-137 0 -240.5 69.5t-160.5 193t-57 285.5q0 163 57 286.5t160.5 192.5t240.5 69q103 0 193 -43.5t141 -132.5v342q0 122 74.5 185t213.5 63h100v-148h-100q-64 0 -91 -23.5t-27 -76.5v-1242h-168v160h-2q-57 -91 -144 -135.5t-190 -44.5zM556 133
q147 0 233.5 108t86.5 287t-86.5 287.5t-233.5 108.5q-137 0 -224.5 -101t-87.5 -295t87.5 -294.5t224.5 -100.5z" />
    <glyph glyph-name="erev" unicode="&#x258;" horiz-adv-x="1042" 
d="M482 -20q-270 0 -412 212l122 94q56 -73 129.5 -109.5t156.5 -36.5q139 0 218.5 96t85.5 258h-724v88q0 257 116.5 403.5t323.5 146.5q145 0 254.5 -71.5t170.5 -200.5t61 -302v-40q0 -163 -62.5 -284t-175 -187.5t-264.5 -66.5zM777 654q-15 150 -83.5 234t-183.5 84
q-107 0 -173.5 -76.5t-78.5 -225.5v-16h519z" />
    <glyph glyph-name="uni0259" unicode="&#x259;" horiz-adv-x="1098" 
d="M536 1080q155 0 264.5 -71t167.5 -195.5t58 -283.5q0 -160 -61 -285.5t-169 -197t-248 -71.5q-147 0 -255 70t-166.5 195t-58.5 289v47h790q-6 155 -89 252t-233 97q-112 0 -184 -51.5t-96 -134.5h-170q20 101 83 177.5t157.5 119.5t209.5 43zM856 431h-618
q14 -139 97 -221t213 -82t212 82t96 221z" />
    <glyph glyph-name="uni025A" unicode="&#x25a;" horiz-adv-x="1464" 
d="M548 -24q-147 0 -255 70t-166.5 195t-58.5 289v15l779 122q-26 118 -105 188.5t-206 70.5q-112 0 -184 -51.5t-96 -134.5h-170q20 101 83 177.5t157.5 119.5t209.5 43q191 0 312.5 -107.5t160.5 -281.5l194 32q19 -124 36 -188.5t41.5 -87.5t63.5 -23q35 0 76 13l29 -118
q-68 -29 -128 -29q-94 0 -149 63.5t-85 205.5l-61 -10v-19q0 -160 -61 -285.5t-169 -197t-248 -71.5zM858 523l-619 -97q15 -137 97.5 -217.5t211.5 -80.5q141 0 225.5 96.5t84.5 257.5v41z" />
    <glyph glyph-name="epsilon1" unicode="&#x25b;" horiz-adv-x="972" 
d="M480 -24q-115 0 -206.5 37t-144.5 107t-53 168q0 95 52 158.5t145 94.5q-84 31 -129.5 88.5t-45.5 142.5q0 135 108 221.5t283 86.5q177 0 280 -90t111 -238h-164q-4 82 -64 132t-163 50q-100 0 -160.5 -46.5t-60.5 -115.5q0 -64 59 -109.5t183 -45.5h94v-146h-110
q-110 0 -178.5 -42t-68.5 -129q0 -83 64 -130.5t173 -47.5q228 0 246 194h168q-7 -115 -64 -190.5t-149 -112.5t-205 -37z" />
    <glyph glyph-name="epsilon1rev" unicode="&#x25c;" horiz-adv-x="972" 
d="M492 -24q-113 0 -205 37t-149 112.5t-64 190.5h168q18 -194 246 -194q110 0 173.5 47.5t63.5 130.5q0 87 -68.5 129t-178.5 42h-110v146h94q125 0 183.5 45.5t58.5 109.5q0 69 -60 115.5t-161 46.5q-103 0 -163 -50t-64 -132h-164q8 148 111 238t280 90
q176 0 283.5 -86.5t107.5 -221.5q0 -85 -45.5 -142.5t-129.5 -88.5q93 -31 145 -94.5t52 -158.5q0 -98 -53 -168t-144.5 -107t-206.5 -37z" />
    <glyph glyph-name="epsilon1revhook" unicode="&#x25d;" horiz-adv-x="1329" 
d="M1186 419q-94 0 -145 51.5t-81 193.5l-172 -76q-37 -28 -89 -47q93 -31 145 -94.5t52 -158.5q0 -98 -53 -168t-144.5 -107t-206.5 -37q-113 0 -205 37t-149 112.5t-64 190.5h168q18 -194 246 -194q110 0 173.5 47.5t63.5 130.5q0 87 -68.5 129t-178.5 42h-110v146h94
q125 0 183.5 45.5t58.5 109.5q0 69 -60 115.5t-161 46.5q-103 0 -163 -50t-64 -132h-164q8 148 111 238t280 90q176 0 283.5 -86.5t107.5 -221.5v0l194 80q19 -124 36 -188.5t41.5 -87.5t63.5 -23q35 0 76 13l29 -118q-68 -29 -128 -29z" />
    <glyph glyph-name="epsilon1revclosed" unicode="&#x25e;" horiz-adv-x="1005" 
d="M525 -24q-220 0 -336.5 141.5t-116.5 410.5q0 268 114.5 410t329.5 142q176 0 283.5 -86.5t107.5 -221.5q0 -85 -45.5 -142.5t-129.5 -88.5q93 -31 145 -94.5t52 -158.5q0 -98 -53 -168t-144.5 -107t-206.5 -37zM441 573v44h54q125 0 183.5 45.5t58.5 109.5
q0 69 -60 115.5t-161 46.5q-136 0 -205 -99.5t-69 -306.5q0 -214 68.5 -310t210.5 -96q110 0 173.5 47.5t63.5 130.5q0 87 -68.5 129t-178.5 42h-70v102z" />
    <glyph glyph-name="jdotlessbar" unicode="&#x25f;" horiz-adv-x="422" 
d="M126 1056h170v-1204q0 -115 -72 -192.5t-206 -77.5h-74v150h58q65 0 94.5 35t29.5 111v1178zM-110 575v146h640v-146h-640z" />
    <glyph glyph-name="uni0260" unicode="&#x260;" horiz-adv-x="1158" 
d="M568 -432q-178 0 -301 82t-143 238h174q23 -85 95.5 -127.5t174.5 -42.5q138 0 217 73.5t79 208.5v160h-1q-58 -92 -143.5 -136t-189.5 -44q-137 0 -240.5 69.5t-160.5 193t-57 285.5q0 163 57 286.5t160.5 192.5t240.5 69q101 0 189 -42.5t143 -137.5v346
q0 122 74.5 185t213.5 63h100v-148h-100q-64 0 -91 -23.5t-27 -76.5v-1242q0 -156 -64.5 -251t-170.5 -138t-229 -43zM556 133q147 0 233.5 108t86.5 287t-86.5 287.5t-233.5 108.5q-137 0 -224.5 -101t-87.5 -295t87.5 -294.5t224.5 -100.5z" />
    <glyph glyph-name="gcursive" unicode="&#x261;" horiz-adv-x="1158" 
d="M568 -432q-178 0 -301 82t-143 238h174q23 -85 95.5 -127.5t174.5 -42.5q138 0 217 73.5t79 208.5v160h-1q-58 -92 -143.5 -136t-189.5 -44q-137 0 -240.5 69.5t-160.5 193t-57 285.5q0 163 57 286.5t160.5 192.5t240.5 69q103 0 191.5 -43.5t143.5 -141.5h1v165h166
v-1056q0 -156 -64.5 -251t-170.5 -138t-229 -43zM556 133q147 0 233.5 108t86.5 287t-86.5 287.5t-233.5 108.5q-137 0 -224.5 -101t-87.5 -295t87.5 -294.5t224.5 -100.5z" />
    <glyph glyph-name="g.sc" unicode="&#x262;" horiz-adv-x="1072" 
d="M551 -17q-145 0 -257 69t-175 192t-63 283q0 164 64 287t175.5 191t253.5 68q116 0 213 -46t161 -127.5t80 -190.5h-172q-21 94 -96 152.5t-183 58.5q-148 0 -237 -107.5t-89 -285.5q0 -175 89.5 -283t237.5 -108q123 0 206 75t84 195h-257v138h424v-124
q0 -127 -60 -225.5t-163.5 -155t-235.5 -56.5z" />
    <glyph glyph-name="gamma1" unicode="&#x263;" horiz-adv-x="1154" 
d="M576 -442q-127 0 -200.5 63t-73.5 179q0 35 15.5 80t36.5 88l126 252l-442 898h188l352 -702l350 702h190l-441 -900l125 -250q27 -52 34.5 -96t7.5 -72q0 -116 -70.5 -179t-197.5 -63zM579 19q-41 -81 -66 -130.5t-25 -88.5q0 -33 24.5 -54.5t63.5 -21.5t63.5 22.5
t24.5 53.5q0 37 -21 85.5t-64 133.5z" />
    <glyph glyph-name="babygamma" unicode="&#x264;" horiz-adv-x="1414" 
d="M206 856l-124 124q50 59 119 105.5t157 46.5q111 0 190.5 -84t158.5 -220q80 137 161 220.5t192 83.5q88 0 156.5 -46.5t119.5 -105.5l-126 -124q-26 35 -56 57.5t-64 22.5q-44 0 -78.5 -26t-78 -93.5t-113.5 -190.5l10 -18q29 -52 63.5 -121t59.5 -142t25 -139
q0 -102 -71 -164t-201 -62q-126 0 -198 62t-72 164q0 66 25.5 139t60 141.5t62.5 119.5q5 9 11 20q-16 29 -35 64q-49 88 -83 142t-68.5 79t-82.5 25q-35 0 -64.5 -22.5t-55.5 -57.5zM705 417q-31 -64 -49 -116t-18 -87q0 -25 15 -46.5t53 -21.5q40 -1 55 21t15 47
q0 32 -16.5 79.5t-54.5 123.5z" />
    <glyph glyph-name="hturn" unicode="&#x265;" horiz-adv-x="1120" 
d="M824 438v618h170v-1490h-170v582q-55 -86 -133.5 -127t-176.5 -41q-106 0 -194.5 46.5t-141 140t-52.5 233.5v656h170v-644q0 -137 66 -206.5t184 -69.5q116 0 197 71t81 231z" />
    <glyph glyph-name="uni0266" unicode="&#x266;" horiz-adv-x="1120" 
d="M296 618v-618h-170v1242q0 122 74.5 185t213.5 63h100v-148h-100q-64 0 -91 -23.5t-27 -76.5v-334q55 86 133.5 127t176.5 41q107 0 195 -46.5t140.5 -139.5t52.5 -234v-656h-170v644q0 137 -65.5 206.5t-184.5 69.5q-115 0 -196.5 -71t-81.5 -231z" />
    <glyph glyph-name="uni0267" unicode="&#x267;" horiz-adv-x="1120" 
d="M712 -418h-102v148h100q64 0 89 23.5t25 76.5v814q0 137 -65.5 206.5t-184.5 69.5q-115 0 -196.5 -71t-81.5 -231v-618h-170v1242q0 122 74.5 185t213.5 63h100v-148h-100q-64 0 -91 -23.5t-27 -76.5v-334q55 86 133.5 127t176.5 41q107 0 195 -46.5t140.5 -139.5
t52.5 -234v-826q0 -248 -282 -248z" />
    <glyph glyph-name="ibar" unicode="&#x268;" horiz-adv-x="422" 
d="M126 0v1056h170v-1056h-170zM211 1262q-48 0 -82 34t-34 82t34 82t82 34t82 -34t34 -82t-34 -82t-82 -34zM-108 521v146h640v-146h-640z" />
    <glyph glyph-name="iota" unicode="&#x3b9;" horiz-adv-x="470" 
d="M396 0q-146 0 -208 54.5t-62 183.5v818h170v-800q0 -67 21.5 -88.5t86.5 -21.5h41v-146h-49z" />
    <glyph glyph-name="iota" unicode="&#x269;" horiz-adv-x="470" 
d="M396 0q-146 0 -208 54.5t-62 183.5v818h170v-800q0 -67 21.5 -88.5t86.5 -21.5h41v-146h-49z" />
    <glyph glyph-name="lmidtilde" unicode="&#x26b;" horiz-adv-x="422" 
d="M296 1490v-1490h-170v1490h170zM341 631q-48 0 -94 20.5t-84 40.5t-63 20q-26 0 -38 -25t-14 -53h-123q3 88 41 146t117 58q51 0 93 -21t78 -42t69 -21q45 0 55 80h119q-3 -92 -43.5 -147.5t-112.5 -55.5z" />
    <glyph glyph-name="uni026C" unicode="&#x26c;" horiz-adv-x="805" 
d="M790 600h-214v-600h-172v600h-110q-80 0 -148 32t-109 92t-41 142q0 112 78 189t214 77q64 0 116 -19v377h172v-730h214v-160zM404 862q0 47 -29 82.5t-91 35.5q-46 0 -77 -33.5t-31 -80.5q0 -43 34 -74.5t86 -31.5h108v102z" />
    <glyph glyph-name="lrthook" unicode="&#x26d;" horiz-adv-x="422" 
d="M410 -418q-139 0 -211.5 63.5t-72.5 184.5v1660h170v-1660q0 -53 25 -76.5t89 -23.5h100v-148h-100z" />
    <glyph glyph-name="lyogh" unicode="&#x26e;" horiz-adv-x="1226" 
d="M148 1490h172v-372h798v-132l-402 -482v-12q192 -20 311 -136.5t119 -315.5q0 -146 -64.5 -255t-178 -169t-261.5 -60q-115 0 -210.5 35.5t-163.5 96.5l124 124q45 -45 110 -70.5t144 -25.5q142 0 232 87.5t90 236.5q0 147 -90 229.5t-232 82.5h-140v146l372 448v12h-558
v-958h-172v1490z" />
    <glyph glyph-name="mturn" unicode="&#x26f;" horiz-adv-x="1718" 
d="M1592 1056v-1056h-166v171q-50 -93 -133 -142t-180 -49q-108 0 -189 55t-114 135q-43 -81 -129 -135.5t-204 -54.5q-96 0 -176 42t-127.5 127t-47.5 215v692h170v-692q0 -123 69 -175.5t160 -52.5q116 0 182.5 70.5t66.5 177.5v672h170v-710q0 -94 63.5 -152t159.5 -58
q67 0 125 31t94 92.5t36 152.5v644h170z" />
    <glyph glyph-name="mturndescend" unicode="&#x270;" horiz-adv-x="1718" 
d="M1426 -418v589q-50 -93 -133 -142t-180 -49q-108 0 -189 55t-114 135q-43 -81 -129 -135.5t-204 -54.5q-96 0 -176 42t-127.5 127t-47.5 215v692h170v-692q0 -123 69 -175.5t160 -52.5q116 0 182.5 70.5t66.5 177.5v672h170v-710q0 -94 63.5 -152t159.5 -58q67 0 125 31
t94 92.5t36 152.5v644h170v-1474h-166z" />
    <glyph glyph-name="uni0271" unicode="&#x271;" horiz-adv-x="1718" 
d="M1310 -418h-102v148h100q64 0 89 23.5t25 76.5v862q0 123 -69 175.5t-160 52.5q-116 0 -182.5 -70.5t-66.5 -177.5v-672h-170v710q0 95 -63.5 152.5t-159.5 57.5q-66 0 -124.5 -31t-94.5 -92.5t-36 -152.5v-644h-170v1056h166v-171q50 93 133 142t180 49q108 0 189 -55
t114 -135q43 81 129 135.5t204 54.5q97 0 176.5 -42t127 -127t47.5 -215v-862q0 -248 -282 -248z" />
    <glyph glyph-name="nlfthook" unicode="&#x272;" horiz-adv-x="1120" 
d="M14 -418h-102v148h100q64 0 89 23.5t25 76.5v1226h166v-155q55 90 134.5 132.5t179.5 42.5q107 0 195 -46.5t140.5 -139.5t52.5 -234v-656h-170v644q0 137 -65.5 206.5t-184.5 69.5q-115 0 -196.5 -71t-81.5 -231v-788q0 -248 -282 -248z" />
    <glyph glyph-name="nrthook" unicode="&#x273;" horiz-adv-x="1120" 
d="M1108 -418q-139 0 -211.5 63.5t-72.5 184.5v814q0 137 -65.5 206.5t-184.5 69.5q-115 0 -196.5 -71t-81.5 -231v-618h-170v1056h166v-155q55 90 134.5 132.5t179.5 42.5q107 0 195 -46.5t140.5 -139.5t52.5 -234v-826q0 -53 25 -76.5t89 -23.5h100v-148h-100z" />
    <glyph glyph-name="obar" unicode="&#x275;" horiz-adv-x="1124" 
d="M562 -24q-146 0 -256.5 70.5t-172 194.5t-61.5 285q0 162 61.5 287t172 196t256.5 71q147 0 257 -71t171.5 -196t61.5 -287q0 -161 -61.5 -285t-171.5 -194.5t-257 -70.5zM562 130q135 0 216.5 88t97.5 237h-628q16 -149 97.5 -237t216.5 -88zM248 601h628
q-17 149 -99 237t-215 88t-215 -88t-99 -237z" />
    <glyph glyph-name="omegaclosed" unicode="&#x277;" horiz-adv-x="1600" 
d="M800 1132q198 0 335.5 -53.5t223 -144.5t124.5 -204t39 -232q0 -90 -21 -181t-68 -167.5t-123.5 -123t-187.5 -46.5q-239 0 -322 235q-83 -235 -322 -235q-111 0 -187.5 46.5t-123.5 123t-68 167.5t-21 181q0 119 39 232t124.5 204t223 144.5t335.5 53.5zM800 972
q-198 0 -311.5 -62t-161 -168.5t-47.5 -239.5q0 -86 19.5 -169.5t66 -138t128.5 -54.5q83 0 145.5 75.5t62.5 256.5v188h196v-188q1 -181 63.5 -256.5t144.5 -75.5t128.5 54.5t66 138t19.5 169.5q0 133 -47.5 239.5t-161 168.5t-311.5 62z" />
    <glyph glyph-name="philatin" unicode="&#x278;" horiz-adv-x="1228" 
d="M120 544v24q0 144 47 261t135.5 194t211.5 100v367h198v-367q125 -22 213.5 -99t135.5 -194.5t47 -261.5v-24q0 -145 -47 -262.5t-135.5 -194t-213.5 -98.5v-385h-198v385q-123 23 -211.5 100t-135.5 194t-47 261zM712 955v-798q99 37 147.5 143.5t48.5 243.5v24
q0 135 -48.5 242t-147.5 145zM320 568v-24q0 -137 48 -242.5t146 -143.5v796q-98 -39 -146 -145.5t-48 -240.5z" />
    <glyph glyph-name="rturn" unicode="&#x279;" horiz-adv-x="660" 
d="M534 1056v-1056h-162v166h-4q-29 -82 -92 -132t-162 -50q-23 0 -42 2.5t-30 3.5v170q11 -3 39 -7.5t65 -4.5q88 0 153 62t65 196v650h170z" />
    <glyph glyph-name="rturnascend" unicode="&#x27a;" horiz-adv-x="670" 
d="M70 -6v184q26 -4 46.5 -7t45.5 -3q90 0 148 38t88 102v1228h202v-1536h-196l-4 114q-40 -62 -101 -98t-145 -36q-19 0 -46 5t-38 9z" />
    <glyph glyph-name="rturnrthook" unicode="&#x27b;" horiz-adv-x="660" 
d="M648 -418q-276 0 -276 248v336h-4q-29 -82 -92 -132t-162 -50q-23 0 -42 2.5t-30 3.5v170q11 -3 39 -7.5t65 -4.5q88 0 153 62t65 196v650h170v-1226q0 -53 25 -76.5t89 -23.5h100v-148h-100z" />
    <glyph glyph-name="uni027E" unicode="&#x27e;" horiz-adv-x="660" 
d="M126 0v690q0 144 56.5 227t142.5 117.5t175 34.5q47 0 77.5 -2t40.5 -4v-162q-16 2 -41.5 3t-62.5 1q-58 0 -108 -16.5t-80 -62.5t-30 -136v-690h-170z" />
    <glyph glyph-name="rfishhookrev" unicode="&#x27f;" horiz-adv-x="660" 
d="M534 0h-170v690q0 90 -30 136t-79.5 62.5t-108.5 16.5q-37 0 -62 -1t-42 -3v162q11 2 41.5 4t76.5 2q89 0 175 -34.5t142.5 -117.5t56.5 -227v-690z" />
    <glyph glyph-name="srthook" unicode="&#x282;" horiz-adv-x="972" 
d="M358 -418q-282 0 -282 248v486h168q18 -194 246 -194q110 0 173.5 46t63.5 116q0 60 -44 96t-115 52l-170 40q-298 70 -298 300q0 90 48.5 159.5t135 109t199.5 39.5q110 0 197.5 -41.5t139 -117.5t54.5 -181h-166q-1 84 -62 139t-163 55q-97 0 -155 -47t-58 -115
q0 -60 44 -96.5t120 -54.5l170 -40q152 -36 223 -107.5t71 -185.5q0 -98 -53 -168t-144.5 -107t-206.5 -37q-151 0 -256 62v-208q0 -53 28 -76.5t92 -23.5h100v-148h-100z" />
    <glyph glyph-name="uni0283" unicode="&#x283;" horiz-adv-x="694" 
d="M52 -487h-108v160h108q143 0 143 166v1347q0 174 84.5 267t244.5 93h130v-160h-130q-159 0 -159 -200v-1347q0 -158 -80.5 -242t-232.5 -84z" />
    <glyph glyph-name="jhookdblbar" unicode="&#x284;" horiz-adv-x="694" 
d="M52 -487h-108v160h108q143 0 143 166v1347q0 174 84.5 267t244.5 93h130v-160h-130q-159 0 -159 -200v-1347q0 -158 -80.5 -242t-232.5 -84zM-40 0v146h640v-146h-640z" />
    <glyph glyph-name="uni0286" unicode="&#x286;" horiz-adv-x="1003" 
d="M650 -238q-29 -74 -97.5 -127t-186.5 -53q-135 0 -214.5 73t-79.5 191q0 120 80 192t200 72q75 0 152 -30v1106q0 174 84.5 267t244.5 93h130v-160h-130q-159 0 -159 -200v-1220l228 -234l-110 -114zM504 -91q-31 28 -69.5 43t-86.5 8q-45 -7 -71.5 -37.5t-26.5 -76.5
q0 -50 32 -83t84 -33q55 0 96.5 38.5t41.5 111.5v29z" />
    <glyph glyph-name="tturn" unicode="&#x287;" horiz-adv-x="637" 
d="M434 -288h-170v288h-214v146h214v654q0 62 -25.5 86t-90.5 24h-98v146h114q270 0 270 -238v-672h188v-146h-188v-288z" />
    <glyph glyph-name="trthook" unicode="&#x288;" horiz-adv-x="603" 
d="M447 -418q-128 0 -203 66.5t-75 179.5v1082h-154v146h154v288h170v-288h214v-146h-214v-1056q0 -68 28.5 -97t95.5 -29h90v-146h-106z" />
    <glyph glyph-name="uni0289" unicode="&#x289;" horiz-adv-x="1290" 
d="M1275 653v-146h-196v-507h-166v155q-55 -90 -134.5 -132.5t-179.5 -42.5q-106 0 -194.5 46.5t-141 140t-52.5 233.5v107h-196v146h196v403h170v-403h528v403h170v-403h196zM909 507h-528v-95q0 -137 66 -206.5t184 -69.5q116 0 197 71t81 231v69z" />
    <glyph glyph-name="upsilonlatin" unicode="&#x28a;" horiz-adv-x="1228" 
d="M614 140q104 0 167.5 29.5t97 76t45.5 97.5t12 93q0 69 -19.5 128t-45.5 112.5t-45.5 106t-19.5 107.5q0 25 8 65.5t39.5 81t100.5 68t190 27.5v-160q-23 0 -56 -6.5t-57.5 -28.5t-24.5 -71q0 -55 20 -102t46 -97.5t46 -114.5t20 -154q0 -75 -23.5 -149t-81.5 -135
t-160 -97.5t-259 -36.5q-156 0 -258 36.5t-160 97.5t-82 135t-24 149q0 90 20 154t47 114.5t47 97.5t20 102q0 49 -25 71t-58 28.5t-57 6.5v160q121 0 190 -27.5t100.5 -68t39.5 -81t8 -65.5q0 -55 -20 -107.5t-46 -106t-46 -112.5t-20 -128q0 -42 12 -93t46 -97.5t98 -76
t168 -29.5z" />
    <glyph glyph-name="vscript" unicode="&#x28b;" horiz-adv-x="1042" 
d="M520 146q63 0 112.5 24t77.5 88.5t28 183.5v384q1 68 -20.5 97t-65.5 29q-31 0 -58 -5t-64 -13l-24 154q48 15 108.5 29.5t119.5 14.5q97 0 140.5 -46t54.5 -117t11 -145v-382q0 -164 -53.5 -266t-148 -149t-218.5 -47q-122 0 -216 47t-147 149t-53 266v676h198v-676
q1 -119 30 -183.5t78.5 -88.5t109.5 -24z" />
    <glyph glyph-name="vturn" unicode="&#x28c;" horiz-adv-x="1048" 
d="M610 1056l408 -1056h-184l-228 608q-23 61 -44 121.5t-41 121.5q-21 -61 -42 -121.5t-43 -121.5l-225 -608h-181l408 1056h172z" />
    <glyph glyph-name="wturn" unicode="&#x28d;" horiz-adv-x="1540" 
d="M1182 1056l328 -1056h-178l-133 464q-28 96 -53.5 196t-51.5 198q-26 -98 -52 -198t-54 -196l-134 -464h-168l-132 464q-27 95 -52.5 194t-51.5 195q-26 -96 -52 -195t-54 -194l-136 -464h-178l328 1056h178l139 -480q25 -87 48 -177.5t47 -179.5q23 89 47 179.5
t49 177.5l142 480h174z" />
    <glyph glyph-name="yturn" unicode="&#x28e;" horiz-adv-x="1048" 
d="M914 1474v-150h-104q-94 0 -143 -127l-58 -150l409 -1047h-184l-228 608q-22 59 -43.5 118.5t-41.5 118.5q-21 -59 -42.5 -118.5t-43.5 -118.5l-224 -608h-181l487 1252q41 107 117 164.5t176 57.5h104z" />
    <glyph glyph-name="zrthook" unicode="&#x290;" horiz-adv-x="980" 
d="M1000 -418q-139 0 -211.5 63.5t-72.5 184.5v170h-622v130l578 770v4h-578v152h788v-136l-572 -764v-4h576v-322q0 -53 25 -76.5t89 -23.5h100v-148h-100z" />
    <glyph glyph-name="uni0292" unicode="&#x292;" horiz-adv-x="1212" 
d="M618 -458q-153 0 -271 63t-184.5 174.5t-66.5 254.5h180q0 -154 91 -244t247 -90q149 0 240.5 88t91.5 230q0 147 -102.5 228t-280.5 81h-186v146l435 421v2h-618v160h852v-160l-452 -440q172 4 290 -51t178 -155t60 -232q0 -140 -64.5 -247.5t-178 -168t-261.5 -60.5z
" />
    <glyph glyph-name="uni0293" unicode="&#x293;" horiz-adv-x="1222" 
d="M530 -418q-112 0 -211.5 36.5t-161 106t-61.5 167.5q0 118 90.5 192t235.5 74q97 0 177 -30.5t143 -73t108 -80.5l42 -34q26 58 26 118q0 87 -48 154t-132.5 104.5t-195.5 37.5h-118v146l366 394v2h-636v160h882v-132l-402 -428v-2q131 -8 235 -68t164.5 -155.5
t60.5 -212.5q0 -121 -68 -229l106 -87l-98 -118l-109 91q-73 -60 -172.5 -96.5t-222.5 -36.5zM797 -179l-45 37q-55 46 -137 93t-187 47q-78 0 -122 -30.5t-44 -77.5q0 -48 40.5 -81t104 -50t131.5 -17q84 0 148.5 21.5t110.5 57.5z" />
    <glyph glyph-name="uni0294" unicode="&#x294;" horiz-adv-x="1042" 
d="M378 550h116q113 0 175.5 57t87.5 144t25 177v44q1 92 -24 178.5t-87.5 143t-176.5 56.5q-95 0 -165 -57.5t-79 -142.5h-188q6 94 65.5 176t156 133t210.5 51q166 0 273.5 -74.5t160 -197t52.5 -266.5v-44q0 -130 -42.5 -243t-129 -189.5t-220.5 -98.5v-397h-210v550z
" />
    <glyph glyph-name="glottalstoprevinv" unicode="&#x295;" horiz-adv-x="1042" 
d="M440 0v396q-129 24 -212.5 101t-124.5 189t-41 240v46q0 144 52.5 266.5t160 197t271.5 74.5q130 0 226 -52t150 -141t58 -199h-188q-7 95 -71.5 163.5t-174.5 68.5q-111 0 -173 -57t-86.5 -144t-24.5 -177v-46q0 -83 20 -164t70.5 -139.5t141.5 -72.5h144v-550h-198z
" />
    <glyph glyph-name="glottalstopinv" unicode="&#x296;" horiz-adv-x="1042" 
d="M494 992h-90v498h202v-349q127 -25 210 -102.5t123.5 -189.5t40.5 -239v-90q0 -143 -52.5 -266.5t-160 -198.5t-273.5 -75q-127 0 -222.5 52.5t-149.5 141.5t-60 198h188q9 -94 72 -163t172 -69q113 0 175.5 57.5t87.5 145t25 177.5v90q1 92 -24 180t-87.5 145t-176.5 57
z" />
    </font>
</defs>
</svg>
